<?xml version="1.0" encoding="utf-8"?>
<!-- Generator: Adobe Illustrator 27.2.0, SVG Export Plug-In . SVG Version: 6.00 Build 0)  -->
<svg version="1.1" id="Laag_1" xmlns="http://www.w3.org/2000/svg" xmlns:xlink="http://www.w3.org/1999/xlink" x="0px" y="0px"
	 viewBox="0 0 1920 104.9" style="enable-background:new 0 0 1920 104.9;" xml:space="preserve">
<style type="text/css">
	.st0{opacity:1;enable-background:new    ;}
</style>
<g>
	<polygon class="st0" points="746.8,97.4 746.8,97.5 747.2,97.5 746.8,97.5 	"/>
	<polygon class="st0" points="740.5,101 740.5,101 740.5,101 	"/>
	<path class="st0" d="M741.7,101.2c3-0.8,3.8-2.2,2.3-3.7c-1-1-2.3-1.6-3.7-1.9l2.8,3.4c-0.9,0.4-1.9,0.8-2.7,1.3
		c-0.2,0.1-0.1,0.5,0.2,0.7c0.3,0.2,0.6,0.2,1,0.3C741.6,101.2,741.6,101.2,741.7,101.2z"/>
	<path class="st0" d="M745.7,96.1c-0.2,0.1-0.5,0.3-0.4,0.4l0,0c0.5,0.3,1,0.6,1.5,0.9c-0.2-0.4-0.4-0.8-0.7-1.2
		C746,96.2,745.9,96.1,745.7,96.1z"/>
	<path class="st0" d="M746.9,101.5L746.9,101.5c0.3,0.3,0.7,0.4,1.1,0.4c0.2,0,0.4,0,0.6,0c0.2,0,0.5,0,0.7,0c0.2,0,0.4-0.1,0.6-0.2
		c-0.2-0.1-0.4-0.2-0.6-0.3c-0.8-0.2-1.6-0.6-2.4,0C746.9,101.3,746.8,101.4,746.9,101.5z"/>
	<polygon class="st0" points="738.5,101.9 738.3,102 738.5,102.1 	"/>
	<path class="st0" d="M697.7,102.2c-1.1-0.6-2.1-1.1-2.9-1.6c-0.4-0.3-0.7-0.7-1-1.2c-1.6,0.5-1.8,1.2-1.8,1.9
		c0,0.9-2.4,0.6-2.2,1.7c2.1,0.5,4.3,0.6,6.5,0.5c1.8,0,3.7,0,5.5,0.3c0.2-0.5,0.8-1,0.7-1.5c-0.3-1-1.6-1.5-3.2-1.8L697.7,102.2z"
		/>
	<path class="st0" d="M740.2,95.6L740.2,95.6L740.2,95.6C740.2,95.6,740.2,95.6,740.2,95.6z"/>
	<path class="st0" d="M737.9,97.5L737.9,97.5c0.1,0.1,0.1,0.2,0.2,0.3c0.1,0,0.3-0.1,0.3-0.1s-0.1-0.1-0.1-0.2L737.9,97.5z"/>
	<path class="st0" d="M740.2,95.6C740.2,95.6,740.2,95.6,740.2,95.6L740.2,95.6L740.2,95.6L740.2,95.6z"/>
	<polygon class="st0" points="778.1,84.3 778.2,84.4 778.4,84.3 	"/>
	<path class="st0" d="M772.4,86.7c-0.6-0.1-1.2-0.3-1.7-0.3c-0.3,0-0.6,0.3-1,0.6l5,2.1c0,0,0,0,0,0l0.1,0l-0.1,0
		c0.5-0.8,1.3-1.2,2.2-1.2c2.1-0.2,4.2-0.4,6.9-0.7c-1.8-0.8-2.5-1.9-5-1.9c-0.5,0.3-1.1,0.6-1.7,0.9
		C775.7,86.9,774,87.1,772.4,86.7z"/>
	<path class="st0" d="M760.3,91.3c-0.1,0.3,0.5,0.6,1,0.6c0.1,0,0.2,0,0.3,0c1.2-0.3,2.2-0.7,2.4-1.7l-2.8-1.1
		C760.8,89.8,760.5,90.6,760.3,91.3L760.3,91.3z"/>
	<path class="st0" d="M765.9,96c-0.1,0-0.2,0-0.2,0c0,0-0.1,0-0.1,0c0,0.1,0,0.1,0,0.2l0.4,0C766,96.1,766,96,765.9,96z"/>
	<path class="st0" d="M761.1,96.5L761.1,96.5c0.2,0.1,0.4,0.2,0.6,0.3c0.1-0.1,0.2-0.2,0.2-0.2c-0.2-0.1-0.4-0.2-0.7-0.3
		C761.2,96.3,761,96.4,761.1,96.5z"/>
	<polygon class="st0" points="761.1,89 761.1,89 761.1,89.1 761.1,89.1 	"/>
	<path class="st0" d="M761.1,101.6L761.1,101.6C761.1,101.6,761.1,101.6,761.1,101.6c0.3-0.1,0.7-0.2,1-0.4c-0.5-0.2-1-0.3-1.5-0.5
		c-0.2,0-0.5,0.1-0.7,0.2C760.3,101.2,760.7,101.4,761.1,101.6z"/>
	<polygon class="st0" points="767,98.8 767,98.8 767,98.8 	"/>
	<path class="st0" d="M761.1,89C761.1,89,761.1,89,761.1,89L761.1,89C761.1,89,761.1,89,761.1,89L761.1,89z"/>
	<path class="st0" d="M705,100.5c-0.2,0.6-0.3,1.1-0.3,1.7c0,0.6,0.6,1,1.5,1.2c0.2,0,0.3,0,0.5,0c0.4,0,0.8-0.1,1.1-0.2
		c0.9-0.6,1.1-1.3,0.4-2C707.4,100.5,706.1,100.1,705,100.5z"/>
	<path class="st0" d="M756.7,96.6c-0.1-0.4-0.4-0.7-0.8-0.8c-1.8-0.3-3.7-0.1-5.3,0.6l0.2,0.6l0,0c1.3,0,2.7,0.1,4,0.1
		c0.3,0,0.6,0,1,0S756.8,96.8,756.7,96.6z"/>
	<path class="st0" d="M767.8,98.9c0.1,0,0.1-0.3,0.2-0.4c-0.3-0.1-0.5-0.1-0.8-0.1c-0.1,0-0.1,0.3-0.2,0.4c0.2,0,0.4,0.1,0.6,0.1
		C767.7,98.9,767.7,98.9,767.8,98.9z"/>
	<path class="st0" d="M762.9,98.8c-0.1,0.1,0.2,0.3,0.3,0.4l1.3-0.5l-0.7-0.4C763.4,98.4,763.2,98.6,762.9,98.8L762.9,98.8z"/>
	<path class="st0" d="M756.2,100.8l-3.4-2.2c-0.5,0.1-1.1,0.3-1.5,0.5c-0.3,0.2-0.4,0.6-0.2,1c0.3,0.5,0.9,0.8,1.4,0.9l0,0
		c0.2,0,0.3,0,0.5,0C753.8,101.1,754.8,100.9,756.2,100.8z"/>
	<path class="st0" d="M1789.4,84.3C1789.2,84.2,1789.2,84.2,1789.4,84.3L1789.4,84.3z"/>
	<path class="st0" d="M786.3,94.4L786.3,94.4L786.3,94.4C786.3,94.5,786.3,94.4,786.3,94.4z"/>
	<path class="st0" d="M1521.5,68.9C1521.5,68.9,1521.5,68.9,1521.5,68.9L1521.5,68.9l-0.1,0L1521.5,68.9z"/>
	<polygon class="st0" points="278.1,75.3 278.2,75.4 278.2,75.3 278.2,75.3 	"/>
	<path class="st0" d="M276,75.3l2.1,0l0,0C277.5,74.9,276.7,74.9,276,75.3z"/>
	<polygon class="st0" points="271.8,75.1 271.8,75.1 271.8,75.1 	"/>
	<path class="st0" d="M1520.7,69.8L1520.7,69.8L1520.7,69.8C1520.7,69.9,1520.7,69.9,1520.7,69.8L1520.7,69.8z"/>
	<path class="st0" d="M1565.2,71.7c0,0,0.1,0,0.1,0c0.5,0,0.9-0.1,0.7-0.6c-0.8,0-1.6,0.1-2.3,0.1c-0.8,0-1.5,0-2.3,0
		c0,0.1,0,0.2-0.1,0.3C1562.7,71.5,1563.9,71.6,1565.2,71.7L1565.2,71.7z"/>
	<polygon class="st0" points="1538.7,72.5 1538.6,72.6 1538.6,72.6 	"/>
	<path class="st0" d="M1546.9,72.2c0.1,0,0.2,0,0.3,0c0.1,0,0.1-0.2,0.1-0.2c-0.2-0.1-0.4-0.1-0.6-0.2c-0.1,0.1-0.1,0.2-0.2,0.4
		c0.1,0,0.1,0,0.2,0L1546.9,72.2z"/>
	<path class="st0" d="M1540.9,69c0.1,0.2,0.5,0.2,0.9,0.2c0.4,0,0.7-0.1,0.8-0.2c0.1-0.2-0.2-0.5-0.4-0.8c-0.1-0.1-0.4-0.1-0.7-0.2
		c-0.1,0-0.3,0.1-0.3,0.1C1541.1,68.5,1540.8,68.8,1540.9,69L1540.9,69z"/>
	<polygon class="st0" points="1541.1,70.5 1540.9,70.5 1540.9,70.6 	"/>
	<path class="st0" d="M674,104.3l-0.7-0.1c-0.1,0.1-0.1,0.3-0.1,0.4v0c0.1,0,0.2,0.1,0.3,0.1c0,0,0,0,0.1,0
		C673.7,104.5,673.9,104.4,674,104.3z"/>
	<path class="st0" d="M702.5,98.2c-0.5,0.3-1.8,0.5-1,1.3c2.1,0,4.3-0.1,6.5-0.1c2.1,0,3,0.6,2.9,1.8c0,0.4,0,0.9,0.1,1.3l0.4,0.7
		l1-0.4l4.5,0.6c-0.7-0.7-1.3-1.5-1.8-2.3c-0.3-0.6,0-1.2,1.7-1.3c0.3,0.7,0.6,1.3,0.9,1.8c0.5,0.5,1.2,0.7,1.9,0.6
		c0.8-0.3,0.8-0.7,0.6-1.2c-0.2-0.6-1.7-1.2-0.8-1.8c1.5-0.1,2.9-0.1,4.2-0.3c1.3-0.3,2.7-0.1,3.8,0.6l6.7-0.9
		c-0.1-0.6-0.2-1.3-0.4-2c-1.9-0.5-3.6,0-5.3,0.1c-1.2,0.1-2.2-0.1-2.5-0.9c-0.2-0.3-0.4-0.7-1.5-0.5c0,0.5-0.1,1.1-0.2,1.7
		l-4.3-0.3l0,0l0,0c0,0,0,0-0.1,0l0.1,0c-1.8,1.1-4.1,1.3-6,0.4l0.1,0l-0.1,0c0,0,0,0,0,0l0,0c-1.1,0.3-2.3,0.5-3.4,0.8
		C708,98.5,705.2,98.6,702.5,98.2z"/>
	<path class="st0" d="M688.7,101.2c-1.4-0.4-2.9-0.5-4.4-0.2c0.6,0.4,1.2,0.6,1.9,0.6C687.1,101.5,687.9,101.4,688.7,101.2z"/>
	<path class="st0" d="M680.5,104.1l4.4,0.1C683.9,103,683.8,103,680.5,104.1z"/>
	<polygon class="st0" points="898,86.5 898,86.5 898,86.5 	"/>
	<polygon class="st0" points="727.5,99.5 727.5,99.5 727.5,99.5 	"/>
	<path class="st0" d="M731.2,102.6L731.2,102.6c0.4,0,0.7,0.1,1.1,0.1c1.6,0,2.8-0.5,2.9-1.2c0.1-0.7-0.9-1.1-3.4-1.3
		c-0.1,0-0.2,0.1-0.5,0.2l1.4,1.2c-1,0.3-2.1,0.2-2.9-0.4c-0.8-0.5-1.5-1-2.3-1.6c0,0,0,0,0,0l-0.1,0l0.1,0
		C727.7,101.7,728.4,102.3,731.2,102.6z"/>
	<polygon class="st0" points="898,86.5 898,86.5 898,86.5 	"/>
	<polygon class="st0" points="898,86.5 898,86.5 898,86.5 	"/>
	<path class="st0" d="M675.1,94.9h0.5c-0.1,0-0.2,0-0.2-0.1C675.3,94.8,675.2,94.9,675.1,94.9z"/>
	<path class="st0" d="M722.7,101c-0.5,0.5-0.2,1.3,0.7,1.7l0,0c0.4,0.2,0.8,0.3,1.2,0.3c0.5,0,0.9-0.1,1.3-0.4
		c-0.1-0.8-0.9-1.3-2-1.7C723.5,100.8,723.1,100.8,722.7,101z"/>
	<path class="st0" d="M256.1,0.3c-0.2,0-0.4,0-0.6-0.1l0.2-0.2H0v74.2c1,0.4,2.1,0.7,3.2,0.9c3.2,0.6,6.5,0.9,9.7,1.1
		c3.1,0,6,0.4,9,0.7c3.8,0.5,7.6,0.8,11.4,0.7c4-0.2,7.9-0.5,11.9-0.7c0.6,0,1.3-0.2,1.8,0.2l-1.7,1c1.3,0.2,2.6,0.3,3.9,0.3
		c3-0.1,5.4,0.5,7.1,2c1,0.9,2.3,1.5,3.7,1.6c2.7-0.5,5.6-0.7,8.1-1.7c1.2-0.5,1.9-0.3,3.4,0.8c1.5-0.3,2.9-1,4-2.1
		c0.4-0.3,0.8-0.4,1.2-0.5c0.2,0,0.5,0,0.7,0.1c0.2,0.1,0.3,0.3,0.3,0.4c-0.7,1-1.5,1.9-2.3,2.8c-0.5,0.3-1,0.5-1.6,0.5
		c-1,0-2-0.1-3.1-0.3c0.5,0.6,1.3,0.9,2,0.9c2.8,0.4,5.5,0.9,8.5,1.4c1.3-1,2.9-1.5,4.6-1.6c2.8-0.3,5.7-0.5,8.5-0.8
		c0.1,0,0.3,0,0.4,0c3.2,0,6.3-0.2,9.4-0.5c4.4-0.4,8.9-0.8,13.3-1.2c0.8-0.1,1.6-0.3,2.3-0.5c-0.9-0.7-1.7-1.3-2.4-1.9
		c-0.1,0-0.2-0.1-0.3-0.1c0.3-0.6-0.2-1.1-0.6-1.5c-0.3,0.1-0.5,0.1-0.8,0.1c-0.3-0.1-0.5-0.2-0.8-0.3c0.3-0.1,0.6-0.2,1-0.2
		c0.3,0.1,0.7,0.2,1,0.3c2.2-0.2,4.4-0.4,6.7-0.6c2.3-0.2,4.6-0.4,6.9-0.7l0-0.3l-3.8-0.5l3.3-0.6l-2.2-1.2c0.5-0.3,1-0.6,1.5-0.8
		c3-0.6,6.1-0.9,9.1-0.8c-0.8,0.2-1.2,0.3-1.7,0.4c-0.9,0.2-1.8,0.3-2.7,0.4c-1.4,0.2-2.2,0.6-1.8,1c0.6,0.6,1.6,0.4,2.5,0.3
		c0.7-0.1,1.3-0.2,1.9-0.2c2.2-0.2,4.4-0.1,6.5,0.3l-2,0.6c0.3,0.1,0.6,0.2,0.9,0.3c3.4,0.4,6.8,0.6,10.1,1.1
		c2.7,0.4,5.5,0.4,8.3,0.1c0.8-0.1,1.6-0.1,2.4,0c1.7,0.3,3.4,0.4,5.1,0.4c4.7,0.4,9.4,0.9,14.2,0.4c0.3,0,0.5,0,0.8,0
		c2,0.7,4.4,0.5,6.5,0.8c4.1,0.8,8.2,0.4,12.1-0.9c1.8-0.6,3.8-0.8,5.7-0.5c0.2,0.5,0.4,0.9,0.6,1.3c4.8,0.4,9.6,0.3,14.4-0.3
		c0.3,0,0.5-0.1,0.8-0.1c4.5-0.3,9-0.3,13.5,0.1c1.2,0.1,2.3,0.4,3.5,0.5c1.3,0.1,2.6,0,3.9,0c-0.1,0.7-2.3,0.3-2.1,1.3
		c3.1-0.3,6-0.6,9.1-0.8c3.1-0.2,6.4-0.7,8.8,1.1c1.7-0.2,3.3-0.4,4.8-0.5c0.6-0.1,1.3-0.2,1.9-0.1c1.9,0.5,3.8,0.7,5.8,0.6
		c0.7,0,1.4,0,2,0c0.9-0.1,1.7,0.1,2.5,0.6c1,0.9,2.5,0.7,3.9,0.5c1-0.1,2-0.5,3-0.5c2.7-0.1,5.4,0.1,8.1,0.6l-4.6,0.7
		c3.1,0.4,6.3,0.3,9.4-0.3c2.3-0.4,4.7-0.3,7.1,0c1.6,0.3,3.2,0.4,4.8,0.3c1.7,2.1,1.4,1.9,4.7,1.7c0.3,0,0.6,0,0.9,0.1
		c0.2,0.2,0.4,0.3,0.5,0.5c1,1.1,1.3,1.1,2.8,0.3c0.4-0.2,0.7-0.5,1.3-0.2c0,1.1,0,1.2,1.9,1.4c0,0,0,0,0,0l0,0h0
		c0.4-0.4,0.5-1,0.3-1.5c0.3,0.1,0.6,0.2,1,0.3c1.8,0.4,3.6,0.8,5.4,1c3.8,0.4,7.6,0.6,11.4,0.8c5.2,0.4,10.3,0.7,15.5,1
		c0.9,0.1,1.8-0.1,2.7-0.1c0-0.7-0.6-0.8-1.3-0.8c-1.6-0.2-3.2-0.3-4.8-0.4c-0.7-0.1-1.3-0.3-1.3-0.8c0-0.5,0.5-0.7,1.2-0.8
		c2.6-0.3,5.1-0.5,7.7-0.4c3.6,0.4,7.3,0.4,10.9-0.1c0.2,0,0.5,0,0.7,0c0.2,0,0.3,0,0.5,0c2.6-0.2,5.1-0.2,7.7-0.5
		c2.6-0.2,5.2-0.2,7.7,0c0.1,0,0.3,0,0.4,0c2.2-0.3,4.5-0.4,6.8-0.2c2.2,0.2,4.4,0.1,6.6-0.2c0.3,0,0.5,0,0.8,0.1
		c3,0.2,3,0.2,5.1-1.2c3,1.2,3,1.2,8.3,0.6c-0.2-0.2-0.4-0.3-0.7-0.6l6.1-0.2c0.2,0.5-1.5,0.2-0.7,0.9c1.5,0,3.1-0.3,4.5-0.8
		c1.3-0.5,2.7-0.3,3.8,0.4c0.6-0.6,1-1.4,2.6-1.3c0.2,0,0.5-0.3,0.7-0.5c0.7-0.7,1.2-0.8,1.9-0.3c0.9,0.6,2.1,0.9,3.2,0.8
		c1.4,0,2.7-0.1,4.1,0c1.6,0.2,3.1-0.1,4.5-0.8c0.5-0.3,1.2-0.5,1.8-0.5c6.3,0,12.6-0.1,18.8,0.1c2,0.2,4,0.2,6-0.1
		c0.5,0,1.1,0,1.6,0c2.4,0.1,4.9,0.3,7.3,0.3c1,0,1.9-0.1,2.9-0.1c1.3-0.1,2.6-0.1,4-0.1c0.8,0,1.6,0,2.4-0.1
		c1.4-0.2,2.9-0.1,4.3,0.4c0.2,0.1,0.8-0.1,1.2-0.1c3.1-0.1,6.2-0.6,9.3,0.2c0.4,0.1,0.8,0.1,1.2,0c0.9-0.2,1.9-0.2,2.9-0.1
		c0.8,0.1,1.6,0.1,2.4-0.1c1.8-0.4,3.7-0.3,5.5,0.1c0.5,0,1.1,0,1.6-0.2c1.8-0.4,3.8-0.4,5.6,0c0.5,0.1,1.1,0.1,1.6,0.1
		c2.5-0.1,5.1-0.5,7.5,0.3c0.6,0.1,1.3,0.1,1.9-0.1c2.4-0.8,5-0.7,7.3,0.2c1.2-0.5,2.3-1,3.7-0.4c0.4,0.1,0.7,0.2,1.1,0.3
		c1.2,0.4,2.6,0.4,3.8-0.2c0.4-0.1,0.8-0.2,1.2-0.3l3.5,0.7l3.1-0.8l1.7,1c2.2-0.2,4.2-0.5,6.2-0.6c1.8-0.1,3.9-0.4,5.3,0.7
		c0.5,0,0.9,0,1.4,0.1c1.1,0.3,2.3,0.1,3.2-0.5c0.8-0.5,1.8-0.5,2.6-0.1c1,0.4,1.8,0.9,2.9,1.4c0-0.7-0.1-1.1,1-1.3
		c2.4-0.5,3.3,0.7,4.6,1.5c1.2-0.4,2.5-0.8,3.8-0.9c1.2,0.1,2.4,0.3,3.5,0.6l6.4-0.9l1.5,0.8c-1.1,0.5-2.4,0.6-3.6,0.5
		c-1.2-0.1-2.6,0.5-4,0.8l2.8,1.6c1.2-0.3,2.7-0.5,4.1-0.9c1.1-0.3,2-0.8,3.1-1.2c0.8-0.3,1.5-0.6,2.3-0.8c0.9,0.2,1.7,0.5,2.5,0.9
		l6.7-1.4c0.1,0.1,0.2,0.1,0.2,0.2c-0.8,1.8-1.8,2.2-4.9,2.2c-0.7-0.1-1.5,0-2.2,0.2c-1.3,1.1-3.4,1.3-5.1,1.9
		c-1.2,0.4-2.3,0.9-3.5,1.3c0.9,0.4,1.9,0.5,2.9,0.2c2.3-0.3,4.6-0.8,6.9-1c5.1-0.6,10.2-1.6,15.2-3c1.2-0.3,2.7-0.5,4-0.7l2.4,2.6
		l-4.9,1.6l4,0l0.9,1.1l23-3.3c-0.2,0.8-0.3,1.5-0.5,2.2c-0.7,0.3-1.4,0.7-2.1,1s-1.6,0.6-2.4,0.8s-1.7,0.5-2.6,0.7
		s-1.8,0.4-2.6,0.6c-0.7,0.2-2,0.1-2,1c1.1,0,2.2-0.2,3.2-0.4c2.6-0.8,5.4-1.3,8.1-1.3c1.5-0.1,3-0.3,4.5-0.8
		c3.2-1.2,6.7-1.3,10-0.3c-1.5,0.9-3.5,0.7-5.1,1.2c1.6,1,3.6,1.4,5.4,1c1.1-0.2,2.2-0.2,3.3-0.2c1.6,0,3.1-0.1,4.7,0
		c0.3,0,0.6,0.3,1,0.5l-3.5,1c0.6,0.3,0.9,0.5,1.2,0.7c0.1,0,0,0.2-0.1,0.2c-0.3,0.1-0.5,0.2-0.8,0.2c-2.5,0-5,0-7.5,0
		c-0.3-0.5-0.7-0.9-1.2-1.2c-0.5-0.3-1-0.5-1.6-0.5c-1.9,0.5-4.4,0.2-6.3,1.3l1.9,0.8c-1.2,0.5-3.1,0.1-4.2,1.3
		c2.9,0.2,5.9,0.1,8.8-0.2c2.6-0.3,5.3-0.4,8-0.3c-1,0.5-1.4,0.8-1.8,0.8c-1.6,0-3.1,0.1-4.6,0.4c-1.2,0.2-2.5,0.4-3.7,0.4
		c-2.6,0.1-5.1,0.5-7.6,1.3c3.1,0.4,6.2,0.2,9.2-0.5c1.7-0.3,3.4-0.5,5.1-0.5c3.6-0.2,7.3-0.3,10.9-0.5c1.3-0.1,2.5-0.1,3.8-0.1
		c0.6,0,1.3,0.1,1.1,0.7l-8,1.2v0h-0.2c0,0,0.1,0,0.1,0c0,0,0,0,0,0c0,0.4,0,0.8,0,1.4c1.6,0,3,0.1,4.3,0.1c2.4,0,4.7-0.1,7.1-0.1
		c0.9-0.1,1.9,0,2.8,0.2c1.8,0.5,3.6,0.7,5.4,0.7l0,0c2.5,0.1,5,0.3,7.4,0.4l2.2-1.2c1.9,0.6,3.9,0.7,5.8,0.4c1,0,2.1,0,3.1,0.2
		c0.4-0.3,0.7-0.7,1-1.1c0.3-0.5,0.9-0.6,1.7-0.7l3.3,1.5c1.8-0.4,1-1.5,1.7-2.4l5-0.1c1,0.9,1.7,2,4,1.5c0.5-0.1,1-0.3,1.5-0.5
		l-1.6-1.3c2.3-0.7,3,0.8,4.7,0.9l0.5-1.4l2.9,0.1c-0.2,0.5-0.3,0.8-0.4,1.2c-0.3,0.9,0.7,1.1,1.9,1.1c0.5-0.6,1.3-1,2.1-0.8
		c1.4,0.1,2.7-0.1,4-0.7v0c0.4,0.1,0.9,0.2,1.3,0.2c2.2,0.1,2.1,0.1,2.9-1.1c0.3-0.5,0.7-0.8,1.2-1c1.5-0.4,1.9-1,1.7-1.9
		c-0.1-0.6,1.2-0.8,2.1-0.4c0.4,0.2,0.9,0.5,1.3,0.8L761,89c0-0.5,1.6-0.8,0.3-1.5l-3,0.6c-0.4-0.5-0.8-1.1-1.1-1.7
		c-0.2-0.7-0.3-1.4-0.3-2.2c-1.9,0.2-3.8,0.5-5.6,1c0.5,0.5,0.9,1,1.2,1.6c0.5,1.3-0.3,2-2.7,2.3c-0.3,0-0.6,0.1-1,0
		c-0.1,0-0.2,0-0.4,0c1.2-1.7,1.2-1.7-1.1-2.7l0,0c0,0,0,0,0,0l-0.1,0l0.1,0l-2.2,0.8c-3.2-2.1-3.2-2.1-0.4-4.3
		c1.5,0.3,3,0.5,4.5,0.6c1.7-0.1,3.4,0,5.1,0.2c0.3,0,0.6-0.1,0.8-0.2c1.9-1.1,4.9-0.6,6.9-1.6c0.7-0.3,1.5-0.3,2.3-0.1
		c1.7,0.6,2.9-0.2,4.6-0.4c0.1,0.8,0.2,1.4,0.2,2.2c-2.7,0.5-5.5,0.3-8.2,0.9c1,0.6,1.9,1.3,2.6,2.1c0.5,0.7,0.2,1.5,0.3,2.3
		c2.8,0.4,2.8,0.4,5-0.6c-1.5-0.8-2.7-1.8-1.7-3.1l3.5-0.9c0.2-1.1,0.4-2.1,0.6-3c2.3-0.8,3.5,0.6,5.4,0.6l3.6-1.5
		c1.4-0.6,3-0.6,4.4,0c0.8,0.3,1.5,0.6,2.4,0.9l4.2-1.6l7.2,1.4c0.7-0.3,1.5-0.5,2.2-0.7c1.4-0.2,2.8,0,4.2-0.2
		c1.5-0.2,2.8-0.9,4.2-1c4.4-0.3,8.8-0.5,13.2-0.6c0.6,0,1.1,0,1.7,0c1.3,0.1,2.6,0,3.9-0.4c0.6-0.1,1.2-0.1,1.8,0
		c1.9,0.3,3.7,0.6,5.3-0.3c0.6-0.2,1.2-0.2,1.8-0.1c2.1,0.5,4.3,0.4,6.4,0c1.9-0.6,4,0,5.4,1.4c0.3,0.3,0.6,0.5,0.9,0.7
		c2.5-0.3,0.9-1.8,2.4-2.3c0.3,0,0.5-0.1,0.8-0.1c0,0,0,0,0,0c2.1,0.3,4.2,0.4,6.4,0.4c1.6,0.3,3.2,0.3,4.8,0.1
		c0.8,0,1.6,0.1,2.4,0.2c0.9,0.1,1.9,0.1,2.8,0c0.6,0,1.2-0.1,1.7-0.3c0.3,0.1,0.6,0.2,0.9,0.4c1.4-0.3,2.9-0.6,4.4-0.7l1.5,0
		c3.1,0.3,6,0.3,9,0.4c0.6,0,1.3,0,1.9,0c2.2,0.2,4.5,0.2,6.7,0c0.4,0,0.8,0.1,1.2,0.2c-3.1,0-6,0.9-9.2,0.5c-2-0.2-4.1-0.2-6.1,0.1
		c-2.6,0.4-5.3,0.6-8,0.6c-0.8,0-2-0.1-2.3,0.8c1.3,0,2.6,0,3.8,0c2.8,0.1,5.7,0.3,8.5,0.4c3.9,0.1,5.9,1.8,8.5,3.1
		c0.9,1.8,3.5,2.4,6.2,3.1l-1.1-1.2l0,0c0.4-0.1,0.9-0.2,1.4-0.2c0.8,0,1.6,0.2,2.3,0.7l-2.5,0.7l0.3,0.1c-0.1,0-0.2,0-0.3,0
		c-0.2,0.2-0.3,0.4-0.4,0.6c0.2,0.1,0.5,0.1,0.7,0.1c0.2-0.2,0.4-0.3,0.5-0.6c1,0.3,2,0.5,3.1,0.6c1.2,0.2,2.5,0.1,3.7-0.1
		c2.2-0.6,4.6-0.7,6.9-0.3c2.6,0.3,5.3,0.6,8,0.8s5.4,0.3,8,0.4c1.9,0.1,3.8,0,5.7,0.1c3.8,0.2,7.6,0.4,11.3,0.7
		c1.2,0,2.4,0.2,3.6,0.5c3.3,1.9,7.5,1.6,11.6,1.8c0.6-0.1,1.1-0.2,1.7-0.3c-3.3-1.1-7.3-0.2-10.5-1.9c1.2-0.3,2.4-0.4,3.7-0.3
		c0.7,0.1,1.5,0.1,2.2,0c1.7-0.2,3.4-0.3,5.2-0.4c0.9,0,1.9,0,2.8,0s1.9,0,2.8,0c1.8-0.1,3.6-0.2,6.1-0.4l-3.7-1.6
		c3.2-0.2,6.2-0.5,9.1-0.6c2.2-0.1,4.4-0.1,6.6-0.2c3.7-0.1,7.4-0.8,11.1,0.2c0.5-0.1,1-0.2,1.4-0.4l-3.3-1.1l0.3-0.4l8.6,0.6
		c0.5,0.3,1,0.7,1.5,1.1l0.4-0.3c0.6,0.5,1.3,0.8,2.1,0.6V85c1.3-0.4,2.8-0.6,4.2-0.4c-0.5,0.1-1,0.3-1.5,0.4
		c-0.1,0-0.1,0.2-0.1,0.4c1.1,0.2,2.3-0.1,3.2-0.7c2.5,0.1,5,0.2,7.5,0.3c2.5,0.1,5.1,0.1,7.6,0.3c2.7,0.2,5.4,0.2,8.1,0
		c4.2-0.4,8.5-0.3,12.7,0.4c2.5,0.4,5,0.6,7.5,0.5c4.1-0.1,8.2-0.2,12.3-0.1c3.1,0.1,6.2,0.1,9.3,0.1c1.6,0,3.3,0,4.9,0
		c0.3,0,0.5,0,0.8,0c1,0,2,0,2.9,0.2c0.9,0.3,1.7,0.7,2.4,1.2l3-1.2c1.5,0.2,2.7,0.3,4,0.4c7,1,8.2,1,16.1,0.1c0.6,0,1.3,0,1.9,0
		c4.1,0.1,8.2,0.2,12.3,0.3c0.1,0,0.2,0,0.3-0.1c0.1,0,0.1-0.1,0.1-0.1v-1.9c-0.7-0.2-0.8-0.4,0.1-0.6l-0.1,0h0.1c0,0,0,0,0,0
		c1.4-0.4,2.8-0.7,4.3-1c1.8-0.2,1.7-1.5,3.4-1.8c0.3,0,0.6-0.2,0.9-0.2c1-0.2,2-0.7,2.8-1.4c0.6-0.5,1.4-1,2.2-1.5
		c1.5,0.4,3.1,0.4,4.2,1c-1,0.3-2,0.4-3.1,0.3c-1.4-0.2-2.8,0.1-4,0.8l1.9,0.8l0,0l0.1,0l0,0l2.9,0.8c0.7-0.3,1.3-0.6,2-0.8
		c0.5-0.2,1.1-0.6,1.7-0.2c0.6,0.3,0,0.7-0.3,1c-0.2,0.2-0.2,0.4-0.3,0.7c1.4-0.2,2.5-0.3,3.6-0.4c1.3-0.1,2.7-0.1,4-0.2
		c1.3,0,2.6-0.4,3.6-1.2l3.6,0.9c2-1,4.3-1.2,6.6-0.8c1.3,0.9-0.8,1.4,0.2,2.2c1.5-0.2,1.8-1.1,2.6-1.6c1.3-0.8,2.8-1.1,4.3-0.7
		c2.6,0.8,5.4,0.7,8.1,1l1.8,1.1c2.5-0.5,4.8-1.9,7.3-0.3c1.9-1.8,1.9-1.8,4.9-1.4c0.7,1-1.7,1.2-1.9,2.2c0.6,0.2,1.3,0.2,1.9,0.2
		c2.1-0.4,4.2-0.5,6.2-0.1c3,0.4,6.1,0.4,9.1,0.2c1.4-0.1,2.9-0.1,4.3,0c3.4,0.1,6.9,0.1,10.3,0.2c2,0,3.6-0.4,4.6-1.4
		c0.3-0.1,0.5-0.1,0.8-0.1c0.1,0.5,0.2,1,0.3,1.6c2.6,0.3,5.3,0.2,7.9-0.1c0.7-0.1,1.4-0.4,2-0.7c0.5-0.2,1-0.5,1.5-0.7
		c0.3,0,0.5,0,0.8,0c-0.1,0.4-0.3,0.8-0.5,1.3c0.9,0.1,1.5,0.2,2.1,0.2c2.7,0,5.5-0.4,8.1-1c1.6-0.5,3.3-0.7,5-0.5l-0.1,0.6
		c2.2,0.5,4.4,0.6,6.6,0.3c2-0.3,3.9-0.2,5.9,0c3.5,0.5,7.1,0.5,10.6,0c1.2-0.1,2.3-0.1,3.5-0.1c3.2,0,6.4,0,9.5,0
		c0.4,0,0.8,0,1.2,0c0.9,0,1.8,0,2.7,0c3.4,0.3,6.9,0.2,10.3-0.1c0.8-0.1,1.6-0.1,2.4,0c1.4,0,2.9,0.1,4.3,0
		c2.6-0.2,5.3-0.1,7.9,0.2c2.1,0.3,4.2,0.3,6.3,0c1.2-0.2,2.3-0.2,3.5,0c2.6,0.5,5.2,0.5,7.8,0c0.9-0.2,1.8-0.2,2.7-0.1
		c3.2,0.6,6.5,0.7,9.7,0.4c0.9-0.1,1.9-0.1,2.8-0.1c1.6,0,3.2-0.1,4.8-0.1s3.1-0.2,4.7-0.3c1.8-0.1,2.1-1.3,4-1.6
		c0.2,0.5,0.4,1,0.6,1.5c2.3,0,4.4,0,6.5,0c2.7,0,5.3-0.2,8-0.2c2,0,3.3-0.4,3.8-1.6c0.1-0.3,0.5-0.6,0.8-0.9c2.3,0.2,2.5,1.5,4,2
		l2.2-0.1c0.2,0.2,0.4,0.4,0.6,0.7c0.2,0.3,0.3,0.5,0.6,1.1l-3.4-1c0.1,0.8,0.4,1.5,0.7,2.2c0.1,0.2,0.9,0.4,1.4,0.6
		c0.7-0.6,1.4-1.1,2.1-1.5c1.4-0.8,3.1-1,4.6-0.4c2.4,0.8,4,0.7,7.5,0.1l-4.4-0.7c2.1-0.5,4-1,5.9-1.5c0.5-0.1,1-0.1,1.6-0.1
		c4.1,0,8.1-0.3,12.1-0.8c1.5-0.4,3.1-0.2,4.5,0.3c1.1,0.4,2.3,0.5,3.4,0.2c1.4-0.3,2.7-0.6,4-1c5.1-1.6,10.5-1.9,15.7-1
		c0.2,0,0.5,0.1,0.7,0.1l-0.1,0.7c0.8,0.3,1.7,0.7,2.6,1c1,0.3,2.1,0.3,3-0.1c1-0.3,1-0.8,0.7-1.4c-0.1-0.1,0.1-0.3,0.2-0.4
		c1.8-0.7,3.6-0.2,5.4-0.1c1.6,0.2,3.3,0,4.8-0.7c0.2,0,0.5,0,0.7,0.1c0.3,0.5-1,1.1,0.1,1.7c0.6,0,1.2,0,1.9,0
		c0.9,0,1.8-0.1,2.8-0.1c1.1,0,1.4,0.4,1.1,1.3c0,0.1,0,0.3,0,0.4c2.2,0.3,3.6-0.9,5-1c1.5,0.4,2.6,0.7,3.7,0.9
		c1.1,0.2,2.3,0.4,3.4,0.5c2.3,0.3,4.6,0.7,7,0.9c1,0,2,0,3-0.1c0.4-1.1,1.2-2,1.3-3.1c2.1-0.2,4.2-0.5,6.2-0.7
		c1.5,0.5,2.9,1.2,4.9,0.6l3.6,0.8c1.1-0.4,2.2-0.6,3.4-0.8c2.4-0.2,4.8-0.3,7.2-0.4c2.8-0.1,3.7,0.3,4.6,1.9
		c0.1,0.1,0.1,0.3,0.2,0.4c0.3,0.2,0.7,0.3,1.1,0.3c0.3,0,0.7-0.3,0.7-0.4c-0.1-0.8-0.2-1.5-0.4-2.3c0.4-0.1,0.9-0.1,1.3-0.1
		c1.3,0.6,2.8,0.7,4.2,0.3c1.7-0.3,3.4-0.2,5,0.4c0.2,0.5,0.4,0.9,0.6,1.4c0.4,0.4,1.1,0.5,1.7,0.2c0.4-0.2,0.8-0.4,1.1-0.7
		c-0.4-0.4-0.7-0.8-1-1.3c1.8-0.1,3.4-0.3,5.1-0.2c1.5,0.1,3,0.7,4.3,1.6l1.9-1.6l1.6,1c2.6-0.6,5.3-0.4,7.9-0.5
		c0.4,0.6-1.5,1-0.2,1.5c3.5-1,3.5-1,8.4-1.1c0.5,0,1.1,0,1.7,0c1,0.3,2,0.7,3,1.2c1.2,1,2.8,1.1,4.7,0.9c0.6-0.6,1.2-1.2,1.9-1.8
		c0.5,0.1,1,0.2,1.5,0.2c1.9-0.3,3.3-0.2,4.5,0.8c1.1,0.7,2.4,1,3.6,0.7c0.8-0.1,1.6-0.1,2.3,0.1c1,0.2,2.1,0.3,3.1,0.3
		c0.3,0.5,0.8,0.8,1.3,0.7c0.9,0.1,1.9,0,2.8-0.1c2.2-0.3,4.4-0.3,6.5,0c3.5,0.3,7.1,0.4,10.6,0.1c1.9-0.1,3.8,0,5.6,0.4
		c0.9,0.2,1.8,0.3,2.7,0.2c1.5-0.3,2.9-0.3,4.4-0.2c1.2,0.1,2.4,0.1,3.6,0c1.4,0.3,2.9,0.4,4.4,0c1.2-0.1,2.4-0.2,3.6-0.3
		c0.2,0.4,0.3,0.8,0.5,1.3c0.8,0,1.7-0.1,2.4-0.1c1-0.1,2,0,3.1,0c1.1,0.1,2.2,0.1,3.4,0c1.6,1,3.5,0.4,5.3,0.3c0.7,0,1.3,0,1.9,0
		l1.4,1.2c0.8-0.2,1.4-0.3,2-0.5c1.6-0.4,3.2-0.5,4.8-0.4c2,0.1,4.1,0.2,6.1,0.2c0.7,0,1.3,0,2,0c2-0.1,4.1,0,6.1,0.5
		c0.4,0.1,0.8,0.1,1.2,0.1c3.8,0,7.7-0.1,11.5-0.1c3.4-0.1,6.8-0.2,10.2-0.2c0.9-0.1,1.9,0,2.8,0.2c1.3,0.3,2.7,0.3,4,0.1
		c1.1-0.1,2.2-0.2,3.2-0.3c1.1-0.2,2.3,0,3.4,0.5c0.4,0.2,0.9,0.3,1.4,0.3c1.4,0,2.8-0.2,4.2-0.4c1.5-0.3,3-0.4,4.5-0.4
		c2.7-1,5.7-0.7,8.7-0.8c0.1,0,0.2,0.2,0.4,0.4l-2.8,0.7c1.3,0.1,1.8,0.1,2.3,0.1c1-0.1,2-0.4,2.8-0.9c1.6-0.7,1.9-0.7,4.7-0.3
		c-0.9,0.5-0.9,0.5-0.9,1.9c0.4,0,0.8,0,1.2,0s0.8,0,1.2-0.1c1.6-0.2,1.7-0.3,2-1.4c0.1-0.2,0.1-0.4,0.2-0.6
		c1.1-0.2,2.2-0.4,3.2-0.5c0.6,0,1.2,0,1.8,0.2c-0.4,1.1-1.5,1.7-2.6,1.7c-0.2,0-0.3,0.3-0.5,0.5c5,0.1,5,0.1,7.2-1.1
		c-0.7-0.9-0.7-1.2,0.5-1.5c1.2-0.3,2.4-0.4,3.5-0.2c0.1,0.1,0.2,0.1,0.2,0.2c0.3,1.5,0.5,1.7,2.8,1.6c1.3-0.2,2.6-0.1,3.9,0.2
		c0,0,0,0,0,0l0.1,0l-0.1,0c1.3-0.1,2.7-0.2,4-0.4c0.7-0.1,1.2-0.4,1.1-0.9c-0.1-0.3-0.3-0.6-0.6-0.8c-0.6-0.3-1.3-0.2-1.8,0.1
		c-0.4,0.2-0.9,0.6-1.1,0.6c-1-0.2-1.9-0.2-2.9-0.1c-0.5,0-1,0.1-1.5,0c-0.6,0-1.3-0.3-1.2-0.9c3.4-1,6.8-1.5,10.3-1.6
		c-0.1,0.2-0.2,0.4-0.2,0.6c0,0.1-0.1,0.4,0,0.4c1.7,0.4,1.7,1.6,3.2,2.2c2.1,0.1,4.4,0.1,6.1,1.2c0.8,0.4,1.8,0.2,2.5-0.4
		c0.8-0.8,2-1,3.4-1c0.5,0,1.1,0,1.6-0.1l0.1,0l5,0.6c-0.1,0.1-0.1,0.3-0.3,0.7c1.7,0,3.3-0.1,4.9-0.1c0.8,0,1.6-0.1,2.3-0.2
		c0.1-0.5,0.1-1,0.1-1.5c1,0.2,1.7,0.4,2.4,0.6c2.4,0.7,4.9,0.9,7.4,0.7c6.9-0.4,13.9-0.7,20.8-0.8c7.9-0.1,15.8-0.7,23.6-1.6
		c4.4-0.5,8.9-0.8,13.4-0.9c0.9,0,1.9,0,3.1-0.1l-1.8-0.6c1.6-0.6,3.3-0.9,5.1-0.9l0.9,0.8c1.3,0,2.5-0.2,3.7-0.6
		c0.7-0.2,1.4-0.1,2,0.1c0.7,0.2,1.4,0.2,2.1,0.1c0.5-0.2,1-0.2,1.5-0.4c0.9-0.3,1.8-0.4,2.7-0.5c1.9-0.1,3.8-0.6,5.5-1.4
		c1.1-0.5,2.2-1,3.4-1.2c3-0.5,6.1-0.8,9.2-0.8c2.7,0,5.1-0.3,7.3-0.9v-3.2c-0.9,0.1-1.7,0.1-2.6,0.2c-1.7,0.2-3.5,0.1-5.1-0.4
		c-0.5-0.2-0.9-0.5-1.3-0.9c2.8-0.8,5.9-0.4,9-0.6v-1.1c-3.2,0.1-6.3,0.2-9.5,0.3c-1,0-1.9,0.1-2.5-0.7c0.6-0.6,1.3-1.2,1.9-1.9
		c1.1-1.1,2.6-1.9,4.1-2.2c1-0.3,2.1-0.7,3.1-1.1c0.8-0.3,1.2-0.8,0.9-1.4c-0.9-0.2-1.8-0.3-2.8-0.5c0.4-0.8,0.8-1.6,1.1-2.3
		c-0.9,0.1-1.8,0.2-2.8,0.2c-1,0-1.5-0.9-0.8-1.3c1.2-0.6,2.4-1.2,3.8-1.9c1.1,1.1,0.4,2-0.3,2.9c1.6-0.9,2.7-2,3.6-3.1V0H256.4
		C256.3,0.1,256.2,0.2,256.1,0.3z M99.5,81.1c-0.3,0-0.7,0-1-0.1c0-0.1,0.1-0.2,0.1-0.2l0,0c0.2,0,0.4,0,0.6,0h0.5
		C99.5,81,99.5,81.1,99.5,81.1z M88.3,80.5c1.4-0.2,2.8-0.4,4.2-0.5c1.8-0.1,3.5-0.4,5.2-1l0,0c0.4-0.2,0.8-0.2,1.3-0.2
		c0.6,0,1.2,0.2,1.7,0.5C96.9,80.8,92.6,80.7,88.3,80.5z M107.6,77.7L107.6,77.7C107.7,77.7,107.7,77.7,107.6,77.7
		c0.2,0,0.2,0,0.3,0c0,0.1,0,0.1,0,0.1c-0.1,0-0.2,0-0.3,0C107.6,77.8,107.6,77.7,107.6,77.7z M110.6,80.2c-0.9,0-1.8,0-2.7-0.1l0,0
		c-0.2-0.6,0.4-0.8,1.1-0.8c0.1,0,0.2,0,0.3,0c0.7,0.1,1.4,0.2,2.1,0.4C111.1,80,110.8,80.2,110.6,80.2z M115.9,77.8
		c0.4,0,0.7,0.1,1.1,0.2c-0.2,0.5-0.4,1-0.7,1.6c-0.7,0-1.3,0-2,0.2c-0.9,0.2-1.9,0.2-2.9,0c-0.2-0.6-0.3-1.3-0.5-2c1,0,2.1,0,3.2,0
		C114.7,77.8,115.3,77.8,115.9,77.8z M120.5,75.3c0.6-0.4,1.3-0.6,2-0.5c0.2,0,0.4,0,0.7,0C122.4,75.2,121.4,75.4,120.5,75.3z
		 M179.7,64.5l0.3,0.1l-0.3,0.1L179.7,64.5z M156.6,68.6l-0.2,0.1l-0.1-0.1L156.6,68.6z M151.4,69.3c0-0.1-0.1-0.1,0-0.2v0
		c0.2-0.1,0.3-0.2,0.5-0.2L151.4,69.3z M152.7,68.7c-0.2,0-0.4,0-0.6,0c0.2-0.1,0.3-0.1,0.5-0.2l0,0c0.1,0,0.2,0,0.3,0
		C152.8,68.6,152.8,68.7,152.7,68.7z M183.1,69.6c-3.1,0.5-6.1,0.9-9.2,1.3c-0.9,0.1-1.8,0.1-2.7-0.1c-3.5-1.1-7.3-1-10.7,0.4
		l-6.6-0.5c0.6-0.2,1.2-0.4,1.9-0.6c1.6-0.3,3.4-0.2,4.8-1l0,0c0.3-0.1,0.5-0.2,0.8-0.1c0.1,0,0.2,0,0.3,0c2.4,0.5,4.7-0.1,7.1-0.1
		c3.4-0.1,6.9-0.1,10.4-0.2c0.8,0,1.6,0.1,2.4,0.2c0.6,0.1,1.2,0.2,1.8,0.3C183.2,69.5,183.2,69.6,183.1,69.6z M185.9,67
		c-0.4,0-0.8-0.1-1.1-0.2c0.3-0.2,0.6-0.3,0.9-0.4l0.1,0c0.3,0,0.6,0.1,0.8,0.2C186.3,66.7,186.2,66.9,185.9,67z M659.1,90.9
		L659.1,90.9c0.7-0.4,1.4-0.6,2.2-0.6c0.5,0,1.1,0.1,1.6,0.3C661.7,91.1,660.3,91.2,659.1,90.9z M748.4,89.5L748.4,89.5
		c0.1-0.1,0.1-0.1,0.2-0.2l1.4,1.4l-2.2-0.3C748.1,90.1,748.2,89.8,748.4,89.5z M748.1,93.2h0.1l-1.9,0.8
		C746.5,93.7,746.7,93.2,748.1,93.2z M891.6,81.4c-0.2,0.1-0.4,0.2-0.6,0.3c-0.2-0.1-0.3-0.2-0.4-0.4c-0.1-0.1,0.3-0.3,0.5-0.4l0,0
		c0.2-0.1,0.4-0.1,0.7-0.1c0.3,0,0.7,0.1,0.9,0.3C892.4,81.2,892,81.3,891.6,81.4z M893.6,82.1c0-0.1-0.1-0.1-0.1-0.2c0,0,0,0,0-0.1
		l0.4,0.3C893.8,82.2,893.6,82.2,893.6,82.1z M1915.7,55.3c0,0.1,0,0.1,0,0.2c-0.1,0-0.2,0.1-0.3,0.1c-0.1,0-0.1-0.1-0.2-0.1
		L1915.7,55.3z M1899.1,73.4c0,0,0,0.1,0,0.1l-1.3,0l0-0.1L1899.1,73.4z M1895.8,78.1L1895.8,78.1c0.2,0,0.4,0.1,0.6,0.1
		c-0.2,0.1-0.4,0.1-0.6,0.2c-0.1,0-0.2,0-0.3-0.1C1895.6,78.2,1895.7,78.1,1895.8,78.1z M1823.5,84.5L1823.5,84.5
		c0,0,0.1,0.2,0.2,0.3c-0.2,0-0.5,0-0.7,0c-0.1,0-0.1-0.1-0.1-0.2C1823,84.6,1823.2,84.6,1823.5,84.5z M1815.1,82.1L1815.1,82.1
		c0.3-0.3,0.5-0.5,0.8-0.7l0.6,0.2c-0.2,0.3-0.5,0.5-0.7,0.7c-0.2,0-0.4,0-0.7,0C1815.1,82.3,1815.1,82.2,1815.1,82.1z M1812.4,80.2
		L1812.4,80.2c0.3,0,0.5,0.3,0.7,0.4c-0.2,0.1-0.4,0.3-0.6,0.3c-0.4,0-0.8-0.1-1.2-0.2C1811.7,80.4,1812.1,80.3,1812.4,80.2z
		 M1810.4,84.2L1810.4,84.2c0.3-0.4,0.7-0.6,1.1-0.6c0.1,0,0.2,0,0.4,0c0.1,0,0.2,0.1,0.2,0.2c0.1,0.5-0.4,0.7-1.1,0.8
		c-0.2,0-0.5,0-0.7,0C1810.4,84.4,1810.3,84.3,1810.4,84.2z M1805.9,78.1l-0.2,0.1l0-0.1L1805.9,78.1z M1795.5,85.1l1.5-0.3
		c0,0.1,0.1,0.2,0.1,0.3L1795.5,85.1z M1798.9,80.9c0.4-0.1,0.8-0.1,1.2-0.1c0.2,0,0.5,0,0.7,0l0,0c-1.2,1-1.2,1-3.1,0.9h0
		C1798.1,81.4,1798.5,81.1,1798.9,80.9z M1797.6,81.8l-1.6,0c0.3-0.1,0.5-0.2,0.8-0.2C1797.1,81.6,1797.4,81.7,1797.6,81.8z
		 M1781.4,81.8c1.3-0.5,2.7-1,4-1.5c2.3-0.9,4.7-1.8,6.8-2.9l0,0c0.7-0.4,1.4-0.5,2.2-0.5c0.4,0,0.8,0,1.2,0.1
		c0.3,0.9-1.8,0.8-2.1,1.5c-0.2,0.6-1.5,1-2.5,1.7c0.8,0.2,1.7,0.3,2.5,0.3c0.6,0,1.2,0,1.8,0.1c0.6,0.4-0.2,0.5-0.3,0.8
		c-0.2,0.4,0.2,0.5,0.8,0.6l-4.1,0.9c-0.2,0.4,0.4,0.5,0.9,0.6c2,0.2,4,0.1,6-0.4c1.5-0.5,3.2-0.3,4.6,0.5c-1,0.7-2.3,1-3.6,0.7
		c-3.3-0.6-6.7-0.5-10,0.3l0,0l-0.4,0l0.3,0.1h0c-1.2,0.8-2.7,0.4-4.1,0.3l-2.4-2.2l-2-0.2C1781.3,82.1,1781.3,81.9,1781.4,81.8z
		 M1617.4,70.5l-0.1,0.1l-0.2-0.1L1617.4,70.5z M1615.9,71.9l0,0.1l-0.3-0.1L1615.9,71.9z M1609.2,81.8L1609.2,81.8
		c0,0,0.2,0.1,0.2,0.2c-0.1,0.1-0.2,0.2-0.4,0.3l-0.4-0.3C1608.8,81.9,1609,81.8,1609.2,81.8z M1605.4,81.7
		c-0.1,0.1-0.3,0.2-0.4,0.3c0,0-0.3-0.1-0.3-0.1c0-0.1,0.1-0.2,0.2-0.3C1605.1,81.6,1605.2,81.7,1605.4,81.7z M1601.8,82.2
		L1601.8,82.2c0.2,0,0.4,0.1,0.6,0.2c0.1,0.1-0.1,0.2-0.3,0.3c-0.2,0.1-0.4,0.1-0.6,0.2c0-0.1-0.1-0.3-0.1-0.4
		C1601.5,82.3,1601.6,82.2,1601.8,82.2z M1586,70.2c0.7,0,1.4,0.1,2.1,0.3l-4.7,0.2l0,0C1584.3,70.4,1585.1,70.2,1586,70.2z
		 M1526.4,75.9c-0.6,0.2-1.2,0.1-1.7-0.4c0.1-0.1,0.1-0.3,0.3-0.4l0,0c0.2-0.1,0.3-0.1,0.5-0.1c0.4,0,0.8,0.1,1.1,0.5
		C1526.7,75.6,1526.6,75.8,1526.4,75.9z M1526.8,74.1c-0.6,0.2-1.2,0.3-1.8,0.2c-0.3,0-0.6-0.2-0.8-0.4c-0.1-0.2,0-0.5,0.2-0.6l0,0
		c0.7-0.5,1.6-0.7,2.5-0.7c0.5,0,0.9,0.1,1.4,0.2C1527.8,73.3,1527.3,73.8,1526.8,74.1z M1532.5,75.7c-0.3,0-0.7-0.1-1-0.3
		c-0.1-0.1,0.2-0.5,0.4-0.5l0,0c1-0.1,2.1-0.1,3.1-0.2C1534.4,75.3,1533.5,75.6,1532.5,75.7z M1536.4,75.9l-0.3-0.1
		c0-0.1,0-0.1,0-0.2c0.1,0,0.2-0.1,0.3-0.1C1536.5,75.7,1536.4,75.8,1536.4,75.9z M1546.2,74.7c-0.1,0-0.2,0-0.3,0c0,0,0-0.1,0-0.1
		c0,0,0.1,0,0.1,0c0.1,0,0.1,0,0.2,0C1546.3,74.6,1546.3,74.7,1546.2,74.7z M1582,81.5c-0.3,0-0.6-0.2-0.8-0.4l0,0
		c0-0.1,0.4-0.3,0.7-0.6c0.4,0.2,0.8,0.4,0.8,0.5S1582.3,81.5,1582,81.5z M1582.3,71.7L1582.3,71.7c0.2,0,0.3,0.1,0.5,0.3
		c-0.2,0.2-0.4,0.3-0.6,0.4l-0.6-0.3C1581.8,71.9,1582,71.8,1582.3,71.7z M1579.2,67.7c0,0,0,0.1,0,0.1l-1.4,0c0,0,0-0.1,0-0.1
		L1579.2,67.7z M1576.5,70.5l5-0.1l-5.6,1.8C1576.1,71.4,1576.3,71,1576.5,70.5z M1573.7,73.8l3.8-0.1c0,0.1,0,0.1,0,0.2l-3.8,0.1
		C1573.7,73.9,1573.7,73.9,1573.7,73.8z M1572.5,72c0,0-0.1-0.1-0.1-0.2l0,0c0,0,0.1-0.1,0.2-0.1l0.2,0.3L1572.5,72z M1570.4,68.4
		c-0.3,0.1-0.7,0.1-1,0.1c-0.6-0.1-1.1-0.2-1.7-0.5c0.4-0.1,0.8-0.2,1.2-0.2C1569.5,67.7,1570,68,1570.4,68.4z M1559.8,67.3
		L1559.8,67.3c0.5-0.4,1.2-0.6,1.9-0.6c0.3,0,0.7,0,1,0.1c0.9,0.2,1,0.7,0.6,1.3c-0.8,0.1-1.6,0.3-2.5,0.3c-0.4,0-0.9-0.1-1.2-0.4
		C1559.3,67.9,1559.5,67.5,1559.8,67.3z M1561.8,70.3c3.3-0.1,6.7-0.2,10.9-0.3c-1.9,0.8-3.7,1-4.1,2c-0.1,0.2-0.9,0.3-1.3,0.4
		c-1.1,0.3-2.2,0.5-3.5,0.8c-0.4-0.3-0.9-0.6-1.4-0.8l0,0c-0.2,0-0.3-0.1-0.5,0c-0.5,0-1,0.1-1.5,0.1c-1.3,0-2.6,0.6-4.5-0.2
		l2.9-0.4C1559.4,70.5,1559.5,70.4,1561.8,70.3z M1554.9,68L1554.9,68c0.4-0.3,0.8-0.4,1.3-0.5c0.3,0,0.7,0.1,1,0.2l-2.8,1.5
		C1554.3,68.5,1554.3,68.3,1554.9,68z M1551.7,67c0.3,0,0.5,0.1,0.8,0.2l-1.6,0h0C1551.2,67.1,1551.4,67,1551.7,67z M1540.9,65.7
		l0.1,0.9v0C1540.4,66.3,1540.6,66,1540.9,65.7z M1531.7,68L1531.7,68c0.2,0,0.4,0.1,0.6,0.2l-0.4,0.3l-0.6-0.2
		C1531.4,68.2,1531.6,68,1531.7,68z M1531,69.3c1.4-0.2,2.9-0.3,4.5-0.4c0,1.2-0.5,1.9-2.3,2.4l4.7,0.2c1.5-1.2,0.6-2.2-0.4-3.2
		l3.6-1.7c0.7,0.2,1.8,0.2,2.1,0.5c0.9,0.9,2.2,0.7,3.5,0.6c1.4-0.1,2.8-0.3,4.2-0.5c-0.4,1.1-1.6,1.7-3.4,1.8
		c-1,0.8,1.8,0.6,0.7,1.3c0.6,0.5,1.4,0.6,2.1,0.4c1.9-0.3,3.8-0.4,5.7-0.2c0.1,1.6-2.7,1.1-3.6,1.9l-1.7-0.6l-0.9,1.3
		c-1.1,0-2.3,0-3.5,0.1c-0.9,0.1-2.2,0.2-2.3,0.8c-0.3,1.3-2,1.3-3.6,1.3c-0.1,0-0.3,0-0.7-0.1c-0.3-0.3-0.6-0.7-1-1.1
		c-0.3-0.3-0.7-0.6-1-0.9l1.1-0.7c-0.5-0.2-1-0.3-1.6-0.3c-0.6,0-1.2,0.2-1.7,0.5c-1.4,0.8-3,1.3-4.7,1.3c-0.3,0-0.7,0-1-0.1
		c0.4-0.6,0.7-1.3,0.9-2c0.1-0.5-1-0.8-1.7-0.6c-2.8,0.8-2.8,0.9-4.9,0.8c0.6-1.2,1.5-2.1,4-2.2C1528.9,69.8,1529.9,69.4,1531,69.3z
		 M1514.8,68.6c0.4-0.6,1-1.1,1.7-1.4c0,0.4,0.1,0.8,0.1,1.3c1.9-0.4,3.5-0.5,4.9,0.3c1-1.3,2.4-2.2,3.9-2.5c0.5-0.1,0.9-0.1,1.4,0
		c0.6,0.3,0.5,0.7-0.2,1c-0.9,0.3-1.6,0.9-2.1,1.6c-0.6,1.3-1,1.4-3.8,0.9c0.2,0.6,0.3,1.2,0.3,1.8c-0.4-0.1-0.7-0.3-1.1-0.6l0,0
		c-0.4-0.4-0.4-0.9-0.5-1.5c0.2,0.1,0.3,0.1,0.5,0.2c0.2,0,0.5,0.1,0.7,0.1l0.7-0.9c-0.5,0-1,0.1-1.4,0.1c-0.3,0.1-0.4,0.3-0.6,0.5
		l0.1,0c-0.7,0-1.2,0-1.7,0s-1.1,0.1-1.6,0.1c-0.1,0-0.2,0-0.3,0c-0.3-0.4-0.7-0.7-1.1-0.8C1514.7,68.8,1514.8,68.7,1514.8,68.6z
		 M1516.8,75.3c0.6,0,1.2-0.2,1.7-0.4c0.5-0.3,0.1-0.7-0.3-1c-0.2-0.2-0.4-0.4-0.7-0.6c1.1-0.4,2.3-0.5,3.5-0.8
		c-0.1,0.6,0,1.2,0.2,1.8c-1.2,0.5-1.6,1.5-3.3,1.6c-0.8,0.1-1.6,0.1-2.3,0.1l-1.3-0.9C1515,75.3,1515.9,75.3,1516.8,75.3z
		 M1476,77.9L1476,77.9c1.1,0,2,0.6,1.7,1c-0.2,0.3-0.9,0.4-1.1,0.6c-1.2,0-1.9-0.3-2-0.8l0,0C1474.5,78.3,1475.2,77.9,1476,77.9z
		 M1440.2,74.7c-1.3,0.8-1.3,0.8-4.1,0.7c1-0.5,2.2-0.7,3.3-0.8C1439.7,74.6,1439.9,74.7,1440.2,74.7z M1432.9,79.5
		c0.5-0.1,0.9-0.2,1.4-0.2v0c0.1-0.2,0.2-0.5,0.6-0.5c0.1,0,0.2,0,0.3,0c0.7,0.2,0.2,0.6-0.2,0.9c-0.3,0.3-0.6,0.5-0.9,0.7
		c-0.6,0.3-1.3,0.3-1.5-0.1C1432.5,80,1432.6,79.7,1432.9,79.5z M1430.9,77.6l0,0.2l-0.3-0.1L1430.9,77.6z M1419.8,79.5
		c0,0,0.1,0,0.1,0c2.3,0.1,4.1-0.4,5.2-1.6c0.4-0.4,0.9-0.7,1.4-0.9c1.1,0.3,0.9,0.7,0.6,1c-0.3,0.4-1,0.7-1.3,1.1
		c-0.9,1.4-1,1.4-3.1,1.4c-1.4,0-2.8-0.1-4.4-0.1c0.2-0.4,0.2-0.6,0.4-0.7l0,0C1419.2,79.6,1419.5,79.5,1419.8,79.5z M1415.2,77.9
		c0.5-0.2,0.9-0.2,1.4-0.2c0.7,0,1.5,0.2,2.2,0.4l-3.8,0.2C1415.1,78.1,1415.1,78,1415.2,77.9L1415.2,77.9z M1396.5,80.8l0.2,0.1
		c-0.1,0-0.1,0.1-0.2,0.1c-0.1,0-0.1-0.1-0.2-0.1L1396.5,80.8z M1384.3,81.6L1384.3,81.6c0.3,0.1,0.5,0.2,0.8,0.3
		c-0.3,0.1-0.6,0.2-1,0.3c-0.2,0-0.5-0.1-0.7-0.2C1383.7,81.8,1384,81.7,1384.3,81.6z M1270.8,57.7L1270.8,57.7
		c0.4,0,0.7,0.1,1.1,0.1l0,0.4l-2.2-0.1C1269.8,57.6,1270.4,57.7,1270.8,57.7z M1266.5,57.5L1266.5,57.5c0.2,0,0.3,0.1,0.5,0.2
		l-0.5,0.3l-0.5-0.2C1266.1,57.7,1266.3,57.6,1266.5,57.5z M1262.5,59.3L1262.5,59.3c0.3,0.1,0.6,0.2,0.9,0.3
		c-0.2,0.1-0.3,0.3-0.5,0.3c-0.3,0-0.6-0.1-1-0.2l0,0C1262.2,59.5,1262.4,59.3,1262.5,59.3z M1257.9,59.2c0.2,0,0.4,0.1,0.6,0.1
		c-0.1,0.1-0.1,0.2-0.1,0.2c-0.2,0-0.4-0.1-0.6-0.1l0,0C1257.8,59.3,1257.9,59.2,1257.9,59.2z M1248.8,64.6c-0.3,0-0.5-0.2-1.1-0.5
		c0.5-0.1,1-0.2,1.5-0.3h0c0.2,0,0.3,0.3,0.5,0.4C1249.5,64.5,1249.2,64.6,1248.8,64.6z M1251.9,62.5c0.2,0,0.3,0.2,0.4,0.3
		c-0.2,0.1-0.4,0.1-0.7,0.2c-0.1,0-0.3-0.2-0.4-0.3C1251.4,62.5,1251.6,62.5,1251.9,62.5L1251.9,62.5z M1249.1,58.9
		c0.4-0.1,0.7-0.1,1.1-0.1c0.1,0,0.2,0.2,0.3,0.3c-0.3,0.1-0.7,0.2-1,0.2C1249.4,59.3,1249.3,59.1,1249.1,58.9L1249.1,58.9z
		 M1244.2,61.7C1244.2,61.7,1244.2,61.7,1244.2,61.7c0.3,0.1,0.5,0.2,0.6,0.3l-0.7,0.3l-0.5-0.4l0,0
		C1243.8,61.8,1244,61.8,1244.2,61.7z M1236.9,58.1L1236.9,58.1c0.4,0,0.8-0.1,1.1-0.1h0c0.5,0,1.2,0,1.1,0.4c0,0.1-0.6,0.2-1,0.2
		c-0.5,0-0.9-0.1-1.4-0.2L1236.9,58.1z M1230.8,57.8l0.8,0.1c-0.2,0.2-0.4,0.3-0.6,0.4c-0.1,0-0.4-0.1-0.6-0.1L1230.8,57.8z
		 M1225.5,62.2L1225.5,62.2C1225.5,62.2,1225.6,62.2,1225.5,62.2c0.5,0,0.8,0.1,1.2,0.2c-0.4,0.2-0.6,0.4-0.8,0.5
		c-0.3,0-0.6-0.1-0.9-0.2C1225.1,62.5,1225.3,62.2,1225.5,62.2z M1219.6,56.9l-2.7,0.2c0.5-0.2,1-0.3,1.5-0.3
		C1218.8,56.8,1219.2,56.8,1219.6,56.9z M1218.7,58.7c0,0.1-0.1,0.1-0.1,0.2l-0.2-0.2L1218.7,58.7z M1219.3,59.9
		c0.8,0,1.7,0,2.9,0.1c0.9,1,0.9,1,0.5,2.1c-0.7-0.1-1.4-0.3-2.1-0.5c-1.4-0.6-2.9-0.4-4.1,0.4c-0.3,0.2-0.6,0.3-0.9,0.5l0,0
		C1216.4,60.5,1216.7,59.9,1219.3,59.9z M1216.6,57.1l-2.1,0.4l-0.1-0.3L1216.6,57.1z M1213.4,56.5l-0.2,0.1l-0.1-0.2L1213.4,56.5z
		 M1202.8,57.5l-0.1,0.2l-0.2-0.1L1202.8,57.5z M1201.5,60.5c0.1,0,0.1,0,0.2,0c0.2,0,0.4,0,0.6,0c0.5,0.1,1,0,1.5-0.1
		c2.3-0.9,5.1-0.6,7.9-1.1l-0.9,1.4c-1.5,0.3-3,0.2-4.5-0.3c-1.6,0.9-3.3,1.4-5.2,1.4c-1.1,0.1-1.4-0.2-1.6-1.2
		C1200.2,60.6,1200.8,60.6,1201.5,60.5L1201.5,60.5z M1196.5,60.6l0.5,0.2l-0.1,0.2c-0.2-0.1-0.4-0.1-0.5-0.2l0,0
		C1196.4,60.8,1196.5,60.7,1196.5,60.6z M1182.1,74.6c0.4,0.1,0.9,0.2,1.3,0.3c-0.1,0.1-0.3,0.3-0.4,0.3c-0.4,0-0.9-0.1-1.4-0.2
		C1181.8,74.8,1182,74.6,1182.1,74.6L1182.1,74.6z M1172.3,73.4c1-0.2,2-0.3,3.1-0.5l-2.7,2C1172.3,74.5,1172.1,73.9,1172.3,73.4z
		 M1172.4,79c0.2,0.1,0.3,0.1,0.5,0.2c0,0-0.1,0.2-0.1,0.2c-0.2,0-0.4,0-0.6-0.1L1172.4,79z M1167.1,78.8l-0.3-0.1l0.3-0.1
		L1167.1,78.8z M1167,74.9l0.4,0c-0.1,0.1-0.3,0.1-0.4,0.2c0,0-0.2-0.1-0.3-0.1L1167,74.9z M1161.4,78.4L1161.4,78.4
		c0.1,0,0.2,0.1,0.2,0.1c-0.1,0.1-0.2,0.2-0.4,0.3c-0.1-0.1-0.3-0.2-0.4-0.2C1161,78.5,1161.2,78.4,1161.4,78.4z M1154.5,81.2
		l0.1-0.2l0.2,0.1L1154.5,81.2z M1157.4,79.3c-1.1,0.6-2.5,0.6-3.6,0H1157.4z M1150.8,81.3c0.3,0.1,0.6,0.2,0.8,0.3
		c-0.2,0.1-0.3,0.3-0.5,0.3c-0.3-0.1-0.6-0.1-1-0.2C1150.4,81.5,1150.5,81.4,1150.8,81.3L1150.8,81.3z M1149.2,78.5
		c0.1,0,0.1,0,0.2,0c0.8,0,1.5,0.4,1.3,0.8c-0.2,0.2-0.5,0.4-0.8,0.4c-0.9,0.1-1.5-0.3-1.4-0.8C1148.7,78.6,1149,78.5,1149.2,78.5
		L1149.2,78.5z M1146.1,77.8l0.2,0.1l-0.3,0L1146.1,77.8z M899.2,82.4c0,0.1,0,0.2,0,0.2c-0.1,0-0.3,0-0.4,0c0-0.1,0-0.2,0-0.3
		L899.2,82.4z M889.5,74.9c0.7,0.1,1.5,0.3,2.2,0.4c-0.4,0.3-0.9,0.6-1.4,0.8l0,0c-0.3-0.1-0.6-0.3-0.8-0.5h0
		C889.5,75.4,889.5,75.1,889.5,74.9z M885.7,74.4L885.7,74.4c0.1,0,0.2-0.1,0.3-0.1c1,0.2,2,0.3,3,0.5c-0.2,0.3,0,0.5,0.5,0.8
		c-1,0.2-2,0.4-3,0.5c-0.4,0-1.3-0.3-1.4-0.5C885,75.1,885.3,74.6,885.7,74.4z M879.1,76.1c-1,0.3-2,0.3-3-0.2
		c0.6-0.3,1.2-0.5,1.9-0.6C878.4,75.3,878.6,75.6,879.1,76.1z M872.2,71.4c0.2,0.1,0.6,0.2,0.6,0.3c0,0.1-0.3,0.2-0.4,0.4l-0.7-0.1
		L872.2,71.4z M863.1,71.7c0.1,0,0.1,0,0.2,0c0.9,0,1.1,0.3,0.9,0.6c-0.4,0.5-0.9,0.9-1.4,1.3C862.4,72.9,862.6,72.1,863.1,71.7z
		 M862.7,73.6l1,2.2l-3.3,0.1l-2.3-2.9c0.3,0,0.6-0.1,0.9-0.1C860.3,73,861.5,73.2,862.7,73.6z M857,74.4c0.6,0.6,0.4,1.1-1.1,1.5
		l0,0C855.9,75.2,855.9,74.7,857,74.4z M853,71.3L853,71.3C853,71.3,853.1,71.3,853,71.3c0.3,0,0.5,0.1,0.7,0.1
		c-0.1,0.1-0.2,0.3-0.4,0.4c-0.2,0-0.4,0-0.6-0.1C852.8,71.5,852.8,71.4,853,71.3z M848.6,52.4c0.1,0.1,0.3,0.1,0.4,0.2
		c0,0.1,0,0.2,0,0.3c-0.3,0-0.5,0-0.8-0.1L848.6,52.4z M843.9,75.5c0.4,0.1,0.7,0.2,1.1,0.3l-0.6,0.4l-1-0.4
		C843.5,75.7,843.7,75.5,843.9,75.5L843.9,75.5z M838.1,72L838.1,72c0.1,0,0.1,0,0.2,0c0.3,0,0.7,0.1,1.2,0.2
		c-0.3,0.3-0.5,0.7-0.7,0.7c-0.4,0-0.8-0.1-1.2-0.2C837.7,72.4,837.8,72.1,838.1,72z M836.3,68.1L836.3,68.1c0.1,0,0.3,0.2,0.4,0.4
		c0,0-0.2,0.2-0.3,0.2c-0.6,0-1.1,0-1.7,0l0-0.3C835.2,68.2,835.7,68.1,836.3,68.1z M829.2,75.4L829.2,75.4c0.3,0,0.6,0.3,0.9,0.5
		c-0.3,0.2-0.6,0.4-0.9,0.5c-0.7,0.1-1.5,0.2-1.9-0.6C827.9,75.6,828.5,75.5,829.2,75.4z M824.3,46.7c-0.1,0-0.2,0-0.3,0
		c-0.1,0-0.1,0-0.2,0L824.3,46.7z M823.3,46.6L823.3,46.6c0.1,0,0.2,0,0.2,0l-0.5,0l0,0C823.1,46.7,823.2,46.6,823.3,46.6z
		 M822.9,72.8c0.3,0.1,0.5,0.1,0.8,0.2c0.1,0,0,0.2,0,0.2c-0.3,0-0.6,0-0.8,0l0,0C822.8,73.1,822.8,73,822.9,72.8z M817.2,76.3
		l-2.2,0.3c0.5-0.3,0.7-0.5,1.1-0.5C816.4,76.2,816.8,76.2,817.2,76.3z M803.6,72.3c0.1,0,0.1,0,0.1,0c0.2,0.3,0.3,0.6,0.4,0.9
		c-0.3,0-0.5,0-0.8,0c-0.3-0.3-0.5-0.6-0.7-0.9l0,0C803.1,72.3,803.5,72.3,803.6,72.3z M794.3,72.5L794.3,72.5c0.2,0,0.4,0,0.6,0
		c1,0,1.4,0.3,2.5,1.3l-4.5-0.1C792.7,72.9,793.2,72.5,794.3,72.5z M779,77.1c0.1,0.1,0.3,0.1,0.3,0.2s-0.1,0.1-0.2,0.2l-0.5-0.3
		L779,77.1z M771,73.8c0.6-0.2,1.2-0.2,1.8-0.2h0.1c0.4,0.1,0.8,0.3,1.2,0.6c-1.1,0.1-2.1,0.2-3.2,0.3C770.7,74.2,770.7,74,771,73.8
		z M757.2,73.9c0.6,0,1,0.3,0.6,0.9c-0.3,0-0.6,0-0.9,0l0,0C756.9,74.5,757,74.2,757.2,73.9z M753.4,74.9c0,0-0.2,0.1-0.4,0.2
		l-1.1-0.3c0.5-0.2,0.9-0.3,1.4-0.5C753.3,74.6,753.4,74.8,753.4,74.9z M735.3,91.3c-0.3-0.1-0.8-0.4-0.8-0.4l0,0
		c0.3-0.3,0.6-0.5,1-0.8c0.2,0.1,0.4,0.2,0.8,0.5L735.3,91.3z M734.5,87.5l0.4-0.4l0.4,0c-0.1,0.1-0.3,0.3-0.4,0.4
		C734.7,87.5,734.6,87.5,734.5,87.5z M743.2,93c-0.1,0.2-0.1,0.5-0.2,0.5c-0.3,0-0.6,0-0.9,0l-0.3,0h-0.1c0-0.2,0-0.4,0.1-0.4
		C742.3,93.1,742.7,93,743.2,93z M739.4,75.4c0.3,0,0.5,0,0.8-0.1c0.7,0.1,1.3,0.2,1.9,0.4l-5.1,0.8
		C737.7,76.1,738.5,75.7,739.4,75.4C739.3,75.4,739.4,75.4,739.4,75.4z M729.3,76.4c0.8,0.1,1.8,0.4,2.7,0.5
		c-1.6,0.5-3.2,0.6-4.8,0.2c0.6-0.5,1.3-0.9,2.1-1.1C729.3,76.1,729.3,76.2,729.3,76.4z M730.1,80.6l-0.4-0.2l0.3-0.2
		C730,80.4,730.1,80.5,730.1,80.6z M737,84.5L737,84.5c0.2,0,0.4,0.2,0.8,0.4c-0.6,1-2.1,1.3-3.6,1.4c-1.2,0.1-2.4,0.5-3.3,1.3
		c-1.1-0.5-2.3-0.9-3.3-1.4c-0.4-0.2-0.5-0.6-0.7-0.9C730.2,85.1,733.6,84.8,737,84.5z M711.4,92.3c-0.8,0.2-1.7,0.3-2.5,0.4
		c1.4-1,1.4-1,4.6-1.1C713.2,92.3,712,92.1,711.4,92.3z M721.6,93.2c-1.5-0.3-0.5-1.2-1.8-1.5c0.6-0.2,1.3-0.4,2-0.4
		c0.4,0,0.9,0.1,1.2,0.5C723.4,92.5,722.5,92.9,721.6,93.2z M722.7,85.7L722.7,85.7c1.3-0.1,2.6-0.2,3.9-0.3c-1,0.4-1.9,0.8-3,1
		c-0.5,0-1.1-0.1-1.6-0.2C722.4,85.9,722.6,85.7,722.7,85.7z M721.5,88.3c0-0.1,0.1-0.2,0.1-0.4l0.7,0.2c-0.1,0.1-0.3,0.2-0.4,0.3
		C721.7,88.4,721.6,88.4,721.5,88.3L721.5,88.3z M721.4,77.5c-0.2,0.1-0.4,0.2-0.6,0.2c-0.1,0-0.2-0.1-0.3-0.1
		c0.1-0.1,0.2-0.2,0.3-0.3C721,77.3,721.2,77.4,721.4,77.5z M718,80.3l1.2,0.1c0,0.2-0.1,0.4-0.1,0.5c-0.4,0-0.7-0.1-1.1-0.2
		C717.9,80.7,718,80.5,718,80.3z M713.9,80.7l1.2,0.2c-0.1,0.2-0.1,0.4-0.2,0.4c-0.4,0-0.8,0-1.2-0.1L713.9,80.7z M718.8,85.9
		c0.8,0.9,0.7,1.3-0.4,1.4c-1.7,0.2-1.9,0.1-6.1-1L718.8,85.9z M705.9,94.6L705.9,94.6c0.1-0.2,0.3-0.4,0.4-0.4c0.3,0,0.7,0.1,1,0.2
		c0.1,0.2,0.2,0.3,0.2,0.4c-0.1,0.2-0.1,0.6-0.3,0.7c-0.5,0.2-1-0.1-1.3-0.5C705.9,94.8,705.9,94.7,705.9,94.6z M703.6,81.3
		L703.6,81.3c0.2,0.1,0.5,0.1,0.7,0.3l-0.3,0.5l-0.9-0.4C703.2,81.6,703.4,81.4,703.6,81.3z M700.1,94.5L700.1,94.5
		c0.1,0,0.3,0,0.4,0c0.3,0,0.7,0,1.2,0.1c-0.6,0.5-0.7,0.9-1,0.9c-0.4,0-0.7-0.1-1-0.3C699.6,94.9,699.8,94.5,700.1,94.5z
		 M699.2,82.3l0.1,0.2l-0.3-0.1L699.2,82.3z M698.3,92.4L698.3,92.4c0.1,0,0.1,0,0.2,0c0.1,0,0.1,0,0.2,0c0.1,0.1,0.2,0.2,0.3,0.4
		l-0.8,0C698.2,92.7,698.3,92.5,698.3,92.4z M695.2,94.7l0.4,0.2l-0.4,0L695.2,94.7z M687.9,93c-0.1,0.1-0.1,0.3-0.2,0.4
		c-0.1,0-0.3,0-0.4-0.1c-0.1-0.1-0.1-0.2-0.2-0.4L687.9,93z M682.3,83.6l0.2,0.2c-0.2,0-0.5,0.1-0.7,0.1c-0.1,0-0.1-0.1-0.2-0.2
		L682.3,83.6z M681.4,87.9l-0.2,0.2l-0.3-0.1L681.4,87.9z M671.4,83.1l0.7,0.1c-0.1,0.1-0.3,0.2-0.4,0.3c-0.1,0-0.3,0-0.4,0
		L671.4,83.1z M603,77.5l-0.2,0.1l-0.2-0.1c0.1,0,0.1-0.1,0.2-0.1C602.8,77.4,602.9,77.4,603,77.5z M437.2,77.9
		c0.1-0.1,0.4-0.1,0.6-0.2l0.4,0.3l-0.9,0.3C437.3,78.2,437.1,78,437.2,77.9L437.2,77.9z M247.5,62.7L247.5,62.7
		C247.5,62.7,247.5,62.7,247.5,62.7c0.1,0,0.2,0,0.3,0.1c-0.2,0.2-0.4,0.3-0.6,0.5c-0.1,0-0.2,0.1-0.3,0.1l-0.5-0.2
		C246.7,63,247.1,62.8,247.5,62.7z M238.2,65.8c1.2,0.1,2.4-0.3,3.3-1.1c0.5,0.4,0.7,0.9,1.2,1c0.7,0.1,1.5,0,2.2-0.2
		c1-0.2,1.9-0.5,2.9-0.7c1.5-0.3,2.1-0.1,3.5,1c-1.6,0.4-3.2,0.6-4.9,0.5c-0.8,0-1.6,0-2.4,0c-1.8-0.1-3.7,0-5.5,0.2
		c-0.7,0.1-1.4-0.1-1.8-0.6c0.4,0,0.9-0.1,1.3-0.1C238,65.8,238.1,65.8,238.2,65.8z M244.9,71.5C244.9,71.5,244.9,71.5,244.9,71.5
		c0.2,0,0.2,0,0.3,0c0,0.1,0,0.1,0,0.2c-0.1,0-0.2,0-0.3,0C244.9,71.6,244.8,71.5,244.9,71.5L244.9,71.5z M236,63.8c0,0,0,0.1,0,0.1
		c0,0-0.1,0.1-0.1,0.1C235.9,63.9,236,63.9,236,63.8z M221.2,64.4l0.2,0.1l-0.2,0.1L221.2,64.4z M216.3,66.7c-0.1,0-0.1,0.1-0.2,0.1
		c-0.1,0-0.1,0-0.2,0L216.3,66.7z M214.2,67.3c0.5-0.2,1.1-0.4,1.6-0.4c0.4,1.6,0,1.9-2.6,1.9C213.5,68.2,213.8,67.7,214.2,67.3z
		 M202.7,65c1.4,0.1,2.7-0.1,4-0.6c0.3,0,0.7,0.1,1,0.2c0.4,0.2,0.2,0.7-0.3,0.7c-2.3,0.3-4.6,0.5-6.9,0.8c-0.1,0-0.3-0.2-0.5-0.4
		c0.9-0.3,1.8-0.5,2.7-0.6H202.7z M196,65.4L196,65.4c0.1-0.1,0.3-0.1,0.4-0.1c0.1,0,0.2,0,0.3,0c0.7,0.3,1.1,0.9,0.8,1.4
		c-0.1,0.1-0.4,0.2-0.6,0.3c-0.3,0-0.5,0-0.8-0.1C195.2,66.6,195.1,65.8,196,65.4z M215.3,72.8c-3.3,0.2-6.5,0-9.8-0.5l0,0
		c-0.1,0-0.2,0-0.3,0c-0.1,0-0.3,0-0.4,0c-2.7,0.2-5.3,0.1-8-0.1c-1.9-0.1-3.9-0.3-5.8-0.3c-0.3,0-0.7-0.1-1-0.2
		c0-0.5,0.6-0.5,1.1-0.5c6.1,0.2,12.2,0.4,18.2,0.6c4,0.1,8,0.1,11.9,0.2c3.2-0.1,6.5,0.2,9.6,0.9C225.6,72.7,220.4,72.7,215.3,72.8
		z M227.8,65.8c-0.4,0.2-0.9,0.3-1.4,0.4c-1.8-0.2-3.7,0.2-5.3,1.1c-0.8,0.2-1.6,0.4-2.4,0.5c0.4-0.4,0.9-0.9,1.4-1.2
		c1.4-0.8,3.7-1.2,4.1-2.5c0.6-0.3,1.2-0.4,1.9-0.4c0.1,0,0.1,0,0.2,0c0.9,0,1.7,0.4,1.8,1c0,0.3-0.1,0.6-0.3,0.9l4.1-0.2
		c-0.2-0.4-0.3-0.8-0.6-1.2c-0.3-0.3-0.6-0.6-1-0.9c0.6-0.5,1.4-0.6,2-0.2c1,0.6,2.2,0.9,3.3,1c-0.3,0.7-0.2,1.3,0.8,1.8
		C233.6,66.7,230.7,66.3,227.8,65.8z M233.7,67.5c0.1,0,0.2-0.1,0.2-0.1c0.2,0,0.4,0.1,0.5,0.2c-0.1,0-0.2,0.1-0.2,0.1
		C234,67.7,233.8,67.6,233.7,67.5z M261.2,74.7c-0.9,0.7-2.1,0.8-3.1,0.3l0,0c-1-0.4-2.1-0.6-3.2-0.6h-0.2c-1.5,0-2.9,0-4.4,0.1
		c-1.7,0-3.4-0.1-5.1-0.5c-2.3-0.5-4.7-1-7.3-0.5c-1.5,0.3-2.3-0.4-3.6-0.6c0.6-0.6,1.3-0.4,1.9-0.4c2.6,0.1,5.3,0.2,7.9,0.2
		c2.2,0,2.2-0.1,4.2-1.2c1.3,0.1,2.7,0.2,4.1,0.4c0.3,0,0.6,0.2,0.8,0.4c0.5,1.2,2.4,1.1,3.8,1.3c1.1,0.1,2.4,0.1,3.5,0.2
		c0.3,0,0.6,0.2,0.8,0.4C261.6,74.3,261.4,74.5,261.2,74.7z M253.4,70.3l0.2-0.1l0,0.2L253.4,70.3z M261.8,72.3L261.8,72.3
		c1.1-0.3,2.3-0.5,3.5-0.6c0.8,0,1.6,0.1,2.4,0.3C266.1,72.6,266.1,72.6,261.8,72.3z M269.9,76c-0.1-0.8,1.5-0.4,2-0.8
		c-0.2-0.1-0.3-0.2-0.5-0.2c-1,0-2.1,0-3.6,0.1c0.7-0.4,1-0.7,1.3-0.7c3.5-0.1,7,0.1,10.5,0.4c-0.1,0.6-0.7,0.6-1.2,0.7l1.3,0.8
		C277.3,76.9,274.7,76.9,269.9,76z M268.2,71.1l0.7-0.2l0.5,0.4c-0.1,0-0.3,0.1-0.3,0.1C268.8,71.3,268.5,71.2,268.2,71.1z
		 M270.8,69.3l0.6-0.2c0.1,0.1,0.1,0.2,0.1,0.3c0,0-0.3,0.1-0.3,0.1C271.1,69.5,271,69.4,270.8,69.3z M278.5,72.8
		c-2.1,0.4-4.1,0.5-6.2,0.4c0.9-1.4,2.3-2.5,4-3.1l0,0c-0.1-0.3-0.1-0.6-0.2-0.9c0.4,0,0.8,0,1.2,0.1c1.6,1.6,4.2,1.6,6.9,1.5
		c0.1,0,0.2,0,0.3,0C282.6,71.7,280.5,72.4,278.5,72.8z M292.7,65.7c-3.2-0.2-6-0.4-8.9-0.7c-0.4-0.1-0.9-0.2-1.3-0.4
		c2.7-0.7,5.2-1.3,7.8-1.8l0,0c0.3-0.1,0.7-0.1,1-0.1c0.4,0,0.9,0,1.3,0c0.2,0,0.4,0.1,0.5,0.3c0,0.2-0.1,0.3-0.2,0.4
		c-0.8,0.2-1.6,0.3-2.8,0.6L292.7,65.7z M284.6,70.8L284.6,70.8c0.3-0.5,0.9-0.7,1.5-0.6c0.3,0,0.6,0,0.9,0.1
		C286.4,70.9,285.4,70.7,284.6,70.8z M304.9,73.7l-2,0.4c-0.1,0.6-0.1,1.3-0.1,1.9c0.1,0.9,0.8,1.3,2.4,1.5c0.8,0.1,1.5,0.1,2.3,0.1
		c0,0.1,0,0.1-0.1,0.2c-1.8,0.2-3.6,0.4-5.4,0.6c-1.8,0.2-3.6,0.1-5.4-0.5c-1.3-0.4-2.8-0.8-4.6-1.3l4.8-1.4l-2.8-1.3l1.8-0.7
		l-3.6-0.6l0,0c1.9-0.3,3.9-0.5,5.8-0.4c0.4,0,0.9,0,1.3,0c1.2,0,2.4,0,3.6,0L304.9,73.7z M297.2,63.9l-0.1,0.2l-0.2-0.1L297.2,63.9
		z M302.4,69.2l-6.2,0.7c-1.3-0.4-2.6-0.6-3.9-0.6c-0.7,0-1.4,0.1-2.1,0.2c-0.8,0.2-0.9,0.1-2.5-0.9c0.3-0.6,1.4-0.8,2.4-1.2
		c2,0.8,4.3,0.2,6.2,0.9C298.4,68.6,300.4,69,302.4,69.2z M295.6,51.5c0.2,0,0.4,0,0.6,0.1c-0.1,0.1-0.3,0.2-0.4,0.4
		c-0.3,0-0.7-0.1-0.9-0.2l0,0C295,51.6,295.3,51.5,295.6,51.5z M294.4,50l0.2,0.1h-0.3L294.4,50z M292.6,48.3L292.6,48.3
		c0.2,0,0.4,0.1,0.6,0.1c-0.2,0.2-0.2,0.3-0.3,0.4c-0.6,0.4-1.3,0.6-1.9,0.3c-0.1,0-0.1-0.1-0.1-0.2C291,48.3,291.8,48.4,292.6,48.3
		z M291.9,50.3c0,0.1-0.1,0.1-0.1,0.1c-0.1,0-0.2,0-0.3-0.1l0.1-0.2L291.9,50.3z M285.5,0.3c0.1,0,0.2,0,0.4,0
		c0.5,0.4,1.1,0.8,0.4,1.3c-0.1,0-0.2,0.1-0.4,0l0,0C285.1,1.5,285,1.3,285.5,0.3z M286.5,51.6c0.9,0.1,1.7,0.2,2.5,0.5
		c-1.9,0.7-1.9,0.7-4.2,0.1l0,0C285.3,51.8,285.9,51.6,286.5,51.6z M281.4,46.1l-0.1,0.1l-0.2-0.1H281.4z M278.6,49.2
		c0.1,0.1,0.1,0.1,0.2,0.2c-0.1,0.1-0.1,0.1-0.2,0.2l-0.3-0.1L278.6,49.2z M279.4,59.6c0.2,0,0.5-0.1,0.6-0.1c0,0,0.1,0,0.1,0
		c1.7,0.4,3.4,0.5,5,0.2c2.6-0.3,5.2-0.1,7.7,0.4c-0.2,0.2-0.2,0.5-0.3,0.5c-1.4,0.1-2.8,0.2-4.1,0.5c-1.4,0.3-2.8,0.5-4.2,0.4
		c-1.3,0.1-2.6,0.5-3.8,1.1c-0.3-0.8-1.9-1-2.7-1.5L279.4,59.6z M275.8,57.2L275.8,57.2c0.2,0,0.4,0,0.6,0c-0.2,0.1-0.3,0.1-0.5,0.2
		c-0.1,0-0.2,0-0.3,0C275.6,57.3,275.7,57.2,275.8,57.2z M274.1,63.1c0.9-0.6,2-0.9,3.1-0.8c1.1,0,2.2,0.2,3.2,0.4
		c-0.1,1.1-0.2,1.2-1.3,1.3c-1.7,0.2-3.3,0.3-5,0.5C274.4,64,274.6,63.5,274.1,63.1L274.1,63.1z M272.1,60.3c0.1,0,0.2,0.1,0.3,0.1
		c0,0.1-0.1,0.2-0.1,0.2c-0.1,0-0.3,0-0.4,0L272.1,60.3z M269.2,62l0.2,0.1l-0.3,0L269.2,62z M262.2,62.9L262.2,62.9
		c0.2,0,0.4,0,0.6,0c0.1,0,0.1,0,0.2,0c0.8,0.3,1.7,0.5,2.6,0.4c1.7-0.1,3.4-0.3,5.1-0.3c1.2,0,2.3,0.1,3.5,0.1
		c-0.2,0.5-0.5,0.9,0,1.4c0.3,1-1,1.6-1.5,2.6l-5.5,0c0.9-0.8,1-1,1.9-1c0.8-0.1,1.7-0.1,2.8-0.1c-1.5-1-1.5-1-10.1-1.6
		C261,63.7,261.5,63.3,262.2,62.9z M261.9,65.7c1,0.5,0.3,1.1-0.3,1.1c-2.2,0-4.4-0.1-6.6-0.3c-0.5,0-1-0.5-1.6-0.8l0.8-0.7
		c0.8,0.1,1.6,0.3,2.4,0.6c1.2,0.7,2.6,0.8,3.9,0.3C260.9,65.8,261.4,65.7,261.9,65.7z M259.6,63.2c0.2,0.4-0.2,0.6-0.8,0.7
		c-1.6,0.1-3.2,0.4-4.7,1l0,0c-1.2-0.2-2.6-0.3-2.9-1.3c1.5,0.4,3.1,0.4,4.5-0.1C257.1,63.3,258.3,63.2,259.6,63.2z"/>
	<path class="st0" d="M259.6,82.9c0.1-0.3,0.2-0.5,0.3-0.7c-1.3-0.3-2.6-0.7-3.9-1c-1.8-0.5-3.7-0.4-5.5,0.2
		C253,83.1,256.5,82.5,259.6,82.9z"/>
	<path class="st0" d="M1541.8,88.2c0.2,0,0.4,0,0.5-0.1c0.1,0,0.1-0.1,0.2-0.2c-0.3-0.1-0.6-0.2-0.9-0.3c-0.4,0-0.8,0.1-1.2,0.2
		c0.4,0.1,0.8,0.2,1.2,0.3l0,0C1541.7,88.2,1541.8,88.2,1541.8,88.2z"/>
	<path class="st0" d="M1551.5,87.6c0.1,0,0.2,0,0.3,0c0.2-0.1,0.3-0.2,0.4-0.2c-0.2,0-0.4,0-0.6,0.1l0,0
		C1551.6,87.5,1551.6,87.6,1551.5,87.6z"/>
	<path class="st0" d="M1537.3,82l-0.3-0.1l0,0c-0.1,0.1-0.1,0.1-0.1,0.2L1537.3,82z"/>
	<polygon class="st0" points="1536.8,81 1536.9,80.9 1536.6,80.9 	"/>
	<path class="st0" d="M1552.1,81.5c0.1,0.1,0.2,0.1,0.2,0.1h0c0.1,0,0.2-0.1,0.3-0.1l-0.4-0.2C1552.2,81.3,1552.2,81.4,1552.1,81.5z
		"/>
	<path class="st0" d="M1552.9,87.2l-0.4,0.1c0.1,0,0.1,0,0.2,0C1552.8,87.3,1552.9,87.2,1552.9,87.2z"/>
	<polygon class="st0" points="1555.1,86.1 1555.3,86.1 1555.2,86 	"/>
	<path class="st0" d="M1552.4,87.3l0.1,0C1552.5,87.3,1552.4,87.3,1552.4,87.3L1552.4,87.3c-0.1,0-0.1,0-0.1,0L1552.4,87.3z"/>
	<polygon class="st0" points="1527.2,80.9 1527.3,80.9 1527.2,80.9 	"/>
	<polygon class="st0" points="1527.2,80.9 1527.3,80.9 1527.6,80.8 	"/>
	<path class="st0" d="M1523.6,88c0.6,0,1.1,0,1.7,0c1.4,0.1,2.8-0.1,4.1-0.5c-1.3-0.1-2.6-0.1-3.9-0.2l0,0
		C1524.7,87.3,1523.9,87.3,1523.6,88z"/>
	<path class="st0" d="M1529.5,87.4l-0.1,0L1529.5,87.4L1529.5,87.4C1529.5,87.4,1529.5,87.4,1529.5,87.4z"/>
	<path class="st0" d="M1530,87.2c0.1,0,0-0.2,0-0.3c-0.1,0-0.2,0.1-0.3,0.1l0,0c-0.1,0.1-0.2,0.2-0.3,0.3
		C1529.7,87.4,1529.8,87.3,1530,87.2z"/>
	<polygon class="st0" points="1529.3,87.5 1529.4,87.5 1529.4,87.4 	"/>
	<path class="st0" d="M128.4,76.3c-0.1,0-0.2,0-0.4,0l0,0.2l0.4,0C128.4,76.4,128.4,76.3,128.4,76.3z"/>
	<path class="st0" d="M124,76.4c-0.1,0-0.2-0.1-0.3-0.1c-0.1,0-0.2,0.1-0.3,0.1c0.1,0.1,0.2,0.1,0.3,0.1
		C123.8,76.5,123.9,76.4,124,76.4z"/>
	<polygon class="st0" points="134.1,73.6 134.1,73.6 134.1,73.6 	"/>
	<path class="st0" d="M122.4,78.5c0.2,0.2,0.5,0.4,0.9,0.8c0.4-0.3,0.8-0.5,0.7-0.6c-0.2-0.2-0.5-0.4-0.7-0.4
		C123,78.3,122.7,78.4,122.4,78.5z"/>
	<polygon class="st0" points="122.4,78.5 122.4,78.5 122.4,78.5 	"/>
	<path class="st0" d="M131.9,77.4l4.2,0.1c0,0,0,0,0,0l0,0l0.3,0.1l-0.3-0.1l0,0c1-0.6,2.2-0.9,3.5-0.9c2.8-0.2,2.8-0.2,6-1.7
		c-4.9-0.2-8.9,0.9-13,1.8C132.3,76.8,132.2,77.1,131.9,77.4z"/>
	<path class="st0" d="M127,78.7c0.1,0.1,0.1,0.3,0.3,0.4l0,0c0.2,0.1,0.5,0.1,0.7,0.2c0.2-0.1,0.4-0.1,0.6-0.2c0,0-0.1-0.1-0.2-0.2
		c-0.2-0.1-0.5-0.2-0.7-0.2C127.4,78.6,127.2,78.6,127,78.7z"/>
	<path class="st0" d="M1524.2,83.8c0.4-0.2,0.7-0.4,1-0.6c0.7-0.8,1.3-1.5,2-2.3c-0.6-0.2-1.2-0.1-1.7,0.3c-0.5,0.6-1,1.3-1.5,1.9
		l0,0C1523.9,83.3,1524.1,83.5,1524.2,83.8z"/>
	<path class="st0" d="M747.6,86.5c0.8-0.2,1.8-0.4,1.1-1.1c-0.1-0.1-0.3-0.1-0.4-0.1l0,0C746.9,85.5,747.5,86,747.6,86.5z"/>
	<path class="st0" d="M1729.5,87.9c-0.1,0-0.2-0.1-0.3-0.1c-0.1,0-0.2,0-0.4,0.1c0.1,0,0.2,0.1,0.3,0.1h0
		C1729.3,88,1729.4,88,1729.5,87.9z"/>
	<path class="st0" d="M1675.5,90.2c-0.2-0.2-0.3-0.3-0.4-0.3c-0.5,0-1,0-1.5,0c-0.1,0-0.1,0.1-0.1,0.2c0.4,0.1,0.9,0.2,1.3,0.3l0,0
		C1675.1,90.3,1675.3,90.3,1675.5,90.2z"/>
	<polygon class="st0" points="1643.8,84.8 1643.8,84.9 1644,84.9 	"/>
	<path class="st0" d="M69.9,81.6l0.8,0.6c0,0,0,0,0,0l0.1,0c0,0,0,0,0,0l0,0l0.7-0.9L69.9,81.6z"/>
	<path class="st0" d="M1614.5,88.9L1614.5,88.9c0.1,0,0.2,0,0.3,0c1.5-0.1,3-0.3,4.4-0.6C1615.8,88.2,1615.8,88.2,1614.5,88.9z"/>
	<path class="st0" d="M1771.9,86.7c0.1,0,0.2-0.1,0.3-0.1c0.1-0.1,0.2-0.2,0.2-0.4c-0.2,0-0.4,0.1-0.6,0.2l0,0
		C1771.8,86.4,1771.9,86.6,1771.9,86.7z"/>
	<polygon class="st0" points="123.4,76.4 123.4,76.4 123.4,76.4 	"/>
	<path class="st0" d="M1289.4,88.3c0.9-0.3,1.5-0.6,0.9-1.3c-0.9-0.1-1.8,0.3-2.4,0.9l0,0c0.4,0.2,0.8,0.4,1.2,0.4
		C1289.2,88.3,1289.3,88.3,1289.4,88.3z"/>
	<polygon class="st0" points="1280.5,87.9 1280.5,87.9 1280.5,87.9 	"/>
	<path class="st0" d="M1278.8,88.3l1.7-0.4C1279.7,87.6,1278.9,87.5,1278.8,88.3z"/>
	<path class="st0" d="M1271.8,87.4l-0.3-0.1l-0.3,0.1c0.1,0,0.2,0.1,0.2,0.1l0,0C1271.6,87.4,1271.7,87.4,1271.8,87.4z"/>
	<path class="st0" d="M1363.8,87l-0.4,0.3L1363.8,87l0.3-0.1C1364,86.9,1363.9,87,1363.8,87z"/>
	<path class="st0" d="M1313.7,87.9l-0.5,0.2l0.2,0.2c0.2-0.1,0.3-0.2,0.5-0.3C1313.9,88,1313.8,87.9,1313.7,87.9z"/>
	<path class="st0" d="M1301.8,84.4c0.2,0,0.4,0,0.6-0.1c0,0-0.1-0.1-0.1-0.1c-0.2,0-0.4,0-0.6,0.1l0,0
		C1301.7,84.3,1301.8,84.4,1301.8,84.4z"/>
	<path class="st0" d="M1352.5,87.4c0.2-0.3-0.4-0.7-1.1-0.7c-0.2,0-0.4,0.1-0.5,0.2l0,0c0.2,0.3,0.6,0.5,0.8,0.8
		C1352.2,87.6,1352.5,87.5,1352.5,87.4z"/>
	<path class="st0" d="M1157.5,83.4l0.3,0.1c0-0.1,0-0.2,0-0.2L1157.5,83.4z"/>
	<polygon class="st0" points="1153.7,84.5 1154,84.5 1153.8,84.4 	"/>
	<path class="st0" d="M1145,84.3l-0.3-0.1c0,0.1-0.1,0.1-0.1,0.2l0,0c0,0,0.2,0.1,0.3,0.1L1145,84.3z"/>
	<path class="st0" d="M1174.7,82.3c-0.2,0-0.4,0-0.4,0c-0.1,0.2-0.2,0.4-0.2,0.6l0,0c0.3,0.1,0.6,0.2,0.9,0.2c0-0.3,0-0.6-0.1-0.8
		C1174.9,82.3,1174.8,82.3,1174.7,82.3z"/>
	<polygon class="st0" points="1269.5,86.4 1269.8,86.4 1269.5,86.3 	"/>
	<path class="st0" d="M1266.5,87c-0.1,0-0.2,0.2-0.3,0.3l0.7,0.2l0.3-0.3C1267,87.1,1266.8,87,1266.5,87z"/>
	<path class="st0" d="M1461.5,81.3c-0.2,0-0.7,0.3-0.7,0.4c0.3,0.3,0.6,0.5,1,0.7l0.9-0.6C1462.3,81.5,1461.9,81.4,1461.5,81.3z"/>
	<path class="st0" d="M1367.8,87.2l0.2,0.2c0,0,0.1-0.1,0.1-0.1C1368,87.2,1367.9,87.2,1367.8,87.2z"/>
	<polygon class="st0" points="1468.4,81.7 1468.3,81.6 1468.1,81.7 	"/>
	<path class="st0" d="M1466.7,81.5l2.8-0.8C1468,80.5,1467.1,80.6,1466.7,81.5z"/>
	<path class="st0" d="M1492.2,87.1c-0.1,0-0.3,0-0.4,0l0.5,0.2C1492.2,87.2,1492.2,87.1,1492.2,87.1z"/>
	<path class="st0" d="M1466.4,80.1c-0.1,0-0.2,0-0.3,0.1l0,0c0,0.1,0,0.1,0,0.2l0.5-0.1C1466.5,80.2,1466.4,80.1,1466.4,80.1z"/>
	<path class="st0" d="M1498.6,87.1c0,0,0.1,0,0.1,0c0,0,0-0.1,0-0.2c-0.1,0-0.2,0-0.4,0c0,0,0,0.1,0,0.2l0,0
		C1498.4,87.1,1498.5,87.1,1498.6,87.1z"/>
	<path class="st0" d="M1469.6,80.7L1469.6,80.7C1469.6,80.7,1469.6,80.7,1469.6,80.7L1469.6,80.7z"/>
	<path class="st0" d="M1376.8,87.2c0.1-0.1,0.1-0.2,0.1-0.3l-1,0c0.1,0.2,0.1,0.4,0.2,0.4C1376.3,87.3,1376.6,87.3,1376.8,87.2z"/>
	<polygon class="st0" points="1376.1,87.3 1376.1,87.3 1376.1,87.3 	"/>
	<path class="st0" d="M1412.7,85.7c-0.1,0-0.2-0.1-0.3-0.1c-0.1,0-0.1,0.1-0.1,0.2h0c0.1,0,0.2,0.1,0.3,0.1c0,0,0,0,0,0
		C1412.7,85.8,1412.7,85.7,1412.7,85.7z"/>
	<path class="st0" d="M1518,83.8c0,0-0.2-0.1-0.3-0.1c0,0.1-0.1,0.1-0.1,0.2l0,0c0,0,0.2,0.1,0.3,0.1C1517.9,84,1518,83.9,1518,83.8
		z"/>
	<path class="st0" d="M1464.5,82.3c0.3-0.1,0.6-0.1,0.9-0.3l-0.6-0.6c-0.3,0.2-0.5,0.3-0.7,0.6h0C1464,82.1,1464.4,82.3,1464.5,82.3
		L1464.5,82.3z"/>
	<path class="st0" d="M1449.1,80.7c-0.1,0-0.2,0-0.3,0.1l0,0c0,0,0.1,0.1,0.1,0.1c0.1,0,0.2,0,0.3-0.1S1449.1,80.7,1449.1,80.7z"/>
	<path class="st0" d="M303.4,86.4L303.4,86.4C303.4,86.4,303.4,86.4,303.4,86.4L303.4,86.4z"/>
	<path class="st0" d="M643.3,86.5c0.8,0.1,1.8-0.5,3.2-0.9c-1.8-0.5-3.7-0.5-5.6-0.2c-2.5,0.3-4.9,0.7-7.3,1
		c-0.9,0.2-1.8,0.4-2.6,0.6c-0.2,0.1-0.3,0.3-0.5,0.4c0.2,0.4,1.6,0.3,1.3,1l-2.1,1l0,0c0.9,0.2,1.8,0.3,2.7,0.3
		c0.9,0,1.8-0.2,2.7-0.6c-0.1-0.4-0.1-0.9-0.2-1.4c0.9-0.1,1.9-0.2,2.7-0.4C639.4,86.8,641.3,86.5,643.3,86.5z"/>
	<path class="st0" d="M633.7,92.2c0.1,0,0.2,0,0.4-0.1c0.1,0,0-0.1,0-0.2l-0.4-0.1L633.7,92.2z"/>
	<path class="st0" d="M630.8,85.7L630.8,85.7L630.8,85.7L630.8,85.7L630.8,85.7L630.8,85.7L630.8,85.7L630.8,85.7L630.8,85.7
		C630.9,85.7,630.9,85.7,630.8,85.7z"/>
	<polygon class="st0" points="626,84.6 625.8,84.6 625.8,84.6 	"/>
	<path class="st0" d="M629.9,91.9c0-0.1,0-0.2,0-0.2c-0.1,0-0.2,0-0.3,0c0,0.1,0,0.2,0,0.2c0,0,0.1,0,0.1,0
		C629.7,91.9,629.8,91.9,629.9,91.9z"/>
	<polygon class="st0" points="629.5,91.9 629.5,91.9 629.5,91.9 	"/>
	<polygon class="st0" points="632.2,93.5 631.9,93.6 632.2,93.7 	"/>
	<path class="st0" d="M625.7,84.6c0,0,0.1,0,0.1,0l0,0L625.7,84.6L625.7,84.6z"/>
	<path class="st0" d="M615.1,86.5c1.7-0.1,3.4-0.5,4.9-1.2c-1.5-0.2-3-0.1-4.4,0.3l0,0C615,85.7,614.3,85.9,615.1,86.5z"/>
	<polygon class="st0" points="566.9,79.1 567.1,79.1 567,79 	"/>
	<path class="st0" d="M359.8,85.5l4.5,0.4C362.7,85,361.6,85.1,359.8,85.5z"/>
	<path class="st0" d="M628.7,86.4L628.7,86.4c0.1,0,0.3,0,0.4,0c0.3,0,0.6,0,0.9-0.1c0.3-0.1,0.6-0.3,0.9-0.6c-0.4,0-0.9,0-1.3,0.1
		C628.6,85.9,628.1,86.3,628.7,86.4z"/>
	<path class="st0" d="M617.3,89.6l0.8,0.1l0.6-0.4c-0.3-0.1-0.7-0.1-1-0.1C617.5,89.2,617.4,89.4,617.3,89.6z"/>
	<path class="st0" d="M625.4,84.5c-0.1,0-0.2,0-0.3,0h0.5C625.6,84.5,625.5,84.5,625.4,84.5L625.4,84.5z"/>
	<path class="st0" d="M654.5,88.2c-0.1,0-0.3,0.1-0.3,0.2l0,0c0.1,0.1,0.3,0.2,0.4,0.3l0.5-0.3C654.9,88.4,654.7,88.3,654.5,88.2z"
		/>
	<polygon class="st0" points="662.4,87.1 662.3,87.1 662.3,87.1 662.3,87.1 662.3,87.1 	"/>
	<polygon class="st0" points="662.3,87.1 662.3,87.1 662.3,87.1 	"/>
	<polygon class="st0" points="662.3,87.1 662.3,87.1 662.3,87.1 662.3,87.1 	"/>
	<polygon class="st0" points="332.5,84.8 332.9,84.9 332.8,84.8 	"/>
	<path class="st0" d="M659.9,87.4c-0.2,0.2,0,0.5,0,0.7c0.1,0,0.3,0,0.4,0l0,0c0.1,0,0.2,0,0.4,0c0.1,0,0.3,0,0.4-0.1
		c0.5-0.3,0.9-0.6,1.3-1C661.5,86.8,660.6,87,659.9,87.4z"/>
	<polygon class="st0" points="71.5,81.3 71.4,81.3 71.5,81.3 71.5,81.3 	"/>
	<polygon class="st0" points="653.8,94.7 653.7,94.6 653.7,94.7 653.7,94.7 	"/>
	<polygon class="st0" points="653.7,94.7 653.7,94.7 653.7,94.7 	"/>
	<path class="st0" d="M648.1,90.1c-1.1,0.1-1.6,0.6-1.2,1.1c0.4,0.6,0.9,1,1.6,1.2l0,0c1,0.2,2,0.3,3,0.4l0.4-0.5
		c-0.6-0.3-1.1-0.6-1.8-0.8c-0.7-0.2-0.9-0.3-0.7-0.8C649.7,90.2,648.9,90.1,648.1,90.1z"/>
	<polygon class="st0" points="653.6,94.7 653.7,94.7 653.7,94.6 	"/>
	<path class="st0" d="M650.9,95l2.7-0.3C652.7,94.5,651.8,94.2,650.9,95z"/>
	<path class="st0" d="M653.6,94.7C653.6,94.7,653.6,94.7,653.6,94.7L653.6,94.7L653.6,94.7z"/>
	<path class="st0" d="M646.8,94.3l0.7,0c0-0.1-0.1-0.2-0.1-0.2l-0.4-0.1L646.8,94.3z"/>
	<path class="st0" d="M222.1,80.3c0.3,0.2,0.6,0.3,0.9,0.4l0,0c3.5,0.2,6.9,0.7,11,0.7c0.5,0,1,0,1.5,0c-1.4-0.7-3-1.1-4.6-1.3
		C228.1,79.9,225.1,80,222.1,80.3z"/>
	<path class="st0" d="M210.8,79.8c-0.1,0-0.2-0.1-0.2-0.1c-0.2,0-0.4,0.1-0.6,0.1c0.1,0.1,0.2,0.1,0.2,0.1
		C210.3,79.9,210.5,79.9,210.8,79.8z"/>
	<path class="st0" d="M189.8,79.5v-0.2h-1.2c0,0,0,0.1,0,0.2H189.8z"/>
	<polygon class="st0" points="197.9,79.3 197.9,79.5 198.2,79.4 	"/>
	<polygon class="st0" points="209.9,79.8 209.9,79.8 209.9,79.8 	"/>
	<path class="st0" d="M252.5,79.4c-0.2,0-0.4,0.1-0.5,0.2l0.6,0.2l0.6-0.2C252.9,79.5,252.7,79.5,252.5,79.4z"/>
	<path class="st0" d="M134.9,73.6c-0.1,0-0.2-0.1-0.2-0.1c-0.2,0-0.4,0.1-0.6,0.1c0.1,0,0.2,0.1,0.2,0.1
		C134.5,73.7,134.7,73.7,134.9,73.6z"/>
	<polygon class="st0" points="229,76.7 229.3,76.6 229.1,76.5 	"/>
	<path class="st0" d="M253.7,78.5c0.5,0.2,1,0.4,1.5,0.4c0.5,0,1-0.1,1.4-0.3c-0.8-0.2-1.6-0.5-2.4-0.7c-0.2,0-0.5,0.1-0.6,0.2
		C253.5,78.2,253.6,78.4,253.7,78.5L253.7,78.5z"/>
	<polygon class="st0" points="148.2,75.9 148.2,75.9 148.2,75.9 	"/>
	<path class="st0" d="M146.8,78L146.8,78c-2.8-0.2-5.5,0.2-8.2,1.1C141.4,79.2,144.1,78.8,146.8,78z"/>
	<path class="st0" d="M148.7,75.9c-0.1,0-0.2-0.1-0.2-0.1c-0.1,0-0.2,0.1-0.2,0.1c0.1,0,0.2,0.1,0.2,0.1
		C148.6,76,148.6,75.9,148.7,75.9z"/>
	<polygon class="st0" points="188.6,79.3 188.6,79.3 188.6,79.3 	"/>
	<polygon class="st0" points="172.2,79 172.5,79.1 172.5,78.9 	"/>
	<polygon class="st0" points="177.1,78.9 177.2,79.1 177.4,79 	"/>
	<path class="st0" d="M256.6,78.6L256.6,78.6L256.6,78.6c0.1-0.1,0.1-0.1,0.1-0.2C256.7,78.5,256.7,78.5,256.6,78.6z"/>
	<path class="st0" d="M321.8,87.3c0.2,0,0.3-0.1,0.2-0.2c-0.4-0.6-1.3-0.5-2.1-0.5C320.5,87,321.1,87.2,321.8,87.3z"/>
	<polygon class="st0" points="319.8,86.7 319.8,86.6 319.7,86.7 	"/>
	<path class="st0" d="M308.4,83.2l-0.3-0.1l0,0c0,0.1,0,0.2,0.1,0.2L308.4,83.2z"/>
	<path class="st0" d="M317.4,85.5c-0.7-0.3-1.8-0.2-2.5-0.5c-0.6-0.3-1.1-0.7-1.6-1.1c-1.3,0.2-2.4,0.9-3.1,2.1
		c-0.3,0.4,0.3,1.3,0.9,1.4l0,0c0.3,0,0.6,0.1,0.9,0.1c0.3,0,0.7,0,1-0.1c1.8-0.7,3.7-0.9,5.6-0.6c0.4,0,0.7,0,1.1,0l0,0l0,0
		c0,0-0.1,0-0.1,0C319,86.2,318.2,85.8,317.4,85.5z"/>
	<path class="st0" d="M320.9,84.2c0.3,0.3,0.7,0.4,1.1,0.5c0.1,0,0.3,0,0.4-0.1c0.1,0,0.2-0.1,0.2-0.2c0-0.5-0.7-0.5-1.3-0.6
		c-0.2,0-0.5,0-0.7,0l0,0l0,0h0.1C320.7,84,320.8,84.1,320.9,84.2L320.9,84.2z"/>
	<path class="st0" d="M319.8,86.6C319.9,86.7,319.9,86.7,319.8,86.6C319.9,86.6,319.9,86.6,319.8,86.6L319.8,86.6z"/>
	<path class="st0" d="M303.6,86.5c0.3-0.1,0.6-0.2,0.9-0.3l-0.3-0.2l-0.8,0.4C303.5,86.4,303.5,86.5,303.6,86.5L303.6,86.5z"/>
	<polygon class="st0" points="302.5,82.4 302.8,82.4 302.5,82.3 	"/>
	<polygon class="st0" points="259.8,82.2 259.8,82.2 259.9,82.2 260.2,82.1 	"/>
	<path class="st0" d="M1141.2,81.4c-0.3,0-0.7,0-1,0.1c-0.1,0-0.2,0.2-0.3,0.3l0,0c0.2,0,0.4,0.1,0.5,0.1c0,0,0.1,0,0.1,0
		C1140.7,81.7,1141,81.6,1141.2,81.4z"/>
	<polygon class="st0" points="307.8,87.1 307.8,87.1 307.8,87.1 	"/>
	<path class="st0" d="M308.1,87.4l0.5-0.2l-0.4-0.3c-0.2,0.1-0.3,0.1-0.5,0.3C307.8,87.1,308,87.3,308.1,87.4z"/>
	<path class="st0" d="M325.5,87c0.2,0,0.4-0.1,0.6-0.2l-1-0.8c-0.3,0-0.6,0.1-0.8,0.3C324.1,86.6,324.7,86.9,325.5,87L325.5,87z"/>
	<path class="st0" d="M893.3,87c0.1,0,0.2,0,0.2,0.1c0.2,0,0.5,0,0.7,0l0.8-0.1l-0.8,0c-0.2-0.2-0.3-0.4-0.5-0.4
		c-0.4-0.1-0.8-0.2-1.2-0.2c0,0-0.2,0.2-0.2,0.2C892.7,86.7,893,86.9,893.3,87L893.3,87z"/>
	<path class="st0" d="M825.5,84.7c1-0.3,1.2-1,0.6-1.4c-0.4-0.2-0.8-0.2-1.2-0.1c-0.9,0.2-1.1,1-0.5,1.3v0
		C824.8,84.6,825.2,84.7,825.5,84.7z"/>
	<path class="st0" d="M831.1,89.9c0.1,0,0.3-0.1,0.4-0.1l-0.5-0.1C831,89.8,831,89.9,831.1,89.9L831.1,89.9z"/>
	<path class="st0" d="M817.6,99.2c-0.4,0-0.9,0-1.3,0c-0.1,0-0.1,0.4,0,0.4c0.4,0.1,0.8,0.1,1.3,0.1
		C817.6,99.6,817.6,99.4,817.6,99.2z"/>
	<path class="st0" d="M836.6,85.8l0.3-0.2l-0.3-0.2c-0.1,0.1-0.2,0.1-0.2,0.2C836.3,85.6,836.5,85.7,836.6,85.8z"/>
	<path class="st0" d="M843.8,87C843.8,87,843.8,87,843.8,87C843.8,87,843.8,87,843.8,87L843.8,87z"/>
	<polygon class="st0" points="836.4,85.6 836.4,85.6 836.4,85.6 	"/>
	<polygon class="st0" points="816.3,99.7 816.3,99.7 816.3,99.7 	"/>
	<path class="st0" d="M822.2,89.4c0.3,0,0.5-0.4,0.5-0.7c0-0.1-0.3-0.3-0.5-0.4c-0.8-0.3-1.8-0.3-2.6,0.1l0,0
		c-0.6,0.4-1.1,0.8-2.2,1.5C819.5,89.7,820.9,89.6,822.2,89.4z"/>
	<path class="st0" d="M812.1,97.9C812.1,97.9,812.1,97.9,812.1,97.9C812.1,97.9,812.1,97.9,812.1,97.9L812.1,97.9z"/>
	<path class="st0" d="M810.3,95.3c0.3-0.5,0.7-0.8,0.7-1.1c0-0.5-1.4-0.8-2.2-0.4c-0.4,0.2-0.7,0.8-0.5,0.9l0,0
		C808.9,94.9,809.6,95.1,810.3,95.3z"/>
	<path class="st0" d="M812.1,97.9c1.8-1.7,3.6-0.3,6,0.3c-1.9-1.8-2.2-2-3-1.9c-0.8,0.2-1.6,0.4-2.4,0.8
		C812.3,97.2,812.3,97.6,812.1,97.9z"/>
	<path class="st0" d="M815.1,87.3c0.2,0,0.4,0,0.6,0c0.1,0,0.1-0.3,0.1-0.5c-0.4,0-0.9,0-1.3,0.1c-0.1,0-0.1,0.3-0.1,0.4
		c0.1,0,0.2,0,0.3,0l0,0C814.9,87.3,815,87.3,815.1,87.3z"/>
	<path class="st0" d="M845,87.2c0.3,0,0.4-0.4,0.7-0.7c-0.5-0.1-1-0.2-1.4-0.2c-0.3,0.1-0.3,0.4-0.5,0.6c0.3,0.1,0.7,0.2,1.1,0.2
		C844.9,87.2,844.9,87.2,845,87.2z"/>
	<path class="st0" d="M817.2,80.3c0.3,0.1,0.7,0.2,1.1,0.2c0,0,0.1,0,0.1,0c0.2,0,0.4-0.3,0.7-0.6c-0.4-0.1-0.9-0.2-1.4-0.2
		C817.5,79.8,817.4,80.1,817.2,80.3z"/>
	<path class="st0" d="M916.3,95.1c0,0,0.1,0,0.1,0c0.1,0,0-0.1,0-0.2c-0.1,0-0.2,0-0.4,0c-0.1,0,0,0.1,0,0.2l0,0
		C916.2,95.1,916.3,95.1,916.3,95.1z"/>
	<path class="st0" d="M904.1,94.9c-0.1,0-0.2,0-0.3,0h-0.1l0,0.2l0.4,0C904.1,95,904.2,94.9,904.1,94.9z"/>
	<path class="st0" d="M792,95.8c-2.3-0.8-3.5-1.6-5.6-1.3c1.1,0.9,2.6,1.3,5.5,1.3H792z"/>
	<path class="st0" d="M891.6,97.9c0-0.1-0.2-0.1-0.3-0.1l-0.3,0.1l0.4,0.2C891.5,98,891.6,97.9,891.6,97.9z"/>
	<path class="st0" d="M885.6,94.9c-0.1-0.1-0.2-0.2-0.3-0.3c-0.1,0-0.3,0-0.4,0l0,0c-0.1,0.1-0.1,0.2-0.1,0.4L885.6,94.9z"/>
	<path class="st0" d="M852.5,81.6c-0.2,0-0.5,0-0.8-0.1c0,0.1,0,0.1,0,0.2l0.8,0.1C852.5,81.8,852.5,81.6,852.5,81.6z"/>
	<path class="st0" d="M806.8,91.8c-0.1,0-0.3,0-0.4,0.1l0,0c0,0,0.1,0.1,0.1,0.2c0.1,0,0.3,0,0.4-0.1
		C807,91.9,806.9,91.8,806.8,91.8z"/>
	<path class="st0" d="M912.1,99c0.1,0,0-0.1,0-0.2l-0.3,0.2c0,0,0.1,0,0.1,0l0.1,0C912,99,912.1,99,912.1,99z"/>
	<path class="st0" d="M911,88.1c0-0.1,0-0.3,0-0.4c-0.3,0-0.5,0-0.8,0c0,0-0.1,0.2,0,0.2l0,0C910.5,88,910.7,88.1,911,88.1z"/>
	<path class="st0" d="M865.8,80.6c-0.1-0.1-0.2-0.3-0.4-0.4c-0.1,0.1-0.3,0.1-0.3,0.2l0,0c0.1,0.1,0.2,0.3,0.4,0.4
		C865.6,80.7,865.8,80.6,865.8,80.6z"/>
	<path class="st0" d="M923,90c-0.1,0-0.2,0-0.4,0c-0.1,0,0,0.1,0,0.2l0.4,0C923,90.2,923,90.1,923,90z"/>
	<polygon class="st0" points="852.9,89.3 853.2,89.3 853.1,89.2 	"/>
	<path class="st0" d="M862.2,83.4c-0.2-0.1-0.5-0.1-0.7-0.2c0,0.1-0.1,0.3-0.1,0.4l0.4,0c0.1,0,0.3,0,0.4,0
		C862.2,83.6,862.3,83.4,862.2,83.4z"/>
	<path class="st0" d="M872.6,81.5c-0.1,0-0.3,0.1-0.2,0.2l0,0c0.1,0.1,0.3,0.2,0.4,0.3c0.2-0.1,0.3-0.2,0.5-0.3
		C873.1,81.7,872.8,81.6,872.6,81.5z"/>
	<path class="st0" d="M866.9,94.6c-0.2-0.1-0.5-0.1-0.8-0.1c0,0.1-0.1,0.2-0.1,0.2l0,0c0.2,0.1,0.5,0.1,0.8,0.1
		C866.8,94.8,866.9,94.6,866.9,94.6z"/>
	<path class="st0" d="M879.7,84.4c-1.6-0.9-3.4-1.4-5.2-1.6l0,0c1.2,1.1,2.7,1.7,4.4,1.6C879.2,84.4,879.4,84.4,879.7,84.4z"/>
	<path class="st0" d="M792.8,98.9C792.9,98.9,792.9,98.9,792.8,98.9c0.1-0.1,0.2-0.2,0.2-0.4l-0.4,0c-0.1,0.1-0.1,0.2-0.2,0.4
		C792.6,98.9,792.8,98.9,792.8,98.9z"/>
	<polygon class="st0" points="792.5,98.9 792.5,98.9 792.5,98.9 	"/>
	<path class="st0" d="M793.7,89.3c-0.7-0.2-1.4-0.3-2.2-0.4c-0.2,0.5-0.6,0.8-0.5,1.1l0,0c0.1,0.3,0.5,0.4,1,0.4
		c0.4,0,0.8-0.1,1.2-0.3C793.6,90,793.8,89.4,793.7,89.3z"/>
	<path class="st0" d="M782.7,83.3c0.3,0,0.5,0,0.8-0.1l-1.7-0.3C782.1,83.2,782.4,83.3,782.7,83.3z"/>
	<path class="st0" d="M786.2,97.7c0.1,0.1,0.1,0.1,0.2,0.2c0.2-0.1,0.5-0.1,0.7-0.2c-0.1-0.1-0.2-0.2-0.2-0.2
		C786.7,97.5,786.4,97.6,786.2,97.7L786.2,97.7z"/>
	<path class="st0" d="M783.8,83.2l0.9,0.2c0-0.1-0.1-0.2-0.1-0.2C784.3,83.2,784,83.2,783.8,83.2z"/>
	<path class="st0" d="M1129.7,84.8c-0.1-0.1-0.2-0.3-0.4-0.3c-0.3,0-0.5-0.1-0.8-0.1l0,0.5c0.3,0,0.5,0,0.8,0
		C1129.5,84.8,1129.6,84.8,1129.7,84.8z"/>
	<path class="st0" d="M794.8,94.7c0.1,0,0.2-0.1,0.3-0.1l-0.6,0C794.6,94.6,794.7,94.7,794.8,94.7L794.8,94.7z"/>
	<polygon class="st0" points="786.2,94.5 786.3,94.5 786.3,94.5 786.3,94.4 	"/>
	<polygon class="st0" points="786.3,94.5 786.3,94.5 786.3,94.5 	"/>
	<path class="st0" d="M789.8,85.8C789.8,85.8,789.8,85.8,789.8,85.8L789.8,85.8L789.8,85.8C789.8,85.8,789.8,85.8,789.8,85.8
		L789.8,85.8L789.8,85.8L789.8,85.8c0.1,0.1,0.1,0.1,0.1,0.2c0.1,1.1,1,1.9,2.1,1.9c0.4,0,0.8-0.1,1.2-0.2c1.3-0.5,2.7,0,3.8-0.5
		c-1.8-2.3-2-2.4-5.4-1.7C791,85.6,790.5,85.7,789.8,85.8C789.9,85.8,789.9,85.8,789.8,85.8L789.8,85.8L789.8,85.8
		C789.9,85.8,789.9,85.8,789.8,85.8C789.9,85.8,789.8,85.8,789.8,85.8z"/>
	<polygon class="st0" points="786.4,94.5 786.4,94.5 786.4,94.5 786.4,94.5 786.4,94.5 	"/>
	<polygon class="st0" points="788.2,84.2 788.2,84.2 788.2,84.2 	"/>
	<path class="st0" d="M789.8,85.8c-0.4-0.5,0-1.2-1.6-1.6C788.3,85,788,85.7,789.8,85.8z"/>
	<polygon class="st0" points="805.4,83.1 805.7,83.1 805.6,82.9 	"/>
	<path class="st0" d="M798.8,84.7c0.1,0,0-0.1,0-0.2l-0.3-0.1l0,0c0,0.1,0,0.2,0,0.3C798.6,84.7,798.7,84.7,798.8,84.7z"/>
	<path class="st0" d="M801.2,98.3L801.2,98.3c0.4,0.1,0.7,0.2,1.1,0.2c-0.1-0.2,0-0.5-0.2-0.6c-0.4-0.2-0.8-0.4-1.3-0.5
		C801,97.9,801,98.2,801.2,98.3z"/>
	<path class="st0" d="M779.1,95.3c0.1-0.1,0.2-0.1,0.3-0.2c-0.2-0.1-0.4-0.2-0.6-0.3l-0.3,0.2C778.7,95.2,778.9,95.3,779.1,95.3
		L779.1,95.3z"/>
	<polygon class="st0" points="783.5,83.2 783.6,83.2 783.8,83.2 783.7,83.2 	"/>
	<path class="st0" d="M778.7,91.3c-0.2-0.5,0.2-1.1,0.5-2.2c-1.9,1.1-3.4,1.1-4.5,0.1l0,0l-0.1,0l0,0c-1.1,0.6-2.5,1-2.9,2.1
		c1.4,0.2,2.7,0.2,3.8,0.5l0,0c1.2,0.3,2.3,0.7,3.5,1.1C779.9,92.1,778.8,91.8,778.7,91.3z"/>
	<path class="st0" d="M802.1,84.1c0.4,0.1,0.7,0.2,1.1,0.2c0-0.1,0.1-0.3,0.1-0.5l-1.2-0.1C802.1,83.8,802,84,802.1,84.1L802.1,84.1
		z"/>
	<path class="st0" d="M801.5,94.3c0.1,0,0.2,0,0.3,0l-0.5-0.2c0,0.1,0,0.2,0,0.2l0,0C801.4,94.3,801.4,94.3,801.5,94.3z"/>
	<polygon class="st0" points="774.4,92.8 774.7,92.8 774.5,92.7 774.5,92.7 774.5,92.7 774.5,92.7 774.5,92.7 774.4,92.8
		774.4,92.8 	"/>
	<path class="st0" d="M770.7,100.7L770.7,100.7c0.1,0,0.2,0,0.3,0c0,0,0.1,0,0.1,0c0.1,0,0.2-0.1,0.3-0.2l-0.4-0.1L770.7,100.7z"/>
	<path class="st0" d="M776.5,96.3l-0.6-0.3c-0.1,0.1-0.4,0.3-0.4,0.4c0.3,0.2,0.5,0.3,0.8,0.4C776.4,96.6,776.4,96.5,776.5,96.3z"/>
	<path class="st0" d="M771.9,92.5L771.9,92.5c-0.5,0-1.1,0.2-0.6,0.9l3.1-0.6C773.5,92.6,772.7,92.5,771.9,92.5z"/>
	<polygon class="st0" points="775.5,96.4 775.5,96.4 775.5,96.4 	"/>
	<path class="st0" d="M775.9,99.2l-1.2-0.4c-0.2,0.2-0.6,0.5-0.6,0.6l0,0c0.4,0.2,0.9,0.4,1.4,0.5L775.9,99.2z"/>
	<path class="st0" d="M784.5,94.5c-0.4,0.1-0.6,0.5-0.9,0.8v0c0,0,0.2,0.2,0.3,0.2h0c0.4,0,0.8-0.1,1.1-0.3c0.4-0.2,0.8-0.4,1.2-0.7
		C785.7,94.4,785.1,94.4,784.5,94.5z"/>
	<path class="st0" d="M1041.4,93.1l-0.2,0.2L1041.4,93.1L1041.4,93.1l0.1-0.1C1041.4,93,1041.4,93,1041.4,93.1z"/>
	<path class="st0" d="M1029.5,88.7L1029.5,88.7c0,0.2,0.1,0.3,0.1,0.4l0.3-0.2L1029.5,88.7z"/>
	<path class="st0" d="M1041.8,92.5L1041.8,92.5c-0.1,0.2-0.2,0.3-0.3,0.5c0.2-0.1,0.3-0.2,0.5-0.3
		C1042,92.6,1041.8,92.5,1041.8,92.5z"/>
	<polygon class="st0" points="1043.4,90.9 1043.4,90.9 1043.4,90.9 	"/>
	<path class="st0" d="M1058.4,87.2c0.4,0.2,0.8,0.3,1.2,0.3c0.4,0,0.8-0.1,1.2-0.3L1058.4,87.2L1058.4,87.2z"/>
	<path class="st0" d="M1034.2,89.6c0.2,0.1,0.3,0.2,0.5,0.3c0,0,0.1,0,0.1,0c0.2,0,0.4,0,0.6-0.1c-0.2-0.1-0.4-0.2-0.6-0.3
		C1034.7,89.5,1034.5,89.5,1034.2,89.6z"/>
	<path class="st0" d="M1049.4,91.5c-3.4-1-3.4-1-6-0.6c1.5,0.4,3.1,0.6,4.7,0.7C1048.6,91.6,1049,91.6,1049.4,91.5z"/>
	<path class="st0" d="M932.5,90c-0.4,0-0.9-0.1-1.3-0.1c0,0-0.1,0.1-0.2,0.3l0.7,0c0.2,0,0.5,0,0.7,0
		C932.5,90.2,932.5,90.1,932.5,90z"/>
	<polygon class="st0" points="1034.8,89.8 1034.8,89.8 1034.8,89.8 	"/>
	<path class="st0" d="M1035.5,89.8L1035.5,89.8L1035.5,89.8l0.2,0C1035.7,89.8,1035.7,89.8,1035.5,89.8L1035.5,89.8L1035.5,89.8
		L1035.5,89.8z"/>
	<path class="st0" d="M1037,92.3c-0.5-0.1-1-0.1-1.5,0c-0.2,0-0.3,0.4-0.5,0.6l1.2,0.1L1037,92.3z"/>
	<path class="st0" d="M1034.3,95.1L1034.3,95.1c0.1,0.1,0.4,0.2,0.6,0.3c0.1-0.1,0.4-0.3,0.4-0.4c-0.1-0.1-0.4-0.2-0.6-0.3
		C1034.5,94.8,1034.3,95,1034.3,95.1z"/>
	<path class="st0" d="M1035.3,88L1035.3,88c0,0.1,0.2,0.1,0.3,0.2l0.3-0.3l-0.4-0.1C1035.5,87.8,1035.3,87.9,1035.3,88z"/>
	<path class="st0" d="M1036,89.8L1036,89.8c0.1,0,0.2,0,0.3,0l-0.5,0C1035.8,89.8,1035.9,89.8,1036,89.8z"/>
	<path class="st0" d="M1038.6,86.9c-0.1,0-0.3,0-0.4,0.1l0,0c0,0.1,0.1,0.3,0.1,0.4l0.8-0.2C1039,87.1,1038.8,87,1038.6,86.9z"/>
	<polygon class="st0" points="1102.6,90.1 1102.3,90 1102.2,90.2 	"/>
	<path class="st0" d="M1105.6,88.4c-1.6-0.3-3.2-0.3-4.7,0.1l0,0c0.7,0.1,1.5,0.2,2.2,0.2C1104,88.7,1104.8,88.6,1105.6,88.4z"/>
	<path class="st0" d="M1108.7,90.2c-0.2-0.1-0.4-0.2-0.6-0.2c-0.3,0-0.5,0.1-0.7,0.2c0.3,0,0.6,0.1,0.9,0.1l0,0
		C1108.4,90.2,1108.5,90.2,1108.7,90.2z"/>
	<polygon class="st0" points="1128.5,84.9 1128.6,84.9 1128.6,84.9 1128.5,84.9 	"/>
	<path class="st0" d="M1110.9,89c-0.1-0.1-0.1-0.2-0.2-0.2c-0.3,0-0.5,0.1-0.8,0.1l0,0c0.1,0.1,0.1,0.2,0.2,0.2
		C1110.4,89.1,1110.6,89.1,1110.9,89z"/>
	<path class="st0" d="M1098.2,90h-1.3l0,0c0.1,0.1,0.3,0.2,0.4,0.2h0C1097.6,90.1,1097.9,90.1,1098.2,90z"/>
	<path class="st0" d="M1049.6,91.6L1049.6,91.6c1.2,0.5,2.5,0.8,3.9,0.8c0.4,0,0.8,0,1.3-0.1C1053.2,91.5,1051.4,91.2,1049.6,91.6z"
		/>
	<polygon class="st0" points="1049.5,91.6 1049.5,91.6 1049.5,91.6 	"/>
	<path class="st0" d="M1052.9,89.4L1052.9,89.4c0.7,0.1,1.4,0.2,2.1,0.2c1.4-0.1,2.8-0.3,4.2-0.6
		C1057.1,88.6,1054.9,88.7,1052.9,89.4z"/>
	<path class="st0" d="M1049.4,91.5l0.1,0l0,0c0,0,0,0,0,0l0,0l0,0l0,0v0l0,0c0,0,0.1,0,0.1,0l-0.1,0L1049.4,91.5z"/>
	<path class="st0" d="M1063.9,88.9L1063.9,88.9c1.6,0.2,2.3,0.3,2.9,0.3c0.6,0,1.2-0.1,1.9-0.3H1063.9z"/>
	<path class="st0" d="M1078.4,87.5c0-0.1-0.1-0.2-0.1-0.3c-0.4,0-0.8,0.1-1.2,0.1l0,0c0.1,0.1,0.1,0.3,0.1,0.3
		C1077.6,87.6,1078,87.6,1078.4,87.5z"/>
	<path class="st0" d="M1062.8,86.6l-1.7,0.5c0.1,0,0.2,0,0.3,0l0.2,0C1062.1,87.1,1062.6,87,1062.8,86.6z"/>
	<path class="st0" d="M1060.9,87.1l0.1,0C1061,87.1,1061,87.1,1060.9,87.1l-0.1,0L1060.9,87.1L1060.9,87.1z"/>
	<path class="st0" d="M991.4,88c-0.2-0.2-0.4-0.3-0.7-0.3c-0.2,0-0.7,0.2-0.7,0.2l0,0c0,0.4,0.1,0.8,0.3,1.2
		C991.6,88.9,991.6,88.4,991.4,88z"/>
	<path class="st0" d="M983.6,90.8C983.7,90.8,983.7,90.8,983.6,90.8c0.4-0.2,0.7-0.5,1-0.7c-0.3-0.1-0.7-0.2-1-0.3
		c-0.8,0.1-0.9,0.4-0.6,0.8l0,0C983.2,90.7,983.4,90.8,983.6,90.8z"/>
	<polygon class="st0" points="972.9,93 972.9,93 972.9,93 	"/>
	<path class="st0" d="M973.3,93c0.1,0,0.1-0.1,0.1-0.2l-0.3-0.1l-0.2,0.3c0.1,0,0.2,0,0.2,0C973.2,93,973.3,93,973.3,93z"/>
	<path class="st0" d="M996.6,104.2l-0.5-0.3l-0.3,0.1c0.2,0.1,0.3,0.2,0.5,0.3l0,0C996.4,104.3,996.5,104.2,996.6,104.2z"/>
	<path class="st0" d="M999.7,90.7c0.1-0.1,0.3-0.2,0.3-0.2L999.7,90.7l-0.2,0.2L999.7,90.7z"/>
	<polygon class="st0" points="1006.6,100.6 1006.5,100.5 1006.3,100.6 	"/>
	<path class="st0" d="M997.9,89.7h3.5C999.5,88.8,999.5,88.8,997.9,89.7z"/>
	<polygon class="st0" points="936.5,90.5 936.5,90.7 936.8,90.6 	"/>
	<path class="st0" d="M1017.6,89.5c0.3,0.1,0.6,0.1,1,0.1c0.9,0,1.7-0.3,2.3-0.9C1019.7,88.8,1018.6,89,1017.6,89.5L1017.6,89.5z"/>
	<path class="st0" d="M965.6,97.3c0,0.1,0,0.2,0,0.2l0.8,0c0-0.1,0-0.2,0-0.2C966.2,97.3,965.9,97.3,965.6,97.3z"/>
	<polygon class="st0" points="932.8,95.8 932.9,96 933.1,95.9 	"/>
	<path class="st0" d="M946.3,100.4L946.3,100.4c0.1,0.1,0.1,0.2,0.2,0.3c0-0.1,0.1-0.1,0.1-0.2S946.4,100.4,946.3,100.4z"/>
	<path class="st0" d="M961.1,91.6c-0.1,0-0.2,0-0.4,0l0,0c0,0.1,0.1,0.2,0.1,0.3l0.3-0.1C961.1,91.7,961.1,91.6,961.1,91.6z"/>
	<polygon class="st0" points="938.3,98.1 938.6,98 938.4,97.9 	"/>
	<polygon class="st0" points="1021.7,89.8 1021.8,89.9 1022,89.8 	"/>
	<path class="st0" d="M1020.8,91.3c-0.2-0.2-0.5-0.2-0.7-0.2c-0.2,0-0.6,0.2-0.6,0.3c0.2,0.4,0.3,0.8,0.6,1.2l-0.1,0l0.1,0l0,0
		c0,0,0,0,0-0.1C1020.8,92.2,1021.3,91.8,1020.8,91.3z"/>
	<path class="st0" d="M1021.8,93.4L1021.8,93.4c0.7,0.3,1.4,0.5,2.2,0.6c0.3,0,0.7,0,1-0.1C1024,93.4,1022.9,93.3,1021.8,93.4
		l-0.1,0c0,0-0.1,0-0.1,0l0.1,0H1021.8z"/>
	<path class="st0" d="M1027.8,90.6l-4.5,0.8h0c0.3,0.6,0.9,0.9,1.6,0.9c0.3,0,0.6,0,0.8-0.1C1026.9,92,1027.7,91.6,1027.8,90.6z"/>
	<path class="st0" d="M1022.6,86.4c-0.7,0.4-1,1.1-2.1,1.3c0.2,0.2,0.3,0.5,0.6,0.5l0,0c0.3,0.1,0.7,0.1,1,0.1c0.5,0,1-0.1,1.4-0.5
		c0.6-0.5,1.3-0.9,1.9-1.4C1024.6,86,1023.6,86,1022.6,86.4z"/>
	<path class="st0" d="M1021,88.7L1021,88.7L1021,88.7L1021,88.7L1021,88.7l-0.1,0L1021,88.7L1021,88.7c1.3,0.6,2.7,0.9,4.1,0.9
		c0.9,0,1.8-0.2,2.7-0.5C1025.4,88,1025,87.9,1021,88.7z"/>
	<path class="st0" d="M1017.1,85.9C1017.1,85.9,1017.1,85.9,1017.1,85.9c0.2-0.1,0.3-0.2,0.4-0.3l-0.7-0.1c0,0.1,0,0.2,0,0.4h0
		C1016.9,85.8,1017,85.9,1017.1,85.9z"/>
	<path class="st0" d="M1013.7,86.5c0.4,0.6,1,0.9,1.7,0.9c0.5,0,1-0.1,1.5-0.3L1013.7,86.5L1013.7,86.5z"/>
	<path class="st0" d="M1021.1,102L1021.1,102c0.1,0,0.2-0.1,0.3-0.1c-0.1,0-0.2-0.1-0.3-0.1s-0.2,0.1-0.3,0.1
		C1021,101.9,1021,102,1021.1,102z"/>
	<polygon class="st0" points="1008.7,98.5 1008.9,98.6 1009.1,98.5 	"/>
	<polygon class="st0" points="1006.8,89.5 1006.5,89.5 1006.7,89.6 	"/>
	<path class="st0" d="M1020.1,92.6L1019,93c0.3,0.2,0.6,0.4,0.9,0.5c0.1,0,0.2,0,0.3,0c0.4,0,0.9-0.1,1.4-0.1L1020.1,92.6z"/>
	<path class="st0" d="M1012.9,90.2l0.7,0.3l0.6-0.4c-0.2-0.1-0.4-0.2-0.7-0.3C1013.2,89.9,1013.1,90.1,1012.9,90.2z"/>
</g>
</svg>
