<?xml version="1.0" encoding="UTF-8"?>
<svg id="Laag_1" data-name="Laag 1" xmlns="http://www.w3.org/2000/svg" viewBox="0 0 1918.9 104.7">
  <defs>
    <style>
      .cls-1 {
        isolation: isolate;
        opacity: 1;
      }
    </style>
  </defs>
  <polygon class="cls-1" points="1172.1 7.3 1172.1 7.2 1171.7 7.2 1172.1 7.2 1172.1 7.3"/>
  <path class="cls-1" d="m1177.2,3.5c-3,.8-3.8,2.2-2.3,3.7,1,1,2.3,1.6,3.7,1.9l-2.8-3.4c.9-.4,1.9-.8,2.7-1.3.2-.1.1-.5-.2-.7s-.6-.2-1-.3q0,.1-.1.1Z"/>
  <path class="cls-1" d="m1173.2,8.6c.2-.1.5-.3.4-.4h0c-.5-.3-1-.6-1.5-.9.2.4.4.8.7,1.2.1,0,.2.1.4.1Z"/>
  <path class="cls-1" d="m1172,3.2h0c-.3-.3-.7-.4-1.1-.4h-1.3c-.2,0-.4.1-.6.2.2.1.4.2.6.3.8.2,1.6.6,2.4,0,0,.1.1,0,0-.1Z"/>
  <polygon class="cls-1" points="1180.4 2.8 1180.6 2.7 1180.4 2.6 1180.4 2.8"/>
  <path class="cls-1" d="m1221.2,2.5c1.1.6,2.1,1.1,2.9,1.6.4.3.7.7,1,1.2,1.6-.5,1.8-1.2,1.8-1.9,0-.9,2.4-.6,2.2-1.7-2.1-.5-4.3-.6-6.5-.5-1.8,0-3.7,0-5.5-.3-.2.5-.8,1-.7,1.5.3,1,1.6,1.5,3.2,1.8l1.6-1.7Z"/>
  <path class="cls-1" d="m1181,7.2h0c-.1-.1-.1-.2-.2-.3-.1,0-.3.1-.3.1,0,0,.1.1.1.2h.4Z"/>
  <polygon class="cls-1" points="1140.8 20.4 1140.7 20.3 1140.5 20.4 1140.8 20.4"/>
  <path class="cls-1" d="m1146.5,18c.6.1,1.2.3,1.7.3.3,0,.6-.3,1-.6l-5-2.1h-.1.1c-.5.8-1.3,1.2-2.2,1.2-2.1.2-4.2.4-6.9.7,1.8.8,2.5,1.9,5,1.9.5-.3,1.1-.6,1.7-.9,1.4-.7,3.1-.9,4.7-.5Z"/>
  <path class="cls-1" d="m1158.6,13.4c.1-.3-.5-.6-1-.6h-.3c-1.2.3-2.2.7-2.4,1.7l2.8,1.1c.4-.7.7-1.5.9-2.2h0Z"/>
  <path class="cls-1" d="m1153,8.7h.3v-.2h-.4c0,.1,0,.2.1.2Z"/>
  <path class="cls-1" d="m1157.8,8.2h0c-.2-.1-.4-.2-.6-.3-.1.1-.2.2-.2.2.2.1.4.2.7.3,0,0,.2-.1.1-.2Z"/>
  <path class="cls-1" d="m1157.8,3.1h0c-.3.1-.7.2-1,.4.5.2,1,.3,1.5.5.2,0,.5-.1.7-.2-.4-.3-.8-.5-1.2-.7Z"/>
  <path class="cls-1" d="m1213.9,4.2c.2-.6.3-1.1.3-1.7s-.6-1-1.5-1.2h-.5c-.4,0-.8.1-1.1.2-.9.6-1.1,1.3-.4,2,.8.7,2.1,1.1,3.2.7Z"/>
  <path class="cls-1" d="m1162.2,8.1c.1.4.4.7.8.8,1.8.3,3.7.1,5.3-.6l-.2-.6h0c-1.3,0-2.7-.1-4-.1h-1c-.4,0-1,.3-.9.5Z"/>
  <path class="cls-1" d="m1151.1,5.8c-.1,0-.1.3-.2.4.3.1.5.1.8.1.1,0,.1-.3.2-.4-.2,0-.4-.1-.6-.1h-.2Z"/>
  <path class="cls-1" d="m1156,5.9c.1-.1-.2-.3-.3-.4l-1.3.5.7.4c.4-.1.6-.3.9-.5h0Z"/>
  <path class="cls-1" d="m1162.7,3.9l3.4,2.2c.5-.1,1.1-.3,1.5-.5.3-.2.4-.6.2-1-.3-.5-.9-.8-1.4-.9h-.5c-.8-.1-1.8.1-3.2.2Z"/>
  <path class="cls-1" d="m129.5,20.4q.2.1,0,0h0Z"/>
  <polygon class="cls-1" points="1640.8 29.4 1640.7 29.3 1640.7 29.4 1640.7 29.4 1640.8 29.4"/>
  <path class="cls-1" d="m1642.9,29.4h-2.1c.6.4,1.4.4,2.1,0Z"/>
  <path class="cls-1" d="m353.7,33h-.1c-.5,0-.9.1-.7.6.8,0,1.6-.1,2.3-.1h2.3c0-.1,0-.2.1-.3-1.4,0-2.6-.1-3.9-.2h0Z"/>
  <polygon class="cls-1" points="380.2 32.2 380.3 32.1 380.3 32.1 380.2 32.2"/>
  <path class="cls-1" d="m372,32.5h-.3c-.1,0-.1.2-.1.2.2.1.4.1.6.2.1-.1.1-.2.2-.4h-.4Z"/>
  <path class="cls-1" d="m378,35.7c-.1-.2-.5-.2-.9-.2s-.7.1-.8.2c-.1.2.2.5.4.8.1.1.4.1.7.2.1,0,.3-.1.3-.1.1-.4.4-.7.3-.9h0Z"/>
  <polygon class="cls-1" points="377.8 34.2 378 34.2 378 34.1 377.8 34.2"/>
  <path class="cls-1" d="m1244.9.4l.7.1c.1-.1.1-.3.1-.4h0c-.1,0-.2-.1-.3-.1h-.1c-.1.2-.3.3-.4.4Z"/>
  <path class="cls-1" d="m1216.4,6.5c.5-.3,1.8-.5,1-1.3-2.1,0-4.3.1-6.5.1s-3-.6-2.9-1.8c0-.4,0-.9-.1-1.3l-.4-.7-1,.4-4.5-.6c.7.7,1.3,1.5,1.8,2.3.3.6,0,1.2-1.7,1.3-.3-.7-.6-1.3-.9-1.8-.5-.5-1.2-.7-1.9-.6-.8.3-.8.7-.6,1.2.2.6,1.7,1.2.8,1.8-1.5.1-2.9.1-4.2.3-1.3.3-2.7.1-3.8-.6l-6.7.9c.1.6.2,1.3.4,2,1.9.5,3.6,0,5.3-.1,1.2-.1,2.2.1,2.5.9.2.3.4.7,1.5.5,0-.5.1-1.1.2-1.7l4.3.3h.1-.1c1.8-1.1,4.1-1.3,6-.4h-.1.1c1.1-.3,2.3-.5,3.4-.8,2.5-.6,5.3-.7,8-.3Z"/>
  <path class="cls-1" d="m1230.2,3.5c1.4.4,2.9.5,4.4.2-.6-.4-1.2-.6-1.9-.6-.9.1-1.7.2-2.5.4Z"/>
  <path class="cls-1" d="m1238.4.6l-4.4-.1c1,1.2,1.1,1.2,4.4.1Z"/>
  <path class="cls-1" d="m1187.7,2.1h0c-.4,0-.7-.1-1.1-.1-1.6,0-2.8.5-2.9,1.2-.1.7.9,1.1,3.4,1.3.1,0,.2-.1.5-.2l-1.4-1.2c1-.3,2.1-.2,2.9.4.8.5,1.5,1,2.3,1.6h.1-.1c-.2-2.1-.9-2.7-3.7-3Z"/>
  <path class="cls-1" d="m1243.8,9.8h-.5c.1,0,.2,0,.2.1.1,0,.2-.1.3-.1Z"/>
  <path class="cls-1" d="m1196.2,3.7c.5-.5.2-1.3-.7-1.7h0c-.4-.2-.8-.3-1.2-.3-.5,0-.9.1-1.3.4.1.8.9,1.3,2,1.7.4.1.8.1,1.2-.1Z"/>
  <path class="cls-1" d="m1662.8,104.4c.2,0,.4,0,.6.1l-.2.2h255.7V30.5c-1-.4-2.1-.7-3.2-.9-3.2-.6-6.5-.9-9.7-1.1-3.1,0-6-.4-9-.7-3.8-.5-7.6-.8-11.4-.7-4,.2-7.9.5-11.9.7-.6,0-1.3.2-1.8-.2l1.7-1c-1.3-.2-2.6-.3-3.9-.3-3,.1-5.4-.5-7.1-2-1-.9-2.3-1.5-3.7-1.6-2.7.5-5.6.7-8.1,1.7-1.2.5-1.9.3-3.4-.8-1.5.3-2.9,1-4,2.1-.4.3-.8.4-1.2.5-.2,0-.5,0-.7-.1s-.3-.3-.3-.4c.7-1,1.5-1.9,2.3-2.8.5-.3,1-.5,1.6-.5,1,0,2,.1,3.1.3-.5-.6-1.3-.9-2-.9-2.8-.4-5.5-.9-8.5-1.4-1.3,1-2.9,1.5-4.6,1.6-2.8.3-5.7.5-8.5.8h-.4c-3.2,0-6.3.2-9.4.5-4.4.4-8.9.8-13.3,1.2-.8.1-1.6.3-2.3.5.9.7,1.7,1.3,2.4,1.9.1,0,.2.1.3.1-.3.6.2,1.1.6,1.5.3-.1.5-.1.8-.1.3.1.5.2.8.3-.3.1-.6.2-1,.2-.3-.1-.7-.2-1-.3-2.2.2-4.4.4-6.7.6-2.3.2-4.6.4-6.9.7v.3l3.8.5-3.3.6,2.2,1.2c-.5.3-1,.6-1.5.8-3,.6-6.1.9-9.1.8.8-.2,1.2-.3,1.7-.4.9-.2,1.8-.3,2.7-.4,1.4-.2,2.2-.6,1.8-1-.6-.6-1.6-.4-2.5-.3-.7.1-1.3.2-1.9.2-2.2.2-4.4.1-6.5-.3l2-.6c-.3-.1-.6-.2-.9-.3-3.4-.4-6.8-.6-10.1-1.1-2.7-.4-5.5-.4-8.3-.1-.8.1-1.6.1-2.4,0-1.7-.3-3.4-.4-5.1-.4-4.7-.4-9.4-.9-14.2-.4h-.8c-2-.7-4.4-.5-6.5-.8-4.1-.8-8.2-.4-12.1.9-1.8.6-3.8.8-5.7.5-.2-.5-.4-.9-.6-1.3-4.8-.4-9.6-.3-14.4.3-.3,0-.5.1-.8.1-4.5.3-9,.3-13.5-.1-1.2-.1-2.3-.4-3.5-.5-1.3-.1-2.6,0-3.9,0,.1-.7,2.3-.3,2.1-1.3-3.1.3-6,.6-9.1.8-3.1.2-6.4.7-8.8-1.1-1.7.2-3.3.4-4.8.5-.6.1-1.3.2-1.9.1-1.9-.5-3.8-.7-5.8-.6h-2c-.9.1-1.7-.1-2.5-.6-1-.9-2.5-.7-3.9-.5-1,.1-2,.5-3,.5-2.7.1-5.4-.1-8.1-.6l4.6-.7c-3.1-.4-6.3-.3-9.4.3-2.3.4-4.7.3-7.1,0-1.6-.3-3.2-.4-4.8-.3-1.7-2.1-1.4-1.9-4.7-1.7-.3,0-.6,0-.9-.1-.2-.2-.4-.3-.5-.5-1-1.1-1.3-1.1-2.8-.3-.4.2-.7.5-1.3.2,0-1.1,0-1.2-1.9-1.4h0c-.4.4-.5,1-.3,1.5-.3-.1-.6-.2-1-.3-1.8-.4-3.6-.8-5.4-1-3.8-.4-7.6-.6-11.4-.8-5.2-.4-10.3-.7-15.5-1-.9-.1-1.8.1-2.7.1,0,.7.6.8,1.3.8,1.6.2,3.2.3,4.8.4.7.1,1.3.3,1.3.8s-.5.7-1.2.8c-2.6.3-5.1.5-7.7.4-3.6-.4-7.3-.4-10.9.1h-1.2c-2.6.2-5.1.2-7.7.5-2.6.2-5.2.2-7.7,0h-.4c-2.2.3-4.5.4-6.8.2-2.2-.2-4.4-.1-6.6.2-.3,0-.5,0-.8-.1q-3-.2-5.1,1.2-3-1.2-8.3-.6c.2.2.4.3.7.6l-6.1.2c-.2-.5,1.5-.2.7-.9-1.5,0-3.1.3-4.5.8-1.3.5-2.7.3-3.8-.4-.6.6-1,1.4-2.6,1.3-.2,0-.5.3-.7.5-.7.7-1.2.8-1.9.3-.9-.6-2.1-.9-3.2-.8-1.4,0-2.7.1-4.1,0-1.6-.2-3.1.1-4.5.8-.5.3-1.2.5-1.8.5-6.3,0-12.6.1-18.8-.1-2-.2-4-.2-6,.1h-1.6c-2.4-.1-4.9-.3-7.3-.3-1,0-1.9.1-2.9.1-1.3.1-2.6.1-4,.1-.8,0-1.6,0-2.4.1-1.4.2-2.9.1-4.3-.4-.2-.1-.8.1-1.2.1-3.1.1-6.2.6-9.3-.2-.4-.1-.8-.1-1.2,0-.9.2-1.9.2-2.9.1-.8-.1-1.6-.1-2.4.1-1.8.4-3.7.3-5.5-.1-.5,0-1.1,0-1.6.2-1.8.4-3.8.4-5.6,0-.5-.1-1.1-.1-1.6-.1-2.5.1-5.1.5-7.5-.3-.6-.1-1.3-.1-1.9.1-2.4.8-5,.7-7.3-.2-1.2.5-2.3,1-3.7.4-.4-.1-.7-.2-1.1-.3-1.2-.4-2.6-.4-3.8.2-.4.1-.8.2-1.2.3l-3.5-.7-3.1.8-1.7-1c-2.2.2-4.2.5-6.2.6-1.8.1-3.9.4-5.3-.7-.5,0-.9,0-1.4-.1-1.1-.3-2.3-.1-3.2.5-.8.5-1.8.5-2.6.1-1-.4-1.8-.9-2.9-1.4,0,.7.1,1.1-1,1.3-2.4.5-3.3-.7-4.6-1.5-1.2.4-2.5.8-3.8.9-1.2-.1-2.4-.3-3.5-.6l-6.4.9-1.5-.8c1.1-.5,2.4-.6,3.6-.5,1.2.1,2.6-.5,4-.8l-2.8-1.6c-1.2.3-2.7.5-4.1.9-1.1.3-2,.8-3.1,1.2-.8.3-1.5.6-2.3.8-.9-.2-1.7-.5-2.5-.9l-6.7,1.4c-.1-.1-.2-.1-.2-.2.8-1.8,1.8-2.2,4.9-2.2.7.1,1.5,0,2.2-.2,1.3-1.1,3.4-1.3,5.1-1.9,1.2-.4,2.3-.9,3.5-1.3-.9-.4-1.9-.5-2.9-.2-2.3.3-4.6.8-6.9,1-5.1.6-10.2,1.6-15.2,3-1.2.3-2.7.5-4,.7l-2.4-2.6,4.9-1.6h-4l-.9-1.1-23,3.3c.2-.8.3-1.5.5-2.2.7-.3,1.4-.7,2.1-1s1.6-.6,2.4-.8,1.7-.5,2.6-.7,1.8-.4,2.6-.6c.7-.2,2-.1,2-1-1.1,0-2.2.2-3.2.4-2.6.8-5.4,1.3-8.1,1.3-1.5.1-3,.3-4.5.8-3.2,1.2-6.7,1.3-10,.3,1.5-.9,3.5-.7,5.1-1.2-1.6-1-3.6-1.4-5.4-1-1.1.2-2.2.2-3.3.2-1.6,0-3.1.1-4.7,0-.3,0-.6-.3-1-.5l3.5-1c-.6-.3-.9-.5-1.2-.7-.1,0,0-.2.1-.2.3-.1.5-.2.8-.2h7.5c.3.5.7.9,1.2,1.2.5.3,1,.5,1.6.5,1.9-.5,4.4-.2,6.3-1.3l-1.9-.8c1.2-.5,3.1-.1,4.2-1.3-2.9-.2-5.9-.1-8.8.2-2.6.3-5.3.4-8,.3,1-.5,1.4-.8,1.8-.8,1.6,0,3.1-.1,4.6-.4,1.2-.2,2.5-.4,3.7-.4,2.6-.1,5.1-.5,7.6-1.3-3.1-.4-6.2-.2-9.2.5-1.7.3-3.4.5-5.1.5-3.6.2-7.3.3-10.9.5-1.3.1-2.5.1-3.8.1-.6,0-1.3-.1-1.1-.7l8-1.2h.2-.1v-1.4c-1.6,0-3-.1-4.3-.1-2.4,0-4.7.1-7.1.1-.9.1-1.9,0-2.8-.2-1.8-.5-3.6-.7-5.4-.7h0c-2.5-.1-5-.3-7.4-.4l-2.2,1.2c-1.9-.6-3.9-.7-5.8-.4-1,0-2.1,0-3.1-.2-.4.3-.7.7-1,1.1-.3.5-.9.6-1.7.7l-3.3-1.5c-1.8.4-1,1.5-1.7,2.4l-5,.1c-1-.9-1.7-2-4-1.5-.5.1-1,.3-1.5.5l1.6,1.3c-2.3.7-3-.8-4.7-.9l-.5,1.4-2.9-.1c.2-.5.3-.8.4-1.2.3-.9-.7-1.1-1.9-1.1-.5.6-1.3,1-2.1.8-1.4-.1-2.7.1-4,.7h0c-.4-.1-.9-.2-1.3-.2-2.2-.1-2.1-.1-2.9,1.1-.3.5-.7.8-1.2,1-1.5.4-1.9,1-1.7,1.9.1.6-1.2.8-2.1.4-.4-.2-.9-.5-1.3-.8l-4.1,1.9c0,.5-1.6.8-.3,1.5l3-.6c.4.5.8,1.1,1.1,1.7.2.7.3,1.4.3,2.2,1.9-.2,3.8-.5,5.6-1-.5-.5-.9-1-1.2-1.6-.5-1.3.3-2,2.7-2.3.3,0,.6-.1,1,0h.4q-1.2,1.7,1.1,2.7h.1-.1l2.2-.8q3.2,2.1.4,4.3c-1.5-.3-3-.5-4.5-.6-1.7.1-3.4,0-5.1-.2-.3,0-.6.1-.8.2-1.9,1.1-4.9.6-6.9,1.6-.7.3-1.5.3-2.3.1-1.7-.6-2.9.2-4.6.4-.1-.8-.2-1.4-.2-2.2,2.7-.5,5.5-.3,8.2-.9-1-.6-1.9-1.3-2.6-2.1-.5-.7-.2-1.5-.3-2.3q-2.8-.4-5,.6c1.5.8,2.7,1.8,1.7,3.1l-3.5.9c-.2,1.1-.4,2.1-.6,3-2.3.8-3.5-.6-5.4-.6l-3.6,1.5c-1.4.6-3,.6-4.4,0-.8-.3-1.5-.6-2.4-.9l-4.2,1.6-7.2-1.4c-.7.3-1.5.5-2.2.7-1.4.2-2.8,0-4.2.2-1.5.2-2.8.9-4.2,1-4.4.3-8.8.5-13.2.6h-1.7c-1.3-.1-2.6,0-3.9.4-.6.1-1.2.1-1.8,0-1.9-.3-3.7-.6-5.3.3-.6.2-1.2.2-1.8.1-2.1-.5-4.3-.4-6.4,0-1.9.6-4,0-5.4-1.4-.3-.3-.6-.5-.9-.7-2.5.3-.9,1.8-2.4,2.3-.3,0-.5.1-.8.1h0c-2.1-.3-4.2-.4-6.4-.4-1.6-.3-3.2-.3-4.8-.1-.8,0-1.6-.1-2.4-.2-.9-.1-1.9-.1-2.8,0-.6,0-1.2.1-1.7.3-.3-.1-.6-.2-.9-.4-1.4.3-2.9.6-4.4.7h-1.5c-3.1-.3-6-.3-9-.4h-1.9c-2.2-.2-4.5-.2-6.7,0-.4,0-.8-.1-1.2-.2,3.1,0,6-.9,9.2-.5,2,.2,4.1.2,6.1-.1,2.6-.4,5.3-.6,8-.6.8,0,2,.1,2.3-.8h-3.8c-2.8-.1-5.7-.3-8.5-.4-3.9-.1-5.9-1.8-8.5-3.1-.9-1.8-3.5-2.4-6.2-3.1l1.1,1.2h0c-.4.1-.9.2-1.4.2-.8,0-1.6-.2-2.3-.7l2.5-.7-.3-.1h.3c.2-.2.3-.4.4-.6-.2-.1-.5-.1-.7-.1-.2.2-.4.3-.5.6-1-.3-2-.5-3.1-.6-1.2-.2-2.5-.1-3.7.1-2.2.6-4.6.7-6.9.3-2.6-.3-5.3-.6-8-.8s-5.4-.3-8-.4c-1.9-.1-3.8,0-5.7-.1-3.8-.2-7.6-.4-11.3-.7-1.2,0-2.4-.2-3.6-.5-3.3-1.9-7.5-1.6-11.6-1.8-.6.1-1.1.2-1.7.3,3.3,1.1,7.3.2,10.5,1.9-1.2.3-2.4.4-3.7.3-.7-.1-1.5-.1-2.2,0-1.7.2-3.4.3-5.2.4h-5.6c-1.8.1-3.6.2-6.1.4l3.7,1.6c-3.2.2-6.2.5-9.1.6-2.2.1-4.4.1-6.6.2-3.7.1-7.4.8-11.1-.2-.5.1-1,.2-1.4.4l3.3,1.1-.3.4-8.6-.6c-.5-.3-1-.7-1.5-1.1l-.4.3c-.6-.5-1.3-.8-2.1-.6v1.1c-1.3.4-2.8.6-4.2.4.5-.1,1-.3,1.5-.4.1,0,.1-.2.1-.4-1.1-.2-2.3.1-3.2.7-2.5-.1-5-.2-7.5-.3-2.5-.1-5.1-.1-7.6-.3-2.7-.2-5.4-.2-8.1,0-4.2.4-8.5.3-12.7-.4-2.5-.4-5-.6-7.5-.5-4.1.1-8.2.2-12.3.1-3.1-.1-6.2-.1-9.3-.1h-5.7c-1,0-2,0-2.9-.2-.9-.3-1.7-.7-2.4-1.2l-3,1.2c-1.5-.2-2.7-.3-4-.4-7-1-8.2-1-16.1-.1h-1.9c-4.1-.1-8.2-.2-12.3-.3-.1,0-.2,0-.3.1-.1,0-.1.1-.1.1v1.9c.7.2.8.4-.1.6h.1-.1c-1.4.4-2.8.7-4.3,1-1.8.2-1.7,1.5-3.4,1.8-.3,0-.6.2-.9.2-1,.2-2,.7-2.8,1.4-.6.5-1.4,1-2.2,1.5-1.5-.4-3.1-.4-4.2-1,1-.3,2-.4,3.1-.3,1.4.2,2.8-.1,4-.8l-1.9-.8h-.1l-2.9-.8c-.7.3-1.3.6-2,.8-.5.2-1.1.6-1.7.2-.6-.3,0-.7.3-1,.2-.2.2-.4.3-.7-1.4.2-2.5.3-3.6.4-1.3.1-2.7.1-4,.2-1.3,0-2.6.4-3.6,1.2l-3.6-.9c-2,1-4.3,1.2-6.6.8-1.3-.9.8-1.4-.2-2.2-1.5.2-1.8,1.1-2.6,1.6-1.3.8-2.8,1.1-4.3.7-2.6-.8-5.4-.7-8.1-1l-1.8-1.1c-2.5.5-4.8,1.9-7.3.3q-1.9,1.8-4.9,1.4c-.7-1,1.7-1.2,1.9-2.2-.6-.2-1.3-.2-1.9-.2-2.1.4-4.2.5-6.2.1-3-.4-6.1-.4-9.1-.2-1.4.1-2.9.1-4.3,0-3.4-.1-6.9-.1-10.3-.2-2,0-3.6.4-4.6,1.4-.3.1-.5.1-.8.1-.1-.5-.2-1-.3-1.6-2.6-.3-5.3-.2-7.9.1-.7.1-1.4.4-2,.7-.5.2-1,.5-1.5.7h-.8c.1-.4.3-.8.5-1.3-.9-.1-1.5-.2-2.1-.2-2.7,0-5.5.4-8.1,1-1.6.5-3.3.7-5,.5l.1-.6c-2.2-.5-4.4-.6-6.6-.3-2,.3-3.9.2-5.9,0-3.5-.5-7.1-.5-10.6,0-1.2.1-2.3.1-3.5.1h-13.4c-3.4-.3-6.9-.2-10.3.1-.8.1-1.6.1-2.4,0-1.4,0-2.9-.1-4.3,0-2.6.2-5.3.1-7.9-.2-2.1-.3-4.2-.3-6.3,0-1.2.2-2.3.2-3.5,0-2.6-.5-5.2-.5-7.8,0-.9.2-1.8.2-2.7.1-3.2-.6-6.5-.7-9.7-.4-.9.1-1.9.1-2.8.1-1.6,0-3.2.1-4.8.1s-3.1.2-4.7.3c-1.8.1-2.1,1.3-4,1.6-.2-.5-.4-1-.6-1.5h-6.5c-2.7,0-5.3.2-8,.2-2,0-3.3.4-3.8,1.6-.1.3-.5.6-.8.9-2.3-.2-2.5-1.5-4-2l-2.2.1c-.2-.2-.4-.4-.6-.7-.2-.3-.3-.5-.6-1.1l3.4,1c-.1-.8-.4-1.5-.7-2.2-.1-.2-.9-.4-1.4-.6-.7.6-1.4,1.1-2.1,1.5-1.4.8-3.1,1-4.6.4-2.4-.8-4-.7-7.5-.1l4.4.7c-2.1.5-4,1-5.9,1.5-.5.1-1,.1-1.6.1-4.1,0-8.1.3-12.1.8-1.5.4-3.1.2-4.5-.3-1.1-.4-2.3-.5-3.4-.2-1.4.3-2.7.6-4,1-5.1,1.6-10.5,1.9-15.7,1-.2,0-.5-.1-.7-.1l.1-.7c-.8-.3-1.7-.7-2.6-1-1-.3-2.1-.3-3,.1-1,.3-1,.8-.7,1.4.1.1-.1.3-.2.4-1.8.7-3.6.2-5.4.1-1.6-.2-3.3,0-4.8.7-.2,0-.5,0-.7-.1-.3-.5,1-1.1-.1-1.7h-1.9c-.9,0-1.8.1-2.8.1-1.1,0-1.4-.4-1.1-1.3v-.4c-2.2-.3-3.6.9-5,1-1.5-.4-2.6-.7-3.7-.9-1.1-.2-2.3-.4-3.4-.5-2.3-.3-4.6-.7-7-.9-1,0-2,0-3,.1-.4,1.1-1.2,2-1.3,3.1-2.1.2-4.2.5-6.2.7-1.5-.5-2.9-1.2-4.9-.6l-3.6-.8c-1.1.4-2.2.6-3.4.8-2.4.2-4.8.3-7.2.4-2.8.1-3.7-.3-4.6-1.9-.1-.1-.1-.3-.2-.4-.3-.2-.7-.3-1.1-.3-.3,0-.7.3-.7.4.1.8.2,1.5.4,2.3-.4.1-.9.1-1.3.1-1.3-.6-2.8-.7-4.2-.3-1.7.3-3.4.2-5-.4-.2-.5-.4-.9-.6-1.4-.4-.4-1.1-.5-1.7-.2-.4.2-.8.4-1.1.7.4.4.7.8,1,1.3-1.8.1-3.4.3-5.1.2-1.5-.1-3-.7-4.3-1.6l-1.9,1.6-1.6-1c-2.6.6-5.3.4-7.9.5-.4-.6,1.5-1,.2-1.5q-3.5,1-8.4,1.1h-1.7c-1-.3-2-.7-3-1.2-1.2-1-2.8-1.1-4.7-.9-.6.6-1.2,1.2-1.9,1.8-.5-.1-1-.2-1.5-.2-1.9.3-3.3.2-4.5-.8-1.1-.7-2.4-1-3.6-.7-.8.1-1.6.1-2.3-.1-1-.2-2.1-.3-3.1-.3-.3-.5-.8-.8-1.3-.7-.9-.1-1.9,0-2.8.1-2.2.3-4.4.3-6.5,0-3.5-.3-7.1-.4-10.6-.1-1.9.1-3.8,0-5.6-.4-.9-.2-1.8-.3-2.7-.2-1.5.3-2.9.3-4.4.2-1.2-.1-2.4-.1-3.6,0-1.4-.3-2.9-.4-4.4,0-1.2.1-2.4.2-3.6.3-.2-.4-.3-.8-.5-1.3-.8,0-1.7.1-2.4.1-1,.1-2,0-3.1,0-1.1-.1-2.2-.1-3.4,0-1.6-1-3.5-.4-5.3-.3h-1.9l-1.4-1.2c-.8.2-1.4.3-2,.5-1.6.4-3.2.5-4.8.4-2-.1-4.1-.2-6.1-.2h-2c-2,.1-4.1,0-6.1-.5-.4-.1-.8-.1-1.2-.1-3.8,0-7.7.1-11.5.1-3.4.1-6.8.2-10.2.2-.9.1-1.9,0-2.8-.2-1.3-.3-2.7-.3-4-.1-1.1.1-2.2.2-3.2.3-1.1.2-2.3,0-3.4-.5-.4-.2-.9-.3-1.4-.3-1.4,0-2.8.2-4.2.4-1.5.3-3,.4-4.5.4-2.7,1-5.7.7-8.7.8-.1,0-.2-.2-.4-.4l2.8-.7c-1.3-.1-1.8-.1-2.3-.1-1,.1-2,.4-2.8.9-1.6.7-1.9.7-4.7.3q.9-.5.9-1.9h-1.2c-.4,0-.8,0-1.2.1-1.6.2-1.7.3-2,1.4-.1.2-.1.4-.2.6-1.1.2-2.2.4-3.2.5-.6,0-1.2,0-1.8-.2.4-1.1,1.5-1.7,2.6-1.7.2,0,.3-.3.5-.5q-5-.1-7.2,1.1c.7.9.7,1.2-.5,1.5s-2.4.4-3.5.2c-.1-.1-.2-.1-.2-.2-.3-1.5-.5-1.7-2.8-1.6-1.3.2-2.6.1-3.9-.2h-.1.1c-1.3.1-2.7.2-4,.4-.7.1-1.2.4-1.1.9.1.3.3.6.6.8.6.3,1.3.2,1.8-.1.4-.2.9-.6,1.1-.6,1,.2,1.9.2,2.9.1.5,0,1-.1,1.5,0,.6,0,1.3.3,1.2.9-3.4,1-6.8,1.5-10.3,1.6.1-.2.2-.4.2-.6,0-.1.1-.4,0-.4-1.7-.4-1.7-1.6-3.2-2.2-2.1-.1-4.4-.1-6.1-1.2-.8-.4-1.8-.2-2.5.4-.8.8-2,1-3.4,1-.5,0-1.1,0-1.6.1h-.1l-5-.6c.1-.1.1-.3.3-.7-1.7,0-3.3.1-4.9.1-.8,0-1.6.1-2.3.2-.1.5-.1,1-.1,1.5-1-.2-1.7-.4-2.4-.6-2.4-.7-4.9-.9-7.4-.7-6.9.4-13.9.7-20.8.8-7.9.1-15.8.7-23.6,1.6-4.4.5-8.9.8-13.4.9-.9,0-1.9,0-3.1.1l1.8.6c-1.6.6-3.3.9-5.1.9l-.9-.8c-1.3,0-2.5.2-3.7.6-.7.2-1.4.1-2-.1-.7-.2-1.4-.2-2.1-.1-.5.2-1,.2-1.5.4-.9.3-1.8.4-2.7.5-1.9.1-3.8.6-5.5,1.4-1.1.5-2.2,1-3.4,1.2-3,.5-6.1.8-9.2.8-2.7,0-5.1.3-7.3.9v3.2c.9-.1,1.7-.1,2.6-.2,1.7-.2,3.5-.1,5.1.4.5.2.9.5,1.3.9-2.8.8-5.9.4-9,.6v1.1c3.2-.1,6.3-.2,9.5-.3,1,0,1.9-.1,2.5.7-.6.6-1.3,1.2-1.9,1.9-1.1,1.1-2.6,1.9-4.1,2.2-1,.3-2.1.7-3.1,1.1-.8.3-1.2.8-.9,1.4.9.2,1.8.3,2.8.5-.4.8-.8,1.6-1.1,2.3.9-.1,1.8-.2,2.8-.2s1.5.9.8,1.3c-1.2.6-2.4,1.2-3.8,1.9-1.1-1.1-.4-2,.3-2.9-1.6.9-2.7,2-3.6,3.1v57.4h1662.3c.1-.1.2-.2.3-.3Zm156.6-80.8c.3,0,.7,0,1,.1,0,.1-.1.2-.1.2h-1.1c.2-.2.2-.3.2-.3Zm11.2.6c-1.4.2-2.8.4-4.2.5-1.8.1-3.5.4-5.2,1h0c-.4.2-.8.2-1.3.2-.6,0-1.2-.2-1.7-.5,3.8-1.5,8.1-1.4,12.4-1.2Zm-19.3,2.8h0q-.1,0,0,0h-.3v-.1h.3s0,.1,0,.1Zm-3-2.5c.9,0,1.8,0,2.7.1h0c.2.6-.4.8-1.1.8h-.3c-.7-.1-1.4-.2-2.1-.4.3-.3.6-.5.8-.5Zm-5.3,2.4c-.4,0-.7-.1-1.1-.2.2-.5.4-1,.7-1.6.7,0,1.3,0,2-.2.9-.2,1.9-.2,2.9,0,.2.6.3,1.3.5,2h-3.2c-.6,0-1.2,0-1.8,0Zm-4.6,2.5c-.6.4-1.3.6-2,.5h-.7c.8-.4,1.8-.6,2.7-.5Zm-59.2,10.8l-.3-.1.3-.1v.2Zm23.1-4.1l.2-.1.1.1h-.3Zm5.2-.7c0,.1.1.1,0,.2h0c-.2.1-.3.2-.5.2l.5-.4Zm-1.3.6h.6c-.2.1-.3.1-.5.2h-.3c.1-.1.1-.2.2-.2Zm-30.4-.9c3.1-.5,6.1-.9,9.2-1.3.9-.1,1.8-.1,2.7.1,3.5,1.1,7.3,1,10.7-.4l6.6.5c-.6.2-1.2.4-1.9.6-1.6.3-3.4.2-4.8,1h0c-.3.1-.5.2-.8.1h-.3c-2.4-.5-4.7.1-7.1.1-3.4.1-6.9.1-10.4.2-.8,0-1.6-.1-2.4-.2-.6-.1-1.2-.2-1.8-.3.2-.3.2-.4.3-.4Zm-2.8,2.6c.4,0,.8.1,1.1.2-.3.2-.6.3-.9.4h-.1c-.3,0-.6-.1-.8-.2.3-.1.4-.3.7-.4Zm-473.2-23.9h0c-.7.4-1.4.6-2.2.6-.5,0-1.1-.1-1.6-.3,1.2-.5,2.6-.6,3.8-.3Zm-89.3,1.4h0q-.1.1-.2.2l-1.4-1.4,2.2.3c-.3.3-.4.6-.6.9Zm.3-3.7h-.1l1.9-.8c-.2.3-.4.8-1.8.8Zm-143.5,11.8c.2-.1.4-.2.6-.3.2.1.3.2.4.4.1.1-.3.3-.5.4h0c-.2.1-.4.1-.7.1s-.7-.1-.9-.3c.3-.1.7-.2,1.1-.3Zm-2-.7c0,.1.1.1.1.2v.1l-.4-.3c.1-.1.3-.1.3,0ZM3.2,49.4v-.2c.1,0,.2-.1.3-.1s.1.1.2.1l-.5.2Zm16.6-18.1v-.1h1.3v.1h-1.3Zm3.3-4.7h0c-.2,0-.4-.1-.6-.1.2-.1.4-.1.6-.2.1,0,.2,0,.3.1-.1.1-.2.2-.3.2Zm72.3-6.4h0s-.1-.2-.2-.3h.7c.1,0,.1.1.1.2-.1,0-.3,0-.6.1Zm8.4,2.4h0c-.3.3-.5.5-.8.7l-.6-.2c.2-.3.5-.5.7-.7h.7s0,.1,0,.2Zm2.7,1.9h0c-.3,0-.5-.3-.7-.4.2-.1.4-.3.6-.3.4,0,.8.1,1.2.2-.4.3-.8.4-1.1.5Zm2-4h0c-.3.4-.7.6-1.1.6h-.4c-.1,0-.2-.1-.2-.2-.1-.5.4-.7,1.1-.8h.7c-.1.2,0,.3-.1.4Zm4.5,6.1l.2-.1v.1h-.2Zm10.4-7l-1.5.3c0-.1-.1-.2-.1-.3h1.6Zm-3.4,4.2c-.4.1-.8.1-1.2.1h-.7q1.2-1,3.1-.9h0c-.4.3-.8.6-1.2.8Zm1.3-.9h1.6c-.3.1-.5.2-.8.2-.3,0-.6-.1-.8-.2Zm16.2,0c-1.3.5-2.7,1-4,1.5-2.3.9-4.7,1.8-6.8,2.9h0c-.7.4-1.4.5-2.2.5-.4,0-.8,0-1.2-.1-.3-.9,1.8-.8,2.1-1.5.2-.6,1.5-1,2.5-1.7-.8-.2-1.7-.3-2.5-.3-.6,0-1.2,0-1.8-.1-.6-.4.2-.5.3-.8.2-.4-.2-.5-.8-.6l4.1-.9c.2-.4-.4-.5-.9-.6-2-.2-4-.1-6,.4-1.5.5-3.2.3-4.6-.5,1-.7,2.3-1,3.6-.7,3.3.6,6.7.5,10-.3h.4l-.3-.1h0c1.2-.8,2.7-.4,4.1-.3l2.4,2.2,2,.2c-.3.5-.3.7-.4.8Zm164,11.3l.1-.1.2.1h-.3Zm1.5-1.4v-.1l.3.1h-.3Zm6.7-9.9h0s-.2-.1-.2-.2c.1-.1.2-.2.4-.3l.4.3c-.2.1-.4.2-.6.2Zm3.8.1c.1-.1.3-.2.4-.3l.3.1c0,.1-.1.2-.2.3-.2,0-.3-.1-.5-.1Zm3.6-.5h0c-.2,0-.4-.1-.6-.2-.1-.1.1-.2.3-.3.2-.1.4-.1.6-.2,0,.1.1.3.1.4-.1.2-.2.3-.4.3Zm15.8,12c-.7,0-1.4-.1-2.1-.3l4.7-.2h0c-.9.3-1.7.5-2.6.5Zm59.6-5.7c.6-.2,1.2-.1,1.7.4-.1.1-.1.3-.3.4h0c-.2.1-.3.1-.5.1-.4,0-.8-.1-1.1-.5-.1-.1,0-.3.2-.4Zm-.4,1.8c.6-.2,1.2-.3,1.8-.2.3,0,.6.2.8.4.1.2,0,.5-.2.6h0c-.7.5-1.6.7-2.5.7-.5,0-.9-.1-1.4-.2.5-.5,1-1,1.5-1.3Zm-5.7-1.6c.3,0,.7.1,1,.3.1.1-.2.5-.4.5h0c-1,.1-2.1.1-3.1.2.6-.6,1.5-.9,2.5-1Zm-3.9-.2l.3.1v.2c-.1,0-.2.1-.3.1-.1-.2,0-.3,0-.4Zm-9.8,1.2h.3v.1h-.3c-.1,0-.1-.1,0-.1Zm-35.8-6.8c.3,0,.6.2.8.4h0c0,.1-.4.3-.7.6-.4-.2-.8-.4-.8-.5s.4-.5.7-.5Zm-.3,9.8h0c-.2,0-.3-.1-.5-.3.2-.2.4-.3.6-.4l.6.3c-.2.2-.4.3-.7.4Zm3.1,4v-.1h1.4v.1h-1.4Zm2.7-2.8l-5,.1,5.6-1.8c-.2.8-.4,1.2-.6,1.7Zm2.8-3.3l-3.8.1v-.2l3.8-.1v.2Zm1.2,1.8s.1.1.1.2h0s-.1.1-.2.1l-.2-.3h.3Zm2.1,3.6c.3-.1.7-.1,1-.1.6.1,1.1.2,1.7.5-.4.1-.8.2-1.2.2-.6.1-1.1-.2-1.5-.6Zm10.6,1.1h0c-.5.4-1.2.6-1.9.6-.3,0-.7,0-1-.1-.9-.2-1-.7-.6-1.3.8-.1,1.6-.3,2.5-.3.4,0,.9.1,1.2.4.3.1.1.5-.2.7Zm-2-3c-3.3.1-6.7.2-10.9.3,1.9-.8,3.7-1,4.1-2,.1-.2.9-.3,1.3-.4,1.1-.3,2.2-.5,3.5-.8.4.3.9.6,1.4.8h0c.2,0,.3.1.5,0,.5,0,1-.1,1.5-.1,1.3,0,2.6-.6,4.5.2l-2.9.4c-.6,1.4-.7,1.5-3,1.6Zm6.9,2.3h0c-.4.3-.8.4-1.3.5-.3,0-.7-.1-1-.2l2.8-1.5c.1.7.1.9-.5,1.2Zm3.2,1c-.3,0-.5-.1-.8-.2h1.6c-.3.1-.5.2-.8.2Zm10.8,1.3l-.1-.9h0c.6.3.4.6.1.9Zm9.2-2.3h0c-.2,0-.4-.1-.6-.2l.4-.3.6.2c-.1.1-.3.3-.4.3Zm.7-1.3c-1.4.2-2.9.3-4.5.4,0-1.2.5-1.9,2.3-2.4l-4.7-.2c-1.5,1.2-.6,2.2.4,3.2l-3.6,1.7c-.7-.2-1.8-.2-2.1-.5-.9-.9-2.2-.7-3.5-.6-1.4.1-2.8.3-4.2.5.4-1.1,1.6-1.7,3.4-1.8,1-.8-1.8-.6-.7-1.3-.6-.5-1.4-.6-2.1-.4-1.9.3-3.8.4-5.7.2-.1-1.6,2.7-1.1,3.6-1.9l1.7.6.9-1.3c1.1,0,2.3,0,3.5-.1.9-.1,2.2-.2,2.3-.8.3-1.3,2-1.3,3.6-1.3.1,0,.3,0,.7.1.3.3.6.7,1,1.1.3.3.7.6,1,.9l-1.1.7c.5.2,1,.3,1.6.3s1.2-.2,1.7-.5c1.4-.8,3-1.3,4.7-1.3.3,0,.7,0,1,.1-.4.6-.7,1.3-.9,2-.1.5,1,.8,1.7.6,2.8-.8,2.8-.9,4.9-.8-.6,1.2-1.5,2.1-4,2.2-.8.1-1.8.5-2.9.6Zm16.2.7c-.4.6-1,1.1-1.7,1.4,0-.4-.1-.8-.1-1.3-1.9.4-3.5.5-4.9-.3-1,1.3-2.4,2.2-3.9,2.5-.5.1-.9.1-1.4,0-.6-.3-.5-.7.2-1,.9-.3,1.6-.9,2.1-1.6.6-1.3,1-1.4,3.8-.9-.2-.6-.3-1.2-.3-1.8.4.1.7.3,1.1.6h0c.4.4.4.9.5,1.5-.2-.1-.3-.1-.5-.2-.2,0-.5-.1-.7-.1l-.7.9c.5,0,1-.1,1.4-.1.3-.1.4-.3.6-.5h-.1,1.7c.5,0,1.1-.1,1.6-.1h.3c.3.4.7.7,1.1.8,0,0-.1.1-.1.2Zm-2-6.7c-.6,0-1.2.2-1.7.4-.5.3-.1.7.3,1,.2.2.4.4.7.6-1.1.4-2.3.5-3.5.8.1-.6,0-1.2-.2-1.8,1.2-.5,1.6-1.5,3.3-1.6.8-.1,1.6-.1,2.3-.1l1.3.9c-.7-.2-1.6-.2-2.5-.2Zm40.8-2.6h0c-1.1,0-2-.6-1.7-1,.2-.3.9-.4,1.1-.6,1.2,0,1.9.3,2,.8h0c.1.4-.6.8-1.4.8Zm35.8,3.2q1.3-.8,4.1-.7c-1,.5-2.2.7-3.3.8-.3,0-.5-.1-.8-.1Zm7.3-4.8c-.5.1-.9.2-1.4.2h0c-.1.2-.2.5-.6.5h-.3c-.7-.2-.2-.6.2-.9.3-.3.6-.5.9-.7.6-.3,1.3-.3,1.5.1.1.3,0,.6-.3.8Zm2,1.9v-.2l.3.1-.3.1Zm11.1-1.9h-.1c-2.3-.1-4.1.4-5.2,1.6-.4.4-.9.7-1.4.9-1.1-.3-.9-.7-.6-1,.3-.4,1-.7,1.3-1.1.9-1.4,1-1.4,3.1-1.4,1.4,0,2.8.1,4.4.1-.2.4-.2.6-.4.7h0c-.5.1-.8.2-1.1.2Zm4.6,1.6c-.5.2-.9.2-1.4.2-.7,0-1.5-.2-2.2-.4l3.8-.2c-.1.2-.1.3-.2.4h0Zm18.7-2.9l-.2-.1c.1,0,.1-.1.2-.1s.1.1.2.1l-.2.1Zm12.2-.8h0c-.3-.1-.5-.2-.8-.3.3-.1.6-.2,1-.3.2,0,.5.1.7.2-.3.2-.6.3-.9.4Zm113.5,23.9h0c-.4,0-.7-.1-1.1-.1v-.4l2.2.1c-.1.5-.7.4-1.1.4Zm4.3.2h0c-.2,0-.3-.1-.5-.2l.5-.3.5.2c-.1.1-.3.2-.5.3Zm4-1.8h0c-.3-.1-.6-.2-.9-.3.2-.1.3-.3.5-.3.3,0,.6.1,1,.2h0c-.3.2-.5.4-.6.4Zm4.6.1c-.2,0-.4-.1-.6-.1.1-.1.1-.2.1-.2.2,0,.4.1.6.1h0c0,.1-.1.2-.1.2Zm9.1-5.4c.3,0,.5.2,1.1.5-.5.1-1,.2-1.5.3h0c-.2,0-.3-.3-.5-.4.2-.3.5-.4.9-.4Zm-3.1,2.1c-.2,0-.3-.2-.4-.3.2-.1.4-.1.7-.2.1,0,.3.2.4.3-.2.2-.4.2-.7.2h0Zm2.8,3.6c-.4.1-.7.1-1.1.1-.1,0-.2-.2-.3-.3.3-.1.7-.2,1-.2.1,0,.2.2.4.4h0Zm4.9-2.8h0c-.3-.1-.5-.2-.6-.3l.7-.3.5.4h0c-.2.1-.4.1-.6.2Zm7.3,3.6h0c-.4,0-.8.1-1.1.1h0c-.5,0-1.2,0-1.1-.4,0-.1.6-.2,1-.2.5,0,.9.1,1.4.2l-.2.3Zm6.1.3l-.8-.1c.2-.2.4-.3.6-.4.1,0,.4.1.6.1l-.4.4Zm5.3-4.4h0s-.1,0,0,0c-.5,0-.8-.1-1.2-.2.4-.2.6-.4.8-.5.3,0,.6.1.9.2-.1.2-.3.5-.5.5Zm5.9,5.3l2.7-.2c-.5.2-1,.3-1.5.3-.4,0-.8,0-1.2-.1Zm.9-1.8c0-.1.1-.1.1-.2l.2.2h-.3Zm-.6-1.2c-.8,0-1.7,0-2.9-.1q-.9-1-.5-2.1c.7.1,1.4.3,2.1.5,1.4.6,2.9.4,4.1-.4.3-.2.6-.3.9-.5h0c-.8,2-1.1,2.6-3.7,2.6Zm2.7,2.8l2.1-.4.1.3-2.2.1Zm3.2.6l.2-.1.1.2-.3-.1Zm10.6-1l.1-.2.2.1-.3.1Zm1.3-3h-.8c-.5-.1-1,0-1.5.1-2.3.9-5.1.6-7.9,1.1l.9-1.4c1.5-.3,3-.2,4.5.3,1.6-.9,3.3-1.4,5.2-1.4,1.1-.1,1.4.2,1.6,1.2-.7,0-1.3,0-2,.1h0Zm5-.1l-.5-.2.1-.2c.2.1.4.1.5.2h0s-.1.1-.1.2Zm14.4-14c-.4-.1-.9-.2-1.3-.3.1-.1.3-.3.4-.3.4,0,.9.1,1.4.2-.2.2-.4.4-.5.4h0Zm9.8,1.2c-1,.2-2,.3-3.1.5l2.7-2c.4.4.6,1,.4,1.5Zm-.1-5.6c-.2-.1-.3-.1-.5-.2l.1-.2c.2,0,.4,0,.6.1l-.2.3Zm5.3.2l.3.1-.3.1v-.2Zm.1,3.9h-.4c.1-.1.3-.1.4-.2,0,0,.2.1.3.1l-.3.1Zm5.6-3.5h0c-.1,0-.2-.1-.2-.1.1-.1.2-.2.4-.3.1.1.3.2.4.2-.2.1-.4.2-.6.2Zm6.9-2.8l-.1.2-.2-.1.3-.1Zm-2.9,1.9c1.1-.6,2.5-.6,3.6,0h-3.6Zm6.6-2c-.3-.1-.6-.2-.8-.3.2-.1.3-.3.5-.3.3.1.6.1,1,.2-.3.2-.4.3-.7.4h0Zm1.6,2.8h-.2c-.8,0-1.5-.4-1.3-.8.2-.2.5-.4.8-.4.9-.1,1.5.3,1.4.8-.2.3-.5.4-.7.4h0Zm3.1.7l-.2-.1h.3l-.1.1Zm246.9-4.6v-.2h.4v.3l-.4-.1Zm9.7,7.5c-.7-.1-1.5-.3-2.2-.4.4-.3.9-.6,1.4-.8h0c.3.1.6.3.8.5h0v.7Zm3.8.5h0c-.1,0-.2.1-.3.1-1-.2-2-.3-3-.5.2-.3,0-.5-.5-.8,1-.2,2-.4,3-.5.4,0,1.3.3,1.4.5.1.5-.2,1-.6,1.2Zm6.6-1.7c1-.3,2-.3,3,.2-.6.3-1.2.5-1.9.6-.4,0-.6-.3-1.1-.8Zm6.9,4.7c-.2-.1-.6-.2-.6-.3s.3-.2.4-.4l.7.1-.5.6Zm9.1-.3h-.2c-.9,0-1.1-.3-.9-.6.4-.5.9-.9,1.4-1.3.4.7.2,1.5-.3,1.9Zm.4-1.9l-1-2.2,3.3-.1,2.3,2.9c-.3,0-.6.1-.9.1-1.3-.1-2.5-.3-3.7-.7Zm5.7-.8c-.6-.6-.4-1.1,1.1-1.5h0c0,.7,0,1.2-1.1,1.5Zm4,3.1h0s-.1,0,0,0c-.3,0-.5-.1-.7-.1.1-.1.2-.3.4-.4.2,0,.4,0,.6.1-.1.2-.1.3-.3.4Zm4.4,18.9c-.1-.1-.3-.1-.4-.2v-.3c.3,0,.5,0,.8.1l-.4.4Zm4.7-23.1c-.4-.1-.7-.2-1.1-.3l.6-.4,1,.4c-.1.1-.3.3-.5.3h0Zm5.8,3.5h-.2c-.3,0-.7-.1-1.2-.2.3-.3.5-.7.7-.7.4,0,.8.1,1.2.2-.1.3-.2.6-.5.7Zm1.8,3.9h0c-.1,0-.3-.2-.4-.4,0,0,.2-.2.3-.2h1.7v.3c-.5.2-1,.3-1.6.3Zm7.1-7.3h0c-.3,0-.6-.3-.9-.5.3-.2.6-.4.9-.5.7-.1,1.5-.2,1.9.6-.6.2-1.2.3-1.9.4Zm4.9,28.7h.5-.5Zm1,.1h-.2.5c-.1-.1-.2,0-.3,0Zm.4-26.2c-.3-.1-.5-.1-.8-.2-.1,0,0-.2,0-.2h.8c.1.1.1.2,0,.4Zm5.7-3.5l2.2-.3c-.5.3-.7.5-1.1.5-.3-.1-.7-.1-1.1-.2Zm13.6,4h-.1c-.2-.3-.3-.6-.4-.9h.8c.3.3.5.6.7.9h-1Zm9.3-.2h-.6c-1,0-1.4-.3-2.5-1.3l4.5.1c.2.8-.3,1.2-1.4,1.2Zm15.3-4.6c-.1-.1-.3-.1-.3-.2s.1-.1.2-.2l.5.3-.4.1Zm8,3.3c-.6.2-1.2.2-1.8.2h-.1c-.4-.1-.8-.3-1.2-.6,1.1-.1,2.1-.2,3.2-.3.2.3.2.5-.1.7Zm13.8-.1c-.6,0-1-.3-.6-.9h.9c0,.3-.1.6-.3.9Zm3.8-1l.4-.2,1.1.3c-.5.2-.9.3-1.4.5,0-.3-.1-.5-.1-.6Zm18.1-16.4c.3.1.8.4.8.4h0c-.3.3-.6.5-1,.8-.2-.1-.4-.2-.8-.5l1-.7Zm.8,3.8l-.4.4h-.4c.1-.1.3-.3.4-.4h.4Zm-8.7-5.5c.1-.2.1-.5.2-.5h1.3c0,.2,0,.4-.1.4-.5,0-.9.1-1.4.1Zm3.8,17.6c-.3,0-.5,0-.8.1-.7-.1-1.3-.2-1.9-.4l5.1-.8c-.7.4-1.5.8-2.4,1.1.1,0,0,0,0,0Zm10.1-1c-.8-.1-1.8-.4-2.7-.5,1.6-.5,3.2-.6,4.8-.2-.6.5-1.3.9-2.1,1.1v-.4Zm-.8-4.2l.4.2-.3.2c0-.2-.1-.3-.1-.4Zm-6.9-3.9h0c-.2,0-.4-.2-.8-.4.6-1,2.1-1.3,3.6-1.4,1.2-.1,2.4-.5,3.3-1.3,1.1.5,2.3.9,3.3,1.4.4.2.5.6.7.9-3.3.2-6.7.5-10.1.8Zm25.6-7.8c.8-.2,1.7-.3,2.5-.4q-1.4,1-4.6,1.1c.3-.7,1.5-.5,2.1-.7Zm-10.2-.9c1.5.3.5,1.2,1.8,1.5-.6.2-1.3.4-2,.4-.4,0-.9-.1-1.2-.5-.4-.7.5-1.1,1.4-1.4Zm-1.1,7.5h0c-1.3.1-2.6.2-3.9.3,1-.4,1.9-.8,3-1,.5,0,1.1.1,1.6.2-.4.3-.6.5-.7.5Zm1.2-2.6c0,.1-.1.2-.1.4l-.7-.2c.1-.1.3-.2.4-.3.2,0,.3,0,.4.1h0Zm.1,10.8c.2-.1.4-.2.6-.2.1,0,.2.1.3.1-.1.1-.2.2-.3.3-.2,0-.4-.1-.6-.2Zm3.4-2.8l-1.2-.1c0-.2.1-.4.1-.5.4,0,.7.1,1.1.2.1,0,0,.2,0,.4Zm4.1-.4l-1.2-.2c.1-.2.1-.4.2-.4.4,0,.8,0,1.2.1l-.2.5Zm-4.9-5.2c-.8-.9-.7-1.3.4-1.4,1.7-.2,1.9-.1,6.1,1l-6.5.4Zm12.9-8.7h0c-.1.2-.3.4-.4.4-.3,0-.7-.1-1-.2-.1-.2-.2-.3-.2-.4.1-.2.1-.6.3-.7.5-.2,1,.1,1.3.5,0,.2,0,.3,0,.4Zm2.3,13.3h0c-.2-.1-.5-.1-.7-.3l.3-.5.9.4c-.1.1-.3.3-.5.4Zm3.5-13.2h-.4c-.3,0-.7,0-1.2-.1.6-.5.7-.9,1-.9.4,0,.7.1,1,.3.1.3-.1.7-.4.7Zm.9,12.2l-.1-.2.3.1-.2.1Zm.9-10.1h-.4c-.1-.1-.2-.2-.3-.4h.8c0,.1-.1.3-.1.4Zm3.1-2.3l-.4-.2h.4v.2Zm7.3,1.7c.1-.1.1-.3.2-.4.1,0,.3,0,.4.1.1.1.1.2.2.4l-.8-.1Zm5.6,9.4l-.2-.2c.2,0,.5-.1.7-.1.1,0,.1.1.2.2l-.7.1Zm.9-4.3l.2-.2.3.1-.5.1Zm10,4.8l-.7-.1c.1-.1.3-.2.4-.3h.4l-.1.4Zm68.4,5.6l.2-.1.2.1c-.1,0-.1.1-.2.1,0,0-.1,0-.2-.1Zm165.8-.4c-.1.1-.4.1-.6.2l-.4-.3.9-.3c0,.1.2.3.1.4h0Zm189.7,15.2h0c-.1,0-.2,0-.3-.1.2-.2.4-.3.6-.5.1,0,.2-.1.3-.1l.5.2c-.3.2-.7.4-1.1.5Zm9.3-3.1c-1.2-.1-2.4.3-3.3,1.1-.5-.4-.7-.9-1.2-1-.7-.1-1.5,0-2.2.2-1,.2-1.9.5-2.9.7-1.5.3-2.1.1-3.5-1,1.6-.4,3.2-.6,4.9-.5h2.4c1.8.1,3.7,0,5.5-.2.7-.1,1.4.1,1.8.6-.4,0-.9.1-1.3.1,0,0-.1,0-.2,0Zm-6.7-5.7h-.3v-.2h.3c0,.1.1.2,0,.2h0Zm8.9,7.7v-.1l.1-.1c0,.1-.1.1-.1.2Zm14.8-.6l-.2-.1.2-.1v.2Zm4.9-2.3c.1,0,.1-.1.2-.1h.2l-.4.1Zm2.1-.6c-.5.2-1.1.4-1.6.4-.4-1.6,0-1.9,2.6-1.9-.3.6-.6,1.1-1,1.5Zm11.5,2.3c-1.4-.1-2.7.1-4,.6-.3,0-.7-.1-1-.2-.4-.2-.2-.7.3-.7,2.3-.3,4.6-.5,6.9-.8.1,0,.3.2.5.4-.9.3-1.8.5-2.7.6h0v.1Zm6.7-.4h0c-.1.1-.3.1-.4.1h-.3c-.7-.3-1.1-.9-.8-1.4.1-.1.4-.2.6-.3.3,0,.5,0,.8.1.9.3,1,1.1.1,1.5Zm-19.3-7.4c3.3-.2,6.5,0,9.8.5h.7c2.7-.2,5.3-.1,8,.1,1.9.1,3.9.3,5.8.3.3,0,.7.1,1,.2,0,.5-.6.5-1.1.5-6.1-.2-12.2-.4-18.2-.6-4-.1-8-.1-11.9-.2-3.2.1-6.5-.2-9.6-.9,5.2.2,10.4.2,15.5.1Zm-12.5,7c.4-.2.9-.3,1.4-.4,1.8.2,3.7-.2,5.3-1.1.8-.2,1.6-.4,2.4-.5-.4.4-.9.9-1.4,1.2-1.4.8-3.7,1.2-4.1,2.5-.6.3-1.2.4-1.9.4h-.2c-.9,0-1.7-.4-1.8-1,0-.3.1-.6.3-.9l-4.1.2c.2.4.3.8.6,1.2.3.3.6.6,1,.9-.6.5-1.4.6-2,.2-1-.6-2.2-.9-3.3-1,.3-.7.2-1.3-.8-1.8,2.8-.8,5.7-.4,8.6.1Zm-5.9-1.7c-.1,0-.2.1-.2.1-.2,0-.4-.1-.5-.2.1,0,.2-.1.2-.1.2,0,.4.1.5.2Zm-27.5-7.2c.9-.7,2.1-.8,3.1-.3h0c1,.4,2.1.6,3.2.6h.2c1.5,0,2.9,0,4.4-.1,1.7,0,3.4.1,5.1.5,2.3.5,4.7,1,7.3.5,1.5-.3,2.3.4,3.6.6-.6.6-1.3.4-1.9.4-2.6-.1-5.3-.2-7.9-.2-2.2,0-2.2.1-4.2,1.2-1.3-.1-2.7-.2-4.1-.4-.3,0-.6-.2-.8-.4-.5-1.2-2.4-1.1-3.8-1.3-1.1-.1-2.4-.1-3.5-.2-.3,0-.6-.2-.8-.4-.3-.1-.1-.3.1-.5Zm7.8,4.4l-.2.1v-.2l.2.1Zm-8.4-2h0c-1.1.3-2.3.5-3.5.6-.8,0-1.6-.1-2.4-.3q1.6-.6,5.9-.3Zm-8.1-3.7c.1.8-1.5.4-2,.8.2.1.3.2.5.2,1,0,2.1,0,3.6-.1-.7.4-1,.7-1.3.7-3.5.1-7-.1-10.5-.4.1-.6.7-.6,1.2-.7l-1.3-.8c2.4-.6,5-.6,9.8.3Zm1.7,4.9l-.7.2-.5-.4c.1,0,.3-.1.3-.1.3.1.6.2.9.3Zm-2.6,1.8l-.6.2c-.1-.1-.1-.2-.1-.3l.3-.1c.1,0,.2.1.4.2Zm-7.7-3.5c2.1-.4,4.1-.5,6.2-.4-.9,1.4-2.3,2.5-4,3.1h0c.1.3.1.6.2.9-.4,0-.8,0-1.2-.1-1.6-1.6-4.2-1.6-6.9-1.5h-.3c1.9-.9,4-1.6,6-2Zm-14.2,7.1c3.2.2,6,.4,8.9.7.4.1.9.2,1.3.4-2.7.7-5.2,1.3-7.8,1.8h0c-.3.1-.7.1-1,.1h-1.3c-.2,0-.4-.1-.5-.3,0-.2.1-.3.2-.4.8-.2,1.6-.3,2.8-.6l-2.6-1.7Zm8.1-5.1h0c-.3.5-.9.7-1.5.6-.3,0-.6,0-.9-.1.6-.6,1.6-.4,2.4-.5Zm-20.3-2.9l2-.4c.1-.6.1-1.3.1-1.9-.1-.9-.8-1.3-2.4-1.5-.8-.1-1.5-.1-2.3-.1q0-.1.1-.2c1.8-.2,3.6-.4,5.4-.6s3.6-.1,5.4.5c1.3.4,2.8.8,4.6,1.3l-4.8,1.4,2.8,1.3-1.8.7,3.6.6h0c-1.9.3-3.9.5-5.8.4h-4.9l-2-1.5Zm7.7,9.8l.1-.2.2.1-.3.1Zm-5.2-5.3l6.2-.7c1.3.4,2.6.6,3.9.6.7,0,1.4-.1,2.1-.2.8-.2.9-.1,2.5.9-.3.6-1.4.8-2.4,1.2-2-.8-4.3-.2-6.2-.9-2.1-.3-4.1-.7-6.1-.9Zm6.8,17.7c-.2,0-.4,0-.6-.1.1-.1.3-.2.4-.4.3,0,.7.1.9.2h0c-.1.2-.4.3-.7.3Zm1.2,1.5l-.2-.1h.3l-.1.1Zm1.8,1.7h0c-.2,0-.4-.1-.6-.1.2-.2.2-.3.3-.4.6-.4,1.3-.6,1.9-.3.1,0,.1.1.1.2-.1.6-.9.5-1.7.6Zm.7-2c0-.1.1-.1.1-.1.1,0,.2,0,.3.1l-.1.2-.3-.2Zm6.4,50h-.4c-.5-.4-1.1-.8-.4-1.3.1,0,.2-.1.4,0h0c.8.1.9.3.4,1.3Zm-1-51.3c-.9-.1-1.7-.2-2.5-.5q1.9-.7,4.2-.1h0c-.5.4-1.1.6-1.7.6Zm5.1,5.5l.1-.1.2.1h-.3Zm2.8-3.1q-.1-.1-.2-.2.1-.1.2-.2l.3.1-.3.3Zm-.8-10.4c-.2,0-.5.1-.6.1h-.1c-1.7-.4-3.4-.5-5-.2-2.6.3-5.2.1-7.7-.4.2-.2.2-.5.3-.5,1.4-.1,2.8-.2,4.1-.5,1.4-.3,2.8-.5,4.2-.4,1.3-.1,2.6-.5,3.8-1.1.3.8,1.9,1,2.7,1.5l-1.7,1.5Zm3.6,2.4h-.6c.2-.1.3-.1.5-.2h.3c0,.1-.1.2-.2.2Zm1.7-5.9c-.9.6-2,.9-3.1.8-1.1,0-2.2-.2-3.2-.4.1-1.1.2-1.2,1.3-1.3,1.7-.2,3.3-.3,5-.5-.3.5-.5,1,0,1.4h0Zm2,2.8c-.1,0-.2-.1-.3-.1,0-.1.1-.2.1-.2h.4l-.2.3Zm2.9-1.7l-.2-.1h.3l-.1.1Zm7-.9h-.8c-.8-.3-1.7-.5-2.6-.4-1.7.1-3.4.3-5.1.3-1.2,0-2.3-.1-3.5-.1.2-.5.5-.9,0-1.4-.3-1,1-1.6,1.5-2.6h5.5c-.9.8-1,1-1.9,1-.8.1-1.7.1-2.8.1q1.5,1,10.1,1.6c.8.7.3,1.1-.4,1.5Zm.3-2.8c-1-.5-.3-1.1.3-1.1,2.2,0,4.4.1,6.6.3.5,0,1,.5,1.6.8l-.8.7c-.8-.1-1.6-.3-2.4-.6-1.2-.7-2.6-.8-3.9-.3-.4.1-.9.2-1.4.2Zm2.3,2.5c-.2-.4.2-.6.8-.7,1.6-.1,3.2-.4,4.7-1h0c1.2.2,2.6.3,2.9,1.3-1.5-.4-3.1-.4-4.5.1-1.4.2-2.6.3-3.9.3Z"/>
  <path class="cls-1" d="m1659.3,21.8c-.1.3-.2.5-.3.7,1.3.3,2.6.7,3.9,1,1.8.5,3.7.4,5.5-.2-2.5-1.7-6-1.1-9.1-1.5Z"/>
  <path class="cls-1" d="m377.1,16.5c-.2,0-.4,0-.5.1-.1,0-.1.1-.2.2.3.1.6.2.9.3.4,0,.8-.1,1.2-.2-.4-.1-.8-.2-1.2-.3h0c-.1-.1-.2-.1-.2-.1Z"/>
  <path class="cls-1" d="m367.4,17.1h-.3c-.2.1-.3.2-.4.2.2,0,.4,0,.6-.1h0s0-.1.1-.1Z"/>
  <path class="cls-1" d="m381.6,22.7l.3.1h0q.1-.1.1-.2l-.4.1Z"/>
  <polygon class="cls-1" points="382.1 23.7 382 23.8 382.3 23.8 382.1 23.7"/>
  <path class="cls-1" d="m366.8,23.2c-.1-.1-.2-.1-.2-.1h0c-.1,0-.2.1-.3.1l.4.2s0-.1.1-.2Z"/>
  <path class="cls-1" d="m366,17.5l.4-.1h-.2c-.1,0-.2.1-.2.1Z"/>
  <polygon class="cls-1" points="363.8 18.6 363.6 18.6 363.7 18.7 363.8 18.6"/>
  <polygon class="cls-1" points="391.7 23.8 391.6 23.8 391.3 23.9 391.7 23.8"/>
  <path class="cls-1" d="m395.3,16.7h-1.7c-1.4-.1-2.8.1-4.1.5,1.3.1,2.6.1,3.9.2h0c.8,0,1.6,0,1.9-.7Z"/>
  <path class="cls-1" d="m388.9,17.5c-.1,0,0,.2,0,.3.1,0,.2-.1.3-.1h0c.1-.1.2-.2.3-.3-.3-.1-.4,0-.6.1Z"/>
  <polygon class="cls-1" points="389.6 17.2 389.5 17.2 389.5 17.3 389.6 17.2"/>
  <path class="cls-1" d="m1790.5,28.4h.4v-.2h-.4v.2Z"/>
  <path class="cls-1" d="m1794.9,28.3c.1,0,.2.1.3.1s.2-.1.3-.1c-.1-.1-.2-.1-.3-.1s-.2.1-.3.1Z"/>
  <path class="cls-1" d="m1796.5,26.2c-.2-.2-.5-.4-.9-.8-.4.3-.8.5-.7.6.2.2.5.4.7.4.3,0,.6-.1.9-.2Z"/>
  <path class="cls-1" d="m1787,27.3l-4.2-.1h0l-.3-.1.3.1h0c-1,.6-2.2.9-3.5.9q-2.8.2-6,1.7c4.9.2,8.9-.9,13-1.8.3-.1.4-.4.7-.7Z"/>
  <path class="cls-1" d="m1791.9,26c-.1-.1-.1-.3-.3-.4h0c-.2-.1-.5-.1-.7-.2-.2.1-.4.1-.6.2,0,0,.1.1.2.2.2.1.5.2.7.2.3.1.5.1.7,0Z"/>
  <path class="cls-1" d="m394.7,20.9c-.4.2-.7.4-1,.6-.7.8-1.3,1.5-2,2.3.6.2,1.2.1,1.7-.3.5-.6,1-1.3,1.5-1.9h0c.1-.2-.1-.4-.2-.7Z"/>
  <path class="cls-1" d="m1171.3,18.2c-.8.2-1.8.4-1.1,1.1.1.1.3.1.4.1h0c1.4-.2.8-.7.7-1.2Z"/>
  <path class="cls-1" d="m189.4,16.8c.1,0,.2.1.3.1s.2,0,.4-.1c-.1,0-.2-.1-.3-.1h0c-.2,0-.3,0-.4.1Z"/>
  <path class="cls-1" d="m243.4,14.5c.2.2.3.3.4.3h1.5c.1,0,.1-.1.1-.2-.4-.1-.9-.2-1.3-.3h0c-.3.1-.5.1-.7.2Z"/>
  <polygon class="cls-1" points="275.1 19.9 275.1 19.8 274.9 19.8 275.1 19.9"/>
  <path class="cls-1" d="m1849,23.1l-.8-.6h-.1l-.7.9,1.6-.3Z"/>
  <path class="cls-1" d="m304.4,15.8h-.3c-1.5.1-3,.3-4.4.6q3.4.1,4.7-.6Z"/>
  <path class="cls-1" d="m147,18c-.1,0-.2.1-.3.1-.1.1-.2.2-.2.4.2,0,.4-.1.6-.2h0s-.1-.2-.1-.3Z"/>
  <path class="cls-1" d="m629.5,16.4c-.9.3-1.5.6-.9,1.3.9.1,1.8-.3,2.4-.9h0c-.4-.2-.8-.4-1.2-.4h-.3Z"/>
  <path class="cls-1" d="m640.1,16.4l-1.7.4c.8.3,1.6.4,1.7-.4Z"/>
  <path class="cls-1" d="m647.1,17.3l.3.1.3-.1c-.1,0-.2-.1-.2-.1h0c-.2.1-.3.1-.4.1Z"/>
  <path class="cls-1" d="m555.1,17.7l.4-.3-.4.3-.3.1c.1,0,.2-.1.3-.1Z"/>
  <path class="cls-1" d="m605.2,16.8l.5-.2-.2-.2c-.2.1-.3.2-.5.3,0,0,.1.1.2.1Z"/>
  <path class="cls-1" d="m617.1,20.3c-.2,0-.4,0-.6.1l.1.1c.2,0,.4,0,.6-.1h0s-.1-.1-.1-.1Z"/>
  <path class="cls-1" d="m566.4,17.3c-.2.3.4.7,1.1.7.2,0,.4-.1.5-.2h0c-.2-.3-.6-.5-.8-.8-.5.1-.8.2-.8.3Z"/>
  <path class="cls-1" d="m761.4,21.3l-.3-.1v.2l.3-.1Z"/>
  <polygon class="cls-1" points="765.2 20.2 764.9 20.2 765.1 20.3 765.2 20.2"/>
  <path class="cls-1" d="m773.9,20.4l.3.1c0-.1.1-.1.1-.2h0s-.2-.1-.3-.1l-.1.2Z"/>
  <path class="cls-1" d="m744.2,22.4h.4c.1-.2.2-.4.2-.6h0c-.3-.1-.6-.2-.9-.2,0,.3,0,.6.1.8,0,0,.1,0,.2,0Z"/>
  <polygon class="cls-1" points="649.4 18.3 649.1 18.3 649.4 18.4 649.4 18.3"/>
  <path class="cls-1" d="m652.4,17.7c.1,0,.2-.2.3-.3l-.7-.2-.3.3c.2.1.4.2.7.2Z"/>
  <path class="cls-1" d="m457.4,23.4c.2,0,.7-.3.7-.4-.3-.3-.6-.5-1-.7l-.9.6c.4.3.8.4,1.2.5Z"/>
  <path class="cls-1" d="m551.1,17.5l-.2-.2-.1.1c.1.1.2.1.3.1Z"/>
  <polygon class="cls-1" points="450.5 23 450.6 23.1 450.8 23 450.5 23"/>
  <path class="cls-1" d="m452.2,23.2l-2.8.8c1.5.2,2.4.1,2.8-.8Z"/>
  <path class="cls-1" d="m426.7,17.6h.4l-.5-.2c.1.1.1.2.1.2Z"/>
  <path class="cls-1" d="m452.5,24.6c.1,0,.2,0,.3-.1h0v-.2l-.5.1.2.2Z"/>
  <path class="cls-1" d="m420.3,17.6h-.1v.2h.4v-.2h-.3Z"/>
  <path class="cls-1" d="m542.1,17.5c-.1.1-.1.2-.1.3h1c-.1-.2-.1-.4-.2-.4-.2,0-.5,0-.7.1Z"/>
  <path class="cls-1" d="m506.2,19c.1,0,.2.1.3.1s.1-.1.1-.2h0c-.1,0-.2-.1-.3-.1h0c-.1.1-.1.2-.1.2Z"/>
  <path class="cls-1" d="m400.9,20.9s.2.1.3.1c0-.1.1-.1.1-.2h0s-.2-.1-.3-.1c0,0-.1.1-.1.2Z"/>
  <path class="cls-1" d="m454.4,22.4c-.3.1-.6.1-.9.3l.6.6c.3-.2.5-.3.7-.6h0c.1-.1-.3-.3-.4-.3h0Z"/>
  <path class="cls-1" d="m469.8,24c.1,0,.2,0,.3-.1h0l-.1-.1c-.1,0-.2,0-.3.1s.1.1.1.1Z"/>
  <path class="cls-1" d="m1275.6,18.2c-.8-.1-1.8.5-3.2.9,1.8.5,3.7.5,5.6.2,2.5-.3,4.9-.7,7.3-1,.9-.2,1.8-.4,2.6-.6.2-.1.3-.3.5-.4-.2-.4-1.6-.3-1.3-1l2.1-1h0c-.9-.2-1.8-.3-2.7-.3s-1.8.2-2.7.6c.1.4.1.9.2,1.4-.9.1-1.9.2-2.7.4-1.8.5-3.7.8-5.7.8Z"/>
  <path class="cls-1" d="m1285.2,12.5c-.1,0-.2,0-.4.1-.1,0,0,.1,0,.2l.4.1v-.4Z"/>
  <path class="cls-1" d="m1289,12.8v.2h.3v-.2h-.3Z"/>
  <polygon class="cls-1" points="1286.7 11.2 1287 11.1 1286.7 11 1286.7 11.2"/>
  <path class="cls-1" d="m1303.8,18.2c-1.7.1-3.4.5-4.9,1.2,1.5.2,3,.1,4.4-.3h0c.6-.1,1.3-.3.5-.9Z"/>
  <polygon class="cls-1" points="1352 25.6 1351.8 25.6 1351.9 25.7 1352 25.6"/>
  <path class="cls-1" d="m1559.1,19.2l-4.5-.4c1.6.9,2.7.8,4.5.4Z"/>
  <path class="cls-1" d="m1290.2,18.3h-.4c-.3,0-.6,0-.9.1-.3.1-.6.3-.9.6.4,0,.9,0,1.3-.1,1-.1,1.5-.5.9-.6Z"/>
  <path class="cls-1" d="m1301.6,15.1l-.8-.1-.6.4c.3.1.7.1,1,.1.2,0,.3-.2.4-.4Z"/>
  <path class="cls-1" d="m1264.4,16.5c.1,0,.3-.1.3-.2h0c-.1-.1-.3-.2-.4-.3l-.5.3c.2,0,.4.1.6.2Z"/>
  <polygon class="cls-1" points="1586.4 19.9 1586 19.8 1586.1 19.9 1586.4 19.9"/>
  <path class="cls-1" d="m1259,17.3c.2-.2,0-.5,0-.7h-.8c-.1,0-.3,0-.4.1-.5.3-.9.6-1.3,1,.9.2,1.8,0,2.5-.4Z"/>
  <polygon class="cls-1" points="1265.1 10 1265.2 10.1 1265.2 10 1265.2 10 1265.1 10"/>
  <path class="cls-1" d="m1270.8,14.6c1.1-.1,1.6-.6,1.2-1.1-.4-.6-.9-1-1.6-1.2h0c-1-.2-2-.3-3-.4l-.4.5c.6.3,1.1.6,1.8.8.7.2.9.3.7.8-.3.5.5.6,1.3.6Z"/>
  <polygon class="cls-1" points="1265.3 10 1265.2 10 1265.2 10.1 1265.3 10"/>
  <path class="cls-1" d="m1268,9.7l-2.7.3c.9.2,1.8.5,2.7-.3Z"/>
  <path class="cls-1" d="m1272.1,10.4h-.7c0,.1.1.2.1.2l.4.1.2-.3Z"/>
  <path class="cls-1" d="m1696.8,24.4c-.3-.2-.6-.3-.9-.4h0c-3.5-.2-6.9-.7-11-.7h-1.5c1.4.7,3,1.1,4.6,1.3,2.8.2,5.8.1,8.8-.2Z"/>
  <path class="cls-1" d="m1708.1,24.9c.1,0,.2.1.2.1.2,0,.4-.1.6-.1-.1-.1-.2-.1-.2-.1-.1,0-.3,0-.6.1Z"/>
  <path class="cls-1" d="m1729.1,25.2v.2h1.2v-.2h-1.2Z"/>
  <polygon class="cls-1" points="1721 25.4 1721 25.2 1720.7 25.3 1721 25.4"/>
  <path class="cls-1" d="m1666.4,25.3c.2,0,.4-.1.5-.2l-.6-.2-.6.2c.3.1.5.1.7.2Z"/>
  <path class="cls-1" d="m1784,31.1c.1,0,.2.1.2.1.2,0,.4-.1.6-.1-.1,0-.2-.1-.2-.1-.2,0-.4,0-.6.1Z"/>
  <polygon class="cls-1" points="1689.9 28 1689.6 28.1 1689.8 28.2 1689.9 28"/>
  <path class="cls-1" d="m1665.2,26.2c-.5-.2-1-.4-1.5-.4s-1,.1-1.4.3c.8.2,1.6.5,2.4.7.2,0,.5-.1.6-.2s0-.3-.1-.4h0Z"/>
  <path class="cls-1" d="m1772.1,26.7h0c2.8.2,5.5-.2,8.2-1.1-2.8-.1-5.5.3-8.2,1.1Z"/>
  <path class="cls-1" d="m1770.2,28.8c.1,0,.2.1.2.1.1,0,.2-.1.2-.1-.1,0-.2-.1-.2-.1-.1,0-.1.1-.2.1Z"/>
  <polygon class="cls-1" points="1746.7 25.7 1746.4 25.6 1746.4 25.8 1746.7 25.7"/>
  <polygon class="cls-1" points="1741.8 25.8 1741.7 25.6 1741.5 25.7 1741.8 25.8"/>
  <path class="cls-1" d="m1662.3,26.1h0q-.1.1-.1.2,0-.1.1-.2Z"/>
  <path class="cls-1" d="m1597.1,17.4c-.2,0-.3.1-.2.2.4.6,1.3.5,2.1.5-.6-.4-1.2-.6-1.9-.7Z"/>
  <polygon class="cls-1" points="1599.1 18 1599.1 18.1 1599.2 18 1599.1 18"/>
  <path class="cls-1" d="m1610.5,21.5l.3.1h0c0-.1,0-.2-.1-.2l-.2.1Z"/>
  <path class="cls-1" d="m1601.5,19.2c.7.3,1.8.2,2.5.5.6.3,1.1.7,1.6,1.1,1.3-.2,2.4-.9,3.1-2.1.3-.4-.3-1.3-.9-1.4h0c-.3,0-.6-.1-.9-.1s-.7,0-1,.1c-1.8.7-3.7.9-5.6.6h-1.1.1c.6.6,1.4,1,2.2,1.3Z"/>
  <path class="cls-1" d="m1598,20.5c-.3-.3-.7-.4-1.1-.5-.1,0-.3,0-.4.1-.1,0-.2.1-.2.2,0,.5.7.5,1.3.6h.7-.1c0-.2-.1-.3-.2-.4h0Z"/>
  <path class="cls-1" d="m1599.1,18.1q-.1-.1,0,0-.1,0,0,0h0Z"/>
  <path class="cls-1" d="m1615.3,18.2c-.3.1-.6.2-.9.3l.3.2.8-.4c-.1,0-.1-.1-.2-.1h0Z"/>
  <polygon class="cls-1" points="1616.4 22.3 1616.1 22.3 1616.4 22.4 1616.4 22.3"/>
  <polygon class="cls-1" points="1659.1 22.5 1659.1 22.5 1659 22.5 1658.7 22.6 1659.1 22.5"/>
  <path class="cls-1" d="m777.7,23.3c.3,0,.7,0,1-.1.1,0,.2-.2.3-.3h0c-.2,0-.4-.1-.5-.1h-.1c-.2.2-.5.3-.7.5Z"/>
  <path class="cls-1" d="m1610.8,17.3l-.5.2.4.3c.2-.1.3-.1.5-.3-.1.1-.3-.1-.4-.2Z"/>
  <path class="cls-1" d="m1593.4,17.7c-.2,0-.4.1-.6.2l1,.8c.3,0,.6-.1.8-.3.2-.3-.4-.6-1.2-.7h0Z"/>
  <path class="cls-1" d="m1025.6,17.7c-.1,0-.2,0-.2-.1h-.7l-.8.1h.8c.2.2.3.4.5.4.4.1.8.2,1.2.2l.2-.2c-.4-.1-.7-.3-1-.4h0Z"/>
  <path class="cls-1" d="m1093.4,20c-1,.3-1.2,1-.6,1.4.4.2.8.2,1.2.1.9-.2,1.1-1,.5-1.3h0c-.4-.1-.8-.2-1.1-.2Z"/>
  <path class="cls-1" d="m1087.8,14.8c-.1,0-.3.1-.4.1l.5.1c0-.1,0-.2-.1-.2h0Z"/>
  <path class="cls-1" d="m1101.3,5.5h1.3c.1,0,.1-.4,0-.4-.4-.1-.8-.1-1.3-.1v.5Z"/>
  <path class="cls-1" d="m1082.3,18.9l-.3.2.3.2c.1-.1.2-.1.2-.2.1,0-.1-.1-.2-.2Z"/>
  <path class="cls-1" d="m1096.7,15.3c-.3,0-.5.4-.5.7,0,.1.3.3.5.4.8.3,1.8.3,2.6-.1h0c.6-.4,1.1-.8,2.2-1.5-2.1.2-3.5.3-4.8.5Z"/>
  <path class="cls-1" d="m1108.6,9.4c-.3.5-.7.8-.7,1.1,0,.5,1.4.8,2.2.4.4-.2.7-.8.5-.9h0c-.6-.2-1.3-.4-2-.6Z"/>
  <path class="cls-1" d="m1106.8,6.8c-1.8,1.7-3.6.3-6-.3,1.9,1.8,2.2,2,3,1.9.8-.2,1.6-.4,2.4-.8.4-.1.4-.5.6-.8Z"/>
  <path class="cls-1" d="m1103.8,17.4h-.6c-.1,0-.1.3-.1.5.4,0,.9,0,1.3-.1.1,0,.1-.3.1-.4h-.7Z"/>
  <path class="cls-1" d="m1073.9,17.5c-.3,0-.4.4-.7.7.5.1,1,.2,1.4.2.3-.1.3-.4.5-.6-.3-.1-.7-.2-1.1-.2q0-.1-.1-.1Z"/>
  <path class="cls-1" d="m1101.7,24.4c-.3-.1-.7-.2-1.1-.2h-.1c-.2,0-.4.3-.7.6.4.1.9.2,1.4.2.2-.1.3-.4.5-.6Z"/>
  <path class="cls-1" d="m1002.6,9.6h-.1c-.1,0,0,.1,0,.2h.4c.1,0,0-.1,0-.2h-.3Z"/>
  <path class="cls-1" d="m1014.8,9.8h.4v-.2h-.4c0,.1-.1.2,0,.2Z"/>
  <path class="cls-1" d="m1126.9,8.9c2.3.8,3.5,1.6,5.6,1.3-1.1-.9-2.6-1.3-5.5-1.3h-.1Z"/>
  <path class="cls-1" d="m1027.3,6.8c0,.1.2.1.3.1l.3-.1-.4-.2-.2.2Z"/>
  <path class="cls-1" d="m1033.3,9.8c.1.1.2.2.3.3h.4c.1-.1.1-.2.1-.4l-.8.1Z"/>
  <path class="cls-1" d="m1066.4,23.1c.2,0,.5,0,.8.1v-.2l-.8-.1s0,.2,0,.2Z"/>
  <path class="cls-1" d="m1112.1,12.9c.1,0,.3,0,.4-.1h0s-.1-.1-.1-.2c-.1,0-.3,0-.4.1s0,.2.1.2Z"/>
  <path class="cls-1" d="m1006.8,5.7c-.1,0,0,.1,0,.2l.3-.2h-.3Z"/>
  <path class="cls-1" d="m1007.9,16.6v.4h.8s.1-.2,0-.2h0c-.3-.1-.5-.2-.8-.2Z"/>
  <path class="cls-1" d="m1053.1,24.1c.1.1.2.3.4.4.1-.1.3-.1.3-.2h0c-.1-.1-.2-.3-.4-.4-.1.1-.3.2-.3.2Z"/>
  <path class="cls-1" d="m995.9,14.7h.4c.1,0,0-.1,0-.2h-.4v.2Z"/>
  <polygon class="cls-1" points="1066 15.4 1065.7 15.4 1065.8 15.5 1066 15.4"/>
  <path class="cls-1" d="m1056.7,21.3c.2.1.5.1.7.2,0-.1.1-.3.1-.4h-.8s-.1.2,0,.2Z"/>
  <path class="cls-1" d="m1046.3,23.2c.1,0,.3-.1.2-.2h0c-.1-.1-.3-.2-.4-.3-.2.1-.3.2-.5.3.2,0,.5.1.7.2Z"/>
  <path class="cls-1" d="m1052,10.1c.2.1.5.1.8.1,0-.1.1-.2.1-.2h0c-.2-.1-.5-.1-.8-.1,0,0-.1.2-.1.2Z"/>
  <path class="cls-1" d="m1039.2,20.3c1.6.9,3.4,1.4,5.2,1.6h0c-1.2-1.1-2.7-1.7-4.4-1.6h-.8Z"/>
  <path class="cls-1" d="m1126.1,5.8q-.1,0,0,0c-.1.1-.2.2-.2.4h.4c.1-.1.1-.2.2-.4h-.4Z"/>
  <path class="cls-1" d="m1125.2,15.4c.7.2,1.4.3,2.2.4.2-.5.6-.8.5-1.1h0c-.1-.3-.5-.4-1-.4-.4,0-.8.1-1.2.3-.4.1-.6.7-.5.8Z"/>
  <path class="cls-1" d="m1136.2,21.4c-.3,0-.5,0-.8.1l1.7.3c-.3-.3-.6-.4-.9-.4Z"/>
  <path class="cls-1" d="m1132.7,7q-.1-.1-.2-.2c-.2.1-.5.1-.7.2.1.1.2.2.2.2.2,0,.5-.1.7-.2h0Z"/>
  <path class="cls-1" d="m1135.1,21.5l-.9-.2c0,.1.1.2.1.2h.8Z"/>
  <path class="cls-1" d="m789.2,19.9c.1.1.2.3.4.3.3,0,.5.1.8.1v-.5h-.8c-.2.1-.3.1-.4.1Z"/>
  <path class="cls-1" d="m1124.1,10c-.1,0-.2.1-.3.1h.6c-.1,0-.2-.1-.3-.1h0Z"/>
  <polygon class="cls-1" points="1132.7 10.2 1132.6 10.2 1132.6 10.2 1132.6 10.3 1132.7 10.2"/>
  <path class="cls-1" d="m1129.1,18.9h0q-.1-.1-.1-.2c-.1-1.1-1-1.9-2.1-1.9-.4,0-.8.1-1.2.2-1.3.5-2.7,0-3.8.5,1.8,2.3,2,2.4,5.4,1.7.6-.1,1.1-.2,1.8-.3q-.1,0,0,0h0q-.1,0,0,0c-.1,0,0,0,0,0Z"/>
  <path class="cls-1" d="m1129.1,18.9c.4.5,0,1.2,1.6,1.6-.1-.8.2-1.5-1.6-1.6Z"/>
  <polygon class="cls-1" points="1113.5 21.6 1113.2 21.6 1113.3 21.8 1113.5 21.6"/>
  <path class="cls-1" d="m1120.1,20c-.1,0,0,.1,0,.2l.3.1h0v-.3c-.1,0-.2,0-.3,0Z"/>
  <path class="cls-1" d="m1117.7,6.4h0c-.4-.1-.7-.2-1.1-.2.1.2,0,.5.2.6.4.2.8.4,1.3.5-.2-.5-.2-.8-.4-.9Z"/>
  <path class="cls-1" d="m1139.8,9.4c-.1.1-.2.1-.3.2.2.1.4.2.6.3l.3-.2c-.2-.2-.4-.3-.6-.3h0Z"/>
  <path class="cls-1" d="m1140.2,13.4c.2.5-.2,1.1-.5,2.2,1.9-1.1,3.4-1.1,4.5-.1h.1c1.1-.6,2.5-1,2.9-2.1-1.4-.2-2.7-.2-3.8-.5h0c-1.2-.3-2.3-.7-3.5-1.1-.9.8.2,1.1.3,1.6Z"/>
  <path class="cls-1" d="m1116.8,20.6c-.4-.1-.7-.2-1.1-.2,0,.1-.1.3-.1.5l1.2.1c0-.1.1-.3,0-.4h0Z"/>
  <path class="cls-1" d="m1117.4,10.4h-.3l.5.2v-.2h-.2Z"/>
  <polygon class="cls-1" points="1144.5 11.9 1144.2 11.9 1144.4 12 1144.4 12 1144.4 12 1144.4 12 1144.4 12 1144.5 11.9 1144.5 11.9"/>
  <path class="cls-1" d="m1148.2,4h-.4c-.1,0-.2.1-.3.2l.4.1.3-.3Z"/>
  <path class="cls-1" d="m1142.4,8.4l.6.3c.1-.1.4-.3.4-.4-.3-.2-.5-.3-.8-.4-.1.2-.1.3-.2.5Z"/>
  <path class="cls-1" d="m1147,12.2h0c.5,0,1.1-.2.6-.9l-3.1.6c.9.2,1.7.3,2.5.3Z"/>
  <path class="cls-1" d="m1143,5.5l1.2.4c.2-.2.6-.5.6-.6h0c-.4-.2-.9-.4-1.4-.5l-.4.7Z"/>
  <path class="cls-1" d="m1134.4,10.2c.4-.1.6-.5.9-.8h0s-.2-.2-.3-.2h0c-.4,0-.8.1-1.1.3-.4.2-.8.4-1.2.7.5.1,1.1.1,1.7,0Z"/>
  <path class="cls-1" d="m877.5,11.6l.2-.2-.2.2h0l-.1.1q.1,0,.1-.1Z"/>
  <path class="cls-1" d="m889.4,16h0c0-.2-.1-.3-.1-.4l-.3.2.4.2Z"/>
  <path class="cls-1" d="m877.1,12.2h0c.1-.2.2-.3.3-.5-.2.1-.3.2-.5.3,0,.1.2.2.2.2Z"/>
  <path class="cls-1" d="m860.5,17.5c-.4-.2-.8-.3-1.2-.3s-.8.1-1.2.3h2.4Z"/>
  <path class="cls-1" d="m884.7,15.1c-.2-.1-.3-.2-.5-.3h-.1c-.2,0-.4,0-.6.1.2.1.4.2.6.3.1,0,.3,0,.6-.1Z"/>
  <path class="cls-1" d="m869.5,13.2q3.4,1,6,.6c-1.5-.4-3.1-.6-4.7-.7-.5,0-.9,0-1.3.1Z"/>
  <path class="cls-1" d="m986.4,14.7c.4,0,.9.1,1.3.1,0,0,.1-.1.2-.3h-1.4c-.1,0-.1.1-.1.2Z"/>
  <path class="cls-1" d="m881.9,12.4c.5.1,1,.1,1.5,0,.2,0,.3-.4.5-.6l-1.2-.1-.8.7Z"/>
  <path class="cls-1" d="m884.6,9.6h0c-.1-.1-.4-.2-.6-.3-.1.1-.4.3-.4.4.1.1.4.2.6.3.2-.1.4-.3.4-.4Z"/>
  <path class="cls-1" d="m883.6,16.7h0c0-.1-.2-.1-.3-.2l-.3.3.4.1s.2-.1.2-.2Z"/>
  <path class="cls-1" d="m880.3,17.8c.1,0,.3,0,.4-.1h0c0-.1-.1-.3-.1-.4l-.8.2c.1.1.3.2.5.3Z"/>
  <polygon class="cls-1" points="816.3 14.6 816.6 14.7 816.7 14.5 816.3 14.6"/>
  <path class="cls-1" d="m813.3,16.3c1.6.3,3.2.3,4.7-.1h0c-.7-.1-1.5-.2-2.2-.2-.9,0-1.7.1-2.5.3Z"/>
  <path class="cls-1" d="m810.2,14.5c.2.1.4.2.6.2.3,0,.5-.1.7-.2-.3,0-.6-.1-.9-.1h0c-.1.1-.2.1-.4.1Z"/>
  <path class="cls-1" d="m808,15.7c.1.1.1.2.2.2.3,0,.5-.1.8-.1h0c-.1-.1-.1-.2-.2-.2-.3,0-.5,0-.8.1Z"/>
  <path class="cls-1" d="m820.7,14.7h1.3c-.1-.1-.3-.2-.4-.2h0c-.3.1-.6.1-.9.2Z"/>
  <path class="cls-1" d="m869.3,13.1h0c-1.2-.5-2.5-.8-3.9-.8-.4,0-.8,0-1.3.1,1.6.8,3.4,1.1,5.2.7Z"/>
  <path class="cls-1" d="m866,15.3h0c-.7-.1-1.4-.2-2.1-.2-1.4.1-2.8.3-4.2.6,2.1.4,4.3.3,6.3-.4Z"/>
  <path class="cls-1" d="m855,15.8h0c-1.6-.2-2.3-.3-2.9-.3s-1.2.1-1.9.3h4.8Z"/>
  <path class="cls-1" d="m840.5,17.2c0,.1.1.2.1.3.4,0,.8-.1,1.2-.1h0c-.1-.1-.1-.3-.1-.3-.4,0-.8,0-1.2.1Z"/>
  <path class="cls-1" d="m856.1,18.1l1.7-.5h-.5c-.5,0-1,.1-1.2.5Z"/>
  <path class="cls-1" d="m927.5,16.7c.2.2.4.3.7.3.2,0,.7-.2.7-.2h0c0-.4-.1-.8-.3-1.2-1.3.2-1.3.7-1.1,1.1Z"/>
  <path class="cls-1" d="m935.3,13.9q-.1,0,0,0c-.4.2-.7.5-1,.7.3.1.7.2,1,.3.8-.1.9-.4.6-.8h0c-.2-.1-.4-.2-.6-.2Z"/>
  <path class="cls-1" d="m945.6,11.7c-.1,0-.1.1-.1.2l.3.1.2-.3h-.2c-.1,0-.2,0-.2,0Z"/>
  <path class="cls-1" d="m922.3.5l.5.3.3-.1c-.2-.1-.3-.2-.5-.3h0c-.1,0-.2.1-.3.1Z"/>
  <path class="cls-1" d="m919.2,14c-.1.1-.3.2-.3.2l.3-.2.2-.2-.2.2Z"/>
  <polygon class="cls-1" points="912.3 4.1 912.4 4.2 912.6 4.1 912.3 4.1"/>
  <path class="cls-1" d="m921,15h-3.5q1.9.9,3.5,0Z"/>
  <polygon class="cls-1" points="982.4 14.2 982.4 14 982.1 14.1 982.4 14.2"/>
  <path class="cls-1" d="m901.3,15.2c-.3-.1-.6-.1-1-.1-.9,0-1.7.3-2.3.9,1.2-.1,2.3-.3,3.3-.8h0Z"/>
  <path class="cls-1" d="m953.3,7.4v-.2h-.8v.2h.8Z"/>
  <polygon class="cls-1" points="986.1 8.9 986 8.7 985.8 8.8 986.1 8.9"/>
  <path class="cls-1" d="m972.6,4.3h0c-.1-.1-.1-.2-.2-.3,0,.1-.1.1-.1.2s.2.1.3.1Z"/>
  <path class="cls-1" d="m957.8,13.1h.4c0-.1-.1-.2-.1-.3l-.3.1c0,.1,0,.2,0,.2Z"/>
  <polygon class="cls-1" points="980.6 6.6 980.3 6.7 980.5 6.8 980.6 6.6"/>
  <polygon class="cls-1" points="897.2 14.9 897.1 14.8 896.9 14.9 897.2 14.9"/>
  <path class="cls-1" d="m898.1,13.4c.2.2.5.2.7.2s.6-.2.6-.3c-.2-.4-.3-.8-.6-1.2h.1-.1v.1c-.7.3-1.2.7-.7,1.2Z"/>
  <path class="cls-1" d="m897.1,11.3h0c-.7-.3-1.4-.5-2.2-.6-.3,0-.7,0-1,.1,1,.5,2.1.6,3.2.5h.2-.2Z"/>
  <path class="cls-1" d="m891.1,14.1l4.5-.8h0c-.3-.6-.9-.9-1.6-.9-.3,0-.6,0-.8.1-1.2.2-2,.6-2.1,1.6Z"/>
  <path class="cls-1" d="m896.3,18.3c.7-.4,1-1.1,2.1-1.3-.2-.2-.3-.5-.6-.5h0c-.3-.1-.7-.1-1-.1-.5,0-1,.1-1.4.5-.6.5-1.3.9-1.9,1.4.8.4,1.8.4,2.8,0Z"/>
  <path class="cls-1" d="m897.9,16h.1-.1c-1.3-.6-2.7-.9-4.1-.9-.9,0-1.8.2-2.7.5,2.4,1.1,2.8,1.2,6.8.4Z"/>
  <path class="cls-1" d="m901.8,18.8h0c-.2.1-.3.2-.4.3l.7.1v-.4h0c-.1.1-.2,0-.3,0Z"/>
  <path class="cls-1" d="m905.2,18.2c-.4-.6-1-.9-1.7-.9-.5,0-1,.1-1.5.3l3.2.6h0Z"/>
  <path class="cls-1" d="m897.8,2.7h0c-.1,0-.2.1-.3.1.1,0,.2.1.3.1s.2-.1.3-.1c-.2,0-.2-.1-.3-.1Z"/>
  <polygon class="cls-1" points="910.2 6.2 910 6.1 909.8 6.2 910.2 6.2"/>
  <polygon class="cls-1" points="912.1 15.2 912.4 15.2 912.2 15.1 912.1 15.2"/>
  <path class="cls-1" d="m898.8,12.1l1.1-.4c-.3-.2-.6-.4-.9-.5h-.3c-.4,0-.9.1-1.4.1l1.5.8Z"/>
  <path class="cls-1" d="m906,14.5l-.7-.3-.6.4c.2.1.4.2.7.3.3-.1.4-.3.6-.4Z"/>
</svg>
