<?xml version="1.0" encoding="utf-8"?>
<!-- Generator: Adobe Illustrator 27.2.0, SVG Export Plug-In . SVG Version: 6.00 Build 0)  -->
<svg version="1.1" id="Laag_1" xmlns="http://www.w3.org/2000/svg" xmlns:xlink="http://www.w3.org/1999/xlink" x="0px" y="0px"
	 viewBox="0 0 1918.9 1124.7" style="enable-background:new 0 0 1918.9 1124.7;" xml:space="preserve">
<g>
	<polygon points="1172.1,7.3 1172.1,7.2 1171.7,7.2 1172.1,7.2 	"/>
	<path d="M1178.4,3.7L1178.4,3.7L1178.4,3.7z"/>
	<path d="M1177.2,3.5c-3,0.8-3.8,2.2-2.3,3.7c1,1,2.3,1.6,3.7,1.9l-2.8-3.4c0.9-0.4,1.9-0.8,2.7-1.3c0.2-0.1,0.1-0.5-0.2-0.7
		s-0.6-0.2-1-0.3C1177.3,3.5,1177.3,3.5,1177.2,3.5z"/>
	<path d="M1173.2,8.6c0.2-0.1,0.5-0.3,0.4-0.4l0,0c-0.5-0.3-1-0.6-1.5-0.9c0.2,0.4,0.4,0.8,0.7,1.2C1172.9,8.5,1173,8.6,1173.2,8.6z
		"/>
	<path d="M1172,3.2L1172,3.2c-0.3-0.3-0.7-0.4-1.1-0.4c-0.2,0-0.4,0-0.6,0s-0.5,0-0.7,0c-0.2,0-0.4,0.1-0.6,0.2
		c0.2,0.1,0.4,0.2,0.6,0.3C1170.4,3.5,1171.2,3.9,1172,3.2C1172,3.4,1172.1,3.3,1172,3.2z"/>
	<polygon points="1180.4,2.8 1180.6,2.7 1180.4,2.6 	"/>
	<path d="M1221.2,2.5c1.1,0.6,2.1,1.1,2.9,1.6c0.4,0.3,0.7,0.7,1,1.2c1.6-0.5,1.8-1.2,1.8-1.9c0-0.9,2.4-0.6,2.2-1.7
		c-2.1-0.5-4.3-0.6-6.5-0.5c-1.8,0-3.7,0-5.5-0.3c-0.2,0.5-0.8,1-0.7,1.5c0.3,1,1.6,1.5,3.2,1.8L1221.2,2.5z"/>
	<path d="M1178.7,9.1L1178.7,9.1L1178.7,9.1L1178.7,9.1z"/>
	<path d="M1181,7.2L1181,7.2c-0.1-0.1-0.1-0.2-0.2-0.3c-0.1,0-0.3,0.1-0.3,0.1s0.1,0.1,0.1,0.2L1181,7.2L1181,7.2z"/>
	<path d="M1178.7,9.1L1178.7,9.1L1178.7,9.1L1178.7,9.1L1178.7,9.1z"/>
	<polygon points="1140.8,20.4 1140.7,20.3 1140.5,20.4 	"/>
	<path d="M1146.5,18c0.6,0.1,1.2,0.3,1.7,0.3c0.3,0,0.6-0.3,1-0.6l-5-2.1l0,0h-0.1h0.1c-0.5,0.8-1.3,1.2-2.2,1.2
		c-2.1,0.2-4.2,0.4-6.9,0.7c1.8,0.8,2.5,1.9,5,1.9c0.5-0.3,1.1-0.6,1.7-0.9C1143.2,17.8,1144.9,17.6,1146.5,18z"/>
	<path d="M1158.6,13.4c0.1-0.3-0.5-0.6-1-0.6c-0.1,0-0.2,0-0.3,0c-1.2,0.3-2.2,0.7-2.4,1.7l2.8,1.1
		C1158.1,14.9,1158.4,14.1,1158.6,13.4L1158.6,13.4z"/>
	<path d="M1153,8.7c0.1,0,0.2,0,0.2,0h0.1c0-0.1,0-0.1,0-0.2h-0.4C1152.9,8.6,1152.9,8.7,1153,8.7z"/>
	<path d="M1157.8,8.2L1157.8,8.2c-0.2-0.1-0.4-0.2-0.6-0.3c-0.1,0.1-0.2,0.2-0.2,0.2c0.2,0.1,0.4,0.2,0.7,0.3
		C1157.7,8.4,1157.9,8.3,1157.8,8.2z"/>
	<polygon points="1157.8,15.7 1157.8,15.7 1157.8,15.6 1157.8,15.6 	"/>
	<path d="M1157.8,3.1L1157.8,3.1L1157.8,3.1c-0.3,0.1-0.7,0.2-1,0.4c0.5,0.2,1,0.3,1.5,0.5c0.2,0,0.5-0.1,0.7-0.2
		C1158.6,3.5,1158.2,3.3,1157.8,3.1z"/>
	<path d="M1151.9,5.9L1151.9,5.9L1151.9,5.9z"/>
	<path d="M1157.8,15.7L1157.8,15.7L1157.8,15.7L1157.8,15.7L1157.8,15.7z"/>
	<path d="M1213.9,4.2c0.2-0.6,0.3-1.1,0.3-1.7s-0.6-1-1.5-1.2c-0.2,0-0.3,0-0.5,0c-0.4,0-0.8,0.1-1.1,0.2c-0.9,0.6-1.1,1.3-0.4,2
		C1211.5,4.2,1212.8,4.6,1213.9,4.2z"/>
	<path d="M1162.2,8.1c0.1,0.4,0.4,0.7,0.8,0.8c1.8,0.3,3.7,0.1,5.3-0.6l-0.2-0.6l0,0c-1.3,0-2.7-0.1-4-0.1c-0.3,0-0.6,0-1,0
		S1162.1,7.9,1162.2,8.1z"/>
	<path d="M1151.1,5.8c-0.1,0-0.1,0.3-0.2,0.4c0.3,0.1,0.5,0.1,0.8,0.1c0.1,0,0.1-0.3,0.2-0.4c-0.2,0-0.4-0.1-0.6-0.1
		C1151.2,5.8,1151.2,5.8,1151.1,5.8z"/>
	<path d="M1156,5.9c0.1-0.1-0.2-0.3-0.3-0.4l-1.3,0.5l0.7,0.4C1155.5,6.3,1155.7,6.1,1156,5.9L1156,5.9z"/>
	<path d="M1162.7,3.9l3.4,2.2c0.5-0.1,1.1-0.3,1.5-0.5c0.3-0.2,0.4-0.6,0.2-1c-0.3-0.5-0.9-0.8-1.4-0.9l0,0c-0.2,0-0.3,0-0.5,0
		C1165.1,3.6,1164.1,3.8,1162.7,3.9z"/>
	<path d="M129.5,20.4C129.7,20.5,129.7,20.5,129.5,20.4L129.5,20.4z"/>
	<path d="M1132.6,10.3L1132.6,10.3L1132.6,10.3C1132.6,10.2,1132.6,10.3,1132.6,10.3z"/>
	<path d="M397.4,35.8L397.4,35.8L397.4,35.8L397.4,35.8L397.4,35.8z"/>
	<polygon points="1640.8,29.4 1640.7,29.3 1640.7,29.4 1640.7,29.4 	"/>
	<path d="M1642.9,29.4h-2.1l0,0C1641.4,29.8,1642.2,29.8,1642.9,29.4z"/>
	<path d="M1647.1,29.6L1647.1,29.6L1647.1,29.6z"/>
	<path d="M398.2,34.9L398.2,34.9L398.2,34.9C398.2,34.8,398.2,34.8,398.2,34.9L398.2,34.9z"/>
	<path d="M353.7,33L353.7,33c-0.6,0-1,0.1-0.8,0.6c0.8,0,1.6-0.1,2.3-0.1c0.8,0,1.5,0,2.3,0c0-0.1,0-0.2,0.1-0.3
		C356.2,33.2,355,33.1,353.7,33L353.7,33z"/>
	<polygon points="380.2,32.2 380.3,32.1 380.3,32.1 	"/>
	<path d="M372,32.5c-0.1,0-0.2,0-0.3,0c-0.1,0-0.1,0.2-0.1,0.2c0.2,0.1,0.4,0.1,0.6,0.2c0.1-0.1,0.1-0.2,0.2-0.4c-0.1,0-0.1,0-0.2,0
		L372,32.5L372,32.5z"/>
	<path d="M378,35.7c-0.1-0.2-0.5-0.2-0.9-0.2s-0.7,0.1-0.8,0.2c-0.1,0.2,0.2,0.5,0.4,0.8c0.1,0.1,0.4,0.1,0.7,0.2
		c0.1,0,0.3-0.1,0.3-0.1C377.8,36.2,378.1,35.9,378,35.7L378,35.7z"/>
	<polygon points="377.8,34.2 378,34.2 378,34.1 	"/>
	<path d="M1244.9,0.4l0.7,0.1c0.1-0.1,0.1-0.3,0.1-0.4l0,0c-0.1,0-0.2-0.1-0.3-0.1c0,0,0,0-0.1,0C1245.2,0.2,1245,0.3,1244.9,0.4z"
		/>
	<path d="M1216.4,6.5c0.5-0.3,1.8-0.5,1-1.3c-2.1,0-4.3,0.1-6.5,0.1c-2.1,0-3-0.6-2.9-1.8c0-0.4,0-0.9-0.1-1.3l-0.4-0.7l-1,0.4
		l-4.5-0.6c0.7,0.7,1.3,1.5,1.8,2.3c0.3,0.6,0,1.2-1.7,1.3c-0.3-0.7-0.6-1.3-0.9-1.8c-0.5-0.5-1.2-0.7-1.9-0.6
		c-0.8,0.3-0.8,0.7-0.6,1.2c0.2,0.6,1.7,1.2,0.8,1.8c-1.5,0.1-2.9,0.1-4.2,0.3c-1.3,0.3-2.7,0.1-3.8-0.6l-6.7,0.9
		c0.1,0.6,0.2,1.3,0.4,2c1.9,0.5,3.6,0,5.3-0.1c1.2-0.1,2.2,0.1,2.5,0.9c0.2,0.3,0.4,0.7,1.5,0.5c0-0.5,0.1-1.1,0.2-1.7L1199,8l0,0
		l0,0c0,0,0,0,0.1,0h-0.1c1.8-1.1,4.1-1.3,6-0.4h-0.1h0.1l0,0l0,0c1.1-0.3,2.3-0.5,3.4-0.8C1210.9,6.2,1213.7,6.1,1216.4,6.5z"/>
	<path d="M1230.2,3.5c1.4,0.4,2.9,0.5,4.4,0.2c-0.6-0.4-1.2-0.6-1.9-0.6C1231.8,3.2,1231,3.3,1230.2,3.5z"/>
	<path d="M1238.4,0.6l-4.4-0.1C1235,1.7,1235.1,1.7,1238.4,0.6z"/>
	<path d="M1020.9,18.2L1020.9,18.2L1020.9,18.2z"/>
	<path d="M1191.4,5.2L1191.4,5.2L1191.4,5.2z"/>
	<path d="M1187.7,2.1L1187.7,2.1c-0.4,0-0.7-0.1-1.1-0.1c-1.6,0-2.8,0.5-2.9,1.2c-0.1,0.7,0.9,1.1,3.4,1.3c0.1,0,0.2-0.1,0.5-0.2
		l-1.4-1.2c1-0.3,2.1-0.2,2.9,0.4c0.8,0.5,1.5,1,2.3,1.6l0,0h0.1h-0.1C1191.2,3,1190.5,2.4,1187.7,2.1z"/>
	<path d="M1020.9,18.2L1020.9,18.2L1020.9,18.2z"/>
	<path d="M1020.9,18.2L1020.9,18.2L1020.9,18.2z"/>
	<path d="M1243.8,9.8h-0.5c0.1,0,0.2,0,0.2,0.1C1243.6,9.9,1243.7,9.8,1243.8,9.8z"/>
	<path d="M1196.2,3.7c0.5-0.5,0.2-1.3-0.7-1.7l0,0c-0.4-0.2-0.8-0.3-1.2-0.3c-0.5,0-0.9,0.1-1.3,0.4c0.1,0.8,0.9,1.3,2,1.7
		C1195.4,3.9,1195.8,3.9,1196.2,3.7z"/>
	<path d="M1662.8,1124.4c0.2,0,0.4,0,0.6,0.1l-0.2,0.2h255.7V30.5c-1-0.4-2.1-0.7-3.2-0.9c-3.2-0.6-6.5-0.9-9.7-1.1
		c-3.1,0-6-0.4-9-0.7c-3.8-0.5-7.6-0.8-11.4-0.7c-4,0.2-7.9,0.5-11.9,0.7c-0.6,0-1.3,0.2-1.8-0.2l1.7-1c-1.3-0.2-2.6-0.3-3.9-0.3
		c-3,0.1-5.4-0.5-7.1-2c-1-0.9-2.3-1.5-3.7-1.6c-2.7,0.5-5.6,0.7-8.1,1.7c-1.2,0.5-1.9,0.3-3.4-0.8c-1.5,0.3-2.9,1-4,2.1
		c-0.4,0.3-0.8,0.4-1.2,0.5c-0.2,0-0.5,0-0.7-0.1c-0.2-0.1-0.3-0.3-0.3-0.4c0.7-1,1.5-1.9,2.3-2.8c0.5-0.3,1-0.5,1.6-0.5
		c1,0,2,0.1,3.1,0.3c-0.5-0.6-1.3-0.9-2-0.9c-2.8-0.4-5.5-0.9-8.5-1.4c-1.3,1-2.9,1.5-4.6,1.6c-2.8,0.3-5.7,0.5-8.5,0.8
		c-0.1,0-0.3,0-0.4,0c-3.2,0-6.3,0.2-9.4,0.5c-4.4,0.4-8.9,0.8-13.3,1.2c-0.8,0.1-1.6,0.3-2.3,0.5c0.9,0.7,1.7,1.3,2.4,1.9
		c0.1,0,0.2,0.1,0.3,0.1c-0.3,0.6,0.2,1.1,0.6,1.5c0.3-0.1,0.5-0.1,0.8-0.1c0.3,0.1,0.5,0.2,0.8,0.3c-0.3,0.1-0.6,0.2-1,0.2
		c-0.3-0.1-0.7-0.2-1-0.3c-2.2,0.2-4.4,0.4-6.7,0.6s-4.6,0.4-6.9,0.7v0.3l3.8,0.5l-3.3,0.6l2.2,1.2c-0.5,0.3-1,0.6-1.5,0.8
		c-3,0.6-6.1,0.9-9.1,0.8c0.8-0.2,1.2-0.3,1.7-0.4c0.9-0.2,1.8-0.3,2.7-0.4c1.4-0.2,2.2-0.6,1.8-1c-0.6-0.6-1.6-0.4-2.5-0.3
		c-0.7,0.1-1.3,0.2-1.9,0.2c-2.2,0.2-4.4,0.1-6.5-0.3l2-0.6c-0.3-0.1-0.6-0.2-0.9-0.3c-3.4-0.4-6.8-0.6-10.1-1.1
		c-2.7-0.4-5.5-0.4-8.3-0.1c-0.8,0.1-1.6,0.1-2.4,0c-1.7-0.3-3.4-0.4-5.1-0.4c-4.7-0.4-9.4-0.9-14.2-0.4c-0.3,0-0.5,0-0.8,0
		c-2-0.7-4.4-0.5-6.5-0.8c-4.1-0.8-8.2-0.4-12.1,0.9c-1.8,0.6-3.8,0.8-5.7,0.5c-0.2-0.5-0.4-0.9-0.6-1.3c-4.8-0.4-9.6-0.3-14.4,0.3
		c-0.3,0-0.5,0.1-0.8,0.1c-4.5,0.3-9,0.3-13.5-0.1c-1.2-0.1-2.3-0.4-3.5-0.5c-1.3-0.1-2.6,0-3.9,0c0.1-0.7,2.3-0.3,2.1-1.3
		c-3.1,0.3-6,0.6-9.1,0.8c-3.1,0.2-6.4,0.7-8.8-1.1c-1.7,0.2-3.3,0.4-4.8,0.5c-0.6,0.1-1.3,0.2-1.9,0.1c-1.9-0.5-3.8-0.7-5.8-0.6
		c-0.7,0-1.4,0-2,0c-0.9,0.1-1.7-0.1-2.5-0.6c-1-0.9-2.5-0.7-3.9-0.5c-1,0.1-2,0.5-3,0.5c-2.7,0.1-5.4-0.1-8.1-0.6l4.6-0.7
		c-3.1-0.4-6.3-0.3-9.4,0.3c-2.3,0.4-4.7,0.3-7.1,0c-1.6-0.3-3.2-0.4-4.8-0.3c-1.7-2.1-1.4-1.9-4.7-1.7c-0.3,0-0.6,0-0.9-0.1
		c-0.2-0.2-0.4-0.3-0.5-0.5c-1-1.1-1.3-1.1-2.8-0.3c-0.4,0.2-0.7,0.5-1.3,0.2c0-1.1,0-1.2-1.9-1.4l0,0l0,0l0,0
		c-0.4,0.4-0.5,1-0.3,1.5c-0.3-0.1-0.6-0.2-1-0.3c-1.8-0.4-3.6-0.8-5.4-1c-3.8-0.4-7.6-0.6-11.4-0.8c-5.2-0.4-10.3-0.7-15.5-1
		c-0.9-0.1-1.8,0.1-2.7,0.1c0,0.7,0.6,0.8,1.3,0.8c1.6,0.2,3.2,0.3,4.8,0.4c0.7,0.1,1.3,0.3,1.3,0.8s-0.5,0.7-1.2,0.8
		c-2.6,0.3-5.1,0.5-7.7,0.4c-3.6-0.4-7.3-0.4-10.9,0.1c-0.2,0-0.5,0-0.7,0c-0.2,0-0.3,0-0.5,0c-2.6,0.2-5.1,0.2-7.7,0.5
		c-2.6,0.2-5.2,0.2-7.7,0c-0.1,0-0.3,0-0.4,0c-2.2,0.3-4.5,0.4-6.8,0.2c-2.2-0.2-4.4-0.1-6.6,0.2c-0.3,0-0.5,0-0.8-0.1
		c-3-0.2-3-0.2-5.1,1.2c-3-1.2-3-1.2-8.3-0.6c0.2,0.2,0.4,0.3,0.7,0.6l-6.1,0.2c-0.2-0.5,1.5-0.2,0.7-0.9c-1.5,0-3.1,0.3-4.5,0.8
		c-1.3,0.5-2.7,0.3-3.8-0.4c-0.6,0.6-1,1.4-2.6,1.3c-0.2,0-0.5,0.3-0.7,0.5c-0.7,0.7-1.2,0.8-1.9,0.3c-0.9-0.6-2.1-0.9-3.2-0.8
		c-1.4,0-2.7,0.1-4.1,0c-1.6-0.2-3.1,0.1-4.5,0.8c-0.5,0.3-1.2,0.5-1.8,0.5c-6.3,0-12.6,0.1-18.8-0.1c-2-0.2-4-0.2-6,0.1
		c-0.5,0-1.1,0-1.6,0c-2.4-0.1-4.9-0.3-7.3-0.3c-1,0-1.9,0.1-2.9,0.1c-1.3,0.1-2.6,0.1-4,0.1c-0.8,0-1.6,0-2.4,0.1
		c-1.4,0.2-2.9,0.1-4.3-0.4c-0.2-0.1-0.8,0.1-1.2,0.1c-3.1,0.1-6.2,0.6-9.3-0.2c-0.4-0.1-0.8-0.1-1.2,0c-0.9,0.2-1.9,0.2-2.9,0.1
		c-0.8-0.1-1.6-0.1-2.4,0.1c-1.8,0.4-3.7,0.3-5.5-0.1c-0.5,0-1.1,0-1.6,0.2c-1.8,0.4-3.8,0.4-5.6,0c-0.5-0.1-1.1-0.1-1.6-0.1
		c-2.5,0.1-5.1,0.5-7.5-0.3c-0.6-0.1-1.3-0.1-1.9,0.1c-2.4,0.8-5,0.7-7.3-0.2c-1.2,0.5-2.3,1-3.7,0.4c-0.4-0.1-0.7-0.2-1.1-0.3
		c-1.2-0.4-2.6-0.4-3.8,0.2c-0.4,0.1-0.8,0.2-1.2,0.3l-3.5-0.7l-3.1,0.8l-1.7-1c-2.2,0.2-4.2,0.5-6.2,0.6c-1.8,0.1-3.9,0.4-5.3-0.7
		c-0.5,0-0.9,0-1.4-0.1c-1.1-0.3-2.3-0.1-3.2,0.5c-0.8,0.5-1.8,0.5-2.6,0.1c-1-0.4-1.8-0.9-2.9-1.4c0,0.7,0.1,1.1-1,1.3
		c-2.4,0.5-3.3-0.7-4.6-1.5c-1.2,0.4-2.5,0.8-3.8,0.9c-1.2-0.1-2.4-0.3-3.5-0.6l-6.4,0.9l-1.5-0.8c1.1-0.5,2.4-0.6,3.6-0.5
		s2.6-0.5,4-0.8l-2.8-1.6c-1.2,0.3-2.7,0.5-4.1,0.9c-1.1,0.3-2,0.8-3.1,1.2c-0.8,0.3-1.5,0.6-2.3,0.8c-0.9-0.2-1.7-0.5-2.5-0.9
		l-6.7,1.4c-0.1-0.1-0.2-0.1-0.2-0.2c0.8-1.8,1.8-2.2,4.9-2.2c0.7,0.1,1.5,0,2.2-0.2c1.3-1.1,3.4-1.3,5.1-1.9
		c1.2-0.4,2.3-0.9,3.5-1.3c-0.9-0.4-1.9-0.5-2.9-0.2c-2.3,0.3-4.6,0.8-6.9,1c-5.1,0.6-10.2,1.6-15.2,3c-1.2,0.3-2.7,0.5-4,0.7
		l-2.4-2.6l4.9-1.6h-4l-0.9-1.1l-23,3.3c0.2-0.8,0.3-1.5,0.5-2.2c0.7-0.3,1.4-0.7,2.1-1s1.6-0.6,2.4-0.8c0.8-0.2,1.7-0.5,2.6-0.7
		c0.9-0.2,1.8-0.4,2.6-0.6c0.7-0.2,2-0.1,2-1c-1.1,0-2.2,0.2-3.2,0.4c-2.6,0.8-5.4,1.3-8.1,1.3c-1.5,0.1-3,0.3-4.5,0.8
		c-3.2,1.2-6.7,1.3-10,0.3c1.5-0.9,3.5-0.7,5.1-1.2c-1.6-1-3.6-1.4-5.4-1c-1.1,0.2-2.2,0.2-3.3,0.2c-1.6,0-3.1,0.1-4.7,0
		c-0.3,0-0.6-0.3-1-0.5l3.5-1c-0.6-0.3-0.9-0.5-1.2-0.7c-0.1,0,0-0.2,0.1-0.2c0.3-0.1,0.5-0.2,0.8-0.2c2.5,0,5,0,7.5,0
		c0.3,0.5,0.7,0.9,1.2,1.2c0.5,0.3,1,0.5,1.6,0.5c1.9-0.5,4.4-0.2,6.3-1.3l-1.9-0.8c1.2-0.5,3.1-0.1,4.2-1.3
		c-2.9-0.2-5.9-0.1-8.8,0.2c-2.6,0.3-5.3,0.4-8,0.3c1-0.5,1.4-0.8,1.8-0.8c1.6,0,3.1-0.1,4.6-0.4c1.2-0.2,2.5-0.4,3.7-0.4
		c2.6-0.1,5.1-0.5,7.6-1.3c-3.1-0.4-6.2-0.2-9.2,0.5c-1.7,0.3-3.4,0.5-5.1,0.5c-3.6,0.2-7.3,0.3-10.9,0.5c-1.3,0.1-2.5,0.1-3.8,0.1
		c-0.6,0-1.3-0.1-1.1-0.7l8-1.2l0,0h0.2h-0.1l0,0c0-0.4,0-0.8,0-1.4c-1.6,0-3-0.1-4.3-0.1c-2.4,0-4.7,0.1-7.1,0.1
		c-0.9,0.1-1.9,0-2.8-0.2c-1.8-0.5-3.6-0.7-5.4-0.7l0,0c-2.5-0.1-5-0.3-7.4-0.4l-2.2,1.2c-1.9-0.6-3.9-0.7-5.8-0.4
		c-1,0-2.1,0-3.1-0.2c-0.4,0.3-0.7,0.7-1,1.1c-0.3,0.5-0.9,0.6-1.7,0.7l-3.3-1.5c-1.8,0.4-1,1.5-1.7,2.4l-5,0.1c-1-0.9-1.7-2-4-1.5
		c-0.5,0.1-1,0.3-1.5,0.5l1.6,1.3c-2.3,0.7-3-0.8-4.7-0.9l-0.5,1.4l-2.9-0.1c0.2-0.5,0.3-0.8,0.4-1.2c0.3-0.9-0.7-1.1-1.9-1.1
		c-0.5,0.6-1.3,1-2.1,0.8c-1.4-0.1-2.7,0.1-4,0.7l0,0c-0.4-0.1-0.9-0.2-1.3-0.2c-2.2-0.1-2.1-0.1-2.9,1.1c-0.3,0.5-0.7,0.8-1.2,1
		c-1.5,0.4-1.9,1-1.7,1.9c0.1,0.6-1.2,0.8-2.1,0.4c-0.4-0.2-0.9-0.5-1.3-0.8l-4.1,1.9c0,0.5-1.6,0.8-0.3,1.5l3-0.6
		c0.4,0.5,0.8,1.1,1.1,1.7c0.2,0.7,0.3,1.4,0.3,2.2c1.9-0.2,3.8-0.5,5.6-1c-0.5-0.5-0.9-1-1.2-1.6c-0.5-1.3,0.3-2,2.7-2.3
		c0.3,0,0.6-0.1,1,0c0.1,0,0.2,0,0.4,0c-1.2,1.7-1.2,1.7,1.1,2.7l0,0l0,0h0.1h-0.1l2.2-0.8c3.2,2.1,3.2,2.1,0.4,4.3
		c-1.5-0.3-3-0.5-4.5-0.6c-1.7,0.1-3.4,0-5.1-0.2c-0.3,0-0.6,0.1-0.8,0.2c-1.9,1.1-4.9,0.6-6.9,1.6c-0.7,0.3-1.5,0.3-2.3,0.1
		c-1.7-0.6-2.9,0.2-4.6,0.4c-0.1-0.8-0.2-1.4-0.2-2.2c2.7-0.5,5.5-0.3,8.2-0.9c-1-0.6-1.9-1.3-2.6-2.1c-0.5-0.7-0.2-1.5-0.3-2.3
		c-2.8-0.4-2.8-0.4-5,0.6c1.5,0.8,2.7,1.8,1.7,3.1l-3.5,0.9c-0.2,1.1-0.4,2.1-0.6,3c-2.3,0.8-3.5-0.6-5.4-0.6l-3.6,1.5
		c-1.4,0.6-3,0.6-4.4,0c-0.8-0.3-1.5-0.6-2.4-0.9l-4.2,1.6l-7.2-1.4c-0.7,0.3-1.5,0.5-2.2,0.7c-1.4,0.2-2.8,0-4.2,0.2
		c-1.5,0.2-2.8,0.9-4.2,1c-4.4,0.3-8.8,0.5-13.2,0.6c-0.6,0-1.1,0-1.7,0c-1.3-0.1-2.6,0-3.9,0.4c-0.6,0.1-1.2,0.1-1.8,0
		c-1.9-0.3-3.7-0.6-5.3,0.3c-0.6,0.2-1.2,0.2-1.8,0.1c-2.1-0.5-4.3-0.4-6.4,0c-1.9,0.6-4,0-5.4-1.4c-0.3-0.3-0.6-0.5-0.9-0.7
		c-2.5,0.3-0.9,1.8-2.4,2.3c-0.3,0-0.5,0.1-0.8,0.1l0,0c-2.1-0.3-4.2-0.4-6.4-0.4c-1.6-0.3-3.2-0.3-4.8-0.1c-0.8,0-1.6-0.1-2.4-0.2
		c-0.9-0.1-1.9-0.1-2.8,0c-0.6,0-1.2,0.1-1.7,0.3c-0.3-0.1-0.6-0.2-0.9-0.4c-1.4,0.3-2.9,0.6-4.4,0.7h-1.5c-3.1-0.3-6-0.3-9-0.4
		c-0.6,0-1.3,0-1.9,0c-2.2-0.2-4.5-0.2-6.7,0c-0.4,0-0.8-0.1-1.2-0.2c3.1,0,6-0.9,9.2-0.5c2,0.2,4.1,0.2,6.1-0.1
		c2.6-0.4,5.3-0.6,8-0.6c0.8,0,2,0.1,2.3-0.8c-1.3,0-2.6,0-3.8,0c-2.8-0.1-5.7-0.3-8.5-0.4c-3.9-0.1-5.9-1.8-8.5-3.1
		c-0.9-1.8-3.5-2.4-6.2-3.1l1.1,1.2l0,0c-0.4,0.1-0.9,0.2-1.4,0.2c-0.8,0-1.6-0.2-2.3-0.7l2.5-0.7l-0.3-0.1c0.1,0,0.2,0,0.3,0
		c0.2-0.2,0.3-0.4,0.4-0.6c-0.2-0.1-0.5-0.1-0.7-0.1c-0.2,0.2-0.4,0.3-0.5,0.6c-1-0.3-2-0.5-3.1-0.6c-1.2-0.2-2.5-0.1-3.7,0.1
		c-2.2,0.6-4.6,0.7-6.9,0.3c-2.6-0.3-5.3-0.6-8-0.8s-5.4-0.3-8-0.4c-1.9-0.1-3.8,0-5.7-0.1c-3.8-0.2-7.6-0.4-11.3-0.7
		c-1.2,0-2.4-0.2-3.6-0.5c-3.3-1.9-7.5-1.6-11.6-1.8c-0.6,0.1-1.1,0.2-1.7,0.3c3.3,1.1,7.3,0.2,10.5,1.9c-1.2,0.3-2.4,0.4-3.7,0.3
		c-0.7-0.1-1.5-0.1-2.2,0c-1.7,0.2-3.4,0.3-5.2,0.4c-0.9,0-1.9,0-2.8,0s-1.9,0-2.8,0c-1.8,0.1-3.6,0.2-6.1,0.4l3.7,1.6
		c-3.2,0.2-6.2,0.5-9.1,0.6c-2.2,0.1-4.4,0.1-6.6,0.2c-3.7,0.1-7.4,0.8-11.1-0.2c-0.5,0.1-1,0.2-1.4,0.4l3.3,1.1l-0.3,0.4l-8.6-0.6
		c-0.5-0.3-1-0.7-1.5-1.1l-0.4,0.3c-0.6-0.5-1.3-0.8-2.1-0.6v1.1c-1.3,0.4-2.8,0.6-4.2,0.4c0.5-0.1,1-0.3,1.5-0.4
		c0.1,0,0.1-0.2,0.1-0.4c-1.1-0.2-2.3,0.1-3.2,0.7c-2.5-0.1-5-0.2-7.5-0.3c-2.5-0.1-5.1-0.1-7.6-0.3c-2.7-0.2-5.4-0.2-8.1,0
		c-4.2,0.4-8.5,0.3-12.7-0.4c-2.5-0.4-5-0.6-7.5-0.5c-4.1,0.1-8.2,0.2-12.3,0.1c-3.1-0.1-6.2-0.1-9.3-0.1c-1.6,0-3.3,0-4.9,0
		c-0.3,0-0.5,0-0.8,0c-1,0-2,0-2.9-0.2c-0.9-0.3-1.7-0.7-2.4-1.2l-3,1.2c-1.5-0.2-2.7-0.3-4-0.4c-7-1-8.2-1-16.1-0.1
		c-0.6,0-1.3,0-1.9,0c-4.1-0.1-8.2-0.2-12.3-0.3c-0.1,0-0.2,0-0.3,0.1c-0.1,0-0.1,0.1-0.1,0.1v1.9c0.7,0.2,0.8,0.4-0.1,0.6h0.1h-0.1
		l0,0c-1.4,0.4-2.8,0.7-4.3,1c-1.8,0.2-1.7,1.5-3.4,1.8c-0.3,0-0.6,0.2-0.9,0.2c-1,0.2-2,0.7-2.8,1.4c-0.6,0.5-1.4,1-2.2,1.5
		c-1.5-0.4-3.1-0.4-4.2-1c1-0.3,2-0.4,3.1-0.3c1.4,0.2,2.8-0.1,4-0.8l-1.9-0.8l0,0H778l0,0l-2.9-0.8c-0.7,0.3-1.3,0.6-2,0.8
		c-0.5,0.2-1.1,0.6-1.7,0.2c-0.6-0.3,0-0.7,0.3-1c0.2-0.2,0.2-0.4,0.3-0.7c-1.4,0.2-2.5,0.3-3.6,0.4c-1.3,0.1-2.7,0.1-4,0.2
		c-1.3,0-2.6,0.4-3.6,1.2l-3.6-0.9c-2,1-4.3,1.2-6.6,0.8c-1.3-0.9,0.8-1.4-0.2-2.2c-1.5,0.2-1.8,1.1-2.6,1.6
		c-1.3,0.8-2.8,1.1-4.3,0.7c-2.6-0.8-5.4-0.7-8.1-1l-1.8-1.1c-2.5,0.5-4.8,1.9-7.3,0.3c-1.9,1.8-1.9,1.8-4.9,1.4
		c-0.7-1,1.7-1.2,1.9-2.2c-0.6-0.2-1.3-0.2-1.9-0.2c-2.1,0.4-4.2,0.5-6.2,0.1c-3-0.4-6.1-0.4-9.1-0.2c-1.4,0.1-2.9,0.1-4.3,0
		c-3.4-0.1-6.9-0.1-10.3-0.2c-2,0-3.6,0.4-4.6,1.4c-0.3,0.1-0.5,0.1-0.8,0.1c-0.1-0.5-0.2-1-0.3-1.6c-2.6-0.3-5.3-0.2-7.9,0.1
		c-0.7,0.1-1.4,0.4-2,0.7c-0.5,0.2-1,0.5-1.5,0.7c-0.3,0-0.5,0-0.8,0c0.1-0.4,0.3-0.8,0.5-1.3c-0.9-0.1-1.5-0.2-2.1-0.2
		c-2.7,0-5.5,0.4-8.1,1c-1.6,0.5-3.3,0.7-5,0.5l0.1-0.6c-2.2-0.5-4.4-0.6-6.6-0.3c-2,0.3-3.9,0.2-5.9,0c-3.5-0.5-7.1-0.5-10.6,0
		c-1.2,0.1-2.3,0.1-3.5,0.1c-3.2,0-6.4,0-9.5,0c-0.4,0-0.8,0-1.2,0c-0.9,0-1.8,0-2.7,0c-3.4-0.3-6.9-0.2-10.3,0.1
		c-0.8,0.1-1.6,0.1-2.4,0c-1.4,0-2.9-0.1-4.3,0c-2.6,0.2-5.3,0.1-7.9-0.2c-2.1-0.3-4.2-0.3-6.3,0c-1.2,0.2-2.3,0.2-3.5,0
		c-2.6-0.5-5.2-0.5-7.8,0c-0.9,0.2-1.8,0.2-2.7,0.1c-3.2-0.6-6.5-0.7-9.7-0.4c-0.9,0.1-1.9,0.1-2.8,0.1c-1.6,0-3.2,0.1-4.8,0.1
		s-3.1,0.2-4.7,0.3c-1.8,0.1-2.1,1.3-4,1.6c-0.2-0.5-0.4-1-0.6-1.5c-2.3,0-4.4,0-6.5,0c-2.7,0-5.3,0.2-8,0.2c-2,0-3.3,0.4-3.8,1.6
		c-0.1,0.3-0.5,0.6-0.8,0.9c-2.3-0.2-2.5-1.5-4-2l-2.2,0.1c-0.2-0.2-0.4-0.4-0.6-0.7s-0.3-0.5-0.6-1.1l3.4,1
		c-0.1-0.8-0.4-1.5-0.7-2.2c-0.1-0.2-0.9-0.4-1.4-0.6c-0.7,0.6-1.4,1.1-2.1,1.5c-1.4,0.8-3.1,1-4.6,0.4c-2.4-0.8-4-0.7-7.5-0.1
		l4.4,0.7c-2.1,0.5-4,1-5.9,1.5c-0.5,0.1-1,0.1-1.6,0.1c-4.1,0-8.1,0.3-12.1,0.8c-1.5,0.4-3.1,0.2-4.5-0.3c-1.1-0.4-2.3-0.5-3.4-0.2
		c-1.4,0.3-2.7,0.6-4,1c-5.1,1.6-10.5,1.9-15.7,1c-0.2,0-0.5-0.1-0.7-0.1l0.1-0.7c-0.8-0.3-1.7-0.7-2.6-1c-1-0.3-2.1-0.3-3,0.1
		c-1,0.3-1,0.8-0.7,1.4c0.1,0.1-0.1,0.3-0.2,0.4c-1.8,0.7-3.6,0.2-5.4,0.1c-1.6-0.2-3.3,0-4.8,0.7c-0.2,0-0.5,0-0.7-0.1
		c-0.3-0.5,1-1.1-0.1-1.7c-0.6,0-1.2,0-1.9,0c-0.9,0-1.8,0.1-2.8,0.1c-1.1,0-1.4-0.4-1.1-1.3c0-0.1,0-0.3,0-0.4
		c-2.2-0.3-3.6,0.9-5,1c-1.5-0.4-2.6-0.7-3.7-0.9c-1.1-0.2-2.3-0.4-3.4-0.5c-2.3-0.3-4.6-0.7-7-0.9c-1,0-2,0-3,0.1
		c-0.4,1.1-1.2,2-1.3,3.1c-2.1,0.2-4.2,0.5-6.2,0.7c-1.5-0.5-2.9-1.2-4.9-0.6l-3.6-0.8c-1.1,0.4-2.2,0.6-3.4,0.8
		c-2.4,0.2-4.8,0.3-7.2,0.4c-2.8,0.1-3.7-0.3-4.6-1.9c-0.1-0.1-0.1-0.3-0.2-0.4c-0.3-0.2-0.7-0.3-1.1-0.3c-0.3,0-0.7,0.3-0.7,0.4
		c0.1,0.8,0.2,1.5,0.4,2.3c-0.4,0.1-0.9,0.1-1.3,0.1c-1.3-0.6-2.8-0.7-4.2-0.3c-1.7,0.3-3.4,0.2-5-0.4c-0.2-0.5-0.4-0.9-0.6-1.4
		c-0.4-0.4-1.1-0.5-1.7-0.2c-0.4,0.2-0.8,0.4-1.1,0.7c0.4,0.4,0.7,0.8,1,1.3c-1.8,0.1-3.4,0.3-5.1,0.2c-1.5-0.1-3-0.7-4.3-1.6
		l-1.9,1.6l-1.6-1c-2.6,0.6-5.3,0.4-7.9,0.5c-0.4-0.6,1.5-1,0.2-1.5c-3.5,1-3.5,1-8.4,1.1c-0.5,0-1.1,0-1.7,0c-1-0.3-2-0.7-3-1.2
		c-1.2-1-2.8-1.1-4.7-0.9c-0.6,0.6-1.2,1.2-1.9,1.8c-0.5-0.1-1-0.2-1.5-0.2c-1.9,0.3-3.3,0.2-4.5-0.8c-1.1-0.7-2.4-1-3.6-0.7
		c-0.8,0.1-1.6,0.1-2.3-0.1c-1-0.2-2.1-0.3-3.1-0.3c-0.3-0.5-0.8-0.8-1.3-0.7c-0.9-0.1-1.9,0-2.8,0.1c-2.2,0.3-4.4,0.3-6.5,0
		c-3.5-0.3-7.1-0.4-10.6-0.1c-1.9,0.1-3.8,0-5.6-0.4c-0.9-0.2-1.8-0.3-2.7-0.2c-1.5,0.3-2.9,0.3-4.4,0.2c-1.2-0.1-2.4-0.1-3.6,0
		c-1.4-0.3-2.9-0.4-4.4,0c-1.2,0.1-2.4,0.2-3.6,0.3c-0.2-0.4-0.3-0.8-0.5-1.3c-0.8,0-1.7,0.1-2.4,0.1c-1,0.1-2,0-3.1,0
		c-1.1-0.1-2.2-0.1-3.4,0c-1.6-1-3.5-0.4-5.3-0.3c-0.7,0-1.3,0-1.9,0l-1.4-1.2c-0.8,0.2-1.4,0.3-2,0.5c-1.6,0.4-3.2,0.5-4.8,0.4
		c-2-0.1-4.1-0.2-6.1-0.2c-0.7,0-1.3,0-2,0c-2,0.1-4.1,0-6.1-0.5c-0.4-0.1-0.8-0.1-1.2-0.1c-3.8,0-7.7,0.1-11.5,0.1
		c-3.4,0.1-6.8,0.2-10.2,0.2c-0.9,0.1-1.9,0-2.8-0.2c-1.3-0.3-2.7-0.3-4-0.1c-1.1,0.1-2.2,0.2-3.2,0.3c-1.1,0.2-2.3,0-3.4-0.5
		c-0.4-0.2-0.9-0.3-1.4-0.3c-1.4,0-2.8,0.2-4.2,0.4c-1.5,0.3-3,0.4-4.5,0.4c-2.7,1-5.7,0.7-8.7,0.8c-0.1,0-0.2-0.2-0.4-0.4l2.8-0.7
		c-1.3-0.1-1.8-0.1-2.3-0.1c-1,0.1-2,0.4-2.8,0.9c-1.6,0.7-1.9,0.7-4.7,0.3c0.9-0.5,0.9-0.5,0.9-1.9c-0.4,0-0.8,0-1.2,0
		s-0.8,0-1.2,0.1c-1.6,0.2-1.7,0.3-2,1.4c-0.1,0.2-0.1,0.4-0.2,0.6c-1.1,0.2-2.2,0.4-3.2,0.5c-0.6,0-1.2,0-1.8-0.2
		c0.4-1.1,1.5-1.7,2.6-1.7c0.2,0,0.3-0.3,0.5-0.5c-5-0.1-5-0.1-7.2,1.1c0.7,0.9,0.7,1.2-0.5,1.5s-2.4,0.4-3.5,0.2
		c-0.1-0.1-0.2-0.1-0.2-0.2c-0.3-1.5-0.5-1.7-2.8-1.6c-1.3,0.2-2.6,0.1-3.9-0.2l0,0h-0.1h0.1c-1.3,0.1-2.7,0.2-4,0.4
		c-0.7,0.1-1.2,0.4-1.1,0.9c0.1,0.3,0.3,0.6,0.6,0.8c0.6,0.3,1.3,0.2,1.8-0.1c0.4-0.2,0.9-0.6,1.1-0.6c1,0.2,1.9,0.2,2.9,0.1
		c0.5,0,1-0.1,1.5,0c0.6,0,1.3,0.3,1.2,0.9c-3.4,1-6.8,1.5-10.3,1.6c0.1-0.2,0.2-0.4,0.2-0.6c0-0.1,0.1-0.4,0-0.4
		c-1.7-0.4-1.7-1.6-3.2-2.2c-2.1-0.1-4.4-0.1-6.1-1.2c-0.8-0.4-1.8-0.2-2.5,0.4c-0.8,0.8-2,1-3.4,1c-0.5,0-1.1,0-1.6,0.1h-0.1
		l-5-0.6c0.1-0.1,0.1-0.3,0.3-0.7c-1.7,0-3.3,0.1-4.9,0.1c-0.8,0-1.6,0.1-2.3,0.2c-0.1,0.5-0.1,1-0.1,1.5c-1-0.2-1.7-0.4-2.4-0.6
		c-2.4-0.7-4.9-0.9-7.4-0.7c-6.9,0.4-13.9,0.7-20.8,0.8c-7.9,0.1-15.8,0.7-23.6,1.6c-4.4,0.5-8.9,0.8-13.4,0.9c-0.9,0-1.9,0-3.1,0.1
		l1.8,0.6c-1.6,0.6-3.3,0.9-5.1,0.9l-0.9-0.8c-1.3,0-2.5,0.2-3.7,0.6c-0.7,0.2-1.4,0.1-2-0.1C31,23,30.3,23,29.6,23.1
		c-0.5,0.2-1,0.2-1.5,0.4c-0.9,0.3-1.8,0.4-2.7,0.5c-1.9,0.1-3.8,0.6-5.5,1.4c-1.1,0.5-2.2,1-3.4,1.2c-3,0.5-6.1,0.8-9.2,0.8
		c-2.7,0-5.1,0.3-7.3,0.9v3.2c0.9-0.1,1.7-0.1,2.6-0.2c1.7-0.2,3.5-0.1,5.1,0.4c0.5,0.2,0.9,0.5,1.3,0.9c-2.8,0.8-5.9,0.4-9,0.6v1.1
		c3.2-0.1,6.3-0.2,9.5-0.3c1,0,1.9-0.1,2.5,0.7c-0.6,0.6-1.3,1.2-1.9,1.9C9,37.7,7.5,38.5,6,38.8c-1,0.3-2.1,0.7-3.1,1.1
		c-0.8,0.3-1.2,0.8-0.9,1.4c0.9,0.2,1.8,0.3,2.8,0.5c-0.4,0.8-0.8,1.6-1.1,2.3c0.9-0.1,1.8-0.2,2.8-0.2s1.5,0.9,0.8,1.3
		c-1.2,0.6-2.4,1.2-3.8,1.9c-1.1-1.1-0.4-2,0.3-2.9c-1.6,0.9-2.7,2-3.6,3.1v1077.4h1662.3
		C1662.6,1124.6,1662.7,1124.5,1662.8,1124.4z M1819.4,23.6c0.3,0,0.7,0,1,0.1c0,0.1-0.1,0.2-0.1,0.2l0,0c-0.2,0-0.4,0-0.6,0h-0.5
		C1819.4,23.7,1819.4,23.6,1819.4,23.6z M1830.6,24.2c-1.4,0.2-2.8,0.4-4.2,0.5c-1.8,0.1-3.5,0.4-5.2,1l0,0
		c-0.4,0.2-0.8,0.2-1.3,0.2c-0.6,0-1.2-0.2-1.7-0.5C1822,23.9,1826.3,24,1830.6,24.2z M1811.3,27L1811.3,27
		C1811.2,27,1811.2,27,1811.3,27c-0.2,0-0.2,0-0.3,0c0-0.1,0-0.1,0-0.1C1811.1,26.9,1811.2,26.9,1811.3,27
		C1811.3,26.9,1811.3,27,1811.3,27z M1808.3,24.5c0.9,0,1.8,0,2.7,0.1l0,0c0.2,0.6-0.4,0.8-1.1,0.8c-0.1,0-0.2,0-0.3,0
		c-0.7-0.1-1.4-0.2-2.1-0.4C1807.8,24.7,1808.1,24.5,1808.3,24.5z M1803,26.9c-0.4,0-0.7-0.1-1.1-0.2c0.2-0.5,0.4-1,0.7-1.6
		c0.7,0,1.3,0,2-0.2c0.9-0.2,1.9-0.2,2.9,0c0.2,0.6,0.3,1.3,0.5,2c-1,0-2.1,0-3.2,0C1804.2,26.9,1803.6,26.9,1803,26.9z
		 M1798.4,29.4c-0.6,0.4-1.3,0.6-2,0.5c-0.2,0-0.4,0-0.7,0C1796.5,29.5,1797.5,29.3,1798.4,29.4z M1739.2,40.2l-0.3-0.1l0.3-0.1
		V40.2z M1762.3,36.1l0.2-0.1l0.1,0.1H1762.3z M1767.5,35.4c0,0.1,0.1,0.1,0,0.2l0,0c-0.2,0.1-0.3,0.2-0.5,0.2L1767.5,35.4z
		 M1766.2,36c0.2,0,0.4,0,0.6,0c-0.2,0.1-0.3,0.1-0.5,0.2l0,0c-0.1,0-0.2,0-0.3,0C1766.1,36.1,1766.1,36,1766.2,36z M1735.8,35.1
		c3.1-0.5,6.1-0.9,9.2-1.3c0.9-0.1,1.8-0.1,2.7,0.1c3.5,1.1,7.3,1,10.7-0.4l6.6,0.5c-0.6,0.2-1.2,0.4-1.9,0.6
		c-1.6,0.3-3.4,0.2-4.8,1l0,0c-0.3,0.1-0.5,0.2-0.8,0.1c-0.1,0-0.2,0-0.3,0c-2.4-0.5-4.7,0.1-7.1,0.1c-3.4,0.1-6.9,0.1-10.4,0.2
		c-0.8,0-1.6-0.1-2.4-0.2c-0.6-0.1-1.2-0.2-1.8-0.3C1735.7,35.2,1735.7,35.1,1735.8,35.1z M1733,37.7c0.4,0,0.8,0.1,1.1,0.2
		c-0.3,0.2-0.6,0.3-0.9,0.4h-0.1c-0.3,0-0.6-0.1-0.8-0.2C1732.6,38,1732.7,37.8,1733,37.7z M1259.8,13.8L1259.8,13.8
		c-0.7,0.4-1.4,0.6-2.2,0.6c-0.5,0-1.1-0.1-1.6-0.3C1257.2,13.6,1258.6,13.5,1259.8,13.8z M1170.5,15.2L1170.5,15.2
		c-0.1,0.1-0.1,0.1-0.2,0.2l-1.4-1.4l2.2,0.3C1170.8,14.6,1170.7,14.9,1170.5,15.2z M1170.8,11.5L1170.8,11.5l1.8-0.8
		C1172.4,11,1172.2,11.5,1170.8,11.5z M1027.3,23.3c0.2-0.1,0.4-0.2,0.6-0.3c0.2,0.1,0.3,0.2,0.4,0.4c0.1,0.1-0.3,0.3-0.5,0.4l0,0
		c-0.2,0.1-0.4,0.1-0.7,0.1c-0.3,0-0.7-0.1-0.9-0.3C1026.5,23.5,1026.9,23.4,1027.3,23.3z M1025.3,22.6c0,0.1,0.1,0.1,0.1,0.2
		c0,0,0,0,0,0.1l-0.4-0.3C1025.1,22.5,1025.3,22.5,1025.3,22.6z M3.2,49.4c0-0.1,0-0.1,0-0.2c0.1,0,0.2-0.1,0.3-0.1
		c0.1,0,0.1,0.1,0.2,0.1L3.2,49.4z M19.8,31.3L19.8,31.3l1.3-0.1v0.1H19.8z M23.1,26.6L23.1,26.6c-0.2,0-0.4-0.1-0.6-0.1
		c0.2-0.1,0.4-0.1,0.6-0.2c0.1,0,0.2,0,0.3,0.1C23.3,26.5,23.2,26.6,23.1,26.6z M95.4,20.2L95.4,20.2c0,0-0.1-0.2-0.2-0.3
		c0.2,0,0.5,0,0.7,0c0.1,0,0.1,0.1,0.1,0.2C95.9,20.1,95.7,20.1,95.4,20.2z M103.8,22.6L103.8,22.6c-0.3,0.3-0.5,0.5-0.8,0.7
		l-0.6-0.2c0.2-0.3,0.5-0.5,0.7-0.7c0.2,0,0.4,0,0.7,0C103.8,22.4,103.8,22.5,103.8,22.6z M106.5,24.5L106.5,24.5
		c-0.3,0-0.5-0.3-0.7-0.4c0.2-0.1,0.4-0.3,0.6-0.3c0.4,0,0.8,0.1,1.2,0.2C107.2,24.3,106.8,24.4,106.5,24.5z M108.5,20.5L108.5,20.5
		c-0.3,0.4-0.7,0.6-1.1,0.6c-0.1,0-0.2,0-0.4,0c-0.1,0-0.2-0.1-0.2-0.2c-0.1-0.5,0.4-0.7,1.1-0.8c0.2,0,0.5,0,0.7,0
		C108.5,20.3,108.6,20.4,108.5,20.5z M113,26.6l0.2-0.1v0.1H113z M123.4,19.6l-1.5,0.3c0-0.1-0.1-0.2-0.1-0.3H123.4z M120,23.8
		c-0.4,0.1-0.8,0.1-1.2,0.1c-0.2,0-0.5,0-0.7,0l0,0c1.2-1,1.2-1,3.1-0.9l0,0C120.8,23.3,120.4,23.6,120,23.8z M121.3,22.9h1.6
		c-0.3,0.1-0.5,0.2-0.8,0.2C121.8,23.1,121.5,23,121.3,22.9z M137.5,22.9c-1.3,0.5-2.7,1-4,1.5c-2.3,0.9-4.7,1.8-6.8,2.9l0,0
		c-0.7,0.4-1.4,0.5-2.2,0.5c-0.4,0-0.8,0-1.2-0.1c-0.3-0.9,1.8-0.8,2.1-1.5c0.2-0.6,1.5-1,2.5-1.7c-0.8-0.2-1.7-0.3-2.5-0.3
		c-0.6,0-1.2,0-1.8-0.1c-0.6-0.4,0.2-0.5,0.3-0.8c0.2-0.4-0.2-0.5-0.8-0.6l4.1-0.9c0.2-0.4-0.4-0.5-0.9-0.6c-2-0.2-4-0.1-6,0.4
		c-1.5,0.5-3.2,0.3-4.6-0.5c1-0.7,2.3-1,3.6-0.7c3.3,0.6,6.7,0.5,10-0.3l0,0h0.4l-0.3-0.1l0,0c1.2-0.8,2.7-0.4,4.1-0.3l2.4,2.2
		l2,0.2C137.6,22.6,137.6,22.8,137.5,22.9z M301.5,34.2L301.5,34.2h0.3H301.5z M303,32.8L303,32.8h0.3H303z M309.7,22.9L309.7,22.9
		c0,0-0.2-0.1-0.2-0.2c0.1-0.1,0.2-0.2,0.4-0.3l0.4,0.3C310.1,22.8,309.9,22.9,309.7,22.9z M313.5,23c0.1-0.1,0.3-0.2,0.4-0.3
		l0.3,0.1c0,0.1-0.1,0.2-0.2,0.3C313.8,23.1,313.7,23,313.5,23z M317.1,22.5L317.1,22.5c-0.2,0-0.4-0.1-0.6-0.2
		c-0.1-0.1,0.1-0.2,0.3-0.3c0.2-0.1,0.4-0.1,0.6-0.2c0,0.1,0.1,0.3,0.1,0.4C317.4,22.4,317.3,22.5,317.1,22.5z M332.9,34.5
		c-0.7,0-1.4-0.1-2.1-0.3l4.7-0.2l0,0C334.6,34.3,333.8,34.5,332.9,34.5z M392.5,28.8c0.6-0.2,1.2-0.1,1.7,0.4
		c-0.1,0.1-0.1,0.3-0.3,0.4l0,0c-0.2,0.1-0.3,0.1-0.5,0.1c-0.4,0-0.8-0.1-1.1-0.5C392.2,29.1,392.3,28.9,392.5,28.8z M392.1,30.6
		c0.6-0.2,1.2-0.3,1.8-0.2c0.3,0,0.6,0.2,0.8,0.4c0.1,0.2,0,0.5-0.2,0.6l0,0c-0.7,0.5-1.6,0.7-2.5,0.7c-0.5,0-0.9-0.1-1.4-0.2
		C391.1,31.4,391.6,30.9,392.1,30.6z M386.4,29c0.3,0,0.7,0.1,1,0.3c0.1,0.1-0.2,0.5-0.4,0.5l0,0c-1,0.1-2.1,0.1-3.1,0.2
		C384.5,29.4,385.4,29.1,386.4,29z M382.5,28.8l0.3,0.1c0,0.1,0,0.1,0,0.2c-0.1,0-0.2,0.1-0.3,0.1C382.4,29,382.5,28.9,382.5,28.8z
		 M372.7,30c0.1,0,0.2,0,0.3,0v0.1h-0.1C372.8,30.1,372.8,30.1,372.7,30C372.6,30.1,372.6,30,372.7,30z M336.9,23.2
		c0.3,0,0.6,0.2,0.8,0.4l0,0c0,0.1-0.4,0.3-0.7,0.6c-0.4-0.2-0.8-0.4-0.8-0.5S336.6,23.2,336.9,23.2z M336.6,33L336.6,33
		c-0.2,0-0.3-0.1-0.5-0.3c0.2-0.2,0.4-0.3,0.6-0.4l0.6,0.3C337.1,32.8,336.9,32.9,336.6,33z M339.7,37L339.7,37l1.4-0.1V37H339.7z
		 M342.4,34.2l-5,0.1l5.6-1.8C342.8,33.3,342.6,33.7,342.4,34.2z M345.2,30.9l-3.8,0.1c0-0.1,0-0.1,0-0.2l3.8-0.1
		C345.2,30.8,345.2,30.8,345.2,30.9z M346.4,32.7c0,0,0.1,0.1,0.1,0.2l0,0c0,0-0.1,0.1-0.2,0.1l-0.2-0.3L346.4,32.7L346.4,32.7z
		 M348.5,36.3c0.3-0.1,0.7-0.1,1-0.1c0.6,0.1,1.1,0.2,1.7,0.5c-0.4,0.1-0.8,0.2-1.2,0.2C349.4,37,348.9,36.7,348.5,36.3z
		 M359.1,37.4L359.1,37.4c-0.5,0.4-1.2,0.6-1.9,0.6c-0.3,0-0.7,0-1-0.1c-0.9-0.2-1-0.7-0.6-1.3c0.8-0.1,1.6-0.3,2.5-0.3
		c0.4,0,0.9,0.1,1.2,0.4C359.6,36.8,359.4,37.2,359.1,37.4z M357.1,34.4c-3.3,0.1-6.7,0.2-10.9,0.3c1.9-0.8,3.7-1,4.1-2
		c0.1-0.2,0.9-0.3,1.3-0.4c1.1-0.3,2.2-0.5,3.5-0.8c0.4,0.3,0.9,0.6,1.4,0.8l0,0c0.2,0,0.3,0.1,0.5,0c0.5,0,1-0.1,1.5-0.1
		c1.3,0,2.6-0.6,4.5,0.2l-2.9,0.4C359.5,34.2,359.4,34.3,357.1,34.4z M364,36.7L364,36.7c-0.4,0.3-0.8,0.4-1.3,0.5
		c-0.3,0-0.7-0.1-1-0.2l2.8-1.5C364.6,36.2,364.6,36.4,364,36.7z M367.2,37.7c-0.3,0-0.5-0.1-0.8-0.2h1.6l0,0
		C367.7,37.6,367.5,37.7,367.2,37.7z M378,39l-0.1-0.9l0,0C378.5,38.4,378.3,38.7,378,39z M387.2,36.7L387.2,36.7
		c-0.2,0-0.4-0.1-0.6-0.2l0.4-0.3l0.6,0.2C387.5,36.5,387.3,36.7,387.2,36.7z M387.9,35.4c-1.4,0.2-2.9,0.3-4.5,0.4
		c0-1.2,0.5-1.9,2.3-2.4l-4.7-0.2c-1.5,1.2-0.6,2.2,0.4,3.2l-3.6,1.7c-0.7-0.2-1.8-0.2-2.1-0.5c-0.9-0.9-2.2-0.7-3.5-0.6
		c-1.4,0.1-2.8,0.3-4.2,0.5c0.4-1.1,1.6-1.7,3.4-1.8c1-0.8-1.8-0.6-0.7-1.3c-0.6-0.5-1.4-0.6-2.1-0.4c-1.9,0.3-3.8,0.4-5.7,0.2
		c-0.1-1.6,2.7-1.1,3.6-1.9l1.7,0.6l0.9-1.3c1.1,0,2.3,0,3.5-0.1c0.9-0.1,2.2-0.2,2.3-0.8c0.3-1.3,2-1.3,3.6-1.3
		c0.1,0,0.3,0,0.7,0.1c0.3,0.3,0.6,0.7,1,1.1c0.3,0.3,0.7,0.6,1,0.9l-1.1,0.7c0.5,0.2,1,0.3,1.6,0.3s1.2-0.2,1.7-0.5
		c1.4-0.8,3-1.3,4.7-1.3c0.3,0,0.7,0,1,0.1c-0.4,0.6-0.7,1.3-0.9,2c-0.1,0.5,1,0.8,1.7,0.6c2.8-0.8,2.8-0.9,4.9-0.8
		c-0.6,1.2-1.5,2.1-4,2.2C390,34.9,389,35.3,387.9,35.4z M404.1,36.1c-0.4,0.6-1,1.1-1.7,1.4c0-0.4-0.1-0.8-0.1-1.3
		c-1.9,0.4-3.5,0.5-4.9-0.3c-1,1.3-2.4,2.2-3.9,2.5c-0.5,0.1-0.9,0.1-1.4,0c-0.6-0.3-0.5-0.7,0.2-1c0.9-0.3,1.6-0.9,2.1-1.6
		c0.6-1.3,1-1.4,3.8-0.9c-0.2-0.6-0.3-1.2-0.3-1.8c0.4,0.1,0.7,0.3,1.1,0.6l0,0c0.4,0.4,0.4,0.9,0.5,1.5c-0.2-0.1-0.3-0.1-0.5-0.2
		c-0.2,0-0.5-0.1-0.7-0.1l-0.7,0.9c0.5,0,1-0.1,1.4-0.1c0.3-0.1,0.4-0.3,0.6-0.5h-0.1c0.7,0,1.2,0,1.7,0s1.1-0.1,1.6-0.1
		c0.1,0,0.2,0,0.3,0c0.3,0.4,0.7,0.7,1.1,0.8C404.2,35.9,404.1,36,404.1,36.1z M402.1,29.4c-0.6,0-1.2,0.2-1.7,0.4
		c-0.5,0.3-0.1,0.7,0.3,1c0.2,0.2,0.4,0.4,0.7,0.6c-1.1,0.4-2.3,0.5-3.5,0.8c0.1-0.6,0-1.2-0.2-1.8c1.2-0.5,1.6-1.5,3.3-1.6
		c0.8-0.1,1.6-0.1,2.3-0.1l1.3,0.9C403.9,29.4,403,29.4,402.1,29.4z M442.9,26.8L442.9,26.8c-1.1,0-2-0.6-1.7-1
		c0.2-0.3,0.9-0.4,1.1-0.6c1.2,0,1.9,0.3,2,0.8l0,0C444.4,26.4,443.7,26.8,442.9,26.8z M478.7,30c1.3-0.8,1.3-0.8,4.1-0.7
		c-1,0.5-2.2,0.7-3.3,0.8C479.2,30.1,479,30,478.7,30z M486,25.2c-0.5,0.1-0.9,0.2-1.4,0.2l0,0c-0.1,0.2-0.2,0.5-0.6,0.5
		c-0.1,0-0.2,0-0.3,0c-0.7-0.2-0.2-0.6,0.2-0.9c0.3-0.3,0.6-0.5,0.9-0.7c0.6-0.3,1.3-0.3,1.5,0.1C486.4,24.7,486.3,25,486,25.2z
		 M488,27.1v-0.2l0.3,0.1L488,27.1z M499.1,25.2L499.1,25.2c-2.4-0.1-4.2,0.4-5.3,1.6c-0.4,0.4-0.9,0.7-1.4,0.9
		c-1.1-0.3-0.9-0.7-0.6-1c0.3-0.4,1-0.7,1.3-1.1c0.9-1.4,1-1.4,3.1-1.4c1.4,0,2.8,0.1,4.4,0.1c-0.2,0.4-0.2,0.6-0.4,0.7l0,0
		C499.7,25.1,499.4,25.2,499.1,25.2z M503.7,26.8c-0.5,0.2-0.9,0.2-1.4,0.2c-0.7,0-1.5-0.2-2.2-0.4l3.8-0.2
		C503.8,26.6,503.8,26.7,503.7,26.8L503.7,26.8z M522.4,23.9l-0.2-0.1c0.1,0,0.1-0.1,0.2-0.1s0.1,0.1,0.2,0.1L522.4,23.9z
		 M534.6,23.1L534.6,23.1c-0.3-0.1-0.5-0.2-0.8-0.3c0.3-0.1,0.6-0.2,1-0.3c0.2,0,0.5,0.1,0.7,0.2C535.2,22.9,534.9,23,534.6,23.1z
		 M648.1,47L648.1,47c-0.4,0-0.7-0.1-1.1-0.1v-0.4l2.2,0.1C649.1,47.1,648.5,47,648.1,47z M652.4,47.2L652.4,47.2
		c-0.2,0-0.3-0.1-0.5-0.2l0.5-0.3l0.5,0.2C652.8,47,652.6,47.1,652.4,47.2z M656.4,45.4L656.4,45.4c-0.3-0.1-0.6-0.2-0.9-0.3
		c0.2-0.1,0.3-0.3,0.5-0.3c0.3,0,0.6,0.1,1,0.2l0,0C656.7,45.2,656.5,45.4,656.4,45.4z M661,45.5c-0.2,0-0.4-0.1-0.6-0.1
		c0.1-0.1,0.1-0.2,0.1-0.2c0.2,0,0.4,0.1,0.6,0.1l0,0C661.1,45.4,661,45.5,661,45.5z M670.1,40.1c0.3,0,0.5,0.2,1.1,0.5
		c-0.5,0.1-1,0.2-1.5,0.3l0,0c-0.2,0-0.3-0.3-0.5-0.4C669.4,40.2,669.7,40.1,670.1,40.1z M667,42.2c-0.2,0-0.3-0.2-0.4-0.3
		c0.2-0.1,0.4-0.1,0.7-0.2c0.1,0,0.3,0.2,0.4,0.3C667.5,42.2,667.3,42.2,667,42.2L667,42.2z M669.8,45.8c-0.4,0.1-0.7,0.1-1.1,0.1
		c-0.1,0-0.2-0.2-0.3-0.3c0.3-0.1,0.7-0.2,1-0.2C669.5,45.4,669.6,45.6,669.8,45.8L669.8,45.8z M674.7,43L674.7,43
		c-0.3-0.1-0.5-0.2-0.6-0.3l0.7-0.3l0.5,0.4l0,0C675.1,42.9,674.9,42.9,674.7,43z M682,46.6L682,46.6c-0.4,0-0.8,0.1-1.1,0.1l0,0
		c-0.5,0-1.2,0-1.1-0.4c0-0.1,0.6-0.2,1-0.2c0.5,0,0.9,0.1,1.4,0.2L682,46.6z M688.1,46.9l-0.8-0.1c0.2-0.2,0.4-0.3,0.6-0.4
		c0.1,0,0.4,0.1,0.6,0.1L688.1,46.9z M693.4,42.5L693.4,42.5C693.4,42.5,693.3,42.5,693.4,42.5c-0.5,0-0.8-0.1-1.2-0.2
		c0.4-0.2,0.6-0.4,0.8-0.5c0.3,0,0.6,0.1,0.9,0.2C693.8,42.2,693.6,42.5,693.4,42.5z M699.3,47.8l2.7-0.2c-0.5,0.2-1,0.3-1.5,0.3
		C700.1,47.9,699.7,47.9,699.3,47.8z M700.2,46c0-0.1,0.1-0.1,0.1-0.2l0.2,0.2H700.2z M699.6,44.8c-0.8,0-1.7,0-2.9-0.1
		c-0.9-1-0.9-1-0.5-2.1c0.7,0.1,1.4,0.3,2.1,0.5c1.4,0.6,2.9,0.4,4.1-0.4c0.3-0.2,0.6-0.3,0.9-0.5l0,0
		C702.5,44.2,702.2,44.8,699.6,44.8z M702.3,47.6l2.1-0.4l0.1,0.3L702.3,47.6z M705.5,48.2l0.2-0.1l0.1,0.2L705.5,48.2z M716.1,47.2
		l0.1-0.2l0.2,0.1L716.1,47.2z M717.4,44.2c-0.1,0-0.1,0-0.2,0c-0.2,0-0.4,0-0.6,0c-0.5-0.1-1,0-1.5,0.1c-2.3,0.9-5.1,0.6-7.9,1.1
		l0.9-1.4c1.5-0.3,3-0.2,4.5,0.3c1.6-0.9,3.3-1.4,5.2-1.4c1.1-0.1,1.4,0.2,1.6,1.2C718.7,44.1,718.1,44.1,717.4,44.2L717.4,44.2z
		 M722.4,44.1l-0.5-0.2l0.1-0.2c0.2,0.1,0.4,0.1,0.5,0.2l0,0C722.5,43.9,722.4,44,722.4,44.1z M736.8,30.1c-0.4-0.1-0.9-0.2-1.3-0.3
		c0.1-0.1,0.3-0.3,0.4-0.3c0.4,0,0.9,0.1,1.4,0.2C737.1,29.9,736.9,30.1,736.8,30.1L736.8,30.1z M746.6,31.3c-1,0.2-2,0.3-3.1,0.5
		l2.7-2C746.6,30.2,746.8,30.8,746.6,31.3z M746.5,25.7c-0.2-0.1-0.3-0.1-0.5-0.2l0.1-0.2c0.2,0,0.4,0,0.6,0.1L746.5,25.7z
		 M751.8,25.9l0.3,0.1l-0.3,0.1V25.9z M751.9,29.8h-0.4c0.1-0.1,0.3-0.1,0.4-0.2c0,0,0.2,0.1,0.3,0.1L751.9,29.8z M757.5,26.3
		L757.5,26.3c-0.1,0-0.2-0.1-0.2-0.1c0.1-0.1,0.2-0.2,0.4-0.3c0.1,0.1,0.3,0.2,0.4,0.2C757.9,26.2,757.7,26.3,757.5,26.3z
		 M764.4,23.5l-0.1,0.2l-0.2-0.1L764.4,23.5z M761.5,25.4c1.1-0.6,2.5-0.6,3.6,0H761.5z M768.1,23.4c-0.3-0.1-0.6-0.2-0.8-0.3
		c0.2-0.1,0.3-0.3,0.5-0.3c0.3,0.1,0.6,0.1,1,0.2C768.5,23.2,768.4,23.3,768.1,23.4L768.1,23.4z M769.7,26.2c-0.1,0-0.1,0-0.2,0
		c-0.8,0-1.5-0.4-1.3-0.8c0.2-0.2,0.5-0.4,0.8-0.4c0.9-0.1,1.5,0.3,1.4,0.8C770.2,26.1,769.9,26.2,769.7,26.2L769.7,26.2z
		 M772.8,26.9l-0.2-0.1h0.3L772.8,26.9z M1019.7,22.3c0-0.1,0-0.2,0-0.2c0.1,0,0.3,0,0.4,0c0,0.1,0,0.2,0,0.3L1019.7,22.3z
		 M1029.4,29.8c-0.7-0.1-1.5-0.3-2.2-0.4c0.4-0.3,0.9-0.6,1.4-0.8l0,0c0.3,0.1,0.6,0.3,0.8,0.5l0,0
		C1029.4,29.3,1029.4,29.6,1029.4,29.8z M1033.2,30.3L1033.2,30.3c-0.1,0-0.2,0.1-0.3,0.1c-1-0.2-2-0.3-3-0.5c0.2-0.3,0-0.5-0.5-0.8
		c1-0.2,2-0.4,3-0.5c0.4,0,1.3,0.3,1.4,0.5C1033.9,29.6,1033.6,30.1,1033.2,30.3z M1039.8,28.6c1-0.3,2-0.3,3,0.2
		c-0.6,0.3-1.2,0.5-1.9,0.6C1040.5,29.4,1040.3,29.1,1039.8,28.6z M1046.7,33.3c-0.2-0.1-0.6-0.2-0.6-0.3c0-0.1,0.3-0.2,0.4-0.4
		l0.7,0.1L1046.7,33.3z M1055.8,33c-0.1,0-0.1,0-0.2,0c-0.9,0-1.1-0.3-0.9-0.6c0.4-0.5,0.9-0.9,1.4-1.3
		C1056.5,31.8,1056.3,32.6,1055.8,33z M1056.2,31.1l-1-2.2l3.3-0.1l2.3,2.9c-0.3,0-0.6,0.1-0.9,0.1
		C1058.6,31.7,1057.4,31.5,1056.2,31.1z M1061.9,30.3c-0.6-0.6-0.4-1.1,1.1-1.5l0,0C1063,29.5,1063,30,1061.9,30.3z M1065.9,33.4
		L1065.9,33.4C1065.9,33.4,1065.8,33.4,1065.9,33.4c-0.3,0-0.5-0.1-0.7-0.1c0.1-0.1,0.2-0.3,0.4-0.4c0.2,0,0.4,0,0.6,0.1
		C1066.1,33.2,1066.1,33.3,1065.9,33.4z M1070.3,52.3c-0.1-0.1-0.3-0.1-0.4-0.2c0-0.1,0-0.2,0-0.3c0.3,0,0.5,0,0.8,0.1L1070.3,52.3z
		 M1075,29.2c-0.4-0.1-0.7-0.2-1.1-0.3l0.6-0.4l1,0.4C1075.4,29,1075.2,29.2,1075,29.2L1075,29.2z M1080.8,32.7L1080.8,32.7
		c-0.1,0-0.1,0-0.2,0c-0.3,0-0.7-0.1-1.2-0.2c0.3-0.3,0.5-0.7,0.7-0.7c0.4,0,0.8,0.1,1.2,0.2C1081.2,32.3,1081.1,32.6,1080.8,32.7z
		 M1082.6,36.6L1082.6,36.6c-0.1,0-0.3-0.2-0.4-0.4c0,0,0.2-0.2,0.3-0.2c0.6,0,1.1,0,1.7,0v0.3C1083.7,36.5,1083.2,36.6,1082.6,36.6
		z M1089.7,29.3L1089.7,29.3c-0.3,0-0.6-0.3-0.9-0.5c0.3-0.2,0.6-0.4,0.9-0.5c0.7-0.1,1.5-0.2,1.9,0.6
		C1091,29.1,1090.4,29.2,1089.7,29.3z M1094.6,58c0.1,0,0.2,0,0.3,0s0.1,0,0.2,0H1094.6z M1095.6,58.1L1095.6,58.1
		c-0.1,0-0.2,0-0.2,0h0.5l0,0C1095.8,58,1095.7,58.1,1095.6,58.1z M1096,31.9c-0.3-0.1-0.5-0.1-0.8-0.2c-0.1,0,0-0.2,0-0.2
		c0.3,0,0.6,0,0.8,0l0,0C1096.1,31.6,1096.1,31.7,1096,31.9z M1101.7,28.4l2.2-0.3c-0.5,0.3-0.7,0.5-1.1,0.5
		C1102.5,28.5,1102.1,28.5,1101.7,28.4z M1115.3,32.4C1115.2,32.4,1115.2,32.4,1115.3,32.4c-0.3-0.3-0.4-0.6-0.5-0.9
		c0.3,0,0.5,0,0.8,0c0.3,0.3,0.5,0.6,0.7,0.9l0,0C1115.8,32.4,1115.4,32.4,1115.3,32.4z M1124.6,32.2L1124.6,32.2
		c-0.2,0-0.4,0-0.6,0c-1,0-1.4-0.3-2.5-1.3l4.5,0.1C1126.2,31.8,1125.7,32.2,1124.6,32.2z M1139.9,27.6c-0.1-0.1-0.3-0.1-0.3-0.2
		s0.1-0.1,0.2-0.2l0.5,0.3L1139.9,27.6z M1147.9,30.9c-0.6,0.2-1.2,0.2-1.8,0.2h-0.1c-0.4-0.1-0.8-0.3-1.2-0.6
		c1.1-0.1,2.1-0.2,3.2-0.3C1148.2,30.5,1148.2,30.7,1147.9,30.9z M1161.7,30.8c-0.6,0-1-0.3-0.6-0.9c0.3,0,0.6,0,0.9,0l0,0
		C1162,30.2,1161.9,30.5,1161.7,30.8z M1165.5,29.8c0,0,0.2-0.1,0.4-0.2l1.1,0.3c-0.5,0.2-0.9,0.3-1.4,0.5
		C1165.6,30.1,1165.5,29.9,1165.5,29.8z M1183.6,13.4c0.3,0.1,0.8,0.4,0.8,0.4l0,0c-0.3,0.3-0.6,0.5-1,0.8c-0.2-0.1-0.4-0.2-0.8-0.5
		L1183.6,13.4z M1184.4,17.2l-0.4,0.4h-0.4c0.1-0.1,0.3-0.3,0.4-0.4C1184.2,17.2,1184.3,17.2,1184.4,17.2z M1175.7,11.7
		c0.1-0.2,0.1-0.5,0.2-0.5c0.3,0,0.6,0,0.9,0h0.3h0.1c0,0.2,0,0.4-0.1,0.4C1176.6,11.6,1176.2,11.7,1175.7,11.7z M1179.5,29.3
		c-0.3,0-0.5,0-0.8,0.1c-0.7-0.1-1.3-0.2-1.9-0.4l5.1-0.8C1181.2,28.6,1180.4,29,1179.5,29.3C1179.6,29.3,1179.5,29.3,1179.5,29.3z
		 M1189.6,28.3c-0.8-0.1-1.8-0.4-2.7-0.5c1.6-0.5,3.2-0.6,4.8-0.2c-0.6,0.5-1.3,0.9-2.1,1.1C1189.6,28.6,1189.6,28.5,1189.6,28.3z
		 M1188.8,24.1l0.4,0.2l-0.3,0.2C1188.9,24.3,1188.8,24.2,1188.8,24.1z M1181.9,20.2L1181.9,20.2c-0.2,0-0.4-0.2-0.8-0.4
		c0.6-1,2.1-1.3,3.6-1.4c1.2-0.1,2.4-0.5,3.3-1.3c1.1,0.5,2.3,0.9,3.3,1.4c0.4,0.2,0.5,0.6,0.7,0.9
		C1188.7,19.6,1185.3,19.9,1181.9,20.2z M1207.5,12.4c0.8-0.2,1.7-0.3,2.5-0.4c-1.4,1-1.4,1-4.6,1.1
		C1205.7,12.4,1206.9,12.6,1207.5,12.4z M1197.3,11.5c1.5,0.3,0.5,1.2,1.8,1.5c-0.6,0.2-1.3,0.4-2,0.4c-0.4,0-0.9-0.1-1.2-0.5
		C1195.5,12.2,1196.4,11.8,1197.3,11.5z M1196.2,19L1196.2,19c-1.3,0.1-2.6,0.2-3.9,0.3c1-0.4,1.9-0.8,3-1c0.5,0,1.1,0.1,1.6,0.2
		C1196.5,18.8,1196.3,19,1196.2,19z M1197.4,16.4c0,0.1-0.1,0.2-0.1,0.4l-0.7-0.2c0.1-0.1,0.3-0.2,0.4-0.3
		C1197.2,16.3,1197.3,16.3,1197.4,16.4L1197.4,16.4z M1197.5,27.2c0.2-0.1,0.4-0.2,0.6-0.2c0.1,0,0.2,0.1,0.3,0.1
		c-0.1,0.1-0.2,0.2-0.3,0.3C1197.9,27.4,1197.7,27.3,1197.5,27.2z M1200.9,24.4l-1.2-0.1c0-0.2,0.1-0.4,0.1-0.5
		c0.4,0,0.7,0.1,1.1,0.2C1201,24,1200.9,24.2,1200.9,24.4z M1205,24l-1.2-0.2c0.1-0.2,0.1-0.4,0.2-0.4c0.4,0,0.8,0,1.2,0.1L1205,24z
		 M1200.1,18.8c-0.8-0.9-0.7-1.3,0.4-1.4c1.7-0.2,1.9-0.1,6.1,1L1200.1,18.8z M1213,10.1L1213,10.1c-0.1,0.2-0.3,0.4-0.4,0.4
		c-0.3,0-0.7-0.1-1-0.2c-0.1-0.2-0.2-0.3-0.2-0.4c0.1-0.2,0.1-0.6,0.3-0.7c0.5-0.2,1,0.1,1.3,0.5C1213,9.9,1213,10,1213,10.1z
		 M1215.3,23.4L1215.3,23.4c-0.2-0.1-0.5-0.1-0.7-0.3l0.3-0.5l0.9,0.4C1215.7,23.1,1215.5,23.3,1215.3,23.4z M1218.8,10.2
		L1218.8,10.2c-0.1,0-0.3,0-0.4,0c-0.3,0-0.7,0-1.2-0.1c0.6-0.5,0.7-0.9,1-0.9c0.4,0,0.7,0.1,1,0.3
		C1219.3,9.8,1219.1,10.2,1218.8,10.2z M1219.7,22.4l-0.1-0.2l0.3,0.1L1219.7,22.4z M1220.6,12.3L1220.6,12.3c-0.1,0-0.1,0-0.2,0
		s-0.1,0-0.2,0c-0.1-0.1-0.2-0.2-0.3-0.4h0.8C1220.7,12,1220.6,12.2,1220.6,12.3z M1223.7,10l-0.4-0.2h0.4V10z M1231,11.7
		c0.1-0.1,0.1-0.3,0.2-0.4c0.1,0,0.3,0,0.4,0.1c0.1,0.1,0.1,0.2,0.2,0.4L1231,11.7z M1236.6,21.1l-0.2-0.2c0.2,0,0.5-0.1,0.7-0.1
		c0.1,0,0.1,0.1,0.2,0.2L1236.6,21.1z M1237.5,16.8l0.2-0.2l0.3,0.1L1237.5,16.8z M1247.5,21.6l-0.7-0.1c0.1-0.1,0.3-0.2,0.4-0.3
		c0.1,0,0.3,0,0.4,0L1247.5,21.6z M1315.9,27.2l0.2-0.1l0.2,0.1c-0.1,0-0.1,0.1-0.2,0.1C1316.1,27.3,1316,27.3,1315.9,27.2z
		 M1481.7,26.8c-0.1,0.1-0.4,0.1-0.6,0.2l-0.4-0.3l0.9-0.3C1481.6,26.5,1481.8,26.7,1481.7,26.8L1481.7,26.8z M1671.4,42L1671.4,42
		L1671.4,42c-0.1,0-0.2,0-0.3-0.1c0.2-0.2,0.4-0.3,0.6-0.5c0.1,0,0.2-0.1,0.3-0.1l0.5,0.2C1672.2,41.7,1671.8,41.9,1671.4,42z
		 M1680.7,38.9c-1.2-0.1-2.4,0.3-3.3,1.1c-0.5-0.4-0.7-0.9-1.2-1c-0.7-0.1-1.5,0-2.2,0.2c-1,0.2-1.9,0.5-2.9,0.7
		c-1.5,0.3-2.1,0.1-3.5-1c1.6-0.4,3.2-0.6,4.9-0.5c0.8,0,1.6,0,2.4,0c1.8,0.1,3.7,0,5.5-0.2c0.7-0.1,1.4,0.1,1.8,0.6
		c-0.4,0-0.9,0.1-1.3,0.1C1680.9,38.9,1680.8,38.9,1680.7,38.9z M1674,33.2L1674,33.2c-0.2,0-0.2,0-0.3,0c0-0.1,0-0.1,0-0.2
		c0.1,0,0.2,0,0.3,0C1674,33.1,1674.1,33.2,1674,33.2L1674,33.2z M1682.9,40.9L1682.9,40.9l0.1-0.2
		C1683,40.8,1682.9,40.8,1682.9,40.9z M1697.7,40.3l-0.2-0.1l0.2-0.1V40.3z M1702.6,38c0.1,0,0.1-0.1,0.2-0.1s0.1,0,0.2,0L1702.6,38
		z M1704.7,37.4c-0.5,0.2-1.1,0.4-1.6,0.4c-0.4-1.6,0-1.9,2.6-1.9C1705.4,36.5,1705.1,37,1704.7,37.4z M1716.2,39.7
		c-1.4-0.1-2.7,0.1-4,0.6c-0.3,0-0.7-0.1-1-0.2c-0.4-0.2-0.2-0.7,0.3-0.7c2.3-0.3,4.6-0.5,6.9-0.8c0.1,0,0.3,0.2,0.5,0.4
		C1718,39.3,1717.1,39.5,1716.2,39.7L1716.2,39.7L1716.2,39.7z M1722.9,39.3L1722.9,39.3c-0.1,0.1-0.3,0.1-0.4,0.1s-0.2,0-0.3,0
		c-0.7-0.3-1.1-0.9-0.8-1.4c0.1-0.1,0.4-0.2,0.6-0.3c0.3,0,0.5,0,0.8,0.1C1723.7,38.1,1723.8,38.9,1722.9,39.3z M1703.6,31.9
		c3.3-0.2,6.5,0,9.8,0.5l0,0c0.1,0,0.2,0,0.3,0c0.1,0,0.3,0,0.4,0c2.7-0.2,5.3-0.1,8,0.1c1.9,0.1,3.9,0.3,5.8,0.3
		c0.3,0,0.7,0.1,1,0.2c0,0.5-0.6,0.5-1.1,0.5c-6.1-0.2-12.2-0.4-18.2-0.6c-4-0.1-8-0.1-11.9-0.2c-3.2,0.1-6.5-0.2-9.6-0.9
		C1693.3,32,1698.5,32,1703.6,31.9z M1691.1,38.9c0.4-0.2,0.9-0.3,1.4-0.4c1.8,0.2,3.7-0.2,5.3-1.1c0.8-0.2,1.6-0.4,2.4-0.5
		c-0.4,0.4-0.9,0.9-1.4,1.2c-1.4,0.8-3.7,1.2-4.1,2.5c-0.6,0.3-1.2,0.4-1.9,0.4c-0.1,0-0.1,0-0.2,0c-0.9,0-1.7-0.4-1.8-1
		c0-0.3,0.1-0.6,0.3-0.9l-4.1,0.2c0.2,0.4,0.3,0.8,0.6,1.2c0.3,0.3,0.6,0.6,1,0.9c-0.6,0.5-1.4,0.6-2,0.2c-1-0.6-2.2-0.9-3.3-1
		c0.3-0.7,0.2-1.3-0.8-1.8C1685.3,38,1688.2,38.4,1691.1,38.9z M1685.2,37.2c-0.1,0-0.2,0.1-0.2,0.1c-0.2,0-0.4-0.1-0.5-0.2
		c0.1,0,0.2-0.1,0.2-0.1C1684.9,37,1685.1,37.1,1685.2,37.2z M1657.7,30c0.9-0.7,2.1-0.8,3.1-0.3l0,0c1,0.4,2.1,0.6,3.2,0.6h0.2
		c1.5,0,2.9,0,4.4-0.1c1.7,0,3.4,0.1,5.1,0.5c2.3,0.5,4.7,1,7.3,0.5c1.5-0.3,2.3,0.4,3.6,0.6c-0.6,0.6-1.3,0.4-1.9,0.4
		c-2.6-0.1-5.3-0.2-7.9-0.2c-2.2,0-2.2,0.1-4.2,1.2c-1.3-0.1-2.7-0.2-4.1-0.4c-0.3,0-0.6-0.2-0.8-0.4c-0.5-1.2-2.4-1.1-3.8-1.3
		c-1.1-0.1-2.4-0.1-3.5-0.2c-0.3,0-0.6-0.2-0.8-0.4C1657.3,30.4,1657.5,30.2,1657.7,30z M1665.5,34.4l-0.2,0.1v-0.2L1665.5,34.4z
		 M1657.1,32.4L1657.1,32.4c-1.1,0.3-2.3,0.5-3.5,0.6c-0.8,0-1.6-0.1-2.4-0.3C1652.8,32.1,1652.8,32.1,1657.1,32.4z M1649,28.7
		c0.1,0.8-1.5,0.4-2,0.8c0.2,0.1,0.3,0.2,0.5,0.2c1,0,2.1,0,3.6-0.1c-0.7,0.4-1,0.7-1.3,0.7c-3.5,0.1-7-0.1-10.5-0.4
		c0.1-0.6,0.7-0.6,1.2-0.7l-1.3-0.8C1641.6,27.8,1644.2,27.8,1649,28.7z M1650.7,33.6l-0.7,0.2l-0.5-0.4c0.1,0,0.3-0.1,0.3-0.1
		C1650.1,33.4,1650.4,33.5,1650.7,33.6z M1648.1,35.4l-0.6,0.2c-0.1-0.1-0.1-0.2-0.1-0.3l0.3-0.1
		C1647.8,35.2,1647.9,35.3,1648.1,35.4z M1640.4,31.9c2.1-0.4,4.1-0.5,6.2-0.4c-0.9,1.4-2.3,2.5-4,3.1l0,0c0.1,0.3,0.1,0.6,0.2,0.9
		c-0.4,0-0.8,0-1.2-0.1c-1.6-1.6-4.2-1.6-6.9-1.5c-0.1,0-0.2,0-0.3,0C1636.3,33,1638.4,32.3,1640.4,31.9z M1626.2,39
		c3.2,0.2,6,0.4,8.9,0.7c0.4,0.1,0.9,0.2,1.3,0.4c-2.7,0.7-5.2,1.3-7.8,1.8l0,0c-0.3,0.1-0.7,0.1-1,0.1c-0.4,0-0.9,0-1.3,0
		c-0.2,0-0.4-0.1-0.5-0.3c0-0.2,0.1-0.3,0.2-0.4c0.8-0.2,1.6-0.3,2.8-0.6L1626.2,39z M1634.3,33.9L1634.3,33.9
		c-0.3,0.5-0.9,0.7-1.5,0.6c-0.3,0-0.6,0-0.9-0.1C1632.5,33.8,1633.5,34,1634.3,33.9z M1614,31l2-0.4c0.1-0.6,0.1-1.3,0.1-1.9
		c-0.1-0.9-0.8-1.3-2.4-1.5c-0.8-0.1-1.5-0.1-2.3-0.1c0-0.1,0-0.1,0.1-0.2c1.8-0.2,3.6-0.4,5.4-0.6c1.8-0.2,3.6-0.1,5.4,0.5
		c1.3,0.4,2.8,0.8,4.6,1.3l-4.8,1.4l2.8,1.3l-1.8,0.7l3.6,0.6l0,0c-1.9,0.3-3.9,0.5-5.8,0.4c-0.4,0-0.9,0-1.3,0c-1.2,0-2.4,0-3.6,0
		L1614,31z M1621.7,40.8l0.1-0.2l0.2,0.1L1621.7,40.8z M1616.5,35.5l6.2-0.7c1.3,0.4,2.6,0.6,3.9,0.6c0.7,0,1.4-0.1,2.1-0.2
		c0.8-0.2,0.9-0.1,2.5,0.9c-0.3,0.6-1.4,0.8-2.4,1.2c-2-0.8-4.3-0.2-6.2-0.9C1620.5,36.1,1618.5,35.7,1616.5,35.5z M1623.3,53.2
		c-0.2,0-0.4,0-0.6-0.1c0.1-0.1,0.3-0.2,0.4-0.4c0.3,0,0.7,0.1,0.9,0.2l0,0C1623.9,53.1,1623.6,53.2,1623.3,53.2z M1624.5,54.7
		l-0.2-0.1L1624.5,54.7L1624.5,54.7z M1626.3,56.4L1626.3,56.4c-0.2,0-0.4-0.1-0.6-0.1c0.2-0.2,0.2-0.3,0.3-0.4
		c0.6-0.4,1.3-0.6,1.9-0.3c0.1,0,0.1,0.1,0.1,0.2C1627.9,56.4,1627.1,56.3,1626.3,56.4z M1627,54.4c0-0.1,0.1-0.1,0.1-0.1
		c0.1,0,0.2,0,0.3,0.1l-0.1,0.2L1627,54.4z M1633.4,1124.4c-0.1,0-0.2,0-0.4,0c-0.5-0.4-1.1-0.8-0.4-1.3c0.1,0,0.2-0.1,0.4,0l0,0
		C1633.8,1123.2,1633.9,1123.4,1633.4,1124.4z M1632.4,53.1c-0.9-0.1-1.7-0.2-2.5-0.5c1.9-0.7,1.9-0.7,4.2-0.1l0,0
		C1633.6,52.9,1633,53.1,1632.4,53.1z M1637.5,58.6l0.1-0.1l0.2,0.1H1637.5z M1640.3,55.5c-0.1-0.1-0.1-0.1-0.2-0.2
		c0.1-0.1,0.1-0.1,0.2-0.2l0.3,0.1L1640.3,55.5z M1639.5,45.1c-0.2,0-0.5,0.1-0.6,0.1h-0.1c-1.7-0.4-3.4-0.5-5-0.2
		c-2.6,0.3-5.2,0.1-7.7-0.4c0.2-0.2,0.2-0.5,0.3-0.5c1.4-0.1,2.8-0.2,4.1-0.5c1.4-0.3,2.8-0.5,4.2-0.4c1.3-0.1,2.6-0.5,3.8-1.1
		c0.3,0.8,1.9,1,2.7,1.5L1639.5,45.1z M1643.1,47.5L1643.1,47.5c-0.2,0-0.4,0-0.6,0c0.2-0.1,0.3-0.1,0.5-0.2c0.1,0,0.2,0,0.3,0
		C1643.3,47.4,1643.2,47.5,1643.1,47.5z M1644.8,41.6c-0.9,0.6-2,0.9-3.1,0.8c-1.1,0-2.2-0.2-3.2-0.4c0.1-1.1,0.2-1.2,1.3-1.3
		c1.7-0.2,3.3-0.3,5-0.5C1644.5,40.7,1644.3,41.2,1644.8,41.6L1644.8,41.6z M1646.8,44.4c-0.1,0-0.2-0.1-0.3-0.1
		c0-0.1,0.1-0.2,0.1-0.2c0.1,0,0.3,0,0.4,0L1646.8,44.4z M1649.7,42.7l-0.2-0.1L1649.7,42.7L1649.7,42.7z M1656.7,41.8L1656.7,41.8
		c-0.2,0-0.4,0-0.6,0c-0.1,0-0.1,0-0.2,0c-0.8-0.3-1.7-0.5-2.6-0.4c-1.7,0.1-3.4,0.3-5.1,0.3c-1.2,0-2.3-0.1-3.5-0.1
		c0.2-0.5,0.5-0.9,0-1.4c-0.3-1,1-1.6,1.5-2.6h5.5c-0.9,0.8-1,1-1.9,1c-0.8,0.1-1.7,0.1-2.8,0.1c1.5,1,1.5,1,10.1,1.6
		C1657.9,41,1657.4,41.4,1656.7,41.8z M1657,39c-1-0.5-0.3-1.1,0.3-1.1c2.2,0,4.4,0.1,6.6,0.3c0.5,0,1,0.5,1.6,0.8l-0.8,0.7
		c-0.8-0.1-1.6-0.3-2.4-0.6c-1.2-0.7-2.6-0.8-3.9-0.3C1658,38.9,1657.5,39,1657,39z M1659.3,41.5c-0.2-0.4,0.2-0.6,0.8-0.7
		c1.6-0.1,3.2-0.4,4.7-1l0,0c1.2,0.2,2.6,0.3,2.9,1.3c-1.5-0.4-3.1-0.4-4.5,0.1C1661.8,41.4,1660.6,41.5,1659.3,41.5z"/>
	<path d="M1659.3,21.8c-0.1,0.3-0.2,0.5-0.3,0.7c1.3,0.3,2.6,0.7,3.9,1c1.8,0.5,3.7,0.4,5.5-0.2
		C1665.9,21.6,1662.4,22.2,1659.3,21.8z"/>
	<path d="M377.1,16.5c-0.2,0-0.4,0-0.5,0.1c-0.1,0-0.1,0.1-0.2,0.2c0.3,0.1,0.6,0.2,0.9,0.3c0.4,0,0.8-0.1,1.2-0.2
		c-0.4-0.1-0.8-0.2-1.2-0.3l0,0C377.2,16.5,377.1,16.5,377.1,16.5z"/>
	<path d="M367.4,17.1c-0.1,0-0.2,0-0.3,0c-0.2,0.1-0.3,0.2-0.4,0.2c0.2,0,0.4,0,0.6-0.1l0,0C367.3,17.2,367.3,17.1,367.4,17.1z"/>
	<path d="M381.6,22.7l0.3,0.1l0,0c0.1-0.1,0.1-0.1,0.1-0.2L381.6,22.7z"/>
	<polygon points="382.1,23.7 382,23.8 382.3,23.8 	"/>
	<path d="M366.8,23.2c-0.1-0.1-0.2-0.1-0.2-0.1l0,0c-0.1,0-0.2,0.1-0.3,0.1l0.4,0.2C366.7,23.4,366.7,23.3,366.8,23.2z"/>
	<path d="M366,17.5l0.4-0.1c-0.1,0-0.1,0-0.2,0C366.1,17.4,366,17.5,366,17.5z"/>
	<polygon points="363.8,18.6 363.6,18.6 363.7,18.7 	"/>
	<path d="M366.5,17.4L366.5,17.4L366.5,17.4L366.5,17.4C366.6,17.4,366.6,17.4,366.5,17.4L366.5,17.4z"/>
	<path d="M391.7,23.8L391.7,23.8L391.7,23.8z"/>
	<polygon points="391.7,23.8 391.6,23.8 391.3,23.9 	"/>
	<path d="M395.3,16.7c-0.6,0-1.1,0-1.7,0c-1.4-0.1-2.8,0.1-4.1,0.5c1.3,0.1,2.6,0.1,3.9,0.2l0,0C394.2,17.4,395,17.4,395.3,16.7z"/>
	<path d="M389.4,17.3L389.4,17.3L389.4,17.3L389.4,17.3L389.4,17.3z"/>
	<path d="M388.9,17.5c-0.1,0,0,0.2,0,0.3c0.1,0,0.2-0.1,0.3-0.1l0,0c0.1-0.1,0.2-0.2,0.3-0.3C389.2,17.3,389.1,17.4,388.9,17.5z"/>
	<polygon points="389.6,17.2 389.5,17.2 389.5,17.3 	"/>
	<path d="M1790.5,28.4c0.1,0,0.2,0,0.4,0v-0.2h-0.4C1790.5,28.3,1790.5,28.4,1790.5,28.4z"/>
	<path d="M1794.9,28.3c0.1,0,0.2,0.1,0.3,0.1c0.1,0,0.2-0.1,0.3-0.1c-0.1-0.1-0.2-0.1-0.3-0.1C1795.1,28.2,1795,28.3,1794.9,28.3z"
		/>
	<path d="M1784.8,31.1L1784.8,31.1L1784.8,31.1z"/>
	<path d="M1796.5,26.2c-0.2-0.2-0.5-0.4-0.9-0.8c-0.4,0.3-0.8,0.5-0.7,0.6c0.2,0.2,0.5,0.4,0.7,0.4
		C1795.9,26.4,1796.2,26.3,1796.5,26.2z"/>
	<path d="M1796.5,26.2L1796.5,26.2L1796.5,26.2z"/>
	<path d="M1787,27.3l-4.2-0.1l0,0l0,0l-0.3-0.1l0.3,0.1l0,0c-1,0.6-2.2,0.9-3.5,0.9c-2.8,0.2-2.8,0.2-6,1.7c4.9,0.2,8.9-0.9,13-1.8
		C1786.6,27.9,1786.7,27.6,1787,27.3z"/>
	<path d="M1791.9,26c-0.1-0.1-0.1-0.3-0.3-0.4l0,0c-0.2-0.1-0.5-0.1-0.7-0.2c-0.2,0.1-0.4,0.1-0.6,0.2c0,0,0.1,0.1,0.2,0.2
		c0.2,0.1,0.5,0.2,0.7,0.2C1791.5,26.1,1791.7,26.1,1791.9,26z"/>
	<path d="M394.7,20.9c-0.4,0.2-0.7,0.4-1,0.6c-0.7,0.8-1.3,1.5-2,2.3c0.6,0.2,1.2,0.1,1.7-0.3c0.5-0.6,1-1.3,1.5-1.9l0,0
		C395,21.4,394.8,21.2,394.7,20.9z"/>
	<path d="M1171.3,18.2c-0.8,0.2-1.8,0.4-1.1,1.1c0.1,0.1,0.3,0.1,0.4,0.1l0,0C1172,19.2,1171.4,18.7,1171.3,18.2z"/>
	<path d="M189.4,16.8c0.1,0,0.2,0.1,0.3,0.1c0.1,0,0.2,0,0.4-0.1c-0.1,0-0.2-0.1-0.3-0.1l0,0C189.6,16.7,189.5,16.7,189.4,16.8z"/>
	<path d="M243.4,14.5c0.2,0.2,0.3,0.3,0.4,0.3c0.5,0,1,0,1.5,0c0.1,0,0.1-0.1,0.1-0.2c-0.4-0.1-0.9-0.2-1.3-0.3l0,0
		C243.8,14.4,243.6,14.4,243.4,14.5z"/>
	<polygon points="275.1,19.9 275.1,19.8 274.9,19.8 	"/>
	<path d="M1849,23.1l-0.8-0.6l0,0h-0.1l0,0l0,0l-0.7,0.9L1849,23.1z"/>
	<path d="M304.4,15.8L304.4,15.8c-0.1,0-0.2,0-0.3,0c-1.5,0.1-3,0.3-4.4,0.6C303.1,16.5,303.1,16.5,304.4,15.8z"/>
	<path d="M147,18c-0.1,0-0.2,0.1-0.3,0.1c-0.1,0.1-0.2,0.2-0.2,0.4c0.2,0,0.4-0.1,0.6-0.2l0,0C147.1,18.3,147,18.1,147,18z"/>
	<path d="M1795.5,28.3L1795.5,28.3L1795.5,28.3z"/>
	<path d="M629.5,16.4c-0.9,0.3-1.5,0.6-0.9,1.3c0.9,0.1,1.8-0.3,2.4-0.9l0,0c-0.4-0.2-0.8-0.4-1.2-0.4
		C629.7,16.4,629.6,16.4,629.5,16.4z"/>
	<path d="M638.4,16.8L638.4,16.8L638.4,16.8z"/>
	<path d="M640.1,16.4l-1.7,0.4C639.2,17.1,640,17.2,640.1,16.4z"/>
	<path d="M647.1,17.3l0.3,0.1l0.3-0.1c-0.1,0-0.2-0.1-0.2-0.1l0,0C647.3,17.3,647.2,17.3,647.1,17.3z"/>
	<path d="M555.1,17.7l0.4-0.3L555.1,17.7l-0.3,0.1C554.9,17.8,555,17.7,555.1,17.7z"/>
	<path d="M605.2,16.8l0.5-0.2l-0.2-0.2c-0.2,0.1-0.3,0.2-0.5,0.3C605,16.7,605.1,16.8,605.2,16.8z"/>
	<path d="M617.1,20.3c-0.2,0-0.4,0-0.6,0.1l0.1,0.1C616.8,20.5,617,20.5,617.1,20.3L617.1,20.3C617.2,20.4,617.1,20.3,617.1,20.3z"
		/>
	<path d="M566.4,17.3c-0.2,0.3,0.4,0.7,1.1,0.7c0.2,0,0.4-0.1,0.5-0.2l0,0c-0.2-0.3-0.6-0.5-0.8-0.8
		C566.7,17.1,566.4,17.2,566.4,17.3z"/>
	<path d="M761.4,21.3l-0.3-0.1c0,0.1,0,0.2,0,0.2L761.4,21.3z"/>
	<polygon points="765.2,20.2 764.9,20.2 765.1,20.3 	"/>
	<path d="M773.9,20.4l0.3,0.1c0-0.1,0.1-0.1,0.1-0.2l0,0c0,0-0.2-0.1-0.3-0.1L773.9,20.4z"/>
	<path d="M744.2,22.4c0.2,0,0.4,0,0.4,0c0.1-0.2,0.2-0.4,0.2-0.6l0,0c-0.3-0.1-0.6-0.2-0.9-0.2c0,0.3,0,0.6,0.1,0.8
		C744,22.4,744.1,22.4,744.2,22.4z"/>
	<polygon points="649.4,18.3 649.1,18.3 649.4,18.4 	"/>
	<path d="M652.4,17.7c0.1,0,0.2-0.2,0.3-0.3l-0.7-0.2l-0.3,0.3C651.9,17.6,652.1,17.7,652.4,17.7z"/>
	<path d="M457.4,23.4c0.2,0,0.7-0.3,0.7-0.4c-0.3-0.3-0.6-0.5-1-0.7l-0.9,0.6C456.6,23.2,457,23.3,457.4,23.4z"/>
	<path d="M551.1,17.5l-0.2-0.2l-0.1,0.1C550.9,17.5,551,17.5,551.1,17.5z"/>
	<polygon points="450.5,23 450.6,23.1 450.8,23 	"/>
	<path d="M452.2,23.2l-2.8,0.8C450.9,24.2,451.8,24.1,452.2,23.2z"/>
	<path d="M426.7,17.6c0.1,0,0.3,0,0.4,0l-0.5-0.2C426.7,17.5,426.7,17.6,426.7,17.6z"/>
	<path d="M452.5,24.6c0.1,0,0.2,0,0.3-0.1l0,0c0-0.1,0-0.1,0-0.2l-0.5,0.1C452.4,24.5,452.5,24.6,452.5,24.6z"/>
	<path d="M420.3,17.6L420.3,17.6c-0.1,0-0.1,0.1-0.1,0.2c0.1,0,0.2,0,0.4,0c0,0,0-0.1,0-0.2l0,0C420.5,17.6,420.4,17.6,420.3,17.6z"
		/>
	<path d="M449.3,24L449.3,24L449.3,24L449.3,24z"/>
	<path d="M542.1,17.5c-0.1,0.1-0.1,0.2-0.1,0.3h1c-0.1-0.2-0.1-0.4-0.2-0.4C542.6,17.4,542.3,17.4,542.1,17.5z"/>
	<path d="M542.8,17.4L542.8,17.4L542.8,17.4z"/>
	<path d="M506.2,19c0.1,0,0.2,0.1,0.3,0.1c0.1,0,0.1-0.1,0.1-0.2l0,0c-0.1,0-0.2-0.1-0.3-0.1l0,0C506.2,18.9,506.2,19,506.2,19z"/>
	<path d="M400.9,20.9c0,0,0.2,0.1,0.3,0.1c0-0.1,0.1-0.1,0.1-0.2l0,0c0,0-0.2-0.1-0.3-0.1C401,20.7,400.9,20.8,400.9,20.9z"/>
	<path d="M454.4,22.4c-0.3,0.1-0.6,0.1-0.9,0.3l0.6,0.6c0.3-0.2,0.5-0.3,0.7-0.6l0,0C454.9,22.6,454.5,22.4,454.4,22.4L454.4,22.4z"
		/>
	<path d="M469.8,24c0.1,0,0.2,0,0.3-0.1l0,0l-0.1-0.1C469.9,23.8,469.8,23.8,469.8,24C469.6,24,469.8,24,469.8,24z"/>
	<path d="M1615.5,18.3L1615.5,18.3L1615.5,18.3L1615.5,18.3z"/>
	<path d="M1275.6,18.2c-0.8-0.1-1.8,0.5-3.2,0.9c1.8,0.5,3.7,0.5,5.6,0.2c2.5-0.3,4.9-0.7,7.3-1c0.9-0.2,1.8-0.4,2.6-0.6
		c0.2-0.1,0.3-0.3,0.5-0.4c-0.2-0.4-1.6-0.3-1.3-1l2.1-1l0,0c-0.9-0.2-1.8-0.3-2.7-0.3c-0.9,0-1.8,0.2-2.7,0.6
		c0.1,0.4,0.1,0.9,0.2,1.4c-0.9,0.1-1.9,0.2-2.7,0.4C1279.5,17.9,1277.6,18.2,1275.6,18.2z"/>
	<path d="M1285.2,12.5c-0.1,0-0.2,0-0.4,0.1c-0.1,0,0,0.1,0,0.2l0.4,0.1V12.5z"/>
	<path d="M1288.1,19L1288.1,19L1288.1,19L1288.1,19L1288.1,19L1288.1,19L1288.1,19L1288.1,19L1288.1,19C1288,19,1288,19,1288.1,19z"
		/>
	<polygon points="1292.9,20.1 1293.1,20.1 1293.1,20.1 	"/>
	<path d="M1289,12.8c0,0.1,0,0.2,0,0.2c0.1,0,0.2,0,0.3,0c0-0.1,0-0.2,0-0.2h-0.1C1289.2,12.8,1289.1,12.8,1289,12.8z"/>
	<path d="M1289.4,12.8L1289.4,12.8L1289.4,12.8z"/>
	<polygon points="1286.7,11.2 1287,11.1 1286.7,11 	"/>
	<path d="M1293.2,20.1L1293.2,20.1L1293.2,20.1L1293.2,20.1L1293.2,20.1z"/>
	<path d="M1303.8,18.2c-1.7,0.1-3.4,0.5-4.9,1.2c1.5,0.2,3,0.1,4.4-0.3l0,0C1303.9,19,1304.6,18.8,1303.8,18.2z"/>
	<polygon points="1352,25.6 1351.8,25.6 1351.9,25.7 	"/>
	<path d="M1559.1,19.2l-4.5-0.4C1556.2,19.7,1557.3,19.6,1559.1,19.2z"/>
	<path d="M1290.2,18.3L1290.2,18.3c-0.1,0-0.3,0-0.4,0c-0.3,0-0.6,0-0.9,0.1c-0.3,0.1-0.6,0.3-0.9,0.6c0.4,0,0.9,0,1.3-0.1
		C1290.3,18.8,1290.8,18.4,1290.2,18.3z"/>
	<path d="M1301.6,15.1l-0.8-0.1l-0.6,0.4c0.3,0.1,0.7,0.1,1,0.1C1301.4,15.5,1301.5,15.3,1301.6,15.1z"/>
	<path d="M1293.5,20.2c0.1,0,0.2,0,0.3,0h-0.5C1293.3,20.2,1293.4,20.2,1293.5,20.2L1293.5,20.2z"/>
	<path d="M1264.4,16.5c0.1,0,0.3-0.1,0.3-0.2l0,0c-0.1-0.1-0.3-0.2-0.4-0.3l-0.5,0.3C1264,16.3,1264.2,16.4,1264.4,16.5z"/>
	<polygon points="1256.5,17.6 1256.6,17.6 1256.6,17.6 1256.6,17.6 1256.6,17.6 	"/>
	<path d="M1256.6,17.6L1256.6,17.6L1256.6,17.6z"/>
	<path d="M1256.6,17.6L1256.6,17.6L1256.6,17.6z"/>
	<polygon points="1586.4,19.9 1586,19.8 1586.1,19.9 	"/>
	<path d="M1259,17.3c0.2-0.2,0-0.5,0-0.7c-0.1,0-0.3,0-0.4,0l0,0c-0.1,0-0.2,0-0.4,0c-0.1,0-0.3,0-0.4,0.1c-0.5,0.3-0.9,0.6-1.3,1
		C1257.4,17.9,1258.3,17.7,1259,17.3z"/>
	<path d="M1847.4,23.4L1847.4,23.4L1847.4,23.4z"/>
	<polygon points="1265.1,10 1265.2,10.1 1265.2,10 1265.2,10 	"/>
	<path d="M1265.2,10L1265.2,10L1265.2,10z"/>
	<path d="M1270.8,14.6c1.1-0.1,1.6-0.6,1.2-1.1c-0.4-0.6-0.9-1-1.6-1.2l0,0c-1-0.2-2-0.3-3-0.4l-0.4,0.5c0.6,0.3,1.1,0.6,1.8,0.8
		s0.9,0.3,0.7,0.8C1269.2,14.5,1270,14.6,1270.8,14.6z"/>
	<polygon points="1265.3,10 1265.2,10 1265.2,10.1 	"/>
	<path d="M1268,9.7l-2.7,0.3C1266.2,10.2,1267.1,10.5,1268,9.7z"/>
	<path d="M1265.3,10L1265.3,10L1265.3,10L1265.3,10z"/>
	<path d="M1272.1,10.4h-0.7c0,0.1,0.1,0.2,0.1,0.2l0.4,0.1L1272.1,10.4z"/>
	<path d="M1696.8,24.4c-0.3-0.2-0.6-0.3-0.9-0.4l0,0c-3.5-0.2-6.9-0.7-11-0.7c-0.5,0-1,0-1.5,0c1.4,0.7,3,1.1,4.6,1.3
		C1690.8,24.8,1693.8,24.7,1696.8,24.4z"/>
	<path d="M1708.1,24.9c0.1,0,0.2,0.1,0.2,0.1c0.2,0,0.4-0.1,0.6-0.1c-0.1-0.1-0.2-0.1-0.2-0.1C1708.6,24.8,1708.4,24.8,1708.1,24.9z
		"/>
	<path d="M1729.1,25.2v0.2h1.2c0,0,0-0.1,0-0.2H1729.1z"/>
	<polygon points="1721,25.4 1721,25.2 1720.7,25.3 	"/>
	<path d="M1709,24.9L1709,24.9L1709,24.9z"/>
	<path d="M1666.4,25.3c0.2,0,0.4-0.1,0.5-0.2l-0.6-0.2l-0.6,0.2C1666,25.2,1666.2,25.2,1666.4,25.3z"/>
	<path d="M1784,31.1c0.1,0,0.2,0.1,0.2,0.1c0.2,0,0.4-0.1,0.6-0.1c-0.1,0-0.2-0.1-0.2-0.1C1784.4,31,1784.2,31,1784,31.1z"/>
	<polygon points="1689.9,28 1689.6,28.1 1689.8,28.2 	"/>
	<path d="M1665.2,26.2c-0.5-0.2-1-0.4-1.5-0.4s-1,0.1-1.4,0.3c0.8,0.2,1.6,0.5,2.4,0.7c0.2,0,0.5-0.1,0.6-0.2
		C1665.4,26.5,1665.3,26.3,1665.2,26.2L1665.2,26.2z"/>
	<path d="M1770.7,28.8L1770.7,28.8L1770.7,28.8z"/>
	<path d="M1772.1,26.7L1772.1,26.7c2.8,0.2,5.5-0.2,8.2-1.1C1777.5,25.5,1774.8,25.9,1772.1,26.7z"/>
	<path d="M1770.2,28.8c0.1,0,0.2,0.1,0.2,0.1c0.1,0,0.2-0.1,0.2-0.1c-0.1,0-0.2-0.1-0.2-0.1C1770.3,28.7,1770.3,28.8,1770.2,28.8z"
		/>
	<path d="M1730.3,25.4L1730.3,25.4L1730.3,25.4z"/>
	<polygon points="1746.7,25.7 1746.4,25.6 1746.4,25.8 	"/>
	<polygon points="1741.8,25.8 1741.7,25.6 1741.5,25.7 	"/>
	<path d="M1662.3,26.1L1662.3,26.1L1662.3,26.1c-0.1,0.1-0.1,0.1-0.1,0.2C1662.2,26.2,1662.2,26.2,1662.3,26.1z"/>
	<path d="M1597.1,17.4c-0.2,0-0.3,0.1-0.2,0.2c0.4,0.6,1.3,0.5,2.1,0.5C1598.4,17.7,1597.8,17.5,1597.1,17.4z"/>
	<polygon points="1599.1,18 1599.1,18.1 1599.2,18 	"/>
	<path d="M1610.5,21.5l0.3,0.1l0,0c0-0.1,0-0.2-0.1-0.2L1610.5,21.5z"/>
	<path d="M1601.5,19.2c0.7,0.3,1.8,0.2,2.5,0.5c0.6,0.3,1.1,0.7,1.6,1.1c1.3-0.2,2.4-0.9,3.1-2.1c0.3-0.4-0.3-1.3-0.9-1.4l0,0
		c-0.3,0-0.6-0.1-0.9-0.1c-0.3,0-0.7,0-1,0.1c-1.8,0.7-3.7,0.9-5.6,0.6c-0.4,0-0.7,0-1.1,0l0,0l0,0h0.1
		C1599.9,18.5,1600.7,18.9,1601.5,19.2z"/>
	<path d="M1598,20.5c-0.3-0.3-0.7-0.4-1.1-0.5c-0.1,0-0.3,0-0.4,0.1c-0.1,0-0.2,0.1-0.2,0.2c0,0.5,0.7,0.5,1.3,0.6
		c0.2,0,0.5,0,0.7,0l0,0l0,0h-0.1C1598.2,20.7,1598.1,20.6,1598,20.5L1598,20.5z"/>
	<path d="M1599.1,18.1C1599,18,1599,18,1599.1,18.1C1599,18.1,1599,18.1,1599.1,18.1L1599.1,18.1z"/>
	<path d="M1615.3,18.2c-0.3,0.1-0.6,0.2-0.9,0.3l0.3,0.2l0.8-0.4C1615.4,18.3,1615.4,18.2,1615.3,18.2L1615.3,18.2z"/>
	<polygon points="1616.4,22.3 1616.1,22.3 1616.4,22.4 	"/>
	<polygon points="1659.1,22.5 1659.1,22.5 1659,22.5 1658.7,22.6 	"/>
	<path d="M777.7,23.3c0.3,0,0.7,0,1-0.1c0.1,0,0.2-0.2,0.3-0.3l0,0c-0.2,0-0.4-0.1-0.5-0.1h-0.1C778.2,23,777.9,23.1,777.7,23.3z"/>
	<path d="M1611.1,17.6L1611.1,17.6L1611.1,17.6z"/>
	<path d="M1610.8,17.3l-0.5,0.2l0.4,0.3c0.2-0.1,0.3-0.1,0.5-0.3C1611.1,17.6,1610.9,17.4,1610.8,17.3z"/>
	<path d="M1593.4,17.7c-0.2,0-0.4,0.1-0.6,0.2l1,0.8c0.3,0,0.6-0.1,0.8-0.3C1594.8,18.1,1594.2,17.8,1593.4,17.7L1593.4,17.7z"/>
	<path d="M1025.6,17.7c-0.1,0-0.2,0-0.2-0.1c-0.2,0-0.5,0-0.7,0l-0.8,0.1h0.8c0.2,0.2,0.3,0.4,0.5,0.4c0.4,0.1,0.8,0.2,1.2,0.2
		l0.2-0.2C1026.2,18,1025.9,17.8,1025.6,17.7L1025.6,17.7z"/>
	<path d="M1093.4,20c-1,0.3-1.2,1-0.6,1.4c0.4,0.2,0.8,0.2,1.2,0.1c0.9-0.2,1.1-1,0.5-1.3l0,0C1094.1,20.1,1093.7,20,1093.4,20z"/>
	<path d="M1087.8,14.8c-0.1,0-0.3,0.1-0.4,0.1l0.5,0.1C1087.9,14.9,1087.9,14.8,1087.8,14.8L1087.8,14.8z"/>
	<path d="M1101.3,5.5c0.4,0,0.9,0,1.3,0c0.1,0,0.1-0.4,0-0.4c-0.4-0.1-0.8-0.1-1.3-0.1C1101.3,5.1,1101.3,5.3,1101.3,5.5z"/>
	<path d="M1082.3,18.9l-0.3,0.2l0.3,0.2c0.1-0.1,0.2-0.1,0.2-0.2C1082.6,19.1,1082.4,19,1082.3,18.9z"/>
	<path d="M1075.1,17.7L1075.1,17.7L1075.1,17.7L1075.1,17.7z"/>
	<path d="M1082.5,19.1L1082.5,19.1L1082.5,19.1z"/>
	<path d="M1102.6,5L1102.6,5L1102.6,5z"/>
	<path d="M1096.7,15.3c-0.3,0-0.5,0.4-0.5,0.7c0,0.1,0.3,0.3,0.5,0.4c0.8,0.3,1.8,0.3,2.6-0.1l0,0c0.6-0.4,1.1-0.8,2.2-1.5
		C1099.4,15,1098,15.1,1096.7,15.3z"/>
	<path d="M1106.8,6.8L1106.8,6.8L1106.8,6.8L1106.8,6.8z"/>
	<path d="M1108.6,9.4c-0.3,0.5-0.7,0.8-0.7,1.1c0,0.5,1.4,0.8,2.2,0.4c0.4-0.2,0.7-0.8,0.5-0.9l0,0C1110,9.8,1109.3,9.6,1108.6,9.4z
		"/>
	<path d="M1106.8,6.8c-1.8,1.7-3.6,0.3-6-0.3c1.9,1.8,2.2,2,3,1.9c0.8-0.2,1.6-0.4,2.4-0.8C1106.6,7.5,1106.6,7.1,1106.8,6.8z"/>
	<path d="M1103.8,17.4c-0.2,0-0.4,0-0.6,0c-0.1,0-0.1,0.3-0.1,0.5c0.4,0,0.9,0,1.3-0.1c0.1,0,0.1-0.3,0.1-0.4c-0.1,0-0.2,0-0.3,0
		l0,0C1104,17.4,1103.9,17.4,1103.8,17.4z"/>
	<path d="M1073.9,17.5c-0.3,0-0.4,0.4-0.7,0.7c0.5,0.1,1,0.2,1.4,0.2c0.3-0.1,0.3-0.4,0.5-0.6C1074.8,17.7,1074.4,17.6,1073.9,17.5
		C1074,17.5,1074,17.5,1073.9,17.5z"/>
	<path d="M1101.7,24.4c-0.3-0.1-0.7-0.2-1.1-0.2h-0.1c-0.2,0-0.4,0.3-0.7,0.6c0.4,0.1,0.9,0.2,1.4,0.2
		C1101.4,24.9,1101.5,24.6,1101.7,24.4z"/>
	<path d="M1002.6,9.6L1002.6,9.6c-0.2,0-0.1,0.1-0.1,0.2c0.1,0,0.2,0,0.4,0c0.1,0,0-0.1,0-0.2l0,0C1002.7,9.6,1002.6,9.6,1002.6,9.6
		z"/>
	<path d="M1014.8,9.8c0.1,0,0.2,0,0.3,0h0.1V9.6h-0.4C1014.8,9.7,1014.7,9.8,1014.8,9.8z"/>
	<path d="M1126.9,8.9c2.3,0.8,3.5,1.6,5.6,1.3C1131.4,9.3,1129.9,8.9,1126.9,8.9L1126.9,8.9z"/>
	<path d="M1027.3,6.8c0,0.1,0.2,0.1,0.3,0.1l0.3-0.1l-0.4-0.2C1027.4,6.7,1027.3,6.8,1027.3,6.8z"/>
	<path d="M1033.3,9.8c0.1,0.1,0.2,0.2,0.3,0.3c0.1,0,0.3,0,0.4,0l0,0c0.1-0.1,0.1-0.2,0.1-0.4L1033.3,9.8z"/>
	<path d="M1066.4,23.1c0.2,0,0.5,0,0.8,0.1c0-0.1,0-0.1,0-0.2l-0.8-0.1C1066.4,22.9,1066.4,23.1,1066.4,23.1z"/>
	<path d="M1112.1,12.9c0.1,0,0.3,0,0.4-0.1l0,0c0,0-0.1-0.1-0.1-0.2c-0.1,0-0.3,0-0.4,0.1C1111.9,12.8,1112,12.9,1112.1,12.9z"/>
	<path d="M1006.8,5.7c-0.1,0,0,0.1,0,0.2l0.3-0.2h-0.1h-0.1C1006.9,5.7,1006.8,5.7,1006.8,5.7z"/>
	<path d="M1007.9,16.6c0,0.1,0,0.3,0,0.4c0.3,0,0.5,0,0.8,0c0,0,0.1-0.2,0-0.2l0,0C1008.4,16.7,1008.2,16.6,1007.9,16.6z"/>
	<path d="M1053.1,24.1c0.1,0.1,0.2,0.3,0.4,0.4c0.1-0.1,0.3-0.1,0.3-0.2l0,0c-0.1-0.1-0.2-0.3-0.4-0.4
		C1053.3,24,1053.1,24.1,1053.1,24.1z"/>
	<path d="M995.9,14.7c0.1,0,0.2,0,0.4,0c0.1,0,0-0.1,0-0.2h-0.4C995.9,14.5,995.9,14.6,995.9,14.7z"/>
	<polygon points="1066,15.4 1065.7,15.4 1065.8,15.5 	"/>
	<path d="M1056.7,21.3c0.2,0.1,0.5,0.1,0.7,0.2c0-0.1,0.1-0.3,0.1-0.4h-0.4c-0.1,0-0.3,0-0.4,0C1056.7,21.1,1056.6,21.3,1056.7,21.3
		z"/>
	<path d="M1046.3,23.2c0.1,0,0.3-0.1,0.2-0.2l0,0c-0.1-0.1-0.3-0.2-0.4-0.3c-0.2,0.1-0.3,0.2-0.5,0.3
		C1045.8,23,1046.1,23.1,1046.3,23.2z"/>
	<path d="M1052,10.1c0.2,0.1,0.5,0.1,0.8,0.1c0-0.1,0.1-0.2,0.1-0.2l0,0c-0.2-0.1-0.5-0.1-0.8-0.1C1052.1,9.9,1052,10.1,1052,10.1z"
		/>
	<path d="M1039.2,20.3c1.6,0.9,3.4,1.4,5.2,1.6l0,0c-1.2-1.1-2.7-1.7-4.4-1.6C1039.7,20.3,1039.5,20.3,1039.2,20.3z"/>
	<path d="M1126.1,5.8C1126,5.8,1126,5.8,1126.1,5.8c-0.1,0.1-0.2,0.2-0.2,0.4h0.4c0.1-0.1,0.1-0.2,0.2-0.4
		C1126.3,5.8,1126.1,5.8,1126.1,5.8z"/>
	<path d="M1126.4,5.8L1126.4,5.8L1126.4,5.8z"/>
	<path d="M1125.2,15.4c0.7,0.2,1.4,0.3,2.2,0.4c0.2-0.5,0.6-0.8,0.5-1.1l0,0c-0.1-0.3-0.5-0.4-1-0.4c-0.4,0-0.8,0.1-1.2,0.3
		C1125.3,14.7,1125.1,15.3,1125.2,15.4z"/>
	<path d="M1136.2,21.4c-0.3,0-0.5,0-0.8,0.1l1.7,0.3C1136.8,21.5,1136.5,21.4,1136.2,21.4z"/>
	<path d="M1132.7,7c-0.1-0.1-0.1-0.1-0.2-0.2c-0.2,0.1-0.5,0.1-0.7,0.2c0.1,0.1,0.2,0.2,0.2,0.2C1132.2,7.2,1132.5,7.1,1132.7,7
		L1132.7,7z"/>
	<path d="M1135.1,21.5l-0.9-0.2c0,0.1,0.1,0.2,0.1,0.2C1134.6,21.5,1134.9,21.5,1135.1,21.5z"/>
	<path d="M789.2,19.9c0.1,0.1,0.2,0.3,0.4,0.3c0.3,0,0.5,0.1,0.8,0.1v-0.5c-0.3,0-0.5,0-0.8,0C789.4,19.9,789.3,19.9,789.2,19.9z"/>
	<path d="M1124.1,10c-0.1,0-0.2,0.1-0.3,0.1h0.6C1124.3,10.1,1124.2,10,1124.1,10L1124.1,10z"/>
	<polygon points="1132.7,10.2 1132.6,10.2 1132.6,10.2 1132.6,10.3 	"/>
	<path d="M1132.6,10.2L1132.6,10.2L1132.6,10.2z"/>
	<path d="M1129.1,18.9L1129.1,18.9L1129.1,18.9L1129.1,18.9L1129.1,18.9L1129.1,18.9L1129.1,18.9L1129.1,18.9
		c-0.1-0.1-0.1-0.1-0.1-0.2c-0.1-1.1-1-1.9-2.1-1.9c-0.4,0-0.8,0.1-1.2,0.2c-1.3,0.5-2.7,0-3.8,0.5c1.8,2.3,2,2.4,5.4,1.7
		C1127.9,19.1,1128.4,19,1129.1,18.9C1129,18.9,1129,18.9,1129.1,18.9L1129.1,18.9L1129.1,18.9C1129,18.9,1129,18.9,1129.1,18.9
		C1129,18.9,1129.1,18.9,1129.1,18.9z"/>
	<polygon points="1132.5,10.2 1132.5,10.2 1132.5,10.2 	"/>
	<path d="M1130.7,20.5L1130.7,20.5L1130.7,20.5z"/>
	<path d="M1129.1,18.9c0.4,0.5,0,1.2,1.6,1.6C1130.6,19.7,1130.9,19,1129.1,18.9z"/>
	<polygon points="1113.5,21.6 1113.2,21.6 1113.3,21.8 	"/>
	<path d="M1120.1,20c-0.1,0,0,0.1,0,0.2l0.3,0.1l0,0c0-0.1,0-0.2,0-0.3C1120.3,20,1120.2,20,1120.1,20z"/>
	<path d="M1117.7,6.4L1117.7,6.4c-0.4-0.1-0.7-0.2-1.1-0.2c0.1,0.2,0,0.5,0.2,0.6c0.4,0.2,0.8,0.4,1.3,0.5
		C1117.9,6.8,1117.9,6.5,1117.7,6.4z"/>
	<path d="M1139.8,9.4c-0.1,0.1-0.2,0.1-0.3,0.2c0.2,0.1,0.4,0.2,0.6,0.3l0.3-0.2C1140.2,9.5,1140,9.4,1139.8,9.4L1139.8,9.4z"/>
	<polygon points="1135.4,21.5 1135.3,21.5 1135.1,21.5 1135.2,21.5 	"/>
	<path d="M1140.2,13.4c0.2,0.5-0.2,1.1-0.5,2.2c1.9-1.1,3.4-1.1,4.5-0.1l0,0h0.1l0,0c1.1-0.6,2.5-1,2.9-2.1
		c-1.4-0.2-2.7-0.2-3.8-0.5l0,0c-1.2-0.3-2.3-0.7-3.5-1.1C1139,12.6,1140.1,12.9,1140.2,13.4z"/>
	<path d="M1116.8,20.6c-0.4-0.1-0.7-0.2-1.1-0.2c0,0.1-0.1,0.3-0.1,0.5l1.2,0.1C1116.8,20.9,1116.9,20.7,1116.8,20.6L1116.8,20.6z"
		/>
	<path d="M1117.4,10.4c-0.1,0-0.2,0-0.3,0l0.5,0.2c0-0.1,0-0.2,0-0.2l0,0C1117.5,10.4,1117.5,10.4,1117.4,10.4z"/>
	<polygon points="1144.5,11.9 1144.2,11.9 1144.4,12 1144.4,12 1144.4,12 1144.4,12 1144.4,12 	"/>
	<path d="M1148.2,4L1148.2,4c-0.1,0-0.2,0-0.3,0h-0.1c-0.1,0-0.2,0.1-0.3,0.2l0.4,0.1L1148.2,4z"/>
	<path d="M1142.4,8.4l0.6,0.3c0.1-0.1,0.4-0.3,0.4-0.4c-0.3-0.2-0.5-0.3-0.8-0.4C1142.5,8.1,1142.5,8.2,1142.4,8.4z"/>
	<path d="M1147,12.2L1147,12.2c0.5,0,1.1-0.2,0.6-0.9l-3.1,0.6C1145.4,12.1,1146.2,12.2,1147,12.2z"/>
	<path d="M1143.4,8.3L1143.4,8.3L1143.4,8.3z"/>
	<path d="M1143,5.5l1.2,0.4c0.2-0.2,0.6-0.5,0.6-0.6l0,0c-0.4-0.2-0.9-0.4-1.4-0.5L1143,5.5z"/>
	<path d="M1134.4,10.2c0.4-0.1,0.6-0.5,0.9-0.8l0,0c0,0-0.2-0.2-0.3-0.2l0,0c-0.4,0-0.8,0.1-1.1,0.3c-0.4,0.2-0.8,0.4-1.2,0.7
		C1133.2,10.3,1133.8,10.3,1134.4,10.2z"/>
	<path d="M877.5,11.6l0.2-0.2L877.5,11.6L877.5,11.6L877.5,11.6C877.5,11.7,877.5,11.7,877.5,11.6z"/>
	<path d="M889.4,16L889.4,16c0-0.2-0.1-0.3-0.1-0.4l-0.3,0.2L889.4,16z"/>
	<path d="M877.1,12.2L877.1,12.2c0.1-0.2,0.2-0.3,0.3-0.5c-0.2,0.1-0.3,0.2-0.5,0.3C876.9,12.1,877.1,12.2,877.1,12.2z"/>
	<path d="M875.5,13.8L875.5,13.8L875.5,13.8z"/>
	<path d="M860.5,17.5c-0.4-0.2-0.8-0.3-1.2-0.3c-0.4,0-0.8,0.1-1.2,0.3H860.5L860.5,17.5z"/>
	<path d="M884.7,15.1c-0.2-0.1-0.3-0.2-0.5-0.3h-0.1c-0.2,0-0.4,0-0.6,0.1c0.2,0.1,0.4,0.2,0.6,0.3
		C884.2,15.2,884.4,15.2,884.7,15.1z"/>
	<path d="M869.5,13.2c3.4,1,3.4,1,6,0.6c-1.5-0.4-3.1-0.6-4.7-0.7C870.3,13.1,869.9,13.1,869.5,13.2z"/>
	<path d="M986.4,14.7c0.4,0,0.9,0.1,1.3,0.1c0,0,0.1-0.1,0.2-0.3h-0.7c-0.2,0-0.5,0-0.7,0C986.4,14.5,986.4,14.6,986.4,14.7z"/>
	<path d="M884.1,14.9L884.1,14.9L884.1,14.9z"/>
	<path d="M883.4,14.9L883.4,14.9L883.4,14.9h-0.2C883.2,14.9,883.2,14.9,883.4,14.9L883.4,14.9L883.4,14.9L883.4,14.9z"/>
	<path d="M881.9,12.4c0.5,0.1,1,0.1,1.5,0c0.2,0,0.3-0.4,0.5-0.6l-1.2-0.1L881.9,12.4z"/>
	<path d="M884.6,9.6L884.6,9.6c-0.1-0.1-0.4-0.2-0.6-0.3c-0.1,0.1-0.4,0.3-0.4,0.4c0.1,0.1,0.4,0.2,0.6,0.3
		C884.4,9.9,884.6,9.7,884.6,9.6z"/>
	<path d="M883.6,16.7L883.6,16.7c0-0.1-0.2-0.1-0.3-0.2l-0.3,0.3l0.4,0.1C883.4,16.9,883.6,16.8,883.6,16.7z"/>
	<path d="M882.9,14.9L882.9,14.9c-0.1,0-0.2,0-0.3,0h0.5C883.1,14.9,883,14.9,882.9,14.9z"/>
	<path d="M880.3,17.8c0.1,0,0.3,0,0.4-0.1l0,0c0-0.1-0.1-0.3-0.1-0.4l-0.8,0.2C879.9,17.6,880.1,17.7,880.3,17.8z"/>
	<polygon points="816.3,14.6 816.6,14.7 816.7,14.5 	"/>
	<path d="M813.3,16.3c1.6,0.3,3.2,0.3,4.7-0.1l0,0c-0.7-0.1-1.5-0.2-2.2-0.2C814.9,16,814.1,16.1,813.3,16.3z"/>
	<path d="M810.2,14.5c0.2,0.1,0.4,0.2,0.6,0.2c0.3,0,0.5-0.1,0.7-0.2c-0.3,0-0.6-0.1-0.9-0.1l0,0C810.5,14.5,810.4,14.5,810.2,14.5z
		"/>
	<polygon points="790.4,19.8 790.3,19.8 790.3,19.8 	"/>
	<path d="M808,15.7c0.1,0.1,0.1,0.2,0.2,0.2c0.3,0,0.5-0.1,0.8-0.1l0,0c-0.1-0.1-0.1-0.2-0.2-0.2C808.5,15.6,808.3,15.6,808,15.7z"
		/>
	<path d="M820.7,14.7h1.3l0,0c-0.1-0.1-0.3-0.2-0.4-0.2l0,0C821.3,14.6,821,14.6,820.7,14.7z"/>
	<path d="M869.3,13.1L869.3,13.1c-1.2-0.5-2.5-0.8-3.9-0.8c-0.4,0-0.8,0-1.3,0.1C865.7,13.2,867.5,13.5,869.3,13.1z"/>
	<path d="M869.4,13.1L869.4,13.1L869.4,13.1z"/>
	<path d="M866,15.3L866,15.3c-0.7-0.1-1.4-0.2-2.1-0.2c-1.4,0.1-2.8,0.3-4.2,0.6C861.8,16.1,864,16,866,15.3z"/>
	<path d="M869.5,13.2L869.5,13.2L869.5,13.2L869.5,13.2L869.5,13.2L869.5,13.2L869.5,13.2L869.5,13.2L869.5,13.2h-0.2H869.5
		L869.5,13.2z"/>
	<path d="M855,15.8L855,15.8c-1.6-0.2-2.3-0.3-2.9-0.3s-1.2,0.1-1.9,0.3H855z"/>
	<path d="M840.5,17.2c0,0.1,0.1,0.2,0.1,0.3c0.4,0,0.8-0.1,1.2-0.1l0,0c-0.1-0.1-0.1-0.3-0.1-0.3C841.3,17.1,840.9,17.1,840.5,17.2z
		"/>
	<path d="M856.1,18.1l1.7-0.5c-0.1,0-0.2,0-0.3,0h-0.2C856.8,17.6,856.3,17.7,856.1,18.1z"/>
	<path d="M858,17.6L858,17.6C857.9,17.6,857.9,17.6,858,17.6L858,17.6L858,17.6L858,17.6z"/>
	<path d="M927.5,16.7c0.2,0.2,0.4,0.3,0.7,0.3c0.2,0,0.7-0.2,0.7-0.2l0,0c0-0.4-0.1-0.8-0.3-1.2C927.3,15.8,927.3,16.3,927.5,16.7z"
		/>
	<path d="M935.3,13.9C935.2,13.9,935.2,13.9,935.3,13.9c-0.4,0.2-0.7,0.5-1,0.7c0.3,0.1,0.7,0.2,1,0.3c0.8-0.1,0.9-0.4,0.6-0.8l0,0
		C935.7,14,935.5,13.9,935.3,13.9z"/>
	<path d="M946,11.7L946,11.7L946,11.7z"/>
	<path d="M945.6,11.7c-0.1,0-0.1,0.1-0.1,0.2l0.3,0.1l0.2-0.3c-0.1,0-0.2,0-0.2,0C945.7,11.7,945.6,11.7,945.6,11.7z"/>
	<path d="M922.3,0.5l0.5,0.3l0.3-0.1c-0.2-0.1-0.3-0.2-0.5-0.3l0,0C922.5,0.4,922.4,0.5,922.3,0.5z"/>
	<path d="M919.2,14c-0.1,0.1-0.3,0.2-0.3,0.2L919.2,14l0.2-0.2L919.2,14z"/>
	<polygon points="912.3,4.1 912.4,4.2 912.6,4.1 	"/>
	<path d="M921,15h-3.5C919.4,15.9,919.4,15.9,921,15z"/>
	<polygon points="982.4,14.2 982.4,14 982.1,14.1 	"/>
	<path d="M901.3,15.2c-0.3-0.1-0.6-0.1-1-0.1c-0.9,0-1.7,0.3-2.3,0.9C899.2,15.9,900.3,15.7,901.3,15.2L901.3,15.2z"/>
	<path d="M953.3,7.4c0-0.1,0-0.2,0-0.2h-0.8c0,0.1,0,0.2,0,0.2C952.7,7.4,953,7.4,953.3,7.4z"/>
	<polygon points="986.1,8.9 986,8.7 985.8,8.8 	"/>
	<path d="M972.6,4.3L972.6,4.3c-0.1-0.1-0.1-0.2-0.2-0.3c0,0.1-0.1,0.1-0.1,0.2S972.5,4.3,972.6,4.3z"/>
	<path d="M957.8,13.1c0.1,0,0.2,0,0.4,0l0,0c0-0.1-0.1-0.2-0.1-0.3l-0.3,0.1C957.8,13,957.8,13.1,957.8,13.1z"/>
	<polygon points="980.6,6.6 980.3,6.7 980.5,6.8 	"/>
	<polygon points="897.2,14.9 897.1,14.8 896.9,14.9 	"/>
	<path d="M898.1,13.4c0.2,0.2,0.5,0.2,0.7,0.2s0.6-0.2,0.6-0.3c-0.2-0.4-0.3-0.8-0.6-1.2h0.1h-0.1l0,0c0,0,0,0,0,0.1
		C898.1,12.5,897.6,12.9,898.1,13.4z"/>
	<path d="M897.1,11.3L897.1,11.3c-0.7-0.3-1.4-0.5-2.2-0.6c-0.3,0-0.7,0-1,0.1C894.9,11.3,896,11.4,897.1,11.3L897.1,11.3h0.2H897.1
		L897.1,11.3z"/>
	<path d="M891.1,14.1l4.5-0.8l0,0c-0.3-0.6-0.9-0.9-1.6-0.9c-0.3,0-0.6,0-0.8,0.1C892,12.7,891.2,13.1,891.1,14.1z"/>
	<path d="M896.3,18.3c0.7-0.4,1-1.1,2.1-1.3c-0.2-0.2-0.3-0.5-0.6-0.5l0,0c-0.3-0.1-0.7-0.1-1-0.1c-0.5,0-1,0.1-1.4,0.5
		c-0.6,0.5-1.3,0.9-1.9,1.4C894.3,18.7,895.3,18.7,896.3,18.3z"/>
	<path d="M897.9,16L897.9,16L897.9,16L897.9,16L897.9,16L897.9,16L897.9,16L897.9,16c-1.3-0.6-2.7-0.9-4.1-0.9
		c-0.9,0-1.8,0.2-2.7,0.5C893.5,16.7,893.9,16.8,897.9,16z"/>
	<path d="M901.8,18.8L901.8,18.8c-0.2,0.1-0.3,0.2-0.4,0.3l0.7,0.1c0-0.1,0-0.2,0-0.4l0,0C902,18.9,901.9,18.8,901.8,18.8z"/>
	<path d="M905.2,18.2c-0.4-0.6-1-0.9-1.7-0.9c-0.5,0-1,0.1-1.5,0.3L905.2,18.2L905.2,18.2z"/>
	<path d="M897.8,2.7L897.8,2.7c-0.1,0-0.2,0.1-0.3,0.1c0.1,0,0.2,0.1,0.3,0.1s0.2-0.1,0.3-0.1C897.9,2.8,897.9,2.7,897.8,2.7z"/>
	<polygon points="910.2,6.2 910,6.1 909.8,6.2 	"/>
	<polygon points="912.1,15.2 912.4,15.2 912.2,15.1 	"/>
	<path d="M898.8,12.1l1.1-0.4c-0.3-0.2-0.6-0.4-0.9-0.5c-0.1,0-0.2,0-0.3,0c-0.4,0-0.9,0.1-1.4,0.1L898.8,12.1z"/>
	<path d="M906,14.5l-0.7-0.3l-0.6,0.4c0.2,0.1,0.4,0.2,0.7,0.3C905.7,14.8,905.8,14.6,906,14.5z"/>
</g>
</svg>
