<?xml version="1.0" encoding="utf-8"?>
<!-- Generator: Adobe Illustrator 27.2.0, SVG Export Plug-In . SVG Version: 6.00 Build 0)  -->
<svg version="1.1" id="Laag_1" xmlns="http://www.w3.org/2000/svg" xmlns:xlink="http://www.w3.org/1999/xlink" x="0px" y="0px"
	 viewBox="0 0 1918.9 1124.7" style="enable-background:new 0 0 1918.9 1124.7;" xml:space="preserve">
<style type="text/css">
	.st0{enable-background:new    ;}
</style>
<g>
	<polygon class="st0" points="746.8,1117.4 746.8,1117.5 747.2,1117.5 746.8,1117.5 	"/>
	<path class="st0" d="M740.5,1121L740.5,1121L740.5,1121z"/>
	<path class="st0" d="M741.7,1121.2c3-0.8,3.8-2.2,2.3-3.7c-1-1-2.3-1.6-3.7-1.9l2.8,3.4c-0.9,0.4-1.9,0.8-2.7,1.3
		c-0.2,0.1-0.1,0.5,0.2,0.7s0.6,0.2,1,0.3C741.6,1121.2,741.6,1121.2,741.7,1121.2z"/>
	<path class="st0" d="M745.7,1116.1c-0.2,0.1-0.5,0.3-0.4,0.4l0,0c0.5,0.3,1,0.6,1.5,0.9c-0.2-0.4-0.4-0.8-0.7-1.2
		C746,1116.2,745.9,1116.1,745.7,1116.1z"/>
	<path class="st0" d="M746.9,1121.5L746.9,1121.5c0.3,0.3,0.7,0.4,1.1,0.4c0.2,0,0.4,0,0.6,0c0.2,0,0.5,0,0.7,0s0.4-0.1,0.6-0.2
		c-0.2-0.1-0.4-0.2-0.6-0.3C748.5,1121.2,747.7,1120.8,746.9,1121.5C746.9,1121.3,746.8,1121.4,746.9,1121.5z"/>
	<polygon class="st0" points="738.5,1121.9 738.3,1122 738.5,1122.1 	"/>
	<path class="st0" d="M697.7,1122.2c-1.1-0.6-2.1-1.1-2.9-1.6c-0.4-0.3-0.7-0.7-1-1.2c-1.6,0.5-1.8,1.2-1.8,1.9
		c0,0.9-2.4,0.6-2.2,1.7c2.1,0.5,4.3,0.6,6.5,0.5c1.8,0,3.7,0,5.5,0.3c0.2-0.5,0.8-1,0.7-1.5c-0.3-1-1.6-1.5-3.2-1.8L697.7,1122.2z"
		/>
	<path class="st0" d="M740.2,1115.6L740.2,1115.6L740.2,1115.6L740.2,1115.6z"/>
	<path class="st0" d="M737.9,1117.5L737.9,1117.5c0.1,0.1,0.1,0.2,0.2,0.3c0.1,0,0.3-0.1,0.3-0.1s-0.1-0.1-0.1-0.2H737.9z"/>
	<path class="st0" d="M740.2,1115.6L740.2,1115.6L740.2,1115.6L740.2,1115.6L740.2,1115.6z"/>
	<polygon class="st0" points="778.1,1104.3 778.2,1104.4 778.4,1104.3 	"/>
	<path class="st0" d="M772.4,1106.7c-0.6-0.1-1.2-0.3-1.7-0.3c-0.3,0-0.6,0.3-1,0.6l5,2.1l0,0h0.1h-0.1c0.5-0.8,1.3-1.2,2.2-1.2
		c2.1-0.2,4.2-0.4,6.9-0.7c-1.8-0.8-2.5-1.9-5-1.9c-0.5,0.3-1.1,0.6-1.7,0.9C775.7,1106.9,774,1107.1,772.4,1106.7z"/>
	<path class="st0" d="M760.3,1111.3c-0.1,0.3,0.5,0.6,1,0.6c0.1,0,0.2,0,0.3,0c1.2-0.3,2.2-0.7,2.4-1.7l-2.8-1.1
		C760.8,1109.8,760.5,1110.6,760.3,1111.3L760.3,1111.3z"/>
	<path class="st0" d="M765.9,1116c-0.1,0-0.2,0-0.2,0h-0.1c0,0.1,0,0.1,0,0.2h0.4C766,1116.1,766,1116,765.9,1116z"/>
	<path class="st0" d="M761.1,1116.5L761.1,1116.5c0.2,0.1,0.4,0.2,0.6,0.3c0.1-0.1,0.2-0.2,0.2-0.2c-0.2-0.1-0.4-0.2-0.7-0.3
		C761.2,1116.3,761,1116.4,761.1,1116.5z"/>
	<polygon class="st0" points="761.1,1109 761.1,1109 761.1,1109.1 761.1,1109.1 	"/>
	<path class="st0" d="M761.1,1121.6L761.1,1121.6L761.1,1121.6c0.3-0.1,0.7-0.2,1-0.4c-0.5-0.2-1-0.3-1.5-0.5
		c-0.2,0-0.5,0.1-0.7,0.2C760.3,1121.2,760.7,1121.4,761.1,1121.6z"/>
	<path class="st0" d="M767,1118.8L767,1118.8L767,1118.8z"/>
	<path class="st0" d="M761.1,1109L761.1,1109L761.1,1109L761.1,1109L761.1,1109z"/>
	<path class="st0" d="M705,1120.5c-0.2,0.6-0.3,1.1-0.3,1.7c0,0.6,0.6,1,1.5,1.2c0.2,0,0.3,0,0.5,0c0.4,0,0.8-0.1,1.1-0.2
		c0.9-0.6,1.1-1.3,0.4-2C707.4,1120.5,706.1,1120.1,705,1120.5z"/>
	<path class="st0" d="M756.7,1116.6c-0.1-0.4-0.4-0.7-0.8-0.8c-1.8-0.3-3.7-0.1-5.3,0.6l0.2,0.6l0,0c1.3,0,2.7,0.1,4,0.1
		c0.3,0,0.6,0,1,0S756.8,1116.8,756.7,1116.6z"/>
	<path class="st0" d="M767.8,1118.9c0.1,0,0.1-0.3,0.2-0.4c-0.3-0.1-0.5-0.1-0.8-0.1c-0.1,0-0.1,0.3-0.2,0.4c0.2,0,0.4,0.1,0.6,0.1
		C767.7,1118.9,767.7,1118.9,767.8,1118.9z"/>
	<path class="st0" d="M762.9,1118.8c-0.1,0.1,0.2,0.3,0.3,0.4l1.3-0.5l-0.7-0.4C763.4,1118.4,763.2,1118.6,762.9,1118.8
		L762.9,1118.8z"/>
	<path class="st0" d="M756.2,1120.8l-3.4-2.2c-0.5,0.1-1.1,0.3-1.5,0.5c-0.3,0.2-0.4,0.6-0.2,1c0.3,0.5,0.9,0.8,1.4,0.9l0,0
		c0.2,0,0.3,0,0.5,0C753.8,1121.1,754.8,1120.9,756.2,1120.8z"/>
	<path class="st0" d="M1789.4,1104.3C1789.2,1104.2,1789.2,1104.2,1789.4,1104.3L1789.4,1104.3z"/>
	<path class="st0" d="M786.3,1114.4L786.3,1114.4L786.3,1114.4C786.3,1114.5,786.3,1114.4,786.3,1114.4z"/>
	<path class="st0" d="M1521.5,1088.9L1521.5,1088.9L1521.5,1088.9L1521.5,1088.9L1521.5,1088.9z"/>
	<polygon class="st0" points="278.1,1095.3 278.2,1095.4 278.2,1095.3 278.2,1095.3 	"/>
	<path class="st0" d="M276,1095.3h2.1l0,0C277.5,1094.9,276.7,1094.9,276,1095.3z"/>
	<path class="st0" d="M271.8,1095.1L271.8,1095.1L271.8,1095.1z"/>
	<path class="st0" d="M1520.7,1089.8L1520.7,1089.8L1520.7,1089.8C1520.7,1089.9,1520.7,1089.9,1520.7,1089.8L1520.7,1089.8z"/>
	<path class="st0" d="M1565.2,1091.7L1565.2,1091.7c0.6,0,1-0.1,0.8-0.6c-0.8,0-1.6,0.1-2.3,0.1c-0.8,0-1.5,0-2.3,0
		c0,0.1,0,0.2-0.1,0.3C1562.7,1091.5,1563.9,1091.6,1565.2,1091.7L1565.2,1091.7z"/>
	<polygon class="st0" points="1538.7,1092.5 1538.6,1092.6 1538.6,1092.6 	"/>
	<path class="st0" d="M1546.9,1092.2c0.1,0,0.2,0,0.3,0c0.1,0,0.1-0.2,0.1-0.2c-0.2-0.1-0.4-0.1-0.6-0.2c-0.1,0.1-0.1,0.2-0.2,0.4
		c0.1,0,0.1,0,0.2,0H1546.9z"/>
	<path class="st0" d="M1540.9,1089c0.1,0.2,0.5,0.2,0.9,0.2s0.7-0.1,0.8-0.2c0.1-0.2-0.2-0.5-0.4-0.8c-0.1-0.1-0.4-0.1-0.7-0.2
		c-0.1,0-0.3,0.1-0.3,0.1C1541.1,1088.5,1540.8,1088.8,1540.9,1089L1540.9,1089z"/>
	<polygon class="st0" points="1541.1,1090.5 1540.9,1090.5 1540.9,1090.6 	"/>
	<path class="st0" d="M674,1124.3l-0.7-0.1c-0.1,0.1-0.1,0.3-0.1,0.4l0,0c0.1,0,0.2,0.1,0.3,0.1c0,0,0,0,0.1,0
		C673.7,1124.5,673.9,1124.4,674,1124.3z"/>
	<path class="st0" d="M702.5,1118.2c-0.5,0.3-1.8,0.5-1,1.3c2.1,0,4.3-0.1,6.5-0.1c2.1,0,3,0.6,2.9,1.8c0,0.4,0,0.9,0.1,1.3l0.4,0.7
		l1-0.4l4.5,0.6c-0.7-0.7-1.3-1.5-1.8-2.3c-0.3-0.6,0-1.2,1.7-1.3c0.3,0.7,0.6,1.3,0.9,1.8c0.5,0.5,1.2,0.7,1.9,0.6
		c0.8-0.3,0.8-0.7,0.6-1.2c-0.2-0.6-1.7-1.2-0.8-1.8c1.5-0.1,2.9-0.1,4.2-0.3c1.3-0.3,2.7-0.1,3.8,0.6l6.7-0.9
		c-0.1-0.6-0.2-1.3-0.4-2c-1.9-0.5-3.6,0-5.3,0.1c-1.2,0.1-2.2-0.1-2.5-0.9c-0.2-0.3-0.4-0.7-1.5-0.5c0,0.5-0.1,1.1-0.2,1.7
		l-4.3-0.3l0,0l0,0c0,0,0,0-0.1,0h0.1c-1.8,1.1-4.1,1.3-6,0.4h0.1h-0.1l0,0l0,0c-1.1,0.3-2.3,0.5-3.4,0.8
		C708,1118.5,705.2,1118.6,702.5,1118.2z"/>
	<path class="st0" d="M688.7,1121.2c-1.4-0.4-2.9-0.5-4.4-0.2c0.6,0.4,1.2,0.6,1.9,0.6C687.1,1121.5,687.9,1121.4,688.7,1121.2z"/>
	<path class="st0" d="M680.5,1124.1l4.4,0.1C683.9,1123,683.8,1123,680.5,1124.1z"/>
	<path class="st0" d="M898,1106.5L898,1106.5L898,1106.5z"/>
	<path class="st0" d="M727.5,1119.5L727.5,1119.5L727.5,1119.5z"/>
	<path class="st0" d="M731.2,1122.6L731.2,1122.6c0.4,0,0.7,0.1,1.1,0.1c1.6,0,2.8-0.5,2.9-1.2c0.1-0.7-0.9-1.1-3.4-1.3
		c-0.1,0-0.2,0.1-0.5,0.2l1.4,1.2c-1,0.3-2.1,0.2-2.9-0.4c-0.8-0.5-1.5-1-2.3-1.6l0,0h-0.1h0.1
		C727.7,1121.7,728.4,1122.3,731.2,1122.6z"/>
	<path class="st0" d="M898,1106.5L898,1106.5L898,1106.5z"/>
	<path class="st0" d="M898,1106.5L898,1106.5L898,1106.5z"/>
	<path class="st0" d="M675.1,1114.9h0.5c-0.1,0-0.2,0-0.2-0.1C675.3,1114.8,675.2,1114.9,675.1,1114.9z"/>
	<path class="st0" d="M722.7,1121c-0.5,0.5-0.2,1.3,0.7,1.7l0,0c0.4,0.2,0.8,0.3,1.2,0.3c0.5,0,0.9-0.1,1.3-0.4
		c-0.1-0.8-0.9-1.3-2-1.7C723.5,1120.8,723.1,1120.8,722.7,1121z"/>
	<path class="st0" d="M256.1,0.3c-0.2,0-0.4,0-0.6-0.1l0.2-0.2H0v1094.2c1,0.4,2.1,0.7,3.2,0.9c3.2,0.6,6.5,0.9,9.7,1.1
		c3.1,0,6,0.4,9,0.7c3.8,0.5,7.6,0.8,11.4,0.7c4-0.2,7.9-0.5,11.9-0.7c0.6,0,1.3-0.2,1.8,0.2l-1.7,1c1.3,0.2,2.6,0.3,3.9,0.3
		c3-0.1,5.4,0.5,7.1,2c1,0.9,2.3,1.5,3.7,1.6c2.7-0.5,5.6-0.7,8.1-1.7c1.2-0.5,1.9-0.3,3.4,0.8c1.5-0.3,2.9-1,4-2.1
		c0.4-0.3,0.8-0.4,1.2-0.5c0.2,0,0.5,0,0.7,0.1s0.3,0.3,0.3,0.4c-0.7,1-1.5,1.9-2.3,2.8c-0.5,0.3-1,0.5-1.6,0.5c-1,0-2-0.1-3.1-0.3
		c0.5,0.6,1.3,0.9,2,0.9c2.8,0.4,5.5,0.9,8.5,1.4c1.3-1,2.9-1.5,4.6-1.6c2.8-0.3,5.7-0.5,8.5-0.8c0.1,0,0.3,0,0.4,0
		c3.2,0,6.3-0.2,9.4-0.5c4.4-0.4,8.9-0.8,13.3-1.2c0.8-0.1,1.6-0.3,2.3-0.5c-0.9-0.7-1.7-1.3-2.4-1.9c-0.1,0-0.2-0.1-0.3-0.1
		c0.3-0.6-0.2-1.1-0.6-1.5c-0.3,0.1-0.5,0.1-0.8,0.1c-0.3-0.1-0.5-0.2-0.8-0.3c0.3-0.1,0.6-0.2,1-0.2c0.3,0.1,0.7,0.2,1,0.3
		c2.2-0.2,4.4-0.4,6.7-0.6c2.3-0.2,4.6-0.4,6.9-0.7v-0.3l-3.8-0.5l3.3-0.6l-2.2-1.2c0.5-0.3,1-0.6,1.5-0.8c3-0.6,6.1-0.9,9.1-0.8
		c-0.8,0.2-1.2,0.3-1.7,0.4c-0.9,0.2-1.8,0.3-2.7,0.4c-1.4,0.2-2.2,0.6-1.8,1c0.6,0.6,1.6,0.4,2.5,0.3c0.7-0.1,1.3-0.2,1.9-0.2
		c2.2-0.2,4.4-0.1,6.5,0.3l-2,0.6c0.3,0.1,0.6,0.2,0.9,0.3c3.4,0.4,6.8,0.6,10.1,1.1c2.7,0.4,5.5,0.4,8.3,0.1c0.8-0.1,1.6-0.1,2.4,0
		c1.7,0.3,3.4,0.4,5.1,0.4c4.7,0.4,9.4,0.9,14.2,0.4c0.3,0,0.5,0,0.8,0c2,0.7,4.4,0.5,6.5,0.8c4.1,0.8,8.2,0.4,12.1-0.9
		c1.8-0.6,3.8-0.8,5.7-0.5c0.2,0.5,0.4,0.9,0.6,1.3c4.8,0.4,9.6,0.3,14.4-0.3c0.3,0,0.5-0.1,0.8-0.1c4.5-0.3,9-0.3,13.5,0.1
		c1.2,0.1,2.3,0.4,3.5,0.5c1.3,0.1,2.6,0,3.9,0c-0.1,0.7-2.3,0.3-2.1,1.3c3.1-0.3,6-0.6,9.1-0.8c3.1-0.2,6.4-0.7,8.8,1.1
		c1.7-0.2,3.3-0.4,4.8-0.5c0.6-0.1,1.3-0.2,1.9-0.1c1.9,0.5,3.8,0.7,5.8,0.6c0.7,0,1.4,0,2,0c0.9-0.1,1.7,0.1,2.5,0.6
		c1,0.9,2.5,0.7,3.9,0.5c1-0.1,2-0.5,3-0.5c2.7-0.1,5.4,0.1,8.1,0.6l-4.6,0.7c3.1,0.4,6.3,0.3,9.4-0.3c2.3-0.4,4.7-0.3,7.1,0
		c1.6,0.3,3.2,0.4,4.8,0.3c1.7,2.1,1.4,1.9,4.7,1.7c0.3,0,0.6,0,0.9,0.1c0.2,0.2,0.4,0.3,0.5,0.5c1,1.1,1.3,1.1,2.8,0.3
		c0.4-0.2,0.7-0.5,1.3-0.2c0,1.1,0,1.2,1.9,1.4l0,0l0,0l0,0c0.4-0.4,0.5-1,0.3-1.5c0.3,0.1,0.6,0.2,1,0.3c1.8,0.4,3.6,0.8,5.4,1
		c3.8,0.4,7.6,0.6,11.4,0.8c5.2,0.4,10.3,0.7,15.5,1c0.9,0.1,1.8-0.1,2.7-0.1c0-0.7-0.6-0.8-1.3-0.8c-1.6-0.2-3.2-0.3-4.8-0.4
		c-0.7-0.1-1.3-0.3-1.3-0.8s0.5-0.7,1.2-0.8c2.6-0.3,5.1-0.5,7.7-0.4c3.6,0.4,7.3,0.4,10.9-0.1c0.2,0,0.5,0,0.7,0s0.3,0,0.5,0
		c2.6-0.2,5.1-0.2,7.7-0.5c2.6-0.2,5.2-0.2,7.7,0c0.1,0,0.3,0,0.4,0c2.2-0.3,4.5-0.4,6.8-0.2c2.2,0.2,4.4,0.1,6.6-0.2
		c0.3,0,0.5,0,0.8,0.1c3,0.2,3,0.2,5.1-1.2c3,1.2,3,1.2,8.3,0.6c-0.2-0.2-0.4-0.3-0.7-0.6l6.1-0.2c0.2,0.5-1.5,0.2-0.7,0.9
		c1.5,0,3.1-0.3,4.5-0.8c1.3-0.5,2.7-0.3,3.8,0.4c0.6-0.6,1-1.4,2.6-1.3c0.2,0,0.5-0.3,0.7-0.5c0.7-0.7,1.2-0.8,1.9-0.3
		c0.9,0.6,2.1,0.9,3.2,0.8c1.4,0,2.7-0.1,4.1,0c1.6,0.2,3.1-0.1,4.5-0.8c0.5-0.3,1.2-0.5,1.8-0.5c6.3,0,12.6-0.1,18.8,0.1
		c2,0.2,4,0.2,6-0.1c0.5,0,1.1,0,1.6,0c2.4,0.1,4.9,0.3,7.3,0.3c1,0,1.9-0.1,2.9-0.1c1.3-0.1,2.6-0.1,4-0.1c0.8,0,1.6,0,2.4-0.1
		c1.4-0.2,2.9-0.1,4.3,0.4c0.2,0.1,0.8-0.1,1.2-0.1c3.1-0.1,6.2-0.6,9.3,0.2c0.4,0.1,0.8,0.1,1.2,0c0.9-0.2,1.9-0.2,2.9-0.1
		c0.8,0.1,1.6,0.1,2.4-0.1c1.8-0.4,3.7-0.3,5.5,0.1c0.5,0,1.1,0,1.6-0.2c1.8-0.4,3.8-0.4,5.6,0c0.5,0.1,1.1,0.1,1.6,0.1
		c2.5-0.1,5.1-0.5,7.5,0.3c0.6,0.1,1.3,0.1,1.9-0.1c2.4-0.8,5-0.7,7.3,0.2c1.2-0.5,2.3-1,3.7-0.4c0.4,0.1,0.7,0.2,1.1,0.3
		c1.2,0.4,2.6,0.4,3.8-0.2c0.4-0.1,0.8-0.2,1.2-0.3l3.5,0.7l3.1-0.8l1.7,1c2.2-0.2,4.2-0.5,6.2-0.6c1.8-0.1,3.9-0.4,5.3,0.7
		c0.5,0,0.9,0,1.4,0.1c1.1,0.3,2.3,0.1,3.2-0.5c0.8-0.5,1.8-0.5,2.6-0.1c1,0.4,1.8,0.9,2.9,1.4c0-0.7-0.1-1.1,1-1.3
		c2.4-0.5,3.3,0.7,4.6,1.5c1.2-0.4,2.5-0.8,3.8-0.9c1.2,0.1,2.4,0.3,3.5,0.6l6.4-0.9l1.5,0.8c-1.1,0.5-2.4,0.6-3.6,0.5
		c-1.2-0.1-2.6,0.5-4,0.8l2.8,1.6c1.2-0.3,2.7-0.5,4.1-0.9c1.1-0.3,2-0.8,3.1-1.2c0.8-0.3,1.5-0.6,2.3-0.8c0.9,0.2,1.7,0.5,2.5,0.9
		l6.7-1.4c0.1,0.1,0.2,0.1,0.2,0.2c-0.8,1.8-1.8,2.2-4.9,2.2c-0.7-0.1-1.5,0-2.2,0.2c-1.3,1.1-3.4,1.3-5.1,1.9
		c-1.2,0.4-2.3,0.9-3.5,1.3c0.9,0.4,1.9,0.5,2.9,0.2c2.3-0.3,4.6-0.8,6.9-1c5.1-0.6,10.2-1.6,15.2-3c1.2-0.3,2.7-0.5,4-0.7l2.4,2.6
		l-4.9,1.6h4l0.9,1.1l23-3.3c-0.2,0.8-0.3,1.5-0.5,2.2c-0.7,0.3-1.4,0.7-2.1,1c-0.7,0.3-1.6,0.6-2.4,0.8c-0.8,0.2-1.7,0.5-2.6,0.7
		c-0.9,0.2-1.8,0.4-2.6,0.6c-0.7,0.2-2,0.1-2,1c1.1,0,2.2-0.2,3.2-0.4c2.6-0.8,5.4-1.3,8.1-1.3c1.5-0.1,3-0.3,4.5-0.8
		c3.2-1.2,6.7-1.3,10-0.3c-1.5,0.9-3.5,0.7-5.1,1.2c1.6,1,3.6,1.4,5.4,1c1.1-0.2,2.2-0.2,3.3-0.2c1.6,0,3.1-0.1,4.7,0
		c0.3,0,0.6,0.3,1,0.5l-3.5,1c0.6,0.3,0.9,0.5,1.2,0.7c0.1,0,0,0.2-0.1,0.2c-0.3,0.1-0.5,0.2-0.8,0.2c-2.5,0-5,0-7.5,0
		c-0.3-0.5-0.7-0.9-1.2-1.2c-0.5-0.3-1-0.5-1.6-0.5c-1.9,0.5-4.4,0.2-6.3,1.3l1.9,0.8c-1.2,0.5-3.1,0.1-4.2,1.3
		c2.9,0.2,5.9,0.1,8.8-0.2c2.6-0.3,5.3-0.4,8-0.3c-1,0.5-1.4,0.8-1.8,0.8c-1.6,0-3.1,0.1-4.6,0.4c-1.2,0.2-2.5,0.4-3.7,0.4
		c-2.6,0.1-5.1,0.5-7.6,1.3c3.1,0.4,6.2,0.2,9.2-0.5c1.7-0.3,3.4-0.5,5.1-0.5c3.6-0.2,7.3-0.3,10.9-0.5c1.3-0.1,2.5-0.1,3.8-0.1
		c0.6,0,1.3,0.1,1.1,0.7l-8,1.2l0,0h-0.2h0.1l0,0c0,0.4,0,0.8,0,1.4c1.6,0,3,0.1,4.3,0.1c2.4,0,4.7-0.1,7.1-0.1
		c0.9-0.1,1.9,0,2.8,0.2c1.8,0.5,3.6,0.7,5.4,0.7l0,0c2.5,0.1,5,0.3,7.4,0.4l2.2-1.2c1.9,0.6,3.9,0.7,5.8,0.4c1,0,2.1,0,3.1,0.2
		c0.4-0.3,0.7-0.7,1-1.1c0.3-0.5,0.9-0.6,1.7-0.7l3.3,1.5c1.8-0.4,1-1.5,1.7-2.4l5-0.1c1,0.9,1.7,2,4,1.5c0.5-0.1,1-0.3,1.5-0.5
		l-1.6-1.3c2.3-0.7,3,0.8,4.7,0.9l0.5-1.4l2.9,0.1c-0.2,0.5-0.3,0.8-0.4,1.2c-0.3,0.9,0.7,1.1,1.9,1.1c0.5-0.6,1.3-1,2.1-0.8
		c1.4,0.1,2.7-0.1,4-0.7l0,0c0.4,0.1,0.9,0.2,1.3,0.2c2.2,0.1,2.1,0.1,2.9-1.1c0.3-0.5,0.7-0.8,1.2-1c1.5-0.4,1.9-1,1.7-1.9
		c-0.1-0.6,1.2-0.8,2.1-0.4c0.4,0.2,0.9,0.5,1.3,0.8l4.1-1.9c0-0.5,1.6-0.8,0.3-1.5l-3,0.6c-0.4-0.5-0.8-1.1-1.1-1.7
		c-0.2-0.7-0.3-1.4-0.3-2.2c-1.9,0.2-3.8,0.5-5.6,1c0.5,0.5,0.9,1,1.2,1.6c0.5,1.3-0.3,2-2.7,2.3c-0.3,0-0.6,0.1-1,0
		c-0.1,0-0.2,0-0.4,0c1.2-1.7,1.2-1.7-1.1-2.7l0,0l0,0h-0.1h0.1l-2.2,0.8c-3.2-2.1-3.2-2.1-0.4-4.3c1.5,0.3,3,0.5,4.5,0.6
		c1.7-0.1,3.4,0,5.1,0.2c0.3,0,0.6-0.1,0.8-0.2c1.9-1.1,4.9-0.6,6.9-1.6c0.7-0.3,1.5-0.3,2.3-0.1c1.7,0.6,2.9-0.2,4.6-0.4
		c0.1,0.8,0.2,1.4,0.2,2.2c-2.7,0.5-5.5,0.3-8.2,0.9c1,0.6,1.9,1.3,2.6,2.1c0.5,0.7,0.2,1.5,0.3,2.3c2.8,0.4,2.8,0.4,5-0.6
		c-1.5-0.8-2.7-1.8-1.7-3.1l3.5-0.9c0.2-1.1,0.4-2.1,0.6-3c2.3-0.8,3.5,0.6,5.4,0.6l3.6-1.5c1.4-0.6,3-0.6,4.4,0
		c0.8,0.3,1.5,0.6,2.4,0.9l4.2-1.6l7.2,1.4c0.7-0.3,1.5-0.5,2.2-0.7c1.4-0.2,2.8,0,4.2-0.2c1.5-0.2,2.8-0.9,4.2-1
		c4.4-0.3,8.8-0.5,13.2-0.6c0.6,0,1.1,0,1.7,0c1.3,0.1,2.6,0,3.9-0.4c0.6-0.1,1.2-0.1,1.8,0c1.9,0.3,3.7,0.6,5.3-0.3
		c0.6-0.2,1.2-0.2,1.8-0.1c2.1,0.5,4.3,0.4,6.4,0c1.9-0.6,4,0,5.4,1.4c0.3,0.3,0.6,0.5,0.9,0.7c2.5-0.3,0.9-1.8,2.4-2.3
		c0.3,0,0.5-0.1,0.8-0.1l0,0c2.1,0.3,4.2,0.4,6.4,0.4c1.6,0.3,3.2,0.3,4.8,0.1c0.8,0,1.6,0.1,2.4,0.2c0.9,0.1,1.9,0.1,2.8,0
		c0.6,0,1.2-0.1,1.7-0.3c0.3,0.1,0.6,0.2,0.9,0.4c1.4-0.3,2.9-0.6,4.4-0.7h1.5c3.1,0.3,6,0.3,9,0.4c0.6,0,1.3,0,1.9,0
		c2.2,0.2,4.5,0.2,6.7,0c0.4,0,0.8,0.1,1.2,0.2c-3.1,0-6,0.9-9.2,0.5c-2-0.2-4.1-0.2-6.1,0.1c-2.6,0.4-5.3,0.6-8,0.6
		c-0.8,0-2-0.1-2.3,0.8c1.3,0,2.6,0,3.8,0c2.8,0.1,5.7,0.3,8.5,0.4c3.9,0.1,5.9,1.8,8.5,3.1c0.9,1.8,3.5,2.4,6.2,3.1l-1.1-1.2l0,0
		c0.4-0.1,0.9-0.2,1.4-0.2c0.8,0,1.6,0.2,2.3,0.7l-2.5,0.7l0.3,0.1c-0.1,0-0.2,0-0.3,0c-0.2,0.2-0.3,0.4-0.4,0.6
		c0.2,0.1,0.5,0.1,0.7,0.1c0.2-0.2,0.4-0.3,0.5-0.6c1,0.3,2,0.5,3.1,0.6c1.2,0.2,2.5,0.1,3.7-0.1c2.2-0.6,4.6-0.7,6.9-0.3
		c2.6,0.3,5.3,0.6,8,0.8s5.4,0.3,8,0.4c1.9,0.1,3.8,0,5.7,0.1c3.8,0.2,7.6,0.4,11.3,0.7c1.2,0,2.4,0.2,3.6,0.5
		c3.3,1.9,7.5,1.6,11.6,1.8c0.6-0.1,1.1-0.2,1.7-0.3c-3.3-1.1-7.3-0.2-10.5-1.9c1.2-0.3,2.4-0.4,3.7-0.3c0.7,0.1,1.5,0.1,2.2,0
		c1.7-0.2,3.4-0.3,5.2-0.4c0.9,0,1.9,0,2.8,0s1.9,0,2.8,0c1.8-0.1,3.6-0.2,6.1-0.4l-3.7-1.6c3.2-0.2,6.2-0.5,9.1-0.6
		c2.2-0.1,4.4-0.1,6.6-0.2c3.7-0.1,7.4-0.8,11.1,0.2c0.5-0.1,1-0.2,1.4-0.4l-3.3-1.1l0.3-0.4l8.6,0.6c0.5,0.3,1,0.7,1.5,1.1l0.4-0.3
		c0.6,0.5,1.3,0.8,2.1,0.6v-1.1c1.3-0.4,2.8-0.6,4.2-0.4c-0.5,0.1-1,0.3-1.5,0.4c-0.1,0-0.1,0.2-0.1,0.4c1.1,0.2,2.3-0.1,3.2-0.7
		c2.5,0.1,5,0.2,7.5,0.3c2.5,0.1,5.1,0.1,7.6,0.3c2.7,0.2,5.4,0.2,8.1,0c4.2-0.4,8.5-0.3,12.7,0.4c2.5,0.4,5,0.6,7.5,0.5
		c4.1-0.1,8.2-0.2,12.3-0.1c3.1,0.1,6.2,0.1,9.3,0.1c1.6,0,3.3,0,4.9,0c0.3,0,0.5,0,0.8,0c1,0,2,0,2.9,0.2c0.9,0.3,1.7,0.7,2.4,1.2
		l3-1.2c1.5,0.2,2.7,0.3,4,0.4c7,1,8.2,1,16.1,0.1c0.6,0,1.3,0,1.9,0c4.1,0.1,8.2,0.2,12.3,0.3c0.1,0,0.2,0,0.3-0.1
		c0.1,0,0.1-0.1,0.1-0.1v-1.9c-0.7-0.2-0.8-0.4,0.1-0.6h-0.1h0.1l0,0c1.4-0.4,2.8-0.7,4.3-1c1.8-0.2,1.7-1.5,3.4-1.8
		c0.3,0,0.6-0.2,0.9-0.2c1-0.2,2-0.7,2.8-1.4c0.6-0.5,1.4-1,2.2-1.5c1.5,0.4,3.1,0.4,4.2,1c-1,0.3-2,0.4-3.1,0.3
		c-1.4-0.2-2.8,0.1-4,0.8l1.9,0.8l0,0h0.1l0,0l2.9,0.8c0.7-0.3,1.3-0.6,2-0.8c0.5-0.2,1.1-0.6,1.7-0.2c0.6,0.3,0,0.7-0.3,1
		c-0.2,0.2-0.2,0.4-0.3,0.7c1.4-0.2,2.5-0.3,3.6-0.4c1.3-0.1,2.7-0.1,4-0.2c1.3,0,2.6-0.4,3.6-1.2l3.6,0.9c2-1,4.3-1.2,6.6-0.8
		c1.3,0.9-0.8,1.4,0.2,2.2c1.5-0.2,1.8-1.1,2.6-1.6c1.3-0.8,2.8-1.1,4.3-0.7c2.6,0.8,5.4,0.7,8.1,1l1.8,1.1c2.5-0.5,4.8-1.9,7.3-0.3
		c1.9-1.8,1.9-1.8,4.9-1.4c0.7,1-1.7,1.2-1.9,2.2c0.6,0.2,1.3,0.2,1.9,0.2c2.1-0.4,4.2-0.5,6.2-0.1c3,0.4,6.1,0.4,9.1,0.2
		c1.4-0.1,2.9-0.1,4.3,0c3.4,0.1,6.9,0.1,10.3,0.2c2,0,3.6-0.4,4.6-1.4c0.3-0.1,0.5-0.1,0.8-0.1c0.1,0.5,0.2,1,0.3,1.6
		c2.6,0.3,5.3,0.2,7.9-0.1c0.7-0.1,1.4-0.4,2-0.7c0.5-0.2,1-0.5,1.5-0.7c0.3,0,0.5,0,0.8,0c-0.1,0.4-0.3,0.8-0.5,1.3
		c0.9,0.1,1.5,0.2,2.1,0.2c2.7,0,5.5-0.4,8.1-1c1.6-0.5,3.3-0.7,5-0.5l-0.1,0.6c2.2,0.5,4.4,0.6,6.6,0.3c2-0.3,3.9-0.2,5.9,0
		c3.5,0.5,7.1,0.5,10.6,0c1.2-0.1,2.3-0.1,3.5-0.1c3.2,0,6.4,0,9.5,0c0.4,0,0.8,0,1.2,0c0.9,0,1.8,0,2.7,0c3.4,0.3,6.9,0.2,10.3-0.1
		c0.8-0.1,1.6-0.1,2.4,0c1.4,0,2.9,0.1,4.3,0c2.6-0.2,5.3-0.1,7.9,0.2c2.1,0.3,4.2,0.3,6.3,0c1.2-0.2,2.3-0.2,3.5,0
		c2.6,0.5,5.2,0.5,7.8,0c0.9-0.2,1.8-0.2,2.7-0.1c3.2,0.6,6.5,0.7,9.7,0.4c0.9-0.1,1.9-0.1,2.8-0.1c1.6,0,3.2-0.1,4.8-0.1
		s3.1-0.2,4.7-0.3c1.8-0.1,2.1-1.3,4-1.6c0.2,0.5,0.4,1,0.6,1.5c2.3,0,4.4,0,6.5,0c2.7,0,5.3-0.2,8-0.2c2,0,3.3-0.4,3.8-1.6
		c0.1-0.3,0.5-0.6,0.8-0.9c2.3,0.2,2.5,1.5,4,2l2.2-0.1c0.2,0.2,0.4,0.4,0.6,0.7s0.3,0.5,0.6,1.1l-3.4-1c0.1,0.8,0.4,1.5,0.7,2.2
		c0.1,0.2,0.9,0.4,1.4,0.6c0.7-0.6,1.4-1.1,2.1-1.5c1.4-0.8,3.1-1,4.6-0.4c2.4,0.8,4,0.7,7.5,0.1l-4.4-0.7c2.1-0.5,4-1,5.9-1.5
		c0.5-0.1,1-0.1,1.6-0.1c4.1,0,8.1-0.3,12.1-0.8c1.5-0.4,3.1-0.2,4.5,0.3c1.1,0.4,2.3,0.5,3.4,0.2c1.4-0.3,2.7-0.6,4-1
		c5.1-1.6,10.5-1.9,15.7-1c0.2,0,0.5,0.1,0.7,0.1l-0.1,0.7c0.8,0.3,1.7,0.7,2.6,1c1,0.3,2.1,0.3,3-0.1c1-0.3,1-0.8,0.7-1.4
		c-0.1-0.1,0.1-0.3,0.2-0.4c1.8-0.7,3.6-0.2,5.4-0.1c1.6,0.2,3.3,0,4.8-0.7c0.2,0,0.5,0,0.7,0.1c0.3,0.5-1,1.1,0.1,1.7
		c0.6,0,1.2,0,1.9,0c0.9,0,1.8-0.1,2.8-0.1c1.1,0,1.4,0.4,1.1,1.3c0,0.1,0,0.3,0,0.4c2.2,0.3,3.6-0.9,5-1c1.5,0.4,2.6,0.7,3.7,0.9
		c1.1,0.2,2.3,0.4,3.4,0.5c2.3,0.3,4.6,0.7,7,0.9c1,0,2,0,3-0.1c0.4-1.1,1.2-2,1.3-3.1c2.1-0.2,4.2-0.5,6.2-0.7
		c1.5,0.5,2.9,1.2,4.9,0.6l3.6,0.8c1.1-0.4,2.2-0.6,3.4-0.8c2.4-0.2,4.8-0.3,7.2-0.4c2.8-0.1,3.7,0.3,4.6,1.9
		c0.1,0.1,0.1,0.3,0.2,0.4c0.3,0.2,0.7,0.3,1.1,0.3c0.3,0,0.7-0.3,0.7-0.4c-0.1-0.8-0.2-1.5-0.4-2.3c0.4-0.1,0.9-0.1,1.3-0.1
		c1.3,0.6,2.8,0.7,4.2,0.3c1.7-0.3,3.4-0.2,5,0.4c0.2,0.5,0.4,0.9,0.6,1.4c0.4,0.4,1.1,0.5,1.7,0.2c0.4-0.2,0.8-0.4,1.1-0.7
		c-0.4-0.4-0.7-0.8-1-1.3c1.8-0.1,3.4-0.3,5.1-0.2c1.5,0.1,3,0.7,4.3,1.6l1.9-1.6l1.6,1c2.6-0.6,5.3-0.4,7.9-0.5
		c0.4,0.6-1.5,1-0.2,1.5c3.5-1,3.5-1,8.4-1.1c0.5,0,1.1,0,1.7,0c1,0.3,2,0.7,3,1.2c1.2,1,2.8,1.1,4.7,0.9c0.6-0.6,1.2-1.2,1.9-1.8
		c0.5,0.1,1,0.2,1.5,0.2c1.9-0.3,3.3-0.2,4.5,0.8c1.1,0.7,2.4,1,3.6,0.7c0.8-0.1,1.6-0.1,2.3,0.1c1,0.2,2.1,0.3,3.1,0.3
		c0.3,0.5,0.8,0.8,1.3,0.7c0.9,0.1,1.9,0,2.8-0.1c2.2-0.3,4.4-0.3,6.5,0c3.5,0.3,7.1,0.4,10.6,0.1c1.9-0.1,3.8,0,5.6,0.4
		c0.9,0.2,1.8,0.3,2.7,0.2c1.5-0.3,2.9-0.3,4.4-0.2c1.2,0.1,2.4,0.1,3.6,0c1.4,0.3,2.9,0.4,4.4,0c1.2-0.1,2.4-0.2,3.6-0.3
		c0.2,0.4,0.3,0.8,0.5,1.3c0.8,0,1.7-0.1,2.4-0.1c1-0.1,2,0,3.1,0c1.1,0.1,2.2,0.1,3.4,0c1.6,1,3.5,0.4,5.3,0.3c0.7,0,1.3,0,1.9,0
		l1.4,1.2c0.8-0.2,1.4-0.3,2-0.5c1.6-0.4,3.2-0.5,4.8-0.4c2,0.1,4.1,0.2,6.1,0.2c0.7,0,1.3,0,2,0c2-0.1,4.1,0,6.1,0.5
		c0.4,0.1,0.8,0.1,1.2,0.1c3.8,0,7.7-0.1,11.5-0.1c3.4-0.1,6.8-0.2,10.2-0.2c0.9-0.1,1.9,0,2.8,0.2c1.3,0.3,2.7,0.3,4,0.1
		c1.1-0.1,2.2-0.2,3.2-0.3c1.1-0.2,2.3,0,3.4,0.5c0.4,0.2,0.9,0.3,1.4,0.3c1.4,0,2.8-0.2,4.2-0.4c1.5-0.3,3-0.4,4.5-0.4
		c2.7-1,5.7-0.7,8.7-0.8c0.1,0,0.2,0.2,0.4,0.4l-2.8,0.7c1.3,0.1,1.8,0.1,2.3,0.1c1-0.1,2-0.4,2.8-0.9c1.6-0.7,1.9-0.7,4.7-0.3
		c-0.9,0.5-0.9,0.5-0.9,1.9c0.4,0,0.8,0,1.2,0s0.8,0,1.2-0.1c1.6-0.2,1.7-0.3,2-1.4c0.1-0.2,0.1-0.4,0.2-0.6
		c1.1-0.2,2.2-0.4,3.2-0.5c0.6,0,1.2,0,1.8,0.2c-0.4,1.1-1.5,1.7-2.6,1.7c-0.2,0-0.3,0.3-0.5,0.5c5,0.1,5,0.1,7.2-1.1
		c-0.7-0.9-0.7-1.2,0.5-1.5c1.2-0.3,2.4-0.4,3.5-0.2c0.1,0.1,0.2,0.1,0.2,0.2c0.3,1.5,0.5,1.7,2.8,1.6c1.3-0.2,2.6-0.1,3.9,0.2l0,0
		h0.1h-0.1c1.3-0.1,2.7-0.2,4-0.4c0.7-0.1,1.2-0.4,1.1-0.9c-0.1-0.3-0.3-0.6-0.6-0.8c-0.6-0.3-1.3-0.2-1.8,0.1
		c-0.4,0.2-0.9,0.6-1.1,0.6c-1-0.2-1.9-0.2-2.9-0.1c-0.5,0-1,0.1-1.5,0c-0.6,0-1.3-0.3-1.2-0.9c3.4-1,6.8-1.5,10.3-1.6
		c-0.1,0.2-0.2,0.4-0.2,0.6c0,0.1-0.1,0.4,0,0.4c1.7,0.4,1.7,1.6,3.2,2.2c2.1,0.1,4.4,0.1,6.1,1.2c0.8,0.4,1.8,0.2,2.5-0.4
		c0.8-0.8,2-1,3.4-1c0.5,0,1.1,0,1.6-0.1h0.1l5,0.6c-0.1,0.1-0.1,0.3-0.3,0.7c1.7,0,3.3-0.1,4.9-0.1c0.8,0,1.6-0.1,2.3-0.2
		c0.1-0.5,0.1-1,0.1-1.5c1,0.2,1.7,0.4,2.4,0.6c2.4,0.7,4.9,0.9,7.4,0.7c6.9-0.4,13.9-0.7,20.8-0.8c7.9-0.1,15.8-0.7,23.6-1.6
		c4.4-0.5,8.9-0.8,13.4-0.9c0.9,0,1.9,0,3.1-0.1l-1.8-0.6c1.6-0.6,3.3-0.9,5.1-0.9l0.9,0.8c1.3,0,2.5-0.2,3.7-0.6
		c0.7-0.2,1.4-0.1,2,0.1c0.7,0.2,1.4,0.2,2.1,0.1c0.5-0.2,1-0.2,1.5-0.4c0.9-0.3,1.8-0.4,2.7-0.5c1.9-0.1,3.8-0.6,5.5-1.4
		c1.1-0.5,2.2-1,3.4-1.2c3-0.5,6.1-0.8,9.2-0.8c2.7,0,5.1-0.3,7.3-0.9v-3.2c-0.9,0.1-1.7,0.1-2.6,0.2c-1.7,0.2-3.5,0.1-5.1-0.4
		c-0.5-0.2-0.9-0.5-1.3-0.9c2.8-0.8,5.9-0.4,9-0.6v-1.1c-3.2,0.1-6.3,0.2-9.5,0.3c-1,0-1.9,0.1-2.5-0.7c0.6-0.6,1.3-1.2,1.9-1.9
		c1.1-1.1,2.6-1.9,4.1-2.2c1-0.3,2.1-0.7,3.1-1.1c0.8-0.3,1.2-0.8,0.9-1.4c-0.9-0.2-1.8-0.3-2.8-0.5c0.4-0.8,0.8-1.6,1.1-2.3
		c-0.9,0.1-1.8,0.2-2.8,0.2s-1.5-0.9-0.8-1.3c1.2-0.6,2.4-1.2,3.8-1.9c1.1,1.1,0.4,2-0.3,2.9c1.6-0.9,2.7-2,3.6-3.1V0H256.4
		C256.3,0.1,256.2,0.2,256.1,0.3z M99.5,1101.1c-0.3,0-0.7,0-1-0.1c0-0.1,0.1-0.2,0.1-0.2l0,0c0.2,0,0.4,0,0.6,0h0.5
		C99.5,1101,99.5,1101.1,99.5,1101.1z M88.3,1100.5c1.4-0.2,2.8-0.4,4.2-0.5c1.8-0.1,3.5-0.4,5.2-1l0,0c0.4-0.2,0.8-0.2,1.3-0.2
		c0.6,0,1.2,0.2,1.7,0.5C96.9,1100.8,92.6,1100.7,88.3,1100.5z M107.6,1097.7L107.6,1097.7C107.7,1097.7,107.7,1097.7,107.6,1097.7
		c0.2,0,0.2,0,0.3,0c0,0.1,0,0.1,0,0.1c-0.1,0-0.2,0-0.3,0C107.6,1097.8,107.6,1097.7,107.6,1097.7z M110.6,1100.2
		c-0.9,0-1.8,0-2.7-0.1l0,0c-0.2-0.6,0.4-0.8,1.1-0.8c0.1,0,0.2,0,0.3,0c0.7,0.1,1.4,0.2,2.1,0.4
		C111.1,1100,110.8,1100.2,110.6,1100.2z M115.9,1097.8c0.4,0,0.7,0.1,1.1,0.2c-0.2,0.5-0.4,1-0.7,1.6c-0.7,0-1.3,0-2,0.2
		c-0.9,0.2-1.9,0.2-2.9,0c-0.2-0.6-0.3-1.3-0.5-2c1,0,2.1,0,3.2,0C114.7,1097.8,115.3,1097.8,115.9,1097.8z M120.5,1095.3
		c0.6-0.4,1.3-0.6,2-0.5c0.2,0,0.4,0,0.7,0C122.4,1095.2,121.4,1095.4,120.5,1095.3z M179.7,1084.5l0.3,0.1l-0.3,0.1V1084.5z
		 M156.6,1088.6l-0.2,0.1l-0.1-0.1H156.6z M151.4,1089.3c0-0.1-0.1-0.1,0-0.2l0,0c0.2-0.1,0.3-0.2,0.5-0.2L151.4,1089.3z
		 M152.7,1088.7c-0.2,0-0.4,0-0.6,0c0.2-0.1,0.3-0.1,0.5-0.2l0,0c0.1,0,0.2,0,0.3,0C152.8,1088.6,152.8,1088.7,152.7,1088.7z
		 M183.1,1089.6c-3.1,0.5-6.1,0.9-9.2,1.3c-0.9,0.1-1.8,0.1-2.7-0.1c-3.5-1.1-7.3-1-10.7,0.4l-6.6-0.5c0.6-0.2,1.2-0.4,1.9-0.6
		c1.6-0.3,3.4-0.2,4.8-1l0,0c0.3-0.1,0.5-0.2,0.8-0.1c0.1,0,0.2,0,0.3,0c2.4,0.5,4.7-0.1,7.1-0.1c3.4-0.1,6.9-0.1,10.4-0.2
		c0.8,0,1.6,0.1,2.4,0.2c0.6,0.1,1.2,0.2,1.8,0.3C183.2,1089.5,183.2,1089.6,183.1,1089.6z M185.9,1087c-0.4,0-0.8-0.1-1.1-0.2
		c0.3-0.2,0.6-0.3,0.9-0.4h0.1c0.3,0,0.6,0.1,0.8,0.2C186.3,1086.7,186.2,1086.9,185.9,1087z M659.1,1110.9L659.1,1110.9
		c0.7-0.4,1.4-0.6,2.2-0.6c0.5,0,1.1,0.1,1.6,0.3C661.7,1111.1,660.3,1111.2,659.1,1110.9z M748.4,1109.5L748.4,1109.5
		c0.1-0.1,0.1-0.1,0.2-0.2l1.4,1.4l-2.2-0.3C748.1,1110.1,748.2,1109.8,748.4,1109.5z M748.1,1113.2L748.1,1113.2l-1.8,0.8
		C746.5,1113.7,746.7,1113.2,748.1,1113.2z M891.6,1101.4c-0.2,0.1-0.4,0.2-0.6,0.3c-0.2-0.1-0.3-0.2-0.4-0.4
		c-0.1-0.1,0.3-0.3,0.5-0.4l0,0c0.2-0.1,0.4-0.1,0.7-0.1s0.7,0.1,0.9,0.3C892.4,1101.2,892,1101.3,891.6,1101.4z M893.6,1102.1
		c0-0.1-0.1-0.1-0.1-0.2c0,0,0,0,0-0.1l0.4,0.3C893.8,1102.2,893.6,1102.2,893.6,1102.1z M1915.7,1075.3c0,0.1,0,0.1,0,0.2
		c-0.1,0-0.2,0.1-0.3,0.1c-0.1,0-0.1-0.1-0.2-0.1L1915.7,1075.3z M1899.1,1093.4L1899.1,1093.4l-1.3,0.1v-0.1H1899.1z
		 M1895.8,1098.1L1895.8,1098.1c0.2,0,0.4,0.1,0.6,0.1c-0.2,0.1-0.4,0.1-0.6,0.2c-0.1,0-0.2,0-0.3-0.1
		C1895.6,1098.2,1895.7,1098.1,1895.8,1098.1z M1823.5,1104.5L1823.5,1104.5c0,0,0.1,0.2,0.2,0.3c-0.2,0-0.5,0-0.7,0
		c-0.1,0-0.1-0.1-0.1-0.2C1823,1104.6,1823.2,1104.6,1823.5,1104.5z M1815.1,1102.1L1815.1,1102.1c0.3-0.3,0.5-0.5,0.8-0.7l0.6,0.2
		c-0.2,0.3-0.5,0.5-0.7,0.7c-0.2,0-0.4,0-0.7,0C1815.1,1102.3,1815.1,1102.2,1815.1,1102.1z M1812.4,1100.2L1812.4,1100.2
		c0.3,0,0.5,0.3,0.7,0.4c-0.2,0.1-0.4,0.3-0.6,0.3c-0.4,0-0.8-0.1-1.2-0.2C1811.7,1100.4,1812.1,1100.3,1812.4,1100.2z
		 M1810.4,1104.2L1810.4,1104.2c0.3-0.4,0.7-0.6,1.1-0.6c0.1,0,0.2,0,0.4,0c0.1,0,0.2,0.1,0.2,0.2c0.1,0.5-0.4,0.7-1.1,0.8
		c-0.2,0-0.5,0-0.7,0C1810.4,1104.4,1810.3,1104.3,1810.4,1104.2z M1805.9,1098.1l-0.2,0.1v-0.1H1805.9z M1795.5,1105.1l1.5-0.3
		c0,0.1,0.1,0.2,0.1,0.3H1795.5z M1798.9,1100.9c0.4-0.1,0.8-0.1,1.2-0.1c0.2,0,0.5,0,0.7,0l0,0c-1.2,1-1.2,1-3.1,0.9l0,0
		C1798.1,1101.4,1798.5,1101.1,1798.9,1100.9z M1797.6,1101.8h-1.6c0.3-0.1,0.5-0.2,0.8-0.2
		C1797.1,1101.6,1797.4,1101.7,1797.6,1101.8z M1781.4,1101.8c1.3-0.5,2.7-1,4-1.5c2.3-0.9,4.7-1.8,6.8-2.9l0,0
		c0.7-0.4,1.4-0.5,2.2-0.5c0.4,0,0.8,0,1.2,0.1c0.3,0.9-1.8,0.8-2.1,1.5c-0.2,0.6-1.5,1-2.5,1.7c0.8,0.2,1.7,0.3,2.5,0.3
		c0.6,0,1.2,0,1.8,0.1c0.6,0.4-0.2,0.5-0.3,0.8c-0.2,0.4,0.2,0.5,0.8,0.6l-4.1,0.9c-0.2,0.4,0.4,0.5,0.9,0.6c2,0.2,4,0.1,6-0.4
		c1.5-0.5,3.2-0.3,4.6,0.5c-1,0.7-2.3,1-3.6,0.7c-3.3-0.6-6.7-0.5-10,0.3l0,0h-0.4l0.3,0.1l0,0c-1.2,0.8-2.7,0.4-4.1,0.3l-2.4-2.2
		l-2-0.2C1781.3,1102.1,1781.3,1101.9,1781.4,1101.8z M1617.4,1090.5L1617.4,1090.5h-0.3H1617.4z M1615.9,1091.9L1615.9,1091.9h-0.3
		H1615.9z M1609.2,1101.8L1609.2,1101.8c0,0,0.2,0.1,0.2,0.2c-0.1,0.1-0.2,0.2-0.4,0.3l-0.4-0.3
		C1608.8,1101.9,1609,1101.8,1609.2,1101.8z M1605.4,1101.7c-0.1,0.1-0.3,0.2-0.4,0.3l-0.3-0.1c0-0.1,0.1-0.2,0.2-0.3
		C1605.1,1101.6,1605.2,1101.7,1605.4,1101.7z M1601.8,1102.2L1601.8,1102.2c0.2,0,0.4,0.1,0.6,0.2c0.1,0.1-0.1,0.2-0.3,0.3
		c-0.2,0.1-0.4,0.1-0.6,0.2c0-0.1-0.1-0.3-0.1-0.4C1601.5,1102.3,1601.6,1102.2,1601.8,1102.2z M1586,1090.2c0.7,0,1.4,0.1,2.1,0.3
		l-4.7,0.2l0,0C1584.3,1090.4,1585.1,1090.2,1586,1090.2z M1526.4,1095.9c-0.6,0.2-1.2,0.1-1.7-0.4c0.1-0.1,0.1-0.3,0.3-0.4l0,0
		c0.2-0.1,0.3-0.1,0.5-0.1c0.4,0,0.8,0.1,1.1,0.5C1526.7,1095.6,1526.6,1095.8,1526.4,1095.9z M1526.8,1094.1
		c-0.6,0.2-1.2,0.3-1.8,0.2c-0.3,0-0.6-0.2-0.8-0.4c-0.1-0.2,0-0.5,0.2-0.6l0,0c0.7-0.5,1.6-0.7,2.5-0.7c0.5,0,0.9,0.1,1.4,0.2
		C1527.8,1093.3,1527.3,1093.8,1526.8,1094.1z M1532.5,1095.7c-0.3,0-0.7-0.1-1-0.3c-0.1-0.1,0.2-0.5,0.4-0.5l0,0
		c1-0.1,2.1-0.1,3.1-0.2C1534.4,1095.3,1533.5,1095.6,1532.5,1095.7z M1536.4,1095.9l-0.3-0.1c0-0.1,0-0.1,0-0.2
		c0.1,0,0.2-0.1,0.3-0.1C1536.5,1095.7,1536.4,1095.8,1536.4,1095.9z M1546.2,1094.7c-0.1,0-0.2,0-0.3,0v-0.1h0.1
		C1546.1,1094.6,1546.1,1094.6,1546.2,1094.7C1546.3,1094.6,1546.3,1094.7,1546.2,1094.7z M1582,1101.5c-0.3,0-0.6-0.2-0.8-0.4l0,0
		c0-0.1,0.4-0.3,0.7-0.6c0.4,0.2,0.8,0.4,0.8,0.5S1582.3,1101.5,1582,1101.5z M1582.3,1091.7L1582.3,1091.7c0.2,0,0.3,0.1,0.5,0.3
		c-0.2,0.2-0.4,0.3-0.6,0.4l-0.6-0.3C1581.8,1091.9,1582,1091.8,1582.3,1091.7z M1579.2,1087.7v0.1h-1.4v-0.1H1579.2z
		 M1576.5,1090.5l5-0.1l-5.6,1.8C1576.1,1091.4,1576.3,1091,1576.5,1090.5z M1573.7,1093.8l3.8-0.1c0,0.1,0,0.1,0,0.2l-3.8,0.1
		C1573.7,1093.9,1573.7,1093.9,1573.7,1093.8z M1572.5,1092c0,0-0.1-0.1-0.1-0.2l0,0c0,0,0.1-0.1,0.2-0.1l0.2,0.3H1572.5z
		 M1570.4,1088.4c-0.3,0.1-0.7,0.1-1,0.1c-0.6-0.1-1.1-0.2-1.7-0.5c0.4-0.1,0.8-0.2,1.2-0.2C1569.5,1087.7,1570,1088,1570.4,1088.4z
		 M1559.8,1087.3L1559.8,1087.3c0.5-0.4,1.2-0.6,1.9-0.6c0.3,0,0.7,0,1,0.1c0.9,0.2,1,0.7,0.6,1.3c-0.8,0.1-1.6,0.3-2.5,0.3
		c-0.4,0-0.9-0.1-1.2-0.4C1559.3,1087.9,1559.5,1087.5,1559.8,1087.3z M1561.8,1090.3c3.3-0.1,6.7-0.2,10.9-0.3
		c-1.9,0.8-3.7,1-4.1,2c-0.1,0.2-0.9,0.3-1.3,0.4c-1.1,0.3-2.2,0.5-3.5,0.8c-0.4-0.3-0.9-0.6-1.4-0.8l0,0c-0.2,0-0.3-0.1-0.5,0
		c-0.5,0-1,0.1-1.5,0.1c-1.3,0-2.6,0.6-4.5-0.2l2.9-0.4C1559.4,1090.5,1559.5,1090.4,1561.8,1090.3z M1554.9,1088L1554.9,1088
		c0.4-0.3,0.8-0.4,1.3-0.5c0.3,0,0.7,0.1,1,0.2l-2.8,1.5C1554.3,1088.5,1554.3,1088.3,1554.9,1088z M1551.7,1087
		c0.3,0,0.5,0.1,0.8,0.2h-1.6l0,0C1551.2,1087.1,1551.4,1087,1551.7,1087z M1540.9,1085.7l0.1,0.9l0,0
		C1540.4,1086.3,1540.6,1086,1540.9,1085.7z M1531.7,1088L1531.7,1088c0.2,0,0.4,0.1,0.6,0.2l-0.4,0.3l-0.6-0.2
		C1531.4,1088.2,1531.6,1088,1531.7,1088z M1531,1089.3c1.4-0.2,2.9-0.3,4.5-0.4c0,1.2-0.5,1.9-2.3,2.4l4.7,0.2
		c1.5-1.2,0.6-2.2-0.4-3.2l3.6-1.7c0.7,0.2,1.8,0.2,2.1,0.5c0.9,0.9,2.2,0.7,3.5,0.6c1.4-0.1,2.8-0.3,4.2-0.5
		c-0.4,1.1-1.6,1.7-3.4,1.8c-1,0.8,1.8,0.6,0.7,1.3c0.6,0.5,1.4,0.6,2.1,0.4c1.9-0.3,3.8-0.4,5.7-0.2c0.1,1.6-2.7,1.1-3.6,1.9
		l-1.7-0.6l-0.9,1.3c-1.1,0-2.3,0-3.5,0.1c-0.9,0.1-2.2,0.2-2.3,0.8c-0.3,1.3-2,1.3-3.6,1.3c-0.1,0-0.3,0-0.7-0.1
		c-0.3-0.3-0.6-0.7-1-1.1c-0.3-0.3-0.7-0.6-1-0.9l1.1-0.7c-0.5-0.2-1-0.3-1.6-0.3s-1.2,0.2-1.7,0.5c-1.4,0.8-3,1.3-4.7,1.3
		c-0.3,0-0.7,0-1-0.1c0.4-0.6,0.7-1.3,0.9-2c0.1-0.5-1-0.8-1.7-0.6c-2.8,0.8-2.8,0.9-4.9,0.8c0.6-1.2,1.5-2.1,4-2.2
		C1528.9,1089.8,1529.9,1089.4,1531,1089.3z M1514.8,1088.6c0.4-0.6,1-1.1,1.7-1.4c0,0.4,0.1,0.8,0.1,1.3c1.9-0.4,3.5-0.5,4.9,0.3
		c1-1.3,2.4-2.2,3.9-2.5c0.5-0.1,0.9-0.1,1.4,0c0.6,0.3,0.5,0.7-0.2,1c-0.9,0.3-1.6,0.9-2.1,1.6c-0.6,1.3-1,1.4-3.8,0.9
		c0.2,0.6,0.3,1.2,0.3,1.8c-0.4-0.1-0.7-0.3-1.1-0.6l0,0c-0.4-0.4-0.4-0.9-0.5-1.5c0.2,0.1,0.3,0.1,0.5,0.2c0.2,0,0.5,0.1,0.7,0.1
		l0.7-0.9c-0.5,0-1,0.1-1.4,0.1c-0.3,0.1-0.4,0.3-0.6,0.5h0.1c-0.7,0-1.2,0-1.7,0s-1.1,0.1-1.6,0.1c-0.1,0-0.2,0-0.3,0
		c-0.3-0.4-0.7-0.7-1.1-0.8C1514.7,1088.8,1514.8,1088.7,1514.8,1088.6z M1516.8,1095.3c0.6,0,1.2-0.2,1.7-0.4
		c0.5-0.3,0.1-0.7-0.3-1c-0.2-0.2-0.4-0.4-0.7-0.6c1.1-0.4,2.3-0.5,3.5-0.8c-0.1,0.6,0,1.2,0.2,1.8c-1.2,0.5-1.6,1.5-3.3,1.6
		c-0.8,0.1-1.6,0.1-2.3,0.1l-1.3-0.9C1515,1095.3,1515.9,1095.3,1516.8,1095.3z M1476,1097.9L1476,1097.9c1.1,0,2,0.6,1.7,1
		c-0.2,0.3-0.9,0.4-1.1,0.6c-1.2,0-1.9-0.3-2-0.8l0,0C1474.5,1098.3,1475.2,1097.9,1476,1097.9z M1440.2,1094.7
		c-1.3,0.8-1.3,0.8-4.1,0.7c1-0.5,2.2-0.7,3.3-0.8C1439.7,1094.6,1439.9,1094.7,1440.2,1094.7z M1432.9,1099.5
		c0.5-0.1,0.9-0.2,1.4-0.2l0,0c0.1-0.2,0.2-0.5,0.6-0.5c0.1,0,0.2,0,0.3,0c0.7,0.2,0.2,0.6-0.2,0.9c-0.3,0.3-0.6,0.5-0.9,0.7
		c-0.6,0.3-1.3,0.3-1.5-0.1C1432.5,1100,1432.6,1099.7,1432.9,1099.5z M1430.9,1097.6v0.2l-0.3-0.1L1430.9,1097.6z M1419.8,1099.5
		L1419.8,1099.5c2.4,0.1,4.2-0.4,5.3-1.6c0.4-0.4,0.9-0.7,1.4-0.9c1.1,0.3,0.9,0.7,0.6,1c-0.3,0.4-1,0.7-1.3,1.1
		c-0.9,1.4-1,1.4-3.1,1.4c-1.4,0-2.8-0.1-4.4-0.1c0.2-0.4,0.2-0.6,0.4-0.7l0,0C1419.2,1099.6,1419.5,1099.5,1419.8,1099.5z
		 M1415.2,1097.9c0.5-0.2,0.9-0.2,1.4-0.2c0.7,0,1.5,0.2,2.2,0.4l-3.8,0.2C1415.1,1098.1,1415.1,1098,1415.2,1097.9L1415.2,1097.9z
		 M1396.5,1100.8l0.2,0.1c-0.1,0-0.1,0.1-0.2,0.1s-0.1-0.1-0.2-0.1L1396.5,1100.8z M1384.3,1101.6L1384.3,1101.6
		c0.3,0.1,0.5,0.2,0.8,0.3c-0.3,0.1-0.6,0.2-1,0.3c-0.2,0-0.5-0.1-0.7-0.2C1383.7,1101.8,1384,1101.7,1384.3,1101.6z M1270.8,1077.7
		L1270.8,1077.7c0.4,0,0.7,0.1,1.1,0.1v0.4l-2.2-0.1C1269.8,1077.6,1270.4,1077.7,1270.8,1077.7z M1266.5,1077.5L1266.5,1077.5
		c0.2,0,0.3,0.1,0.5,0.2l-0.5,0.3l-0.5-0.2C1266.1,1077.7,1266.3,1077.6,1266.5,1077.5z M1262.5,1079.3L1262.5,1079.3
		c0.3,0.1,0.6,0.2,0.9,0.3c-0.2,0.1-0.3,0.3-0.5,0.3c-0.3,0-0.6-0.1-1-0.2l0,0C1262.2,1079.5,1262.4,1079.3,1262.5,1079.3z
		 M1257.9,1079.2c0.2,0,0.4,0.1,0.6,0.1c-0.1,0.1-0.1,0.2-0.1,0.2c-0.2,0-0.4-0.1-0.6-0.1l0,0
		C1257.8,1079.3,1257.9,1079.2,1257.9,1079.2z M1248.8,1084.6c-0.3,0-0.5-0.2-1.1-0.5c0.5-0.1,1-0.2,1.5-0.3l0,0
		c0.2,0,0.3,0.3,0.5,0.4C1249.5,1084.5,1249.2,1084.6,1248.8,1084.6z M1251.9,1082.5c0.2,0,0.3,0.2,0.4,0.3
		c-0.2,0.1-0.4,0.1-0.7,0.2c-0.1,0-0.3-0.2-0.4-0.3C1251.4,1082.5,1251.6,1082.5,1251.9,1082.5L1251.9,1082.5z M1249.1,1078.9
		c0.4-0.1,0.7-0.1,1.1-0.1c0.1,0,0.2,0.2,0.3,0.3c-0.3,0.1-0.7,0.2-1,0.2C1249.4,1079.3,1249.3,1079.1,1249.1,1078.9L1249.1,1078.9z
		 M1244.2,1081.7L1244.2,1081.7c0.3,0.1,0.5,0.2,0.6,0.3l-0.7,0.3l-0.5-0.4l0,0C1243.8,1081.8,1244,1081.8,1244.2,1081.7z
		 M1236.9,1078.1L1236.9,1078.1c0.4,0,0.8-0.1,1.1-0.1l0,0c0.5,0,1.2,0,1.1,0.4c0,0.1-0.6,0.2-1,0.2c-0.5,0-0.9-0.1-1.4-0.2
		L1236.9,1078.1z M1230.8,1077.8l0.8,0.1c-0.2,0.2-0.4,0.3-0.6,0.4c-0.1,0-0.4-0.1-0.6-0.1L1230.8,1077.8z M1225.5,1082.2
		L1225.5,1082.2C1225.5,1082.2,1225.6,1082.2,1225.5,1082.2c0.5,0,0.8,0.1,1.2,0.2c-0.4,0.2-0.6,0.4-0.8,0.5c-0.3,0-0.6-0.1-0.9-0.2
		C1225.1,1082.5,1225.3,1082.2,1225.5,1082.2z M1219.6,1076.9l-2.7,0.2c0.5-0.2,1-0.3,1.5-0.3
		C1218.8,1076.8,1219.2,1076.8,1219.6,1076.9z M1218.7,1078.7c0,0.1-0.1,0.1-0.1,0.2l-0.2-0.2H1218.7z M1219.3,1079.9
		c0.8,0,1.7,0,2.9,0.1c0.9,1,0.9,1,0.5,2.1c-0.7-0.1-1.4-0.3-2.1-0.5c-1.4-0.6-2.9-0.4-4.1,0.4c-0.3,0.2-0.6,0.3-0.9,0.5l0,0
		C1216.4,1080.5,1216.7,1079.9,1219.3,1079.9z M1216.6,1077.1l-2.1,0.4l-0.1-0.3L1216.6,1077.1z M1213.4,1076.5l-0.2,0.1l-0.1-0.2
		L1213.4,1076.5z M1202.8,1077.5l-0.1,0.2l-0.2-0.1L1202.8,1077.5z M1201.5,1080.5c0.1,0,0.1,0,0.2,0c0.2,0,0.4,0,0.6,0
		c0.5,0.1,1,0,1.5-0.1c2.3-0.9,5.1-0.6,7.9-1.1l-0.9,1.4c-1.5,0.3-3,0.2-4.5-0.3c-1.6,0.9-3.3,1.4-5.2,1.4c-1.1,0.1-1.4-0.2-1.6-1.2
		C1200.2,1080.6,1200.8,1080.6,1201.5,1080.5L1201.5,1080.5z M1196.5,1080.6l0.5,0.2l-0.1,0.2c-0.2-0.1-0.4-0.1-0.5-0.2l0,0
		C1196.4,1080.8,1196.5,1080.7,1196.5,1080.6z M1182.1,1094.6c0.4,0.1,0.9,0.2,1.3,0.3c-0.1,0.1-0.3,0.3-0.4,0.3
		c-0.4,0-0.9-0.1-1.4-0.2C1181.8,1094.8,1182,1094.6,1182.1,1094.6L1182.1,1094.6z M1172.3,1093.4c1-0.2,2-0.3,3.1-0.5l-2.7,2
		C1172.3,1094.5,1172.1,1093.9,1172.3,1093.4z M1172.4,1099c0.2,0.1,0.3,0.1,0.5,0.2l-0.1,0.2c-0.2,0-0.4,0-0.6-0.1L1172.4,1099z
		 M1167.1,1098.8l-0.3-0.1l0.3-0.1V1098.8z M1167,1094.9h0.4c-0.1,0.1-0.3,0.1-0.4,0.2c0,0-0.2-0.1-0.3-0.1L1167,1094.9z
		 M1161.4,1098.4L1161.4,1098.4c0.1,0,0.2,0.1,0.2,0.1c-0.1,0.1-0.2,0.2-0.4,0.3c-0.1-0.1-0.3-0.2-0.4-0.2
		C1161,1098.5,1161.2,1098.4,1161.4,1098.4z M1154.5,1101.2l0.1-0.2l0.2,0.1L1154.5,1101.2z M1157.4,1099.3c-1.1,0.6-2.5,0.6-3.6,0
		H1157.4z M1150.8,1101.3c0.3,0.1,0.6,0.2,0.8,0.3c-0.2,0.1-0.3,0.3-0.5,0.3c-0.3-0.1-0.6-0.1-1-0.2
		C1150.4,1101.5,1150.5,1101.4,1150.8,1101.3L1150.8,1101.3z M1149.2,1098.5c0.1,0,0.1,0,0.2,0c0.8,0,1.5,0.4,1.3,0.8
		c-0.2,0.2-0.5,0.4-0.8,0.4c-0.9,0.1-1.5-0.3-1.4-0.8C1148.7,1098.6,1149,1098.5,1149.2,1098.5L1149.2,1098.5z M1146.1,1097.8
		l0.2,0.1h-0.3L1146.1,1097.8z M899.2,1102.4c0,0.1,0,0.2,0,0.2c-0.1,0-0.3,0-0.4,0c0-0.1,0-0.2,0-0.3L899.2,1102.4z M889.5,1094.9
		c0.7,0.1,1.5,0.3,2.2,0.4c-0.4,0.3-0.9,0.6-1.4,0.8l0,0c-0.3-0.1-0.6-0.3-0.8-0.5l0,0C889.5,1095.4,889.5,1095.1,889.5,1094.9z
		 M885.7,1094.4L885.7,1094.4c0.1,0,0.2-0.1,0.3-0.1c1,0.2,2,0.3,3,0.5c-0.2,0.3,0,0.5,0.5,0.8c-1,0.2-2,0.4-3,0.5
		c-0.4,0-1.3-0.3-1.4-0.5C885,1095.1,885.3,1094.6,885.7,1094.4z M879.1,1096.1c-1,0.3-2,0.3-3-0.2c0.6-0.3,1.2-0.5,1.9-0.6
		C878.4,1095.3,878.6,1095.6,879.1,1096.1z M872.2,1091.4c0.2,0.1,0.6,0.2,0.6,0.3c0,0.1-0.3,0.2-0.4,0.4l-0.7-0.1L872.2,1091.4z
		 M863.1,1091.7c0.1,0,0.1,0,0.2,0c0.9,0,1.1,0.3,0.9,0.6c-0.4,0.5-0.9,0.9-1.4,1.3C862.4,1092.9,862.6,1092.1,863.1,1091.7z
		 M862.7,1093.6l1,2.2l-3.3,0.1l-2.3-2.9c0.3,0,0.6-0.1,0.9-0.1C860.3,1093,861.5,1093.2,862.7,1093.6z M857,1094.4
		c0.6,0.6,0.4,1.1-1.1,1.5l0,0C855.9,1095.2,855.9,1094.7,857,1094.4z M853,1091.3L853,1091.3C853,1091.3,853.1,1091.3,853,1091.3
		c0.3,0,0.5,0.1,0.7,0.1c-0.1,0.1-0.2,0.3-0.4,0.4c-0.2,0-0.4,0-0.6-0.1C852.8,1091.5,852.8,1091.4,853,1091.3z M848.6,1072.4
		c0.1,0.1,0.3,0.1,0.4,0.2c0,0.1,0,0.2,0,0.3c-0.3,0-0.5,0-0.8-0.1L848.6,1072.4z M843.9,1095.5c0.4,0.1,0.7,0.2,1.1,0.3l-0.6,0.4
		l-1-0.4C843.5,1095.7,843.7,1095.5,843.9,1095.5L843.9,1095.5z M838.1,1092L838.1,1092c0.1,0,0.1,0,0.2,0c0.3,0,0.7,0.1,1.2,0.2
		c-0.3,0.3-0.5,0.7-0.7,0.7c-0.4,0-0.8-0.1-1.2-0.2C837.7,1092.4,837.8,1092.1,838.1,1092z M836.3,1088.1L836.3,1088.1
		c0.1,0,0.3,0.2,0.4,0.4c0,0-0.2,0.2-0.3,0.2c-0.6,0-1.1,0-1.7,0v-0.3C835.2,1088.2,835.7,1088.1,836.3,1088.1z M829.2,1095.4
		L829.2,1095.4c0.3,0,0.6,0.3,0.9,0.5c-0.3,0.2-0.6,0.4-0.9,0.5c-0.7,0.1-1.5,0.2-1.9-0.6C827.9,1095.6,828.5,1095.5,829.2,1095.4z
		 M824.3,1066.7c-0.1,0-0.2,0-0.3,0s-0.1,0-0.2,0H824.3z M823.3,1066.6L823.3,1066.6c0.1,0,0.2,0,0.2,0H823l0,0
		C823.1,1066.7,823.2,1066.6,823.3,1066.6z M822.9,1092.8c0.3,0.1,0.5,0.1,0.8,0.2c0.1,0,0,0.2,0,0.2c-0.3,0-0.6,0-0.8,0l0,0
		C822.8,1093.1,822.8,1093,822.9,1092.8z M817.2,1096.3l-2.2,0.3c0.5-0.3,0.7-0.5,1.1-0.5C816.4,1096.2,816.8,1096.2,817.2,1096.3z
		 M803.6,1092.3C803.7,1092.3,803.7,1092.3,803.6,1092.3c0.3,0.3,0.4,0.6,0.5,0.9c-0.3,0-0.5,0-0.8,0c-0.3-0.3-0.5-0.6-0.7-0.9l0,0
		C803.1,1092.3,803.5,1092.3,803.6,1092.3z M794.3,1092.5L794.3,1092.5c0.2,0,0.4,0,0.6,0c1,0,1.4,0.3,2.5,1.3l-4.5-0.1
		C792.7,1092.9,793.2,1092.5,794.3,1092.5z M779,1097.1c0.1,0.1,0.3,0.1,0.3,0.2c0,0.1-0.1,0.1-0.2,0.2l-0.5-0.3L779,1097.1z
		 M771,1093.8c0.6-0.2,1.2-0.2,1.8-0.2h0.1c0.4,0.1,0.8,0.3,1.2,0.6c-1.1,0.1-2.1,0.2-3.2,0.3C770.7,1094.2,770.7,1094,771,1093.8z
		 M757.2,1093.9c0.6,0,1,0.3,0.6,0.9c-0.3,0-0.6,0-0.9,0l0,0C756.9,1094.5,757,1094.2,757.2,1093.9z M753.4,1094.9
		c0,0-0.2,0.1-0.4,0.2l-1.1-0.3c0.5-0.2,0.9-0.3,1.4-0.5C753.3,1094.6,753.4,1094.8,753.4,1094.9z M735.3,1111.3
		c-0.3-0.1-0.8-0.4-0.8-0.4l0,0c0.3-0.3,0.6-0.5,1-0.8c0.2,0.1,0.4,0.2,0.8,0.5L735.3,1111.3z M734.5,1107.5l0.4-0.4h0.4
		c-0.1,0.1-0.3,0.3-0.4,0.4C734.7,1107.5,734.6,1107.5,734.5,1107.5z M743.2,1113c-0.1,0.2-0.1,0.5-0.2,0.5c-0.3,0-0.6,0-0.9,0h-0.3
		h-0.1c0-0.2,0-0.4,0.1-0.4C742.3,1113.1,742.7,1113,743.2,1113z M739.4,1095.4c0.3,0,0.5,0,0.8-0.1c0.7,0.1,1.3,0.2,1.9,0.4
		l-5.1,0.8C737.7,1096.1,738.5,1095.7,739.4,1095.4C739.3,1095.4,739.4,1095.4,739.4,1095.4z M729.3,1096.4c0.8,0.1,1.8,0.4,2.7,0.5
		c-1.6,0.5-3.2,0.6-4.8,0.2c0.6-0.5,1.3-0.9,2.1-1.1C729.3,1096.1,729.3,1096.2,729.3,1096.4z M730.1,1100.6l-0.4-0.2l0.3-0.2
		C730,1100.4,730.1,1100.5,730.1,1100.6z M737,1104.5L737,1104.5c0.2,0,0.4,0.2,0.8,0.4c-0.6,1-2.1,1.3-3.6,1.4
		c-1.2,0.1-2.4,0.5-3.3,1.3c-1.1-0.5-2.3-0.9-3.3-1.4c-0.4-0.2-0.5-0.6-0.7-0.9C730.2,1105.1,733.6,1104.8,737,1104.5z
		 M711.4,1112.3c-0.8,0.2-1.7,0.3-2.5,0.4c1.4-1,1.4-1,4.6-1.1C713.2,1112.3,712,1112.1,711.4,1112.3z M721.6,1113.2
		c-1.5-0.3-0.5-1.2-1.8-1.5c0.6-0.2,1.3-0.4,2-0.4c0.4,0,0.9,0.1,1.2,0.5C723.4,1112.5,722.5,1112.9,721.6,1113.2z M722.7,1105.7
		L722.7,1105.7c1.3-0.1,2.6-0.2,3.9-0.3c-1,0.4-1.9,0.8-3,1c-0.5,0-1.1-0.1-1.6-0.2C722.4,1105.9,722.6,1105.7,722.7,1105.7z
		 M721.5,1108.3c0-0.1,0.1-0.2,0.1-0.4l0.7,0.2c-0.1,0.1-0.3,0.2-0.4,0.3C721.7,1108.4,721.6,1108.4,721.5,1108.3L721.5,1108.3z
		 M721.4,1097.5c-0.2,0.1-0.4,0.2-0.6,0.2c-0.1,0-0.2-0.1-0.3-0.1c0.1-0.1,0.2-0.2,0.3-0.3C721,1097.3,721.2,1097.4,721.4,1097.5z
		 M718,1100.3l1.2,0.1c0,0.2-0.1,0.4-0.1,0.5c-0.4,0-0.7-0.1-1.1-0.2C717.9,1100.7,718,1100.5,718,1100.3z M713.9,1100.7l1.2,0.2
		c-0.1,0.2-0.1,0.4-0.2,0.4c-0.4,0-0.8,0-1.2-0.1L713.9,1100.7z M718.8,1105.9c0.8,0.9,0.7,1.3-0.4,1.4c-1.7,0.2-1.9,0.1-6.1-1
		L718.8,1105.9z M705.9,1114.6L705.9,1114.6c0.1-0.2,0.3-0.4,0.4-0.4c0.3,0,0.7,0.1,1,0.2c0.1,0.2,0.2,0.3,0.2,0.4
		c-0.1,0.2-0.1,0.6-0.3,0.7c-0.5,0.2-1-0.1-1.3-0.5C705.9,1114.8,705.9,1114.7,705.9,1114.6z M703.6,1101.3L703.6,1101.3
		c0.2,0.1,0.5,0.1,0.7,0.3l-0.3,0.5l-0.9-0.4C703.2,1101.6,703.4,1101.4,703.6,1101.3z M700.1,1114.5L700.1,1114.5
		c0.1,0,0.3,0,0.4,0c0.3,0,0.7,0,1.2,0.1c-0.6,0.5-0.7,0.9-1,0.9c-0.4,0-0.7-0.1-1-0.3C699.6,1114.9,699.8,1114.5,700.1,1114.5z
		 M699.2,1102.3l0.1,0.2l-0.3-0.1L699.2,1102.3z M698.3,1112.4L698.3,1112.4c0.1,0,0.1,0,0.2,0c0.1,0,0.1,0,0.2,0
		c0.1,0.1,0.2,0.2,0.3,0.4h-0.8C698.2,1112.7,698.3,1112.5,698.3,1112.4z M695.2,1114.7l0.4,0.2h-0.4V1114.7z M687.9,1113
		c-0.1,0.1-0.1,0.3-0.2,0.4c-0.1,0-0.3,0-0.4-0.1c-0.1-0.1-0.1-0.2-0.2-0.4L687.9,1113z M682.3,1103.6l0.2,0.2
		c-0.2,0-0.5,0.1-0.7,0.1c-0.1,0-0.1-0.1-0.2-0.2L682.3,1103.6z M681.4,1107.9l-0.2,0.2l-0.3-0.1L681.4,1107.9z M671.4,1103.1
		l0.7,0.1c-0.1,0.1-0.3,0.2-0.4,0.3c-0.1,0-0.3,0-0.4,0L671.4,1103.1z M603,1097.5l-0.2,0.1l-0.2-0.1c0.1,0,0.1-0.1,0.2-0.1
		C602.8,1097.4,602.9,1097.4,603,1097.5z M437.2,1097.9c0.1-0.1,0.4-0.1,0.6-0.2l0.4,0.3l-0.9,0.3
		C437.3,1098.2,437.1,1098,437.2,1097.9L437.2,1097.9z M247.5,1082.7L247.5,1082.7L247.5,1082.7c0.1,0,0.2,0,0.3,0.1
		c-0.2,0.2-0.4,0.3-0.6,0.5c-0.1,0-0.2,0.1-0.3,0.1l-0.5-0.2C246.7,1083,247.1,1082.8,247.5,1082.7z M238.2,1085.8
		c1.2,0.1,2.4-0.3,3.3-1.1c0.5,0.4,0.7,0.9,1.2,1c0.7,0.1,1.5,0,2.2-0.2c1-0.2,1.9-0.5,2.9-0.7c1.5-0.3,2.1-0.1,3.5,1
		c-1.6,0.4-3.2,0.6-4.9,0.5c-0.8,0-1.6,0-2.4,0c-1.8-0.1-3.7,0-5.5,0.2c-0.7,0.1-1.4-0.1-1.8-0.6c0.4,0,0.9-0.1,1.3-0.1
		C238,1085.8,238.1,1085.8,238.2,1085.8z M244.9,1091.5L244.9,1091.5c0.2,0,0.2,0,0.3,0c0,0.1,0,0.1,0,0.2c-0.1,0-0.2,0-0.3,0
		C244.9,1091.6,244.8,1091.5,244.9,1091.5L244.9,1091.5z M236,1083.8L236,1083.8l-0.1,0.2C235.9,1083.9,236,1083.9,236,1083.8z
		 M221.2,1084.4l0.2,0.1l-0.2,0.1V1084.4z M216.3,1086.7c-0.1,0-0.1,0.1-0.2,0.1c-0.1,0-0.1,0-0.2,0L216.3,1086.7z M214.2,1087.3
		c0.5-0.2,1.1-0.4,1.6-0.4c0.4,1.6,0,1.9-2.6,1.9C213.5,1088.2,213.8,1087.7,214.2,1087.3z M202.7,1085c1.4,0.1,2.7-0.1,4-0.6
		c0.3,0,0.7,0.1,1,0.2c0.4,0.2,0.2,0.7-0.3,0.7c-2.3,0.3-4.6,0.5-6.9,0.8c-0.1,0-0.3-0.2-0.5-0.4
		C200.9,1085.4,201.8,1085.2,202.7,1085L202.7,1085L202.7,1085z M196,1085.4L196,1085.4c0.1-0.1,0.3-0.1,0.4-0.1c0.1,0,0.2,0,0.3,0
		c0.7,0.3,1.1,0.9,0.8,1.4c-0.1,0.1-0.4,0.2-0.6,0.3c-0.3,0-0.5,0-0.8-0.1C195.2,1086.6,195.1,1085.8,196,1085.4z M215.3,1092.8
		c-3.3,0.2-6.5,0-9.8-0.5l0,0c-0.1,0-0.2,0-0.3,0s-0.3,0-0.4,0c-2.7,0.2-5.3,0.1-8-0.1c-1.9-0.1-3.9-0.3-5.8-0.3
		c-0.3,0-0.7-0.1-1-0.2c0-0.5,0.6-0.5,1.1-0.5c6.1,0.2,12.2,0.4,18.2,0.6c4,0.1,8,0.1,11.9,0.2c3.2-0.1,6.5,0.2,9.6,0.9
		C225.6,1092.7,220.4,1092.7,215.3,1092.8z M227.8,1085.8c-0.4,0.2-0.9,0.3-1.4,0.4c-1.8-0.2-3.7,0.2-5.3,1.1
		c-0.8,0.2-1.6,0.4-2.4,0.5c0.4-0.4,0.9-0.9,1.4-1.2c1.4-0.8,3.7-1.2,4.1-2.5c0.6-0.3,1.2-0.4,1.9-0.4c0.1,0,0.1,0,0.2,0
		c0.9,0,1.7,0.4,1.8,1c0,0.3-0.1,0.6-0.3,0.9l4.1-0.2c-0.2-0.4-0.3-0.8-0.6-1.2c-0.3-0.3-0.6-0.6-1-0.9c0.6-0.5,1.4-0.6,2-0.2
		c1,0.6,2.2,0.9,3.3,1c-0.3,0.7-0.2,1.3,0.8,1.8C233.6,1086.7,230.7,1086.3,227.8,1085.8z M233.7,1087.5c0.1,0,0.2-0.1,0.2-0.1
		c0.2,0,0.4,0.1,0.5,0.2c-0.1,0-0.2,0.1-0.2,0.1C234,1087.7,233.8,1087.6,233.7,1087.5z M261.2,1094.7c-0.9,0.7-2.1,0.8-3.1,0.3l0,0
		c-1-0.4-2.1-0.6-3.2-0.6h-0.2c-1.5,0-2.9,0-4.4,0.1c-1.7,0-3.4-0.1-5.1-0.5c-2.3-0.5-4.7-1-7.3-0.5c-1.5,0.3-2.3-0.4-3.6-0.6
		c0.6-0.6,1.3-0.4,1.9-0.4c2.6,0.1,5.3,0.2,7.9,0.2c2.2,0,2.2-0.1,4.2-1.2c1.3,0.1,2.7,0.2,4.1,0.4c0.3,0,0.6,0.2,0.8,0.4
		c0.5,1.2,2.4,1.1,3.8,1.3c1.1,0.1,2.4,0.1,3.5,0.2c0.3,0,0.6,0.2,0.8,0.4C261.6,1094.3,261.4,1094.5,261.2,1094.7z M253.4,1090.3
		l0.2-0.1v0.2L253.4,1090.3z M261.8,1092.3L261.8,1092.3c1.1-0.3,2.3-0.5,3.5-0.6c0.8,0,1.6,0.1,2.4,0.3
		C266.1,1092.6,266.1,1092.6,261.8,1092.3z M269.9,1096c-0.1-0.8,1.5-0.4,2-0.8c-0.2-0.1-0.3-0.2-0.5-0.2c-1,0-2.1,0-3.6,0.1
		c0.7-0.4,1-0.7,1.3-0.7c3.5-0.1,7,0.1,10.5,0.4c-0.1,0.6-0.7,0.6-1.2,0.7l1.3,0.8C277.3,1096.9,274.7,1096.9,269.9,1096z
		 M268.2,1091.1l0.7-0.2l0.5,0.4c-0.1,0-0.3,0.1-0.3,0.1C268.8,1091.3,268.5,1091.2,268.2,1091.1z M270.8,1089.3l0.6-0.2
		c0.1,0.1,0.1,0.2,0.1,0.3l-0.3,0.1C271.1,1089.5,271,1089.4,270.8,1089.3z M278.5,1092.8c-2.1,0.4-4.1,0.5-6.2,0.4
		c0.9-1.4,2.3-2.5,4-3.1l0,0c-0.1-0.3-0.1-0.6-0.2-0.9c0.4,0,0.8,0,1.2,0.1c1.6,1.6,4.2,1.6,6.9,1.5c0.1,0,0.2,0,0.3,0
		C282.6,1091.7,280.5,1092.4,278.5,1092.8z M292.7,1085.7c-3.2-0.2-6-0.4-8.9-0.7c-0.4-0.1-0.9-0.2-1.3-0.4c2.7-0.7,5.2-1.3,7.8-1.8
		l0,0c0.3-0.1,0.7-0.1,1-0.1c0.4,0,0.9,0,1.3,0c0.2,0,0.4,0.1,0.5,0.3c0,0.2-0.1,0.3-0.2,0.4c-0.8,0.2-1.6,0.3-2.8,0.6L292.7,1085.7
		z M284.6,1090.8L284.6,1090.8c0.3-0.5,0.9-0.7,1.5-0.6c0.3,0,0.6,0,0.9,0.1C286.4,1090.9,285.4,1090.7,284.6,1090.8z M304.9,1093.7
		l-2,0.4c-0.1,0.6-0.1,1.3-0.1,1.9c0.1,0.9,0.8,1.3,2.4,1.5c0.8,0.1,1.5,0.1,2.3,0.1c0,0.1,0,0.1-0.1,0.2c-1.8,0.2-3.6,0.4-5.4,0.6
		c-1.8,0.2-3.6,0.1-5.4-0.5c-1.3-0.4-2.8-0.8-4.6-1.3l4.8-1.4l-2.8-1.3l1.8-0.7l-3.6-0.6l0,0c1.9-0.3,3.9-0.5,5.8-0.4
		c0.4,0,0.9,0,1.3,0c1.2,0,2.4,0,3.6,0L304.9,1093.7z M297.2,1083.9l-0.1,0.2l-0.2-0.1L297.2,1083.9z M302.4,1089.2l-6.2,0.7
		c-1.3-0.4-2.6-0.6-3.9-0.6c-0.7,0-1.4,0.1-2.1,0.2c-0.8,0.2-0.9,0.1-2.5-0.9c0.3-0.6,1.4-0.8,2.4-1.2c2,0.8,4.3,0.2,6.2,0.9
		C298.4,1088.6,300.4,1089,302.4,1089.2z M295.6,1071.5c0.2,0,0.4,0,0.6,0.1c-0.1,0.1-0.3,0.2-0.4,0.4c-0.3,0-0.7-0.1-0.9-0.2l0,0
		C295,1071.6,295.3,1071.5,295.6,1071.5z M294.4,1070l0.2,0.1L294.4,1070L294.4,1070z M292.6,1068.3L292.6,1068.3
		c0.2,0,0.4,0.1,0.6,0.1c-0.2,0.2-0.2,0.3-0.3,0.4c-0.6,0.4-1.3,0.6-1.9,0.3c-0.1,0-0.1-0.1-0.1-0.2
		C291,1068.3,291.8,1068.4,292.6,1068.3z M291.9,1070.3c0,0.1-0.1,0.1-0.1,0.1c-0.1,0-0.2,0-0.3-0.1l0.1-0.2L291.9,1070.3z
		 M285.5,0.3c0.1,0,0.2,0,0.4,0c0.5,0.4,1.1,0.8,0.4,1.3c-0.1,0-0.2,0.1-0.4,0l0,0C285.1,1.5,285,1.3,285.5,0.3z M286.5,1071.6
		c0.9,0.1,1.7,0.2,2.5,0.5c-1.9,0.7-1.9,0.7-4.2,0.1l0,0C285.3,1071.8,285.9,1071.6,286.5,1071.6z M281.4,1066.1l-0.1,0.1l-0.2-0.1
		H281.4z M278.6,1069.2c0.1,0.1,0.1,0.1,0.2,0.2c-0.1,0.1-0.1,0.1-0.2,0.2l-0.3-0.1L278.6,1069.2z M279.4,1079.6
		c0.2,0,0.5-0.1,0.6-0.1h0.1c1.7,0.4,3.4,0.5,5,0.2c2.6-0.3,5.2-0.1,7.7,0.4c-0.2,0.2-0.2,0.5-0.3,0.5c-1.4,0.1-2.8,0.2-4.1,0.5
		c-1.4,0.3-2.8,0.5-4.2,0.4c-1.3,0.1-2.6,0.5-3.8,1.1c-0.3-0.8-1.9-1-2.7-1.5L279.4,1079.6z M275.8,1077.2L275.8,1077.2
		c0.2,0,0.4,0,0.6,0c-0.2,0.1-0.3,0.1-0.5,0.2c-0.1,0-0.2,0-0.3,0C275.6,1077.3,275.7,1077.2,275.8,1077.2z M274.1,1083.1
		c0.9-0.6,2-0.9,3.1-0.8c1.1,0,2.2,0.2,3.2,0.4c-0.1,1.1-0.2,1.2-1.3,1.3c-1.7,0.2-3.3,0.3-5,0.5
		C274.4,1084,274.6,1083.5,274.1,1083.1L274.1,1083.1z M272.1,1080.3c0.1,0,0.2,0.1,0.3,0.1c0,0.1-0.1,0.2-0.1,0.2
		c-0.1,0-0.3,0-0.4,0L272.1,1080.3z M269.2,1082l0.2,0.1L269.2,1082L269.2,1082z M262.2,1082.9L262.2,1082.9c0.2,0,0.4,0,0.6,0
		c0.1,0,0.1,0,0.2,0c0.8,0.3,1.7,0.5,2.6,0.4c1.7-0.1,3.4-0.3,5.1-0.3c1.2,0,2.3,0.1,3.5,0.1c-0.2,0.5-0.5,0.9,0,1.4
		c0.3,1-1,1.6-1.5,2.6h-5.5c0.9-0.8,1-1,1.9-1c0.8-0.1,1.7-0.1,2.8-0.1c-1.5-1-1.5-1-10.1-1.6C261,1083.7,261.5,1083.3,262.2,1082.9
		z M261.9,1085.7c1,0.5,0.3,1.1-0.3,1.1c-2.2,0-4.4-0.1-6.6-0.3c-0.5,0-1-0.5-1.6-0.8l0.8-0.7c0.8,0.1,1.6,0.3,2.4,0.6
		c1.2,0.7,2.6,0.8,3.9,0.3C260.9,1085.8,261.4,1085.7,261.9,1085.7z M259.6,1083.2c0.2,0.4-0.2,0.6-0.8,0.7c-1.6,0.1-3.2,0.4-4.7,1
		l0,0c-1.2-0.2-2.6-0.3-2.9-1.3c1.5,0.4,3.1,0.4,4.5-0.1C257.1,1083.3,258.3,1083.2,259.6,1083.2z"/>
	<path class="st0" d="M259.6,1102.9c0.1-0.3,0.2-0.5,0.3-0.7c-1.3-0.3-2.6-0.7-3.9-1c-1.8-0.5-3.7-0.4-5.5,0.2
		C253,1103.1,256.5,1102.5,259.6,1102.9z"/>
	<path class="st0" d="M1541.8,1108.2c0.2,0,0.4,0,0.5-0.1c0.1,0,0.1-0.1,0.2-0.2c-0.3-0.1-0.6-0.2-0.9-0.3c-0.4,0-0.8,0.1-1.2,0.2
		c0.4,0.1,0.8,0.2,1.2,0.3l0,0C1541.7,1108.2,1541.8,1108.2,1541.8,1108.2z"/>
	<path class="st0" d="M1551.5,1107.6c0.1,0,0.2,0,0.3,0c0.2-0.1,0.3-0.2,0.4-0.2c-0.2,0-0.4,0-0.6,0.1l0,0
		C1551.6,1107.5,1551.6,1107.6,1551.5,1107.6z"/>
	<path class="st0" d="M1537.3,1102l-0.3-0.1l0,0c-0.1,0.1-0.1,0.1-0.1,0.2L1537.3,1102z"/>
	<polygon class="st0" points="1536.8,1101 1536.9,1100.9 1536.6,1100.9 	"/>
	<path class="st0" d="M1552.1,1101.5c0.1,0.1,0.2,0.1,0.2,0.1l0,0c0.1,0,0.2-0.1,0.3-0.1l-0.4-0.2
		C1552.2,1101.3,1552.2,1101.4,1552.1,1101.5z"/>
	<path class="st0" d="M1552.9,1107.2l-0.4,0.1c0.1,0,0.1,0,0.2,0C1552.8,1107.3,1552.9,1107.2,1552.9,1107.2z"/>
	<polygon class="st0" points="1555.1,1106.1 1555.3,1106.1 1555.2,1106 	"/>
	<path class="st0" d="M1552.4,1107.3L1552.4,1107.3L1552.4,1107.3L1552.4,1107.3C1552.3,1107.3,1552.3,1107.3,1552.4,1107.3
		L1552.4,1107.3z"/>
	<path class="st0" d="M1527.2,1100.9h0.1H1527.2z"/>
	<polygon class="st0" points="1527.2,1100.9 1527.3,1100.9 1527.6,1100.8 	"/>
	<path class="st0" d="M1523.6,1108c0.6,0,1.1,0,1.7,0c1.4,0.1,2.8-0.1,4.1-0.5c-1.3-0.1-2.6-0.1-3.9-0.2l0,0
		C1524.7,1107.3,1523.9,1107.3,1523.6,1108z"/>
	<path class="st0" d="M1529.5,1107.4L1529.5,1107.4L1529.5,1107.4L1529.5,1107.4L1529.5,1107.4z"/>
	<path class="st0" d="M1530,1107.2c0.1,0,0-0.2,0-0.3c-0.1,0-0.2,0.1-0.3,0.1l0,0c-0.1,0.1-0.2,0.2-0.3,0.3
		C1529.7,1107.4,1529.8,1107.3,1530,1107.2z"/>
	<polygon class="st0" points="1529.3,1107.5 1529.4,1107.5 1529.4,1107.4 	"/>
	<path class="st0" d="M128.4,1096.3c-0.1,0-0.2,0-0.4,0v0.2h0.4C128.4,1096.4,128.4,1096.3,128.4,1096.3z"/>
	<path class="st0" d="M124,1096.4c-0.1,0-0.2-0.1-0.3-0.1c-0.1,0-0.2,0.1-0.3,0.1c0.1,0.1,0.2,0.1,0.3,0.1S123.9,1096.4,124,1096.4z
		"/>
	<path class="st0" d="M134.1,1093.6L134.1,1093.6L134.1,1093.6z"/>
	<path class="st0" d="M122.4,1098.5c0.2,0.2,0.5,0.4,0.9,0.8c0.4-0.3,0.8-0.5,0.7-0.6c-0.2-0.2-0.5-0.4-0.7-0.4
		C123,1098.3,122.7,1098.4,122.4,1098.5z"/>
	<path class="st0" d="M122.4,1098.5L122.4,1098.5L122.4,1098.5z"/>
	<path class="st0" d="M131.9,1097.4l4.2,0.1l0,0l0,0l0.3,0.1l-0.3-0.1l0,0c1-0.6,2.2-0.9,3.5-0.9c2.8-0.2,2.8-0.2,6-1.7
		c-4.9-0.2-8.9,0.9-13,1.8C132.3,1096.8,132.2,1097.1,131.9,1097.4z"/>
	<path class="st0" d="M127,1098.7c0.1,0.1,0.1,0.3,0.3,0.4l0,0c0.2,0.1,0.5,0.1,0.7,0.2c0.2-0.1,0.4-0.1,0.6-0.2
		c0,0-0.1-0.1-0.2-0.2c-0.2-0.1-0.5-0.2-0.7-0.2C127.4,1098.6,127.2,1098.6,127,1098.7z"/>
	<path class="st0" d="M1524.2,1103.8c0.4-0.2,0.7-0.4,1-0.6c0.7-0.8,1.3-1.5,2-2.3c-0.6-0.2-1.2-0.1-1.7,0.3c-0.5,0.6-1,1.3-1.5,1.9
		l0,0C1523.9,1103.3,1524.1,1103.5,1524.2,1103.8z"/>
	<path class="st0" d="M747.6,1106.5c0.8-0.2,1.8-0.4,1.1-1.1c-0.1-0.1-0.3-0.1-0.4-0.1l0,0C746.9,1105.5,747.5,1106,747.6,1106.5z"
		/>
	<path class="st0" d="M1729.5,1107.9c-0.1,0-0.2-0.1-0.3-0.1c-0.1,0-0.2,0-0.4,0.1c0.1,0,0.2,0.1,0.3,0.1l0,0
		C1729.3,1108,1729.4,1108,1729.5,1107.9z"/>
	<path class="st0" d="M1675.5,1110.2c-0.2-0.2-0.3-0.3-0.4-0.3c-0.5,0-1,0-1.5,0c-0.1,0-0.1,0.1-0.1,0.2c0.4,0.1,0.9,0.2,1.3,0.3
		l0,0C1675.1,1110.3,1675.3,1110.3,1675.5,1110.2z"/>
	<polygon class="st0" points="1643.8,1104.8 1643.8,1104.9 1644,1104.9 	"/>
	<path class="st0" d="M69.9,1101.6l0.8,0.6l0,0h0.1l0,0l0,0l0.7-0.9L69.9,1101.6z"/>
	<path class="st0" d="M1614.5,1108.9L1614.5,1108.9c0.1,0,0.2,0,0.3,0c1.5-0.1,3-0.3,4.4-0.6
		C1615.8,1108.2,1615.8,1108.2,1614.5,1108.9z"/>
	<path class="st0" d="M1771.9,1106.7c0.1,0,0.2-0.1,0.3-0.1c0.1-0.1,0.2-0.2,0.2-0.4c-0.2,0-0.4,0.1-0.6,0.2l0,0
		C1771.8,1106.4,1771.9,1106.6,1771.9,1106.7z"/>
	<path class="st0" d="M123.4,1096.4L123.4,1096.4L123.4,1096.4z"/>
	<path class="st0" d="M1289.4,1108.3c0.9-0.3,1.5-0.6,0.9-1.3c-0.9-0.1-1.8,0.3-2.4,0.9l0,0c0.4,0.2,0.8,0.4,1.2,0.4
		C1289.2,1108.3,1289.3,1108.3,1289.4,1108.3z"/>
	<path class="st0" d="M1280.5,1107.9L1280.5,1107.9L1280.5,1107.9z"/>
	<path class="st0" d="M1278.8,1108.3l1.7-0.4C1279.7,1107.6,1278.9,1107.5,1278.8,1108.3z"/>
	<path class="st0" d="M1271.8,1107.4l-0.3-0.1l-0.3,0.1c0.1,0,0.2,0.1,0.2,0.1l0,0C1271.6,1107.4,1271.7,1107.4,1271.8,1107.4z"/>
	<path class="st0" d="M1363.8,1107l-0.4,0.3L1363.8,1107l0.3-0.1C1364,1106.9,1363.9,1107,1363.8,1107z"/>
	<path class="st0" d="M1313.7,1107.9l-0.5,0.2l0.2,0.2c0.2-0.1,0.3-0.2,0.5-0.3C1313.9,1108,1313.8,1107.9,1313.7,1107.9z"/>
	<path class="st0" d="M1301.8,1104.4c0.2,0,0.4,0,0.6-0.1l-0.1-0.1C1302.1,1104.2,1301.9,1104.2,1301.8,1104.4L1301.8,1104.4
		C1301.7,1104.3,1301.8,1104.4,1301.8,1104.4z"/>
	<path class="st0" d="M1352.5,1107.4c0.2-0.3-0.4-0.7-1.1-0.7c-0.2,0-0.4,0.1-0.5,0.2l0,0c0.2,0.3,0.6,0.5,0.8,0.8
		C1352.2,1107.6,1352.5,1107.5,1352.5,1107.4z"/>
	<path class="st0" d="M1157.5,1103.4l0.3,0.1c0-0.1,0-0.2,0-0.2L1157.5,1103.4z"/>
	<polygon class="st0" points="1153.7,1104.5 1154,1104.5 1153.8,1104.4 	"/>
	<path class="st0" d="M1145,1104.3l-0.3-0.1c0,0.1-0.1,0.1-0.1,0.2l0,0c0,0,0.2,0.1,0.3,0.1L1145,1104.3z"/>
	<path class="st0" d="M1174.7,1102.3c-0.2,0-0.4,0-0.4,0c-0.1,0.2-0.2,0.4-0.2,0.6l0,0c0.3,0.1,0.6,0.2,0.9,0.2c0-0.3,0-0.6-0.1-0.8
		C1174.9,1102.3,1174.8,1102.3,1174.7,1102.3z"/>
	<polygon class="st0" points="1269.5,1106.4 1269.8,1106.4 1269.5,1106.3 	"/>
	<path class="st0" d="M1266.5,1107c-0.1,0-0.2,0.2-0.3,0.3l0.7,0.2l0.3-0.3C1267,1107.1,1266.8,1107,1266.5,1107z"/>
	<path class="st0" d="M1461.5,1101.3c-0.2,0-0.7,0.3-0.7,0.4c0.3,0.3,0.6,0.5,1,0.7l0.9-0.6
		C1462.3,1101.5,1461.9,1101.4,1461.5,1101.3z"/>
	<path class="st0" d="M1367.8,1107.2l0.2,0.2l0.1-0.1C1368,1107.2,1367.9,1107.2,1367.8,1107.2z"/>
	<polygon class="st0" points="1468.4,1101.7 1468.3,1101.6 1468.1,1101.7 	"/>
	<path class="st0" d="M1466.7,1101.5l2.8-0.8C1468,1100.5,1467.1,1100.6,1466.7,1101.5z"/>
	<path class="st0" d="M1492.2,1107.1c-0.1,0-0.3,0-0.4,0l0.5,0.2C1492.2,1107.2,1492.2,1107.1,1492.2,1107.1z"/>
	<path class="st0" d="M1466.4,1100.1c-0.1,0-0.2,0-0.3,0.1l0,0c0,0.1,0,0.1,0,0.2l0.5-0.1
		C1466.5,1100.2,1466.4,1100.1,1466.4,1100.1z"/>
	<path class="st0" d="M1498.6,1107.1L1498.6,1107.1c0.1,0,0.1-0.1,0.1-0.2c-0.1,0-0.2,0-0.4,0c0,0,0,0.1,0,0.2l0,0
		C1498.4,1107.1,1498.5,1107.1,1498.6,1107.1z"/>
	<path class="st0" d="M1469.6,1100.7L1469.6,1100.7L1469.6,1100.7L1469.6,1100.7z"/>
	<path class="st0" d="M1376.8,1107.2c0.1-0.1,0.1-0.2,0.1-0.3h-1c0.1,0.2,0.1,0.4,0.2,0.4
		C1376.3,1107.3,1376.6,1107.3,1376.8,1107.2z"/>
	<path class="st0" d="M1376.1,1107.3L1376.1,1107.3L1376.1,1107.3z"/>
	<path class="st0" d="M1412.7,1105.7c-0.1,0-0.2-0.1-0.3-0.1c-0.1,0-0.1,0.1-0.1,0.2l0,0c0.1,0,0.2,0.1,0.3,0.1l0,0
		C1412.7,1105.8,1412.7,1105.7,1412.7,1105.7z"/>
	<path class="st0" d="M1518,1103.8c0,0-0.2-0.1-0.3-0.1c0,0.1-0.1,0.1-0.1,0.2l0,0c0,0,0.2,0.1,0.3,0.1
		C1517.9,1104,1518,1103.9,1518,1103.8z"/>
	<path class="st0" d="M1464.5,1102.3c0.3-0.1,0.6-0.1,0.9-0.3l-0.6-0.6c-0.3,0.2-0.5,0.3-0.7,0.6l0,0
		C1464,1102.1,1464.4,1102.3,1464.5,1102.3L1464.5,1102.3z"/>
	<path class="st0" d="M1449.1,1100.7c-0.1,0-0.2,0-0.3,0.1l0,0l0.1,0.1c0.1,0,0.2,0,0.3-0.1
		C1449.3,1100.7,1449.1,1100.7,1449.1,1100.7z"/>
	<path class="st0" d="M303.4,1106.4L303.4,1106.4L303.4,1106.4L303.4,1106.4z"/>
	<path class="st0" d="M643.3,1106.5c0.8,0.1,1.8-0.5,3.2-0.9c-1.8-0.5-3.7-0.5-5.6-0.2c-2.5,0.3-4.9,0.7-7.3,1
		c-0.9,0.2-1.8,0.4-2.6,0.6c-0.2,0.1-0.3,0.3-0.5,0.4c0.2,0.4,1.6,0.3,1.3,1l-2.1,1l0,0c0.9,0.2,1.8,0.3,2.7,0.3s1.8-0.2,2.7-0.6
		c-0.1-0.4-0.1-0.9-0.2-1.4c0.9-0.1,1.9-0.2,2.7-0.4C639.4,1106.8,641.3,1106.5,643.3,1106.5z"/>
	<path class="st0" d="M633.7,1112.2c0.1,0,0.2,0,0.4-0.1c0.1,0,0-0.1,0-0.2l-0.4-0.1V1112.2z"/>
	<path class="st0" d="M630.8,1105.7L630.8,1105.7L630.8,1105.7L630.8,1105.7L630.8,1105.7L630.8,1105.7L630.8,1105.7L630.8,1105.7
		L630.8,1105.7C630.9,1105.7,630.9,1105.7,630.8,1105.7z"/>
	<polygon class="st0" points="626,1104.6 625.8,1104.6 625.8,1104.6 	"/>
	<path class="st0" d="M629.9,1111.9c0-0.1,0-0.2,0-0.2c-0.1,0-0.2,0-0.3,0c0,0.1,0,0.2,0,0.2h0.1
		C629.7,1111.9,629.8,1111.9,629.9,1111.9z"/>
	<path class="st0" d="M629.5,1111.9L629.5,1111.9L629.5,1111.9z"/>
	<polygon class="st0" points="632.2,1113.5 631.9,1113.6 632.2,1113.7 	"/>
	<path class="st0" d="M625.7,1104.6L625.7,1104.6L625.7,1104.6L625.7,1104.6L625.7,1104.6z"/>
	<path class="st0" d="M615.1,1106.5c1.7-0.1,3.4-0.5,4.9-1.2c-1.5-0.2-3-0.1-4.4,0.3l0,0C615,1105.7,614.3,1105.9,615.1,1106.5z"/>
	<polygon class="st0" points="566.9,1099.1 567.1,1099.1 567,1099 	"/>
	<path class="st0" d="M359.8,1105.5l4.5,0.4C362.7,1105,361.6,1105.1,359.8,1105.5z"/>
	<path class="st0" d="M628.7,1106.4L628.7,1106.4c0.1,0,0.3,0,0.4,0c0.3,0,0.6,0,0.9-0.1c0.3-0.1,0.6-0.3,0.9-0.6
		c-0.4,0-0.9,0-1.3,0.1C628.6,1105.9,628.1,1106.3,628.7,1106.4z"/>
	<path class="st0" d="M617.3,1109.6l0.8,0.1l0.6-0.4c-0.3-0.1-0.7-0.1-1-0.1C617.5,1109.2,617.4,1109.4,617.3,1109.6z"/>
	<path class="st0" d="M625.4,1104.5c-0.1,0-0.2,0-0.3,0h0.5C625.6,1104.5,625.5,1104.5,625.4,1104.5L625.4,1104.5z"/>
	<path class="st0" d="M654.5,1108.2c-0.1,0-0.3,0.1-0.3,0.2l0,0c0.1,0.1,0.3,0.2,0.4,0.3l0.5-0.3
		C654.9,1108.4,654.7,1108.3,654.5,1108.2z"/>
	<polygon class="st0" points="662.4,1107.1 662.3,1107.1 662.3,1107.1 662.3,1107.1 662.3,1107.1 	"/>
	<path class="st0" d="M662.3,1107.1L662.3,1107.1L662.3,1107.1z"/>
	<polygon class="st0" points="662.3,1107.1 662.3,1107.1 662.3,1107.1 	"/>
	<polygon class="st0" points="332.5,1104.8 332.9,1104.9 332.8,1104.8 	"/>
	<path class="st0" d="M659.9,1107.4c-0.2,0.2,0,0.5,0,0.7c0.1,0,0.3,0,0.4,0l0,0c0.1,0,0.2,0,0.4,0c0.1,0,0.3,0,0.4-0.1
		c0.5-0.3,0.9-0.6,1.3-1C661.5,1106.8,660.6,1107,659.9,1107.4z"/>
	<polygon class="st0" points="71.5,1101.3 71.4,1101.3 71.5,1101.3 	"/>
	<polygon class="st0" points="653.8,1114.7 653.7,1114.6 653.7,1114.7 653.7,1114.7 	"/>
	<path class="st0" d="M653.7,1114.7L653.7,1114.7L653.7,1114.7z"/>
	<path class="st0" d="M648.1,1110.1c-1.1,0.1-1.6,0.6-1.2,1.1c0.4,0.6,0.9,1,1.6,1.2l0,0c1,0.2,2,0.3,3,0.4l0.4-0.5
		c-0.6-0.3-1.1-0.6-1.8-0.8s-0.9-0.3-0.7-0.8C649.7,1110.2,648.9,1110.1,648.1,1110.1z"/>
	<polygon class="st0" points="653.6,1114.7 653.7,1114.7 653.7,1114.6 	"/>
	<path class="st0" d="M650.9,1115l2.7-0.3C652.7,1114.5,651.8,1114.2,650.9,1115z"/>
	<path class="st0" d="M653.6,1114.7L653.6,1114.7L653.6,1114.7L653.6,1114.7z"/>
	<path class="st0" d="M646.8,1114.3h0.7c0-0.1-0.1-0.2-0.1-0.2l-0.4-0.1L646.8,1114.3z"/>
	<path class="st0" d="M222.1,1100.3c0.3,0.2,0.6,0.3,0.9,0.4l0,0c3.5,0.2,6.9,0.7,11,0.7c0.5,0,1,0,1.5,0c-1.4-0.7-3-1.1-4.6-1.3
		C228.1,1099.9,225.1,1100,222.1,1100.3z"/>
	<path class="st0" d="M210.8,1099.8c-0.1,0-0.2-0.1-0.2-0.1c-0.2,0-0.4,0.1-0.6,0.1c0.1,0.1,0.2,0.1,0.2,0.1
		C210.3,1099.9,210.5,1099.9,210.8,1099.8z"/>
	<path class="st0" d="M189.8,1099.5v-0.2h-1.2c0,0,0,0.1,0,0.2H189.8z"/>
	<polygon class="st0" points="197.9,1099.3 197.9,1099.5 198.2,1099.4 	"/>
	<path class="st0" d="M209.9,1099.8L209.9,1099.8L209.9,1099.8z"/>
	<path class="st0" d="M252.5,1099.4c-0.2,0-0.4,0.1-0.5,0.2l0.6,0.2l0.6-0.2C252.9,1099.5,252.7,1099.5,252.5,1099.4z"/>
	<path class="st0" d="M134.9,1093.6c-0.1,0-0.2-0.1-0.2-0.1c-0.2,0-0.4,0.1-0.6,0.1c0.1,0,0.2,0.1,0.2,0.1
		C134.5,1093.7,134.7,1093.7,134.9,1093.6z"/>
	<polygon class="st0" points="229,1096.7 229.3,1096.6 229.1,1096.5 	"/>
	<path class="st0" d="M253.7,1098.5c0.5,0.2,1,0.4,1.5,0.4s1-0.1,1.4-0.3c-0.8-0.2-1.6-0.5-2.4-0.7c-0.2,0-0.5,0.1-0.6,0.2
		S253.6,1098.4,253.7,1098.5L253.7,1098.5z"/>
	<path class="st0" d="M148.2,1095.9L148.2,1095.9L148.2,1095.9z"/>
	<path class="st0" d="M146.8,1098L146.8,1098c-2.8-0.2-5.5,0.2-8.2,1.1C141.4,1099.2,144.1,1098.8,146.8,1098z"/>
	<path class="st0" d="M148.7,1095.9c-0.1,0-0.2-0.1-0.2-0.1c-0.1,0-0.2,0.1-0.2,0.1c0.1,0,0.2,0.1,0.2,0.1
		C148.6,1096,148.6,1095.9,148.7,1095.9z"/>
	<path class="st0" d="M188.6,1099.3L188.6,1099.3L188.6,1099.3z"/>
	<polygon class="st0" points="172.2,1099 172.5,1099.1 172.5,1098.9 	"/>
	<polygon class="st0" points="177.1,1098.9 177.2,1099.1 177.4,1099 	"/>
	<path class="st0" d="M256.6,1098.6L256.6,1098.6L256.6,1098.6c0.1-0.1,0.1-0.1,0.1-0.2C256.7,1098.5,256.7,1098.5,256.6,1098.6z"/>
	<path class="st0" d="M321.8,1107.3c0.2,0,0.3-0.1,0.2-0.2c-0.4-0.6-1.3-0.5-2.1-0.5C320.5,1107,321.1,1107.2,321.8,1107.3z"/>
	<polygon class="st0" points="319.8,1106.7 319.8,1106.6 319.7,1106.7 	"/>
	<path class="st0" d="M308.4,1103.2l-0.3-0.1l0,0c0,0.1,0,0.2,0.1,0.2L308.4,1103.2z"/>
	<path class="st0" d="M317.4,1105.5c-0.7-0.3-1.8-0.2-2.5-0.5c-0.6-0.3-1.1-0.7-1.6-1.1c-1.3,0.2-2.4,0.9-3.1,2.1
		c-0.3,0.4,0.3,1.3,0.9,1.4l0,0c0.3,0,0.6,0.1,0.9,0.1s0.7,0,1-0.1c1.8-0.7,3.7-0.9,5.6-0.6c0.4,0,0.7,0,1.1,0l0,0l0,0h-0.1
		C319,1106.2,318.2,1105.8,317.4,1105.5z"/>
	<path class="st0" d="M320.9,1104.2c0.3,0.3,0.7,0.4,1.1,0.5c0.1,0,0.3,0,0.4-0.1c0.1,0,0.2-0.1,0.2-0.2c0-0.5-0.7-0.5-1.3-0.6
		c-0.2,0-0.5,0-0.7,0l0,0l0,0h0.1C320.7,1104,320.8,1104.1,320.9,1104.2L320.9,1104.2z"/>
	<path class="st0" d="M319.8,1106.6C319.9,1106.7,319.9,1106.7,319.8,1106.6C319.9,1106.6,319.9,1106.6,319.8,1106.6L319.8,1106.6z"
		/>
	<path class="st0" d="M303.6,1106.5c0.3-0.1,0.6-0.2,0.9-0.3l-0.3-0.2l-0.8,0.4C303.5,1106.4,303.5,1106.5,303.6,1106.5
		L303.6,1106.5z"/>
	<polygon class="st0" points="302.5,1102.4 302.8,1102.4 302.5,1102.3 	"/>
	<polygon class="st0" points="259.8,1102.2 259.8,1102.2 259.9,1102.2 260.2,1102.1 	"/>
	<path class="st0" d="M1141.2,1101.4c-0.3,0-0.7,0-1,0.1c-0.1,0-0.2,0.2-0.3,0.3l0,0c0.2,0,0.4,0.1,0.5,0.1h0.1
		C1140.7,1101.7,1141,1101.6,1141.2,1101.4z"/>
	<path class="st0" d="M307.8,1107.1L307.8,1107.1L307.8,1107.1z"/>
	<path class="st0" d="M308.1,1107.4l0.5-0.2l-0.4-0.3c-0.2,0.1-0.3,0.1-0.5,0.3C307.8,1107.1,308,1107.3,308.1,1107.4z"/>
	<path class="st0" d="M325.5,1107c0.2,0,0.4-0.1,0.6-0.2l-1-0.8c-0.3,0-0.6,0.1-0.8,0.3C324.1,1106.6,324.7,1106.9,325.5,1107
		L325.5,1107z"/>
	<path class="st0" d="M893.3,1107c0.1,0,0.2,0,0.2,0.1c0.2,0,0.5,0,0.7,0l0.8-0.1h-0.8c-0.2-0.2-0.3-0.4-0.5-0.4
		c-0.4-0.1-0.8-0.2-1.2-0.2l-0.2,0.2C892.7,1106.7,893,1106.9,893.3,1107L893.3,1107z"/>
	<path class="st0" d="M825.5,1104.7c1-0.3,1.2-1,0.6-1.4c-0.4-0.2-0.8-0.2-1.2-0.1c-0.9,0.2-1.1,1-0.5,1.3l0,0
		C824.8,1104.6,825.2,1104.7,825.5,1104.7z"/>
	<path class="st0" d="M831.1,1109.9c0.1,0,0.3-0.1,0.4-0.1l-0.5-0.1C831,1109.8,831,1109.9,831.1,1109.9L831.1,1109.9z"/>
	<path class="st0" d="M817.6,1119.2c-0.4,0-0.9,0-1.3,0c-0.1,0-0.1,0.4,0,0.4c0.4,0.1,0.8,0.1,1.3,0.1
		C817.6,1119.6,817.6,1119.4,817.6,1119.2z"/>
	<path class="st0" d="M836.6,1105.8l0.3-0.2l-0.3-0.2c-0.1,0.1-0.2,0.1-0.2,0.2C836.3,1105.6,836.5,1105.7,836.6,1105.8z"/>
	<path class="st0" d="M843.8,1107L843.8,1107L843.8,1107L843.8,1107z"/>
	<path class="st0" d="M836.4,1105.6L836.4,1105.6L836.4,1105.6z"/>
	<path class="st0" d="M816.3,1119.7L816.3,1119.7L816.3,1119.7z"/>
	<path class="st0" d="M822.2,1109.4c0.3,0,0.5-0.4,0.5-0.7c0-0.1-0.3-0.3-0.5-0.4c-0.8-0.3-1.8-0.3-2.6,0.1l0,0
		c-0.6,0.4-1.1,0.8-2.2,1.5C819.5,1109.7,820.9,1109.6,822.2,1109.4z"/>
	<path class="st0" d="M812.1,1117.9L812.1,1117.9L812.1,1117.9L812.1,1117.9z"/>
	<path class="st0" d="M810.3,1115.3c0.3-0.5,0.7-0.8,0.7-1.1c0-0.5-1.4-0.8-2.2-0.4c-0.4,0.2-0.7,0.8-0.5,0.9l0,0
		C808.9,1114.9,809.6,1115.1,810.3,1115.3z"/>
	<path class="st0" d="M812.1,1117.9c1.8-1.7,3.6-0.3,6,0.3c-1.9-1.8-2.2-2-3-1.9c-0.8,0.2-1.6,0.4-2.4,0.8
		C812.3,1117.2,812.3,1117.6,812.1,1117.9z"/>
	<path class="st0" d="M815.1,1107.3c0.2,0,0.4,0,0.6,0c0.1,0,0.1-0.3,0.1-0.5c-0.4,0-0.9,0-1.3,0.1c-0.1,0-0.1,0.3-0.1,0.4
		c0.1,0,0.2,0,0.3,0l0,0C814.9,1107.3,815,1107.3,815.1,1107.3z"/>
	<path class="st0" d="M845,1107.2c0.3,0,0.4-0.4,0.7-0.7c-0.5-0.1-1-0.2-1.4-0.2c-0.3,0.1-0.3,0.4-0.5,0.6c0.3,0.1,0.7,0.2,1.1,0.2
		C844.9,1107.2,844.9,1107.2,845,1107.2z"/>
	<path class="st0" d="M817.2,1100.3c0.3,0.1,0.7,0.2,1.1,0.2h0.1c0.2,0,0.4-0.3,0.7-0.6c-0.4-0.1-0.9-0.2-1.4-0.2
		C817.5,1099.8,817.4,1100.1,817.2,1100.3z"/>
	<path class="st0" d="M916.3,1115.1L916.3,1115.1c0.2,0,0.1-0.1,0.1-0.2c-0.1,0-0.2,0-0.4,0c-0.1,0,0,0.1,0,0.2l0,0
		C916.2,1115.1,916.3,1115.1,916.3,1115.1z"/>
	<path class="st0" d="M904.1,1114.9c-0.1,0-0.2,0-0.3,0h-0.1v0.2h0.4C904.1,1115,904.2,1114.9,904.1,1114.9z"/>
	<path class="st0" d="M792,1115.8c-2.3-0.8-3.5-1.6-5.6-1.3C787.5,1115.4,789,1115.8,792,1115.8L792,1115.8z"/>
	<path class="st0" d="M891.6,1117.9c0-0.1-0.2-0.1-0.3-0.1l-0.3,0.1l0.4,0.2C891.5,1118,891.6,1117.9,891.6,1117.9z"/>
	<path class="st0" d="M885.6,1114.9c-0.1-0.1-0.2-0.2-0.3-0.3c-0.1,0-0.3,0-0.4,0l0,0c-0.1,0.1-0.1,0.2-0.1,0.4L885.6,1114.9z"/>
	<path class="st0" d="M852.5,1101.6c-0.2,0-0.5,0-0.8-0.1c0,0.1,0,0.1,0,0.2l0.8,0.1C852.5,1101.8,852.5,1101.6,852.5,1101.6z"/>
	<path class="st0" d="M806.8,1111.8c-0.1,0-0.3,0-0.4,0.1l0,0c0,0,0.1,0.1,0.1,0.2c0.1,0,0.3,0,0.4-0.1S806.9,1111.8,806.8,1111.8z"
		/>
	<path class="st0" d="M912.1,1119c0.1,0,0-0.1,0-0.2l-0.3,0.2h0.1h0.1C912,1119,912.1,1119,912.1,1119z"/>
	<path class="st0" d="M911,1108.1c0-0.1,0-0.3,0-0.4c-0.3,0-0.5,0-0.8,0c0,0-0.1,0.2,0,0.2l0,0C910.5,1108,910.7,1108.1,911,1108.1z
		"/>
	<path class="st0" d="M865.8,1100.6c-0.1-0.1-0.2-0.3-0.4-0.4c-0.1,0.1-0.3,0.1-0.3,0.2l0,0c0.1,0.1,0.2,0.3,0.4,0.4
		C865.6,1100.7,865.8,1100.6,865.8,1100.6z"/>
	<path class="st0" d="M923,1110c-0.1,0-0.2,0-0.4,0c-0.1,0,0,0.1,0,0.2h0.4C923,1110.2,923,1110.1,923,1110z"/>
	<polygon class="st0" points="852.9,1109.3 853.2,1109.3 853.1,1109.2 	"/>
	<path class="st0" d="M862.2,1103.4c-0.2-0.1-0.5-0.1-0.7-0.2c0,0.1-0.1,0.3-0.1,0.4h0.4c0.1,0,0.3,0,0.4,0
		C862.2,1103.6,862.3,1103.4,862.2,1103.4z"/>
	<path class="st0" d="M872.6,1101.5c-0.1,0-0.3,0.1-0.2,0.2l0,0c0.1,0.1,0.3,0.2,0.4,0.3c0.2-0.1,0.3-0.2,0.5-0.3
		C873.1,1101.7,872.8,1101.6,872.6,1101.5z"/>
	<path class="st0" d="M866.9,1114.6c-0.2-0.1-0.5-0.1-0.8-0.1c0,0.1-0.1,0.2-0.1,0.2l0,0c0.2,0.1,0.5,0.1,0.8,0.1
		C866.8,1114.8,866.9,1114.6,866.9,1114.6z"/>
	<path class="st0" d="M879.7,1104.4c-1.6-0.9-3.4-1.4-5.2-1.6l0,0c1.2,1.1,2.7,1.7,4.4,1.6C879.2,1104.4,879.4,1104.4,879.7,1104.4z
		"/>
	<path class="st0" d="M792.8,1118.9C792.9,1118.9,792.9,1118.9,792.8,1118.9c0.1-0.1,0.2-0.2,0.2-0.4h-0.4c-0.1,0.1-0.1,0.2-0.2,0.4
		C792.6,1118.9,792.8,1118.9,792.8,1118.9z"/>
	<path class="st0" d="M792.5,1118.9L792.5,1118.9L792.5,1118.9z"/>
	<path class="st0" d="M793.7,1109.3c-0.7-0.2-1.4-0.3-2.2-0.4c-0.2,0.5-0.6,0.8-0.5,1.1l0,0c0.1,0.3,0.5,0.4,1,0.4
		c0.4,0,0.8-0.1,1.2-0.3C793.6,1110,793.8,1109.4,793.7,1109.3z"/>
	<path class="st0" d="M782.7,1103.3c0.3,0,0.5,0,0.8-0.1l-1.7-0.3C782.1,1103.2,782.4,1103.3,782.7,1103.3z"/>
	<path class="st0" d="M786.2,1117.7c0.1,0.1,0.1,0.1,0.2,0.2c0.2-0.1,0.5-0.1,0.7-0.2c-0.1-0.1-0.2-0.2-0.2-0.2
		C786.7,1117.5,786.4,1117.6,786.2,1117.7L786.2,1117.7z"/>
	<path class="st0" d="M783.8,1103.2l0.9,0.2c0-0.1-0.1-0.2-0.1-0.2C784.3,1103.2,784,1103.2,783.8,1103.2z"/>
	<path class="st0" d="M1129.7,1104.8c-0.1-0.1-0.2-0.3-0.4-0.3c-0.3,0-0.5-0.1-0.8-0.1v0.5c0.3,0,0.5,0,0.8,0
		C1129.5,1104.8,1129.6,1104.8,1129.7,1104.8z"/>
	<path class="st0" d="M794.8,1114.7c0.1,0,0.2-0.1,0.3-0.1h-0.6C794.6,1114.6,794.7,1114.7,794.8,1114.7L794.8,1114.7z"/>
	<polygon class="st0" points="786.2,1114.5 786.3,1114.5 786.3,1114.5 786.3,1114.4 	"/>
	<path class="st0" d="M786.3,1114.5L786.3,1114.5L786.3,1114.5z"/>
	<path class="st0" d="M789.8,1105.8L789.8,1105.8L789.8,1105.8L789.8,1105.8L789.8,1105.8L789.8,1105.8L789.8,1105.8L789.8,1105.8
		c0.1,0.1,0.1,0.1,0.1,0.2c0.1,1.1,1,1.9,2.1,1.9c0.4,0,0.8-0.1,1.2-0.2c1.3-0.5,2.7,0,3.8-0.5c-1.8-2.3-2-2.4-5.4-1.7
		C791,1105.6,790.5,1105.7,789.8,1105.8C789.9,1105.8,789.9,1105.8,789.8,1105.8L789.8,1105.8L789.8,1105.8
		C789.9,1105.8,789.9,1105.8,789.8,1105.8C789.9,1105.8,789.8,1105.8,789.8,1105.8z"/>
	<polygon class="st0" points="786.4,1114.5 786.4,1114.5 786.4,1114.5 786.4,1114.5 	"/>
	<path class="st0" d="M788.2,1104.2L788.2,1104.2L788.2,1104.2z"/>
	<path class="st0" d="M789.8,1105.8c-0.4-0.5,0-1.2-1.6-1.6C788.3,1105,788,1105.7,789.8,1105.8z"/>
	<polygon class="st0" points="805.4,1103.1 805.7,1103.1 805.6,1102.9 	"/>
	<path class="st0" d="M798.8,1104.7c0.1,0,0-0.1,0-0.2l-0.3-0.1l0,0c0,0.1,0,0.2,0,0.3C798.6,1104.7,798.7,1104.7,798.8,1104.7z"/>
	<path class="st0" d="M801.2,1118.3L801.2,1118.3c0.4,0.1,0.7,0.2,1.1,0.2c-0.1-0.2,0-0.5-0.2-0.6c-0.4-0.2-0.8-0.4-1.3-0.5
		C801,1117.9,801,1118.2,801.2,1118.3z"/>
	<path class="st0" d="M779.1,1115.3c0.1-0.1,0.2-0.1,0.3-0.2c-0.2-0.1-0.4-0.2-0.6-0.3l-0.3,0.2
		C778.7,1115.2,778.9,1115.3,779.1,1115.3L779.1,1115.3z"/>
	<polygon class="st0" points="783.5,1103.2 783.6,1103.2 783.8,1103.2 783.7,1103.2 	"/>
	<path class="st0" d="M778.7,1111.3c-0.2-0.5,0.2-1.1,0.5-2.2c-1.9,1.1-3.4,1.1-4.5,0.1l0,0h-0.1l0,0c-1.1,0.6-2.5,1-2.9,2.1
		c1.4,0.2,2.7,0.2,3.8,0.5l0,0c1.2,0.3,2.3,0.7,3.5,1.1C779.9,1112.1,778.8,1111.8,778.7,1111.3z"/>
	<path class="st0" d="M802.1,1104.1c0.4,0.1,0.7,0.2,1.1,0.2c0-0.1,0.1-0.3,0.1-0.5l-1.2-0.1C802.1,1103.8,802,1104,802.1,1104.1
		L802.1,1104.1z"/>
	<path class="st0" d="M801.5,1114.3c0.1,0,0.2,0,0.3,0l-0.5-0.2c0,0.1,0,0.2,0,0.2l0,0C801.4,1114.3,801.4,1114.3,801.5,1114.3z"/>
	<polygon class="st0" points="774.4,1112.8 774.7,1112.8 774.5,1112.7 774.5,1112.7 774.5,1112.7 774.5,1112.7 774.5,1112.7 
		774.4,1112.8 	"/>
	<path class="st0" d="M770.7,1120.7L770.7,1120.7c0.1,0,0.2,0,0.3,0h0.1c0.1,0,0.2-0.1,0.3-0.2l-0.4-0.1L770.7,1120.7z"/>
	<path class="st0" d="M776.5,1116.3l-0.6-0.3c-0.1,0.1-0.4,0.3-0.4,0.4c0.3,0.2,0.5,0.3,0.8,0.4
		C776.4,1116.6,776.4,1116.5,776.5,1116.3z"/>
	<path class="st0" d="M771.9,1112.5L771.9,1112.5c-0.5,0-1.1,0.2-0.6,0.9l3.1-0.6C773.5,1112.6,772.7,1112.5,771.9,1112.5z"/>
	<path class="st0" d="M775.5,1116.4L775.5,1116.4L775.5,1116.4z"/>
	<path class="st0" d="M775.9,1119.2l-1.2-0.4c-0.2,0.2-0.6,0.5-0.6,0.6l0,0c0.4,0.2,0.9,0.4,1.4,0.5L775.9,1119.2z"/>
	<path class="st0" d="M784.5,1114.5c-0.4,0.1-0.6,0.5-0.9,0.8l0,0c0,0,0.2,0.2,0.3,0.2l0,0c0.4,0,0.8-0.1,1.1-0.3
		c0.4-0.2,0.8-0.4,1.2-0.7C785.7,1114.4,785.1,1114.4,784.5,1114.5z"/>
	<path class="st0" d="M1041.4,1113.1l-0.2,0.2L1041.4,1113.1L1041.4,1113.1L1041.4,1113.1C1041.4,1113,1041.4,1113,1041.4,1113.1z"
		/>
	<path class="st0" d="M1029.5,1108.7L1029.5,1108.7c0,0.2,0.1,0.3,0.1,0.4l0.3-0.2L1029.5,1108.7z"/>
	<path class="st0" d="M1041.8,1112.5L1041.8,1112.5c-0.1,0.2-0.2,0.3-0.3,0.5c0.2-0.1,0.3-0.2,0.5-0.3
		C1042,1112.6,1041.8,1112.5,1041.8,1112.5z"/>
	<path class="st0" d="M1043.4,1110.9L1043.4,1110.9L1043.4,1110.9z"/>
	<path class="st0" d="M1058.4,1107.2c0.4,0.2,0.8,0.3,1.2,0.3c0.4,0,0.8-0.1,1.2-0.3H1058.4L1058.4,1107.2z"/>
	<path class="st0" d="M1034.2,1109.6c0.2,0.1,0.3,0.2,0.5,0.3h0.1c0.2,0,0.4,0,0.6-0.1c-0.2-0.1-0.4-0.2-0.6-0.3
		C1034.7,1109.5,1034.5,1109.5,1034.2,1109.6z"/>
	<path class="st0" d="M1049.4,1111.5c-3.4-1-3.4-1-6-0.6c1.5,0.4,3.1,0.6,4.7,0.7C1048.6,1111.6,1049,1111.6,1049.4,1111.5z"/>
	<path class="st0" d="M932.5,1110c-0.4,0-0.9-0.1-1.3-0.1c0,0-0.1,0.1-0.2,0.3h0.7c0.2,0,0.5,0,0.7,0
		C932.5,1110.2,932.5,1110.1,932.5,1110z"/>
	<path class="st0" d="M1034.8,1109.8L1034.8,1109.8L1034.8,1109.8z"/>
	<path class="st0" d="M1035.5,1109.8L1035.5,1109.8L1035.5,1109.8h0.2C1035.7,1109.8,1035.7,1109.8,1035.5,1109.8L1035.5,1109.8
		L1035.5,1109.8L1035.5,1109.8z"/>
	<path class="st0" d="M1037,1112.3c-0.5-0.1-1-0.1-1.5,0c-0.2,0-0.3,0.4-0.5,0.6l1.2,0.1L1037,1112.3z"/>
	<path class="st0" d="M1034.3,1115.1L1034.3,1115.1c0.1,0.1,0.4,0.2,0.6,0.3c0.1-0.1,0.4-0.3,0.4-0.4c-0.1-0.1-0.4-0.2-0.6-0.3
		C1034.5,1114.8,1034.3,1115,1034.3,1115.1z"/>
	<path class="st0" d="M1035.3,1108L1035.3,1108c0,0.1,0.2,0.1,0.3,0.2l0.3-0.3l-0.4-0.1C1035.5,1107.8,1035.3,1107.9,1035.3,1108z"
		/>
	<path class="st0" d="M1036,1109.8L1036,1109.8c0.1,0,0.2,0,0.3,0h-0.5C1035.8,1109.8,1035.9,1109.8,1036,1109.8z"/>
	<path class="st0" d="M1038.6,1106.9c-0.1,0-0.3,0-0.4,0.1l0,0c0,0.1,0.1,0.3,0.1,0.4l0.8-0.2
		C1039,1107.1,1038.8,1107,1038.6,1106.9z"/>
	<polygon class="st0" points="1102.6,1110.1 1102.3,1110 1102.2,1110.2 	"/>
	<path class="st0" d="M1105.6,1108.4c-1.6-0.3-3.2-0.3-4.7,0.1l0,0c0.7,0.1,1.5,0.2,2.2,0.2
		C1104,1108.7,1104.8,1108.6,1105.6,1108.4z"/>
	<path class="st0" d="M1108.7,1110.2c-0.2-0.1-0.4-0.2-0.6-0.2c-0.3,0-0.5,0.1-0.7,0.2c0.3,0,0.6,0.1,0.9,0.1l0,0
		C1108.4,1110.2,1108.5,1110.2,1108.7,1110.2z"/>
	<polygon class="st0" points="1128.5,1104.9 1128.6,1104.9 1128.6,1104.9 	"/>
	<path class="st0" d="M1110.9,1109c-0.1-0.1-0.1-0.2-0.2-0.2c-0.3,0-0.5,0.1-0.8,0.1l0,0c0.1,0.1,0.1,0.2,0.2,0.2
		C1110.4,1109.1,1110.6,1109.1,1110.9,1109z"/>
	<path class="st0" d="M1098.2,1110h-1.3l0,0c0.1,0.1,0.3,0.2,0.4,0.2l0,0C1097.6,1110.1,1097.9,1110.1,1098.2,1110z"/>
	<path class="st0" d="M1049.6,1111.6L1049.6,1111.6c1.2,0.5,2.5,0.8,3.9,0.8c0.4,0,0.8,0,1.3-0.1
		C1053.2,1111.5,1051.4,1111.2,1049.6,1111.6z"/>
	<path class="st0" d="M1049.5,1111.6L1049.5,1111.6L1049.5,1111.6z"/>
	<path class="st0" d="M1052.9,1109.4L1052.9,1109.4c0.7,0.1,1.4,0.2,2.1,0.2c1.4-0.1,2.8-0.3,4.2-0.6
		C1057.1,1108.6,1054.9,1108.7,1052.9,1109.4z"/>
	<path class="st0" d="M1049.4,1111.5L1049.4,1111.5L1049.4,1111.5L1049.4,1111.5L1049.4,1111.5L1049.4,1111.5L1049.4,1111.5
		L1049.4,1111.5L1049.4,1111.5h0.2H1049.4L1049.4,1111.5z"/>
	<path class="st0" d="M1063.9,1108.9L1063.9,1108.9c1.6,0.2,2.3,0.3,2.9,0.3s1.2-0.1,1.9-0.3H1063.9z"/>
	<path class="st0" d="M1078.4,1107.5c0-0.1-0.1-0.2-0.1-0.3c-0.4,0-0.8,0.1-1.2,0.1l0,0c0.1,0.1,0.1,0.3,0.1,0.3
		C1077.6,1107.6,1078,1107.6,1078.4,1107.5z"/>
	<path class="st0" d="M1062.8,1106.6l-1.7,0.5c0.1,0,0.2,0,0.3,0h0.2C1062.1,1107.1,1062.6,1107,1062.8,1106.6z"/>
	<path class="st0" d="M1060.9,1107.1L1060.9,1107.1C1061,1107.1,1061,1107.1,1060.9,1107.1L1060.9,1107.1L1060.9,1107.1
		L1060.9,1107.1z"/>
	<path class="st0" d="M991.4,1108c-0.2-0.2-0.4-0.3-0.7-0.3c-0.2,0-0.7,0.2-0.7,0.2l0,0c0,0.4,0.1,0.8,0.3,1.2
		C991.6,1108.9,991.6,1108.4,991.4,1108z"/>
	<path class="st0" d="M983.6,1110.8C983.7,1110.8,983.7,1110.8,983.6,1110.8c0.4-0.2,0.7-0.5,1-0.7c-0.3-0.1-0.7-0.2-1-0.3
		c-0.8,0.1-0.9,0.4-0.6,0.8l0,0C983.2,1110.7,983.4,1110.8,983.6,1110.8z"/>
	<path class="st0" d="M972.9,1113L972.9,1113L972.9,1113z"/>
	<path class="st0" d="M973.3,1113c0.1,0,0.1-0.1,0.1-0.2l-0.3-0.1l-0.2,0.3c0.1,0,0.2,0,0.2,0C973.2,1113,973.3,1113,973.3,1113z"/>
	<path class="st0" d="M996.6,1124.2l-0.5-0.3l-0.3,0.1c0.2,0.1,0.3,0.2,0.5,0.3l0,0C996.4,1124.3,996.5,1124.2,996.6,1124.2z"/>
	<path class="st0" d="M999.7,1110.7c0.1-0.1,0.3-0.2,0.3-0.2L999.7,1110.7l-0.2,0.2L999.7,1110.7z"/>
	<polygon class="st0" points="1006.6,1120.6 1006.5,1120.5 1006.3,1120.6 	"/>
	<path class="st0" d="M997.9,1109.7h3.5C999.5,1108.8,999.5,1108.8,997.9,1109.7z"/>
	<polygon class="st0" points="936.5,1110.5 936.5,1110.7 936.8,1110.6 	"/>
	<path class="st0" d="M1017.6,1109.5c0.3,0.1,0.6,0.1,1,0.1c0.9,0,1.7-0.3,2.3-0.9C1019.7,1108.8,1018.6,1109,1017.6,1109.5
		L1017.6,1109.5z"/>
	<path class="st0" d="M965.6,1117.3c0,0.1,0,0.2,0,0.2h0.8c0-0.1,0-0.2,0-0.2C966.2,1117.3,965.9,1117.3,965.6,1117.3z"/>
	<polygon class="st0" points="932.8,1115.8 932.9,1116 933.1,1115.9 	"/>
	<path class="st0" d="M946.3,1120.4L946.3,1120.4c0.1,0.1,0.1,0.2,0.2,0.3c0-0.1,0.1-0.1,0.1-0.2S946.4,1120.4,946.3,1120.4z"/>
	<path class="st0" d="M961.1,1111.6c-0.1,0-0.2,0-0.4,0l0,0c0,0.1,0.1,0.2,0.1,0.3l0.3-0.1C961.1,1111.7,961.1,1111.6,961.1,1111.6z
		"/>
	<polygon class="st0" points="938.3,1118.1 938.6,1118 938.4,1117.9 	"/>
	<polygon class="st0" points="1021.7,1109.8 1021.8,1109.9 1022,1109.8 	"/>
	<path class="st0" d="M1020.8,1111.3c-0.2-0.2-0.5-0.2-0.7-0.2s-0.6,0.2-0.6,0.3c0.2,0.4,0.3,0.8,0.6,1.2h-0.1h0.1l0,0
		c0,0,0,0,0-0.1C1020.8,1112.2,1021.3,1111.8,1020.8,1111.3z"/>
	<path class="st0" d="M1021.8,1113.4L1021.8,1113.4c0.7,0.3,1.4,0.5,2.2,0.6c0.3,0,0.7,0,1-0.1
		C1024,1113.4,1022.9,1113.3,1021.8,1113.4L1021.8,1113.4h-0.2H1021.8L1021.8,1113.4z"/>
	<path class="st0" d="M1027.8,1110.6l-4.5,0.8l0,0c0.3,0.6,0.9,0.9,1.6,0.9c0.3,0,0.6,0,0.8-0.1
		C1026.9,1112,1027.7,1111.6,1027.8,1110.6z"/>
	<path class="st0" d="M1022.6,1106.4c-0.7,0.4-1,1.1-2.1,1.3c0.2,0.2,0.3,0.5,0.6,0.5l0,0c0.3,0.1,0.7,0.1,1,0.1
		c0.5,0,1-0.1,1.4-0.5c0.6-0.5,1.3-0.9,1.9-1.4C1024.6,1106,1023.6,1106,1022.6,1106.4z"/>
	<path class="st0" d="M1021,1108.7L1021,1108.7L1021,1108.7L1021,1108.7L1021,1108.7L1021,1108.7L1021,1108.7L1021,1108.7
		c1.3,0.6,2.7,0.9,4.1,0.9c0.9,0,1.8-0.2,2.7-0.5C1025.4,1108,1025,1107.9,1021,1108.7z"/>
	<path class="st0" d="M1017.1,1105.9L1017.1,1105.9c0.2-0.1,0.3-0.2,0.4-0.3l-0.7-0.1c0,0.1,0,0.2,0,0.4l0,0
		C1016.9,1105.8,1017,1105.9,1017.1,1105.9z"/>
	<path class="st0" d="M1013.7,1106.5c0.4,0.6,1,0.9,1.7,0.9c0.5,0,1-0.1,1.5-0.3L1013.7,1106.5L1013.7,1106.5z"/>
	<path class="st0" d="M1021.1,1122L1021.1,1122c0.1,0,0.2-0.1,0.3-0.1c-0.1,0-0.2-0.1-0.3-0.1s-0.2,0.1-0.3,0.1
		C1021,1121.9,1021,1122,1021.1,1122z"/>
	<polygon class="st0" points="1008.7,1118.5 1008.9,1118.6 1009.1,1118.5 	"/>
	<polygon class="st0" points="1006.8,1109.5 1006.5,1109.5 1006.7,1109.6 	"/>
	<path class="st0" d="M1020.1,1112.6l-1.1,0.4c0.3,0.2,0.6,0.4,0.9,0.5c0.1,0,0.2,0,0.3,0c0.4,0,0.9-0.1,1.4-0.1L1020.1,1112.6z"/>
	<path class="st0" d="M1012.9,1110.2l0.7,0.3l0.6-0.4c-0.2-0.1-0.4-0.2-0.7-0.3C1013.2,1109.9,1013.1,1110.1,1012.9,1110.2z"/>
</g>
</svg>
