<svg xmlns="http://www.w3.org/2000/svg" width="17.287" height="23.078" viewBox="0 0 17.287 23.078"><script xmlns=""/>
  <path id="Path_32" data-name="Path 32" d="M11.332-8.68c-.082-.119-.246-.214-.328-.333l-1.026-2.1c-.246-.571-.451-1.143-.739-1.69L6.776-17.584,5.627-19.7,5.3-20.441l-.246-.786a2.657,2.657,0,0,0-1.806-.524c-.534.024-1.108,0-1.642.024-.492,0-.985.071-1.436.1a.542.542,0,0,0-.082.714L.743-19.7l.616,1.071.123.333c.164.4.328.809.534,1.214.205.429.492.833.7,1.262l.944,2.047c.575,1.143,1.149,2.262,1.765,3.381l.985,1.952.862,1.809c.246.548.492,1.071.78,1.6.205.429.492.524,1.231.548.9,0,1.806.024,2.709.024.616,0,1.231,0,1.888-.024s1.026-.214,1.19-.6c.534-1.143,1.067-2.309,1.642-3.452a4.919,4.919,0,0,1,.369-.619l.328-.786.534-.928,1.231-2.738.164-.214.492-.809a10.282,10.282,0,0,1,.9-2.024c.492-.667.616-1.357,1.026-2,.451-.714.739-1.476,1.149-2.214a.728.728,0,0,0,.082-.762,6.233,6.233,0,0,0-.657-.1q-1.6-.036-3.2,0a4.124,4.124,0,0,0-.739.167l-.205.238A14.554,14.554,0,0,0,17.077-19.2a29.934,29.934,0,0,1-1.436,2.785,10.642,10.642,0,0,0-.7,1.357,18.569,18.569,0,0,1-.9,1.809c-.205.619-.78,1.19-.78,1.762a5.211,5.211,0,0,0-.451.667c-.164.619-.575,1.214-.78,1.809C11.988-8.847,11.824-8.728,11.332-8.68Zm4.432-4.047a2.9,2.9,0,0,0,.41-.024l-.246.238.451.119v.714l-.985-.452Zm3.242-5.523-.246-.071a2.606,2.606,0,0,1,.287-.429l.492-.262.287.238a2.294,2.294,0,0,0-.328.262l.246.167-.616.238c0-.024-.082-.024-.123-.048ZM16.3-12.942c-.369-.143-.287-.31-.082-.5l.821-.214c.205.286-.123.4-.328.548v-.024ZM5.134-15.7H4.847c-.328-.167-.451-.381-.287-.619a3.68,3.68,0,0,1-.369-.31l.534.119.246-.143a1.48,1.48,0,0,0,.205.286l-.369.286Zm12.23-.167a.868.868,0,0,1,.082-.309l.9.143c0,.119.041.214.041.4C17.98-15.727,17.693-15.775,17.365-15.87ZM4.478-17.608a2.167,2.167,0,0,0-.041.476,4.038,4.038,0,0,0-.534.048l-.123-.524ZM12.44-6.514a.81.81,0,0,1,.944-.024L13.26-6.3a5.687,5.687,0,0,0-.616.024Zm-.41.5c-.492-.119-.944-.143-1.026-.452.287.024.616.071,1.026.1ZM7.31-12.656a2.582,2.582,0,0,1-1.231-.262l.328-.143A1.2,1.2,0,0,1,7.31-12.656ZM14.2-8.418l-.7.333c-.205-.262,0-.4.41-.548Zm-3.16,2.881.575-.143v-.262l.739.31c-.041.024-.082.048-.082.1Zm.328-1.643c-.328-.1-.205-.238-.205-.4a2.551,2.551,0,0,0,.492-.048C11.906-7.514,11.824-7.395,11.373-7.18ZM3.9-17.87a5.653,5.653,0,0,0-.739-.286c.328-.1.492-.143.821-.262ZM8.787-8.728l-.41.167a3.861,3.861,0,0,1-.369-.286l.369-.214Zm1.888,1.333c-.739.048-.739.048-.739-.31A.729.729,0,0,1,10.675-7.395Zm4.1-1.4-.328-.524a1.461,1.461,0,0,1,.328,0l.369.167Zm6.033-11.809-.287.381a.737.737,0,0,1-.205-.048c-.164-.143-.205-.262.123-.4ZM7.8-11.656l.082.048-.7.524-.164-.286ZM9.238-7.775a2.481,2.481,0,0,1-.451.19,1.994,1.994,0,0,0-.246-.381C8.91-7.99,9.115-7.942,9.238-7.775Zm.123.786c.287-.071.492-.1.739-.143V-6.7c-.041,0-.082.024-.123.024a.46.46,0,0,0-.164-.19A3.419,3.419,0,0,0,9.362-6.99Zm6.115-3.333c-.164-.119-.246-.214-.369-.286a.45.45,0,0,1,.657.1Zm-9.85-4.762c.164.238.041.333-.287.357a.884.884,0,0,0-.205-.143c.082-.048.123-.119.205-.143C5.381-15.061,5.5-15.061,5.627-15.084Zm6.649,7.928c0,.071,0,.119-.041.143l-.451.19-.369-.19C11.783-7.061,11.988-7.109,12.275-7.156Zm-6.443-6.38c.287.167.287.167.246.6l-.164-.119A1.756,1.756,0,0,1,5.832-13.537ZM3.616-20.013c-.451.167-.41-.119-.575-.214h.41A.748.748,0,0,1,3.616-20.013Zm-.164-.333a1.086,1.086,0,0,0-.616.024.7.7,0,0,1,.041-.262l.575.1Zm13.913,6a3.689,3.689,0,0,1,.451-.309c.082.214-.041.309-.287.381Zm-11.656-1.4-.41.1.205-.452ZM9.9-5.871l.123.357L9.526-5.68ZM7.022-10.918c.575-.048.575-.048.492.262A2.472,2.472,0,0,0,7.022-10.918ZM3.985-19.227l-.534.048a1.834,1.834,0,0,0,.369-.333ZM10.962-6.49a1.268,1.268,0,0,1-.287-.238,3.139,3.139,0,0,1,.492-.024Zm2.011-1.119.164.1c-.123.119-.205.19-.451.024Zm3.735-5.5c.082,0,.205.024.328.024l-.246.262Zm1.313-2.167a.323.323,0,0,1,.041.19.308.308,0,0,1-.164.024.464.464,0,0,0-.082-.214Zm-11.943,1a.884.884,0,0,1,.205-.143c.041,0,.082.024.123.024l-.164.19Zm9.768,2.928a.884.884,0,0,0-.205.143l-.123-.048.164-.167ZM5.463-14.3l-.123-.19a3,3,0,0,0,.328-.048Zm13.215-3.785a1.666,1.666,0,0,1,.287-.048c0,.048,0,.119-.041.143H18.8C18.76-17.989,18.76-18.013,18.678-18.084ZM8.13-10.966c-.246-.071-.246-.071-.123-.262ZM2.672-20.084c-.164-.143-.082-.214.123-.238Zm16.375,2.643h-.164a.253.253,0,0,0-.041-.167c.041,0,.082-.024.123-.024ZM8.582-9.561a.865.865,0,0,0,.246.024v.071a.865.865,0,0,1-.246.024Zm5.951-.429c0-.024-.041-.024-.082-.048l.205-.1c.041.024.082.048.082.071ZM11.29-5.942c0,.048.041.119.041.19h-.123v-.19ZM19.5-18.537c-.205.024-.328.071-.328.214Zm-1.519,1.69c-.041-.024-.082-.024-.082-.048,0-.048.041-.071.082-.119l.123.048ZM5.093-16.965a.143.143,0,0,0-.041.119.606.606,0,0,0-.205-.024l.123-.119A.228.228,0,0,0,5.093-16.965ZM13.712-6.323a.3.3,0,0,1-.164.1l-.041-.024a.156.156,0,0,1,.082-.119Zm1.6-3.333a.3.3,0,0,1,.164-.1s.041,0,.041.024-.041.071-.082.119A.265.265,0,0,0,15.312-9.656ZM13.671-7.347a1.564,1.564,0,0,1-.205-.048c0-.024.041-.048.041-.071l.205.071C13.671-7.371,13.671-7.371,13.671-7.347Zm-.369.5c.041-.024.041-.048.082-.048l.164.071s-.041.024-.041.048Zm-6.525-5c0,.024.041.048.082.048l-.164.071c0-.024-.041-.071-.041-.1A.635.635,0,0,1,6.776-11.847Zm-3-7.738a.733.733,0,0,1-.246-.024.265.265,0,0,0,.123-.048C3.7-19.656,3.7-19.632,3.78-19.584Zm10.835,9.19a.1.1,0,0,0,.041-.1H14.7v.1ZM2.877-19.3c0-.048,0-.071-.041-.1h.123Zm12.189,8.4c-.041,0-.041.024-.041.024-.041,0-.041-.024-.082-.024,0-.024.041-.024.041-.024A.11.11,0,0,1,15.066-10.894ZM3.575-20.275c-.041.024-.082.024-.082.048V-20.3A.19.19,0,0,0,3.575-20.275ZM17-15.156h.164a1.06,1.06,0,0,1-.164.024ZM3.739-18.87s0,.024-.041.048c0,0,0-.024-.041-.024L3.7-18.87ZM8.13-10.823c.041,0,.041.024.041.024,0,.024-.041.024-.041.024Zm.862,2.5H8.91l.041-.024ZM4.4-18.56H4.355l.041-.048ZM7.556-9.99c.041.024.082.024.041.024C7.6-9.942,7.6-9.966,7.556-9.99Z" transform="translate(21.753 23.066) rotate(-90)" fill="#fff"/>
<script xmlns=""/></svg>