<svg xmlns="http://www.w3.org/2000/svg" width="484.592" height="507.696" viewBox="0 0 484.592 507.696">
  <path id="Path_49" data-name="Path 49" d="M463.213,177.6q-25.4,0-53.016,17.229-25.857,15.942-41.622,37.915-11.4-38.339-35.489-61.18-27.613-25.838-65.725-25.849-51.267,0-83.466,31.237t-32.2,81.644q0,65.045,41.618,130.528,39.437,61.622,98.593,98.235h12.266q-67.47-69.808-89.82-100.819-44.692-63.32-44.7-123.636,0-42.22,28.262-71.08,28.263-28.877,70.756-28.875,43.823,0,66.6,41.8,19.281,34.9,16.646,80.555h9.641q8.76-36.608,33.3-62.47,27.606-29.291,63.533-29.283,31.539,0,53.454,24.98t21.908,56.43q0,43.1-55.208,91.765Q427.291,408.1,376.019,449.874q-55.64,50.839-55.642,100.372,0,24.566,20.149,24.568l17.093-4.746Q339.654,559.3,339.654,542.5q0-43.51,54.331-90.042,50.833-40.5,101.214-80.572,54.772-50.392,54.765-103.389,0-35.312-25.414-63.112T463.213,177.6" transform="translate(-18.499 -176.101) rotate(13)" fill="#b1b3b3" opacity="0.2"/>
</svg>
