<svg xmlns="http://www.w3.org/2000/svg" xmlns:xlink="http://www.w3.org/1999/xlink" version="1.1" id="Layer_1" x="0px" y="0px" viewBox="0 0 26.3 18" style="enable-background:new 0 0 26.3 18;" xml:space="preserve"><script xmlns=""/>
<style type="text/css">
	.st0{fill:none;stroke:#fdad20;stroke-width:2;stroke-linecap:round;stroke-linejoin:round;stroke-miterlimit:10;}
</style>
<g id="Group_375" transform="translate(-3.142 -7.735)">
	<g id="thin-0260_link_url_chain_hyperlink" transform="translate(4.142 8.735)">
		<path id="Path_17" class="st0" d="M2.9,10.3C1.1,9.3,0,7.5,0.1,5.5l0,0c0-2.9,2.4-5.3,5.3-5.3h8.5C16.7,0.2,19,2.6,19,5.5l0,0    c0,2.9-2.2,5.2-5.1,5.3c0,0,0,0-0.1,0h-7"/>
		<path id="Path_18" class="st0" d="M21.3,6.1c1.8,0.9,2.9,2.7,2.9,4.7l0,0c0,2.9-2.3,5.2-5.2,5.2c0,0,0,0-0.1,0h-8.5    c-2.9-0.1-5.2-2.4-5.2-5.3l0,0c0-2.9,2.2-5.2,5.1-5.3c0,0,0,0,0.1,0h7"/>
	</g>
</g>
<script xmlns=""/></svg>