<svg xmlns="http://www.w3.org/2000/svg" width="29.564" height="29.564" viewBox="0 0 29.564 29.564">
  <path id="Path_3203" data-name="Path 3203" d="M-27.035-37.677a1.215,1.215,0,0,0-.742.919c-.035.566-.106,1.131-.106,1.7v7.494a13.364,13.364,0,0,0,.071,2.368,4.04,4.04,0,0,1,0,1.131c0,1.308-.106,2.651-.035,3.994a20.947,20.947,0,0,1,0,2.58,1.141,1.141,0,0,1-.707,1.025h-3l-.46-.424c-.035-.813-.106-1.626-.106-2.4V-30.537c0-.353.071-.672.071-.99l-.106-4.56v-4.843a1.1,1.1,0,0,1,1.131-1.131h.954c.848.035,1.7.035,2.545.035.813,0,1.661.035,2.474,0s1.661.071,2.51.035c1.166-.035,2.333.035,3.5.071a3.023,3.023,0,0,0,.566,0,4.921,4.921,0,0,1,2.156.071,1.429,1.429,0,0,1,.353,1.343,1.044,1.044,0,0,0-.071.46,3.9,3.9,0,0,1-.071,1.909l-.6.46C-20.177-37.783-23.641-37.606-27.035-37.677Zm-.742-2.4a2.1,2.1,0,0,1-.566-.247l-.318.247.283.389-.672.46a.13.13,0,0,0,.035.106c.106,0,.247.071.318,0,.389-.283.742-.353,1.1.071l.141-.283-.318-.212Zm-2.58,17.639a1.9,1.9,0,0,1,.177.389h.495c.212-.424.424-.884-.071-1.379l-.106.46Zm.46-6.469-.6-.141.424.672-.318.318a1.176,1.176,0,0,0,.212.353l.212-.283.672-.141Zm7.423-11.559c.035.53-.742.707-.46,1.343.636-.141.672-.707.954-1.2Zm2.722.247-.283-.247c0,.389-.46.707-.071,1.131l.566-.46Zm-4.737-.035.495.566.389-.566a2.7,2.7,0,0,1-.318-.318Zm-5.444,21.35h-.636c.141.353.283.6.424.884.035,0,.071-.035.106-.035Zm.071-14.387a4.605,4.605,0,0,0,.353.53c.212-.318.212-.353-.247-.672l.247-.318a.739.739,0,0,0-.141-.212l-.46.495a.74.74,0,0,0,.212.141h0Zm.318,1.838c-.318-.247-.318-.247-.919-.247l-.071.46C-30.181-31.314-29.933-31.35-29.544-31.456Zm7.918-8.908c.247.53.566.318.848.283l.071-.389ZM-30.357-24.1l-.247.283a1.312,1.312,0,0,0,.318.071c.495.283.566.247.848-.212l-.742.106Zm.177-11.17.495.283a1.791,1.791,0,0,1,.071-.46L-30-35.662c-.283.106-.247.247-.141.389Zm0,5.762.106-.389a1.848,1.848,0,0,1-.424-.247l-.071.813Zm-.106-10.145c-.353.283-.247.46-.035.6l.353-.283A2.7,2.7,0,0,0-30.287-39.656Zm.6,10.216a2.015,2.015,0,0,0-.46-.035,1.123,1.123,0,0,0,.106.318.543.543,0,0,1,.141.212h.212Zm-.353-2.828-.283-.212c-.318.106-.247.318-.177.636Zm-.318,6.893a1.337,1.337,0,0,0,.283-.247l-.495-.46.071.672C-30.463-25.411-30.393-25.376-30.357-25.376Zm.672-1.7c-.318.212-.318.389-.106.636a3.077,3.077,0,0,0,.318-.389Zm2.51-13.326c-.212,0-.353-.035-.566-.035v.353h.389A3.185,3.185,0,0,1-27.176-40.4Zm7.989.707a2.536,2.536,0,0,0,.389-.247l-.177-.46h-.106ZM-29.933-21.2c-.106-.424-.389-.247-.672-.247C-30.463-21.028-30.181-21.2-29.933-21.2Zm.495-13.326-.53-.247c-.035.035-.071.071-.071.106l.389.46Zm3-5.656-.495.318h.884Zm-3.5,2.439a.777.777,0,0,0-.177-.212l-.389.318C-30.216-37.465-30.039-37.535-29.933-37.748Zm-.212,17.921c-.389.141-.424.318-.353.707Zm.636-4.913a.937.937,0,0,0-.177.212.72.72,0,0,0,.212.247C-29.3-24.457-29.3-24.563-29.509-24.74Zm-1.025,4.454c.247.141.247.141.46,0C-30.181-20.569-30.322-20.533-30.534-20.286Zm.99-.071a4.147,4.147,0,0,0-.177.389l.247.177v-.566Zm-.6-7.317.212.53.071-.53Zm-.212-9.226a2.791,2.791,0,0,0-.106.46C-30.181-36.546-30.145-36.652-30.357-36.9Zm12.372-3.358a.979.979,0,0,1,.318.035.213.213,0,0,1,.035-.141,1.032,1.032,0,0,0-.318-.071A.265.265,0,0,0-17.986-40.257Zm-12.16,18.381c0,.071.035.177.035.318l.283-.141Zm5.09-18.31c.318.106.318.106.318-.177Zm-4.277.53a.979.979,0,0,0,.035-.318H-29.4a.979.979,0,0,0-.035.318Zm4.7.071a.524.524,0,0,0,.247.035v-.106a.511.511,0,0,0-.247-.071ZM-27-39.974a2.879,2.879,0,0,0-.318-.071c0,.071.035.141.035.247Zm-2.616,4.065h.106v-.318h-.106Zm.672-2.616c-.035.071-.071.106-.071.177-.035.035.035.071.071.106l.141-.177Zm-1.591,4.878c0,.035.106.035.106.035l.071-.212a.265.265,0,0,1-.177-.035Zm6.681-5.585a.69.69,0,0,0,.247-.035v-.071a.524.524,0,0,0-.247.035Zm-5.726,8.8h.071v-.283h-.071ZM-30.6-25.022a.933.933,0,0,1,.247-.035c.035,0,0-.071,0-.177Zm.247,3.075a.265.265,0,0,0,.177.035v-.106h-.177Zm10.675-18.31a.5.5,0,0,1,.212-.071l-.106-.106Zm-10,2.686h.035a.267.267,0,0,1,.035-.141h-.071Zm.141,18.133a.13.13,0,0,0,.106.035v-.071C-29.474-19.473-29.509-19.437-29.544-19.437ZM-17.7-39.161l.035.035a.13.13,0,0,0,.106-.035Z" transform="translate(18.469 -22.917) rotate(-135)" fill="#b92454"/>
</svg>
