<svg xmlns="http://www.w3.org/2000/svg" xmlns:xlink="http://www.w3.org/1999/xlink" width="376" height="98" viewBox="0 0 376 98">
  <defs>
    <clipPath id="clip-path">
      <path id="Union_34" data-name="Union 34" d="M0,0H376V98H0Z" transform="translate(-4940 7931)" fill="#b92454"/>
    </clipPath>
    <clipPath id="clip-path-2">
      <path id="Union_33" data-name="Union 33" d="M2844.813,770.643a53.576,53.576,0,0,1,12.6-.589,2.449,2.449,0,0,1-.1.576q-5.611.147-11.226.241h-.025A7,7,0,0,1,2844.813,770.643Zm18.511-.144a1.582,1.582,0,0,1,.112-.393l.733.147a2.742,2.742,0,0,1-.466.308.138.138,0,0,1-.05.007A.912.912,0,0,1,2863.324,770.5Zm323.154-.244a4.6,4.6,0,0,1-.511-.275l.319-.115.5.283a1.843,1.843,0,0,1-.3.108Zm-315.767-.159c3.3-1.158,3.355-1.158,4.4.063Zm15.789-.562a25.529,25.529,0,0,1-6.469-.531c-.226-1.1,2.2-.734,2.2-1.668,0-.685.2-1.437,1.8-1.915a4.46,4.46,0,0,0,.952,1.151c.806.539,1.782.994,2.908,1.6l1.553-1.621c1.635.333,2.925.834,3.186,1.8.123.454-.425.967-.668,1.452A36.1,36.1,0,0,0,2886.5,769.534Zm9.806-.057c-.917-.19-1.521-.647-1.488-1.232a11.7,11.7,0,0,1,.341-1.728,2.84,2.84,0,0,1,3.165.83c.722.685.511,1.4-.393,1.969a2.546,2.546,0,0,1-1.118.2A2.6,2.6,0,0,1,2896.306,769.477Zm6.243-.72-1.03.394-.4-.723a10.211,10.211,0,0,1-.053-1.305c.1-1.247-.755-1.829-2.9-1.825-2.179,0-4.355.079-6.463.121-.879-.8.418-.935.956-1.281a18.578,18.578,0,0,0,8.161-.388c1.145-.239,2.269-.511,3.4-.769a6.227,6.227,0,0,0,6.03-.362l4.3.343c.063-.667.116-1.221.163-1.73,1.1-.167,1.334.172,1.5.518.351.755,1.3.955,2.51.888,1.671-.093,3.324-.528,5.267-.071.126.665.258,1.346.376,1.976l-6.7.883a5.607,5.607,0,0,0-3.842-.552c-1.315.153-2.679.172-4.19.26-.945.688.552,1.2.791,1.841.17.456.188.9-.646,1.162a1.856,1.856,0,0,1-1.871-.561c-.344-.576-.591-1.171-.916-1.829-1.684.1-2.008.693-1.715,1.309a14.907,14.907,0,0,0,1.769,2.3Zm10.984-.113c-.87-.382-1.194-1.213-.661-1.679a1.982,1.982,0,0,1,1.187-.147c1.039.4,1.857.924,1.967,1.676a2.145,2.145,0,0,1-1.292.422A3.023,3.023,0,0,1,2913.533,768.645Zm7.815-.065c-2.781-.311-3.476-.9-3.662-3.1a20.611,20.611,0,0,0,2.255,1.628,3.329,3.329,0,0,0,2.947.425l-1.392-1.193c.295-.143.421-.251.521-.245,2.487.175,3.52.581,3.388,1.317-.139.766-1.305,1.228-2.948,1.228A10.009,10.009,0,0,1,2921.348,768.58Zm7.09-.588.268-.066-.02.182Zm282.867-.037c-.094,0-.179-.087-.268-.137.089-.047.182-.133.264-.129s.18.087.269.135c-.087.046-.179.13-.26.13Zm-274.242-.524a.179.179,0,0,1,.053-.243c.82-.551,1.625-.149,2.425.033a2.876,2.876,0,0,1,.556.329,3.17,3.17,0,0,1-.649.2,6.283,6.283,0,0,0-.688.038c-.213.02-.427.039-.632.039A1.308,1.308,0,0,1,2937.064,767.43Zm14.224.124a13.737,13.737,0,0,1-1.259-.633c.233-.082.523-.258.685-.226a14.579,14.579,0,0,1,1.529.469,7.972,7.972,0,0,1-.937.393A.049.049,0,0,1,2951.288,767.554ZM2874.5,767a9.223,9.223,0,0,1,4.389.178,16.749,16.749,0,0,1-2.5.379A3.318,3.318,0,0,1,2874.5,767Zm56.177-.038c-.237-.176-.367-.619-.174-.724.856-.467,1.846-.852,2.749-1.251l-2.847-3.362a6.737,6.737,0,0,1,3.731,1.856c1.517,1.558.7,2.92-2.286,3.713a.782.782,0,0,1-.194.02A2.1,2.1,0,0,1,2930.672,766.96Zm12.007.07a2.349,2.349,0,0,1-1.432-.928.778.778,0,0,1,.229-.971,5.8,5.8,0,0,1,1.536-.54l3.37,2.169c-1.411.121-2.376.292-3.216.292C2943,767.052,2942.838,767.045,2942.679,767.03Zm18.209-.332.363-.309.358.143a.8.8,0,0,1-.274.181.548.548,0,0,1-.113.01C2961.117,766.723,2961,766.7,2960.888,766.7Zm175.545-.349c.1.038.24.067.27.118s-.063.119-.1.18C3136.545,766.548,3136.489,766.449,3136.434,766.349Zm60,.219.236-.135.094.161Zm-232.1-1.252c-.074-.043.368-.378.573-.577l1.2.4-.419.71A9.136,9.136,0,0,1,2964.333,765.317Zm42.121.323c-.053-.008-.027-.406.029-.411.41-.041.835-.03,1.265-.035-.012.231-.021.384-.029.536C3007.3,765.706,3006.863,765.7,3006.455,765.64Zm-88.833-.207.061.008c0,.014,0,.028,0,.042Zm0,0,.04-.005.02.012Zm35.433-.641a4.569,4.569,0,0,1,.835-.549l.691.438-1.263.528C2953.22,765.065,2952.974,764.878,2953.055,764.791Zm149,.178c-.038,0-.076,0-.11,0l.34-.242c-.007.106.027.188-.03.228a.231.231,0,0,1-.113.018Zm-144.9-.146c.06-.141.058-.368.2-.4a2.822,2.822,0,0,1,.787.064c-.058.14-.057.369-.191.4a.7.7,0,0,1-.15.014C2957.6,764.9,2957.367,764.845,2957.156,764.823Zm25.5.01c.062-.122.124-.245.187-.367l.377.046a2.134,2.134,0,0,1-.2.362s-.008,0-.018,0C2982.943,764.877,2982.764,764.846,2982.657,764.834Zm216.242-.381.336.008-.165.161Zm-207.515-.135c-.229-.143-.2-.42-.371-.845a6,6,0,0,1,1.259.461c.192.159.152.41.215.62A4.141,4.141,0,0,1,2991.383,764.319Zm10.882-.414c.174-.291.2-.686.552-.85a10.3,10.3,0,0,1,2.408-.754c.834-.153,1.183.088,3.039,1.881C3005.825,763.64,3004.1,762.175,3002.265,763.9Zm126.3-.059.243.157-.374.058Zm-47.412-.052.332-.085c.083.043.228.085.253.143s-.1.117-.156.177Zm-104.813-.155c.238-.074.474-.154.723-.215.023-.005.138.114.21.175-.24.076-.476.156-.726.218h0A1.553,1.553,0,0,1,2976.344,763.639Zm-48.232-.174.366-.015c.038.064.13.14.1.189s-.186.084-.288.124C2928.23,763.665,2928.173,763.566,2928.113,763.465Zm-42.48-.335a17.456,17.456,0,0,1-5.415-.686,9.2,9.2,0,0,0-2.768-.15c-2.361.019-4.72.1-7.082.112-1.38.009-2.762-.05-4.347-.083,0-.56,0-.984,0-1.4a.157.157,0,0,0-.022,0c-.048-.013-.094-.029-.141-.044h.162v.041l8.026-1.184c.182-.633-.459-.742-1.079-.742-1.263,0-2.529.056-3.791.109-3.636.154-7.277.291-10.906.49a28.058,28.058,0,0,0-5.106.524,25.322,25.322,0,0,1-9.219.515,29.662,29.662,0,0,1,7.583-1.287,24.507,24.507,0,0,0,3.7-.405,21.041,21.041,0,0,1,4.633-.436c.412.005.838-.357,1.835-.817a60.506,60.506,0,0,0-7.963.286,49.494,49.494,0,0,1-8.814.2c1.1-1.111,3.023-.784,4.231-1.251l-1.91-.84c1.925-1.04,4.389-.709,6.313-1.258a3,3,0,0,1,1.6.472,6.378,6.378,0,0,1,1.176,1.237c2.489,0,5,.012,7.506-.005a3,3,0,0,0,.817-.25c.025-.085.126-.207.064-.247-.3-.2-.652-.374-1.245-.7l3.485-1.043c-.38-.207-.675-.507-.988-.514-1.567-.032-3.141-.006-4.71.037a20.8,20.8,0,0,0-3.292.207,7.114,7.114,0,0,1-5.444-.966c1.593-.452,3.681-.272,5.138-1.195a15.681,15.681,0,0,0-9.971.26,16.089,16.089,0,0,1-4.47.8,27.8,27.8,0,0,0-8.106,1.336,16.376,16.376,0,0,1-3.236.409c.005-.895,1.272-.789,1.964-1.029.8-.277,1.744-.418,2.614-.633s1.743-.426,2.582-.676,1.672-.512,2.439-.823,1.445-.69,2.12-1.018c.17-.715.329-1.386.517-2.173l-23.047,3.346-.9-1.133-4.046.017,4.918-1.559-2.368-2.578c-1.382.249-2.795.4-4.045.747a95.762,95.762,0,0,1-15.163,2.985c-2.329.255-4.593.691-6.9,1.017a4.084,4.084,0,0,1-2.9-.18c1.187-.464,2.287-.937,3.46-1.343,1.729-.6,3.818-.845,5.1-1.9a5.479,5.479,0,0,1,2.171-.246c3.132-.049,4.162-.417,4.927-2.2-.08-.051-.158-.1-.237-.157l-6.726,1.435a7.609,7.609,0,0,0-2.452-.936c-.794.231-1.554.516-2.329.785-1.075.374-2.007.894-3.121,1.216-1.391.4-2.9.673-4.088.939l-2.774-1.614c1.428-.311,2.847-.935,4.019-.81a7.056,7.056,0,0,0,3.567-.481l-1.49-.808-6.434.923a16,16,0,0,0-3.512-.619,17.9,17.9,0,0,0-3.775.921c-1.289-.773-2.132-1.963-4.582-1.463-1.021.209-.959.638-.956,1.341-1.172-.582-1.994-1.065-2.947-1.442a2.867,2.867,0,0,0-2.6.113,4.142,4.142,0,0,1-3.22.486,10.679,10.679,0,0,0-1.383-.1c-1.376-1.109-3.412-.82-5.253-.725-2.009.1-3.992.378-6.212.6l-1.713-1-3.051.806-3.475-.7a6.811,6.811,0,0,0-1.2.257,5.113,5.113,0,0,1-3.806.177,10.885,10.885,0,0,1-1.114-.29c-1.411-.657-2.509-.111-3.748.357a10.289,10.289,0,0,0-7.272-.248,3.967,3.967,0,0,1-1.936.13c-2.453-.835-5-.457-7.547-.344a5.587,5.587,0,0,1-1.583-.07,13.243,13.243,0,0,0-5.6-.017,5.3,5.3,0,0,1-1.571.163,12.61,12.61,0,0,0-5.459-.142,9.439,9.439,0,0,1-2.381.052,9.464,9.464,0,0,0-2.85.12,2.936,2.936,0,0,1-1.206-.03c-3.064-.726-6.183-.3-9.287-.173-.4.017-.966.183-1.183.085a8.465,8.465,0,0,0-4.282-.378,16.014,16.014,0,0,1-2.382.074,29.289,29.289,0,0,0-3.975.088c-.959.064-1.92.128-2.874.126-2.427-.006-4.853-.185-7.279-.288a6.7,6.7,0,0,0-1.589-.042,22.517,22.517,0,0,1-6.006.129c-6.26-.179-12.543-.127-18.817-.122a3.983,3.983,0,0,0-1.784.48,8.292,8.292,0,0,1-4.51.826c-1.362-.039-2.733.008-4.1.033a4.5,4.5,0,0,1-3.173-.77c-.656-.55-1.125-.422-1.859.264-.189.178-.48.48-.676.469-1.592-.1-1.91.719-2.553,1.285a4.072,4.072,0,0,0-3.771-.425,12.976,12.976,0,0,1-4.526.847c-.842-.64.85-.423.661-.89l-6.056.234c.326.3.515.47.7.641-5.278.567-5.278.567-8.263-.639-2.114,1.37-2.114,1.372-5.091,1.219a4.494,4.494,0,0,0-.8-.081,33.123,33.123,0,0,1-6.59.155,32.082,32.082,0,0,0-6.784.189,2.311,2.311,0,0,1-.408.016,65.853,65.853,0,0,0-7.749,0c-2.571.3-5.134.371-7.7.53-.173.01-.349.009-.523.009a6.063,6.063,0,0,0-.7.027,50.554,50.554,0,0,1-10.9.057,47.843,47.843,0,0,0-7.7.419c-.707.052-1.286.293-1.244.772.039.462.626.684,1.324.757,1.605.169,3.227.288,4.837.444.676.066,1.359.163,1.324.838-.894.035-1.818.146-2.709.093q-7.743-.464-15.474-1c-3.8-.256-7.612-.473-11.382-.831a40.91,40.91,0,0,1-5.431-.984c-.329-.077-.651-.162-.969-.251a1.585,1.585,0,0,1-.326,1.491l.021,0-.043.03c.008-.011.014-.023.023-.033-1.885-.277-1.886-.281-1.883-1.43-.616-.233-.893.034-1.268.249-1.45.834-1.765.8-2.782-.259-.185-.191-.384-.378-.544-.535a6.737,6.737,0,0,0-.874-.085c-3.325.141-2.99.413-4.685-1.733a24.228,24.228,0,0,1-4.83-.3,22.346,22.346,0,0,0-7.066-.05,31.318,31.318,0,0,1-9.413.263l4.6-.691a39.415,39.415,0,0,0-8.118-.592c-1.019.04-1.991.372-3.009.515-1.44.2-2.88.371-3.914-.533a4.028,4.028,0,0,0-2.461-.612c-.67-.02-1.347-.011-2.022,0a16.971,16.971,0,0,1-5.777-.592,5.826,5.826,0,0,0-1.944.068c-1.567.156-3.124.343-4.84.536-2.387-1.74-5.664-1.278-8.777-1.069-3.014.2-6,.544-9.055.83-.2-.983,1.99-.605,2.12-1.277-1.3,0-2.611.07-3.9-.009-1.179-.073-2.314-.361-3.493-.455a98.078,98.078,0,0,0-13.517-.052c-.264.016-.524.05-.783.084a72.222,72.222,0,0,1-14.374.268c-.181-.373-.378-.784-.619-1.283a13.534,13.534,0,0,0-5.7.514,23.4,23.4,0,0,1-12.118.945c-2.161-.325-4.511-.125-6.533-.8a2.119,2.119,0,0,0-.784-.018c-4.8.543-9.5.037-14.229-.356a32.6,32.6,0,0,1-5.073-.372,8.049,8.049,0,0,0-2.35.039,32.461,32.461,0,0,1-8.261-.146c-3.308-.526-6.76-.757-10.147-1.127a5.652,5.652,0,0,1-.925-.321l1.985-.619a23.808,23.808,0,0,0-6.546-.337c-.655.054-1.289.19-1.945.241-.886.068-1.875.282-2.508-.3-.355-.33.354-.71,1.8-.953.892-.151,1.805-.26,2.7-.413.469-.081.906-.218,1.713-.419a42.437,42.437,0,0,0-9.145.788,7.52,7.52,0,0,0-1.513.837l2.167,1.237-3.349.6,3.755.546-.012.274q-3.443.327-6.887.655-3.336.315-6.67.626a3.3,3.3,0,0,0-.953-.339,3.4,3.4,0,0,0-.98.249,3.758,3.758,0,0,0,.787.342,2.944,2.944,0,0,0,.767-.063c.449.484.95.963.631,1.546a.846.846,0,0,1,.315.063c.761.573,1.505,1.153,2.433,1.871a20.458,20.458,0,0,1-2.334.514c-4.423.424-8.869.775-13.284,1.223a84.445,84.445,0,0,1-9.45.491,3.863,3.863,0,0,0-.4.006c-2.838.268-5.67.546-8.509.8a8.213,8.213,0,0,0-4.556,1.6c-2.93-.5-5.687-.979-8.463-1.423a3.166,3.166,0,0,1-2.041-.937,28.708,28.708,0,0,0,3.052.294,2.818,2.818,0,0,0,1.621-.512,29.115,29.115,0,0,0,2.277-2.812c.071-.1-.1-.3-.263-.386a1.326,1.326,0,0,0-.712-.1,3.008,3.008,0,0,0-1.238.492,7.41,7.41,0,0,1-3.986,2.084c-1.461-1.136-2.112-1.377-3.35-.843-2.42,1.046-5.331,1.216-8.054,1.734a6.75,6.75,0,0,1-3.7-1.63c-1.753-1.48-4.089-2.039-7.123-1.98a38.288,38.288,0,0,1-3.917-.35l1.677-1.05c-.441-.446-1.154-.25-1.754-.214-3.954.238-7.9.549-11.856.727a80.741,80.741,0,0,1-11.43-.732c-2.994-.288-5.917-.661-9.027-.694a76.235,76.235,0,0,1-9.743-1.061,18.148,18.148,0,0,1-3.533-1.013c-1.689-.6-3.316-1.253-4.948-1.9-1.692-.672-2.9-1.519-3.177-2.748a20.4,20.4,0,0,0-.892-2.671c-.331-.874-.562-.945-2.972-1.049-.839.863-.176,2.127-2.172,2.728a15.894,15.894,0,0,1,1.265,1.47c.112.165-.022.479-.249.6a1.9,1.9,0,0,1-1.057.077,5.772,5.772,0,0,1-3.057-2.021c-.465-.608-.621-1.342-2.069-1.7l-2.7.6a2.613,2.613,0,0,1-2.007-2.385c-1.064,0-1.087.448-1.347.757a10.671,10.671,0,0,0-.677,1.054c-.733-.566-1.25-.963-1.767-1.36a2.888,2.888,0,0,0-.733-.121c-3,.35-2.994.352-4.322-1.075-.353-.38-.768-.741-1.284-1.235-1.215.555-2.224,1.016-3.23,1.477-1.209-.812-1.363-1.525-.091-1.772a2.765,2.765,0,0,0,2.517-2.014c2.575-.427,3.133-.632,3.954-1.411.525-.5.271-.879-.85-1.247-.32-.1-.669-.18-1.137-.3l1.772-2.285a7.445,7.445,0,0,1-1.2-2.339,1.953,1.953,0,0,1,1.006-2.15l1.589.755c1.8-1.411,4.04-2.62,4.493-4.448.087-.349.549-.679.9-.993.632-.561,1.315-1.1,2.184-1.827,1.465-.308,3.771.182,5.162-.9-.917-.507-1.014-.726-.372-.983,1.076-.43,2.183-.835,3.19-1.218.156-.623-.617-.718-1.174-.85-.955-.226-1.923-40.435-2.892-40.641h274.305l-.151.218a1.971,1.971,0,0,0,.6.068.427.427,0,0,0,.291-.287h1674.91c.035.174.141,40.364.246,40.514.229.321-1.636.646-2.176.821-2.078.676-1.9,1.569-.868,2.561a1.486,1.486,0,0,1,.066,2.233,4.7,4.7,0,0,1-4.748,1.99,9.882,9.882,0,0,1-1.449,1.653,13.255,13.255,0,0,1-2.109,1.054c2.4,1.485,2.646,1.8,1.635,3.513-1.257,2.13-2.526,4.281-5.427,5.931.665-.911,1.4-1.82.266-2.939-1.39.671-2.647,1.237-3.814,1.858-.71.379-.217,1.223.78,1.266a22.971,22.971,0,0,0,2.764-.195c-.353.736-.707,1.472-1.109,2.31,1,.191,1.875.358,2.75.526.3.593-.02,1.08-.869,1.424a25.542,25.542,0,0,1-3.075,1.112,8.1,8.1,0,0,0-4.136,2.157c-.6.684-1.343,1.326-1.946,1.914.544.8,1.487.739,2.469.7,3.4-.141,6.8-.281,10.208-.37a22.643,22.643,0,0,1,2.832.342c-4.172,1.585-8.621.311-12.581,1.411a5.255,5.255,0,0,0,1.273.875,12.162,12.162,0,0,0,5.146.428c2.423-.233,4.87-.383,7.312-.545a15.729,15.729,0,0,1,1.631.067c-3.6,3.085-7.812,4.481-13.6,4.38a61.073,61.073,0,0,0-9.222.819,14.447,14.447,0,0,0-3.433,1.215,14.894,14.894,0,0,1-5.507,1.418,14.9,14.9,0,0,0-2.667.523c-.507.108-1.032.2-1.5.354a4.01,4.01,0,0,1-2.117-.054,3.922,3.922,0,0,0-2.013-.071,9.591,9.591,0,0,1-3.733.635l-.924-.824a12.826,12.826,0,0,0-5.06.893l1.779.576c-1.25.031-2.177.055-3.1.077-4.511.1-8.981.336-13.419.879a235.949,235.949,0,0,1-23.582,1.61c-6.955.15-13.908.45-20.838.831a19.611,19.611,0,0,1-7.441-.673c-.675-.227-1.444-.361-2.411-.595-.051.519-.093.952-.147,1.495-.746.063-1.526.157-2.313.187-1.619.06-3.243.086-4.937.127.144-.376.22-.574.276-.721l-4.965-.612-.061.014c-.545.02-1.089.053-1.635.057-1.436.012-2.65.177-3.422,1a2.349,2.349,0,0,1-2.463.366c-1.739-1.149-4.057-1.089-6.14-1.2-1.555-.589-1.5-1.795-3.21-2.17-.068-.014,0-.264.04-.4a5.115,5.115,0,0,1,.243-.569,35.97,35.97,0,0,0-10.348,1.551c-.016.617.591.892,1.236.9.49.008.982-.019,1.473-.044a10.858,10.858,0,0,1,2.918.109c.211.044.723-.375,1.1-.573a2.035,2.035,0,0,1,1.837-.074,1.206,1.206,0,0,1,.6.8c.1.446-.379.76-1.109.853-1.324.169-2.67.279-4.007.414l.058.031-.09.021c.008-.012.015-.026.024-.039a11.038,11.038,0,0,0-3.924-.228c-2.217.113-2.425-.044-2.765-1.591-.016-.068-.141-.127-.241-.214a8.883,8.883,0,0,0-3.548.212c-1.122.274-1.22.54-.471,1.452-2.24,1.182-2.24,1.182-7.25,1.082.222-.214.353-.485.547-.5a2.756,2.756,0,0,0,2.6-1.71,10.287,10.287,0,0,0-1.849-.152c-1.065.108-2.093.336-3.237.531a5.845,5.845,0,0,0-.2.628c-.236,1.149-.385,1.268-1.963,1.442-.4.044-.814.064-1.223.071s-.811-.016-1.214-.025c-.084-1.432-.084-1.432.857-1.948-2.729-.406-3.093-.421-4.67.293a6.356,6.356,0,0,1-2.811.86c-.491,0-.986-.053-2.3-.13l2.8-.714c-.148-.149-.272-.361-.371-.358-2.943.107-5.993-.122-8.68.839a25.229,25.229,0,0,0-4.479.416,26.522,26.522,0,0,1-4.25.419,3.075,3.075,0,0,1-1.441-.313,4.928,4.928,0,0,0-3.359-.517c-1.084.084-2.172.155-3.246.272a10.552,10.552,0,0,1-4-.111,11.122,11.122,0,0,0-2.805-.2c-3.4.048-6.79.159-10.185.215-3.827.062-7.655.094-11.484.131a4.691,4.691,0,0,1-1.212-.082,20.732,20.732,0,0,0-6.055-.479c-.672.011-1.346.024-2.015.016-2.039-.027-4.079-.083-6.111-.179a14.343,14.343,0,0,0-4.789.419c-.6.177-1.237.309-2.039.506l-1.447-1.184c-.557.013-1.22.007-1.872.05-1.819.12-3.71.7-5.328-.306a21.112,21.112,0,0,1-3.364,0,23,23,0,0,0-3.068-.028c-.792.063-1.6.091-2.446.138-.167-.463-.3-.821-.455-1.257-1.228.1-2.438.172-3.637.29a10.043,10.043,0,0,1-4.384-.048,17.418,17.418,0,0,1-3.6.005,14.626,14.626,0,0,0-4.4.15,7.448,7.448,0,0,1-2.729-.227,21.989,21.989,0,0,0-5.649-.377,71.591,71.591,0,0,1-10.626-.142,28.351,28.351,0,0,0-6.521,0,17.448,17.448,0,0,1-2.847.072,1.478,1.478,0,0,1-1.347-.742,22.392,22.392,0,0,1-3.087-.338,5.11,5.11,0,0,0-2.3-.145,4.735,4.735,0,0,1-3.609-.693c-1.227-1.011-2.645-1.162-4.538-.843a6.268,6.268,0,0,1-1.542-.173c-.673.643-1.285,1.228-1.906,1.82-1.964.2-3.469.07-4.715-.931a12.952,12.952,0,0,0-2.978-1.182c-.567.013-1.108.03-1.651.04-4.932.09-4.932.09-8.394,1.075-1.331-.548.625-.89.176-1.506-2.572.073-5.252-.129-7.856.485l-1.552-.958-1.922,1.637a8.3,8.3,0,0,0-4.28-1.582c-1.656-.056-3.338.135-5.105.222.355.427.683.824,1.047,1.264a7.437,7.437,0,0,1-1.093.716,1.369,1.369,0,0,1-1.673-.214,10.807,10.807,0,0,1-.6-1.352,8.933,8.933,0,0,0-4.976-.4,6.589,6.589,0,0,1-4.22-.277,5.016,5.016,0,0,0-1.333.089,21.454,21.454,0,0,1,.429,2.27c.013.147-.447.413-.735.435a2.462,2.462,0,0,1-1.058-.258c-.161-.071-.143-.271-.22-.41-.895-1.6-1.806-2-4.583-1.919-2.411.073-4.834.146-7.213.361a21.621,21.621,0,0,0-3.369.83l-3.638-.781c-1.949.593-3.317-.108-4.857-.619-2,.242-4.072.507-6.169.748-.057,1.035-.9,1.958-1.265,3.059a24.152,24.152,0,0,1-3.012.056c-2.351-.239-4.671-.58-7-.895-1.156-.156-2.318-.311-3.442-.528-1.091-.21-2.136-.5-3.681-.864-1.435.089-2.846,1.25-5.034.958a.923.923,0,0,1-.023-.388c.326-.881.063-1.254-1.086-1.3-.915-.035-1.841.044-2.763.07-.656.019-1.313.034-1.89.05-1.146-.6.214-1.168-.135-1.718a2.409,2.409,0,0,0-.684-.086,8.442,8.442,0,0,1-4.786.693c-1.79-.115-3.646-.574-5.405.081-.064.152-.231.312-.164.429.322.561.273,1.039-.7,1.382a4.5,4.5,0,0,1-3.008.132c-.9-.3-1.754-.642-2.6-.957l.075-.663c-.242-.051-.486-.1-.73-.149a32.7,32.7,0,0,0-15.715.969c-1.307.366-2.673.67-4.043.955a5.263,5.263,0,0,1-3.385-.214,7.766,7.766,0,0,0-4.545-.317,113.592,113.592,0,0,1-12.12.752,6.888,6.888,0,0,0-1.573.061c-1.931.443-3.828.936-5.945,1.462l4.4.733c-3.488.619-5.157.687-7.518-.1a5.476,5.476,0,0,0-4.65.389,17.807,17.807,0,0,0-2.13,1.529c-.492-.2-1.236-.35-1.377-.6a10.384,10.384,0,0,1-.674-2.215l3.419.988c-.328-.629-.441-.891-.6-1.142a8.618,8.618,0,0,0-.56-.686l-2.206.057c-1.538-.508-1.749-1.791-4-2-.258.278-.681.569-.8.9-.44,1.181-1.8,1.576-3.755,1.6-2.657.039-5.311.146-7.969.189-2.105.035-4.213.021-6.469.028-.217-.53-.406-.99-.614-1.5-1.83.29-2.141,1.53-3.956,1.614-1.58.073-3.145.238-4.723.315s-3.174.1-4.761.148c-.929.03-1.867.035-2.781.122a36.086,36.086,0,0,1-9.694-.419,9.291,9.291,0,0,0-2.7.07,20.614,20.614,0,0,1-7.8.044,11.434,11.434,0,0,0-3.515.049,27.1,27.1,0,0,1-6.33-.01,44.947,44.947,0,0,0-7.937-.163c-1.434.082-2.9,0-4.345,0a18.547,18.547,0,0,0-2.356.035,54.919,54.919,0,0,1-10.3.127c-.9-.051-1.81-.04-2.72-.03-.411,0-.822.008-1.23.008q-4.768-.011-9.537-.019a21.174,21.174,0,0,0-3.518.062,36.126,36.126,0,0,1-10.649-.007,22.869,22.869,0,0,0-5.885-.006,17.491,17.491,0,0,1-6.626-.272l.073-.6a11.565,11.565,0,0,0-4.952.541,36.4,36.4,0,0,1-8.123,1.024c-.633.006-1.269-.092-2.123-.158.184-.5.328-.887.472-1.28a2.887,2.887,0,0,0-.8-.029c-.533.216-.977.5-1.509.72a7.653,7.653,0,0,1-2.012.684,32.98,32.98,0,0,1-7.94.132c-.116-.576-.215-1.079-.318-1.589a2.836,2.836,0,0,0-.793.107c-1,1.051-2.611,1.474-4.624,1.447-3.437-.047-6.872-.124-10.307-.175a40.075,40.075,0,0,0-4.334.015,41.909,41.909,0,0,1-9.1-.157,17.094,17.094,0,0,0-6.225.113,7.371,7.371,0,0,1-1.946-.2c.195-.947,2.6-1.121,1.907-2.151-2.978-.405-2.978-.405-4.851,1.353-2.525-1.537-4.754-.158-7.289.329l-1.848-1.129c-2.688-.235-5.479-.191-8.071-.95a5.238,5.238,0,0,0-4.271.688c-.847.526-1.163,1.382-2.649,1.583-.963-.749,1.156-1.266-.185-2.169a10.438,10.438,0,0,0-6.56.779l-3.573-.926a5.583,5.583,0,0,1-3.61,1.159c-1.316.087-2.656.063-3.97.154-1.152.081-2.286.253-3.636.41.114-.327.109-.545.265-.713.306-.329.869-.666.285-1.01-.618-.365-1.195-.05-1.724.186-.612.272-1.241.531-1.961.838l-2.871-.846.048.03-.092.005.035-.028-1.926-.756a6.519,6.519,0,0,1,3.971-.768,9.35,9.35,0,0,0,3.061-.293c-1.151-.641-2.75-.573-4.214-1.005-.719.49-1.547.935-2.165,1.462a5.87,5.87,0,0,1-2.809,1.391c-.3.06-.568.174-.871.217-1.671.24-1.534,1.541-3.383,1.766a37.456,37.456,0,0,0-4.3.985c0,.005,0,.011,0,.018l-.064,0,.063-.036c-.849.191-.8.382-.063.572v1.945a1.029,1.029,0,0,1-.149.091.747.747,0,0,1-.334.092c-4.1-.08-8.191-.182-12.285-.28a14.715,14.715,0,0,0-1.878-.042c-7.887.863-9.076.857-16.067-.1-1.23-.168-2.487-.272-3.954-.429l-3.036,1.207a9.185,9.185,0,0,0-2.419-1.23,14.976,14.976,0,0,0-2.946-.167c-.276,0-.551,0-.821,0-1.642-.01-3.284-.009-4.927-.008-3.114,0-6.227.006-9.335-.071-4.121-.1-8.214-.037-12.329.065a39.344,39.344,0,0,1-7.532-.465,51.488,51.488,0,0,0-12.722-.375,59.25,59.25,0,0,1-8.051.046c-2.52-.154-5.064-.177-7.6-.264-2.511-.086-5.022-.169-7.532-.268a4.547,4.547,0,0,1-3.246.717c.07-.224.052-.361.127-.382.482-.13.969-.259,1.508-.4a9.579,9.579,0,0,0-4.183.378v1.35a2.438,2.438,0,0,1-2.072-.64l-.421.258c-.507-.387-.943-.772-1.464-1.11l-8.633-.56-.265.356,3.254,1.064a5.36,5.36,0,0,1-1.4.372c-3.655-1.011-7.392-.355-11.1-.227-2.206.077-4.421.087-6.62.2-2.938.156-5.864.387-9.105.606l3.716,1.556c-2.492.162-4.3.333-6.123.384-.947.026-1.9.009-2.845-.006s-1.9-.032-2.844-.006a48.885,48.885,0,0,0-5.155.362,11.291,11.291,0,0,1-2.181,0,9.864,9.864,0,0,0-3.651.26c3.186,1.627,7.19.724,10.531,1.854a9.051,9.051,0,0,1-1.652.312c-4.022-.242-8.265.064-11.563-1.841a10.582,10.582,0,0,0-3.6-.544q-5.659-.4-11.341-.686c-1.892-.1-3.8-.064-5.7-.14-2.682-.109-5.371-.21-8.032-.413s-5.326-.479-7.954-.812a15.242,15.242,0,0,0-6.895.307,10.222,10.222,0,0,1-3.687.111,23.6,23.6,0,0,1-3.055-.6,2.765,2.765,0,0,1-.54.56,2.8,2.8,0,0,1-.7-.108,3.527,3.527,0,0,1,.415-.615.892.892,0,0,1,.259.032l-.323-.071.012.012c-2.664-.628-5.3-1.275-6.2-3.061-2.6-1.249-4.591-3-8.538-3.081-2.843-.056-5.676-.25-8.518-.351-1.238-.044-2.486-.007-3.8-.007.331-.93,1.545-.814,2.313-.8a64.922,64.922,0,0,0,7.966-.6,27.621,27.621,0,0,1,6.108-.069c3.263.394,6.136-.458,9.242-.47-.386-.081-.771-.143-1.156-.191a33.1,33.1,0,0,1-6.684,0c-.638.024-1.277.038-1.914.028-2.983-.049-5.97-.072-9.022-.387l-1.46.018a30.754,30.754,0,0,0-4.375.707,5.714,5.714,0,0,0-.855-.387,4.313,4.313,0,0,1-1.72.336,17.619,17.619,0,0,1-2.833,0c-.785-.082-1.575-.133-2.369-.168a14.632,14.632,0,0,1-4.8-.08,44.534,44.534,0,0,1-6.36-.392s0-.006,0-.009c-.272.028-.542.057-.81.082-1.554.519.038,1.932-2.417,2.273-.245-.209-.576-.466-.862-.738a5.3,5.3,0,0,0-5.375-1.44,14.55,14.55,0,0,1-6.434.05,3.668,3.668,0,0,0-1.8.068c-1.681.908-3.48.608-5.347.34a4.659,4.659,0,0,0-1.834-.012,10.22,10.22,0,0,1-3.885.392c-.563-.014-1.125-.029-1.682-.005-4.408.187-8.827.339-13.211.649-1.448.1-2.757.745-4.211.958-1.345.2-2.831.07-4.194.243a11.165,11.165,0,0,0-2.245.705l-7.241-1.416-4.188,1.584c-.837-.3-1.621-.566-2.378-.854a5.673,5.673,0,0,0-4.39.043l-3.621,1.536c-1.936-.009-3.071-1.329-5.4-.564-.174.895-.377,1.934-.583,2.991l-3.453.89c-1.073,1.325.2,2.263,1.669,3.084-2.108.979-2.108.979-4.955.555-.067-.742.161-1.583-.291-2.279a12.29,12.29,0,0,0-2.635-2.054c2.705-.662,5.464-.469,8.2-.942-.081-.74-.154-1.406-.237-2.167-1.739.151-2.952,1.014-4.645.4a4.053,4.053,0,0,0-2.271.107c-1.992,1.013-5,.495-6.893,1.574a1.691,1.691,0,0,1-.847.2,33.183,33.183,0,0,0-5.12-.185,25.507,25.507,0,0,1-4.543-.609c-2.781,2.214-2.781,2.214.416,4.289l2.245-.767-.064-.026.071-.023c0,.014.008.029.011.042l-.019.006c2.331.951,2.329.971,1.112,2.664.117,0,.236,0,.355,0a6.058,6.058,0,0,0,.959-.043c2.385-.386,3.209-1.078,2.676-2.345a8.726,8.726,0,0,0-1.22-1.576,32.45,32.45,0,0,1,5.583-1.013,10.135,10.135,0,0,0,.292,2.154,8.787,8.787,0,0,0,1.08,1.681l2.968-.578c1.207.722-.3,1.02-.348,1.495l-4.294,1.558a9.586,9.586,0,0,0-1.278-.782c-.916-.4-2.182-.181-2.1.4.125.917-.234,1.509-1.734,1.946a2.342,2.342,0,0,0-1.2,1.04c-.814,1.2-.779,1.219-2.941,1.091a11.2,11.2,0,0,1-1.284-.2l0,.006a8.12,8.12,0,0,1-3.963.683,2.2,2.2,0,0,0-2.1.834c-1.2-.066-2.207-.233-1.887-1.127.119-.333.22-.667.386-1.173l-2.894-.051-.454,1.436c-1.709-.027-2.383-1.615-4.681-.867l1.569,1.319a13.991,13.991,0,0,1-1.5.506c-2.306.52-2.915-.6-3.962-1.518l-4.969.114c-.69.881.1,1.976-1.724,2.393l-3.341-1.5c-.768.084-1.379.237-1.66.731a7.2,7.2,0,0,1-1.033,1.137,12.5,12.5,0,0,0-3.1-.244,12.3,12.3,0,0,1-5.812-.4l-2.2,1.21C2890.6,763.391,2888.119,763.247,2885.632,763.13Zm10.464-2.554a.284.284,0,0,0,0,.263,1.029,1.029,0,0,0,1.272.539c.2-.035.218-.425.279-.656.022-.079-.08-.169-.189-.373a5.518,5.518,0,0,0-.973-.2h0C2896.378,760.15,2896.2,760.421,2896.1,760.576Zm-5.858-.138c-.252.066-.5.446-.386.584a1.577,1.577,0,0,0,1.019.33c.269-.029.436-.361,1.015-.9-.505-.012-.9-.056-1.221-.056A1.707,1.707,0,0,0,2890.238,760.438Zm-4.863.461.394.005-.392-.219Zm51.084-.923,1.885-.754h-.122C2936.831,759.222,2936.7,759.639,2936.458,759.977Zm-4.172-.432a6.136,6.136,0,0,0,.877-.028c.1-.012.1-.276.167-.517a8.359,8.359,0,0,0-1.244.1c-.128.03-.094.29-.135.445h.064Zm-54.812-.245a.849.849,0,0,0,.368.052,2.054,2.054,0,0,0,.211-.371l-.748-.058A1.211,1.211,0,0,0,2877.475,759.3Zm32.44-1.643c1.339.353.31,1.217,1.836,1.508.963-.333,1.854-.72,1.3-1.442a1.364,1.364,0,0,0-1.169-.474A6.448,6.448,0,0,0,2909.914,757.657Zm-21.422.747a1.185,1.185,0,0,0-.117.366l.76-.006a1.755,1.755,0,0,0-.278-.364.379.379,0,0,0-.159-.02A.538.538,0,0,0,2888.493,758.4Zm10.485.289a22.352,22.352,0,0,0,2.544-.421c.681-.193,1.828.025,2.1-.663C2900.387,757.656,2900.387,757.656,2898.978,758.692Zm25.665-1.813c-.042.048.518.268.8.409l.922-.692c-.385-.242-.57-.36-.756-.478A6.353,6.353,0,0,0,2924.643,756.879Zm-75.392.03a6.22,6.22,0,0,0,3.776-.343,4.561,4.561,0,0,0-1.562-.3A4.688,4.688,0,0,0,2849.251,756.909Zm89.356-1.471c-.193.306-.36.618-.537.926l2.216.29-1.445-1.393A.828.828,0,0,0,2938.607,755.438Zm-26.92-1.15a.577.577,0,0,0,.328.1,2.528,2.528,0,0,0,.441-.27l-.659-.184A.99.99,0,0,0,2911.688,754.287Zm-40.667-.344.333.081.229-.182Zm56.152-3.444c-3.392.266-6.777.56-10.164.849.2.31.289.7.675.89,1.019.5,2.184.907,3.328,1.367a6.175,6.175,0,0,1,3.328-1.271c1.509-.115,3.015-.472,3.593-1.424-.335-.188-.568-.41-.743-.41Zm-2.55,2.942a1.624,1.624,0,0,0,.412.049,3.066,3.066,0,0,0,.406-.406l-.437-.049Zm-22.149-1.145c4.2,1.125,4.387,1.152,6.129.985,1.115-.108,1.23-.465.4-1.4Zm184.633-.962,1.082,1.17,2.567-.724a4.87,4.87,0,0,0-2.291-.653A4.943,4.943,0,0,0,3087.106,751.334Zm-174.194.326c-.178.017-.3.238-.632.528a5.633,5.633,0,0,0,1.6.208c1.041-.282,1.988-.677,2.966-1.034C2915.536,751.454,2914.219,751.539,2912.912,751.66Zm1072.787-.6,1.594-.039c-.039-.1-.078-.2-.116-.3Zm27.939-.545a4.54,4.54,0,0,0-.666.12c.044.056.083.157.135.16.239.01.483-.006.724-.013-.065-.093-.144-.267-.193-.267Zm-31.171-7.131c-2.119,1.059-4.52,1.938-6.832,2.869-1.321.532-2.7,1.013-4.034,1.538-.147.058-.122.258-.193.426l1.975.237,2.426,2.179c1.42.059,2.886.452,4.092-.346h-.009l0,0-.349-.059h0l-.1-.008.1.008c-.2-.034-.145-.026,0,0h0l.4.031-.038.023a25.485,25.485,0,0,1,9.986-.31,4.578,4.578,0,0,0,3.55-.708,5.653,5.653,0,0,0-4.6-.46,16.377,16.377,0,0,1-5.994.42c-.494-.028-1.083-.113-.907-.555l4.081-.882c-.519-.057-.982-.153-.755-.559.139-.247.92-.394.346-.75a9.1,9.1,0,0,0-1.767-.08,7.243,7.243,0,0,1-2.52-.252c.987-.633,2.262-1.089,2.461-1.665.268-.781,2.333-.635,2.076-1.537a7.905,7.905,0,0,0-1.185-.1A4.7,4.7,0,0,0,3982.467,743.388Zm18.091,6.8c-.061.059-.032.147-.066.362a6,6,0,0,0,.7.036c.727-.1,1.2-.321,1.081-.791a.345.345,0,0,0-.244-.17,2.143,2.143,0,0,0-.35-.031A1.42,1.42,0,0,0,4000.557,750.188Zm-1128.787-.469c.066.072.143.207.2.2.25-.013.492-.065.738-.1l-.2-.216Zm-10.353-.244a1.276,1.276,0,0,0,.39.029,2.766,2.766,0,0,0,.445-.308l-.708-.094Zm930.526-1.3a.559.559,0,0,0-.388.29c-.044.117.024.247.061.373a2.964,2.964,0,0,0,.612-.167c.154-.079.328-.245.275-.328a.831.831,0,0,0-.512-.171Zm-702.962.414a1.966,1.966,0,0,0,.409-.045c.05-.017.008-.121.008-.186l-.4-.041C3088.992,748.408,3088.987,748.5,3088.982,748.59Zm-199.881-.156.348.07-.094-.189Zm1116.167-.35c-.05.049.022.2.06.2a1.762,1.762,0,0,0,.663-.01,6.11,6.11,0,0,0,.722-.737l-.622-.2C4005.813,747.585,4005.524,747.829,4005.268,748.084Zm-205.932-.325a5.709,5.709,0,0,0-.573.159l.383.295a2.431,2.431,0,0,0,.374-.294c.026-.031-.146-.161-.181-.161Zm-715.735.157a1.553,1.553,0,0,0,.131.194c.04.049.234.056.357.082l-.45-.347C3083.627,747.87,3083.613,747.892,3083.6,747.916Zm490.912-.32a3.38,3.38,0,0,0-.923.321,2.339,2.339,0,0,0,.7.22,6.6,6.6,0,0,0,.979-.252,2.363,2.363,0,0,0-.739-.289Zm-680.726-.27c-.209.018-.373.222-.556.346l.9.391.308-.469a2.041,2.041,0,0,0-.631-.269Zm901.1.534c-.006.035.239.125.263.114a4.069,4.069,0,0,0,.445-.259c-.18-.063-.359-.126-.542-.188A1.2,1.2,0,0,0,3794.889,747.86Zm-454.551-.275a5.688,5.688,0,0,0,.96.242c.136.011.322-.169.484-.262a4.829,4.829,0,0,0-.847-.286h-.017A2.5,2.5,0,0,0,3340.339,747.585Zm645.878.191,1.578-.039a2.262,2.262,0,0,0-.745-.13A2.169,2.169,0,0,0,3986.216,747.777Zm4.782-.993c-.234.005-.465,0-.686-.006a3.844,3.844,0,0,0-1.242.084,3.669,3.669,0,0,0-1.144.873h.01C3989.76,747.827,3989.76,747.827,3991,746.783Zm-909.649.182c-.241.054-.6.276-.549.359a.913.913,0,0,0,.386.382,1.4,1.4,0,0,1,.58-.319,11.037,11.037,0,0,1,1.184-.208,1.5,1.5,0,0,0-.947-.3A2.955,2.955,0,0,0,3081.35,746.966Zm690.075.137a1.078,1.078,0,0,0,.783.4c.252,0,.723-.265.718-.41s-.444-.313-.813-.544C3771.8,746.781,3771.379,746.968,3771.425,747.1Zm-867.6.117a8.632,8.632,0,0,0,1.191.09c.1,0,.168-.283.25-.437l-1.165-.193Zm440.842-.078.318-.01-.2-.146Zm-1055.966-.3c-.04,0-.069.1-.1.153.344.02.687.044,1.031.053.031,0,.071-.1.154-.215h-.484C2289.095,746.828,2288.9,746.829,2288.7,746.837Zm1297.748.072c.067.035.133.1.2.1a.647.647,0,0,0,.228-.087l-.219-.1Zm-678.295-.176a8.446,8.446,0,0,0,1.106.167c.029-.147.06-.293.106-.514l-1.166-.066C2908.182,746.464,2908.073,746.711,2908.156,746.734ZM4001.49,746.6a7.353,7.353,0,0,0,1.221.25c.2,0,.4-.166.606-.257-.231-.141-.452-.39-.691-.4h-.015A4.355,4.355,0,0,0,4001.49,746.6Zm-1081.62-.2.377.213c-.028-.153-.047-.26-.066-.366Zm704.65-1.122a5.681,5.681,0,0,0-1.437.239.612.612,0,0,0-.293.747c.2.382.945.431,1.549.112a5.293,5.293,0,0,0,.89-.711c.417-.269.878-.617.167-.855a.855.855,0,0,0-.271-.049C3624.77,744.767,3624.628,745.069,3624.52,745.285Zm-1336.631-.318a21.606,21.606,0,0,1-5.22.974c-1.41.125-2.8.347-4.191.524,4.287.18,8.566.363,12.409-1.2a3.053,3.053,0,0,0-1.718-.537A3.882,3.882,0,0,0,2287.889,744.967Zm1321.163.7c-.231.111-.241.37-.449.746,1.589.056,2.994.146,4.4.146,2.135,0,2.2-.087,3.133-1.437.271-.394.947-.694,1.266-1.082.267-.324.435-.734-.63-1.029a8.64,8.64,0,0,0-1.415.931c-1.163,1.177-2.884,1.675-5.218,1.572-.046,0-.093,0-.142,0A2.469,2.469,0,0,0,3609.052,745.662Zm-1310.982.49c.9.028,1.786.094,2.668.062.268-.009.509-.265.762-.42a13.527,13.527,0,0,0-2.094-.442c-.09-.006-.181-.01-.271-.01C2298.485,745.343,2297.893,745.525,2298.07,746.152Zm2.972-2.4c.2.775.359,1.4.518,2.031a6.425,6.425,0,0,0,2.856-.039,8.481,8.481,0,0,1,2-.176c.259-.615.466-1.109.673-1.6a5.221,5.221,0,0,0-1.063-.216c-.6-.008-1.2-.01-1.792-.01C2303.153,743.745,2302.082,743.754,2301.042,743.757ZM3347.6,745.289l-3.573,0A3.9,3.9,0,0,0,3347.6,745.289Zm-8.194-.841a2.151,2.151,0,0,0-.742.306c-.052.57.571.924,1.435.839a1.118,1.118,0,0,0,.758-.39c.158-.379-.517-.76-1.3-.76Q3339.479,744.443,3339.4,744.448Zm325.338.233c.052.435.716.738,1.961.752.271-.128.924-.295,1.142-.572.339-.431-.6-.957-1.609-.99h-.079C3665.372,743.869,3664.693,744.252,3664.743,744.68Zm-302.492.555a6,6,0,0,0,.621.058c.052,0,.172-.144.147-.158a4.112,4.112,0,0,0-.466-.2Zm-5.306-.584.291.089.028-.157Zm-5.4-.322a4.468,4.468,0,0,0-.536.162c.137.074.275.15.415.224.126-.093.254-.185.364-.284a.65.65,0,0,0-.235-.1Zm-869.075-5.713,3.637.609-1.829.714,2.791,1.284-4.818,1.4c1.857.506,3.294.836,4.622,1.274a13.135,13.135,0,0,0,5.382.471c1.819-.168,3.627-.366,5.44-.551.022-.071.043-.144.066-.215-.776-.036-1.559-.047-2.325-.116-1.673-.151-2.368-.545-2.448-1.468a12.178,12.178,0,0,1,.108-1.9l1.969-.425-1.795-1.535c-1.228.05-2.442.042-3.646.035-.44,0-.879-.006-1.317-.006A30.936,30.936,0,0,0,2482.465,738.616Zm1603.5,5.438c-.093,0-.178.167-.267.258a1.1,1.1,0,0,0,.336.051,4.686,4.686,0,0,0,.56-.187,3.043,3.043,0,0,0-.617-.121Zm-480.613-.146c-.116.036-.1.207-.182.4l3.787-.2a6.483,6.483,0,0,0-2.169-.434A4.645,4.645,0,0,0,3605.356,743.909Zm-977.974.007c-.073.078.113.235.184.358l.875-.261-.445-.28C2627.781,743.791,2627.474,743.82,2627.382,743.916Zm1368.4.211.233-.07-.241-.06Zm-659.6-.252.29-.05-.224-.082Zm-1038.373-.195c-.041.01-.024.094-.033.145a1.194,1.194,0,0,0,.291,0c.042-.01.024-.094.033-.145-.067,0-.14-.012-.2-.012A.35.35,0,0,0,2297.811,743.68Zm1323.019-.032.288.074-.044-.181Zm-710.191-.1a.586.586,0,0,0,.306.125,5.185,5.185,0,0,0,.638-.232c-.207-.08-.414-.159-.624-.238A2.411,2.411,0,0,0,2910.638,743.553Zm-117.964-.1.223.1.233-.09a.683.683,0,0,0-.227-.089A.721.721,0,0,0,2792.675,743.455Zm176.165-.268.47.27c.066-.068.2-.144.18-.2s-.182-.116-.283-.174Zm-51.433-.143a8.676,8.676,0,0,0,4.822-.195c-.972-.093-1.9-.335-2.745-.485a.7.7,0,0,1,.02-.4A5.049,5.049,0,0,0,2917.406,743.044Zm-455.429-1.933c-.456.444-2.031,0-1.962.832,4.866.917,7.417.97,9.7.174l-1.3-.8c.461-.067,1.06-.021,1.193-.654-3.472-.286-6.964-.427-10.482-.37-.33.005-.644.329-1.315.7,1.583-.043,2.613-.084,3.643-.091h0A1.54,1.54,0,0,1,2461.977,741.11Zm543.145,1.479,2.244-.282a5.971,5.971,0,0,0-1.147-.2C3005.862,742.105,3005.644,742.248,3005.121,742.59Zm-78.013-.017,5.143-.851a18.2,18.2,0,0,0-1.945-.367,3.894,3.894,0,0,1-.758.068.167.167,0,0,1-.094-.039A7.725,7.725,0,0,0,2927.108,742.573Zm92.216-1.2a14.168,14.168,0,0,0-1.94.357c.383.746,1.212.675,1.914.593a2.648,2.648,0,0,0,.9-.472c-.286-.166-.6-.478-.857-.478Zm46.958.478a3.966,3.966,0,0,0,2.994.192c-.486-.507-.715-.747-1.128-.747A6.782,6.782,0,0,0,3066.282,741.855Zm-32.8-.072,1.021.423.645-.439a6.531,6.531,0,0,0-1.094-.31h-.016C3033.89,741.456,3033.665,741.671,3033.479,741.783Zm672.186.306c.739-.043,1.531-.082,2.32-.139,1.731-.125,2.122-1.092,3.323-1.611a3.966,3.966,0,0,1-.184-1.79c-1.144.3-2.409.393-3.485.764.26.21.461.4.7.563.442.306.888.676.342,1a3.877,3.877,0,0,1-1.711.425c-.9.014-1.8-.051-2.639-.106Zm-625.164-.028a6.907,6.907,0,0,0,1.42-.766c-.728-.18-1.472-.313-2.219-.431q-.025.355-.05.712l.021,0A4.069,4.069,0,0,0,3080.5,742.061Zm-4.63-1.651a1.111,1.111,0,0,0-.627,1.117c.038.21.921.546,1.37.52a26.786,26.786,0,0,0,2.98-.462c-.419-.275-.617-.545-.462-.808-1.007-.15-2.012-.285-2.98-.478C3076.057,740.335,3075.962,740.368,3075.871,740.41Zm639.329.708c-.175.071-.2.262-.29.4a1.575,1.575,0,0,0,1.653.363c.167-.062.309-.276.252-.384a1.382,1.382,0,0,0-1.133-.46A1.3,1.3,0,0,0,3715.2,741.118Zm11.1.55c-.057.035-.022.12-.027.182l.329.057c.007-.1.015-.191.023-.288A1.139,1.139,0,0,0,3726.3,741.668Zm-678-2.69,2.292,2.886,3.28-.111-.975-2.208,0,0a17.687,17.687,0,0,0-3.7-.627A6.575,6.575,0,0,0,3048.3,738.978Zm-2.265,2.841c1.544-.364,1.679-.837,1.1-1.467C3046.058,740.684,3046.082,741.186,3046.036,741.819Zm676.13-.935c-.206.023-.515.408-.415.514a1.512,1.512,0,0,0,.951.271,4.727,4.727,0,0,0,2.579-.993C3724.24,740.737,3723.189,740.771,3722.166,740.884Zm-95.951.509c2.824.035,2.824.035,4.145-.722a7.01,7.01,0,0,0-.821-.049A8.5,8.5,0,0,0,3626.214,741.393Zm102.6-2.857-1.09.75c.335.3.709.594,1.024.911.384.387.719.789.993,1.093.417.049.551.081.683.077,1.644-.052,3.293-.009,3.642-1.33.157-.595,1.416-.7,2.331-.786,1.182-.106,2.4-.078,3.517-.1l.894-1.348,1.712.634c.9-.784,3.662-.246,3.581-1.863a21.142,21.142,0,0,0-5.733.191,2.372,2.372,0,0,1-2.109-.429c1.084-.724-1.681-.573-.728-1.349,1.778-.077,3.071-.635,3.424-1.766-1.4.158-2.8.348-4.208.462-1.268.1-2.57.325-3.494-.565-.323-.31-1.4-.366-2.128-.539h0l-3.552,1.664c1.021,1.012,1.859,2.063.389,3.213l-4.674-.152c1.821-.5,2.329-1.279,2.317-2.441-1.561.132-3.038.214-4.478.4-1.056.132-2.044.528-3.1.576-2.486.116-3.427.989-3.982,2.2,2.128.1,2.121.073,4.94-.757.77-.227,1.866.121,1.739.6a11.745,11.745,0,0,1-.931,1.968,7.9,7.9,0,0,0,1.015.1,9.511,9.511,0,0,0,4.69-1.263,3.4,3.4,0,0,1,1.711-.46A4.609,4.609,0,0,1,3728.81,738.536Zm-1418.15,2.723a4.339,4.339,0,0,0,2.729-.491c-.264,0-.49,0-.688,0A2.826,2.826,0,0,0,2310.66,741.258Zm137.537-.305a3.069,3.069,0,0,0,3.109-.288c.236-.146.412-.425.336-.605a1.128,1.128,0,0,0-.781-.431c-1.175-.1-2.4-.058-3.548-.2-1.474-.183-3.3-.088-3.841-1.258a1.354,1.354,0,0,0-.849-.381c-1.4-.16-2.827-.27-4.1-.386-2.011,1.193-2.012,1.252-4.169,1.244-2.643-.008-5.284-.129-7.926-.2-.621-.017-1.318-.189-1.888.4,1.226.207,2.093.914,3.554.633,2.61-.5,5,.068,7.345.522a23.979,23.979,0,0,0,5.054.461q2.187-.039,4.374-.059h.167A7.658,7.658,0,0,1,2448.2,740.953Zm923.479.047c.555.066.994.142,1.439.156.13,0,.278-.167.418-.257-.433-.108-.856-.231-1.3-.306h-.007C3372.143,740.593,3371.962,740.783,3371.676,741Zm-14.846.007c.092.043.23.134.269.122a2.67,2.67,0,0,0,.417-.2l-.374-.036Zm-414.749-.139,1.1.262c.2-.1.392-.166.381-.209a3.52,3.52,0,0,1-.079-.524C2943.017,740.531,2942.552,740.689,2942.081,740.868Zm420.353-1.518a1.48,1.48,0,0,0,.383,1.517l2.713-1.985C3364.488,739.02,3363.458,739.179,3362.434,739.351Zm-415.378,1.419c.318,0,.631.006.932.005.349-.564-.036-.843-.636-.881A1.881,1.881,0,0,0,2947.056,740.77Zm789.071-.243c-.03.006-.017.088-.023.134a1.678,1.678,0,0,0,.3-.005c.029-.006.016-.086.022-.131-.062,0-.126-.007-.188-.007A.581.581,0,0,0,3736.127,740.527Zm-775.013-.782c-.269.266-.248.457-.109.617,1.073-.035,2.1-.188,3.2-.269a2.97,2.97,0,0,0-1.2-.559h-.135A6.262,6.262,0,0,0,2961.114,739.745Zm753.369-.437a.474.474,0,0,0-.172.622,1.272,1.272,0,0,0,.84.394,4.614,4.614,0,0,0,1.846-.194,5.655,5.655,0,0,0,1.3-1.361,5.718,5.718,0,0,0-1.357-.176A4.836,4.836,0,0,0,3714.483,739.308Zm49.4.509c0,.053,0,.106,0,.159l3.847-.094c0-.054,0-.107-.006-.16Zm-779.44-1.369c-1.063.084-1.571.482-1.421,1.216l4.493.074c-1.057-1.019-1.523-1.317-2.491-1.317C2984.852,738.422,2984.66,738.432,2984.446,738.449Zm1103.517.963.01.135,1.277-.031c0-.046-.006-.09-.009-.135ZM3053.3,737.636a1.436,1.436,0,0,0-.356,1.875,8.976,8.976,0,0,0,1.418-1.26c.216-.294-.008-.62-.875-.62C3053.427,737.631,3053.365,737.633,3053.3,737.636Zm699.224.892a4.936,4.936,0,0,1,1.423.779c1.323-.31,2.415-.557,3.49-.823.483-.12,1.287-.245,1.345-.429.33-1.047,2.122-1.235,4.063-2.046-4.261.1-7.6.149-10.922.28-2.246.089-2.328.2-2.961,1.684l-2.94.443c1.968.733,3.245.194,4.523.173.491-.008,1.036-.11,1.5-.11A1.966,1.966,0,0,1,3752.523,738.527Zm-759.751-.194a5.189,5.189,0,0,0,.73.87,2.849,2.849,0,0,0,.809,0,4.38,4.38,0,0,0-.359-.885c-.008-.013-.058-.018-.14-.018C2993.616,738.3,2993.234,738.323,2992.772,738.333Zm20.148.889c.281,0,.565,0,.842-.019.029,0,.08-.209.026-.227-.236-.077-.506-.118-.763-.173C3012.988,738.942,3012.953,739.082,3012.92,739.222Zm-546.565-3.158a7.8,7.8,0,0,0-3.951,3.082,22.833,22.833,0,0,0,6.233-.384,26.592,26.592,0,0,0,6-2c-.1,0-.208,0-.311,0-2.7.072-5.3.023-6.918-1.533a4.4,4.4,0,0,0-1.207-.083C2466.256,735.5,2466.3,735.78,2466.354,736.063Zm561.908,1.889c-.289.085-.357.413-.521.634a4.3,4.3,0,0,0,1.239.209c.282-.043.425-.379.745-.7-.52-.06-.948-.169-1.25-.169A.756.756,0,0,0,3028.263,737.952Zm-632.616.267a44.275,44.275,0,0,0,9.78.518c5.167-.034,10.335-.03,15.5-.041a37.93,37.93,0,0,0-9.64-.858c-3.978-.043-7.957-.072-11.929-.181-6.084-.168-12.161-.4-18.243-.592-.471-.015-1.115,0-1.079.518a3.977,3.977,0,0,0,.963.222c1.959-.033,3.9.115,5.847.262a46.478,46.478,0,0,0,8.009.145c.141-.013.294-.025.443-.025A1.66,1.66,0,0,1,2395.647,738.219Zm56.286.067c4.365.288,4.365.288,5.866-.223a8.678,8.678,0,0,0-2.367-.33A13.377,13.377,0,0,0,2451.933,738.286Zm1320.517-.619a4.3,4.3,0,0,0-.774.324l.595.333a4.213,4.213,0,0,0,.634-.4,1.027,1.027,0,0,0-.444-.255Zm-5.814-1.222c-.2.511-.358.922-.638,1.645l5.625-1.767Zm39.139,1.514.276.08.035-.13Zm-743.951-.121.735.141c.152-.123.433-.252.418-.368-.014-.1-.367-.185-.57-.276Zm700.712-.027c-.017.048.068.108.1.155l.305-.008-.187-.257C3762.678,737.739,3762.551,737.769,3762.536,737.813Zm-719.348-.556c-.2.07-.269.256-.4.393a2,2,0,0,0,.632.1c.2-.078.3-.25.436-.383a4.491,4.491,0,0,0-.595-.124A.229.229,0,0,0,3043.187,737.257Zm666.958-.222a3.746,3.746,0,0,0,1.052.593,3.456,3.456,0,0,0-.274-1.76c2.784.467,3.145.417,3.774-.9a4.01,4.01,0,0,1,2.071-1.632c.643-.3.749-.689.185-.985a2.686,2.686,0,0,0-1.411-.012,7.194,7.194,0,0,0-3.923,2.54c-1.335-.847-2.964-.722-4.863-.3-.036-.48-.067-.888-.1-1.329a3.27,3.27,0,0,0-1.673,1.364.61.61,0,0,0-.1.242,2.279,2.279,0,0,1,1.125.833,2.7,2.7,0,0,0,.283.021c.524,0,1.048-.072,1.574-.1s1.027-.029,1.723-.048l-.1-.037c.212-.159.368-.4.648-.46a10.276,10.276,0,0,1,1.444-.145l-.718.9a5.819,5.819,0,0,1-.74-.067,2.832,2.832,0,0,1-.508-.175C3709.779,736.1,3709.729,736.647,3710.145,737.035Zm-1275.095.416c-.037.007-.022.1-.031.154a1.393,1.393,0,0,0,.313.007c.038-.007.024-.1.032-.154-.074,0-.153-.015-.225-.015A.445.445,0,0,0,2435.051,737.451Zm23.293-.357c.307.1.607.214.928.3.062.017.206-.066.313-.1l-.508-.447Zm-107.529-1.9c-1.35.757-3.156.715-4.8.968a17.1,17.1,0,0,0-1.886.573l6.625.463a15.573,15.573,0,0,1,10.673-.377,6.94,6.94,0,0,0,2.692.108c3.08-.394,6.123-.875,9.177-1.333.083-.012.116-.129.27-.315-.634-.112-1.231-.244-1.849-.321a18.154,18.154,0,0,0-2.355-.2c-3.452.028-6.906.064-10.354.162-2.357.066-4.678.611-7.084.143a1.556,1.556,0,0,0-.286-.023A1.984,1.984,0,0,0,2350.814,735.19Zm123.927,1.542c.783-.1,1.776.144,2.395-.561a6.558,6.558,0,0,0-.932-.079A1.569,1.569,0,0,0,2474.741,736.733Zm1298.87-.018,4.663-.235a7.279,7.279,0,0,0-2.077-.345A6.476,6.476,0,0,0,3773.611,736.715Zm33.69-.186.216.08.065-.126ZM2443.534,736.3l.244.069-.028-.158Zm42.853-.476,6.183-.681a41.891,41.891,0,0,1-5.918-1c-1.952-.65-4.219-.14-6.217-.9-1.006.448-2.117.607-2.444,1.248,1.592.972,1.674,1.091,2.472.912a9.354,9.354,0,0,1,2.057-.226A13.723,13.723,0,0,1,2486.387,735.824Zm-25.394-.523a3.141,3.141,0,0,0,.42.272c.033.016.291-.058.291-.09a1.056,1.056,0,0,0-.108-.34Zm-119.415-.228c-.053.031,0,.118,0,.179l.484-.421A4.858,4.858,0,0,0,2341.578,735.073Zm1403.484-1.106c-.562.317-.62.532-.569,1.255l2.784-1.516a2.565,2.565,0,0,0-.961-.217A2.339,2.339,0,0,0,3745.062,733.968Zm-1402.321.6c-.18.057-.348.126-.518.192a4.312,4.312,0,0,0,.6-.043c.109-.021.168-.124.249-.19A1.884,1.884,0,0,0,2342.74,734.571Zm61.65-1.3a5.555,5.555,0,0,0-1.024,1.44c2.655.018,3.058-.295,2.634-1.873A5.45,5.45,0,0,0,2404.39,733.268Zm-57.915,1.348.248-.088-.31-.056Zm679.991-.53c-.556.035-1.1.134-1.65.21l.047.27c.567.014,1.135.037,1.7.034.106,0,.32-.132.3-.158-.1-.131-.279-.356-.394-.356Zm723.476-.792c-.29.2-.452.6-.295.829a1.92,1.92,0,0,0,1.225.4c.9-.047,1.776-.236,2.535-.349.4-.622.3-1.055-.591-1.3a3.832,3.832,0,0,0-1.017-.14A3.24,3.24,0,0,0,3749.942,733.294Zm-28.044.662c-.183.029-.3.2-.444.313l.62.191.427-.322a2.361,2.361,0,0,0-.564-.186Zm36-.02a5.967,5.967,0,0,0,1.682.487,4.472,4.472,0,0,0,1.017-.063,2.13,2.13,0,0,0-1.519-.657A3.621,3.621,0,0,0,3757.9,733.936Zm10.121-.255c0,.038.006.079.008.117l1.35-.033c0-.038-.005-.078-.008-.117ZM2414.394,729.92c-.436,1.386-2.739,1.709-4.107,2.546a13.391,13.391,0,0,0-1.422,1.237,14.639,14.639,0,0,0,2.423-.467,9.6,9.6,0,0,1,5.292-1.067,4.276,4.276,0,0,0,1.36-.4c2.925.471,5.852.866,8.807.083-1.007-.489-1.146-1.106-.8-1.793a7.526,7.526,0,0,1-3.348-.982,1.727,1.727,0,0,0-2.041.189,8.156,8.156,0,0,1,.966.889,6.209,6.209,0,0,1,.575,1.162l-4.137.152a2.368,2.368,0,0,0,.3-.876c-.046-.624-.849-.977-1.791-1.023-.056,0-.116,0-.179,0A4.021,4.021,0,0,0,2414.394,729.92Zm9.436,3.578c.18.062.356.129.546.178.025.006.126-.086.192-.133-.177-.06-.349-.127-.537-.173h0C2423.994,733.369,2423.9,733.455,2423.83,733.5Zm1317.273-.323,1.573-.038a2,2,0,0,0-.794-.2A1.8,1.8,0,0,0,3741.1,733.175Zm-1354.954-1.781c-.842.432-.759,1.2.156,1.534a3.529,3.529,0,0,0,.752.077c.2-.089.512-.155.59-.272.32-.478-.047-1.114-.792-1.376a.913.913,0,0,0-.274-.034A1.106,1.106,0,0,0,2386.148,731.394Zm66.179-2.525c-.658.4-1.179.817-.457,1.368,8.54.662,8.54.662,10.071,1.625-1.053.033-1.92.027-2.768.1-.9.075-1.036.185-1.916,1.025l5.5-.013c.537-.927,1.859-1.565,1.512-2.564-.57-.45-.262-.905-.023-1.359-1.159-.043-2.323-.144-3.477-.112-1.707.047-3.416.154-5.1.3a5.878,5.878,0,0,1-2.592-.388.587.587,0,0,0-.185-.024C2452.72,728.825,2452.511,728.862,2452.327,728.869Zm-76.5,3.424a3.022,3.022,0,0,0-.894.441,4.258,4.258,0,0,0,1.136.218c.263-.043.426-.283.633-.438a3.589,3.589,0,0,0-.819-.224Zm30.31.5a.993.993,0,0,0,.152-.019.739.739,0,0,0,.181-.09Zm37.413-1.137c.634.336,1.07.773,1.6.813,2.186.167,4.4.282,6.6.258.624-.007,1.288-.544.29-1.084a13.378,13.378,0,0,0-1.407.255,4.6,4.6,0,0,1-3.906-.344,10.482,10.482,0,0,0-2.418-.626Zm-16.719.2a1.949,1.949,0,0,0,1.822.643,31.821,31.821,0,0,1,5.463-.2c.8.017,1.6.032,2.4.023a17.7,17.7,0,0,0,4.9-.526c-1.315-1.148-1.928-1.348-3.452-1.05-.992.192-1.9.529-2.89.719a6.388,6.388,0,0,1-2.22.151c-.52-.107-.791-.61-1.247-1a4.447,4.447,0,0,1-3.276,1.125c-.06,0-.119,0-.179,0C2427.72,731.737,2427.273,731.818,2426.832,731.859Zm1304.282.654-.087-.879C3730.74,731.937,3730.563,732.237,3731.114,732.513Zm-1341.137-.882c.273.234.439.453.532.444q3.469-.357,6.923-.762c.5-.059.732-.536.344-.742a2,2,0,0,0-.974-.206,7.819,7.819,0,0,1-3.976.633l-.11,0A13.021,13.021,0,0,0,2389.977,731.631Zm90.5-2.849c-2.553.552-5.05,1.187-7.78,1.841a7.672,7.672,0,0,0,1.3.373c2.865.226,5.735.425,8.907.654l-2.687-1.622c1.188-.241,2.016-.39,2.805-.587a.376.376,0,0,0,.248-.4.641.641,0,0,0-.471-.315c-.417-.011-.857-.039-1.281-.039A5.007,5.007,0,0,0,2480.478,728.782Zm-36.157,2.118a13.491,13.491,0,0,1,4.663-1.039c.511-.057.978-.224.759-.652a13.194,13.194,0,0,0-3.75.343,8.264,8.264,0,0,1-4.542.071C2441.714,730.635,2443.125,730.692,2444.321,730.9Zm-74.45-.268.262-.108-.26-.07Zm1067.977-.489c.62.262.888.465,1.146.461a3.286,3.286,0,0,0,.932-.288c-.17-.152-.333-.427-.512-.431h-.032A10.66,10.66,0,0,0,3437.847,730.142Zm-1026.5.39.244-.1-.241-.064Zm52.938-1.49c.521.45.267.9.009,1.359,1.673-.164,3.35-.318,5.018-.5,1.113-.12,1.222-.25,1.31-1.322a19.569,19.569,0,0,0-3.213-.368A5.57,5.57,0,0,0,2464.288,729.042Zm22.814.88.2.145.113-.156Zm-61.063.066a.574.574,0,0,0,.105-.081c.036-.037.034-.086.049-.129C2426.141,729.849,2426.089,729.919,2426.038,729.989Zm11.619-1.324c-.388.142-.757.3-1.133.454l.517.176a1.292,1.292,0,0,0,.335-.087c.211-.145.39-.305.581-.458a1.62,1.62,0,0,0-.281-.088A.058.058,0,0,0,2437.657,728.665Zm978.015-.473c-.24.03-.385.305-.571.472a3.011,3.011,0,0,0,.933.242c.272-.024.486-.259.841-.47a6.823,6.823,0,0,0-1.112-.25A.746.746,0,0,0,3415.672,728.192Zm25.712.418c.135.1.26.261.4.266a2.65,2.65,0,0,0,.678-.15c-.139-.1-.265-.284-.417-.292h-.026A2.575,2.575,0,0,0,3441.384,728.61ZM2469.6,725.535l-1.669,1.487c.863.562,2.424.7,2.728,1.531a9.868,9.868,0,0,1,3.787-1.11,13.467,13.467,0,0,0,4.2-.377,26.194,26.194,0,0,1,4.147-.492c.121-.015.167-.235.322-.474a25.01,25.01,0,0,0-7.709-.416,13.709,13.709,0,0,1-5.041-.234.479.479,0,0,0-.119-.013C2470.064,725.437,2469.821,725.507,2469.6,725.535Zm936.225,3.017a9.38,9.38,0,0,0,.858-.469,4.165,4.165,0,0,1,4.135-.436,21.72,21.72,0,0,0,2.115.506c.379-1.1.379-1.1-.53-2.129-1.216-.068-2.17-.115-2.929-.115C3406.9,725.909,3406.56,726.45,3405.823,728.551Zm27.935-.726.539.431.662-.269a1.772,1.772,0,0,0-.539-.263.549.549,0,0,0-.076-.005A3.923,3.923,0,0,0,3433.758,727.825Zm-974.569.3.277-.016-.152-.123Zm932.439-1.615c-.629.019-1.259.033-1.894.05.146,1.031.489,1.287,1.575,1.2a10.819,10.819,0,0,0,5.153-1.383,8.924,8.924,0,0,0,4.465.3l.936-1.375c-2.88.536-5.616.177-7.936,1.1a4.338,4.338,0,0,1-1.532.111c-.192-.006-.384-.012-.568-.012C3391.76,726.506,3391.693,726.507,3391.628,726.509Zm-5.063.28c.167.07.357.122.54.179l.124-.176-.548-.173C3386.639,726.679,3386.543,726.78,3386.565,726.789Zm-924.511-.229a1.413,1.413,0,0,0,.382,0c.083-.027.1-.12.146-.184-.106-.04-.213-.082-.32-.121Zm990.011-.97a5.567,5.567,0,0,0,.956.219c.145.009.323-.162.485-.252a4.707,4.707,0,0,0-.842-.271h-.017C3452.529,725.285,3452.332,725.45,3452.066,725.59Zm-4.109-.232c.2.046.39.1.593.128.016,0,.093-.115.143-.176-.193-.048-.384-.1-.584-.132h0C3448.087,725.179,3448.009,725.3,3447.957,725.359Zm-8.659-.477c.162.184.3.41.366.4a9.589,9.589,0,0,0,1.031-.2c-.11-.12-.219-.341-.327-.341A7.8,7.8,0,0,0,3439.3,724.882Zm-30.678-.155.153.185c.045-.1.077-.173.11-.243Zm18.4-.622-.158.316a9.159,9.159,0,0,0,1.4.25c.333.011.957-.13.983-.239.1-.443-.57-.414-1.077-.416h-.01C3427.782,724.016,3427.4,724.073,3427.022,724.1Zm-6.482.054c.2.045.485.163.594.124a3.082,3.082,0,0,0,.646-.4l-.773-.149Zm40.469-.529c-.422.021-1.066-.08-1.1.453l2.158.072.016-.4a8.028,8.028,0,0,0-.991-.127Zm-1299.3.358.625.062.1-.191c-.2-.021-.407-.05-.614-.053h0C2161.781,723.806,2161.743,723.925,2161.708,723.988Zm1294.942-.48a2.133,2.133,0,0,0-.548.241l.5.162.527-.251a1.889,1.889,0,0,0-.448-.154Zm-63.988.026.176.13.126-.155Zm11.852-.3.127.307,2.1-.428Zm-938.565-.059c-.105.02-.157.13-.234.2a1.654,1.654,0,0,0,.328-.036c.17-.059.324-.132.482-.2A3.834,3.834,0,0,0,2465.949,723.179Zm941.1-.108,2.749-.158a4.931,4.931,0,0,0-1.274-.188A3.373,3.373,0,0,0,3407.046,723.072Zm-3.76-.464.243-.1-.316-.052Zm702.1-1.2c.07.047.131.124.211.13a1,1,0,0,0,.3-.069c0-.063-.009-.124-.014-.184Zm-1944.442-.717a.65.65,0,0,0,.364.03c1.184-.316,1.165-.868.842-1.691C2161.029,719.613,2160.329,720.029,2160.943,720.687Zm877.432-1.851a7.305,7.305,0,0,0,.761.069,1.138,1.138,0,0,0-.031-.328c-.124-.054-.252-.1-.38-.157Zm-563.427-.754c2.381.655,2.381.655,4.243-.07a13.236,13.236,0,0,0-2.523-.459A3.951,3.951,0,0,0,2474.948,718.082Zm-311.886-.773c-.349.186-.877.358-.176.837,1.461-.288,3.059-.559,4.589-.923.777-.184,1.12-.628.833-1.117a9.654,9.654,0,0,0-.916-1.1C2165.688,715.914,2164.369,716.608,2163.062,717.31Zm321.881.457a1.722,1.722,0,0,0,.947.217c.142-.12.274-.244.4-.366a1.782,1.782,0,0,0-.571-.1A1.316,1.316,0,0,0,2484.943,717.767Zm-3.249-1.379a.781.781,0,0,0,.263.066c.069-.014.1-.093.145-.144l-.266-.074Zm2.708-.295h.319l-.157-.132Zm-15.892-.708.3.092c.052-.057.1-.113.157-.169-.06-.058-.119-.117-.178-.175Zm14.214-1.1c-.731.059-1.578.023-1.763.6-.02.061.037.153.116.2a2.1,2.1,0,0,0,1.944-.339c.077-.05.1-.128.271-.356a5.007,5.007,0,0,0-.54-.1ZM3014,712.7a1,1,0,0,0,.189.04,1.16,1.16,0,0,0,.274-.046Zm-.834-.027.511-.012a1.066,1.066,0,0,0-.221-.046h-.021A1.363,1.363,0,0,0,3013.165,712.67Zm-541.666-.449.114-.132h-.279Zm1644.693-1.909.3-.059-.255-.1Zm-1943.3-.669h0l.147-.077Zm.153-.043.043-.013h0Zm0-.038.007,0Zm303-41.935a.652.652,0,0,0,.351-.041c.714-.512.116-.9-.413-1.286a1.143,1.143,0,0,0-.353-.042C2475.174,667.234,2475.245,667.481,2476.047,667.626Zm679.763,95.862c0-.079,0-.157,0-.235.278,0,.558,0,.832.02.021,0,.011.149.015.23Zm-218.85-.066.047.028-.016.031Zm.047.028.407-.023-.423.054Zm-1.524-.947c-.058-.041.245-.264.423-.382a.763.763,0,0,1,.4.09c.239.4.443.806.655,1.21C2936.458,763.121,2935.937,762.827,2935.484,762.5Zm5.485.512-.228-.607a9.627,9.627,0,0,1,5.342-.606,1.234,1.234,0,0,1,.806.81c.039.12-.594.446-.93.451s-.648.007-.972.007C2943.648,763.07,2942.308,763.034,2940.969,763.015Zm-36.781-.048a.051.051,0,0,0,.008-.008l.084.009-.059.013Zm61.468-.607c-.055-.04.244-.239.382-.364l.626.3c-.057.152-.116.3-.175.456A4.829,4.829,0,0,1,2965.655,762.36Zm-14.421.074c-.032-.018.1-.13.158-.2.222.094.455.182.655.29.027.015-.112.128-.174.2C2951.656,762.627,2951.426,762.542,2951.234,762.435Zm-41.077.178c.027-.005.047-.012.073-.019l.038.017-.018.009Zm45.59-.5c0-.066.006-.133.008-.2.036,0,.077,0,.117,0a.6.6,0,0,1,.239.022c.058.03.008.128.005.2Zm167.234-.325.293.06-.217.1Zm-146.456-1.344-.066.007-.062,0,.076-.047-.013.049.014-.049c.017.014.035.027.052.041,2.057-.263,3.343.482,5.6,1.324h-.1C2979.159,761.764,2977.654,761.325,2976.524,760.439ZM2930.31,761.6l.039-.04c.018.02.033.039.051.06Zm.034-.041h.005l-.039.041C2930.32,761.589,2930.333,761.576,2930.344,761.562Zm43.411-.322c.28-.273.5-.652.926-.768a7.2,7.2,0,0,1,1.715-.028,11.373,11.373,0,0,1-1.225.7,5.334,5.334,0,0,1-1.148.267h-.006C2973.953,761.414,2973.732,761.262,2973.755,761.24Zm250.724-.178c-.048-.1.218-.246.344-.372.211.109.539.2.6.329.047.106-.233.258-.37.388C3224.846,761.294,3224.543,761.2,3224.479,761.062Zm-255.2.258c-.227-.074-.431-.172-.643-.263l.288-.187c.211.09.422.182.633.273a1.975,1.975,0,0,1-.276.177Zm29.107-.69c-.178-.109.167-.684.545-.859.79-.365,2.225-.09,2.232.394.005.3-.4.606-.734,1.069A9.767,9.767,0,0,1,2998.39,760.63Zm95.531.422.012-.213.123,0a.638.638,0,0,1,.253.021c.06.03.005.135,0,.207Zm12.32-.024c0-.073-.043-.176.023-.213a1.207,1.207,0,0,1,.373-.005c0,.073.042.176-.025.211a.257.257,0,0,1-.116.019C3106.419,761.039,3106.321,761.028,3106.242,761.028Zm-262.51-.386-2.677.343C2841.986,760.18,2842.883,760.525,2843.731,760.642Zm231.343-.083a.715.715,0,0,1,.374-.021,1.637,1.637,0,0,1,.3.339l-.779.047A1.041,1.041,0,0,1,3075.074,760.559Zm-209.762.318a1.143,1.143,0,0,1,.305-.055,1.076,1.076,0,0,1,.236.055Zm190.919-.2c-.021,0,.052-.142.082-.218.256.04.514.078.759.135.02,0-.056.142-.086.217C3056.733,760.765,3056.475,760.73,3056.232,760.673Zm-212.5-.031.139-.019-.017.034.018-.033.068.007-.086.026Zm141.268.005c-.112-.005-.21-.1-.313-.157l.631.008c-.108.054-.217.149-.31.149Zm-147.751-.711.38.13c.028.079.057.157.086.237l-.729.01Zm154.258.348c-.068-.035-.028-.14-.036-.214l.5.222c-.13,0-.246.011-.334.011A.3.3,0,0,1,2991.508,760.284Zm220.5-.93-.13,0-.086-.039c.037,0,.075-.007.114-.009l.1.046a7.273,7.273,0,0,1,3.22.451,5.038,5.038,0,0,1-1.009.107A5.18,5.18,0,0,1,3212.006,759.354Zm-389.987.208.334-.086-.008.194ZM3210.1,759.4a2.764,2.764,0,0,1-.944-.451l1.076-.343,1.561.715c-.451.033-.91.093-1.353.093C3210.323,759.411,3210.209,759.407,3210.1,759.4Zm-248.065-.953a21.007,21.007,0,0,1,2.481.285l.107-.021-.019.032-.088-.011-3.1.574C2960.891,758.67,2961.488,758.439,2962.032,758.445Zm269.486.59.053.013-.29.218Zm0,0c.032-.023.067-.046.1-.068l-.05.082Zm-68.412-.023.17-.3.3.122c-.034.061-.039.151-.111.175a.384.384,0,0,1-.114.014C3163.273,759.024,3163.185,759.013,3163.107,759.012Zm68.836-.572c.052.066.178.161.14.2a4.244,4.244,0,0,1-.462.332C3231.728,758.792,3231.837,758.616,3231.943,758.44Zm-6.717.36c.164-.2.261-.519.506-.562a7.314,7.314,0,0,1,1.455.043l-.751.659Zm-386.561-.354a3.654,3.654,0,0,1-1.577-1.235c-.481-.558.082-1.077,1.165-1.135.844-.044,1.641.09,1.334.711-.217.44-.006.59.675.769a11.413,11.413,0,0,1,1.75.754l-.375.506A16.161,16.161,0,0,1,2838.666,758.446Zm126.168.3.282.047Zm.264,0h0Zm-.018,0h.018Zm-.146,0,.145,0Zm-.332-.005.019-.032.212.035Zm1.132-1.106c-1.11-.246-2.352-.295-3.786-.459.374-1.12,1.821-1.524,2.918-2.078l-.034-.029.072.011-.037.018c1.114,1.071,2.625,1.032,4.475-.058-.294,1.107-.7,1.708-.519,2.244.157.466,1.217.831.393,1.446C2968.062,758.358,2966.959,757.907,2965.734,757.636Zm244.432.938.072-.035a8.128,8.128,0,0,1-.55-1.206c-.029-.1.335-.319.552-.334a1.178,1.178,0,0,1,.727.236c.536.57.012.963-.727,1.3.007.017.018.035.026.051h0l-.036.011Zm29.625-1.04a8.653,8.653,0,0,1,5.209.708c-.479.042-.919.061-1.327.061A9.5,9.5,0,0,1,3239.791,757.535Zm-26.344-.144,4.5-.8c-.083.947-.906,1.382-2.1,1.6a4.666,4.666,0,0,1-.821.086A1.639,1.639,0,0,1,3213.447,757.391Zm-389.541.49.357.064c0,.073.053.166-.007.212a1.1,1.1,0,0,1-.35.061Zm172.7-.054a1.515,1.515,0,0,1,.373-.089c.039.065.143.167.1.189a1.477,1.477,0,0,1-.37.088C2996.67,757.951,2996.567,757.848,2996.6,757.827Zm-46.173-.5c.26-.771.548-1.537.825-2.3l-.02-.008a.116.116,0,0,1,0-.02l.03-.011h0c0,.012-.009.025-.013.038l2.827,1.148c-.157,1.057-1.232,1.424-2.4,1.733a1.008,1.008,0,0,1-.255.031C2950.917,757.932,2950.333,757.612,2950.431,757.325Zm200.42.222a1.171,1.171,0,0,1,.361.03c.068.041.033.137.043.209l-.322.1C3150.906,757.769,3150.879,757.659,3150.851,757.547Zm-331.176.312c-.062-.031-.023-.127-.028-.194a1.157,1.157,0,0,1,.349,0c.062.03.022.127.027.194-.076,0-.169.012-.243.012A.244.244,0,0,1,2819.675,757.859Zm413.877-.959c2.624-.419,2.657-.422,6.028.619a10.819,10.819,0,0,1-1.295.077A21.577,21.577,0,0,1,3233.552,756.9Zm6.135.652.008-.015-.008.015-.107-.033.133-.016.077.031C3239.756,757.541,3239.723,757.545,3239.688,757.552Zm0,0,.013-.024,0-.009,0,0-.006.013-.006.009Zm-49.865-.9h0l.342-.188c-.031.021-.16.112-.29.2h0l-.249.227Zm-16.605-.122c-.226-.35-.128-.68.637-.752a4.044,4.044,0,0,1,1,.265,11.832,11.832,0,0,1-1.031.71.035.035,0,0,1-.016,0A1.306,1.306,0,0,1,3173.217,756.533Zm-46.583-.047.331.064-.268.1Zm76.41-.314c.185-.117.363-.321.559-.327a1.9,1.9,0,0,1,.676.265l-.571.352Zm-221.855-.208c-.054-.293.268-.608.5-1.074a17.155,17.155,0,0,1,2.177.412c.1.034-.105.655-.446.814a2.99,2.99,0,0,1-1.238.272C2981.659,756.388,2981.239,756.235,2981.189,755.964Zm883.878.362c-.453-.077-.894-.176-1.339-.267.048-.067.093-.191.145-.192.492-.008.986,0,1.476.019.08,0,.145.113.36.293a5.6,5.6,0,0,1-.611.15Zm-752.311-.094c.008-.072-.028-.169.038-.208a1.172,1.172,0,0,1,.357,0c-.01.071-.02.144-.029.216Zm185.67-.007c-.288-.02-.567-.076-.89-.123a3.045,3.045,0,0,1,.733-.186,1.673,1.673,0,0,1,.564.218,1.89,1.89,0,0,1-.385.092ZM3121.2,756.2c.106-.169.157-.3.191-.3.435.016.865.052,1.3.083-.042.071-.076.2-.125.2-.229.009-.459.011-.7.011Zm165.814-.236h1.346c-.31.072-.616.157-.939.207h-.011A1.777,1.777,0,0,1,3287.009,755.963Zm5.412.017.309.106-.355.063Zm-282.658-1.552a3.291,3.291,0,0,1,2.6-.107c.245.058.568.274.538.391-.062.242-.261.627-.538.67-1.31.2-2.666.313-4.818.543C3008.621,755.2,3009.172,754.8,3009.763,754.428Zm202.141,1.32.3.063-.222.1Zm-190.688.085c-.05,0-.092-.1-.137-.152l.546.055a2.045,2.045,0,0,1-.4.1Zm203.7-.015a1.62,1.62,0,0,1-.54-.268,2.664,2.664,0,0,1,.717-.078,2.053,2.053,0,0,1,.585.28,5.064,5.064,0,0,1-.635.072A1.181,1.181,0,0,1,3224.915,755.818Zm1.2,0a1.087,1.087,0,0,1-.2-.038l.478-.008a1.63,1.63,0,0,1-.257.047Zm-.357-.08c.053.012.105.028.158.041l-.18,0Zm-.084.011.083-.011-.022.046Zm-405.834-.267,2.1-1.041c.282-.658-1.1-.546-1.347-.957.153-.133.255-.329.47-.389a23.632,23.632,0,0,1,2.625-.617c2.43-.375,4.868-.741,7.333-1.025a12.976,12.976,0,0,1,5.583.157c-1.365.4-2.329.939-3.17.882a17.563,17.563,0,0,0-5.731.9c-.84.2-1.783.266-2.7.4.083.55.147.97.211,1.4a5.862,5.862,0,0,1-2.682.574A16.609,16.609,0,0,1,2819.843,755.487Zm-12.347.069c.109-.132.2-.372.328-.377a5.455,5.455,0,0,1,.986.127l-.561.356Zm380.573.1c1.637-.919,1.637-.919,3.457,0Zm8.6-.156.258-.047-.049.164Zm14.444-.8c4.013-.782,4.407-.759,6.776.419a7.606,7.606,0,0,1-2.683.493A11.419,11.419,0,0,1,3211.115,754.7Zm-3.392.784a9.194,9.194,0,0,1,3.271-.771,3.5,3.5,0,0,1-2.321.856A5.807,5.807,0,0,1,3207.723,755.485Zm35.332-.151a13.32,13.32,0,0,1,6.295-.423,20.538,20.538,0,0,1-4.2.6A13.245,13.245,0,0,1,3243.055,755.334Zm-200-.073.225-.108.078.168Zm137.169-1.355c0-.087.474-.25.714-.242a.948.948,0,0,1,.655.3c.188.445.139.874-1.117,1.17A6.216,6.216,0,0,1,3180.223,753.906Zm73.824.934h4.793a8.578,8.578,0,0,1-1.858.254C3256.384,755.094,3255.605,755.01,3254.048,754.84Zm46.052.081c.259-.03.515-.069.776-.081.049,0,.112.113.169.174-.258.03-.514.069-.774.08h0C3300.221,755.093,3300.157,754.981,3300.1,754.921Zm-335.267.149a.149.149,0,0,1,.011-.015l.059.026Zm-4.946-2.115c.389-.247.683-.582.957-.577a11.656,11.656,0,0,1,1.738.31,6.973,6.973,0,0,0,4.793-.555c.547-.315,1.15-.6,1.675-.87,2.447-.042,3.149,1.069,4.982,1.878-2.718.29-4.813.569-6.937.72a2.674,2.674,0,0,0-2.25,1.195Zm259.777,1.715.411.213-.312.166C3219.734,754.938,3219.706,754.83,3219.664,754.669Zm584.993.2c1.272-.7,1.272-.7,4.759-.589a28.679,28.679,0,0,1-4.445.593C3804.867,754.872,3804.763,754.87,3804.657,754.867Zm-593.612-.191.031.02-.03-.02.068.026-.022.005h0l-.1.009Zm-366.669-.306c-.022-.023.207-.17.263-.159a6.453,6.453,0,0,1,.7.2l-.53.305A3.392,3.392,0,0,1,2844.376,754.369Zm446.7.075a11.625,11.625,0,0,1,4.721-.062,11.488,11.488,0,0,1-2.487.272A12.224,12.224,0,0,1,3291.081,754.444Zm186.939-.567a3.1,3.1,0,0,1,2.412-.888c.6.659-.038,1-.9,1.271a.98.98,0,0,1-.308.062A3.63,3.63,0,0,1,3478.019,753.877Zm-266.682.311c-.278-.059-.414-.338-.615-.517,1.1-.219,1.4-.843,2.078-1.278a3.272,3.272,0,0,1,2.91.077c-.658.468-1.343.91-1.937,1.388a2.191,2.191,0,0,1-1.423.451A4.9,4.9,0,0,1,3211.337,754.188Zm292.061-.1.5-.244c.069.055.214.148.2.159a5.366,5.366,0,0,1-.486.252Zm-32.741-.251-1.663.393C3469.033,753.454,3469.886,753.611,3470.657,753.84Zm261.181.334a12.092,12.092,0,0,1-1.205-.341,6.986,6.986,0,0,1,1.237-.168,2.97,2.97,0,0,1,.852.286.3.3,0,0,1-.161.174,3.435,3.435,0,0,1-.549.063A1.059,1.059,0,0,1,3731.838,754.174Zm-881.42-.064c-.14-.006-.279-.013-.4-.011.006-.241-.139-.534.048-.713a2.831,2.831,0,0,1,2.37-.329,8.536,8.536,0,0,1-1.263,1.005.872.872,0,0,1-.389.06C2850.667,754.122,2850.542,754.116,2850.418,754.109Zm375.089-.163c-.021-.05.143-.123.223-.185l.422.071-.344.284C3225.7,754.061,3225.534,754.012,3225.507,753.946Zm-125.11-.033c-.053-.017-.015-.215.024-.219.244-.032.5-.032.753-.042-.012.142-.026.282-.039.424A7.35,7.35,0,0,1,3100.4,753.913Zm818.906.06a1.275,1.275,0,0,1-.31-.083,1.7,1.7,0,0,1,.35-.066,1.322,1.322,0,0,1,.309.087,1.854,1.854,0,0,1-.337.062Zm-203.669-.694c1.285.012,2.568.1,3.852.158a10.8,10.8,0,0,1-4.077.5c-.559,0-1.122,0-1.686.029C3714.021,753.271,3714.89,753.272,3715.634,753.279Zm-735.588-1.486c.574-.129,1.144-.261,1.72-.386,3.417-.742,3.632-.678,5.4,1.653-1.077.5-2.51.021-3.8.526a3.248,3.248,0,0,1-1.183.237A2,2,0,0,1,2980.047,751.793Zm561.025,1.14a1.172,1.172,0,0,1,.542-.218c.66,0,1.271.391,1.089.7-.061.1-.367.154-.786.315C3541.622,753.463,3541.322,753.205,3541.072,752.933Zm200.779.472a3.968,3.968,0,0,1,.595-.073,4.3,4.3,0,0,1-.449.246,1.44,1.44,0,0,1-.344.048C3741.716,753.549,3741.748,753.43,3741.851,753.405Zm-474.62-.109c.4-.046.786-.1,1.182-.121a1.718,1.718,0,0,1,.141.341c-.4.021-.807.045-1.211.054C3267.318,753.571,3267.286,753.436,3267.231,753.3Zm189.137.034c.113-.116.2-.306.348-.327a2.184,2.184,0,0,1,.666.141l-.337.346Zm263.239.112-.119-.005.062-.024.057.029-.056-.03.1-.028C3719.635,753.4,3719.621,753.424,3719.606,753.442Zm-257.9-.005c-.084,0-.161-.077-.241-.119l.252-.107.253.122a.815.815,0,0,1-.263.1Zm-213.141-.294,2.41-.055a2.889,2.889,0,0,1-1.206.321A3.279,3.279,0,0,1,3248.561,753.143Zm-20.134-.171a.689.689,0,0,1,.366-.11,3.594,3.594,0,0,1,.523.335l-.761.191A1.267,1.267,0,0,1,3228.427,752.973Zm-24.518-.46,3.222.62a5.987,5.987,0,0,1-1.523.256A1.994,1.994,0,0,1,3203.909,752.512Zm516,.548a1.073,1.073,0,0,1,.269-.128c.006.094.084.229.005.273a2.631,2.631,0,0,1-.537.179A3.045,3.045,0,0,1,3719.912,753.061Zm-161.959.084a1.1,1.1,0,0,1,.311.078c.031.032-.046.1-.075.148Zm184.562.148c.053,0,.108-.006.161-.009l-.113.038-.117.01C3742.468,753.318,3742.489,753.3,3742.514,753.292Zm.021.013-.006,0Zm-.006,0-.007,0Zm-.007,0,0,0Zm-.005,0h0Zm-1244.562-.235a1.665,1.665,0,0,1,.5-.252l.372.276-.528.244C2498.175,753.234,2497.915,753.108,2497.954,753.059Zm3.367.2c-.6-.082-1.2-.989-.883-1.369a4.061,4.061,0,0,1,3.05-2.057,6.078,6.078,0,0,0,1.566,1.145c.71.268,1.794.2,2.538.456a15.28,15.28,0,0,1,2.273,1.151c.028,0,.056,0,.084,0l-.04.027-.044-.024a7.3,7.3,0,0,1-1.093.011,11.124,11.124,0,0,0-5.614.584,2.831,2.831,0,0,1-.979.135A6.5,6.5,0,0,1,2501.321,753.255Zm8.69-.641c.808.052,1.781-.09,2.159.506.078.123,0,.18-.173.18A5.271,5.271,0,0,1,2510.011,752.614Zm1233.072.532a.782.782,0,0,1-.209.114,1.194,1.194,0,0,1-.2.024Zm-738.159.11c-.113,0-.227,0-.338,0,.036-.15,0-.4.124-.431a9.633,9.633,0,0,1,1.275-.113c-.061.24-.056.51-.146.521a5.179,5.179,0,0,1-.593.028C3005.138,753.258,3005.031,753.257,3004.924,753.255Zm561.328-.011c-.1-.014-.121-.206-.209-.374l1.033-.026c-.042.115-.017.281-.14.334a1.524,1.524,0,0,1-.685.066Zm115.633-.158a2,2,0,0,1,.435,0c.048.015.021.111.027.171Zm-127.935-.1c.107-.042.212-.086.318-.129l-.276.155-.458.228Zm-520.008-.054c.158-.212.229-.539.5-.606a5.534,5.534,0,0,1,1.439.152c-.314.3-.465.625-.741.666a.873.873,0,0,1-.127.009A6.338,6.338,0,0,1,3033.942,752.929Zm654.565.167c.005-.063-.025-.167.023-.18a1.56,1.56,0,0,1,.364-.006c-.006.062.024.166-.024.179a.545.545,0,0,1-.138.014C3688.659,753.1,3688.581,753.1,3688.508,753.1Zm-437.445-.044.046.034-.136,0Zm0,0c.06,0,.12,0,.18,0l-.134.038Zm-398.63.005.041-.035-.005.034.006-.034.043.026-.05.013s.006-.039.006-.039l-.007.039h0Zm399.078-.009c-.09,0-.179,0-.267,0l1.745-.51c-.249.472-.769.511-1.317.511Zm-168.021-.1a3.068,3.068,0,0,1-.855-.529c-.048-.035.123-.225.155-.221a5.875,5.875,0,0,1,1.171.175c.233.078.331.287.489.437l-.019.038.019-.038.78.034-.839.086c-.212.008-.46.05-.664.05A.745.745,0,0,1,3083.49,752.944Zm-567.809-.01c-.8-.046-1.4-.4-1.174-.679a3.066,3.066,0,0,1,.831-.263l.987.765a2.541,2.541,0,0,1-.617.178Zm1446.375-.592a2.683,2.683,0,0,1,.592-.169,2.313,2.313,0,0,1-.242.357,1,1,0,0,1-.3.116C3962.083,752.541,3961.976,752.384,3962.055,752.342Zm-1452.148.265.04-.027.063.034Zm428.58-1.359a.671.671,0,0,1,.406.117c.742.739-.325.894-1.1,1.141C2937.659,752.022,2937.044,751.454,2938.487,751.247Zm-444.957,1.076.795-.367.322.192c-.282.1-.559.212-.854.3h-.007A1.35,1.35,0,0,1,2493.531,752.323Zm312.142-.816a12.563,12.563,0,0,1,4.442-.307,13.214,13.214,0,0,1-4.887,1.211C2804.51,751.864,2805.154,751.669,2805.673,751.507Zm13.2.867c-.6-.081-.114-.531.806-.643.431-.053.885-.042,1.331-.054a3.079,3.079,0,0,1-.854.594,2.906,2.906,0,0,1-.9.128A2.967,2.967,0,0,1,2818.868,752.374Zm640.836-.156.236.1-.265.073ZM3962.736,752.152Zm-217.514-.065.186-.065.051.1Zm-1195.261-.568c1.838-.435,2.914-.568,4.473.444Zm656.981.26a.93.93,0,0,1-.038-.366l.715.113a1.723,1.723,0,0,1-.322.313.105.105,0,0,1-.048.007A.687.687,0,0,1,3206.941,751.779Zm395.473-.006c.048-.062.07-.157.15-.177a1,1,0,0,1,.323.065c-.048.063-.069.158-.15.178a.13.13,0,0,1-.033,0A1.774,1.774,0,0,1,3602.414,751.773Zm-622.37-.012-.037.041a.488.488,0,0,1-.038-.044c.026,0,.049,0,.075,0,0,.011,0,.022,0,.033l-.039.009Zm-1.669-1.57c1.562.374,1.178,1.088,1.593,1.567C2978.114,751.717,2978.51,750.989,2978.376,750.19Zm48.143,1.381c.008-.063.16-.12.25-.179l.268.166-.269.179C3026.678,751.681,3026.513,751.623,3026.519,751.571Zm-205.487.084.051.02-.078,0C2821.015,751.669,2821.023,751.661,2821.032,751.655Zm0,0,.032,0,.02.024Zm497.7-.742-.065-.018v-.022h.065Zm515.2-.122.27.04-.213.071Zm-1311.292.01.3-.069.119.171Zm796.087-.44a4.185,4.185,0,0,1,.807.056c.174.043.257.2.38.313a1.608,1.608,0,0,1-.369.116c-.269.022-.543.021-.815.026Zm-330.076,0,.348.062c0,.071.039.161-.022.208a1.088,1.088,0,0,1-.338.058C2988.644,750.583,2988.649,750.474,2988.652,750.365Zm-477.543-.146a2.52,2.52,0,0,1-.352-.343h-.07l.043-.03.028.029c.229,0,.46-.012.684,0,.637.043,1.289.093,1.329.578,0,.059-.083.153-.171.175a1.734,1.734,0,0,1-.433.06A1.7,1.7,0,0,1,2511.109,750.219Zm503.5.241c-.608-.353-.333-1.08.519-1.322a2,2,0,0,1,1.161.139c.632.425.349,1.077-.607,1.376A3.755,3.755,0,0,1,3014.608,750.46Zm-198.617.073h.127l-.149.047Zm-.166,0h.166l-.023.047C2815.921,750.566,2815.874,750.55,2815.826,750.534Zm-.22-.053a1.008,1.008,0,0,1,.22.053l-.513,0A1.071,1.071,0,0,1,2815.605,750.482Zm528.4-.135.171.132-.325.006Zm-9.206.033c-.029-.036.067-.107.109-.161l.293.073-.121.164C3334.982,750.432,3334.834,750.421,3334.8,750.379Zm-270.1-1.611a13.317,13.317,0,0,1,5.192,1.616q-.426.031-.828.031A5.822,5.822,0,0,1,3064.7,748.769Zm-96.477,1.479.318.012-.2.139Zm523.641-.03c.2-.028.389-.064.588-.078.036,0,.092.087.139.135-.2.028-.391.064-.59.078h0C3491.965,750.352,3491.912,750.265,3491.865,750.218Zm-499.58-.172c-.1-.034,0-.277.016-.425l1.166.091c-.04.224-.066.374-.092.523A7.075,7.075,0,0,1,2992.285,750.046Zm715.5-.131c-.034-.035.056-.109.091-.166.1.025.249.035.288.078s-.058.112-.094.169C3707.975,749.971,3707.83,749.958,3707.79,749.915Zm6.406-.8c.446-.643.952-1.275,1.482-1.9a1.8,1.8,0,0,1,1.686-.318c-.646.761-1.272,1.529-1.958,2.279a5.446,5.446,0,0,1-1.02.6C3714.287,749.471,3714.1,749.262,3714.2,749.118Zm-662.626.476c.025-.139.051-.276.078-.414a7.106,7.106,0,0,1,.721.186c.058.022.006.218-.018.219-.133.009-.266.011-.4.011Zm296.14-.173.256-.126q.008.123.016.245Zm-373.745-.2c.251,0,.5-.007.751.009.056,0,.084.142.125.217Zm-475.679-.152.3.138-.233.1C2498.334,749.243,2498.315,749.175,2498.285,749.07ZM2972,748.887l1.677.315a5.65,5.65,0,0,1-.769.083A1.085,1.085,0,0,1,2972,748.887Zm1.677.315.142-.019.149.038h-.177Zm21.857-.108.2-.193.155.2Zm368.761-.216a.936.936,0,0,1,.2-.605c.03-.039.217-.037.406-.036.087,0,.175,0,.247,0,.02.259.04.518.067.846A4.727,4.727,0,0,1,3364.292,748.878ZM2440.6,747.409a8.55,8.55,0,0,1,5.494-.239c1.308.328,2.6.669,3.9,1.005-.069.208-.141.417-.251.748C2446.625,748.5,2443.131,749.054,2440.6,747.409Zm52.063.835.252.086-.289.053ZM3651,747.622c-.049-.055.519-.406.68-.38a6.039,6.039,0,0,1,1.184.425l-.9.607A5.139,5.139,0,0,1,3651,747.622Zm3.244.346a3.492,3.492,0,0,1,.729-.559l.574.6a4.994,4.994,0,0,1-.889.251h-.009C3654.53,748.265,3654.2,748.031,3654.241,747.968Zm-1204.207.215-.031-.007,0-.01.313-.116Zm-189.222-.019a.232.232,0,0,0,.022-.026l.018.011c.006.007.013.013.02.022Zm-.787-.59,1.56-.3-.75.865Zm1467.064.277.338.079-.486.119C3726.99,747.983,3727.039,747.918,3727.089,747.852Zm-664.569-.171c-.022-.023.2-.168.25-.157a6.739,6.739,0,0,1,.692.2c-.173.1-.346.192-.52.289A3.047,3.047,0,0,1,3062.52,747.681Zm267.515.1c.087-.113.129-.3.268-.324a7.705,7.705,0,0,1,1.021-.089,3.417,3.417,0,0,1-.646.458.279.279,0,0,1-.115.018C3330.418,747.85,3330.2,747.8,3330.035,747.786Zm-288.148-.023c0-.073,0-.146,0-.218.255.021.513.033.76.07.034.005.008.137.01.21Zm616.357-.063.2-.13.086.151Zm84.289-.1c-.086,0-.161-.091-.242-.142.036-.063.07-.126.106-.19l.4.208c-.087.043-.179.124-.26.124Zm-82.773-.9-2.862.823C3657.219,746.572,3658.171,746.508,3659.76,746.7Zm-1246.534,0a3.222,3.222,0,0,1-.942-.385,55.181,55.181,0,0,1,8.926-.259,14.451,14.451,0,0,1,4.572,1.294q-.784.025-1.534.024C2420.125,747.376,2416.7,746.862,2413.226,746.7Zm-151.61.538.007,0,.032.024-.07.013Zm1465.152-.335.263-.041-.058.107Zm-9.343.008-.061-.009.016-.018.045.027-.044-.027.362-.1Zm-78.44-.182c.033-.038.165-.047.253-.068.032.051.112.115.083.15s-.164.045-.253.066C3639.036,746.827,3638.956,746.763,3638.985,746.73Zm-583.7-.383c-.024-.034.167-.116.259-.176a2.771,2.771,0,0,1,.392.386c.023.033-.171.115-.265.174A2.76,2.76,0,0,1,3055.287,746.347ZM3007.4,746.3c.153-.2.235-.529.48-.576a5.114,5.114,0,0,1,1.358.22c-.3.27-.463.584-.7.6-.024,0-.049,0-.074,0A4.994,4.994,0,0,1,3007.4,746.3Zm648.819-.149a1.035,1.035,0,0,1,.309-.068c.084.008.147.089.218.138l-.511.127C3656.229,746.279,3656.224,746.213,3656.218,746.146Zm-1256.158-.369c.211-.037.418-.088.633-.1.062-.005.148.09.223.14a6.2,6.2,0,0,1-.632.107h0C2400.218,745.919,2400.134,745.827,2400.06,745.777Zm42.086-.179a1.616,1.616,0,0,1,.549-.2,1.842,1.842,0,0,1,.574.219l-.559.2Zm-54.109-.3.33.063-.263.1Zm-9.27-.006,1.228,0v.156l-1.227,0C2378.769,745.392,2378.768,745.34,2378.768,745.288Zm-66.2-.82a2.6,2.6,0,0,1,.876-.287,1.052,1.052,0,0,1,.748.406c.045.135-.347.317-.743.637C2313.065,744.89,2312.819,744.678,2312.571,744.467Zm4.857.532c-.16-.078-.206-.233-.3-.354a3.6,3.6,0,0,1,.72-.086,2.512,2.512,0,0,1,.692.2c.093.036.195.17.171.181a5.885,5.885,0,0,1-.56.221A3.639,3.639,0,0,1,2317.428,745Zm439.744-.072.136.135-.243.009Zm-389.885-.052.321.062-.256.1Zm-30.343-.893a23.541,23.541,0,0,1-8.171,1.053A22.416,22.416,0,0,1,2336.944,743.982Zm25.465.984.238-.093.059.152Zm81.472-.5c-.156-.078-.252-.3-.17-.4a1,1,0,0,1,.639-.186c.833.2,1.632.44,2.442.667a4.13,4.13,0,0,1-1.418.267A3.328,3.328,0,0,1,2443.882,744.47Zm2.912.083.013,0,.02.009-.02-.009c.042-.066.085-.131.126-.2-.029.072-.057.145-.086.217Zm-120.558-1.081.027-.018.306.075Zm.025-.018-4.195-.081c.321-.326.413-.58.653-.638,4.058-.98,8.1-2.013,13-1.843-3.236,1.471-3.232,1.491-6,1.687a6.2,6.2,0,0,0-3.451.875h0l-.027.018C2326.244,743.466,2326.253,743.461,2326.26,743.455Zm92.961-.984.244.106-.331.052Zm-105.647-.126a.772.772,0,0,1,.275-.118c.091,0,.181.077.272.119a.765.765,0,0,1-.274.118A.787.787,0,0,1,2313.574,742.345Zm4.594-.123a1.587,1.587,0,0,1,.353.034c.047.017.009.109.009.168l-.35.039Zm20.225-.389c.084-.039.167-.112.25-.111s.166.072.248.113c-.084.04-.167.111-.25.111S2338.474,741.873,2338.393,741.833Zm129.893-.537h.1l.028.018-.065.009Zm0,0-2.1.005A2.087,2.087,0,0,1,2468.286,741.3Zm-144.057-1.729a6.194,6.194,0,0,1,.637-.107c.063-.005.151.091.228.141a6.341,6.341,0,0,1-.639.108h0C2324.387,739.709,2324.3,739.616,2324.229,739.567Zm1412.642-1.381c-.062,0-.125,0-.186,0,.067-.123.134-.247.2-.371a5.884,5.884,0,0,1,.58.172c.03.012-.05.18-.111.187a2.985,2.985,0,0,1-.327.015Zm18.493-.53c-1.273-.051-2.539-.161-3.807-.247.019-.085.038-.168.057-.252.753.016,1.508.053,2.26.04.782-.012,1.56-.074,2.336-.114.241.477-.233.576-.7.576C3755.461,737.659,3755.412,737.658,3755.364,737.656Zm361.626-1a2.825,2.825,0,0,1,.848-.319c.216-.008.46.2.691.314a5.8,5.8,0,0,1-.921.272h-.021A2.514,2.514,0,0,1,4116.99,736.658Zm-385.963-.184.259.037-.2.071Zm-20.192-.621.029-.034.038,0c.007.016.012.031.021.047Zm20.253-.845c-.13-.237.14-.55.268-.824.024-.052.214-.08.328-.118.237.062.591.089.686.193.222.242.511.546.419.779-.056.141-.414.211-.789.211C3731.6,735.25,3731.176,735.169,3731.088,735.008Zm-19.476-.124.07.031-.1.007Zm0,0,.006-.008c.022.013.043.025.064.039Z" transform="translate(-2151.439 -667.872)" fill="#b92454" stroke="rgba(0,0,0,0)" stroke-width="1"/>
    </clipPath>
  </defs>
  <g id="Mask_Group_426" data-name="Mask Group 426" transform="translate(-4564 8029) rotate(180)" clip-path="url(#clip-path)">
    <g id="Mask_Group_425" data-name="Mask Group 425" transform="translate(-4989.129 7931)" clip-path="url(#clip-path-2)">
      <path id="Path_5276" data-name="Path 5276" d="M0,0H1920V100H0Z" transform="translate(48.439)" fill="#b92454" opacity="0.9"/>
    </g>
  </g>
</svg>
