<svg xmlns="http://www.w3.org/2000/svg" xmlns:xlink="http://www.w3.org/1999/xlink" width="424" height="4.984" viewBox="0 0 424 4.984">
  <defs>
    <clipPath id="clip-path">
      <rect width="424" height="4.984" fill="none"/>
    </clipPath>
  </defs>
  <g id="Repeat_Grid_11" data-name="Repeat Grid 11" clip-path="url(#clip-path)">
    <g transform="translate(-1396.191 -944.896)">
      <path id="Path_3221" data-name="Path 3221" d="M-11.32,1.8l-.4-.44a14.775,14.775,0,0,0-.06-2.04,5.968,5.968,0,0,1,.14-2,1.415,1.415,0,0,1,.52-.28,2.175,2.175,0,0,1,.6-.08q1.08.04,2.16.02t2.2.02q1.28,0,2.52-.02t2.52-.06q.92,0,1.88-.02a17.487,17.487,0,0,1,1.88.06,5.535,5.535,0,0,0,1.24.02,7.652,7.652,0,0,1,1.24-.02q.92.04,1.86.02T8.84-3a1.382,1.382,0,0,1,.78.2.713.713,0,0,1,.3.64q.04.8.02,1.54T9.88.92a.755.755,0,0,1-.04.24,1.552,1.552,0,0,1-.08.2.8.8,0,0,1-.44.34,2.325,2.325,0,0,1-.56.06H5.8l-1.24.12H2.36l-3.72-.12H-4.04l-1.48.08q-.72.04-1.44.04-.68,0-1.38-.04T-9.72,1.8a5.125,5.125,0,0,0-.78-.02Q-10.88,1.8-11.32,1.8Zm9-3h-.4a1.144,1.144,0,0,1,0,.6.43.43,0,0,0,.16.48,2.577,2.577,0,0,1,.32.02,2.924,2.924,0,0,0,.36.02L-2-.48q-.32-.08-.22-.32A.313.313,0,0,0-2.32-1.2ZM1-.08Q.96-.76.56-.8L.08-.52a2.073,2.073,0,0,0,.38.46A1.049,1.049,0,0,0,1-.08Zm-1.12,0A.844.844,0,0,0-.34-.52q-.14-.12-.5,0L-.6,0Zm-1.4-.56.12-.6A.625.625,0,0,0-2-.48,2.48,2.48,0,0,1-1.52-.64Zm9.2-.28q-.36.36-.36.44A.356.356,0,0,0,7.68,0ZM4.56,0a1.194,1.194,0,0,0,.38-.06q.18-.06.3-.46a1,1,0,0,1-.46.18Q4.56-.32,4.56,0ZM3.84-1.2a.232.232,0,0,1-.04.16,2.434,2.434,0,0,1,.36.28,1.311,1.311,0,0,1,.16-.2.931.931,0,0,0,.16-.24Zm-11-.16q-.08.32-.12.5t-.08.38A1.487,1.487,0,0,1-7-.52Zm8.08.2a.445.445,0,0,0,.04.2,1.27,1.27,0,0,1,.36-.08l.16.48v-.72a.922.922,0,0,1-.32.08A.755.755,0,0,0,.92-1.16Zm1.24.04v.48L2.6-.72Zm-8.36.08.72.08a.888.888,0,0,0-.34-.24Q-5.96-1.24-6.2-1.04Zm8.44.8q0-.12-.04-.12L1.84-.6q-.04,0-.04.02t-.04.02l.28.36a.178.178,0,0,0,.08-.02A.279.279,0,0,1,2.24-.24Zm2,0a1.315,1.315,0,0,0-.32-.04V.16a2,2,0,0,0,.18-.2Q4.16-.12,4.24-.24ZM-4.4-.4q.32.36.44-.08A1.4,1.4,0,0,0-4.4-.4Zm2.88-.24a1.045,1.045,0,0,1,.16.22q.08.14.4-.06ZM-9.6-1a.445.445,0,0,0,.04-.2,1.213,1.213,0,0,1-.36-.04.232.232,0,0,1-.04.16A1.27,1.27,0,0,1-9.6-1Zm1.92.6.12-.12-.28-.2q0,.04-.08.12A1.138,1.138,0,0,0-7.68-.4ZM6.96,0a.081.081,0,0,1,.02-.06A.081.081,0,0,0,7-.12.7.7,0,0,0,6.8-.2a.05.05,0,0,0-.08,0,.163.163,0,0,1-.12.04.081.081,0,0,0,.02.06.081.081,0,0,1,.02.06A1.041,1.041,0,0,1,6.96,0Zm.08-1.12L6.96-1.2q-.04-.04-.12.04.08.08.08.12Q6.96-1.04,7.04-1.12ZM-9.04-.76h-.08v.24h.08Zm2.68.12a.115.115,0,0,1-.08.04.178.178,0,0,0,.02.08.178.178,0,0,1,.02.08h.08a.158.158,0,0,0-.02-.1A.158.158,0,0,1-6.36-.64Zm10.2.08-.12.08.16.12A.445.445,0,0,0,3.84-.56ZM-5.4-.72h-.04v.2q.04,0,.04-.02t.04-.02a.178.178,0,0,0-.02-.08A.178.178,0,0,1-5.4-.72Zm8.56.48V-.28H3V-.2a.158.158,0,0,0,.1-.02A.081.081,0,0,1,3.16-.24ZM3.2-.76v-.28H3.16A1.685,1.685,0,0,0,3.2-.76Zm2.56-.6a1.685,1.685,0,0,0-.04.28h.04Zm-9.32.2.04-.04h-.12A.115.115,0,0,0-3.56-1.16Zm-1.2.72L-4.8-.4v.04l.04-.04Zm6.88-.68-.04-.04Z" transform="translate(1408 948)" fill="#b92454"/>
    </g>
    <g transform="translate(-1376.191 -944.896)">
      <path id="Path_3221-2" data-name="Path 3221" d="M-11.32,1.8l-.4-.44a14.775,14.775,0,0,0-.06-2.04,5.968,5.968,0,0,1,.14-2,1.415,1.415,0,0,1,.52-.28,2.175,2.175,0,0,1,.6-.08q1.08.04,2.16.02t2.2.02q1.28,0,2.52-.02t2.52-.06q.92,0,1.88-.02a17.487,17.487,0,0,1,1.88.06,5.535,5.535,0,0,0,1.24.02,7.652,7.652,0,0,1,1.24-.02q.92.04,1.86.02T8.84-3a1.382,1.382,0,0,1,.78.2.713.713,0,0,1,.3.64q.04.8.02,1.54T9.88.92a.755.755,0,0,1-.04.24,1.552,1.552,0,0,1-.08.2.8.8,0,0,1-.44.34,2.325,2.325,0,0,1-.56.06H5.8l-1.24.12H2.36l-3.72-.12H-4.04l-1.48.08q-.72.04-1.44.04-.68,0-1.38-.04T-9.72,1.8a5.125,5.125,0,0,0-.78-.02Q-10.88,1.8-11.32,1.8Zm9-3h-.4a1.144,1.144,0,0,1,0,.6.43.43,0,0,0,.16.48,2.577,2.577,0,0,1,.32.02,2.924,2.924,0,0,0,.36.02L-2-.48q-.32-.08-.22-.32A.313.313,0,0,0-2.32-1.2ZM1-.08Q.96-.76.56-.8L.08-.52a2.073,2.073,0,0,0,.38.46A1.049,1.049,0,0,0,1-.08Zm-1.12,0A.844.844,0,0,0-.34-.52q-.14-.12-.5,0L-.6,0Zm-1.4-.56.12-.6A.625.625,0,0,0-2-.48,2.48,2.48,0,0,1-1.52-.64Zm9.2-.28q-.36.36-.36.44A.356.356,0,0,0,7.68,0ZM4.56,0a1.194,1.194,0,0,0,.38-.06q.18-.06.3-.46a1,1,0,0,1-.46.18Q4.56-.32,4.56,0ZM3.84-1.2a.232.232,0,0,1-.04.16,2.434,2.434,0,0,1,.36.28,1.311,1.311,0,0,1,.16-.2.931.931,0,0,0,.16-.24Zm-11-.16q-.08.32-.12.5t-.08.38A1.487,1.487,0,0,1-7-.52Zm8.08.2a.445.445,0,0,0,.04.2,1.27,1.27,0,0,1,.36-.08l.16.48v-.72a.922.922,0,0,1-.32.08A.755.755,0,0,0,.92-1.16Zm1.24.04v.48L2.6-.72Zm-8.36.08.72.08a.888.888,0,0,0-.34-.24Q-5.96-1.24-6.2-1.04Zm8.44.8q0-.12-.04-.12L1.84-.6q-.04,0-.04.02t-.04.02l.28.36a.178.178,0,0,0,.08-.02A.279.279,0,0,1,2.24-.24Zm2,0a1.315,1.315,0,0,0-.32-.04V.16a2,2,0,0,0,.18-.2Q4.16-.12,4.24-.24ZM-4.4-.4q.32.36.44-.08A1.4,1.4,0,0,0-4.4-.4Zm2.88-.24a1.045,1.045,0,0,1,.16.22q.08.14.4-.06ZM-9.6-1a.445.445,0,0,0,.04-.2,1.213,1.213,0,0,1-.36-.04.232.232,0,0,1-.04.16A1.27,1.27,0,0,1-9.6-1Zm1.92.6.12-.12-.28-.2q0,.04-.08.12A1.138,1.138,0,0,0-7.68-.4ZM6.96,0a.081.081,0,0,1,.02-.06A.081.081,0,0,0,7-.12.7.7,0,0,0,6.8-.2a.05.05,0,0,0-.08,0,.163.163,0,0,1-.12.04.081.081,0,0,0,.02.06.081.081,0,0,1,.02.06A1.041,1.041,0,0,1,6.96,0Zm.08-1.12L6.96-1.2q-.04-.04-.12.04.08.08.08.12Q6.96-1.04,7.04-1.12ZM-9.04-.76h-.08v.24h.08Zm2.68.12a.115.115,0,0,1-.08.04.178.178,0,0,0,.02.08.178.178,0,0,1,.02.08h.08a.158.158,0,0,0-.02-.1A.158.158,0,0,1-6.36-.64Zm10.2.08-.12.08.16.12A.445.445,0,0,0,3.84-.56ZM-5.4-.72h-.04v.2q.04,0,.04-.02t.04-.02a.178.178,0,0,0-.02-.08A.178.178,0,0,1-5.4-.72Zm8.56.48V-.28H3V-.2a.158.158,0,0,0,.1-.02A.081.081,0,0,1,3.16-.24ZM3.2-.76v-.28H3.16A1.685,1.685,0,0,0,3.2-.76Zm2.56-.6a1.685,1.685,0,0,0-.04.28h.04Zm-9.32.2.04-.04h-.12A.115.115,0,0,0-3.56-1.16Zm-1.2.72L-4.8-.4v.04l.04-.04Zm6.88-.68-.04-.04Z" transform="translate(1408 948)" fill="#b92454"/>
    </g>
    <g transform="translate(-1356.191 -944.896)">
      <path id="Path_3221-3" data-name="Path 3221" d="M-11.32,1.8l-.4-.44a14.775,14.775,0,0,0-.06-2.04,5.968,5.968,0,0,1,.14-2,1.415,1.415,0,0,1,.52-.28,2.175,2.175,0,0,1,.6-.08q1.08.04,2.16.02t2.2.02q1.28,0,2.52-.02t2.52-.06q.92,0,1.88-.02a17.487,17.487,0,0,1,1.88.06,5.535,5.535,0,0,0,1.24.02,7.652,7.652,0,0,1,1.24-.02q.92.04,1.86.02T8.84-3a1.382,1.382,0,0,1,.78.2.713.713,0,0,1,.3.64q.04.8.02,1.54T9.88.92a.755.755,0,0,1-.04.24,1.552,1.552,0,0,1-.08.2.8.8,0,0,1-.44.34,2.325,2.325,0,0,1-.56.06H5.8l-1.24.12H2.36l-3.72-.12H-4.04l-1.48.08q-.72.04-1.44.04-.68,0-1.38-.04T-9.72,1.8a5.125,5.125,0,0,0-.78-.02Q-10.88,1.8-11.32,1.8Zm9-3h-.4a1.144,1.144,0,0,1,0,.6.43.43,0,0,0,.16.48,2.577,2.577,0,0,1,.32.02,2.924,2.924,0,0,0,.36.02L-2-.48q-.32-.08-.22-.32A.313.313,0,0,0-2.32-1.2ZM1-.08Q.96-.76.56-.8L.08-.52a2.073,2.073,0,0,0,.38.46A1.049,1.049,0,0,0,1-.08Zm-1.12,0A.844.844,0,0,0-.34-.52q-.14-.12-.5,0L-.6,0Zm-1.4-.56.12-.6A.625.625,0,0,0-2-.48,2.48,2.48,0,0,1-1.52-.64Zm9.2-.28q-.36.36-.36.44A.356.356,0,0,0,7.68,0ZM4.56,0a1.194,1.194,0,0,0,.38-.06q.18-.06.3-.46a1,1,0,0,1-.46.18Q4.56-.32,4.56,0ZM3.84-1.2a.232.232,0,0,1-.04.16,2.434,2.434,0,0,1,.36.28,1.311,1.311,0,0,1,.16-.2.931.931,0,0,0,.16-.24Zm-11-.16q-.08.32-.12.5t-.08.38A1.487,1.487,0,0,1-7-.52Zm8.08.2a.445.445,0,0,0,.04.2,1.27,1.27,0,0,1,.36-.08l.16.48v-.72a.922.922,0,0,1-.32.08A.755.755,0,0,0,.92-1.16Zm1.24.04v.48L2.6-.72Zm-8.36.08.72.08a.888.888,0,0,0-.34-.24Q-5.96-1.24-6.2-1.04Zm8.44.8q0-.12-.04-.12L1.84-.6q-.04,0-.04.02t-.04.02l.28.36a.178.178,0,0,0,.08-.02A.279.279,0,0,1,2.24-.24Zm2,0a1.315,1.315,0,0,0-.32-.04V.16a2,2,0,0,0,.18-.2Q4.16-.12,4.24-.24ZM-4.4-.4q.32.36.44-.08A1.4,1.4,0,0,0-4.4-.4Zm2.88-.24a1.045,1.045,0,0,1,.16.22q.08.14.4-.06ZM-9.6-1a.445.445,0,0,0,.04-.2,1.213,1.213,0,0,1-.36-.04.232.232,0,0,1-.04.16A1.27,1.27,0,0,1-9.6-1Zm1.92.6.12-.12-.28-.2q0,.04-.08.12A1.138,1.138,0,0,0-7.68-.4ZM6.96,0a.081.081,0,0,1,.02-.06A.081.081,0,0,0,7-.12.7.7,0,0,0,6.8-.2a.05.05,0,0,0-.08,0,.163.163,0,0,1-.12.04.081.081,0,0,0,.02.06.081.081,0,0,1,.02.06A1.041,1.041,0,0,1,6.96,0Zm.08-1.12L6.96-1.2q-.04-.04-.12.04.08.08.08.12Q6.96-1.04,7.04-1.12ZM-9.04-.76h-.08v.24h.08Zm2.68.12a.115.115,0,0,1-.08.04.178.178,0,0,0,.02.08.178.178,0,0,1,.02.08h.08a.158.158,0,0,0-.02-.1A.158.158,0,0,1-6.36-.64Zm10.2.08-.12.08.16.12A.445.445,0,0,0,3.84-.56ZM-5.4-.72h-.04v.2q.04,0,.04-.02t.04-.02a.178.178,0,0,0-.02-.08A.178.178,0,0,1-5.4-.72Zm8.56.48V-.28H3V-.2a.158.158,0,0,0,.1-.02A.081.081,0,0,1,3.16-.24ZM3.2-.76v-.28H3.16A1.685,1.685,0,0,0,3.2-.76Zm2.56-.6a1.685,1.685,0,0,0-.04.28h.04Zm-9.32.2.04-.04h-.12A.115.115,0,0,0-3.56-1.16Zm-1.2.72L-4.8-.4v.04l.04-.04Zm6.88-.68-.04-.04Z" transform="translate(1408 948)" fill="#b92454"/>
    </g>
    <g transform="translate(-1336.191 -944.896)">
      <path id="Path_3221-4" data-name="Path 3221" d="M-11.32,1.8l-.4-.44a14.775,14.775,0,0,0-.06-2.04,5.968,5.968,0,0,1,.14-2,1.415,1.415,0,0,1,.52-.28,2.175,2.175,0,0,1,.6-.08q1.08.04,2.16.02t2.2.02q1.28,0,2.52-.02t2.52-.06q.92,0,1.88-.02a17.487,17.487,0,0,1,1.88.06,5.535,5.535,0,0,0,1.24.02,7.652,7.652,0,0,1,1.24-.02q.92.04,1.86.02T8.84-3a1.382,1.382,0,0,1,.78.2.713.713,0,0,1,.3.64q.04.8.02,1.54T9.88.92a.755.755,0,0,1-.04.24,1.552,1.552,0,0,1-.08.2.8.8,0,0,1-.44.34,2.325,2.325,0,0,1-.56.06H5.8l-1.24.12H2.36l-3.72-.12H-4.04l-1.48.08q-.72.04-1.44.04-.68,0-1.38-.04T-9.72,1.8a5.125,5.125,0,0,0-.78-.02Q-10.88,1.8-11.32,1.8Zm9-3h-.4a1.144,1.144,0,0,1,0,.6.43.43,0,0,0,.16.48,2.577,2.577,0,0,1,.32.02,2.924,2.924,0,0,0,.36.02L-2-.48q-.32-.08-.22-.32A.313.313,0,0,0-2.32-1.2ZM1-.08Q.96-.76.56-.8L.08-.52a2.073,2.073,0,0,0,.38.46A1.049,1.049,0,0,0,1-.08Zm-1.12,0A.844.844,0,0,0-.34-.52q-.14-.12-.5,0L-.6,0Zm-1.4-.56.12-.6A.625.625,0,0,0-2-.48,2.48,2.48,0,0,1-1.52-.64Zm9.2-.28q-.36.36-.36.44A.356.356,0,0,0,7.68,0ZM4.56,0a1.194,1.194,0,0,0,.38-.06q.18-.06.3-.46a1,1,0,0,1-.46.18Q4.56-.32,4.56,0ZM3.84-1.2a.232.232,0,0,1-.04.16,2.434,2.434,0,0,1,.36.28,1.311,1.311,0,0,1,.16-.2.931.931,0,0,0,.16-.24Zm-11-.16q-.08.32-.12.5t-.08.38A1.487,1.487,0,0,1-7-.52Zm8.08.2a.445.445,0,0,0,.04.2,1.27,1.27,0,0,1,.36-.08l.16.48v-.72a.922.922,0,0,1-.32.08A.755.755,0,0,0,.92-1.16Zm1.24.04v.48L2.6-.72Zm-8.36.08.72.08a.888.888,0,0,0-.34-.24Q-5.96-1.24-6.2-1.04Zm8.44.8q0-.12-.04-.12L1.84-.6q-.04,0-.04.02t-.04.02l.28.36a.178.178,0,0,0,.08-.02A.279.279,0,0,1,2.24-.24Zm2,0a1.315,1.315,0,0,0-.32-.04V.16a2,2,0,0,0,.18-.2Q4.16-.12,4.24-.24ZM-4.4-.4q.32.36.44-.08A1.4,1.4,0,0,0-4.4-.4Zm2.88-.24a1.045,1.045,0,0,1,.16.22q.08.14.4-.06ZM-9.6-1a.445.445,0,0,0,.04-.2,1.213,1.213,0,0,1-.36-.04.232.232,0,0,1-.04.16A1.27,1.27,0,0,1-9.6-1Zm1.92.6.12-.12-.28-.2q0,.04-.08.12A1.138,1.138,0,0,0-7.68-.4ZM6.96,0a.081.081,0,0,1,.02-.06A.081.081,0,0,0,7-.12.7.7,0,0,0,6.8-.2a.05.05,0,0,0-.08,0,.163.163,0,0,1-.12.04.081.081,0,0,0,.02.06.081.081,0,0,1,.02.06A1.041,1.041,0,0,1,6.96,0Zm.08-1.12L6.96-1.2q-.04-.04-.12.04.08.08.08.12Q6.96-1.04,7.04-1.12ZM-9.04-.76h-.08v.24h.08Zm2.68.12a.115.115,0,0,1-.08.04.178.178,0,0,0,.02.08.178.178,0,0,1,.02.08h.08a.158.158,0,0,0-.02-.1A.158.158,0,0,1-6.36-.64Zm10.2.08-.12.08.16.12A.445.445,0,0,0,3.84-.56ZM-5.4-.72h-.04v.2q.04,0,.04-.02t.04-.02a.178.178,0,0,0-.02-.08A.178.178,0,0,1-5.4-.72Zm8.56.48V-.28H3V-.2a.158.158,0,0,0,.1-.02A.081.081,0,0,1,3.16-.24ZM3.2-.76v-.28H3.16A1.685,1.685,0,0,0,3.2-.76Zm2.56-.6a1.685,1.685,0,0,0-.04.28h.04Zm-9.32.2.04-.04h-.12A.115.115,0,0,0-3.56-1.16Zm-1.2.72L-4.8-.4v.04l.04-.04Zm6.88-.68-.04-.04Z" transform="translate(1408 948)" fill="#b92454"/>
    </g>
    <g transform="translate(-1316.191 -944.896)">
      <path id="Path_3221-5" data-name="Path 3221" d="M-11.32,1.8l-.4-.44a14.775,14.775,0,0,0-.06-2.04,5.968,5.968,0,0,1,.14-2,1.415,1.415,0,0,1,.52-.28,2.175,2.175,0,0,1,.6-.08q1.08.04,2.16.02t2.2.02q1.28,0,2.52-.02t2.52-.06q.92,0,1.88-.02a17.487,17.487,0,0,1,1.88.06,5.535,5.535,0,0,0,1.24.02,7.652,7.652,0,0,1,1.24-.02q.92.04,1.86.02T8.84-3a1.382,1.382,0,0,1,.78.2.713.713,0,0,1,.3.64q.04.8.02,1.54T9.88.92a.755.755,0,0,1-.04.24,1.552,1.552,0,0,1-.08.2.8.8,0,0,1-.44.34,2.325,2.325,0,0,1-.56.06H5.8l-1.24.12H2.36l-3.72-.12H-4.04l-1.48.08q-.72.04-1.44.04-.68,0-1.38-.04T-9.72,1.8a5.125,5.125,0,0,0-.78-.02Q-10.88,1.8-11.32,1.8Zm9-3h-.4a1.144,1.144,0,0,1,0,.6.43.43,0,0,0,.16.48,2.577,2.577,0,0,1,.32.02,2.924,2.924,0,0,0,.36.02L-2-.48q-.32-.08-.22-.32A.313.313,0,0,0-2.32-1.2ZM1-.08Q.96-.76.56-.8L.08-.52a2.073,2.073,0,0,0,.38.46A1.049,1.049,0,0,0,1-.08Zm-1.12,0A.844.844,0,0,0-.34-.52q-.14-.12-.5,0L-.6,0Zm-1.4-.56.12-.6A.625.625,0,0,0-2-.48,2.48,2.48,0,0,1-1.52-.64Zm9.2-.28q-.36.36-.36.44A.356.356,0,0,0,7.68,0ZM4.56,0a1.194,1.194,0,0,0,.38-.06q.18-.06.3-.46a1,1,0,0,1-.46.18Q4.56-.32,4.56,0ZM3.84-1.2a.232.232,0,0,1-.04.16,2.434,2.434,0,0,1,.36.28,1.311,1.311,0,0,1,.16-.2.931.931,0,0,0,.16-.24Zm-11-.16q-.08.32-.12.5t-.08.38A1.487,1.487,0,0,1-7-.52Zm8.08.2a.445.445,0,0,0,.04.2,1.27,1.27,0,0,1,.36-.08l.16.48v-.72a.922.922,0,0,1-.32.08A.755.755,0,0,0,.92-1.16Zm1.24.04v.48L2.6-.72Zm-8.36.08.72.08a.888.888,0,0,0-.34-.24Q-5.96-1.24-6.2-1.04Zm8.44.8q0-.12-.04-.12L1.84-.6q-.04,0-.04.02t-.04.02l.28.36a.178.178,0,0,0,.08-.02A.279.279,0,0,1,2.24-.24Zm2,0a1.315,1.315,0,0,0-.32-.04V.16a2,2,0,0,0,.18-.2Q4.16-.12,4.24-.24ZM-4.4-.4q.32.36.44-.08A1.4,1.4,0,0,0-4.4-.4Zm2.88-.24a1.045,1.045,0,0,1,.16.22q.08.14.4-.06ZM-9.6-1a.445.445,0,0,0,.04-.2,1.213,1.213,0,0,1-.36-.04.232.232,0,0,1-.04.16A1.27,1.27,0,0,1-9.6-1Zm1.92.6.12-.12-.28-.2q0,.04-.08.12A1.138,1.138,0,0,0-7.68-.4ZM6.96,0a.081.081,0,0,1,.02-.06A.081.081,0,0,0,7-.12.7.7,0,0,0,6.8-.2a.05.05,0,0,0-.08,0,.163.163,0,0,1-.12.04.081.081,0,0,0,.02.06.081.081,0,0,1,.02.06A1.041,1.041,0,0,1,6.96,0Zm.08-1.12L6.96-1.2q-.04-.04-.12.04.08.08.08.12Q6.96-1.04,7.04-1.12ZM-9.04-.76h-.08v.24h.08Zm2.68.12a.115.115,0,0,1-.08.04.178.178,0,0,0,.02.08.178.178,0,0,1,.02.08h.08a.158.158,0,0,0-.02-.1A.158.158,0,0,1-6.36-.64Zm10.2.08-.12.08.16.12A.445.445,0,0,0,3.84-.56ZM-5.4-.72h-.04v.2q.04,0,.04-.02t.04-.02a.178.178,0,0,0-.02-.08A.178.178,0,0,1-5.4-.72Zm8.56.48V-.28H3V-.2a.158.158,0,0,0,.1-.02A.081.081,0,0,1,3.16-.24ZM3.2-.76v-.28H3.16A1.685,1.685,0,0,0,3.2-.76Zm2.56-.6a1.685,1.685,0,0,0-.04.28h.04Zm-9.32.2.04-.04h-.12A.115.115,0,0,0-3.56-1.16Zm-1.2.72L-4.8-.4v.04l.04-.04Zm6.88-.68-.04-.04Z" transform="translate(1408 948)" fill="#b92454"/>
    </g>
    <g transform="translate(-1296.191 -944.896)">
      <path id="Path_3221-6" data-name="Path 3221" d="M-11.32,1.8l-.4-.44a14.775,14.775,0,0,0-.06-2.04,5.968,5.968,0,0,1,.14-2,1.415,1.415,0,0,1,.52-.28,2.175,2.175,0,0,1,.6-.08q1.08.04,2.16.02t2.2.02q1.28,0,2.52-.02t2.52-.06q.92,0,1.88-.02a17.487,17.487,0,0,1,1.88.06,5.535,5.535,0,0,0,1.24.02,7.652,7.652,0,0,1,1.24-.02q.92.04,1.86.02T8.84-3a1.382,1.382,0,0,1,.78.2.713.713,0,0,1,.3.64q.04.8.02,1.54T9.88.92a.755.755,0,0,1-.04.24,1.552,1.552,0,0,1-.08.2.8.8,0,0,1-.44.34,2.325,2.325,0,0,1-.56.06H5.8l-1.24.12H2.36l-3.72-.12H-4.04l-1.48.08q-.72.04-1.44.04-.68,0-1.38-.04T-9.72,1.8a5.125,5.125,0,0,0-.78-.02Q-10.88,1.8-11.32,1.8Zm9-3h-.4a1.144,1.144,0,0,1,0,.6.43.43,0,0,0,.16.48,2.577,2.577,0,0,1,.32.02,2.924,2.924,0,0,0,.36.02L-2-.48q-.32-.08-.22-.32A.313.313,0,0,0-2.32-1.2ZM1-.08Q.96-.76.56-.8L.08-.52a2.073,2.073,0,0,0,.38.46A1.049,1.049,0,0,0,1-.08Zm-1.12,0A.844.844,0,0,0-.34-.52q-.14-.12-.5,0L-.6,0Zm-1.4-.56.12-.6A.625.625,0,0,0-2-.48,2.48,2.48,0,0,1-1.52-.64Zm9.2-.28q-.36.36-.36.44A.356.356,0,0,0,7.68,0ZM4.56,0a1.194,1.194,0,0,0,.38-.06q.18-.06.3-.46a1,1,0,0,1-.46.18Q4.56-.32,4.56,0ZM3.84-1.2a.232.232,0,0,1-.04.16,2.434,2.434,0,0,1,.36.28,1.311,1.311,0,0,1,.16-.2.931.931,0,0,0,.16-.24Zm-11-.16q-.08.32-.12.5t-.08.38A1.487,1.487,0,0,1-7-.52Zm8.08.2a.445.445,0,0,0,.04.2,1.27,1.27,0,0,1,.36-.08l.16.48v-.72a.922.922,0,0,1-.32.08A.755.755,0,0,0,.92-1.16Zm1.24.04v.48L2.6-.72Zm-8.36.08.72.08a.888.888,0,0,0-.34-.24Q-5.96-1.24-6.2-1.04Zm8.44.8q0-.12-.04-.12L1.84-.6q-.04,0-.04.02t-.04.02l.28.36a.178.178,0,0,0,.08-.02A.279.279,0,0,1,2.24-.24Zm2,0a1.315,1.315,0,0,0-.32-.04V.16a2,2,0,0,0,.18-.2Q4.16-.12,4.24-.24ZM-4.4-.4q.32.36.44-.08A1.4,1.4,0,0,0-4.4-.4Zm2.88-.24a1.045,1.045,0,0,1,.16.22q.08.14.4-.06ZM-9.6-1a.445.445,0,0,0,.04-.2,1.213,1.213,0,0,1-.36-.04.232.232,0,0,1-.04.16A1.27,1.27,0,0,1-9.6-1Zm1.92.6.12-.12-.28-.2q0,.04-.08.12A1.138,1.138,0,0,0-7.68-.4ZM6.96,0a.081.081,0,0,1,.02-.06A.081.081,0,0,0,7-.12.7.7,0,0,0,6.8-.2a.05.05,0,0,0-.08,0,.163.163,0,0,1-.12.04.081.081,0,0,0,.02.06.081.081,0,0,1,.02.06A1.041,1.041,0,0,1,6.96,0Zm.08-1.12L6.96-1.2q-.04-.04-.12.04.08.08.08.12Q6.96-1.04,7.04-1.12ZM-9.04-.76h-.08v.24h.08Zm2.68.12a.115.115,0,0,1-.08.04.178.178,0,0,0,.02.08.178.178,0,0,1,.02.08h.08a.158.158,0,0,0-.02-.1A.158.158,0,0,1-6.36-.64Zm10.2.08-.12.08.16.12A.445.445,0,0,0,3.84-.56ZM-5.4-.72h-.04v.2q.04,0,.04-.02t.04-.02a.178.178,0,0,0-.02-.08A.178.178,0,0,1-5.4-.72Zm8.56.48V-.28H3V-.2a.158.158,0,0,0,.1-.02A.081.081,0,0,1,3.16-.24ZM3.2-.76v-.28H3.16A1.685,1.685,0,0,0,3.2-.76Zm2.56-.6a1.685,1.685,0,0,0-.04.28h.04Zm-9.32.2.04-.04h-.12A.115.115,0,0,0-3.56-1.16Zm-1.2.72L-4.8-.4v.04l.04-.04Zm6.88-.68-.04-.04Z" transform="translate(1408 948)" fill="#b92454"/>
    </g>
    <g transform="translate(-1276.191 -944.896)">
      <path id="Path_3221-7" data-name="Path 3221" d="M-11.32,1.8l-.4-.44a14.775,14.775,0,0,0-.06-2.04,5.968,5.968,0,0,1,.14-2,1.415,1.415,0,0,1,.52-.28,2.175,2.175,0,0,1,.6-.08q1.08.04,2.16.02t2.2.02q1.28,0,2.52-.02t2.52-.06q.92,0,1.88-.02a17.487,17.487,0,0,1,1.88.06,5.535,5.535,0,0,0,1.24.02,7.652,7.652,0,0,1,1.24-.02q.92.04,1.86.02T8.84-3a1.382,1.382,0,0,1,.78.2.713.713,0,0,1,.3.64q.04.8.02,1.54T9.88.92a.755.755,0,0,1-.04.24,1.552,1.552,0,0,1-.08.2.8.8,0,0,1-.44.34,2.325,2.325,0,0,1-.56.06H5.8l-1.24.12H2.36l-3.72-.12H-4.04l-1.48.08q-.72.04-1.44.04-.68,0-1.38-.04T-9.72,1.8a5.125,5.125,0,0,0-.78-.02Q-10.88,1.8-11.32,1.8Zm9-3h-.4a1.144,1.144,0,0,1,0,.6.43.43,0,0,0,.16.48,2.577,2.577,0,0,1,.32.02,2.924,2.924,0,0,0,.36.02L-2-.48q-.32-.08-.22-.32A.313.313,0,0,0-2.32-1.2ZM1-.08Q.96-.76.56-.8L.08-.52a2.073,2.073,0,0,0,.38.46A1.049,1.049,0,0,0,1-.08Zm-1.12,0A.844.844,0,0,0-.34-.52q-.14-.12-.5,0L-.6,0Zm-1.4-.56.12-.6A.625.625,0,0,0-2-.48,2.48,2.48,0,0,1-1.52-.64Zm9.2-.28q-.36.36-.36.44A.356.356,0,0,0,7.68,0ZM4.56,0a1.194,1.194,0,0,0,.38-.06q.18-.06.3-.46a1,1,0,0,1-.46.18Q4.56-.32,4.56,0ZM3.84-1.2a.232.232,0,0,1-.04.16,2.434,2.434,0,0,1,.36.28,1.311,1.311,0,0,1,.16-.2.931.931,0,0,0,.16-.24Zm-11-.16q-.08.32-.12.5t-.08.38A1.487,1.487,0,0,1-7-.52Zm8.08.2a.445.445,0,0,0,.04.2,1.27,1.27,0,0,1,.36-.08l.16.48v-.72a.922.922,0,0,1-.32.08A.755.755,0,0,0,.92-1.16Zm1.24.04v.48L2.6-.72Zm-8.36.08.72.08a.888.888,0,0,0-.34-.24Q-5.96-1.24-6.2-1.04Zm8.44.8q0-.12-.04-.12L1.84-.6q-.04,0-.04.02t-.04.02l.28.36a.178.178,0,0,0,.08-.02A.279.279,0,0,1,2.24-.24Zm2,0a1.315,1.315,0,0,0-.32-.04V.16a2,2,0,0,0,.18-.2Q4.16-.12,4.24-.24ZM-4.4-.4q.32.36.44-.08A1.4,1.4,0,0,0-4.4-.4Zm2.88-.24a1.045,1.045,0,0,1,.16.22q.08.14.4-.06ZM-9.6-1a.445.445,0,0,0,.04-.2,1.213,1.213,0,0,1-.36-.04.232.232,0,0,1-.04.16A1.27,1.27,0,0,1-9.6-1Zm1.92.6.12-.12-.28-.2q0,.04-.08.12A1.138,1.138,0,0,0-7.68-.4ZM6.96,0a.081.081,0,0,1,.02-.06A.081.081,0,0,0,7-.12.7.7,0,0,0,6.8-.2a.05.05,0,0,0-.08,0,.163.163,0,0,1-.12.04.081.081,0,0,0,.02.06.081.081,0,0,1,.02.06A1.041,1.041,0,0,1,6.96,0Zm.08-1.12L6.96-1.2q-.04-.04-.12.04.08.08.08.12Q6.96-1.04,7.04-1.12ZM-9.04-.76h-.08v.24h.08Zm2.68.12a.115.115,0,0,1-.08.04.178.178,0,0,0,.02.08.178.178,0,0,1,.02.08h.08a.158.158,0,0,0-.02-.1A.158.158,0,0,1-6.36-.64Zm10.2.08-.12.08.16.12A.445.445,0,0,0,3.84-.56ZM-5.4-.72h-.04v.2q.04,0,.04-.02t.04-.02a.178.178,0,0,0-.02-.08A.178.178,0,0,1-5.4-.72Zm8.56.48V-.28H3V-.2a.158.158,0,0,0,.1-.02A.081.081,0,0,1,3.16-.24ZM3.2-.76v-.28H3.16A1.685,1.685,0,0,0,3.2-.76Zm2.56-.6a1.685,1.685,0,0,0-.04.28h.04Zm-9.32.2.04-.04h-.12A.115.115,0,0,0-3.56-1.16Zm-1.2.72L-4.8-.4v.04l.04-.04Zm6.88-.68-.04-.04Z" transform="translate(1408 948)" fill="#b92454"/>
    </g>
    <g transform="translate(-1256.191 -944.896)">
      <path id="Path_3221-8" data-name="Path 3221" d="M-11.32,1.8l-.4-.44a14.775,14.775,0,0,0-.06-2.04,5.968,5.968,0,0,1,.14-2,1.415,1.415,0,0,1,.52-.28,2.175,2.175,0,0,1,.6-.08q1.08.04,2.16.02t2.2.02q1.28,0,2.52-.02t2.52-.06q.92,0,1.88-.02a17.487,17.487,0,0,1,1.88.06,5.535,5.535,0,0,0,1.24.02,7.652,7.652,0,0,1,1.24-.02q.92.04,1.86.02T8.84-3a1.382,1.382,0,0,1,.78.2.713.713,0,0,1,.3.64q.04.8.02,1.54T9.88.92a.755.755,0,0,1-.04.24,1.552,1.552,0,0,1-.08.2.8.8,0,0,1-.44.34,2.325,2.325,0,0,1-.56.06H5.8l-1.24.12H2.36l-3.72-.12H-4.04l-1.48.08q-.72.04-1.44.04-.68,0-1.38-.04T-9.72,1.8a5.125,5.125,0,0,0-.78-.02Q-10.88,1.8-11.32,1.8Zm9-3h-.4a1.144,1.144,0,0,1,0,.6.43.43,0,0,0,.16.48,2.577,2.577,0,0,1,.32.02,2.924,2.924,0,0,0,.36.02L-2-.48q-.32-.08-.22-.32A.313.313,0,0,0-2.32-1.2ZM1-.08Q.96-.76.56-.8L.08-.52a2.073,2.073,0,0,0,.38.46A1.049,1.049,0,0,0,1-.08Zm-1.12,0A.844.844,0,0,0-.34-.52q-.14-.12-.5,0L-.6,0Zm-1.4-.56.12-.6A.625.625,0,0,0-2-.48,2.48,2.48,0,0,1-1.52-.64Zm9.2-.28q-.36.36-.36.44A.356.356,0,0,0,7.68,0ZM4.56,0a1.194,1.194,0,0,0,.38-.06q.18-.06.3-.46a1,1,0,0,1-.46.18Q4.56-.32,4.56,0ZM3.84-1.2a.232.232,0,0,1-.04.16,2.434,2.434,0,0,1,.36.28,1.311,1.311,0,0,1,.16-.2.931.931,0,0,0,.16-.24Zm-11-.16q-.08.32-.12.5t-.08.38A1.487,1.487,0,0,1-7-.52Zm8.08.2a.445.445,0,0,0,.04.2,1.27,1.27,0,0,1,.36-.08l.16.48v-.72a.922.922,0,0,1-.32.08A.755.755,0,0,0,.92-1.16Zm1.24.04v.48L2.6-.72Zm-8.36.08.72.08a.888.888,0,0,0-.34-.24Q-5.96-1.24-6.2-1.04Zm8.44.8q0-.12-.04-.12L1.84-.6q-.04,0-.04.02t-.04.02l.28.36a.178.178,0,0,0,.08-.02A.279.279,0,0,1,2.24-.24Zm2,0a1.315,1.315,0,0,0-.32-.04V.16a2,2,0,0,0,.18-.2Q4.16-.12,4.24-.24ZM-4.4-.4q.32.36.44-.08A1.4,1.4,0,0,0-4.4-.4Zm2.88-.24a1.045,1.045,0,0,1,.16.22q.08.14.4-.06ZM-9.6-1a.445.445,0,0,0,.04-.2,1.213,1.213,0,0,1-.36-.04.232.232,0,0,1-.04.16A1.27,1.27,0,0,1-9.6-1Zm1.92.6.12-.12-.28-.2q0,.04-.08.12A1.138,1.138,0,0,0-7.68-.4ZM6.96,0a.081.081,0,0,1,.02-.06A.081.081,0,0,0,7-.12.7.7,0,0,0,6.8-.2a.05.05,0,0,0-.08,0,.163.163,0,0,1-.12.04.081.081,0,0,0,.02.06.081.081,0,0,1,.02.06A1.041,1.041,0,0,1,6.96,0Zm.08-1.12L6.96-1.2q-.04-.04-.12.04.08.08.08.12Q6.96-1.04,7.04-1.12ZM-9.04-.76h-.08v.24h.08Zm2.68.12a.115.115,0,0,1-.08.04.178.178,0,0,0,.02.08.178.178,0,0,1,.02.08h.08a.158.158,0,0,0-.02-.1A.158.158,0,0,1-6.36-.64Zm10.2.08-.12.08.16.12A.445.445,0,0,0,3.84-.56ZM-5.4-.72h-.04v.2q.04,0,.04-.02t.04-.02a.178.178,0,0,0-.02-.08A.178.178,0,0,1-5.4-.72Zm8.56.48V-.28H3V-.2a.158.158,0,0,0,.1-.02A.081.081,0,0,1,3.16-.24ZM3.2-.76v-.28H3.16A1.685,1.685,0,0,0,3.2-.76Zm2.56-.6a1.685,1.685,0,0,0-.04.28h.04Zm-9.32.2.04-.04h-.12A.115.115,0,0,0-3.56-1.16Zm-1.2.72L-4.8-.4v.04l.04-.04Zm6.88-.68-.04-.04Z" transform="translate(1408 948)" fill="#b92454"/>
    </g>
    <g transform="translate(-1236.191 -944.896)">
      <path id="Path_3221-9" data-name="Path 3221" d="M-11.32,1.8l-.4-.44a14.775,14.775,0,0,0-.06-2.04,5.968,5.968,0,0,1,.14-2,1.415,1.415,0,0,1,.52-.28,2.175,2.175,0,0,1,.6-.08q1.08.04,2.16.02t2.2.02q1.28,0,2.52-.02t2.52-.06q.92,0,1.88-.02a17.487,17.487,0,0,1,1.88.06,5.535,5.535,0,0,0,1.24.02,7.652,7.652,0,0,1,1.24-.02q.92.04,1.86.02T8.84-3a1.382,1.382,0,0,1,.78.2.713.713,0,0,1,.3.64q.04.8.02,1.54T9.88.92a.755.755,0,0,1-.04.24,1.552,1.552,0,0,1-.08.2.8.8,0,0,1-.44.34,2.325,2.325,0,0,1-.56.06H5.8l-1.24.12H2.36l-3.72-.12H-4.04l-1.48.08q-.72.04-1.44.04-.68,0-1.38-.04T-9.72,1.8a5.125,5.125,0,0,0-.78-.02Q-10.88,1.8-11.32,1.8Zm9-3h-.4a1.144,1.144,0,0,1,0,.6.43.43,0,0,0,.16.48,2.577,2.577,0,0,1,.32.02,2.924,2.924,0,0,0,.36.02L-2-.48q-.32-.08-.22-.32A.313.313,0,0,0-2.32-1.2ZM1-.08Q.96-.76.56-.8L.08-.52a2.073,2.073,0,0,0,.38.46A1.049,1.049,0,0,0,1-.08Zm-1.12,0A.844.844,0,0,0-.34-.52q-.14-.12-.5,0L-.6,0Zm-1.4-.56.12-.6A.625.625,0,0,0-2-.48,2.48,2.48,0,0,1-1.52-.64Zm9.2-.28q-.36.36-.36.44A.356.356,0,0,0,7.68,0ZM4.56,0a1.194,1.194,0,0,0,.38-.06q.18-.06.3-.46a1,1,0,0,1-.46.18Q4.56-.32,4.56,0ZM3.84-1.2a.232.232,0,0,1-.04.16,2.434,2.434,0,0,1,.36.28,1.311,1.311,0,0,1,.16-.2.931.931,0,0,0,.16-.24Zm-11-.16q-.08.32-.12.5t-.08.38A1.487,1.487,0,0,1-7-.52Zm8.08.2a.445.445,0,0,0,.04.2,1.27,1.27,0,0,1,.36-.08l.16.48v-.72a.922.922,0,0,1-.32.08A.755.755,0,0,0,.92-1.16Zm1.24.04v.48L2.6-.72Zm-8.36.08.72.08a.888.888,0,0,0-.34-.24Q-5.96-1.24-6.2-1.04Zm8.44.8q0-.12-.04-.12L1.84-.6q-.04,0-.04.02t-.04.02l.28.36a.178.178,0,0,0,.08-.02A.279.279,0,0,1,2.24-.24Zm2,0a1.315,1.315,0,0,0-.32-.04V.16a2,2,0,0,0,.18-.2Q4.16-.12,4.24-.24ZM-4.4-.4q.32.36.44-.08A1.4,1.4,0,0,0-4.4-.4Zm2.88-.24a1.045,1.045,0,0,1,.16.22q.08.14.4-.06ZM-9.6-1a.445.445,0,0,0,.04-.2,1.213,1.213,0,0,1-.36-.04.232.232,0,0,1-.04.16A1.27,1.27,0,0,1-9.6-1Zm1.92.6.12-.12-.28-.2q0,.04-.08.12A1.138,1.138,0,0,0-7.68-.4ZM6.96,0a.081.081,0,0,1,.02-.06A.081.081,0,0,0,7-.12.7.7,0,0,0,6.8-.2a.05.05,0,0,0-.08,0,.163.163,0,0,1-.12.04.081.081,0,0,0,.02.06.081.081,0,0,1,.02.06A1.041,1.041,0,0,1,6.96,0Zm.08-1.12L6.96-1.2q-.04-.04-.12.04.08.08.08.12Q6.96-1.04,7.04-1.12ZM-9.04-.76h-.08v.24h.08Zm2.68.12a.115.115,0,0,1-.08.04.178.178,0,0,0,.02.08.178.178,0,0,1,.02.08h.08a.158.158,0,0,0-.02-.1A.158.158,0,0,1-6.36-.64Zm10.2.08-.12.08.16.12A.445.445,0,0,0,3.84-.56ZM-5.4-.72h-.04v.2q.04,0,.04-.02t.04-.02a.178.178,0,0,0-.02-.08A.178.178,0,0,1-5.4-.72Zm8.56.48V-.28H3V-.2a.158.158,0,0,0,.1-.02A.081.081,0,0,1,3.16-.24ZM3.2-.76v-.28H3.16A1.685,1.685,0,0,0,3.2-.76Zm2.56-.6a1.685,1.685,0,0,0-.04.28h.04Zm-9.32.2.04-.04h-.12A.115.115,0,0,0-3.56-1.16Zm-1.2.72L-4.8-.4v.04l.04-.04Zm6.88-.68-.04-.04Z" transform="translate(1408 948)" fill="#b92454"/>
    </g>
    <g transform="translate(-1216.191 -944.896)">
      <path id="Path_3221-10" data-name="Path 3221" d="M-11.32,1.8l-.4-.44a14.775,14.775,0,0,0-.06-2.04,5.968,5.968,0,0,1,.14-2,1.415,1.415,0,0,1,.52-.28,2.175,2.175,0,0,1,.6-.08q1.08.04,2.16.02t2.2.02q1.28,0,2.52-.02t2.52-.06q.92,0,1.88-.02a17.487,17.487,0,0,1,1.88.06,5.535,5.535,0,0,0,1.24.02,7.652,7.652,0,0,1,1.24-.02q.92.04,1.86.02T8.84-3a1.382,1.382,0,0,1,.78.2.713.713,0,0,1,.3.64q.04.8.02,1.54T9.88.92a.755.755,0,0,1-.04.24,1.552,1.552,0,0,1-.08.2.8.8,0,0,1-.44.34,2.325,2.325,0,0,1-.56.06H5.8l-1.24.12H2.36l-3.72-.12H-4.04l-1.48.08q-.72.04-1.44.04-.68,0-1.38-.04T-9.72,1.8a5.125,5.125,0,0,0-.78-.02Q-10.88,1.8-11.32,1.8Zm9-3h-.4a1.144,1.144,0,0,1,0,.6.43.43,0,0,0,.16.48,2.577,2.577,0,0,1,.32.02,2.924,2.924,0,0,0,.36.02L-2-.48q-.32-.08-.22-.32A.313.313,0,0,0-2.32-1.2ZM1-.08Q.96-.76.56-.8L.08-.52a2.073,2.073,0,0,0,.38.46A1.049,1.049,0,0,0,1-.08Zm-1.12,0A.844.844,0,0,0-.34-.52q-.14-.12-.5,0L-.6,0Zm-1.4-.56.12-.6A.625.625,0,0,0-2-.48,2.48,2.48,0,0,1-1.52-.64Zm9.2-.28q-.36.36-.36.44A.356.356,0,0,0,7.68,0ZM4.56,0a1.194,1.194,0,0,0,.38-.06q.18-.06.3-.46a1,1,0,0,1-.46.18Q4.56-.32,4.56,0ZM3.84-1.2a.232.232,0,0,1-.04.16,2.434,2.434,0,0,1,.36.28,1.311,1.311,0,0,1,.16-.2.931.931,0,0,0,.16-.24Zm-11-.16q-.08.32-.12.5t-.08.38A1.487,1.487,0,0,1-7-.52Zm8.08.2a.445.445,0,0,0,.04.2,1.27,1.27,0,0,1,.36-.08l.16.48v-.72a.922.922,0,0,1-.32.08A.755.755,0,0,0,.92-1.16Zm1.24.04v.48L2.6-.72Zm-8.36.08.72.08a.888.888,0,0,0-.34-.24Q-5.96-1.24-6.2-1.04Zm8.44.8q0-.12-.04-.12L1.84-.6q-.04,0-.04.02t-.04.02l.28.36a.178.178,0,0,0,.08-.02A.279.279,0,0,1,2.24-.24Zm2,0a1.315,1.315,0,0,0-.32-.04V.16a2,2,0,0,0,.18-.2Q4.16-.12,4.24-.24ZM-4.4-.4q.32.36.44-.08A1.4,1.4,0,0,0-4.4-.4Zm2.88-.24a1.045,1.045,0,0,1,.16.22q.08.14.4-.06ZM-9.6-1a.445.445,0,0,0,.04-.2,1.213,1.213,0,0,1-.36-.04.232.232,0,0,1-.04.16A1.27,1.27,0,0,1-9.6-1Zm1.92.6.12-.12-.28-.2q0,.04-.08.12A1.138,1.138,0,0,0-7.68-.4ZM6.96,0a.081.081,0,0,1,.02-.06A.081.081,0,0,0,7-.12.7.7,0,0,0,6.8-.2a.05.05,0,0,0-.08,0,.163.163,0,0,1-.12.04.081.081,0,0,0,.02.06.081.081,0,0,1,.02.06A1.041,1.041,0,0,1,6.96,0Zm.08-1.12L6.96-1.2q-.04-.04-.12.04.08.08.08.12Q6.96-1.04,7.04-1.12ZM-9.04-.76h-.08v.24h.08Zm2.68.12a.115.115,0,0,1-.08.04.178.178,0,0,0,.02.08.178.178,0,0,1,.02.08h.08a.158.158,0,0,0-.02-.1A.158.158,0,0,1-6.36-.64Zm10.2.08-.12.08.16.12A.445.445,0,0,0,3.84-.56ZM-5.4-.72h-.04v.2q.04,0,.04-.02t.04-.02a.178.178,0,0,0-.02-.08A.178.178,0,0,1-5.4-.72Zm8.56.48V-.28H3V-.2a.158.158,0,0,0,.1-.02A.081.081,0,0,1,3.16-.24ZM3.2-.76v-.28H3.16A1.685,1.685,0,0,0,3.2-.76Zm2.56-.6a1.685,1.685,0,0,0-.04.28h.04Zm-9.32.2.04-.04h-.12A.115.115,0,0,0-3.56-1.16Zm-1.2.72L-4.8-.4v.04l.04-.04Zm6.88-.68-.04-.04Z" transform="translate(1408 948)" fill="#b92454"/>
    </g>
    <g transform="translate(-1196.191 -944.896)">
      <path id="Path_3221-11" data-name="Path 3221" d="M-11.32,1.8l-.4-.44a14.775,14.775,0,0,0-.06-2.04,5.968,5.968,0,0,1,.14-2,1.415,1.415,0,0,1,.52-.28,2.175,2.175,0,0,1,.6-.08q1.08.04,2.16.02t2.2.02q1.28,0,2.52-.02t2.52-.06q.92,0,1.88-.02a17.487,17.487,0,0,1,1.88.06,5.535,5.535,0,0,0,1.24.02,7.652,7.652,0,0,1,1.24-.02q.92.04,1.86.02T8.84-3a1.382,1.382,0,0,1,.78.2.713.713,0,0,1,.3.64q.04.8.02,1.54T9.88.92a.755.755,0,0,1-.04.24,1.552,1.552,0,0,1-.08.2.8.8,0,0,1-.44.34,2.325,2.325,0,0,1-.56.06H5.8l-1.24.12H2.36l-3.72-.12H-4.04l-1.48.08q-.72.04-1.44.04-.68,0-1.38-.04T-9.72,1.8a5.125,5.125,0,0,0-.78-.02Q-10.88,1.8-11.32,1.8Zm9-3h-.4a1.144,1.144,0,0,1,0,.6.43.43,0,0,0,.16.48,2.577,2.577,0,0,1,.32.02,2.924,2.924,0,0,0,.36.02L-2-.48q-.32-.08-.22-.32A.313.313,0,0,0-2.32-1.2ZM1-.08Q.96-.76.56-.8L.08-.52a2.073,2.073,0,0,0,.38.46A1.049,1.049,0,0,0,1-.08Zm-1.12,0A.844.844,0,0,0-.34-.52q-.14-.12-.5,0L-.6,0Zm-1.4-.56.12-.6A.625.625,0,0,0-2-.48,2.48,2.48,0,0,1-1.52-.64Zm9.2-.28q-.36.36-.36.44A.356.356,0,0,0,7.68,0ZM4.56,0a1.194,1.194,0,0,0,.38-.06q.18-.06.3-.46a1,1,0,0,1-.46.18Q4.56-.32,4.56,0ZM3.84-1.2a.232.232,0,0,1-.04.16,2.434,2.434,0,0,1,.36.28,1.311,1.311,0,0,1,.16-.2.931.931,0,0,0,.16-.24Zm-11-.16q-.08.32-.12.5t-.08.38A1.487,1.487,0,0,1-7-.52Zm8.08.2a.445.445,0,0,0,.04.2,1.27,1.27,0,0,1,.36-.08l.16.48v-.72a.922.922,0,0,1-.32.08A.755.755,0,0,0,.92-1.16Zm1.24.04v.48L2.6-.72Zm-8.36.08.72.08a.888.888,0,0,0-.34-.24Q-5.96-1.24-6.2-1.04Zm8.44.8q0-.12-.04-.12L1.84-.6q-.04,0-.04.02t-.04.02l.28.36a.178.178,0,0,0,.08-.02A.279.279,0,0,1,2.24-.24Zm2,0a1.315,1.315,0,0,0-.32-.04V.16a2,2,0,0,0,.18-.2Q4.16-.12,4.24-.24ZM-4.4-.4q.32.36.44-.08A1.4,1.4,0,0,0-4.4-.4Zm2.88-.24a1.045,1.045,0,0,1,.16.22q.08.14.4-.06ZM-9.6-1a.445.445,0,0,0,.04-.2,1.213,1.213,0,0,1-.36-.04.232.232,0,0,1-.04.16A1.27,1.27,0,0,1-9.6-1Zm1.92.6.12-.12-.28-.2q0,.04-.08.12A1.138,1.138,0,0,0-7.68-.4ZM6.96,0a.081.081,0,0,1,.02-.06A.081.081,0,0,0,7-.12.7.7,0,0,0,6.8-.2a.05.05,0,0,0-.08,0,.163.163,0,0,1-.12.04.081.081,0,0,0,.02.06.081.081,0,0,1,.02.06A1.041,1.041,0,0,1,6.96,0Zm.08-1.12L6.96-1.2q-.04-.04-.12.04.08.08.08.12Q6.96-1.04,7.04-1.12ZM-9.04-.76h-.08v.24h.08Zm2.68.12a.115.115,0,0,1-.08.04.178.178,0,0,0,.02.08.178.178,0,0,1,.02.08h.08a.158.158,0,0,0-.02-.1A.158.158,0,0,1-6.36-.64Zm10.2.08-.12.08.16.12A.445.445,0,0,0,3.84-.56ZM-5.4-.72h-.04v.2q.04,0,.04-.02t.04-.02a.178.178,0,0,0-.02-.08A.178.178,0,0,1-5.4-.72Zm8.56.48V-.28H3V-.2a.158.158,0,0,0,.1-.02A.081.081,0,0,1,3.16-.24ZM3.2-.76v-.28H3.16A1.685,1.685,0,0,0,3.2-.76Zm2.56-.6a1.685,1.685,0,0,0-.04.28h.04Zm-9.32.2.04-.04h-.12A.115.115,0,0,0-3.56-1.16Zm-1.2.72L-4.8-.4v.04l.04-.04Zm6.88-.68-.04-.04Z" transform="translate(1408 948)" fill="#b92454"/>
    </g>
    <g transform="translate(-1176.191 -944.896)">
      <path id="Path_3221-12" data-name="Path 3221" d="M-11.32,1.8l-.4-.44a14.775,14.775,0,0,0-.06-2.04,5.968,5.968,0,0,1,.14-2,1.415,1.415,0,0,1,.52-.28,2.175,2.175,0,0,1,.6-.08q1.08.04,2.16.02t2.2.02q1.28,0,2.52-.02t2.52-.06q.92,0,1.88-.02a17.487,17.487,0,0,1,1.88.06,5.535,5.535,0,0,0,1.24.02,7.652,7.652,0,0,1,1.24-.02q.92.04,1.86.02T8.84-3a1.382,1.382,0,0,1,.78.2.713.713,0,0,1,.3.64q.04.8.02,1.54T9.88.92a.755.755,0,0,1-.04.24,1.552,1.552,0,0,1-.08.2.8.8,0,0,1-.44.34,2.325,2.325,0,0,1-.56.06H5.8l-1.24.12H2.36l-3.72-.12H-4.04l-1.48.08q-.72.04-1.44.04-.68,0-1.38-.04T-9.72,1.8a5.125,5.125,0,0,0-.78-.02Q-10.88,1.8-11.32,1.8Zm9-3h-.4a1.144,1.144,0,0,1,0,.6.43.43,0,0,0,.16.48,2.577,2.577,0,0,1,.32.02,2.924,2.924,0,0,0,.36.02L-2-.48q-.32-.08-.22-.32A.313.313,0,0,0-2.32-1.2ZM1-.08Q.96-.76.56-.8L.08-.52a2.073,2.073,0,0,0,.38.46A1.049,1.049,0,0,0,1-.08Zm-1.12,0A.844.844,0,0,0-.34-.52q-.14-.12-.5,0L-.6,0Zm-1.4-.56.12-.6A.625.625,0,0,0-2-.48,2.48,2.48,0,0,1-1.52-.64Zm9.2-.28q-.36.36-.36.44A.356.356,0,0,0,7.68,0ZM4.56,0a1.194,1.194,0,0,0,.38-.06q.18-.06.3-.46a1,1,0,0,1-.46.18Q4.56-.32,4.56,0ZM3.84-1.2a.232.232,0,0,1-.04.16,2.434,2.434,0,0,1,.36.28,1.311,1.311,0,0,1,.16-.2.931.931,0,0,0,.16-.24Zm-11-.16q-.08.32-.12.5t-.08.38A1.487,1.487,0,0,1-7-.52Zm8.08.2a.445.445,0,0,0,.04.2,1.27,1.27,0,0,1,.36-.08l.16.48v-.72a.922.922,0,0,1-.32.08A.755.755,0,0,0,.92-1.16Zm1.24.04v.48L2.6-.72Zm-8.36.08.72.08a.888.888,0,0,0-.34-.24Q-5.96-1.24-6.2-1.04Zm8.44.8q0-.12-.04-.12L1.84-.6q-.04,0-.04.02t-.04.02l.28.36a.178.178,0,0,0,.08-.02A.279.279,0,0,1,2.24-.24Zm2,0a1.315,1.315,0,0,0-.32-.04V.16a2,2,0,0,0,.18-.2Q4.16-.12,4.24-.24ZM-4.4-.4q.32.36.44-.08A1.4,1.4,0,0,0-4.4-.4Zm2.88-.24a1.045,1.045,0,0,1,.16.22q.08.14.4-.06ZM-9.6-1a.445.445,0,0,0,.04-.2,1.213,1.213,0,0,1-.36-.04.232.232,0,0,1-.04.16A1.27,1.27,0,0,1-9.6-1Zm1.92.6.12-.12-.28-.2q0,.04-.08.12A1.138,1.138,0,0,0-7.68-.4ZM6.96,0a.081.081,0,0,1,.02-.06A.081.081,0,0,0,7-.12.7.7,0,0,0,6.8-.2a.05.05,0,0,0-.08,0,.163.163,0,0,1-.12.04.081.081,0,0,0,.02.06.081.081,0,0,1,.02.06A1.041,1.041,0,0,1,6.96,0Zm.08-1.12L6.96-1.2q-.04-.04-.12.04.08.08.08.12Q6.96-1.04,7.04-1.12ZM-9.04-.76h-.08v.24h.08Zm2.68.12a.115.115,0,0,1-.08.04.178.178,0,0,0,.02.08.178.178,0,0,1,.02.08h.08a.158.158,0,0,0-.02-.1A.158.158,0,0,1-6.36-.64Zm10.2.08-.12.08.16.12A.445.445,0,0,0,3.84-.56ZM-5.4-.72h-.04v.2q.04,0,.04-.02t.04-.02a.178.178,0,0,0-.02-.08A.178.178,0,0,1-5.4-.72Zm8.56.48V-.28H3V-.2a.158.158,0,0,0,.1-.02A.081.081,0,0,1,3.16-.24ZM3.2-.76v-.28H3.16A1.685,1.685,0,0,0,3.2-.76Zm2.56-.6a1.685,1.685,0,0,0-.04.28h.04Zm-9.32.2.04-.04h-.12A.115.115,0,0,0-3.56-1.16Zm-1.2.72L-4.8-.4v.04l.04-.04Zm6.88-.68-.04-.04Z" transform="translate(1408 948)" fill="#b92454"/>
    </g>
    <g transform="translate(-1156.191 -944.896)">
      <path id="Path_3221-13" data-name="Path 3221" d="M-11.32,1.8l-.4-.44a14.775,14.775,0,0,0-.06-2.04,5.968,5.968,0,0,1,.14-2,1.415,1.415,0,0,1,.52-.28,2.175,2.175,0,0,1,.6-.08q1.08.04,2.16.02t2.2.02q1.28,0,2.52-.02t2.52-.06q.92,0,1.88-.02a17.487,17.487,0,0,1,1.88.06,5.535,5.535,0,0,0,1.24.02,7.652,7.652,0,0,1,1.24-.02q.92.04,1.86.02T8.84-3a1.382,1.382,0,0,1,.78.2.713.713,0,0,1,.3.64q.04.8.02,1.54T9.88.92a.755.755,0,0,1-.04.24,1.552,1.552,0,0,1-.08.2.8.8,0,0,1-.44.34,2.325,2.325,0,0,1-.56.06H5.8l-1.24.12H2.36l-3.72-.12H-4.04l-1.48.08q-.72.04-1.44.04-.68,0-1.38-.04T-9.72,1.8a5.125,5.125,0,0,0-.78-.02Q-10.88,1.8-11.32,1.8Zm9-3h-.4a1.144,1.144,0,0,1,0,.6.43.43,0,0,0,.16.48,2.577,2.577,0,0,1,.32.02,2.924,2.924,0,0,0,.36.02L-2-.48q-.32-.08-.22-.32A.313.313,0,0,0-2.32-1.2ZM1-.08Q.96-.76.56-.8L.08-.52a2.073,2.073,0,0,0,.38.46A1.049,1.049,0,0,0,1-.08Zm-1.12,0A.844.844,0,0,0-.34-.52q-.14-.12-.5,0L-.6,0Zm-1.4-.56.12-.6A.625.625,0,0,0-2-.48,2.48,2.48,0,0,1-1.52-.64Zm9.2-.28q-.36.36-.36.44A.356.356,0,0,0,7.68,0ZM4.56,0a1.194,1.194,0,0,0,.38-.06q.18-.06.3-.46a1,1,0,0,1-.46.18Q4.56-.32,4.56,0ZM3.84-1.2a.232.232,0,0,1-.04.16,2.434,2.434,0,0,1,.36.28,1.311,1.311,0,0,1,.16-.2.931.931,0,0,0,.16-.24Zm-11-.16q-.08.32-.12.5t-.08.38A1.487,1.487,0,0,1-7-.52Zm8.08.2a.445.445,0,0,0,.04.2,1.27,1.27,0,0,1,.36-.08l.16.48v-.72a.922.922,0,0,1-.32.08A.755.755,0,0,0,.92-1.16Zm1.24.04v.48L2.6-.72Zm-8.36.08.72.08a.888.888,0,0,0-.34-.24Q-5.96-1.24-6.2-1.04Zm8.44.8q0-.12-.04-.12L1.84-.6q-.04,0-.04.02t-.04.02l.28.36a.178.178,0,0,0,.08-.02A.279.279,0,0,1,2.24-.24Zm2,0a1.315,1.315,0,0,0-.32-.04V.16a2,2,0,0,0,.18-.2Q4.16-.12,4.24-.24ZM-4.4-.4q.32.36.44-.08A1.4,1.4,0,0,0-4.4-.4Zm2.88-.24a1.045,1.045,0,0,1,.16.22q.08.14.4-.06ZM-9.6-1a.445.445,0,0,0,.04-.2,1.213,1.213,0,0,1-.36-.04.232.232,0,0,1-.04.16A1.27,1.27,0,0,1-9.6-1Zm1.92.6.12-.12-.28-.2q0,.04-.08.12A1.138,1.138,0,0,0-7.68-.4ZM6.96,0a.081.081,0,0,1,.02-.06A.081.081,0,0,0,7-.12.7.7,0,0,0,6.8-.2a.05.05,0,0,0-.08,0,.163.163,0,0,1-.12.04.081.081,0,0,0,.02.06.081.081,0,0,1,.02.06A1.041,1.041,0,0,1,6.96,0Zm.08-1.12L6.96-1.2q-.04-.04-.12.04.08.08.08.12Q6.96-1.04,7.04-1.12ZM-9.04-.76h-.08v.24h.08Zm2.68.12a.115.115,0,0,1-.08.04.178.178,0,0,0,.02.08.178.178,0,0,1,.02.08h.08a.158.158,0,0,0-.02-.1A.158.158,0,0,1-6.36-.64Zm10.2.08-.12.08.16.12A.445.445,0,0,0,3.84-.56ZM-5.4-.72h-.04v.2q.04,0,.04-.02t.04-.02a.178.178,0,0,0-.02-.08A.178.178,0,0,1-5.4-.72Zm8.56.48V-.28H3V-.2a.158.158,0,0,0,.1-.02A.081.081,0,0,1,3.16-.24ZM3.2-.76v-.28H3.16A1.685,1.685,0,0,0,3.2-.76Zm2.56-.6a1.685,1.685,0,0,0-.04.28h.04Zm-9.32.2.04-.04h-.12A.115.115,0,0,0-3.56-1.16Zm-1.2.72L-4.8-.4v.04l.04-.04Zm6.88-.68-.04-.04Z" transform="translate(1408 948)" fill="#b92454"/>
    </g>
    <g transform="translate(-1136.191 -944.896)">
      <path id="Path_3221-14" data-name="Path 3221" d="M-11.32,1.8l-.4-.44a14.775,14.775,0,0,0-.06-2.04,5.968,5.968,0,0,1,.14-2,1.415,1.415,0,0,1,.52-.28,2.175,2.175,0,0,1,.6-.08q1.08.04,2.16.02t2.2.02q1.28,0,2.52-.02t2.52-.06q.92,0,1.88-.02a17.487,17.487,0,0,1,1.88.06,5.535,5.535,0,0,0,1.24.02,7.652,7.652,0,0,1,1.24-.02q.92.04,1.86.02T8.84-3a1.382,1.382,0,0,1,.78.2.713.713,0,0,1,.3.64q.04.8.02,1.54T9.88.92a.755.755,0,0,1-.04.24,1.552,1.552,0,0,1-.08.2.8.8,0,0,1-.44.34,2.325,2.325,0,0,1-.56.06H5.8l-1.24.12H2.36l-3.72-.12H-4.04l-1.48.08q-.72.04-1.44.04-.68,0-1.38-.04T-9.72,1.8a5.125,5.125,0,0,0-.78-.02Q-10.88,1.8-11.32,1.8Zm9-3h-.4a1.144,1.144,0,0,1,0,.6.43.43,0,0,0,.16.48,2.577,2.577,0,0,1,.32.02,2.924,2.924,0,0,0,.36.02L-2-.48q-.32-.08-.22-.32A.313.313,0,0,0-2.32-1.2ZM1-.08Q.96-.76.56-.8L.08-.52a2.073,2.073,0,0,0,.38.46A1.049,1.049,0,0,0,1-.08Zm-1.12,0A.844.844,0,0,0-.34-.52q-.14-.12-.5,0L-.6,0Zm-1.4-.56.12-.6A.625.625,0,0,0-2-.48,2.48,2.48,0,0,1-1.52-.64Zm9.2-.28q-.36.36-.36.44A.356.356,0,0,0,7.68,0ZM4.56,0a1.194,1.194,0,0,0,.38-.06q.18-.06.3-.46a1,1,0,0,1-.46.18Q4.56-.32,4.56,0ZM3.84-1.2a.232.232,0,0,1-.04.16,2.434,2.434,0,0,1,.36.28,1.311,1.311,0,0,1,.16-.2.931.931,0,0,0,.16-.24Zm-11-.16q-.08.32-.12.5t-.08.38A1.487,1.487,0,0,1-7-.52Zm8.08.2a.445.445,0,0,0,.04.2,1.27,1.27,0,0,1,.36-.08l.16.48v-.72a.922.922,0,0,1-.32.08A.755.755,0,0,0,.92-1.16Zm1.24.04v.48L2.6-.72Zm-8.36.08.72.08a.888.888,0,0,0-.34-.24Q-5.96-1.24-6.2-1.04Zm8.44.8q0-.12-.04-.12L1.84-.6q-.04,0-.04.02t-.04.02l.28.36a.178.178,0,0,0,.08-.02A.279.279,0,0,1,2.24-.24Zm2,0a1.315,1.315,0,0,0-.32-.04V.16a2,2,0,0,0,.18-.2Q4.16-.12,4.24-.24ZM-4.4-.4q.32.36.44-.08A1.4,1.4,0,0,0-4.4-.4Zm2.88-.24a1.045,1.045,0,0,1,.16.22q.08.14.4-.06ZM-9.6-1a.445.445,0,0,0,.04-.2,1.213,1.213,0,0,1-.36-.04.232.232,0,0,1-.04.16A1.27,1.27,0,0,1-9.6-1Zm1.92.6.12-.12-.28-.2q0,.04-.08.12A1.138,1.138,0,0,0-7.68-.4ZM6.96,0a.081.081,0,0,1,.02-.06A.081.081,0,0,0,7-.12.7.7,0,0,0,6.8-.2a.05.05,0,0,0-.08,0,.163.163,0,0,1-.12.04.081.081,0,0,0,.02.06.081.081,0,0,1,.02.06A1.041,1.041,0,0,1,6.96,0Zm.08-1.12L6.96-1.2q-.04-.04-.12.04.08.08.08.12Q6.96-1.04,7.04-1.12ZM-9.04-.76h-.08v.24h.08Zm2.68.12a.115.115,0,0,1-.08.04.178.178,0,0,0,.02.08.178.178,0,0,1,.02.08h.08a.158.158,0,0,0-.02-.1A.158.158,0,0,1-6.36-.64Zm10.2.08-.12.08.16.12A.445.445,0,0,0,3.84-.56ZM-5.4-.72h-.04v.2q.04,0,.04-.02t.04-.02a.178.178,0,0,0-.02-.08A.178.178,0,0,1-5.4-.72Zm8.56.48V-.28H3V-.2a.158.158,0,0,0,.1-.02A.081.081,0,0,1,3.16-.24ZM3.2-.76v-.28H3.16A1.685,1.685,0,0,0,3.2-.76Zm2.56-.6a1.685,1.685,0,0,0-.04.28h.04Zm-9.32.2.04-.04h-.12A.115.115,0,0,0-3.56-1.16Zm-1.2.72L-4.8-.4v.04l.04-.04Zm6.88-.68-.04-.04Z" transform="translate(1408 948)" fill="#b92454"/>
    </g>
    <g transform="translate(-1116.191 -944.896)">
      <path id="Path_3221-15" data-name="Path 3221" d="M-11.32,1.8l-.4-.44a14.775,14.775,0,0,0-.06-2.04,5.968,5.968,0,0,1,.14-2,1.415,1.415,0,0,1,.52-.28,2.175,2.175,0,0,1,.6-.08q1.08.04,2.16.02t2.2.02q1.28,0,2.52-.02t2.52-.06q.92,0,1.88-.02a17.487,17.487,0,0,1,1.88.06,5.535,5.535,0,0,0,1.24.02,7.652,7.652,0,0,1,1.24-.02q.92.04,1.86.02T8.84-3a1.382,1.382,0,0,1,.78.2.713.713,0,0,1,.3.64q.04.8.02,1.54T9.88.92a.755.755,0,0,1-.04.24,1.552,1.552,0,0,1-.08.2.8.8,0,0,1-.44.34,2.325,2.325,0,0,1-.56.06H5.8l-1.24.12H2.36l-3.72-.12H-4.04l-1.48.08q-.72.04-1.44.04-.68,0-1.38-.04T-9.72,1.8a5.125,5.125,0,0,0-.78-.02Q-10.88,1.8-11.32,1.8Zm9-3h-.4a1.144,1.144,0,0,1,0,.6.43.43,0,0,0,.16.48,2.577,2.577,0,0,1,.32.02,2.924,2.924,0,0,0,.36.02L-2-.48q-.32-.08-.22-.32A.313.313,0,0,0-2.32-1.2ZM1-.08Q.96-.76.56-.8L.08-.52a2.073,2.073,0,0,0,.38.46A1.049,1.049,0,0,0,1-.08Zm-1.12,0A.844.844,0,0,0-.34-.52q-.14-.12-.5,0L-.6,0Zm-1.4-.56.12-.6A.625.625,0,0,0-2-.48,2.48,2.48,0,0,1-1.52-.64Zm9.2-.28q-.36.36-.36.44A.356.356,0,0,0,7.68,0ZM4.56,0a1.194,1.194,0,0,0,.38-.06q.18-.06.3-.46a1,1,0,0,1-.46.18Q4.56-.32,4.56,0ZM3.84-1.2a.232.232,0,0,1-.04.16,2.434,2.434,0,0,1,.36.28,1.311,1.311,0,0,1,.16-.2.931.931,0,0,0,.16-.24Zm-11-.16q-.08.32-.12.5t-.08.38A1.487,1.487,0,0,1-7-.52Zm8.08.2a.445.445,0,0,0,.04.2,1.27,1.27,0,0,1,.36-.08l.16.48v-.72a.922.922,0,0,1-.32.08A.755.755,0,0,0,.92-1.16Zm1.24.04v.48L2.6-.72Zm-8.36.08.72.08a.888.888,0,0,0-.34-.24Q-5.96-1.24-6.2-1.04Zm8.44.8q0-.12-.04-.12L1.84-.6q-.04,0-.04.02t-.04.02l.28.36a.178.178,0,0,0,.08-.02A.279.279,0,0,1,2.24-.24Zm2,0a1.315,1.315,0,0,0-.32-.04V.16a2,2,0,0,0,.18-.2Q4.16-.12,4.24-.24ZM-4.4-.4q.32.36.44-.08A1.4,1.4,0,0,0-4.4-.4Zm2.88-.24a1.045,1.045,0,0,1,.16.22q.08.14.4-.06ZM-9.6-1a.445.445,0,0,0,.04-.2,1.213,1.213,0,0,1-.36-.04.232.232,0,0,1-.04.16A1.27,1.27,0,0,1-9.6-1Zm1.92.6.12-.12-.28-.2q0,.04-.08.12A1.138,1.138,0,0,0-7.68-.4ZM6.96,0a.081.081,0,0,1,.02-.06A.081.081,0,0,0,7-.12.7.7,0,0,0,6.8-.2a.05.05,0,0,0-.08,0,.163.163,0,0,1-.12.04.081.081,0,0,0,.02.06.081.081,0,0,1,.02.06A1.041,1.041,0,0,1,6.96,0Zm.08-1.12L6.96-1.2q-.04-.04-.12.04.08.08.08.12Q6.96-1.04,7.04-1.12ZM-9.04-.76h-.08v.24h.08Zm2.68.12a.115.115,0,0,1-.08.04.178.178,0,0,0,.02.08.178.178,0,0,1,.02.08h.08a.158.158,0,0,0-.02-.1A.158.158,0,0,1-6.36-.64Zm10.2.08-.12.08.16.12A.445.445,0,0,0,3.84-.56ZM-5.4-.72h-.04v.2q.04,0,.04-.02t.04-.02a.178.178,0,0,0-.02-.08A.178.178,0,0,1-5.4-.72Zm8.56.48V-.28H3V-.2a.158.158,0,0,0,.1-.02A.081.081,0,0,1,3.16-.24ZM3.2-.76v-.28H3.16A1.685,1.685,0,0,0,3.2-.76Zm2.56-.6a1.685,1.685,0,0,0-.04.28h.04Zm-9.32.2.04-.04h-.12A.115.115,0,0,0-3.56-1.16Zm-1.2.72L-4.8-.4v.04l.04-.04Zm6.88-.68-.04-.04Z" transform="translate(1408 948)" fill="#b92454"/>
    </g>
    <g transform="translate(-1096.191 -944.896)">
      <path id="Path_3221-16" data-name="Path 3221" d="M-11.32,1.8l-.4-.44a14.775,14.775,0,0,0-.06-2.04,5.968,5.968,0,0,1,.14-2,1.415,1.415,0,0,1,.52-.28,2.175,2.175,0,0,1,.6-.08q1.08.04,2.16.02t2.2.02q1.28,0,2.52-.02t2.52-.06q.92,0,1.88-.02a17.487,17.487,0,0,1,1.88.06,5.535,5.535,0,0,0,1.24.02,7.652,7.652,0,0,1,1.24-.02q.92.04,1.86.02T8.84-3a1.382,1.382,0,0,1,.78.2.713.713,0,0,1,.3.64q.04.8.02,1.54T9.88.92a.755.755,0,0,1-.04.24,1.552,1.552,0,0,1-.08.2.8.8,0,0,1-.44.34,2.325,2.325,0,0,1-.56.06H5.8l-1.24.12H2.36l-3.72-.12H-4.04l-1.48.08q-.72.04-1.44.04-.68,0-1.38-.04T-9.72,1.8a5.125,5.125,0,0,0-.78-.02Q-10.88,1.8-11.32,1.8Zm9-3h-.4a1.144,1.144,0,0,1,0,.6.43.43,0,0,0,.16.48,2.577,2.577,0,0,1,.32.02,2.924,2.924,0,0,0,.36.02L-2-.48q-.32-.08-.22-.32A.313.313,0,0,0-2.32-1.2ZM1-.08Q.96-.76.56-.8L.08-.52a2.073,2.073,0,0,0,.38.46A1.049,1.049,0,0,0,1-.08Zm-1.12,0A.844.844,0,0,0-.34-.52q-.14-.12-.5,0L-.6,0Zm-1.4-.56.12-.6A.625.625,0,0,0-2-.48,2.48,2.48,0,0,1-1.52-.64Zm9.2-.28q-.36.36-.36.44A.356.356,0,0,0,7.68,0ZM4.56,0a1.194,1.194,0,0,0,.38-.06q.18-.06.3-.46a1,1,0,0,1-.46.18Q4.56-.32,4.56,0ZM3.84-1.2a.232.232,0,0,1-.04.16,2.434,2.434,0,0,1,.36.28,1.311,1.311,0,0,1,.16-.2.931.931,0,0,0,.16-.24Zm-11-.16q-.08.32-.12.5t-.08.38A1.487,1.487,0,0,1-7-.52Zm8.08.2a.445.445,0,0,0,.04.2,1.27,1.27,0,0,1,.36-.08l.16.48v-.72a.922.922,0,0,1-.32.08A.755.755,0,0,0,.92-1.16Zm1.24.04v.48L2.6-.72Zm-8.36.08.72.08a.888.888,0,0,0-.34-.24Q-5.96-1.24-6.2-1.04Zm8.44.8q0-.12-.04-.12L1.84-.6q-.04,0-.04.02t-.04.02l.28.36a.178.178,0,0,0,.08-.02A.279.279,0,0,1,2.24-.24Zm2,0a1.315,1.315,0,0,0-.32-.04V.16a2,2,0,0,0,.18-.2Q4.16-.12,4.24-.24ZM-4.4-.4q.32.36.44-.08A1.4,1.4,0,0,0-4.4-.4Zm2.88-.24a1.045,1.045,0,0,1,.16.22q.08.14.4-.06ZM-9.6-1a.445.445,0,0,0,.04-.2,1.213,1.213,0,0,1-.36-.04.232.232,0,0,1-.04.16A1.27,1.27,0,0,1-9.6-1Zm1.92.6.12-.12-.28-.2q0,.04-.08.12A1.138,1.138,0,0,0-7.68-.4ZM6.96,0a.081.081,0,0,1,.02-.06A.081.081,0,0,0,7-.12.7.7,0,0,0,6.8-.2a.05.05,0,0,0-.08,0,.163.163,0,0,1-.12.04.081.081,0,0,0,.02.06.081.081,0,0,1,.02.06A1.041,1.041,0,0,1,6.96,0Zm.08-1.12L6.96-1.2q-.04-.04-.12.04.08.08.08.12Q6.96-1.04,7.04-1.12ZM-9.04-.76h-.08v.24h.08Zm2.68.12a.115.115,0,0,1-.08.04.178.178,0,0,0,.02.08.178.178,0,0,1,.02.08h.08a.158.158,0,0,0-.02-.1A.158.158,0,0,1-6.36-.64Zm10.2.08-.12.08.16.12A.445.445,0,0,0,3.84-.56ZM-5.4-.72h-.04v.2q.04,0,.04-.02t.04-.02a.178.178,0,0,0-.02-.08A.178.178,0,0,1-5.4-.72Zm8.56.48V-.28H3V-.2a.158.158,0,0,0,.1-.02A.081.081,0,0,1,3.16-.24ZM3.2-.76v-.28H3.16A1.685,1.685,0,0,0,3.2-.76Zm2.56-.6a1.685,1.685,0,0,0-.04.28h.04Zm-9.32.2.04-.04h-.12A.115.115,0,0,0-3.56-1.16Zm-1.2.72L-4.8-.4v.04l.04-.04Zm6.88-.68-.04-.04Z" transform="translate(1408 948)" fill="#b92454"/>
    </g>
    <g transform="translate(-1076.191 -944.896)">
      <path id="Path_3221-17" data-name="Path 3221" d="M-11.32,1.8l-.4-.44a14.775,14.775,0,0,0-.06-2.04,5.968,5.968,0,0,1,.14-2,1.415,1.415,0,0,1,.52-.28,2.175,2.175,0,0,1,.6-.08q1.08.04,2.16.02t2.2.02q1.28,0,2.52-.02t2.52-.06q.92,0,1.88-.02a17.487,17.487,0,0,1,1.88.06,5.535,5.535,0,0,0,1.24.02,7.652,7.652,0,0,1,1.24-.02q.92.04,1.86.02T8.84-3a1.382,1.382,0,0,1,.78.2.713.713,0,0,1,.3.64q.04.8.02,1.54T9.88.92a.755.755,0,0,1-.04.24,1.552,1.552,0,0,1-.08.2.8.8,0,0,1-.44.34,2.325,2.325,0,0,1-.56.06H5.8l-1.24.12H2.36l-3.72-.12H-4.04l-1.48.08q-.72.04-1.44.04-.68,0-1.38-.04T-9.72,1.8a5.125,5.125,0,0,0-.78-.02Q-10.88,1.8-11.32,1.8Zm9-3h-.4a1.144,1.144,0,0,1,0,.6.43.43,0,0,0,.16.48,2.577,2.577,0,0,1,.32.02,2.924,2.924,0,0,0,.36.02L-2-.48q-.32-.08-.22-.32A.313.313,0,0,0-2.32-1.2ZM1-.08Q.96-.76.56-.8L.08-.52a2.073,2.073,0,0,0,.38.46A1.049,1.049,0,0,0,1-.08Zm-1.12,0A.844.844,0,0,0-.34-.52q-.14-.12-.5,0L-.6,0Zm-1.4-.56.12-.6A.625.625,0,0,0-2-.48,2.48,2.48,0,0,1-1.52-.64Zm9.2-.28q-.36.36-.36.44A.356.356,0,0,0,7.68,0ZM4.56,0a1.194,1.194,0,0,0,.38-.06q.18-.06.3-.46a1,1,0,0,1-.46.18Q4.56-.32,4.56,0ZM3.84-1.2a.232.232,0,0,1-.04.16,2.434,2.434,0,0,1,.36.28,1.311,1.311,0,0,1,.16-.2.931.931,0,0,0,.16-.24Zm-11-.16q-.08.32-.12.5t-.08.38A1.487,1.487,0,0,1-7-.52Zm8.08.2a.445.445,0,0,0,.04.2,1.27,1.27,0,0,1,.36-.08l.16.48v-.72a.922.922,0,0,1-.32.08A.755.755,0,0,0,.92-1.16Zm1.24.04v.48L2.6-.72Zm-8.36.08.72.08a.888.888,0,0,0-.34-.24Q-5.96-1.24-6.2-1.04Zm8.44.8q0-.12-.04-.12L1.84-.6q-.04,0-.04.02t-.04.02l.28.36a.178.178,0,0,0,.08-.02A.279.279,0,0,1,2.24-.24Zm2,0a1.315,1.315,0,0,0-.32-.04V.16a2,2,0,0,0,.18-.2Q4.16-.12,4.24-.24ZM-4.4-.4q.32.36.44-.08A1.4,1.4,0,0,0-4.4-.4Zm2.88-.24a1.045,1.045,0,0,1,.16.22q.08.14.4-.06ZM-9.6-1a.445.445,0,0,0,.04-.2,1.213,1.213,0,0,1-.36-.04.232.232,0,0,1-.04.16A1.27,1.27,0,0,1-9.6-1Zm1.92.6.12-.12-.28-.2q0,.04-.08.12A1.138,1.138,0,0,0-7.68-.4ZM6.96,0a.081.081,0,0,1,.02-.06A.081.081,0,0,0,7-.12.7.7,0,0,0,6.8-.2a.05.05,0,0,0-.08,0,.163.163,0,0,1-.12.04.081.081,0,0,0,.02.06.081.081,0,0,1,.02.06A1.041,1.041,0,0,1,6.96,0Zm.08-1.12L6.96-1.2q-.04-.04-.12.04.08.08.08.12Q6.96-1.04,7.04-1.12ZM-9.04-.76h-.08v.24h.08Zm2.68.12a.115.115,0,0,1-.08.04.178.178,0,0,0,.02.08.178.178,0,0,1,.02.08h.08a.158.158,0,0,0-.02-.1A.158.158,0,0,1-6.36-.64Zm10.2.08-.12.08.16.12A.445.445,0,0,0,3.84-.56ZM-5.4-.72h-.04v.2q.04,0,.04-.02t.04-.02a.178.178,0,0,0-.02-.08A.178.178,0,0,1-5.4-.72Zm8.56.48V-.28H3V-.2a.158.158,0,0,0,.1-.02A.081.081,0,0,1,3.16-.24ZM3.2-.76v-.28H3.16A1.685,1.685,0,0,0,3.2-.76Zm2.56-.6a1.685,1.685,0,0,0-.04.28h.04Zm-9.32.2.04-.04h-.12A.115.115,0,0,0-3.56-1.16Zm-1.2.72L-4.8-.4v.04l.04-.04Zm6.88-.68-.04-.04Z" transform="translate(1408 948)" fill="#b92454"/>
    </g>
    <g transform="translate(-1056.191 -944.896)">
      <path id="Path_3221-18" data-name="Path 3221" d="M-11.32,1.8l-.4-.44a14.775,14.775,0,0,0-.06-2.04,5.968,5.968,0,0,1,.14-2,1.415,1.415,0,0,1,.52-.28,2.175,2.175,0,0,1,.6-.08q1.08.04,2.16.02t2.2.02q1.28,0,2.52-.02t2.52-.06q.92,0,1.88-.02a17.487,17.487,0,0,1,1.88.06,5.535,5.535,0,0,0,1.24.02,7.652,7.652,0,0,1,1.24-.02q.92.04,1.86.02T8.84-3a1.382,1.382,0,0,1,.78.2.713.713,0,0,1,.3.64q.04.8.02,1.54T9.88.92a.755.755,0,0,1-.04.24,1.552,1.552,0,0,1-.08.2.8.8,0,0,1-.44.34,2.325,2.325,0,0,1-.56.06H5.8l-1.24.12H2.36l-3.72-.12H-4.04l-1.48.08q-.72.04-1.44.04-.68,0-1.38-.04T-9.72,1.8a5.125,5.125,0,0,0-.78-.02Q-10.88,1.8-11.32,1.8Zm9-3h-.4a1.144,1.144,0,0,1,0,.6.43.43,0,0,0,.16.48,2.577,2.577,0,0,1,.32.02,2.924,2.924,0,0,0,.36.02L-2-.48q-.32-.08-.22-.32A.313.313,0,0,0-2.32-1.2ZM1-.08Q.96-.76.56-.8L.08-.52a2.073,2.073,0,0,0,.38.46A1.049,1.049,0,0,0,1-.08Zm-1.12,0A.844.844,0,0,0-.34-.52q-.14-.12-.5,0L-.6,0Zm-1.4-.56.12-.6A.625.625,0,0,0-2-.48,2.48,2.48,0,0,1-1.52-.64Zm9.2-.28q-.36.36-.36.44A.356.356,0,0,0,7.68,0ZM4.56,0a1.194,1.194,0,0,0,.38-.06q.18-.06.3-.46a1,1,0,0,1-.46.18Q4.56-.32,4.56,0ZM3.84-1.2a.232.232,0,0,1-.04.16,2.434,2.434,0,0,1,.36.28,1.311,1.311,0,0,1,.16-.2.931.931,0,0,0,.16-.24Zm-11-.16q-.08.32-.12.5t-.08.38A1.487,1.487,0,0,1-7-.52Zm8.08.2a.445.445,0,0,0,.04.2,1.27,1.27,0,0,1,.36-.08l.16.48v-.72a.922.922,0,0,1-.32.08A.755.755,0,0,0,.92-1.16Zm1.24.04v.48L2.6-.72Zm-8.36.08.72.08a.888.888,0,0,0-.34-.24Q-5.96-1.24-6.2-1.04Zm8.44.8q0-.12-.04-.12L1.84-.6q-.04,0-.04.02t-.04.02l.28.36a.178.178,0,0,0,.08-.02A.279.279,0,0,1,2.24-.24Zm2,0a1.315,1.315,0,0,0-.32-.04V.16a2,2,0,0,0,.18-.2Q4.16-.12,4.24-.24ZM-4.4-.4q.32.36.44-.08A1.4,1.4,0,0,0-4.4-.4Zm2.88-.24a1.045,1.045,0,0,1,.16.22q.08.14.4-.06ZM-9.6-1a.445.445,0,0,0,.04-.2,1.213,1.213,0,0,1-.36-.04.232.232,0,0,1-.04.16A1.27,1.27,0,0,1-9.6-1Zm1.92.6.12-.12-.28-.2q0,.04-.08.12A1.138,1.138,0,0,0-7.68-.4ZM6.96,0a.081.081,0,0,1,.02-.06A.081.081,0,0,0,7-.12.7.7,0,0,0,6.8-.2a.05.05,0,0,0-.08,0,.163.163,0,0,1-.12.04.081.081,0,0,0,.02.06.081.081,0,0,1,.02.06A1.041,1.041,0,0,1,6.96,0Zm.08-1.12L6.96-1.2q-.04-.04-.12.04.08.08.08.12Q6.96-1.04,7.04-1.12ZM-9.04-.76h-.08v.24h.08Zm2.68.12a.115.115,0,0,1-.08.04.178.178,0,0,0,.02.08.178.178,0,0,1,.02.08h.08a.158.158,0,0,0-.02-.1A.158.158,0,0,1-6.36-.64Zm10.2.08-.12.08.16.12A.445.445,0,0,0,3.84-.56ZM-5.4-.72h-.04v.2q.04,0,.04-.02t.04-.02a.178.178,0,0,0-.02-.08A.178.178,0,0,1-5.4-.72Zm8.56.48V-.28H3V-.2a.158.158,0,0,0,.1-.02A.081.081,0,0,1,3.16-.24ZM3.2-.76v-.28H3.16A1.685,1.685,0,0,0,3.2-.76Zm2.56-.6a1.685,1.685,0,0,0-.04.28h.04Zm-9.32.2.04-.04h-.12A.115.115,0,0,0-3.56-1.16Zm-1.2.72L-4.8-.4v.04l.04-.04Zm6.88-.68-.04-.04Z" transform="translate(1408 948)" fill="#b92454"/>
    </g>
    <g transform="translate(-1036.191 -944.896)">
      <path id="Path_3221-19" data-name="Path 3221" d="M-11.32,1.8l-.4-.44a14.775,14.775,0,0,0-.06-2.04,5.968,5.968,0,0,1,.14-2,1.415,1.415,0,0,1,.52-.28,2.175,2.175,0,0,1,.6-.08q1.08.04,2.16.02t2.2.02q1.28,0,2.52-.02t2.52-.06q.92,0,1.88-.02a17.487,17.487,0,0,1,1.88.06,5.535,5.535,0,0,0,1.24.02,7.652,7.652,0,0,1,1.24-.02q.92.04,1.86.02T8.84-3a1.382,1.382,0,0,1,.78.2.713.713,0,0,1,.3.64q.04.8.02,1.54T9.88.92a.755.755,0,0,1-.04.24,1.552,1.552,0,0,1-.08.2.8.8,0,0,1-.44.34,2.325,2.325,0,0,1-.56.06H5.8l-1.24.12H2.36l-3.72-.12H-4.04l-1.48.08q-.72.04-1.44.04-.68,0-1.38-.04T-9.72,1.8a5.125,5.125,0,0,0-.78-.02Q-10.88,1.8-11.32,1.8Zm9-3h-.4a1.144,1.144,0,0,1,0,.6.43.43,0,0,0,.16.48,2.577,2.577,0,0,1,.32.02,2.924,2.924,0,0,0,.36.02L-2-.48q-.32-.08-.22-.32A.313.313,0,0,0-2.32-1.2ZM1-.08Q.96-.76.56-.8L.08-.52a2.073,2.073,0,0,0,.38.46A1.049,1.049,0,0,0,1-.08Zm-1.12,0A.844.844,0,0,0-.34-.52q-.14-.12-.5,0L-.6,0Zm-1.4-.56.12-.6A.625.625,0,0,0-2-.48,2.48,2.48,0,0,1-1.52-.64Zm9.2-.28q-.36.36-.36.44A.356.356,0,0,0,7.68,0ZM4.56,0a1.194,1.194,0,0,0,.38-.06q.18-.06.3-.46a1,1,0,0,1-.46.18Q4.56-.32,4.56,0ZM3.84-1.2a.232.232,0,0,1-.04.16,2.434,2.434,0,0,1,.36.28,1.311,1.311,0,0,1,.16-.2.931.931,0,0,0,.16-.24Zm-11-.16q-.08.32-.12.5t-.08.38A1.487,1.487,0,0,1-7-.52Zm8.08.2a.445.445,0,0,0,.04.2,1.27,1.27,0,0,1,.36-.08l.16.48v-.72a.922.922,0,0,1-.32.08A.755.755,0,0,0,.92-1.16Zm1.24.04v.48L2.6-.72Zm-8.36.08.72.08a.888.888,0,0,0-.34-.24Q-5.96-1.24-6.2-1.04Zm8.44.8q0-.12-.04-.12L1.84-.6q-.04,0-.04.02t-.04.02l.28.36a.178.178,0,0,0,.08-.02A.279.279,0,0,1,2.24-.24Zm2,0a1.315,1.315,0,0,0-.32-.04V.16a2,2,0,0,0,.18-.2Q4.16-.12,4.24-.24ZM-4.4-.4q.32.36.44-.08A1.4,1.4,0,0,0-4.4-.4Zm2.88-.24a1.045,1.045,0,0,1,.16.22q.08.14.4-.06ZM-9.6-1a.445.445,0,0,0,.04-.2,1.213,1.213,0,0,1-.36-.04.232.232,0,0,1-.04.16A1.27,1.27,0,0,1-9.6-1Zm1.92.6.12-.12-.28-.2q0,.04-.08.12A1.138,1.138,0,0,0-7.68-.4ZM6.96,0a.081.081,0,0,1,.02-.06A.081.081,0,0,0,7-.12.7.7,0,0,0,6.8-.2a.05.05,0,0,0-.08,0,.163.163,0,0,1-.12.04.081.081,0,0,0,.02.06.081.081,0,0,1,.02.06A1.041,1.041,0,0,1,6.96,0Zm.08-1.12L6.96-1.2q-.04-.04-.12.04.08.08.08.12Q6.96-1.04,7.04-1.12ZM-9.04-.76h-.08v.24h.08Zm2.68.12a.115.115,0,0,1-.08.04.178.178,0,0,0,.02.08.178.178,0,0,1,.02.08h.08a.158.158,0,0,0-.02-.1A.158.158,0,0,1-6.36-.64Zm10.2.08-.12.08.16.12A.445.445,0,0,0,3.84-.56ZM-5.4-.72h-.04v.2q.04,0,.04-.02t.04-.02a.178.178,0,0,0-.02-.08A.178.178,0,0,1-5.4-.72Zm8.56.48V-.28H3V-.2a.158.158,0,0,0,.1-.02A.081.081,0,0,1,3.16-.24ZM3.2-.76v-.28H3.16A1.685,1.685,0,0,0,3.2-.76Zm2.56-.6a1.685,1.685,0,0,0-.04.28h.04Zm-9.32.2.04-.04h-.12A.115.115,0,0,0-3.56-1.16Zm-1.2.72L-4.8-.4v.04l.04-.04Zm6.88-.68-.04-.04Z" transform="translate(1408 948)" fill="#b92454"/>
    </g>
    <g transform="translate(-1016.191 -944.896)">
      <path id="Path_3221-20" data-name="Path 3221" d="M-11.32,1.8l-.4-.44a14.775,14.775,0,0,0-.06-2.04,5.968,5.968,0,0,1,.14-2,1.415,1.415,0,0,1,.52-.28,2.175,2.175,0,0,1,.6-.08q1.08.04,2.16.02t2.2.02q1.28,0,2.52-.02t2.52-.06q.92,0,1.88-.02a17.487,17.487,0,0,1,1.88.06,5.535,5.535,0,0,0,1.24.02,7.652,7.652,0,0,1,1.24-.02q.92.04,1.86.02T8.84-3a1.382,1.382,0,0,1,.78.2.713.713,0,0,1,.3.64q.04.8.02,1.54T9.88.92a.755.755,0,0,1-.04.24,1.552,1.552,0,0,1-.08.2.8.8,0,0,1-.44.34,2.325,2.325,0,0,1-.56.06H5.8l-1.24.12H2.36l-3.72-.12H-4.04l-1.48.08q-.72.04-1.44.04-.68,0-1.38-.04T-9.72,1.8a5.125,5.125,0,0,0-.78-.02Q-10.88,1.8-11.32,1.8Zm9-3h-.4a1.144,1.144,0,0,1,0,.6.43.43,0,0,0,.16.48,2.577,2.577,0,0,1,.32.02,2.924,2.924,0,0,0,.36.02L-2-.48q-.32-.08-.22-.32A.313.313,0,0,0-2.32-1.2ZM1-.08Q.96-.76.56-.8L.08-.52a2.073,2.073,0,0,0,.38.46A1.049,1.049,0,0,0,1-.08Zm-1.12,0A.844.844,0,0,0-.34-.52q-.14-.12-.5,0L-.6,0Zm-1.4-.56.12-.6A.625.625,0,0,0-2-.48,2.48,2.48,0,0,1-1.52-.64Zm9.2-.28q-.36.36-.36.44A.356.356,0,0,0,7.68,0ZM4.56,0a1.194,1.194,0,0,0,.38-.06q.18-.06.3-.46a1,1,0,0,1-.46.18Q4.56-.32,4.56,0ZM3.84-1.2a.232.232,0,0,1-.04.16,2.434,2.434,0,0,1,.36.28,1.311,1.311,0,0,1,.16-.2.931.931,0,0,0,.16-.24Zm-11-.16q-.08.32-.12.5t-.08.38A1.487,1.487,0,0,1-7-.52Zm8.08.2a.445.445,0,0,0,.04.2,1.27,1.27,0,0,1,.36-.08l.16.48v-.72a.922.922,0,0,1-.32.08A.755.755,0,0,0,.92-1.16Zm1.24.04v.48L2.6-.72Zm-8.36.08.72.08a.888.888,0,0,0-.34-.24Q-5.96-1.24-6.2-1.04Zm8.44.8q0-.12-.04-.12L1.84-.6q-.04,0-.04.02t-.04.02l.28.36a.178.178,0,0,0,.08-.02A.279.279,0,0,1,2.24-.24Zm2,0a1.315,1.315,0,0,0-.32-.04V.16a2,2,0,0,0,.18-.2Q4.16-.12,4.24-.24ZM-4.4-.4q.32.36.44-.08A1.4,1.4,0,0,0-4.4-.4Zm2.88-.24a1.045,1.045,0,0,1,.16.22q.08.14.4-.06ZM-9.6-1a.445.445,0,0,0,.04-.2,1.213,1.213,0,0,1-.36-.04.232.232,0,0,1-.04.16A1.27,1.27,0,0,1-9.6-1Zm1.92.6.12-.12-.28-.2q0,.04-.08.12A1.138,1.138,0,0,0-7.68-.4ZM6.96,0a.081.081,0,0,1,.02-.06A.081.081,0,0,0,7-.12.7.7,0,0,0,6.8-.2a.05.05,0,0,0-.08,0,.163.163,0,0,1-.12.04.081.081,0,0,0,.02.06.081.081,0,0,1,.02.06A1.041,1.041,0,0,1,6.96,0Zm.08-1.12L6.96-1.2q-.04-.04-.12.04.08.08.08.12Q6.96-1.04,7.04-1.12ZM-9.04-.76h-.08v.24h.08Zm2.68.12a.115.115,0,0,1-.08.04.178.178,0,0,0,.02.08.178.178,0,0,1,.02.08h.08a.158.158,0,0,0-.02-.1A.158.158,0,0,1-6.36-.64Zm10.2.08-.12.08.16.12A.445.445,0,0,0,3.84-.56ZM-5.4-.72h-.04v.2q.04,0,.04-.02t.04-.02a.178.178,0,0,0-.02-.08A.178.178,0,0,1-5.4-.72Zm8.56.48V-.28H3V-.2a.158.158,0,0,0,.1-.02A.081.081,0,0,1,3.16-.24ZM3.2-.76v-.28H3.16A1.685,1.685,0,0,0,3.2-.76Zm2.56-.6a1.685,1.685,0,0,0-.04.28h.04Zm-9.32.2.04-.04h-.12A.115.115,0,0,0-3.56-1.16Zm-1.2.72L-4.8-.4v.04l.04-.04Zm6.88-.68-.04-.04Z" transform="translate(1408 948)" fill="#b92454"/>
    </g>
    <g transform="translate(-996.191 -944.896)">
      <path id="Path_3221-21" data-name="Path 3221" d="M-11.32,1.8l-.4-.44a14.775,14.775,0,0,0-.06-2.04,5.968,5.968,0,0,1,.14-2,1.415,1.415,0,0,1,.52-.28,2.175,2.175,0,0,1,.6-.08q1.08.04,2.16.02t2.2.02q1.28,0,2.52-.02t2.52-.06q.92,0,1.88-.02a17.487,17.487,0,0,1,1.88.06,5.535,5.535,0,0,0,1.24.02,7.652,7.652,0,0,1,1.24-.02q.92.04,1.86.02T8.84-3a1.382,1.382,0,0,1,.78.2.713.713,0,0,1,.3.64q.04.8.02,1.54T9.88.92a.755.755,0,0,1-.04.24,1.552,1.552,0,0,1-.08.2.8.8,0,0,1-.44.34,2.325,2.325,0,0,1-.56.06H5.8l-1.24.12H2.36l-3.72-.12H-4.04l-1.48.08q-.72.04-1.44.04-.68,0-1.38-.04T-9.72,1.8a5.125,5.125,0,0,0-.78-.02Q-10.88,1.8-11.32,1.8Zm9-3h-.4a1.144,1.144,0,0,1,0,.6.43.43,0,0,0,.16.48,2.577,2.577,0,0,1,.32.02,2.924,2.924,0,0,0,.36.02L-2-.48q-.32-.08-.22-.32A.313.313,0,0,0-2.32-1.2ZM1-.08Q.96-.76.56-.8L.08-.52a2.073,2.073,0,0,0,.38.46A1.049,1.049,0,0,0,1-.08Zm-1.12,0A.844.844,0,0,0-.34-.52q-.14-.12-.5,0L-.6,0Zm-1.4-.56.12-.6A.625.625,0,0,0-2-.48,2.48,2.48,0,0,1-1.52-.64Zm9.2-.28q-.36.36-.36.44A.356.356,0,0,0,7.68,0ZM4.56,0a1.194,1.194,0,0,0,.38-.06q.18-.06.3-.46a1,1,0,0,1-.46.18Q4.56-.32,4.56,0ZM3.84-1.2a.232.232,0,0,1-.04.16,2.434,2.434,0,0,1,.36.28,1.311,1.311,0,0,1,.16-.2.931.931,0,0,0,.16-.24Zm-11-.16q-.08.32-.12.5t-.08.38A1.487,1.487,0,0,1-7-.52Zm8.08.2a.445.445,0,0,0,.04.2,1.27,1.27,0,0,1,.36-.08l.16.48v-.72a.922.922,0,0,1-.32.08A.755.755,0,0,0,.92-1.16Zm1.24.04v.48L2.6-.72Zm-8.36.08.72.08a.888.888,0,0,0-.34-.24Q-5.96-1.24-6.2-1.04Zm8.44.8q0-.12-.04-.12L1.84-.6q-.04,0-.04.02t-.04.02l.28.36a.178.178,0,0,0,.08-.02A.279.279,0,0,1,2.24-.24Zm2,0a1.315,1.315,0,0,0-.32-.04V.16a2,2,0,0,0,.18-.2Q4.16-.12,4.24-.24ZM-4.4-.4q.32.36.44-.08A1.4,1.4,0,0,0-4.4-.4Zm2.88-.24a1.045,1.045,0,0,1,.16.22q.08.14.4-.06ZM-9.6-1a.445.445,0,0,0,.04-.2,1.213,1.213,0,0,1-.36-.04.232.232,0,0,1-.04.16A1.27,1.27,0,0,1-9.6-1Zm1.92.6.12-.12-.28-.2q0,.04-.08.12A1.138,1.138,0,0,0-7.68-.4ZM6.96,0a.081.081,0,0,1,.02-.06A.081.081,0,0,0,7-.12.7.7,0,0,0,6.8-.2a.05.05,0,0,0-.08,0,.163.163,0,0,1-.12.04.081.081,0,0,0,.02.06.081.081,0,0,1,.02.06A1.041,1.041,0,0,1,6.96,0Zm.08-1.12L6.96-1.2q-.04-.04-.12.04.08.08.08.12Q6.96-1.04,7.04-1.12ZM-9.04-.76h-.08v.24h.08Zm2.68.12a.115.115,0,0,1-.08.04.178.178,0,0,0,.02.08.178.178,0,0,1,.02.08h.08a.158.158,0,0,0-.02-.1A.158.158,0,0,1-6.36-.64Zm10.2.08-.12.08.16.12A.445.445,0,0,0,3.84-.56ZM-5.4-.72h-.04v.2q.04,0,.04-.02t.04-.02a.178.178,0,0,0-.02-.08A.178.178,0,0,1-5.4-.72Zm8.56.48V-.28H3V-.2a.158.158,0,0,0,.1-.02A.081.081,0,0,1,3.16-.24ZM3.2-.76v-.28H3.16A1.685,1.685,0,0,0,3.2-.76Zm2.56-.6a1.685,1.685,0,0,0-.04.28h.04Zm-9.32.2.04-.04h-.12A.115.115,0,0,0-3.56-1.16Zm-1.2.72L-4.8-.4v.04l.04-.04Zm6.88-.68-.04-.04Z" transform="translate(1408 948)" fill="#b92454"/>
    </g>
    <g transform="translate(-976.191 -944.896)">
      <path id="Path_3221-22" data-name="Path 3221" d="M-11.32,1.8l-.4-.44a14.775,14.775,0,0,0-.06-2.04,5.968,5.968,0,0,1,.14-2,1.415,1.415,0,0,1,.52-.28,2.175,2.175,0,0,1,.6-.08q1.08.04,2.16.02t2.2.02q1.28,0,2.52-.02t2.52-.06q.92,0,1.88-.02a17.487,17.487,0,0,1,1.88.06,5.535,5.535,0,0,0,1.24.02,7.652,7.652,0,0,1,1.24-.02q.92.04,1.86.02T8.84-3a1.382,1.382,0,0,1,.78.2.713.713,0,0,1,.3.64q.04.8.02,1.54T9.88.92a.755.755,0,0,1-.04.24,1.552,1.552,0,0,1-.08.2.8.8,0,0,1-.44.34,2.325,2.325,0,0,1-.56.06H5.8l-1.24.12H2.36l-3.72-.12H-4.04l-1.48.08q-.72.04-1.44.04-.68,0-1.38-.04T-9.72,1.8a5.125,5.125,0,0,0-.78-.02Q-10.88,1.8-11.32,1.8Zm9-3h-.4a1.144,1.144,0,0,1,0,.6.43.43,0,0,0,.16.48,2.577,2.577,0,0,1,.32.02,2.924,2.924,0,0,0,.36.02L-2-.48q-.32-.08-.22-.32A.313.313,0,0,0-2.32-1.2ZM1-.08Q.96-.76.56-.8L.08-.52a2.073,2.073,0,0,0,.38.46A1.049,1.049,0,0,0,1-.08Zm-1.12,0A.844.844,0,0,0-.34-.52q-.14-.12-.5,0L-.6,0Zm-1.4-.56.12-.6A.625.625,0,0,0-2-.48,2.48,2.48,0,0,1-1.52-.64Zm9.2-.28q-.36.36-.36.44A.356.356,0,0,0,7.68,0ZM4.56,0a1.194,1.194,0,0,0,.38-.06q.18-.06.3-.46a1,1,0,0,1-.46.18Q4.56-.32,4.56,0ZM3.84-1.2a.232.232,0,0,1-.04.16,2.434,2.434,0,0,1,.36.28,1.311,1.311,0,0,1,.16-.2.931.931,0,0,0,.16-.24Zm-11-.16q-.08.32-.12.5t-.08.38A1.487,1.487,0,0,1-7-.52Zm8.08.2a.445.445,0,0,0,.04.2,1.27,1.27,0,0,1,.36-.08l.16.48v-.72a.922.922,0,0,1-.32.08A.755.755,0,0,0,.92-1.16Zm1.24.04v.48L2.6-.72Zm-8.36.08.72.08a.888.888,0,0,0-.34-.24Q-5.96-1.24-6.2-1.04Zm8.44.8q0-.12-.04-.12L1.84-.6q-.04,0-.04.02t-.04.02l.28.36a.178.178,0,0,0,.08-.02A.279.279,0,0,1,2.24-.24Zm2,0a1.315,1.315,0,0,0-.32-.04V.16a2,2,0,0,0,.18-.2Q4.16-.12,4.24-.24ZM-4.4-.4q.32.36.44-.08A1.4,1.4,0,0,0-4.4-.4Zm2.88-.24a1.045,1.045,0,0,1,.16.22q.08.14.4-.06ZM-9.6-1a.445.445,0,0,0,.04-.2,1.213,1.213,0,0,1-.36-.04.232.232,0,0,1-.04.16A1.27,1.27,0,0,1-9.6-1Zm1.92.6.12-.12-.28-.2q0,.04-.08.12A1.138,1.138,0,0,0-7.68-.4ZM6.96,0a.081.081,0,0,1,.02-.06A.081.081,0,0,0,7-.12.7.7,0,0,0,6.8-.2a.05.05,0,0,0-.08,0,.163.163,0,0,1-.12.04.081.081,0,0,0,.02.06.081.081,0,0,1,.02.06A1.041,1.041,0,0,1,6.96,0Zm.08-1.12L6.96-1.2q-.04-.04-.12.04.08.08.08.12Q6.96-1.04,7.04-1.12ZM-9.04-.76h-.08v.24h.08Zm2.68.12a.115.115,0,0,1-.08.04.178.178,0,0,0,.02.08.178.178,0,0,1,.02.08h.08a.158.158,0,0,0-.02-.1A.158.158,0,0,1-6.36-.64Zm10.2.08-.12.08.16.12A.445.445,0,0,0,3.84-.56ZM-5.4-.72h-.04v.2q.04,0,.04-.02t.04-.02a.178.178,0,0,0-.02-.08A.178.178,0,0,1-5.4-.72Zm8.56.48V-.28H3V-.2a.158.158,0,0,0,.1-.02A.081.081,0,0,1,3.16-.24ZM3.2-.76v-.28H3.16A1.685,1.685,0,0,0,3.2-.76Zm2.56-.6a1.685,1.685,0,0,0-.04.28h.04Zm-9.32.2.04-.04h-.12A.115.115,0,0,0-3.56-1.16Zm-1.2.72L-4.8-.4v.04l.04-.04Zm6.88-.68-.04-.04Z" transform="translate(1408 948)" fill="#b92454"/>
    </g>
  </g>
</svg>
