<svg xmlns="http://www.w3.org/2000/svg" width="94.516" height="119.035" viewBox="0 0 94.516 119.035"><script xmlns=""/>
  <g id="Laag_2" data-name="Laag 2" transform="translate(43.611 -5.808)">
    <g id="Laag_1" data-name="Laag 1" transform="translate(-47.617 26.805) rotate(-21)">
      <path id="Line_86" data-name="Line 86" d="M0,2.66A2,2,0,0,1-1.94,1.147,2,2,0,0,1-.487-1.28l2.63-.66A2,2,0,0,1,4.57-.487,2,2,0,0,1,3.117,1.94L.487,2.6A2,2,0,0,1,0,2.66Z" transform="translate(27.001 32.26)" fill="#fff"/>
      <path id="Line_96" data-name="Line 96" d="M0,3.31A2,2,0,0,1-1.79,2.2,2,2,0,0,1-.892-.48l2.63-1.31a2,2,0,0,1,2.682.9,2,2,0,0,1-.9,2.682L.892,3.1A1.992,1.992,0,0,1,0,3.31Z" transform="translate(46.071 26.34)" fill="#fff"/>
      <path id="Path_5580" data-name="Path 5580" d="M19.1,29.65a2,2,0,0,1-2-2V6.63H12.55v7.21a2,2,0,0,1-4,0V4.63a2,2,0,0,1,2-2H19.1a2,2,0,0,1,2,2V27.65A2,2,0,0,1,19.1,29.65Z" transform="translate(0.001 0)" fill="#fff"/>
      <path id="Line_98" data-name="Line 98" d="M0,9.9a2,2,0,0,1-2-2V0A2,2,0,0,1,0-2,2,2,0,0,1,2,0V7.9A2,2,0,0,1,0,9.9Z" transform="translate(29.631 24.36)" fill="#fff"/>
      <path id="Path_5581" data-name="Path 5581" d="M29.63,17.15a2,2,0,0,1-2-2V2a2,2,0,0,1,2-2h8.55a2,2,0,0,1,2,2v9.21a2,2,0,1,1-4,0V4H31.63V15.15A2,2,0,0,1,29.63,17.15Z" transform="translate(0.001 0)" fill="#fff"/>
      <path id="Path_5582" data-name="Path 5582" d="M46.07,29.65a2,2,0,0,1-2-2V12.695A2,2,0,0,1,45.41,9.21h.66a2,2,0,0,1,2,2V27.65A2,2,0,0,1,46.07,29.65Z" transform="translate(0.001 0)" fill="#fff"/>
      <path id="Line_99" data-name="Line 99" d="M7.23,2H0A2,2,0,0,1-2,0,2,2,0,0,1,0-2H7.23a2,2,0,0,1,2,2A2,2,0,0,1,7.23,2Z" transform="translate(38.181 11.21)" fill="#fff"/>
      <path id="Path_5583" data-name="Path 5583" d="M36.86,32.28a2,2,0,0,1-2-2V11.21a2,2,0,0,1,2-2h1.32a2,2,0,0,1,.68,3.881V30.28A2,2,0,0,1,36.86,32.28Z" transform="translate(0.001 0)" fill="#fff"/>
      <path id="Line_100" data-name="Line 100" d="M0,10.561a2,2,0,0,1-.588-.089,2,2,0,0,1-1.324-2.5L.718-.587a2,2,0,0,1,2.5-1.324A2,2,0,0,1,4.542.587l-2.63,8.56A2,2,0,0,1,0,10.561Z" transform="translate(27.001 24.36)" fill="#fff"/>
      <path id="Line_101" data-name="Line 101" d="M0,9.24A2,2,0,0,1-.525,9.17a2,2,0,0,1-1.4-2.455L.04-.525A2,2,0,0,1,2.5-1.93,2,2,0,0,1,3.9.525L1.93,7.765A2,2,0,0,1,0,9.24Z" transform="translate(17.131 27.65)" fill="#fff"/>
      <path id="Path_5584" data-name="Path 5584" d="M19.1,29.651a2,2,0,0,1-1.906-2.608l4.61-14.47a2,2,0,0,1,2.537-1.291l5.92,1.97A2,2,0,0,1,29,17.048l-4-1.33-4,12.54A2,2,0,0,1,19.1,29.651Z" transform="translate(0.001 0)" fill="#fff"/>
      <path id="Path_5585" data-name="Path 5585" d="M29.631,26.361a2,2,0,0,1-1.912-2.589l2.01-6.535-.585-.147a2,2,0,0,1,.974-3.88l2.63.66A2,2,0,0,1,34.172,16.4l-2.63,8.55A2,2,0,0,1,29.631,26.361Z" transform="translate(0.001 0)" fill="#fff"/>
      <path id="Path_5586" data-name="Path 5586" d="M48.7,28.341a2,2,0,0,1-1.888-2.662l4.61-13.16a2,2,0,0,1,3.313-.742l.65.66a2,2,0,0,1-.859,3.322L50.588,27A2,2,0,0,1,48.7,28.341Z" transform="translate(0.001 0)" fill="#fff"/>
      <path id="Path_5587" data-name="Path 5587" d="M59.232,25.71a2,2,0,0,1-1.942-2.484l1.5-6L53.435,15.77a2,2,0,1,1,1.05-3.86l7.24,1.97a2,2,0,0,1,1.415,2.414l-1.97,7.9A2,2,0,0,1,59.232,25.71Z" transform="translate(0.001 0)" fill="#fff"/>
      <path id="Path_5588" data-name="Path 5588" d="M53.961,15.841a2,2,0,0,1-1.924-2.55l2.092-7.325L49.4,4.512l-2.07,7.248a2,2,0,0,1-3.846-1.1l2.63-9.21A2,2,0,0,1,48.628.088l8.55,2.63a2,2,0,0,1,1.335,2.461l-2.63,9.21A2,2,0,0,1,53.961,15.841Z" transform="translate(0.001 0)" fill="#fff"/>
      <path id="Line_103" data-name="Line 103" d="M0,3.31a2,2,0,0,1-2-2V0A2,2,0,0,1,0-2,2,2,0,0,1,2,0V1.31A2,2,0,0,1,0,3.31Z" transform="translate(17.131 34.89)" fill="#fff"/>
      <path id="Path_5589" data-name="Path 5589" d="M8.579,40.841a2,2,0,0,1-1.922-1.451L.077,16.359A2,2,0,0,1,1.412,13.9l8.55-2.63A2,2,0,0,1,12.55,13.18v.66a2,2,0,0,1-2.991,1.737l-5.1,1.568L10.5,38.291a2,2,0,0,1-1.924,2.55Z" transform="translate(0.001 0)" fill="#fff"/>
      <path id="Line_104" data-name="Line 104" d="M6.579,23.051a2,2,0,0,1-1.908-1.4L-1.909.6A2,2,0,0,1-.6-1.909,2,2,0,0,1,1.909-.6l6.58,21.05a2,2,0,0,1-1.91,2.6Z" transform="translate(10.551 13.84)" fill="#fff"/>
      <path id="Path_5579" data-name="Path 5579" d="M66.546,23.457c3.874-1.427,2.76,2.344,2.76,2.344s-32.812,74.846-34.438,78.551-3.112,3.166-4.089.575S8.727,47.613,7.951,45.131s.183-3.506,1.561-4.067" transform="translate(-4.676 -0.835)" fill="#fdad20"/>
    </g>
  </g>
<script xmlns=""/></svg>