<svg xmlns="http://www.w3.org/2000/svg" xmlns:xlink="http://www.w3.org/1999/xlink" width="79.5" height="60.128" viewBox="0 0 79.5 60.128">
  <defs>
    <filter id="Union_35" x="0" y="10.491" width="79.5" height="49.638" filterUnits="userSpaceOnUse">
      <feOffset input="SourceAlpha"/>
      <feGaussianBlur stdDeviation="5" result="blur"/>
      <feFlood flood-color="#2d2a26"/>
      <feComposite operator="in" in2="blur"/>
      <feComposite in="SourceGraphic"/>
    </filter>
    <filter id="Path_5605" x="0" y="0" width="74.963" height="36.909" filterUnits="userSpaceOnUse">
      <feOffset input="SourceAlpha"/>
      <feGaussianBlur stdDeviation="5" result="blur-2"/>
      <feFlood flood-color="#2d2a26"/>
      <feComposite operator="in" in2="blur-2"/>
      <feComposite in="SourceGraphic"/>
    </filter>
  </defs>
  <g id="Group_611" data-name="Group 611" transform="translate(15 18.79)">
    <g transform="matrix(1, 0, 0, 1, -15, -18.79)" filter="url(#Union_35)">
      <path id="Union_35-2" data-name="Union 35" d="M28.417,19.637a.627.627,0,0,1-.437-.193,1.809,1.809,0,0,1-.333-.487,5.771,5.771,0,0,1-.276-.684q-.129-.383-.272-.784t-.315-.781a3.305,3.305,0,0,0-.4-.677,1.909,1.909,0,0,0-.548-.48,1.444,1.444,0,0,0-.738-.183,1.769,1.769,0,0,0-.215.018c-.091.012-.172.025-.244.039a5.5,5.5,0,0,1-.77,1.3,3.452,3.452,0,0,1-1.143.931,2.418,2.418,0,0,1-.916.265,1.9,1.9,0,0,1-.419-.043.875.875,0,0,1-.347-.165.8.8,0,0,1-.219-.3.885.885,0,0,1-.068-.383,1.052,1.052,0,0,1,.086-.441,1.8,1.8,0,0,1,.487-.695,1.664,1.664,0,0,1,.362-.254,1.4,1.4,0,0,1,.451-.144,1.1,1.1,0,0,1,.519.058c.048.019.067.064.057.136a.5.5,0,0,1-.079.208.511.511,0,0,1-.154.158.113.113,0,0,1-.161-.021.347.347,0,0,0-.244-.115.732.732,0,0,0-.29.047,1.209,1.209,0,0,0-.28.147,1.113,1.113,0,0,0-.211.186,1.047,1.047,0,0,0-.265.673.8.8,0,0,0,.043.3.328.328,0,0,0,.179.2.647.647,0,0,0,.605-.047,2.2,2.2,0,0,0,.606-.534,5.29,5.29,0,0,0,.555-.842,10.673,10.673,0,0,0,.469-.984q.093-.237.175-.473t.144-.455c.038-.137.07-.262.1-.378a5.342,5.342,0,0,1-2.359-.654c-.242-.141-.079-.55.193-.458.491.166.958.385,1.459.527.267.076.538.129.809.179.047-.171.091-.344.125-.518.019-.06.038-.118.058-.174a1.773,1.773,0,0,1,.179-.361,2.207,2.207,0,0,1,.591-.684,2.254,2.254,0,0,1,.548-.3,1.271,1.271,0,0,1,.3-.065,1.584,1.584,0,0,1,.3,0,1.238,1.238,0,0,1,.261.054,1.255,1.255,0,0,1,.219.1.524.524,0,0,1,.279.308.865.865,0,0,1,.007.459c-.019.072-.043.147-.072.226a1.468,1.468,0,0,1-.114.24A3.038,3.038,0,0,1,26.44,13a1.889,1.889,0,0,1-.3.3,2.231,2.231,0,0,1-.394.244,1.987,1.987,0,0,1-.43.15c-.038.01-.074.016-.107.021l-.107.014q-.05.322-.126.638T24.794,15a2.85,2.85,0,0,0,1.006-.215,4.3,4.3,0,0,0,.924-.519,5.264,5.264,0,0,0,.8-.72,5.471,5.471,0,0,0,.616-.82,4.226,4.226,0,0,0,.39-.816,1.939,1.939,0,0,0,.122-.706c0-.029.034-.05.1-.065A.927.927,0,0,1,29,11.132a1.367,1.367,0,0,1,.308.061.663.663,0,0,1,.268.154.471.471,0,0,1,.136.265.644.644,0,0,1-.085.39,6.475,6.475,0,0,1-.724,1.107,7.062,7.062,0,0,1-.978,1,5.523,5.523,0,0,1-1.107.731,2.508,2.508,0,0,1-1.11.283,2.256,2.256,0,0,1,.813.2,2.294,2.294,0,0,1,.591.4,2.634,2.634,0,0,1,.43.534,6.493,6.493,0,0,1,.322.595q.143.3.268.587a3.583,3.583,0,0,0,.269.509,1.386,1.386,0,0,0,.322.358.729.729,0,0,0,.43.143c.029,0,.044.03.045.09a.839.839,0,0,1-.029.222,1.891,1.891,0,0,1-.1.286,1.386,1.386,0,0,1-.161.286.919.919,0,0,1-.222.218.441.441,0,0,1-.255.079Zm-2.32-7.95a.645.645,0,0,0-.115.057.875.875,0,0,0-.115.086.711.711,0,0,0-.2.215,1.155,1.155,0,0,0-.15.258q-.057.136-.107.265-.072.215-.133.433c-.041.145-.075.293-.1.44a.652.652,0,0,1,.065-.011.244.244,0,0,0,.072-.018,1.572,1.572,0,0,0,.68-.322,2.485,2.485,0,0,0,.24-.244,1.529,1.529,0,0,0,.2-.3,1.1,1.1,0,0,0,.1-.193,1.532,1.532,0,0,0,.057-.179.575.575,0,0,0,0-.315.3.3,0,0,0-.171-.186.413.413,0,0,0-.129-.021A.625.625,0,0,0,26.1,11.687Zm12.275,6.344a.855.855,0,0,1-.6-.272,2.77,2.77,0,0,1-.476-.663,6.729,6.729,0,0,1-.38-.859q-.168-.462-.308-.87t-.258-.691q-.119-.283-.24-.326l-.175.089a1.1,1.1,0,0,0-.125.075q-.158.329-.29.627t-.222.533a3.387,3.387,0,0,0-.129.4.353.353,0,0,0,0,.229c.019.039,0,.078-.047.118a.315.315,0,0,1-.193.065.43.43,0,0,1-.243-.075.5.5,0,0,1-.19-.294.835.835,0,0,1,.025-.415c.011-.046.028-.1.042-.15l-.01.015a4.576,4.576,0,0,1-.355.444,2.217,2.217,0,0,1-.369.33.632.632,0,0,1-.358.129.418.418,0,0,1-.247-.058.476.476,0,0,1-.168-.183.813.813,0,0,1-.086-.286,1.539,1.539,0,0,1,0-.362.3.3,0,0,1,.007-.068l.014-.068q-.136.2-.283.383a3.365,3.365,0,0,1-.3.326,1.581,1.581,0,0,1-.3.229.58.58,0,0,1-.286.086.416.416,0,0,1-.247-.057.48.48,0,0,1-.168-.183.815.815,0,0,1-.086-.286,1.507,1.507,0,0,1,0-.362c.009-.072.022-.147.039-.223l-.035.047a4.728,4.728,0,0,1-.447.494,2.489,2.489,0,0,1-.491.369,1.562,1.562,0,0,1-.519.186.937.937,0,0,1-.523-.065.788.788,0,0,1-.412-.333,1.145,1.145,0,0,1-.147-.483,1.792,1.792,0,0,1,.043-.548,3.789,3.789,0,0,1,.541-1.26,2.415,2.415,0,0,1,.448-.5,1.725,1.725,0,0,1,.487-.287,1.453,1.453,0,0,1,.509-.093.524.524,0,0,1,.39.129.463.463,0,0,1,.125.336,1.115,1.115,0,0,1-.115.459,2.008,2.008,0,0,1-.326.491,2.491,2.491,0,0,1-.512.437,2.335,2.335,0,0,1-.673.3,2.578,2.578,0,0,0-.071.369,1.57,1.57,0,0,0-.007.333.669.669,0,0,0,.068.251.225.225,0,0,0,.161.121.6.6,0,0,0,.34-.046,1.566,1.566,0,0,0,.372-.226,3.2,3.2,0,0,0,.372-.351,4.856,4.856,0,0,0,.344-.423,4.937,4.937,0,0,0,.286-.441c.041-.071.077-.139.109-.205.054-.13.108-.259.163-.382q.11-.247.193-.448a2.358,2.358,0,0,0,.115-.337c.022-.091.016-.153-.018-.186s-.018-.062.046-.1a.513.513,0,0,1,.24-.065.63.63,0,0,1,.3.065.428.428,0,0,1,.218.286.881.881,0,0,1-.021.5,4.068,4.068,0,0,1-.24.62q-.155.322-.329.637t-.294.562a1.377,1.377,0,0,0-.136.394q-.018.147.147.133c.057,0,.141-.065.251-.179a3.937,3.937,0,0,0,.347-.426q.183-.254.358-.537t.29-.5q.107-.25.211-.48c.069-.153.129-.292.179-.419a2.243,2.243,0,0,0,.1-.318q.029-.129-.021-.172c-.034-.028-.018-.062.047-.1a.51.51,0,0,1,.24-.065.63.63,0,0,1,.3.065.427.427,0,0,1,.218.286.877.877,0,0,1-.021.5,4.033,4.033,0,0,1-.24.619q-.154.323-.329.638t-.294.562a1.375,1.375,0,0,0-.136.394c-.012.1.037.142.147.132a.376.376,0,0,0,.179-.114,2.8,2.8,0,0,0,.25-.276c.091-.112.184-.238.28-.376s.186-.276.272-.415.163-.27.23-.394c.01-.018.016-.032.025-.05.036-.09.072-.178.111-.273q.187-.444.383-.9t.38-.877q.183-.426.319-.763t.2-.559q.064-.222.021-.265c-.033-.029-.018-.062.047-.1a.521.521,0,0,1,.244-.065.619.619,0,0,1,.3.065.432.432,0,0,1,.215.286.941.941,0,0,1-.043.465,6.745,6.745,0,0,1-.25.727q-.165.412-.383.885t-.44.938c.1-.081.212-.171.337-.269s.249-.2.376-.3.249-.212.369-.319.226-.206.318-.3a2.4,2.4,0,0,0,.226-.247.33.33,0,0,0,.086-.176c0-.043.036-.055.107-.036a.512.512,0,0,1,.215.132.614.614,0,0,1,.158.265.433.433,0,0,1-.065.355,1.046,1.046,0,0,1-.269.294,3.212,3.212,0,0,1-.412.272q-.229.129-.48.243t-.48.208q.108.165.269.466t.362.662q.2.362.43.734a6.751,6.751,0,0,0,.476.68,3.239,3.239,0,0,0,.495.5.823.823,0,0,0,.483.2c.043,0,.061.032.053.1a.453.453,0,0,1-.1.211.859.859,0,0,1-.244.211.651.651,0,0,1-.348.09Zm-7.935-4.468a5.093,5.093,0,0,0-.588,1.046,1.512,1.512,0,0,0-.057.144,1.941,1.941,0,0,0,.705-.412,2.086,2.086,0,0,0,.412-.516,1.012,1.012,0,0,0,.14-.441q0-.186-.125-.193h-.007Q30.725,13.191,30.437,13.564Zm10.1,2.851a.5.5,0,0,1-.19-.294.849.849,0,0,1,.007-.451c.015-.066.036-.135.055-.2a4.707,4.707,0,0,1-.4.437,2.48,2.48,0,0,1-.491.369,1.555,1.555,0,0,1-.519.186.936.936,0,0,1-.522-.065.788.788,0,0,1-.412-.333,1.145,1.145,0,0,1-.147-.483,1.8,1.8,0,0,1,.043-.548,3.786,3.786,0,0,1,.541-1.261,2.4,2.4,0,0,1,.448-.5,1.717,1.717,0,0,1,.487-.287,1.454,1.454,0,0,1,.509-.093.524.524,0,0,1,.39.129.462.462,0,0,1,.125.336,1.116,1.116,0,0,1-.115.459,2.021,2.021,0,0,1-.326.491,2.507,2.507,0,0,1-.512.437,2.33,2.33,0,0,1-.673.3,2.51,2.51,0,0,0-.072.369,1.584,1.584,0,0,0-.007.333.667.667,0,0,0,.068.251.224.224,0,0,0,.161.121.6.6,0,0,0,.34-.046,1.566,1.566,0,0,0,.372-.226,3.133,3.133,0,0,0,.372-.351,5.01,5.01,0,0,0,.631-.863,2.945,2.945,0,0,0,.2-.4.121.121,0,0,1,.008-.014c.063-.141.123-.276.178-.4a4.025,4.025,0,0,0,.179-.48q.057-.2,0-.258c-.033-.028-.018-.062.047-.1a.522.522,0,0,1,.244-.065.619.619,0,0,1,.3.065.431.431,0,0,1,.215.286.57.57,0,0,1,.022.2,1.445,1.445,0,0,1-.036.233c.09-.105.183-.205.276-.3a2.488,2.488,0,0,1,.283-.251,1.672,1.672,0,0,1,.28-.172.62.62,0,0,1,.265-.064.43.43,0,0,1,.415.244,1.057,1.057,0,0,1,.086.644,1.91,1.91,0,0,1-.107.512q-.093.269-.211.527t-.237.491a4.211,4.211,0,0,0-.183.4.647.647,0,0,0-.054.276c.007.069.058.1.154.1A.322.322,0,0,0,43.2,16a2.481,2.481,0,0,0,.251-.272q.136-.168.283-.38t.276-.419q.129-.208.229-.4a2.383,2.383,0,0,0,.144-.312.107.107,0,0,1,.072-.072.155.155,0,0,1,.093,0,.123.123,0,0,1,.068.057.088.088,0,0,1,0,.093c-.038.081-.093.192-.165.333s-.157.291-.254.451-.2.321-.319.483a4.575,4.575,0,0,1-.355.444,2.217,2.217,0,0,1-.369.33.633.633,0,0,1-.358.129.365.365,0,0,1-.244-.068.563.563,0,0,1-.165-.2.98.98,0,0,1-.09-.29,1.169,1.169,0,0,1,0-.326,2.779,2.779,0,0,1,.136-.58q.1-.286.219-.548t.233-.48a3.039,3.039,0,0,0,.172-.379.5.5,0,0,0,.04-.247c-.012-.058-.068-.084-.168-.079a.493.493,0,0,0-.222.125,3.166,3.166,0,0,0-.311.3q-.168.183-.34.4t-.308.419q-.136.28-.283.555t-.261.519a2.916,2.916,0,0,0-.168.43.4.4,0,0,0,0,.286c.019.039,0,.078-.047.118a.311.311,0,0,1-.193.064h-.011A.435.435,0,0,1,40.539,16.414Zm-.963-2.851a5.073,5.073,0,0,0-.588,1.046c-.024.053-.043.1-.057.144a1.94,1.94,0,0,0,.706-.412,2.083,2.083,0,0,0,.412-.516,1.013,1.013,0,0,0,.14-.441q0-.186-.125-.193h-.008Q39.864,13.191,39.576,13.564Zm-23,2.262a6.134,6.134,0,0,1-1.008-.892c-.336-.364-1.057-1.166-1.388-1.6s-1.085-1.53-1.4-1.935a13.709,13.709,0,0,0-.91-1.072,2.725,2.725,0,0,0-.834-.637l-.232-.046a1.055,1.055,0,0,1-.22-.07.229.229,0,0,1-.128-.087.212.212,0,0,1-.035-.156.219.219,0,0,1,.209-.209,3.289,3.289,0,0,0,1.043-.243,4.515,4.515,0,0,0,.961-.539,4.233,4.233,0,0,0,.806-.771,4.059,4.059,0,0,0,.573-.962,4.085,4.085,0,0,0,.342-1.651,3.455,3.455,0,0,0-.348-1.53A2.989,2.989,0,0,0,13,2.276a3.194,3.194,0,0,0-1.651-.515,3.181,3.181,0,0,0-1.367.324,4.406,4.406,0,0,0-1.141.805A4.721,4.721,0,0,0,8,4.009a4.912,4.912,0,0,0-.487,1.263,3.494,3.494,0,0,0-.07,1.222,1.96,1.96,0,0,0,.412,1q.069.093-.035.22a.8.8,0,0,1-.3.214,1.129,1.129,0,0,1-.417.1.56.56,0,0,1-.388-.116,2.22,2.22,0,0,1-.55-.817,2.41,2.41,0,0,1-.157-.915,3.338,3.338,0,0,1,.162-.939,4.8,4.8,0,0,1,.394-.9,5.46,5.46,0,0,1,.927-1.2,7.113,7.113,0,0,1,1.234-.979,6.535,6.535,0,0,1,1.39-.661,4.665,4.665,0,0,1,1.408-.255,5.969,5.969,0,0,1,1.014.064,4.641,4.641,0,0,1,.985.261,4.459,4.459,0,0,1,.939.5,4.691,4.691,0,0,1,.874.805,4,4,0,0,1,.388.562,3.578,3.578,0,0,1,.272.6,3.381,3.381,0,0,1,.2,1.193,3.757,3.757,0,0,1-.2,1.124,4.371,4.371,0,0,1-.551,1.089,5.429,5.429,0,0,1-.961,1.083,5.05,5.05,0,0,1-1.217.782,2.822,2.822,0,0,1-.493.2q-.249.076-.493.133a6.448,6.448,0,0,1,.887.719q.435.418.875.869c.294.3,1.016,1.27,1.31,1.564a16.685,16.685,0,0,0,1.3,1.184,4.566,4.566,0,0,0,.968.545,2.458,2.458,0,0,0,1.043.179c.07,0,.1.074.087.22a1.337,1.337,0,0,1-.157.493,1.7,1.7,0,0,1-.394.5.942.942,0,0,1-.614.237h-.033A1.7,1.7,0,0,1,16.575,15.825Zm.088-2.807a1.257,1.257,0,0,1-.5-.29.918.918,0,0,1-.273-.515.661.661,0,0,1,.029-.249.738.738,0,0,1,.2-.307,2.139,2.139,0,0,1,.446-.336q.261-.15.544-.29t.556-.284a2.43,2.43,0,0,0,.469-.319q.174-.5.452-1.152.2-.48.427-.985-.139.173-.282.331a3.607,3.607,0,0,1-.6.533,1.029,1.029,0,0,1-.579.208.676.676,0,0,1-.4-.093.777.777,0,0,1-.272-.3,1.3,1.3,0,0,1-.139-.464,2.456,2.456,0,0,1,0-.585,4.642,4.642,0,0,1,.179-.811q.133-.429.307-.857t.353-.828q.18-.4.313-.724a3.787,3.787,0,0,0,.186-.545q.052-.22-.029-.3t.075-.162a.832.832,0,0,1,.388-.1A1.018,1.018,0,0,1,19,3.7a.692.692,0,0,1,.353.464,1.427,1.427,0,0,1-.035.817,6.553,6.553,0,0,1-.388,1q-.249.522-.533,1.031t-.475.91a2.225,2.225,0,0,0-.22.637c-.019.158.06.23.238.214a.574.574,0,0,0,.3-.185,5.08,5.08,0,0,0,.4-.446q.22-.272.452-.609t.44-.672q.209-.336.371-.637a3.689,3.689,0,0,0,.232-.5.2.2,0,0,1,.053-.082q.079-.191.15-.37a9.832,9.832,0,0,0,.336-.961q.11-.394.029-.5c-.039-.047,0-.1.1-.163a.9.9,0,0,1,.406-.1.915.915,0,0,1,.481.116.755.755,0,0,1,.342.486,1.3,1.3,0,0,1-.058.632,10,10,0,0,1-.325.979Q21.436,6.3,21.17,6.9t-.51,1.124q-.243.528-.429.921A5.142,5.142,0,0,0,20,9.49a4.718,4.718,0,0,0,.869-.782,12.4,12.4,0,0,0,.846-1.055q.394-.55.7-1.072.1-.18.186-.334l.023-.059a6.225,6.225,0,0,1,.62-1.211,3.936,3.936,0,0,1,.724-.822A2.5,2.5,0,0,1,24.75,3.7a2.327,2.327,0,0,1,.823-.127,1.8,1.8,0,0,1,.3.052.911.911,0,0,1,.29.133.8.8,0,0,1,.226.25.752.752,0,0,1,.092.388.461.461,0,0,1-.1.336.309.309,0,0,1-.255.116.377.377,0,0,1-.249-.093.3.3,0,0,1-.11-.243.314.314,0,0,1,.052-.174.51.51,0,0,1,.133-.139.194.194,0,0,0-.186-.139A.532.532,0,0,0,25.4,4.2a2.592,2.592,0,0,0-.423.452,6.215,6.215,0,0,0-.469.73q-.243.435-.487.968a4.448,4.448,0,0,0-.249.724,3.478,3.478,0,0,0-.11.742,1.9,1.9,0,0,0,.07.62.5.5,0,0,0,.289.348.454.454,0,0,0,.51-.157,3.915,3.915,0,0,0,.545-.7,10.33,10.33,0,0,0,.538-.973q.261-.533.481-.974.22-.567.487-1.2t.527-1.245q.261-.614.5-1.182t.406-1.014q.168-.446.244-.73c.05-.189.056-.3.017-.342-.054-.047-.029-.1.075-.162a.832.832,0,0,1,.388-.1,1.017,1.017,0,0,1,.481.1.69.69,0,0,1,.353.464,1.431,1.431,0,0,1-.046.747,9.53,9.53,0,0,1-.377,1.118q-.249.625-.585,1.35t-.678,1.431q-.342.706-.649,1.361t-.5,1.147a3.2,3.2,0,0,0-.22.782q-.029.29.168.266a.575.575,0,0,0,.3-.185,5.021,5.021,0,0,0,.4-.446q.22-.273.452-.609t.44-.672q.2-.33.364-.626l.018-.047a5.87,5.87,0,0,1,.62-1.2A3.906,3.906,0,0,1,30,4.183a2.78,2.78,0,0,1,.788-.464,2.355,2.355,0,0,1,.823-.15.848.848,0,0,1,.632.209.748.748,0,0,1,.2.544,1.8,1.8,0,0,1-.186.742,3.251,3.251,0,0,1-.527.794,4.051,4.051,0,0,1-.828.707,3.738,3.738,0,0,1-1.089.481,4.1,4.1,0,0,0-.116.6,2.537,2.537,0,0,0-.012.539,1.075,1.075,0,0,0,.11.406.365.365,0,0,0,.261.2.973.973,0,0,0,.55-.075,2.54,2.54,0,0,0,.6-.365,5.174,5.174,0,0,0,.6-.567,8.136,8.136,0,0,0,1.02-1.4q.1-.179.183-.345l.1-.226q.018-.042.033-.084a.238.238,0,0,1,.028-.054q.146-.327.273-.618a6.358,6.358,0,0,0,.29-.776c.062-.216.062-.355,0-.417q-.081-.069.075-.162a.845.845,0,0,1,.394-.1,1,1,0,0,1,.481.1.7.7,0,0,1,.347.464.925.925,0,0,1,.035.33,2.318,2.318,0,0,1-.058.377q.22-.255.446-.486a3.943,3.943,0,0,1,.458-.406,2.643,2.643,0,0,1,.452-.278.993.993,0,0,1,.429-.1.7.7,0,0,1,.672.394,1.709,1.709,0,0,1,.138,1.043,3.078,3.078,0,0,1-.173.828q-.151.435-.342.852t-.383.794a6.7,6.7,0,0,0-.3.654,1.044,1.044,0,0,0-.087.446c.011.112.095.168.249.168a.519.519,0,0,0,.289-.168,3.93,3.93,0,0,0,.406-.441q.22-.272.458-.614t.446-.677q.208-.336.371-.643l.03-.057a6.182,6.182,0,0,1,.613-1.195,3.939,3.939,0,0,1,.724-.822,2.5,2.5,0,0,1,.788-.458,2.327,2.327,0,0,1,.823-.127,1.788,1.788,0,0,1,.3.052.911.911,0,0,1,.289.133.793.793,0,0,1,.226.25.748.748,0,0,1,.093.388.462.462,0,0,1-.1.336.309.309,0,0,1-.255.116.377.377,0,0,1-.249-.093.3.3,0,0,1-.11-.243.314.314,0,0,1,.052-.174A.508.508,0,0,1,41.9,4.2a.2.2,0,0,0-.186-.139.534.534,0,0,0-.359.145,2.6,2.6,0,0,0-.423.452,6.215,6.215,0,0,0-.469.73q-.243.435-.487.968a4.438,4.438,0,0,0-.249.724,3.462,3.462,0,0,0-.11.742,1.91,1.91,0,0,0,.07.62.5.5,0,0,0,.29.347.454.454,0,0,0,.51-.157,3.9,3.9,0,0,0,.545-.7,10.423,10.423,0,0,0,.539-.973q.26-.533.481-.974.22-.567.486-1.2t.527-1.245q.261-.614.5-1.182t.406-1.014q.168-.446.244-.73t.017-.342C44.174.221,44.2.167,44.3.1a.834.834,0,0,1,.388-.1,1.012,1.012,0,0,1,.481.1.691.691,0,0,1,.353.464,1.43,1.43,0,0,1-.046.747A9.548,9.548,0,0,1,45.1,2.434q-.25.625-.585,1.35t-.678,1.431q-.342.706-.649,1.361t-.5,1.147a3.187,3.187,0,0,0-.22.782q-.029.29.168.266a.575.575,0,0,0,.3-.185,4.958,4.958,0,0,0,.4-.446q.221-.273.452-.609t.44-.672q.2-.33.364-.626l.018-.047a5.886,5.886,0,0,1,.62-1.2,3.922,3.922,0,0,1,.724-.806,2.78,2.78,0,0,1,.788-.464,2.355,2.355,0,0,1,.823-.15.847.847,0,0,1,.631.209.747.747,0,0,1,.2.544,1.8,1.8,0,0,1-.185.742,3.265,3.265,0,0,1-.527.794,4.04,4.04,0,0,1-.828.707,3.738,3.738,0,0,1-1.089.481,4.128,4.128,0,0,0-.116.6,2.544,2.544,0,0,0-.012.539,1.073,1.073,0,0,0,.11.406.364.364,0,0,0,.26.2.974.974,0,0,0,.551-.075,2.539,2.539,0,0,0,.6-.365,5.174,5.174,0,0,0,.6-.567,8.127,8.127,0,0,0,1.019-1.4,4.828,4.828,0,0,0,.319-.655.209.209,0,0,1,.121-.128.19.19,0,0,1,.179.024.186.186,0,0,1,.07.254q-.2.418-.469.875a8.443,8.443,0,0,1-.614.892,7.6,7.6,0,0,1-.724.8,4.009,4.009,0,0,1-.794.6,2.527,2.527,0,0,1-.84.3,1.524,1.524,0,0,1-.846-.1,1.28,1.28,0,0,1-.666-.539,1.854,1.854,0,0,1-.238-.782,2.752,2.752,0,0,1,0-.417q-.133.2-.277.406a7.451,7.451,0,0,1-.574.718,3.574,3.574,0,0,1-.6.533,1.024,1.024,0,0,1-.579.208.66.66,0,0,1-.655-.354,1.633,1.633,0,0,1-.168-.955,5.035,5.035,0,0,1-.464.643,2.291,2.291,0,0,1-.521.458,1.409,1.409,0,0,1-.6.208,1.361,1.361,0,0,1-.695-.128,1.269,1.269,0,0,1-.666-.544,1.887,1.887,0,0,1-.238-.782,2.672,2.672,0,0,1,0-.431q-.139.212-.289.425a7.455,7.455,0,0,1-.574.719,3.589,3.589,0,0,1-.6.533,1.029,1.029,0,0,1-.58.208.588.588,0,0,1-.394-.11.9.9,0,0,1-.267-.33,1.584,1.584,0,0,1-.145-.469,1.861,1.861,0,0,1-.005-.527,4.452,4.452,0,0,1,.22-.938q.162-.463.353-.887t.377-.776a4.862,4.862,0,0,0,.278-.614.8.8,0,0,0,.064-.4c-.019-.093-.11-.135-.272-.128a.793.793,0,0,0-.359.2,5.215,5.215,0,0,0-.5.486q-.273.3-.551.649t-.5.678q-.22.452-.458.9t-.423.84a4.781,4.781,0,0,0-.272.695.651.651,0,0,0-.006.464c.031.062.006.126-.076.191a.5.5,0,0,1-.313.1.7.7,0,0,1-.394-.121.807.807,0,0,1-.307-.475,1.376,1.376,0,0,1,.011-.73q.036-.154.082-.316a7.551,7.551,0,0,1-.639.692,4.006,4.006,0,0,1-.794.6,2.523,2.523,0,0,1-.84.3,1.524,1.524,0,0,1-.846-.1,1.279,1.279,0,0,1-.666-.539,1.854,1.854,0,0,1-.238-.782,2.712,2.712,0,0,1,0-.418q-.133.2-.277.406a7.426,7.426,0,0,1-.574.719,3.566,3.566,0,0,1-.6.533,1.024,1.024,0,0,1-.579.208.66.66,0,0,1-.655-.354,1.643,1.643,0,0,1-.168-.955,4.993,4.993,0,0,1-.463.643,2.3,2.3,0,0,1-.521.458,1.418,1.418,0,0,1-.6.208,1.366,1.366,0,0,1-.7-.128,1.269,1.269,0,0,1-.666-.544,1.885,1.885,0,0,1-.238-.782,2.667,2.667,0,0,1,0-.417q-.294.444-.624.863a9.317,9.317,0,0,1-1,1.084,4.689,4.689,0,0,1-1.02.736q-.069.174-.185.446c-.077.181-.157.365-.238.55s-.155.359-.22.522l-.145.359a1.337,1.337,0,0,1-.365.55,1.812,1.812,0,0,1-.562.348,2.083,2.083,0,0,1-.649.139l-.108,0A1.8,1.8,0,0,1,16.663,13.018Zm.915-1.824-.44.208a4.039,4.039,0,0,0-.423.232,1.182,1.182,0,0,0-.33.3.352.352,0,0,0-.064.255.5.5,0,0,0,.1.249.554.554,0,0,0,.22.168.427.427,0,0,0,.3.011.782.782,0,0,0,.336-.226,1.716,1.716,0,0,0,.325-.55q.07-.162.168-.382t.2-.51A1.978,1.978,0,0,1,17.578,11.194ZM46.962,4.659a8.238,8.238,0,0,0-.95,1.692,2.3,2.3,0,0,0-.092.232,3.141,3.141,0,0,0,1.141-.666,3.372,3.372,0,0,0,.666-.834,1.635,1.635,0,0,0,.226-.713q.006-.3-.2-.313h-.011Q47.429,4.056,46.962,4.659Zm-15.955,0a8.212,8.212,0,0,0-.951,1.692,2.321,2.321,0,0,0-.092.232,3.143,3.143,0,0,0,1.141-.666,3.375,3.375,0,0,0,.666-.834A1.636,1.636,0,0,0,32,4.369c0-.2-.064-.305-.2-.313h-.011Q31.473,4.056,31.007,4.659ZM7.787,12.677a.77.77,0,0,1-.331-.476,1.492,1.492,0,0,1,.023-.684q.093-.475.278-1.112T8.2,9.015q.261-.753.533-1.506T9.27,6.043q.261-.713.446-1.28t.267-.939c.054-.247.058-.394.011-.44s-.029-.068.029-.11a.723.723,0,0,1,.249-.1,2.008,2.008,0,0,1,.371-.052,1.33,1.33,0,0,1,.394.035.744.744,0,0,1,.324.174.54.54,0,0,1,.162.359,3.4,3.4,0,0,1-.145,1.165q-.191.724-.5,1.587t-.689,1.79q-.377.927-.7,1.761t-.527,1.5A3.04,3.04,0,0,0,8.778,12.5q0,.1-.162.2a.724.724,0,0,1-.383.1A.9.9,0,0,1,7.787,12.677ZM.4,9.4a.552.552,0,0,1-.291-.238A.81.81,0,0,1,0,8.817a1.272,1.272,0,0,1,.03-.385,2.56,2.56,0,0,1,.112-.367,2.717,2.717,0,0,1,.271-.529,1.744,1.744,0,0,1,.316-.359,1.1,1.1,0,0,1,.344-.2,1.008,1.008,0,0,1,.359-.055.814.814,0,0,1,.129.023A.4.4,0,0,1,1.691,7a.344.344,0,0,1,.1.109.327.327,0,0,1,.041.17.2.2,0,0,1-.046.146.134.134,0,0,1-.111.051.164.164,0,0,1-.109-.04.14.14,0,0,1-.025-.182A.224.224,0,0,1,1.6,7.2a.084.084,0,0,0-.08-.061A.232.232,0,0,0,1.36,7.2a1.125,1.125,0,0,0-.185.2,2.831,2.831,0,0,0-.2.318C.9,7.84.829,7.981.758,8.136a1.9,1.9,0,0,0-.109.316A1.546,1.546,0,0,0,.6,8.776a.846.846,0,0,0,.03.27A.216.216,0,0,0,.758,9.2.2.2,0,0,0,.98,9.13a1.7,1.7,0,0,0,.238-.306A4.49,4.49,0,0,0,1.453,8.4q.115-.233.21-.425.1-.248.212-.524l.23-.544q.114-.267.218-.516c.069-.165.128-.313.177-.442s.084-.236.106-.319.024-.132.007-.149-.013-.044.033-.071a.369.369,0,0,1,.17-.045.444.444,0,0,1,.21.045.3.3,0,0,1,.154.2.626.626,0,0,1-.021.326A4.137,4.137,0,0,1,3,6.426q-.109.273-.256.589t-.3.625q-.149.309-.283.595t-.218.5a1.406,1.406,0,0,0-.1.341c-.009.084.016.123.073.116a.25.25,0,0,0,.129-.081,2.143,2.143,0,0,0,.174-.195q.1-.119.2-.265t.192-.293c.06-.1.114-.19.161-.278l.006-.016a2.533,2.533,0,0,1,.27-.524,1.7,1.7,0,0,1,.316-.352,1.22,1.22,0,0,1,.344-.2,1.028,1.028,0,0,1,.359-.066.369.369,0,0,1,.276.091.328.328,0,0,1,.089.238.786.786,0,0,1-.081.323,1.406,1.406,0,0,1-.23.347,1.756,1.756,0,0,1-.361.309,1.647,1.647,0,0,1-.475.21,1.736,1.736,0,0,0-.051.26,1.131,1.131,0,0,0-.005.235.486.486,0,0,0,.048.177.161.161,0,0,0,.114.086.424.424,0,0,0,.24-.033A1.1,1.1,0,0,0,3.9,9.007a2.25,2.25,0,0,0,.263-.248,3.452,3.452,0,0,0,.243-.3,3.534,3.534,0,0,0,.2-.311,2.074,2.074,0,0,0,.139-.286A.09.09,0,0,1,4.8,7.808a.088.088,0,0,1,.108.121q-.086.182-.2.382a3.628,3.628,0,0,1-.268.389,3.243,3.243,0,0,1-.316.349,1.74,1.74,0,0,1-.346.261,1.111,1.111,0,0,1-.367.131A.666.666,0,0,1,3.034,9.4a.557.557,0,0,1-.291-.236.8.8,0,0,1-.1-.341,1.219,1.219,0,0,1,0-.184q-.059.089-.122.179a3.265,3.265,0,0,1-.25.314,1.529,1.529,0,0,1-.26.233.451.451,0,0,1-.253.091A.288.288,0,0,1,1.468,9.3a.713.713,0,0,1-.073-.417,2.231,2.231,0,0,1-.2.281,1,1,0,0,1-.228.2A.608.608,0,0,1,.7,9.452l-.05,0A.636.636,0,0,1,.4,9.4Zm3.41-2a3.6,3.6,0,0,0-.415.739,1.056,1.056,0,0,0-.041.1,1.37,1.37,0,0,0,.5-.291,1.459,1.459,0,0,0,.291-.364.717.717,0,0,0,.1-.311c0-.088-.028-.133-.089-.137H4.146Q4.011,7.135,3.807,7.4ZM21.743,3.007a1.169,1.169,0,0,1-.4-.278.663.663,0,0,1-.185-.481.5.5,0,0,1,.07-.214c.046-.089.1-.184.157-.284s.11-.193.156-.278a.461.461,0,0,0,.07-.2c0-.054.058-.081.174-.081a1,1,0,0,1,.388.092,1.172,1.172,0,0,1,.388.278.665.665,0,0,1,.174.475.491.491,0,0,1-.064.2c-.043.085-.089.174-.139.267s-.1.186-.139.278a.567.567,0,0,0-.065.22c0,.062-.062.092-.185.092A1.074,1.074,0,0,1,21.743,3.007Zm-2.666,0a1.169,1.169,0,0,1-.4-.278.661.661,0,0,1-.185-.481.5.5,0,0,1,.07-.214c.046-.089.1-.183.157-.284s.11-.193.157-.278a.461.461,0,0,0,.07-.2q0-.081.174-.081a1,1,0,0,1,.388.092,1.173,1.173,0,0,1,.388.278.665.665,0,0,1,.174.475.489.489,0,0,1-.064.2c-.042.085-.089.174-.139.267s-.1.186-.139.278a.592.592,0,0,0-.065.22c0,.062-.062.092-.185.092A1.076,1.076,0,0,1,19.078,3.007Z" transform="translate(15 25.49)" fill="#fff"/>
    </g>
    <g transform="matrix(1, 0, 0, 1, -15, -18.79)" filter="url(#Path_5605)">
      <path id="Path_5605-2" data-name="Path 5605" d="M-37.339-6.652a.236.236,0,0,0,.115-.05.149.149,0,0,0,.041-.078,3.349,3.349,0,0,1,.092-.344,2.2,2.2,0,0,0,.082-.353.855.855,0,0,1,.046-.124q.027-.06.055-.133a.852.852,0,0,1,.069-.33,1.842,1.842,0,0,0,.105-.348,2.9,2.9,0,0,1,.11-.348,1.621,1.621,0,0,0,.092-.348q.027-.128.069-.261t.087-.261q.082-.266.17-.536t.151-.536q.055-.211.115-.412t.133-.4l.046-.092a.519.519,0,0,0,.082-.041.152.152,0,0,1,.082-.023q.357-.009.715,0a.207.207,0,0,1,.073.014.675.675,0,0,0,.073.023.294.294,0,0,1,.014.151q-.014.069-.032.142-.073.211-.128.426t-.128.426a2.012,2.012,0,0,0-.11.38,1.842,1.842,0,0,1-.119.389,2.246,2.246,0,0,0-.115.385q-.041.2-.087.394l-.11.312-.037.082-.275,1.054-.119.357-.073.3a1.084,1.084,0,0,1-.041.119,1.085,1.085,0,0,0-.041.119q-.1.33-.188.664t-.179.664a.268.268,0,0,1-.266.229q-.11.009-.215.009h-.206q-.156,0-.3,0t-.3,0a.4.4,0,0,1-.183-.046.292.292,0,0,1-.092-.165q-.046-.156-.087-.307t-.087-.307l-.192-.7-.22-.751q-.1-.321-.2-.646t-.2-.655l-.211-.788q-.037-.128-.078-.243t-.078-.243q-.037-.119-.064-.234t-.055-.234l-.027-.128-.137-.412-.147-.467a.629.629,0,0,1-.023-.128.269.269,0,0,1,.041-.147q.073-.009.156-.023a1,1,0,0,1,.165-.014,1.225,1.225,0,0,1,.183,0,1.224,1.224,0,0,0,.183,0,.471.471,0,0,1,.4.2l.055.3.073.284.257.815.55,1.842q.046.156.082.321t.082.33l.229.806a.6.6,0,0,0,.037.064A.6.6,0,0,1-37.339-6.652Zm.907-1.329.22.174v-.275l-.1-.046.055-.092a.466.466,0,0,1-.092.009Zm.806-2.318q.027.027.027.018l.137-.092-.055-.064q.018-.027.037-.05t.037-.05l-.064-.092-.11.1-.032.082-.032.082.055.027Zm-.513,1.933v.009q.037-.046.073-.087t0-.124l-.183.082a.228.228,0,0,0-.041.1q0,.046.06.092ZM-38.8-9.5l.082-.11a.082.082,0,0,1-.023-.046.234.234,0,0,0-.023-.064l-.055.055-.119-.046q.027.046.046.073a.3.3,0,0,0,.037.046.193.193,0,0,0,.064.238h.064Zm2.8.082a1,1,0,0,0,.105.046l.124.046a.647.647,0,0,0,0-.087.487.487,0,0,1,0-.069l-.2-.055q-.009.037-.014.06A.314.314,0,0,0-35.992-9.419Zm-2.877-.669h-.156l.027.2.06-.014a.314.314,0,0,1,.06,0v-.082A.758.758,0,0,1-38.869-10.088Zm1.823,4.362a.394.394,0,0,1,.073-.009h.064l.027-.092a.235.235,0,0,0-.105-.055q-.05-.009-.105.064Zm-.137.1v-.137l-.128-.018-.1-.018a.137.137,0,0,0,.082.115Q-37.265-5.662-37.183-5.625Zm-1.054-2.556a.261.261,0,0,0-.2-.156l-.073.055a.276.276,0,0,0,.119.073A.9.9,0,0,0-38.237-8.182Zm1.475,1.549a.3.3,0,0,0-.1.092.121.121,0,0,0,.009.119l.156-.128Zm-.367,1.191a.053.053,0,0,1,.018-.037l-.165-.119v.1l-.128.055Zm-.2-.632q.137-.11.064-.174a.346.346,0,0,1-.11.018.788.788,0,0,1,0,.087Q-37.385-6.1-37.33-6.074ZM-38.979-10.4a.9.9,0,0,1-.092.055l-.092.046.082.05a.892.892,0,0,1,.082.06ZM-38-6.8l-.082.082a.227.227,0,0,0,.041.06.33.33,0,0,1,.041.05l.092-.064Zm.513.641a.576.576,0,0,0-.06-.1.094.094,0,0,0-.105-.023.216.216,0,0,0,.018.119Q-37.614-6.139-37.485-6.157Zm1-.678-.082-.064a.042.042,0,0,0-.032,0,.139.139,0,0,1-.041,0l.073.2ZM-35.3-11.27a.1.1,0,0,0-.027.156q0,.009.046.018l.064-.147Zm-3,3.583.037.11.156-.2-.018-.018Zm.495,1.384a.139.139,0,0,0-.156-.073q.018.046.027.073t.027.073A.479.479,0,0,0-37.806-6.3Zm.027.3a.254.254,0,0,0,.06.023.08.08,0,0,1,.041.023.2.2,0,0,1,.037.073.019.019,0,0,0,.014,0,.019.019,0,0,1,.014,0v-.165a.65.65,0,0,1-.082.027A.65.65,0,0,0-37.779-6Zm1.429-1.356q-.064-.119-.147-.037a.3.3,0,0,1,.037.046q.018.027.046.064Zm-2.263-1.759q-.064.018-.064.027a.042.042,0,0,0-.023.023.09.09,0,0,1-.023.032.261.261,0,0,1,.046.055Q-38.567-9-38.612-9.116Zm1.484,3.051a.566.566,0,0,1-.087.027q-.041.009-.105.027l.082.073.1-.073A.1.1,0,0,0-37.128-6.065Zm-1.439-2.456q0,.046,0,.092t.014.092l.037.046a.6.6,0,0,0,0-.156A.222.222,0,0,0-38.567-8.521Zm-.495-2.492A.359.359,0,0,0-39.1-11.1h-.092a.172.172,0,0,1,.041.078Q-39.135-10.967-39.061-11.013Zm-.037-.128V-11.2l-.128-.037a.515.515,0,0,0-.009.1A.155.155,0,0,1-39.1-11.141Zm3.106,2.309.037.027a.126.126,0,0,0,.064-.147q-.037.037-.06.064A.644.644,0,0,0-35.992-8.832ZM-38.64-9.51l-.046.174.092-.037Zm.9,4.013.11.064-.027-.137ZM-38.3-7.513a.644.644,0,0,1,.055.041.352.352,0,0,1,.055.06q.018-.092,0-.105T-38.3-7.513Zm-.715-3.308a1.51,1.51,0,0,1-.082.128l.119-.018Zm1.64,4.911a.488.488,0,0,0-.11.009.377.377,0,0,0,.032.055.345.345,0,0,0,.032.037Zm.339-.284q.046.046.064.037a.1.1,0,0,0,.037-.046l-.037-.037Zm.916-2.052.055-.1a.151.151,0,0,1-.037,0,.151.151,0,0,0-.037,0Zm.275-.944h-.046a.291.291,0,0,1,.018.082.053.053,0,0,0,.037-.009A.238.238,0,0,0-35.845-9.19Zm-2.666.385.037.027.037-.073a.019.019,0,0,1-.014,0,.019.019,0,0,0-.014,0A.261.261,0,0,0-38.512-8.8Zm2.181,1.127-.037-.027-.037.064.027.018A.261.261,0,0,1-36.331-7.678ZM-38.6-8.906l-.041.014a.1.1,0,0,1-.032,0l.027.073Zm2.9-1.365.027.037h.027a.1.1,0,0,0,.009-.055A.383.383,0,0,0-35.7-10.271Zm-2.382,2.639a.323.323,0,0,0-.018.069q0,.014.046.032Zm-1.164-3.5q-.082.018-.027.092Zm3.61,1.035a.019.019,0,0,0-.014,0,.019.019,0,0,1-.014,0,.157.157,0,0,1,.009.064h.037Zm-2.318,3.106v.046a.128.128,0,0,0,.055-.009v-.027A.128.128,0,0,1-37.953-6.991Zm1.374-.192q0-.009-.018-.027l-.046.037.018.018Zm-.77,1.585h-.018v.073h.027a.151.151,0,0,0,0-.037A.151.151,0,0,1-37.348-5.6Zm1.833-4.847-.073.082A.082.082,0,0,1-35.515-10.445Zm-.312.6-.027-.018a.161.161,0,0,0-.018.046l.018.018Zm-2.9,0a.037.037,0,0,1-.027-.009l-.027.046a.1.1,0,0,1,.046.009A.1.1,0,0,1-38.732-9.84Zm1.924,4.1-.027-.018a.062.062,0,0,0-.018.046l.009.009A.055.055,0,0,0-36.807-5.745Zm.357-1.283q.009,0,.027.018a.161.161,0,0,0,.018-.046l-.009-.009A.055.055,0,0,0-36.45-7.027Zm-.367.889a.026.026,0,0,1,.009-.018l-.046-.027a.019.019,0,0,1,0,.014.019.019,0,0,0,0,.014.026.026,0,0,0,.018.009A.07.07,0,0,1-36.817-6.139Zm-.037.22.009-.018-.037-.027-.018.018Zm-1.5-1.952q-.009,0-.009,0s0,0-.009,0h-.009a.041.041,0,0,0,0,.018.041.041,0,0,1,0,.018l.037-.027A.016.016,0,0,1-38.356-7.87Zm-.669-2.978-.027-.027q-.018.018-.027.018A.128.128,0,0,0-39.025-10.848Zm2.419,3.537h.018v-.037H-36.6A.053.053,0,0,1-36.606-7.311Zm-2.621-3.427.018-.037h-.027A.053.053,0,0,1-39.226-10.738ZM-36.5-7.5a.026.026,0,0,0-.018-.009.008.008,0,0,0-.009.009q.009,0,.009,0s0,0,.009,0A.008.008,0,0,1-36.5-7.5Zm-2.566-3.61-.018-.009v.027Zm3,1.979h.009a.07.07,0,0,0,.027-.009h-.037Zm-2.969-1.439-.009.009.009.009.009-.018Zm.99,3.1v.018a.008.008,0,0,0,.009-.009A.008.008,0,0,0-38.053-7.476Zm.183.953-.009.009h.018Zm-1.017-3.949-.009.018h.009Zm.706,3.317.009.009Zm6.909-4.636q.1.027.188.06a.733.733,0,0,0,.188.041,1.146,1.146,0,0,1,.293.073q.137.055.275.119a2.352,2.352,0,0,1,.44.243,4.133,4.133,0,0,1,.385.307,2.9,2.9,0,0,1,.582.71,4.266,4.266,0,0,1,.371.857,2.806,2.806,0,0,1,.124.646,4.392,4.392,0,0,1,0,.664,4.72,4.72,0,0,1-.064.509,3.632,3.632,0,0,1-.128.5,3.494,3.494,0,0,1-.687,1.145l-.183.2a1.786,1.786,0,0,1-.3.243q-.165.105-.33.206-.137.073-.279.133t-.289.115a1.394,1.394,0,0,1-.513.1q-.055,0-.11,0t-.11.014a.3.3,0,0,1-.092.018l-.586-.073a1.845,1.845,0,0,1-.577-.174,3.776,3.776,0,0,1-.472-.27q-.224-.151-.435-.325a.724.724,0,0,1-.174-.183q-.1-.128-.2-.261t-.188-.27q-.055-.1-.105-.2t-.1-.2q-.1-.257-.179-.513a2.776,2.776,0,0,1-.105-.531q-.009-.11-.023-.215a.935.935,0,0,1,0-.206q.018-.2.023-.4a1.672,1.672,0,0,1,.06-.4q.046-.183.092-.348a1.6,1.6,0,0,1,.128-.321,3.613,3.613,0,0,1,.165-.325q.092-.16.183-.316l.124-.179a1.7,1.7,0,0,1,.133-.17l.206-.206a1.227,1.227,0,0,1,.224-.179q.183-.119.353-.247a.8.8,0,0,1,.389-.156.74.74,0,0,1,.325-.119q.17-.018.344-.055a1.366,1.366,0,0,1,.137-.027,1.366,1.366,0,0,0,.137-.027Zm.33,5.69a.77.77,0,0,1,.124-.073q.06-.027.124-.064t.142-.082a.738.738,0,0,0,.133-.092,4.361,4.361,0,0,0,.408-.449,2.124,2.124,0,0,0,.307-.541,2.558,2.558,0,0,0,.165-1.209,2.3,2.3,0,0,0-.312-.944,2.431,2.431,0,0,0-.252-.389,1.648,1.648,0,0,0-.334-.316,1.987,1.987,0,0,0-.916-.385,1.237,1.237,0,0,0-.522.018,2.011,2.011,0,0,0-.353.124,2.583,2.583,0,0,0-.325.179,1.318,1.318,0,0,0-.2.165q-.092.092-.183.192-.073.092-.142.183t-.133.192a1.238,1.238,0,0,0-.151.33q-.05.174-.105.348a1.173,1.173,0,0,0-.073.4q0,.2.018.4a2.787,2.787,0,0,0,.17.733,2.342,2.342,0,0,0,.38.651,1.909,1.909,0,0,0,.2.188q.105.087.206.179a.838.838,0,0,0,.133.078q.069.032.133.069a1.409,1.409,0,0,0,1.017.165,1.509,1.509,0,0,1,.17-.027Q-31.035-6.084-30.943-6.1Zm-.339-5.25.046.257.073.037a.338.338,0,0,0,.06-.037.5.5,0,0,0,.041-.037.649.649,0,0,0,.082.027q.037.009.092.027l-.073-.183q-.082-.018-.16-.041T-31.282-11.352Zm-2.712,3.6a.634.634,0,0,0-.018-.073q-.009-.027-.018-.064l-.128.018.064.073-.046.082a.209.209,0,0,0,.119.105.84.84,0,0,0,.147.032.245.245,0,0,0,0-.119A.341.341,0,0,0-33.994-7.751Zm4.911-1.274.11.046-.064.174.174.055a.751.751,0,0,0,.027-.156.631.631,0,0,1-.078-.037l-.06-.037a.116.116,0,0,1,.027-.078q.027-.032-.018-.1l-.119.027Zm-3.94-1.7.092-.046.027.082.1-.119-.165-.064a.213.213,0,0,1-.041.032l-.05.032.037.082a.838.838,0,0,0-.137-.037l-.055.073q.018.027.037.05t.037.05l.11-.1A.081.081,0,0,0-33.023-10.729Zm3.491,4.279a1.4,1.4,0,0,0,.174-.119.212.212,0,0,0,.046-.092l-.064.018a.173.173,0,0,1-.055.009.178.178,0,0,1-.069,0,.423.423,0,0,0-.06,0A.139.139,0,0,0-29.532-6.45Zm-1.924-4.939-.192.027.037.165a.335.335,0,0,1,.087-.023q.041,0,.087-.014a.139.139,0,0,1,0-.041.1.1,0,0,0,0-.032A.549.549,0,0,0-31.456-11.389Zm-1.292,5.626.119-.073a.162.162,0,0,0-.151-.014.359.359,0,0,0-.105.142l.128.082q.009.009.046-.009Q-32.73-5.708-32.748-5.763Zm-1.329-2.969.147-.192-.064-.137L-34.1-9l.082.092q-.027.037-.055.069t-.064.069Zm2.052,3.079-.165-.037.082.238.064-.055q.018-.037.037-.069T-32.024-5.653Zm1.952-.119q.027-.082.06-.16t.069-.179l-.137.1-.046.183A.069.069,0,0,0-30.1-5.8.222.222,0,0,1-30.073-5.772Zm-3.372-4.252q.046-.055.087-.1a.123.123,0,0,0,.014-.128.093.093,0,0,0-.1.037.833.833,0,0,1-.064.092ZM-33.976-8.5a.141.141,0,0,0-.115.009.362.362,0,0,0-.087.092l.192.027q.009,0,.046-.037ZM-29.2-7.119a.164.164,0,0,0,.046-.046.3.3,0,0,1,.037-.046l.1-.055q-.046-.073-.087-.06l-.087.032a.076.076,0,0,1-.023.087Q-29.257-7.165-29.2-7.119Zm-4.719-2.593A.475.475,0,0,0-34-9.607a.12.12,0,0,0,.018.124l.137-.073-.037-.073Q-33.9-9.666-33.921-9.712Zm4.985,1.979h-.11a.127.127,0,0,0,.023.124q.041.041.105.1Zm-.577-2.337q-.092,0-.082.055a.112.112,0,0,1-.037.1.562.562,0,0,1,.1.055.041.041,0,0,0,.018,0,.041.041,0,0,1,.018,0,.081.081,0,0,1-.009-.1A.1.1,0,0,0-29.514-10.069Zm-2.529-1.209-.1.1.082.092Q-31.914-11.187-32.043-11.279ZM-30.9-5.662a.56.56,0,0,0,.023.16q.014.023.105,0a.1.1,0,0,0-.018-.105A.361.361,0,0,0-30.9-5.662Zm-2.987-3.619a.406.406,0,0,0-.069.087.137.137,0,0,0,0,.115l.137-.092Zm1.356,3.775.229.073v-.1a.769.769,0,0,0-.105-.027A.161.161,0,0,0-32.528-5.506Zm3.5-2.987.018-.192h-.11a.233.233,0,0,0,0,.105A.193.193,0,0,0-29.028-8.493Zm-4.7-1.429-.229.174a.526.526,0,0,1,.124-.018.641.641,0,0,0,.105-.009Zm1.7,4.426v.119a.115.115,0,0,0,.046.027.231.231,0,0,1,.055.027l.037-.11a.764.764,0,0,0-.073-.032A.314.314,0,0,1-32.034-5.5Zm1.356-.055q.073.018.1-.018a.232.232,0,0,0,.037-.11l-.137.018Zm-.889.238.064-.1a.082.082,0,0,0-.009-.1q-.092.018-.1.041A.512.512,0,0,0-31.566-5.314Zm-2.392-3.244.014-.069a.212.212,0,0,0,0-.041q-.046-.018-.078-.027a.4.4,0,0,1-.069-.027l-.018.046Zm4.233-1.787q-.046.082.037.1a.051.051,0,0,0,.046,0,.42.42,0,0,1,.055-.023Q-29.633-10.381-29.724-10.344Zm.458,1.035v.055l.156.064-.027-.147A.066.066,0,0,0-29.2-9.3Q-29.221-9.263-29.266-9.309Zm-2.566,3.885.027-.165-.082-.037v.192A.128.128,0,0,1-31.832-5.424Zm3-3.06a.1.1,0,0,0,0-.092.89.89,0,0,0-.06-.082l-.064.092Zm-4.646,2.245.128-.027V-6.3l-.156-.055Zm2.327.715a.037.037,0,0,1-.009.027.081.081,0,0,0,.037.009.053.053,0,0,1,.037.018.058.058,0,0,1,.027.032.281.281,0,0,0,.027.05l.046-.147a.789.789,0,0,0-.087,0A.707.707,0,0,1-31.154-5.525Zm1.237-.412a.144.144,0,0,1,.1-.073q.073-.018.073-.119l-.174.119Zm-3.958-1.3a.117.117,0,0,1-.046.073q-.037.027.009.082a.245.245,0,0,0,.064-.046l.055-.055ZM-30.659-11q.046.1.119.027a.053.053,0,0,0,.009-.037Q-30.577-11.086-30.659-11Zm-2.318.421a.334.334,0,0,0,.055,0,.334.334,0,0,1,.055,0,.053.053,0,0,1,.009-.037l-.165-.055Zm3.189,4.114h.128l-.027-.128a.444.444,0,0,0-.055.064Q-29.761-6.505-29.789-6.468Zm.467-3.015q.046-.018.073-.032a.42.42,0,0,1,.055-.023l-.055-.11Zm-3.949,3.07a.319.319,0,0,0,.037.128q.018.018.11,0-.037-.027-.069-.055T-33.27-6.413Zm.009-4.114a.18.18,0,0,0-.105,0,.23.23,0,0,0-.069.05q.073.046.1.009A.167.167,0,0,1-33.261-10.528Zm-.834,2.4a.1.1,0,0,1,.069.032q.032.032.078-.032a.671.671,0,0,0-.069-.046Q-34.049-8.191-34.1-8.127Zm3.958-2.483a.073.073,0,0,0,.023.078q.032.023.078.06A.118.118,0,0,0-30.137-10.61Zm.916,3.216h-.027l-.046.092h.1Zm.046-.2.082-.092-.092-.037v.05A.55.55,0,0,0-29.175-7.6Zm.33-.211-.037-.055a.053.053,0,0,0-.037.018l-.018.1Zm-4.856.843.064-.092-.11.018Zm.706.889-.032-.032a.357.357,0,0,0-.06-.041l.037.119Zm-.247-4.224.073-.055-.092-.055.014.069A.213.213,0,0,1-33.243-10.3Zm3.454,4.022.073.119q.018-.073.009-.087A.184.184,0,0,0-29.789-6.276Zm-3.189.385a.165.165,0,0,0-.014-.073q-.014-.027-.087-.009Zm-.687-3.848a.241.241,0,0,0,.087-.032q.014-.014,0-.078Zm4.215-.44q-.082.009-.087.037a.107.107,0,0,0,.014.064.5.5,0,0,0,.037-.041A.338.338,0,0,0-29.45-10.179Zm.513,1.961q.009.11.11.046a.234.234,0,0,0-.064-.023A.082.082,0,0,1-28.936-8.218Zm-.4,1.1.027.11.055-.055A.884.884,0,0,1-29.34-7.119Zm-4.307-3.106.027.027.064-.073q-.018-.018-.018-.027l-.037.037Zm-.321,2.382q.046-.046.046-.06t-.046-.05Zm3.473-3.134q.073.018.087.009t0-.055Zm-1.274,5.6a.064.064,0,0,0,.027,0,.041.041,0,0,1,.018,0l-.027-.073a.019.019,0,0,0-.014,0,.036.036,0,0,1-.023,0A.3.3,0,0,1-31.768-5.378Zm1.374-.559q.073.018.087.009a.2.2,0,0,0,.041-.055Zm-3.729-3-.027-.027a.08.08,0,0,1-.041.023q-.023,0,.023.05Zm2.795-2.181-.027-.027-.046.064q.018.018.027.018A.261.261,0,0,0-31.328-11.114Zm2.2,1.943-.046.073a.211.211,0,0,0,.082-.027Zm-.22,2.364-.027-.018-.027.082a.037.037,0,0,0,.027.009Zm-4.3-3.28v.046a.1.1,0,0,0,.032,0,.1.1,0,0,1,.032,0v-.027a.1.1,0,0,1-.032,0A.1.1,0,0,0-33.646-10.088Zm4.38.779q-.009-.018.014-.046t-.06-.046Zm-.092-.293-.037.018.027.055a.037.037,0,0,1,.027-.009Zm-.3-.449a.145.145,0,0,1-.014-.073q0-.027-.05,0Zm-.192,3.8-.037-.027-.027.064.018.009ZM-34-7.43a.185.185,0,0,0,.037-.055q0-.009-.046-.027a.212.212,0,0,0,0,.041A.213.213,0,0,1-34-7.43Zm4.911-.641a.026.026,0,0,1,.009-.018l-.055-.037q0,.009-.018.027Zm-3.619-2.712.027.018.027-.092Zm2.318-.018.018.018a.072.072,0,0,0,.014-.018.05.05,0,0,1,.023-.018.053.053,0,0,0-.037-.018Zm-3.812,2.446a.019.019,0,0,1,0-.014.019.019,0,0,0,0-.014l-.046-.027-.018.018A.213.213,0,0,1-34.205-8.356Zm.44,1.686-.018.018.037.037.018-.018A.055.055,0,0,0-33.765-6.67Zm2.85-4.316q-.018-.018-.018-.027a.053.053,0,0,0-.037.018l.027.027Zm-2.923,1.539-.018-.027h-.027l.018.046Zm3.161-1.622h.018a.128.128,0,0,0-.009-.055h-.018a.064.064,0,0,0,0,.027A.064.064,0,0,1-30.677-11.068Zm1.622,1.658.064.046v-.027A.159.159,0,0,0-29.056-9.41Zm-.018-.073v.018h.055v-.018Zm-.119-.229a.1.1,0,0,0,0-.032.1.1,0,0,1,0-.032.019.019,0,0,0-.014,0,.019.019,0,0,1-.014,0Zm-4.077-.531a.019.019,0,0,1,.014,0,.019.019,0,0,0,.014,0v-.055Zm.8-.788h.018v-.046h-.018Zm-1.319,1.741-.027-.046v.055a.019.019,0,0,0,.014,0A.019.019,0,0,1-33.793-9.291Zm3.83-1.182-.037.027.027.018A.1.1,0,0,1-29.963-10.473Zm.174-.174v.018h.037v-.018Zm-2.987-.339L-32.794-11l-.037.046Zm-.018.312v-.018a.081.081,0,0,1-.037.009v.018a.036.036,0,0,0,.023,0A.019.019,0,0,1-32.794-10.674Zm3.6.962.018.055a.016.016,0,0,1,.018-.018Zm.348,1.741h-.009v.064h.009Zm-.293-.486h.009a.053.053,0,0,0-.009-.037h-.009A.053.053,0,0,0-29.138-8.457Zm-1.118,2.6v-.009H-30.3v.009Zm1.4-2.52h.009V-8.42h-.009ZM-33.4-6.148a.026.026,0,0,0-.009-.018q0,.009,0,.009s0,0,0,.009l.009.009Zm-.257-.367q0-.009,0-.009s0,0,0-.009,0,.009,0,.009,0,0,0,.009l.009.009Zm.641.678a.026.026,0,0,1-.009.018.019.019,0,0,1,.014,0,.019.019,0,0,0,.014,0Q-33.014-5.827-33.014-5.836Zm.669-5.085.009-.009-.009-.009-.009.009Zm1.888,5.058a.026.026,0,0,0,.009-.018q.009,0,0,0a.019.019,0,0,0-.014,0Zm-.687-5.351-.009-.009.009-.009.009.009Zm-3.024,3.207h.027v-.009A.037.037,0,0,0-34.168-8.008Zm.394-1.539a.019.019,0,0,1,0-.014.019.019,0,0,0,0-.014.008.008,0,0,1-.009-.009ZM-30.2-6.038h.009v-.009Zm-3.647-3.317.009.009Zm9.557-2.437q.1.027.188.06a.733.733,0,0,0,.188.041,1.146,1.146,0,0,1,.293.073q.137.055.275.119a2.351,2.351,0,0,1,.44.243,4.133,4.133,0,0,1,.385.307,2.9,2.9,0,0,1,.582.71,4.267,4.267,0,0,1,.371.857,2.806,2.806,0,0,1,.124.646,4.393,4.393,0,0,1,0,.664,4.721,4.721,0,0,1-.064.509,3.632,3.632,0,0,1-.128.5,3.494,3.494,0,0,1-.687,1.145l-.183.2a1.786,1.786,0,0,1-.3.243q-.165.105-.33.206-.137.073-.279.133t-.289.115a1.394,1.394,0,0,1-.513.1q-.055,0-.11,0t-.11.014a.3.3,0,0,1-.092.018l-.586-.073a1.845,1.845,0,0,1-.577-.174,3.776,3.776,0,0,1-.472-.27q-.224-.151-.435-.325a.724.724,0,0,1-.174-.183q-.1-.128-.2-.261t-.188-.27q-.055-.1-.105-.2t-.1-.2q-.1-.257-.179-.513a2.776,2.776,0,0,1-.105-.531q-.009-.11-.023-.215a.935.935,0,0,1,0-.206q.018-.2.023-.4a1.672,1.672,0,0,1,.06-.4q.046-.183.092-.348a1.6,1.6,0,0,1,.128-.321,3.614,3.614,0,0,1,.165-.325q.092-.16.183-.316l.124-.179a1.7,1.7,0,0,1,.133-.17l.206-.206a1.227,1.227,0,0,1,.224-.179q.183-.119.353-.247a.8.8,0,0,1,.389-.156.74.74,0,0,1,.325-.119q.17-.018.344-.055a1.365,1.365,0,0,1,.137-.027,1.366,1.366,0,0,0,.137-.027Zm.33,5.69a.77.77,0,0,1,.124-.073q.06-.027.124-.064t.142-.082a.738.738,0,0,0,.133-.092,4.362,4.362,0,0,0,.408-.449,2.124,2.124,0,0,0,.307-.541,2.558,2.558,0,0,0,.165-1.209,2.3,2.3,0,0,0-.312-.944,2.431,2.431,0,0,0-.252-.389,1.648,1.648,0,0,0-.334-.316,1.987,1.987,0,0,0-.916-.385,1.237,1.237,0,0,0-.522.018,2.012,2.012,0,0,0-.353.124,2.583,2.583,0,0,0-.325.179,1.319,1.319,0,0,0-.2.165q-.092.092-.183.192-.073.092-.142.183t-.133.192a1.238,1.238,0,0,0-.151.33q-.05.174-.105.348a1.173,1.173,0,0,0-.073.4q0,.2.018.4a2.787,2.787,0,0,0,.17.733,2.342,2.342,0,0,0,.38.651,1.909,1.909,0,0,0,.2.188q.105.087.206.179a.838.838,0,0,0,.133.078q.069.032.133.069a1.409,1.409,0,0,0,1.017.165,1.509,1.509,0,0,1,.17-.027Q-24.053-6.084-23.961-6.1Zm-.339-5.25.046.257.073.037a.338.338,0,0,0,.06-.037.5.5,0,0,0,.041-.037A.65.65,0,0,0-24-11.1q.037.009.092.027l-.073-.183q-.082-.018-.16-.041T-24.3-11.352Zm-2.712,3.6a.635.635,0,0,0-.018-.073q-.009-.027-.018-.064l-.128.018.064.073-.046.082a.209.209,0,0,0,.119.105.84.84,0,0,0,.147.032.245.245,0,0,0,0-.119A.341.341,0,0,0-27.012-7.751ZM-22.1-9.025l.11.046-.064.174.174.055a.752.752,0,0,0,.027-.156.63.63,0,0,1-.078-.037l-.06-.037a.116.116,0,0,1,.027-.078q.027-.032-.018-.1l-.119.027Zm-3.94-1.7.092-.046.027.082.1-.119-.165-.064a.213.213,0,0,1-.041.032l-.05.032.037.082a.838.838,0,0,0-.137-.037l-.055.073q.018.027.037.05t.037.05l.11-.1A.081.081,0,0,0-26.041-10.729ZM-22.55-6.45a1.4,1.4,0,0,0,.174-.119.212.212,0,0,0,.046-.092l-.064.018a.173.173,0,0,1-.055.009.178.178,0,0,1-.069,0,.423.423,0,0,0-.06,0A.139.139,0,0,0-22.55-6.45Zm-1.924-4.939-.192.027.037.165a.335.335,0,0,1,.087-.023q.041,0,.087-.014a.139.139,0,0,1,0-.041.1.1,0,0,0,0-.032A.548.548,0,0,0-24.474-11.389Zm-1.292,5.626.119-.073A.162.162,0,0,0-25.8-5.85a.359.359,0,0,0-.105.142l.128.082q.009.009.046-.009Q-25.748-5.708-25.766-5.763Zm-1.329-2.969.147-.192-.064-.137-.1.064.082.092q-.027.037-.055.069t-.064.069Zm2.052,3.079-.165-.037.082.238.064-.055q.018-.037.037-.069T-25.042-5.653Zm1.952-.119q.027-.082.06-.16t.069-.179l-.137.1-.046.183a.069.069,0,0,0,.023.027A.222.222,0,0,1-23.091-5.772Zm-3.372-4.252q.046-.055.087-.1a.123.123,0,0,0,.014-.128.093.093,0,0,0-.1.037.834.834,0,0,1-.064.092ZM-26.994-8.5a.141.141,0,0,0-.115.009A.362.362,0,0,0-27.2-8.4l.192.027q.009,0,.046-.037Zm4.774,1.384a.164.164,0,0,0,.046-.046.3.3,0,0,1,.037-.046l.1-.055q-.046-.073-.087-.06l-.087.032a.076.076,0,0,1-.023.087Q-22.275-7.165-22.22-7.119Zm-4.719-2.593a.475.475,0,0,0-.082.105A.12.12,0,0,0-27-9.483l.137-.073L-26.9-9.63Q-26.921-9.666-26.939-9.712Zm4.985,1.979h-.11a.127.127,0,0,0,.023.124q.041.041.105.1Zm-.577-2.337q-.092,0-.082.055a.112.112,0,0,1-.037.1.562.562,0,0,1,.1.055.041.041,0,0,0,.018,0,.041.041,0,0,1,.018,0,.081.081,0,0,1-.009-.1A.1.1,0,0,0-22.532-10.069Zm-2.529-1.209-.1.1.082.092Q-24.932-11.187-25.061-11.279Zm1.145,5.617a.56.56,0,0,0,.023.16q.014.023.105,0a.1.1,0,0,0-.018-.105A.361.361,0,0,0-23.915-5.662ZM-26.9-9.281a.406.406,0,0,0-.069.087.137.137,0,0,0,0,.115l.137-.092Zm1.356,3.775.229.073v-.1a.769.769,0,0,0-.105-.027A.161.161,0,0,0-25.546-5.506Zm3.5-2.987.018-.192h-.11a.233.233,0,0,0,0,.105A.194.194,0,0,0-22.046-8.493Zm-4.7-1.429-.229.174a.526.526,0,0,1,.124-.018.641.641,0,0,0,.105-.009Zm1.7,4.426v.119a.115.115,0,0,0,.046.027.231.231,0,0,1,.055.027l.037-.11a.763.763,0,0,0-.073-.032A.314.314,0,0,1-25.051-5.5Zm1.356-.055q.073.018.1-.018a.232.232,0,0,0,.037-.11l-.137.018Zm-.889.238.064-.1a.082.082,0,0,0-.009-.1q-.092.018-.1.041A.512.512,0,0,0-24.584-5.314Zm-2.392-3.244.014-.069a.212.212,0,0,0,0-.041q-.046-.018-.078-.027a.4.4,0,0,1-.069-.027l-.018.046Zm4.233-1.787q-.046.082.037.1a.051.051,0,0,0,.046,0,.42.42,0,0,1,.055-.023Q-22.651-10.381-22.742-10.344Zm.458,1.035v.055l.156.064-.027-.147a.066.066,0,0,0-.064.037Q-22.238-9.263-22.284-9.309ZM-24.85-5.424l.027-.165-.082-.037v.192A.128.128,0,0,1-24.85-5.424Zm3-3.06a.1.1,0,0,0,0-.092.891.891,0,0,0-.06-.082l-.064.092ZM-26.5-6.239l.128-.027V-6.3l-.156-.055Zm2.327.715a.037.037,0,0,1-.009.027.081.081,0,0,0,.037.009.053.053,0,0,1,.037.018.058.058,0,0,1,.027.032.281.281,0,0,0,.027.05l.046-.147a.789.789,0,0,0-.087,0A.707.707,0,0,1-24.172-5.525Zm1.237-.412a.144.144,0,0,1,.1-.073q.073-.018.073-.119l-.174.119Zm-3.958-1.3a.117.117,0,0,1-.046.073q-.037.027.009.082a.245.245,0,0,0,.064-.046l.055-.055ZM-23.677-11q.046.1.119.027a.053.053,0,0,0,.009-.037Q-23.595-11.086-23.677-11ZM-26-10.583a.334.334,0,0,0,.055,0,.334.334,0,0,1,.055,0,.053.053,0,0,1,.009-.037l-.165-.055Zm3.189,4.114h.128l-.027-.128a.444.444,0,0,0-.055.064Q-22.779-6.505-22.807-6.468Zm.467-3.015q.046-.018.073-.032a.42.42,0,0,1,.055-.023l-.055-.11Zm-3.949,3.07a.319.319,0,0,0,.037.128q.018.018.11,0-.037-.027-.069-.055T-26.288-6.413Zm.009-4.114a.18.18,0,0,0-.105,0,.23.23,0,0,0-.069.05q.073.046.1.009A.167.167,0,0,1-26.279-10.528Zm-.834,2.4a.1.1,0,0,1,.069.032q.032.032.078-.032a.669.669,0,0,0-.069-.046Q-27.067-8.191-27.113-8.127Zm3.958-2.483a.073.073,0,0,0,.023.078q.032.023.078.06A.118.118,0,0,0-23.155-10.61Zm.916,3.216h-.027l-.046.092h.1Zm.046-.2.082-.092-.092-.037v.05A.55.55,0,0,0-22.193-7.6Zm.33-.211-.037-.055a.053.053,0,0,0-.037.018l-.018.1Zm-4.856.843.064-.092-.11.018Zm.706.889-.032-.032a.357.357,0,0,0-.06-.041l.037.119Zm-.247-4.224.073-.055-.092-.055.014.069A.212.212,0,0,1-26.261-10.3Zm3.454,4.022.073.119q.018-.073.009-.087A.184.184,0,0,0-22.807-6.276ZM-26-5.891a.165.165,0,0,0-.014-.073q-.014-.027-.087-.009Zm-.687-3.848a.241.241,0,0,0,.087-.032q.014-.014,0-.078Zm4.215-.44q-.082.009-.087.037a.107.107,0,0,0,.014.064.5.5,0,0,0,.037-.041A.338.338,0,0,0-22.468-10.179Zm.513,1.961q.009.11.11.046a.234.234,0,0,0-.064-.023A.082.082,0,0,1-21.954-8.218Zm-.4,1.1.027.11.055-.055A.883.883,0,0,1-22.358-7.119Zm-4.307-3.106.027.027.064-.073q-.018-.018-.018-.027l-.037.037Zm-.321,2.382q.046-.046.046-.06t-.046-.05Zm3.473-3.134q.073.018.087.009t0-.055Zm-1.274,5.6a.064.064,0,0,0,.027,0,.041.041,0,0,1,.018,0l-.027-.073a.019.019,0,0,0-.014,0,.036.036,0,0,1-.023,0A.3.3,0,0,1-24.786-5.378Zm1.374-.559q.073.018.087.009a.2.2,0,0,0,.041-.055Zm-3.729-3-.027-.027a.08.08,0,0,1-.041.023q-.023,0,.023.05Zm2.795-2.181-.027-.027-.046.064q.018.018.027.018A.261.261,0,0,0-24.346-11.114Zm2.2,1.943-.046.073a.211.211,0,0,0,.082-.027Zm-.22,2.364-.027-.018-.027.082a.037.037,0,0,0,.027.009Zm-4.3-3.28v.046a.1.1,0,0,0,.032,0,.1.1,0,0,1,.032,0v-.027a.1.1,0,0,1-.032,0A.1.1,0,0,0-26.664-10.088Zm4.38.779q-.009-.018.014-.046t-.06-.046Zm-.092-.293-.037.018.027.055a.037.037,0,0,1,.027-.009Zm-.3-.449a.145.145,0,0,1-.014-.073q0-.027-.05,0Zm-.192,3.8-.037-.027-.027.064.018.009ZM-27.021-7.43a.185.185,0,0,0,.037-.055q0-.009-.046-.027a.212.212,0,0,0,0,.041A.212.212,0,0,1-27.021-7.43Zm4.911-.641A.026.026,0,0,1-22.1-8.09l-.055-.037q0,.009-.018.027Zm-3.619-2.712.027.018.027-.092Zm2.318-.018.018.018a.072.072,0,0,0,.014-.018.05.05,0,0,1,.023-.018.053.053,0,0,0-.037-.018Zm-3.812,2.446a.019.019,0,0,1,0-.014.019.019,0,0,0,0-.014l-.046-.027-.018.018A.213.213,0,0,1-27.223-8.356Zm.44,1.686-.018.018.037.037.018-.018A.055.055,0,0,0-26.783-6.67Zm2.85-4.316q-.018-.018-.018-.027a.053.053,0,0,0-.037.018l.027.027Zm-2.923,1.539-.018-.027H-26.9l.018.046Zm3.161-1.622h.018a.128.128,0,0,0-.009-.055H-23.7a.064.064,0,0,0,0,.027A.064.064,0,0,1-23.7-11.068Zm1.622,1.658.064.046v-.027A.159.159,0,0,0-22.074-9.41Zm-.018-.073v.018h.055v-.018Zm-.119-.229a.1.1,0,0,0,0-.032.1.1,0,0,1,0-.032.019.019,0,0,0-.014,0,.019.019,0,0,1-.014,0Zm-4.077-.531a.019.019,0,0,1,.014,0,.019.019,0,0,0,.014,0v-.055Zm.8-.788h.018v-.046h-.018Zm-1.319,1.741-.027-.046v.055a.019.019,0,0,0,.014,0A.019.019,0,0,1-26.811-9.291Zm3.83-1.182-.037.027.027.018A.1.1,0,0,1-22.981-10.473Zm.174-.174v.018h.037v-.018Zm-2.987-.339L-25.812-11l-.037.046Zm-.018.312v-.018a.081.081,0,0,1-.037.009v.018a.036.036,0,0,0,.023,0A.019.019,0,0,1-25.812-10.674Zm3.6.962.018.055a.016.016,0,0,1,.018-.018Zm.348,1.741h-.009v.064h.009Zm-.293-.486h.009a.053.053,0,0,0-.009-.037h-.009A.053.053,0,0,0-22.156-8.457Zm-1.118,2.6v-.009h-.046v.009Zm1.4-2.52h.009V-8.42h-.009Zm-4.545,2.227a.026.026,0,0,0-.009-.018q0,.009,0,.009s0,0,0,.009l.009.009Zm-.257-.367q0-.009,0-.009s0,0,0-.009,0,.009,0,.009,0,0,0,.009l.009.009Zm.641.678a.026.026,0,0,1-.009.018.019.019,0,0,1,.014,0,.019.019,0,0,0,.014,0Q-26.032-5.827-26.032-5.836Zm.669-5.085.009-.009-.009-.009-.009.009Zm1.888,5.058a.026.026,0,0,0,.009-.018q.009,0,0,0a.019.019,0,0,0-.014,0Zm-.687-5.351-.009-.009.009-.009.009.009Zm-3.024,3.207h.027v-.009A.037.037,0,0,0-27.186-8.008Zm.394-1.539a.019.019,0,0,1,0-.014.019.019,0,0,0,0-.014.008.008,0,0,1-.009-.009Zm3.574,3.509h.009v-.009Zm-3.647-3.317.009.009Zm9.584,2.19a.775.775,0,0,1,.009.105.234.234,0,0,0,.018.087l.174.412q.092.211.183.417t.183.417l.183.421a.387.387,0,0,1,.037.119.232.232,0,0,1-.027.137h-.88q-.037-.018-.073-.041l-.082-.05L-18.381-7a1.067,1.067,0,0,1-.105-.023.366.366,0,0,0-.1-.014q-.156-.009-.312-.009h-.312a.339.339,0,0,0-.367.247v.531q0,.229,0,.458t0,.458a.772.772,0,0,1-.018.137.217.217,0,0,1-.211.174q-.165,0-.325,0t-.316,0a.257.257,0,0,1-.179-.087.377.377,0,0,1-.087-.2v-.229l.018-.55q.009-.275.009-.55,0-.11-.009-.224t-.009-.224a.418.418,0,0,1,.014-.1.229.229,0,0,0,0-.1,2.062,2.062,0,0,1-.009-.513,2.973,2.973,0,0,0,.009-.522q-.009-.092-.018-.179a.874.874,0,0,1,0-.179q0-.238,0-.481t.014-.481q0-.064,0-.124t0-.133a2.542,2.542,0,0,1,0-.266q0-.137,0-.275a.173.173,0,0,1,.009-.055.085.085,0,0,0,0-.055.838.838,0,0,1-.018-.243q.009-.115.018-.243,0-.055,0-.115t-.014-.115a.372.372,0,0,1,.064-.3.361.361,0,0,1,.293-.11q.156.009.307,0t.307,0q.156,0,.3-.014a1.345,1.345,0,0,1,.293,0,2.947,2.947,0,0,0,.518.009,3.66,3.66,0,0,1,.518,0,2.823,2.823,0,0,1,.476.06,1.832,1.832,0,0,1,.467.17,1.839,1.839,0,0,1,.458.376,1.28,1.28,0,0,1,.133.156q.06.082.124.156a.922.922,0,0,1,.128.234q.046.124.082.252a4.3,4.3,0,0,1,.115.522,1.823,1.823,0,0,1,0,.531q-.027.238-.064.463a1.6,1.6,0,0,1-.137.435,4.4,4.4,0,0,1-.2.4,1.442,1.442,0,0,1-.27.344.927.927,0,0,1-.151.124q-.078.05-.151.105-.055.046-.105.092T-17.281-7.165Zm-2.227-3.3a.765.765,0,0,0-.032.073.208.208,0,0,0-.014.073q-.018.119-.027.238t-.009.238q0,.147,0,.293t.014.3q.009.147.014.289a1.047,1.047,0,0,1-.032.289.355.355,0,0,0,0,.16q.018.087.037.16a.2.2,0,0,0,.119.156.5.5,0,0,0,.1.027.538.538,0,0,0,.1.009q.1,0,.2-.009t.2-.009q.137,0,.279.014t.279.014a1.894,1.894,0,0,0,.353-.032.611.611,0,0,0,.307-.16,1.67,1.67,0,0,0,.137-.156,1.043,1.043,0,0,0,.11-.174,1.373,1.373,0,0,0,.17-.7,2.124,2.124,0,0,0-.151-.7.664.664,0,0,0-.3-.353,1.089,1.089,0,0,0-.435-.124,3.045,3.045,0,0,0-.376-.014q-.192,0-.376,0a.538.538,0,0,1-.1-.009.255.255,0,0,0-.1,0q-.119.009-.238.014A.448.448,0,0,0-19.508-10.463Zm1.7,3.289.046-.211.192-.082.073-.312a.271.271,0,0,1-.183.041.473.473,0,0,0-.174,0,.2.2,0,0,0-.041.128q0,.064,0,.128l.073.027q-.018.046-.032.087t-.032.087Zm.7-3.464a.3.3,0,0,0-.018.05q-.009.032-.018.069l.1.092A.188.188,0,0,0-17-10.6a.32.32,0,0,1,0-.16.033.033,0,0,0,0-.037.344.344,0,0,0-.032-.037l-.137-.128-.064.037.087.137A.336.336,0,0,1-17.107-10.637Zm-1.255,3.079.174-.064-.284-.128a.562.562,0,0,0-.055.1l.046.055q-.082-.018-.115.032a.416.416,0,0,0-.05.133l.165-.046a.337.337,0,0,1,.046-.069A.059.059,0,0,1-18.363-7.559Zm-.761-3.509q-.018-.064-.032-.105a.724.724,0,0,1-.023-.087q-.128-.037-.183.018l-.119-.027.018.183.073.027q.027-.018.05-.037t.05-.037Zm-1.035,2.52a.641.641,0,0,0,.092.046.094.094,0,0,1,.055.082l-.119.156a.279.279,0,0,1,.041.032.044.044,0,0,0,.032.014.052.052,0,0,0,.037,0,.151.151,0,0,1,.037,0q.009-.092.023-.17a.239.239,0,0,0-.032-.16l-.055.055-.119-.211a.141.141,0,0,0-.055.018l-.027.064A.6.6,0,0,0-20.158-8.548ZM-20-10.876l.027.156.147-.046-.119-.137-.064.027a.075.075,0,0,0-.018-.055.4.4,0,0,1,.069-.027l.087-.027-.156-.073-.147.137a.437.437,0,0,0,.064.041.174.174,0,0,1,.046.032l.037-.014Zm-.137,2.859a.322.322,0,0,0-.105.055q-.014.018,0,.092l.055-.037-.037.165q.119.1.183-.027l-.082-.11a.344.344,0,0,1-.032-.037q-.014-.018.032-.037A.148.148,0,0,0-20.14-8.017Zm-.137-2.245a.79.79,0,0,1,0,.087q0,.041,0,.06l.128.092.119-.128-.087.014a.379.379,0,0,1-.05,0q-.009,0-.009-.018l.137-.055a.136.136,0,0,0-.105-.05A.591.591,0,0,1-20.278-10.262Zm3.665.458a.3.3,0,0,1-.124-.041.1.1,0,0,0-.115,0q-.018.092.041.115a.3.3,0,0,1,.105.069h.046a.147.147,0,0,0,.023-.064A.339.339,0,0,1-16.612-9.8Zm-1.649-1.329-.055.073q-.027.037.009.11a.361.361,0,0,1,.1,0,.138.138,0,0,0,.1-.032L-18.133-11l.018-.018a.965.965,0,0,0-.055-.082A.09.09,0,0,0-18.262-11.132Zm-1.7,4.123-.11.1.027.092a.178.178,0,0,1-.055.05q-.037.023.018.078a.112.112,0,0,0,.1-.092.266.266,0,0,1,.05-.119.036.036,0,0,0,0-.046Zm-.027-2.95-.11.027a.769.769,0,0,0-.027.105q-.009.05-.018.105a.355.355,0,0,0,.137-.073A.411.411,0,0,0-19.994-9.959Zm.651,2.373a.32.32,0,0,1,.082.055q-.018.11.073.073v-.2a.227.227,0,0,0-.069-.023.34.34,0,0,1-.06-.014.187.187,0,0,0-.009.06A.068.068,0,0,1-19.343-7.586Zm1.851-3.409-.032.082q-.014.037.06.064l.1-.06a1.4,1.4,0,0,1,.124-.069l-.128-.014Q-17.428-10.995-17.492-10.995Zm-.073,4.334-.192.046.064.1a.8.8,0,0,0,.174-.037q-.018-.037-.027-.06T-17.565-6.661Zm-2.5-2.648.037-.257-.156.147q.009.037.018.064a.355.355,0,0,0,.018.046Zm3.491.037a.251.251,0,0,0-.014.032.09.09,0,0,1-.023.032l.055.037a.148.148,0,0,1,.018-.064.1.1,0,0,0,.055-.1.365.365,0,0,0-.046-.119.144.144,0,0,1-.037.027A.144.144,0,0,0-16.6-9.4Zm-2.758,1.494q-.046,0-.092,0t-.1,0l.018.119.192-.046Zm1.649.293-.128-.073.082-.119.092.055Zm-1.988.064.055.055a.6.6,0,0,0,.064-.037.3.3,0,0,0,.046-.037q-.018-.073-.055-.078a.259.259,0,0,0-.082,0Zm1.869.33-.147.046q.018.046.032.087a.125.125,0,0,0,.069.069Zm-2.181-.467q-.046.073-.037.1t.11.073q.037-.073.027-.1A.292.292,0,0,0-19.984-7.559Zm-.046-.293.092.147.073-.018a.042.042,0,0,0,.023-.023.09.09,0,0,1,.023-.032l-.092-.037A.951.951,0,0,0-20.03-7.852ZM-20-5.818h.027l.046-.211-.11.046Zm1.778-1.6q.119.128.192.055a.541.541,0,0,1-.046-.082ZM-19.545-7.6l-.082-.064-.092.1.082.037.037-.037A.213.213,0,0,1-19.545-7.6Zm2.712-1.274-.037.064.082.073.092-.046-.069-.05A.511.511,0,0,0-16.832-8.869ZM-18.812-7.65a.25.25,0,0,0-.092.06q-.027.032.018.105A.124.124,0,0,0-18.812-7.65Zm-1.209,2.062-.082-.046a.67.67,0,0,1,0,.082.2.2,0,0,0,0,.073q0,.009.046.027Zm3.326-3.445.064-.128-.147-.018q.027.046.046.073A.407.407,0,0,1-16.695-9.034ZM-20.168-7.11h-.092l.073.137A.09.09,0,0,0-20.168-7.11Zm.064-2.08-.192.018q.046.037.073.055a.3.3,0,0,1,.046.037Zm-.137,3.134q.073-.055.073-.073t-.055-.073A.1.1,0,0,0-20.241-6.056Zm.174-2.9q-.018-.018-.018-.027a.257.257,0,0,0-.05,0l-.06.014.064.1Zm2.08,1.649a.626.626,0,0,1,.05-.046.338.338,0,0,1,.06-.037l-.128-.064Zm.6,1.374a.334.334,0,0,1,.055,0,.466.466,0,0,0,.073,0l-.11-.137Zm-2.776-3.381a.257.257,0,0,1-.05,0,.423.423,0,0,1-.05-.014.278.278,0,0,0,.009.082.151.151,0,0,1,.037,0,.151.151,0,0,0,.037,0,.015.015,0,0,0,.014-.009.015.015,0,0,1,.014-.009A.128.128,0,0,0-20.158-9.309Zm.321-1.943a.041.041,0,0,0,0,.018.064.064,0,0,1,0,.027h.073q.037,0,.082-.073Zm-.421-.027v.087a.6.6,0,0,0,.009.1.129.129,0,0,0,.05-.1A.144.144,0,0,0-20.259-11.279Zm.4.183a.35.35,0,0,0,.073.082A.031.031,0,0,0-19.76-11a.088.088,0,0,1,.041.018.444.444,0,0,1-.041-.087Q-19.774-11.114-19.856-11.1Zm2.437,3.317-.037.119a.4.4,0,0,1,.064,0,.334.334,0,0,0,.055,0Zm-.614-3.244a.149.149,0,0,1,.073,0q.037.009.064-.046a.224.224,0,0,0-.087-.023Q-18-11.086-18.033-11.022Zm.944,3.161a.4.4,0,0,0,.069-.092q0-.018-.032-.064-.027.018-.027.037A.474.474,0,0,0-17.089-7.861Zm-.073,2.291q-.055-.073-.082-.064a.222.222,0,0,0-.073.055.465.465,0,0,1,.073,0A.545.545,0,0,0-17.162-5.57Zm.449-3.005.027-.027a.081.081,0,0,0-.023-.06q-.023-.023-.1-.014ZM-20.168-9.6l-.073-.073-.018.147Zm-.064,1.164q.073,0,.073-.092a.184.184,0,0,0-.082.032Q-20.25-8.484-20.232-8.438Zm-.037,1.521.055.064q.018-.018.027-.018a.321.321,0,0,0-.009-.092Zm1.521-4.077q-.064-.046-.078-.041t-.041.078A.524.524,0,0,0-18.747-10.995Zm1.741,2.52-.018.055a.5.5,0,0,1-.027.064Q-16.915-8.374-17.006-8.475Zm.33.009a.209.209,0,0,0-.092.032q-.009.014.037.078ZM-20.1-6.542q-.119-.055-.137.046Zm2.428-.641h-.018a.088.088,0,0,0-.009.064.031.031,0,0,0,.014.027.222.222,0,0,1,.032.027q.009,0,.009,0s0,0,.009,0A.568.568,0,0,0-17.675-7.183Zm-1.961-3.876.037.027q.009,0,.009,0s.006,0,.018,0a.291.291,0,0,1,.018-.082l-.027-.018Zm-.009.128.027.046.082-.055a.053.053,0,0,0-.018-.037Zm2.3-.192a.488.488,0,0,1-.11.009q.037.055.06.06T-17.345-11.123Zm-2.914,5.608a.311.311,0,0,0,.032-.087q0-.032-.06-.06Zm.027-3.3a.327.327,0,0,0-.046.087q0,.014.055.041A.607.607,0,0,1-20.232-8.814Zm.192.861h-.073v.064l.046-.014Q-20.049-7.907-20.039-7.953Zm2.822-2.666a.184.184,0,0,0-.032-.082q-.014-.009-.06.027Zm-.073,4.792a.041.041,0,0,1,0,.018.064.064,0,0,0,0,.027h.082a.019.019,0,0,1,0-.014.019.019,0,0,0,0-.014A.291.291,0,0,0-17.291-5.827Zm-2.941-.962q-.046.046-.046.055t.046.055ZM-16.878-8.6a.488.488,0,0,0,.009-.11l-.037.05a.3.3,0,0,0-.018.032Zm.055-1.97q-.073-.018-.082-.009a.211.211,0,0,0-.027.055A.609.609,0,0,0-16.823-10.573ZM-17.739-11a.255.255,0,0,0,.055.018q.009,0,.027-.037-.009-.009-.014-.009s-.008-.006-.014-.018Zm1.09.815a.053.053,0,0,0-.037-.009v.082h.027a.151.151,0,0,1,0-.037A.151.151,0,0,0-16.649-10.189ZM-17.978-7.66a.053.053,0,0,0,.037.009.151.151,0,0,1,0-.037.151.151,0,0,0,0-.037.037.037,0,0,0-.027-.009ZM-20-6.239a.055.055,0,0,0-.037.037l.046.027.027-.027a.05.05,0,0,1-.023-.018A.072.072,0,0,0-20-6.239ZM-20.2-7.586a.274.274,0,0,0-.05.046q0,.009.041.055A.435.435,0,0,1-20.2-7.586Zm2.089-.156a.072.072,0,0,1-.018.014.05.05,0,0,0-.018.023l.046.037.009-.009q0-.009,0-.009s0,0,0-.009Zm1-.394a.324.324,0,0,0-.023-.06s-.02,0-.05.014a.081.081,0,0,0,.037.023A.081.081,0,0,1-17.107-8.136Zm-1.878.4-.027.027A.072.072,0,0,1-19-7.687a.05.05,0,0,0,.023.018l.027-.027a.05.05,0,0,1-.023-.018A.072.072,0,0,0-18.986-7.733Zm-1.008.6a.053.053,0,0,0,.018-.037.141.141,0,0,1-.055-.018.037.037,0,0,0-.009.027Zm-.156-3.207a.053.053,0,0,1-.009-.037.383.383,0,0,0-.064.018q0,.009,0,.009s0,0,0,.009Zm3.271,2.272L-16.9-8.09a.072.072,0,0,1-.018.014.05.05,0,0,0-.018.023q0,.009.018.027Zm-2.474-2.941-.027.037a.161.161,0,0,1,.046.018l.018-.018Zm-.88.073a.037.037,0,0,1-.027.009.151.151,0,0,0,0,.037.151.151,0,0,1,0,.037h.018Zm.192,2.987v-.009L-20-8.035l-.055.018Zm2.95.137-.027-.027-.037.037q.018.018.027.018Zm-1.576-3.207a.037.037,0,0,0-.009.027l.037.027.018-.027Zm.788-.238v.027h.055v-.027Zm.284,4.957a.037.037,0,0,1,.027.009l.018-.046a.053.053,0,0,1-.037-.009A.1.1,0,0,1-17.593-6.3Zm-2.428-4.4v-.027a.128.128,0,0,0-.055.009v.009A.128.128,0,0,0-20.021-10.7Zm.852-.266q.027,0,.027-.009a.019.019,0,0,0,0-.014.019.019,0,0,1,0-.014.053.053,0,0,0-.037.018Zm2.346,1.42q.018,0,.018.009l.027-.046A.016.016,0,0,1-16.8-9.6Zm-3.4,4.05a.019.019,0,0,0-.014,0,.019.019,0,0,1-.014,0,.019.019,0,0,0,0,.014.036.036,0,0,1,0,.023l.037-.027Zm1.805-1.933.018-.027-.064-.018Zm.953-.486-.009.009a.05.05,0,0,0,.018.023.072.072,0,0,1,.018.014l.018-.018Zm.7-2.052a.037.037,0,0,1,.027-.009l-.027-.046q-.009,0-.009,0s0,0-.009,0A.161.161,0,0,1-16.768-9.969Zm-2.135-1.1h.018v-.055h-.027A.128.128,0,0,1-18.9-11.068Zm2.1.962-.018-.027a.008.008,0,0,1-.009.009h-.018l.018.037Zm-1.558,2.547.027.064a.019.019,0,0,0,.014,0,.019.019,0,0,1,.014,0Zm.33-3.464h-.073v.037A.2.2,0,0,1-18.033-11.022Zm.339,3.693a.019.019,0,0,1,0,.014.019.019,0,0,0,0,.014.128.128,0,0,1,.055-.009v-.009A.1.1,0,0,0-17.694-7.33ZM-19.8-7.687l.018.018a.053.053,0,0,1,.018-.037q0-.009,0-.009s0,0,0-.009Zm1.86-3.5h-.009v.046h.009Zm.541.431v.009h.037v-.009Zm-.935,3.326-.009-.009q-.009,0-.009,0s0,0-.009,0a.026.026,0,0,0,.018.009Zm-1.658-1.787v-.009h-.027v.009Zm-.257-1.319v.009a.008.008,0,0,0,.009.009v-.018Zm.4,2.556q-.009,0,0,.009l.009.009V-7.98Zm1.8.733.018.009.009-.009Zm.421-.376v-.009h-.009v.009Zm-2.355-1.823-.009.009.009.009Zm1.823-1.823.009.009A.008.008,0,0,1-18.161-11.27ZM-20.213-6.4h.009v-.009Zm2.4-1.155-.009.009h.009Zm1.035-1.374h-.009Zm6.2.586a.366.366,0,0,0,.014.1.207.207,0,0,1,0,.1,1.332,1.332,0,0,0-.018.44,2.568,2.568,0,0,1,.018.431q0,.128-.009.257l-.018.257a.064.064,0,0,1,0,.027.033.033,0,0,0,0,.027,4.728,4.728,0,0,1,.023.687q-.014.339,0,.687a.271.271,0,0,1-.3.312H-11.5a.368.368,0,0,1-.16-.174.466.466,0,0,1-.014-.22,1.418,1.418,0,0,0,.009-.279q-.009-.142-.009-.289V-6.2a.151.151,0,0,1,0-.037.151.151,0,0,0,0-.037,5.145,5.145,0,0,1,0-.651,5.145,5.145,0,0,0,0-.651q-.018-.339-.33-.339-.11,0-.22.009l-.229.018a.869.869,0,0,1-.151-.014.87.87,0,0,0-.151-.014l-.9.027a.287.287,0,0,1-.078-.009.287.287,0,0,0-.078-.009q-.082,0-.165,0a.992.992,0,0,0-.165,0,.285.285,0,0,0-.156.087.278.278,0,0,0-.073.17.566.566,0,0,0,0,.124q0,.06,0,.124v.669a.487.487,0,0,0,0,.069.423.423,0,0,1,0,.06v.275a.789.789,0,0,1,0,.087.789.789,0,0,0,0,.087q.009.128.014.247t0,.247q0,.119,0,.234t-.014.215a.276.276,0,0,1-.133.142.466.466,0,0,1-.179.032,2.256,2.256,0,0,0-.247,0q-.119,0-.247.014a.5.5,0,0,1-.137-.018.2.2,0,0,1-.11-.092.3.3,0,0,1-.018-.092q-.009-.257-.018-.5t-.009-.495q.009-.238,0-.481t0-.481a1.578,1.578,0,0,1,.009-.174,1.578,1.578,0,0,0,.009-.174,1.706,1.706,0,0,0-.009-.179,1.707,1.707,0,0,1-.009-.179V-9.181l.027-.614q0-.128-.009-.243t-.018-.243v-.165a1.493,1.493,0,0,1,.009-.165V-11q-.018-.156-.027-.307a.5.5,0,0,1,.082-.3.4.4,0,0,1,.224-.073h.224a.878.878,0,0,1,.133.009.483.483,0,0,0,.133,0,.321.321,0,0,1,.27.069.343.343,0,0,1,.078.27l-.018.495q-.009.247-.009.495,0,.156.009.321l.018.33a1.206,1.206,0,0,1-.014.188.56.56,0,0,0,0,.188q.037.238.2.284.128.009.22.009h.183q.211,0,.412.009a2.963,2.963,0,0,0,.4-.009,1.572,1.572,0,0,1,.339,0,1.489,1.489,0,0,0,.33,0l.412-.018a.287.287,0,0,0,.147-.142.506.506,0,0,0,.027-.17q0-.495,0-.994t0-.994a.331.331,0,0,1,.082-.257.428.428,0,0,1,.266-.082h.513a.064.064,0,0,1,.027,0,.064.064,0,0,0,.027,0,.3.3,0,0,1,.183.367.308.308,0,0,0,0,.092q0,.046,0,.092,0,.293,0,.573t.014.573a1.864,1.864,0,0,1,0,.261q-.009.133-.009.261,0,.211,0,.421t0,.421q0,.064,0,.128T-10.574-8.347Zm-.458-2.382q.055-.018.06-.055a.259.259,0,0,0,0-.082l-.092.046q.009.027.018.05t.018.041a.3.3,0,0,0-.073-.018v-.192a.465.465,0,0,0,.073,0,.466.466,0,0,1,.073,0q-.082-.064-.137-.1l-.128.165a.247.247,0,0,0,.082.284q.018-.018.046-.041t.055-.05A.053.053,0,0,1-11.032-10.729Zm-.293,1.759-.174.238q0,.009.018.027l.357-.11a.2.2,0,0,0,.009-.064.188.188,0,0,0-.105-.041A.163.163,0,0,1-11.326-8.97ZM-12.81-8.4q.055-.018.128-.037l.082-.1h.174a.142.142,0,0,0-.151-.082.19.19,0,0,1-.17-.055q.027.1,0,.137a.415.415,0,0,1-.073.073A.2.2,0,0,0-12.81-8.4Zm1.768-.147-.147.018a.463.463,0,0,0-.055.11.164.164,0,0,0,.009.119l.037.037.1-.128h.11Zm.064,2.272-.238-.229a.335.335,0,0,1-.064.055l.037.183a1.01,1.01,0,0,0,.124.027A.229.229,0,0,0-10.977-6.276Zm-3.793-1.64a.387.387,0,0,0,.105-.055q.05-.037.032-.137-.073.027-.142.06l-.133.06a.161.161,0,0,0-.018.046.08.08,0,0,0,.041.023.08.08,0,0,1,.041.023.125.125,0,0,1,.018.082h.037a.212.212,0,0,1,0-.041Q-14.78-7.879-14.771-7.916Zm3.628-2.126-.027.073a.58.58,0,0,1,.087.064.084.084,0,0,0,.105,0,.508.508,0,0,0,.009-.156.379.379,0,0,0-.082-.1.245.245,0,0,1-.046.064l-.055.055Zm.119-.156v-.147l-.174.073-.027-.119-.018.009v.229a.724.724,0,0,1,.11-.027Zm-.082,1.329a.008.008,0,0,1-.009-.009.12.12,0,0,0,.055.055q.037.018.009.073a.076.076,0,0,0,.014.064q.023.037.041.073a.037.037,0,0,1,.027-.009q0-.073,0-.156t-.014-.156q-.055-.027-.078,0A.2.2,0,0,0-11.106-8.869Zm-2.712.376a.966.966,0,0,1-.055.082l-.064.082h.165l.082-.147v-.009a.019.019,0,0,0,0-.014.019.019,0,0,1,0-.014Zm2.694,2.868a.4.4,0,0,0-.115.073.068.068,0,0,0,0,.073l.11.055.064-.073q-.018-.046-.027-.073A.231.231,0,0,0-11.124-5.625Zm.009-2.227a.6.6,0,0,0-.037.064.9.9,0,0,1-.055.092L-11-7.715q-.009-.046-.014-.073a.334.334,0,0,1,0-.055.257.257,0,0,1-.05,0A.258.258,0,0,0-11.115-7.852Zm-1.063-.559a1.154,1.154,0,0,1,.11.037.116.116,0,0,0,.11-.027l-.027-.092a.117.117,0,0,0-.105,0A.291.291,0,0,0-12.178-8.411ZM-14.945-8.6q.046.092.147.018a.759.759,0,0,0-.009-.137q-.082-.009-.1.027A.711.711,0,0,0-14.945-8.6Zm3.931-2.657h-.2v.082l.183.027ZM-14.8-9.089v-.092a1.067,1.067,0,0,0-.105.023.1.1,0,0,0-.069.069l.018.018h.064a.711.711,0,0,1,.037.092Zm3.5.788v-.147q-.055.018-.092.027a.65.65,0,0,0-.082.027v.027Zm-3.628.834q-.055.046-.05.082a.67.67,0,0,1,0,.082.082.082,0,0,1,.046-.023.234.234,0,0,0,.064-.023l.027-.092Zm.156-2.1-.073.073-.064.064.147.055V-9.46A.774.774,0,0,0-14.771-9.565ZM-10.959-5.8a.174.174,0,0,0-.2,0l.073.082Zm-3.033-2.776a.369.369,0,0,0-.1-.009.2.2,0,0,0,.055.1.534.534,0,0,0,.11.069.546.546,0,0,1-.037-.087A.4.4,0,0,0-13.992-8.576Zm-.715.183a.173.173,0,0,1-.064.078q-.046.032,0,.105a.172.172,0,0,0,.087-.069Q-14.661-8.319-14.707-8.393Zm-.092,2.08-.128-.1a.576.576,0,0,1,.009.092.2.2,0,0,0,.009.064q0,.009.055.027A.883.883,0,0,1-14.8-6.313Zm3.564-.586q.11.11.156.009l-.009-.046Zm-3.775-2.914.137-.037-.137-.092Zm4,.385a.566.566,0,0,0,.027-.087q.009-.041-.055-.06a.144.144,0,0,0-.027.037.144.144,0,0,1-.027.037Zm-.412,1.338-.018-.183a.6.6,0,0,1-.092.073Zm-1.338-.238h.128a.369.369,0,0,0-.009-.1h-.046l-.037.055A.3.3,0,0,1-12.755-8.328Zm1.255-.211q.037-.046.023-.078a.138.138,0,0,0-.06-.06.568.568,0,0,0-.037.11Zm-3.088-.046-.055.027a.144.144,0,0,0-.037.027q-.018.009-.018.023a.05.05,0,0,1-.018.032q.092.009.105,0A.246.246,0,0,0-14.587-8.585Zm1.7.037a.065.065,0,0,0-.073.073h.137Q-12.847-8.539-12.892-8.548Zm-1.924,1.9a.566.566,0,0,0-.087-.027q-.041-.009-.06.064l.082.027Zm3.583-.9q-.018.064-.009.073a.081.081,0,0,0,.009.037.448.448,0,0,0,.027.046q.055-.064.037-.092A.313.313,0,0,0-11.234-7.55Zm.1-2.2v.165l.055-.055.037-.037a.213.213,0,0,0-.041-.032A.272.272,0,0,1-11.133-9.749Zm-3.711,2.978a.4.4,0,0,0-.046-.082q-.092.1,0,.137ZM-15-10.234v.165a.245.245,0,0,1,.05-.064.2.2,0,0,0,.041-.046Zm.266,4.187q-.046.046-.064.069a.432.432,0,0,1-.064.06.163.163,0,0,0,.1-.023Q-14.734-5.964-14.734-6.047Zm-.293-2.025.069.014a.439.439,0,0,1,.069.023l-.037-.11Zm.156.843-.046-.027-.064.147a.037.037,0,0,1,.027.009Zm-.073,1.594q.064.11.156.055l-.073-.027Zm-.092-1.338a.327.327,0,0,0,0,.092q0,.037.078.073A.5.5,0,0,0-15-6.894.63.63,0,0,1-15.036-6.972ZM-11-6.688a.3.3,0,0,0-.032.115q0,.023.069.069Zm-1.035-1.906a.234.234,0,0,0,.087.018q.041,0,.078-.073l-.087.027Q-11.985-8.612-12.031-8.594Zm1.072,1.219a.35.35,0,0,1-.05.073q-.032.037.032.092.009-.046.014-.087A.707.707,0,0,0-10.959-7.376Zm-2.1-1.035.037.064.037-.018a.212.212,0,0,1,0-.041.257.257,0,0,0,0-.05A.4.4,0,0,1-13.057-8.411Zm1.8-.788a.394.394,0,0,1,.009.073v.064a.123.123,0,0,0,.05-.064Q-11.2-9.153-11.261-9.2Zm.156,3.115.092.082-.027-.119-.032.014A.09.09,0,0,0-11.106-6.084Zm-3.491-2.8-.055-.064-.064.082a.1.1,0,0,1,.046-.009A.394.394,0,0,0-14.6-8.887Zm3.445.22-.037-.027q-.009.027-.018.05a.281.281,0,0,1-.027.05q.009,0,.027.018Zm-3.61-1.448-.027-.018a.072.072,0,0,1-.018.014.05.05,0,0,0-.018.023.075.075,0,0,0,0,.023q0,.014.014.06Zm.046,1.42q.1-.055,0-.11Zm3.61-1.264.046-.073.064.055ZM-11.188-8l.037.027a.359.359,0,0,0,.037-.082l-.027-.018Zm-.6-.44a.128.128,0,0,0,.009.055l.073-.027v-.027Zm-1.494.009.055-.073h-.11A.287.287,0,0,1-13.277-8.429ZM-14.981-11a.064.064,0,0,0,.027,0,.041.041,0,0,1,.018,0,.291.291,0,0,0-.018-.082.037.037,0,0,0-.027.009Zm4.032,1.292-.082-.037v.073Zm-2.227,1.1q-.073.018-.069.05a.142.142,0,0,0,.023.06q.009-.027.018-.05T-13.176-8.612Zm.944.275.037-.027-.064-.064a.016.016,0,0,1-.018.018ZM-11-5.909l.027-.037-.082-.037-.009.018Zm-3.885-5.012q-.055-.018-.069-.009a.145.145,0,0,0-.032.064Zm1.42,2.382v-.037a.212.212,0,0,0-.041,0,.212.212,0,0,1-.041,0v.027Zm2.254,1.448a.053.053,0,0,0-.037.009l.037.064.027-.018Zm-3.555-3.958.037-.055a.062.062,0,0,0-.046-.018q-.018.018-.018.027Zm3.784.458q.018-.092-.046-.1.009.027.018.05A.281.281,0,0,0-10.986-10.592ZM-14.111-8.42q.027.046.037.046t.046-.046Zm-.8,1.466a.2.2,0,0,0,.06-.037q0-.009-.041-.046A.291.291,0,0,1-14.908-6.954Zm.082-3.244.027-.037a.141.141,0,0,1-.055-.018.026.026,0,0,0-.009.018.072.072,0,0,0,.018.014A.05.05,0,0,1-14.826-10.2Zm-.137.623v-.018a.157.157,0,0,0-.064.009v.018A.157.157,0,0,0-14.963-9.575ZM-15-10.61l.018.018.037-.037-.027-.018Zm3.647,2.318v.037a.128.128,0,0,0,.055-.009v-.018A.128.128,0,0,1-11.353-8.292Zm-.889-.229-.018-.018-.046.037.018.018Zm-2.795,1.274.037.018a.128.128,0,0,0,.009-.055Zm.1-3.94q.018-.018.027-.018a.05.05,0,0,0-.018-.023.072.072,0,0,1-.018-.014q0,.009,0,.009s0,0,0,.009Zm3.958,5.012L-11-6.2l-.027.064Zm-3.867-4.4-.018-.027h-.027l.018.037a.019.019,0,0,0,.014,0A.019.019,0,0,1-14.844-10.573Zm.614,2.282a.019.019,0,0,0,0-.014.019.019,0,0,1,0-.014l-.064.027Zm.3-.293a.019.019,0,0,0,0-.014.019.019,0,0,1,0-.014l-.046.027Zm-.476.312q0,.018.009.018a.031.031,0,0,1,.023-.009.05.05,0,0,0,.032-.018.1.1,0,0,0-.032,0A.1.1,0,0,1-14.4-8.273Zm-.431-.495q-.018-.018-.018-.027l-.027.027Zm1.494.2a.019.019,0,0,0-.014,0,.019.019,0,0,1-.014,0l.027.037Zm-1.576,2.712h.064v-.009A.386.386,0,0,0-14.917-5.854Zm3.683-.806h-.009v.046h.009ZM-14.89-10.39v.009h.037v-.009Zm-.082.98V-9.4q0,.009,0,.009s0,0,0,.009a.019.019,0,0,1,0-.014.019.019,0,0,0,0-.014Zm3.628.889h-.009v.027h.009Zm-3.4-.449-.009.009.009.009q.009,0,.009-.018Zm3.537,1.347V-7.6l.009.009v-.027ZM-15-9.254l-.018-.009-.009.009Zm.257-.394-.027-.018v.009a.019.019,0,0,1,.014,0A.019.019,0,0,0-14.743-9.648Zm-.046.568h.009Zm9.355-2.593a.509.509,0,0,1,.064.188,1.619,1.619,0,0,1,.009.17,1.214,1.214,0,0,0-.014.234q0,.115,0,.224a.312.312,0,0,1-.023.147.758.758,0,0,1-.133.128h-2.6q-.092.009-.174.023a.153.153,0,0,0-.119.105q-.018.137-.027.261t-.009.252a.335.335,0,0,0,0,.124.548.548,0,0,1,.014.124,1.578,1.578,0,0,1-.009.174,1.578,1.578,0,0,0-.009.174,1.619,1.619,0,0,0,.009.17,1.509,1.509,0,0,0,.027.17.146.146,0,0,0,.078.11,1.118,1.118,0,0,0,.115.046q.238-.018.458-.023a3.032,3.032,0,0,1,.44.023.019.019,0,0,1,.014,0,.036.036,0,0,0,.023,0q.183-.009.357-.014t.357,0q.046,0,.1,0a.9.9,0,0,1,.1.014.185.185,0,0,1,.137.192v.22l.027.339v.073q0,.275-.257.284-.156.009-.321,0t-.321,0q-.147,0-.289,0t-.289,0h-.568L-8.43-7.6a4.079,4.079,0,0,0-.041.637q0,.316.041.637a.283.283,0,0,0,.284.156,1.653,1.653,0,0,0,.275,0,.826.826,0,0,1,.284.023.155.155,0,0,0,.105,0,.364.364,0,0,1,.105-.018,2.5,2.5,0,0,0,.371.009q.188-.009.371-.009.128.009.252.009h.252a2.379,2.379,0,0,1,.33,0q.165.014.321.023a.241.241,0,0,1,.119.22V-5.3a.281.281,0,0,1-.018.1q-.018.05-.037.105l-.119.032q-.055.014-.11.023h-1.1q-.266,0-.527,0t-.527,0q-.357-.018-.715,0t-.724,0h-.078a.172.172,0,0,1-.078-.018.26.26,0,0,1-.137-.124.283.283,0,0,1-.027-.188,2.748,2.748,0,0,0,.023-.417q0-.206-.023-.417-.009-.147,0-.293t0-.293v-.467a.486.486,0,0,0,0-.069.129.129,0,0,1,0-.06l.027-.834a.589.589,0,0,0,0-.147l-.018-.147v-.06a.187.187,0,0,1,.009-.06.466.466,0,0,1,.009-.092.158.158,0,0,0-.009-.092,1.02,1.02,0,0,1-.023-.165.3.3,0,0,1,.032-.156.119.119,0,0,0,0-.092,1.216,1.216,0,0,1-.041-.344,2.663,2.663,0,0,1,.032-.344.064.064,0,0,1,0-.027.033.033,0,0,0,0-.027,1.588,1.588,0,0,1,0-.417,1.588,1.588,0,0,0,0-.417,1.157,1.157,0,0,1-.014-.307q.014-.151.014-.307a.33.33,0,0,1,.064-.211.33.33,0,0,1,.211-.064q.2,0,.4-.009t.4-.009a.6.6,0,0,1,.165,0,1,1,0,0,0,.165.014q.073,0,.147,0t.147,0h.321a.081.081,0,0,1,.037.009.039.039,0,0,0,.037,0,.942.942,0,0,1,.38-.014,1.439,1.439,0,0,0,.38.014l.3-.018a2.42,2.42,0,0,1,.3,0q.165,0,.33.014T-5.434-11.673ZM-7.083-5.68l.064-.055q-.082-.009-.16-.014t-.151,0a.075.075,0,0,0-.046.027l.137.073a.6.6,0,0,1-.037.064.3.3,0,0,1-.037.046l.073.064q.046-.018.082-.037l.073-.037ZM-8.952-8.145q.064.009.105.018l.1.018A.3.3,0,0,1-8.769-8.2a.408.408,0,0,0-.009-.078q.037-.046.082-.1a.241.241,0,0,0,.055-.142.772.772,0,0,1-.128.018l-.119.165.037.064Zm1.723-2.914.018.064.1-.073-.082-.027a.833.833,0,0,1,.064-.092q.037-.046-.027-.128l-.257.046a1.249,1.249,0,0,0,.1.092,1.116,1.116,0,0,1,.092.082h.027Zm1.127-.247-.11.018a.724.724,0,0,0-.11.027.064.064,0,0,1,0,.027.033.033,0,0,0,0,.027l.046.037.073-.082q.027.082.087.082a.45.45,0,0,1,.124.018l.037-.092h.009a.108.108,0,0,0-.069-.055A.4.4,0,0,0-6.1-11.306Zm-2.859,5.47-.082.027a.226.226,0,0,0,.064.229q.037-.037.064-.06l.073-.06a.658.658,0,0,1-.069-.078A.472.472,0,0,0-8.962-5.836Zm.018-2.74.1-.027q-.009-.046-.014-.087a.789.789,0,0,1,0-.087A.388.388,0,0,0-9-8.736a.747.747,0,0,0-.133.1h.183a.1.1,0,0,0,0,.032A.1.1,0,0,1-8.943-8.576Zm.9-2.694-.238-.027.064.137.183.055a.67.67,0,0,0,0-.082A.669.669,0,0,1-8.045-11.27Zm-.522,5.653-.2-.027a.375.375,0,0,0,.041.16.226.226,0,0,0,.133.023A.493.493,0,0,1-8.568-5.616Zm.486-5.424q-.1-.064-.124-.06t-.06.087a.192.192,0,0,1,.078.018.278.278,0,0,0,.082.023.25.25,0,0,0,.082,0,.187.187,0,0,0,.087-.055l-.1-.064Zm-.147,2.7q-.266.1-.211.22l.11.018Zm.962.064-.211-.037a.122.122,0,0,0-.027.041.285.285,0,0,1-.037.06l.229.037ZM-8.9-7.815a.137.137,0,0,1,.064-.124q.064-.041.037-.151l-.229.22.06.027Zm2.786,2.391q.027-.027.05-.055a.236.236,0,0,1,.05-.046l-.082-.119-.137.137Zm-1.53-5.608-.046-.266q-.037.082-.064.137l-.064.128ZM-8.852-6.166q-.037.119,0,.16a.417.417,0,0,0,.192.078q-.046-.055-.087-.11T-8.852-6.166Zm1.063-2.162a.335.335,0,0,0-.023.087.229.229,0,0,1-.023.078.109.109,0,0,0,.156-.046l-.027-.073L-7.743-8.3A.448.448,0,0,1-7.789-8.328Zm1.4-2.7q.073.073.1.073t.073-.082q-.046-.055-.087-.046A.187.187,0,0,0-6.387-11.031Zm-2.4.027a.164.164,0,0,0,.082-.055.321.321,0,0,0,.046-.092.3.3,0,0,0-.147.041Q-8.824-11.086-8.787-11Zm-.229,2.135q-.064-.037-.009-.073-.046-.064-.1-.018a.477.477,0,0,0,.018.1.318.318,0,0,0,.064.078Zm1.338.495-.018.082A.691.691,0,0,0-7.569-8.3l-.018-.128h-.046Zm.568-.082a.246.246,0,0,0,.082.082q.027.009.119-.037-.046-.064-.1-.055A.588.588,0,0,1-7.111-8.457Zm-1.833-.119a.288.288,0,0,1-.046,0l-.073-.014q.046.064.073.105a.207.207,0,0,0,.11.069A.555.555,0,0,1-8.943-8.576Zm1.97,3.033h-.11v.092a.562.562,0,0,0,.078,0,.562.562,0,0,1,.078,0A.227.227,0,0,1-6.973-5.543Zm.339-.055-.229-.018.119.11Zm-2.2-5.269-.018-.037-.128.018.064.119a.227.227,0,0,1,.041-.06Zm-.348,1.411a.676.676,0,0,1,.165-.073.037.037,0,0,1-.009-.027h-.147a.151.151,0,0,1,0,.037A.3.3,0,0,0-9.181-9.455Zm.843,3.931a.293.293,0,0,0,.064-.064.268.268,0,0,0,.009-.092.965.965,0,0,0-.082.055Q-8.384-5.6-8.338-5.525Zm.3-.147a.293.293,0,0,0,.064.064.174.174,0,0,0,.082,0,.151.151,0,0,0-.05-.078Q-7.972-5.708-8.036-5.671Zm-.687-5.177a.135.135,0,0,1,.06-.046q.041-.018.023-.092a.809.809,0,0,1-.087.046Q-8.769-10.922-8.723-10.848Zm-.4,4.655a.761.761,0,0,1,.041-.087A.238.238,0,0,0-9.062-6.4L-9.14-6.3Q-9.172-6.267-9.126-6.194Zm1.255.742q.046-.073-.073-.11v.11ZM-9.053-9.822q-.147,0-.073.137a.672.672,0,0,0,.041-.078A.369.369,0,0,1-9.053-9.822Zm2.3-1.347a.253.253,0,0,1,.023-.05q.014-.023.032-.06h-.137l.046.06Q-6.772-11.2-6.753-11.169ZM-8.723-7.9q-.064-.055-.11.046l.064.027Zm1.9-.266a.026.026,0,0,1-.009-.018.07.07,0,0,0-.009-.027l-.041.018a.135.135,0,0,1-.05.009.3.3,0,0,1-.073.018.522.522,0,0,1,.092.027A.082.082,0,0,0-6.827-8.164Zm-1.649-2.987.037-.137a.136.136,0,0,0-.078.041Q-8.531-11.224-8.476-11.151Zm.367,2.96.018.037a.2.2,0,0,1,.064-.009.757.757,0,0,0,.1-.009.2.2,0,0,0-.11-.041A.226.226,0,0,0-8.109-8.191Zm.623-3.051-.037.064.1.046q0-.009.018-.027ZM-8.952-6.615l-.064.073.128.046a.544.544,0,0,1-.037-.069A.281.281,0,0,0-8.952-6.615Zm.027-.137h-.046a.107.107,0,0,0-.014.064q0,.027.078.046A.914.914,0,0,1-8.925-6.752Zm2.135-4.261-.055-.156q-.046.064-.027.092A.254.254,0,0,0-6.79-11.013ZM-8.5-8.237l-.156.037.073.037Q-8.549-8.145-8.5-8.237Zm-.376.88a.019.019,0,0,1,0-.014.019.019,0,0,0,0-.014l-.064-.055-.046.064Zm-.229,0,.1.064.018-.073h-.046A.394.394,0,0,0-9.108-7.357ZM-6.625-8.42a.143.143,0,0,0-.06-.018.091.091,0,0,1-.041-.009l-.018.037a.05.05,0,0,1,.023.018.072.072,0,0,0,.014.018l.037-.018A.449.449,0,0,0-6.625-8.42ZM-7.834-5.763q.064.064.078.064t.06-.046a.334.334,0,0,1-.055,0ZM-9.062-9.181a.1.1,0,0,1-.046-.009.488.488,0,0,0-.009.11h.027Zm3.244-1.979-.064.073q.073.018.082.009T-5.819-11.16Zm-.22.1-.064.092a.278.278,0,0,0,.082-.009Q-5.993-10.986-6.039-11.059Zm-2.95,1.09.046-.018-.037-.082a.019.019,0,0,0-.014,0,.036.036,0,0,1-.023,0Zm1.054,1.512a.064.064,0,0,0-.027,0,.064.064,0,0,1-.027,0,.213.213,0,0,0,0,.041.212.212,0,0,1,0,.041h.037a.212.212,0,0,1,0-.041A.257.257,0,0,0-7.935-8.457Zm1.585,2.9q.009.11.11.046A.532.532,0,0,1-6.35-5.552Zm-.11-5.727a.09.09,0,0,1-.032.023l-.032.014.064.082Zm.678,5.553q-.11.073.009.1A.435.435,0,0,1-5.782-5.726Zm-.394.064-.032-.018a.045.045,0,0,0-.023-.009q-.018,0-.023.009a.05.05,0,0,1-.023.018q.018.009.018.018t.018.018Zm-2.877-.247a.053.053,0,0,1,.018-.037l-.073-.037q-.018.018-.018.027A.117.117,0,0,0-9.053-5.909Zm.174-5.241q-.055-.027-.064-.023a.172.172,0,0,0-.027.069Zm-.229.733.064-.11a.227.227,0,0,0-.064.027Q-9.117-10.491-9.108-10.418Zm.1,2.776a.053.053,0,0,1,.037-.009l-.018-.082a.019.019,0,0,0-.014,0,.036.036,0,0,1-.023,0Zm-.11.11q.046-.046.046-.06t-.046-.06Zm.467,1.7-.037.037.055.055a.016.016,0,0,1,.018-.018Zm-.44-5.012a.369.369,0,0,0-.032.06q-.014.032.05.06-.009-.046-.014-.073A.288.288,0,0,1-9.09-10.848ZM-7.761-8.4l.11-.027q-.046-.037-.064-.027A.149.149,0,0,0-7.761-8.4ZM-9.09-6.826a.434.434,0,0,0,.023.078s.02,0,.05-.014Zm1.6,1.173h-.027v.082h.037a.212.212,0,0,0,0-.041A.212.212,0,0,1-7.486-5.653Zm-1.53-3.216a.759.759,0,0,0,.082-.018.22.22,0,0,1-.082-.055Zm.037.476a.019.019,0,0,0,0-.014.019.019,0,0,1,0-.014.1.1,0,0,0-.032,0,.1.1,0,0,1-.032,0,.041.041,0,0,0,0,.018.064.064,0,0,1,0,.027Zm2.1,2.822-.073-.046-.018.064a.151.151,0,0,0,.037,0ZM-7.2-8.438l-.027.027a.261.261,0,0,0,.055.046l.018-.018A.261.261,0,0,0-7.2-8.438ZM-8.87-8.979l.018-.037a.064.064,0,0,1-.027,0,.064.064,0,0,0-.027,0q.009,0-.018.027Zm-.018-.87a.115.115,0,0,0,.014-.06q0-.014-.06,0Zm1.658-1.209v-.027l-.064.018a.026.026,0,0,0,.009.018.064.064,0,0,0,.027,0A.064.064,0,0,1-7.23-11.059Zm-.339-.192H-7.5Q-7.523-11.306-7.569-11.251ZM-9.117-6.991h.027A.278.278,0,0,1-9.1-7.073l-.018.009ZM-6.973-11q-.009,0-.027-.018l-.027.046.018.018ZM-9.1-8.338h-.018a.064.064,0,0,0,0,.027.041.041,0,0,1,0,.018.019.019,0,0,0,.014,0,.019.019,0,0,1,.014,0A.053.053,0,0,0-9.1-8.338Zm1.274-2.941-.018-.018q0-.018-.027.009.018.018.018.027T-7.825-11.279ZM-9.071-7.22V-7.2h.046V-7.22Zm.183.073H-8.9V-7.1h.009Zm-.22,1.686v-.027h-.009A.037.037,0,0,0-9.108-5.46Zm.257-3.683a.019.019,0,0,1,0,.014.019.019,0,0,0,0,.014.008.008,0,0,1,.009.009Zm-.037-1.127H-8.9q0,.009,0,.009s0,0,0,.009Zm2.95-.98-.009.009Zm5.415-.421a.509.509,0,0,1,.064.188,1.619,1.619,0,0,1,.009.17,1.215,1.215,0,0,0-.014.234q0,.115,0,.224a.312.312,0,0,1-.023.147.758.758,0,0,1-.133.128h-2.6q-.092.009-.174.023a.153.153,0,0,0-.119.105q-.018.137-.027.261t-.009.252a.335.335,0,0,0,0,.124.549.549,0,0,1,.014.124,1.578,1.578,0,0,1-.009.174,1.578,1.578,0,0,0-.009.174,1.619,1.619,0,0,0,.009.17,1.509,1.509,0,0,0,.027.17.146.146,0,0,0,.078.11,1.118,1.118,0,0,0,.115.046q.238-.018.458-.023a3.032,3.032,0,0,1,.44.023.019.019,0,0,1,.014,0,.036.036,0,0,0,.023,0q.183-.009.357-.014t.357,0q.046,0,.1,0a.9.9,0,0,1,.1.014.185.185,0,0,1,.137.192v.22l.027.339v.073q0,.275-.257.284-.156.009-.321,0t-.321,0q-.147,0-.289,0t-.289,0h-.568l-.174.147a4.079,4.079,0,0,0-.041.637q0,.316.041.637a.283.283,0,0,0,.284.156,1.653,1.653,0,0,0,.275,0,.826.826,0,0,1,.284.023.155.155,0,0,0,.105,0,.364.364,0,0,1,.105-.018,2.5,2.5,0,0,0,.371.009q.188-.009.371-.009.128.009.252.009h.252a2.379,2.379,0,0,1,.33,0q.165.014.321.023a.241.241,0,0,1,.119.22V-5.3a.281.281,0,0,1-.018.1q-.018.05-.037.105l-.119.032q-.055.014-.11.023h-1.1q-.266,0-.527,0t-.527,0q-.357-.018-.715,0t-.724,0H-4.4a.172.172,0,0,1-.078-.018.26.26,0,0,1-.137-.124.283.283,0,0,1-.027-.188,2.748,2.748,0,0,0,.023-.417q0-.206-.023-.417-.009-.147,0-.293t0-.293v-.467a.487.487,0,0,0,0-.069.129.129,0,0,1,0-.06l.027-.834a.589.589,0,0,0,0-.147l-.018-.147v-.06a.187.187,0,0,1,.009-.06.466.466,0,0,1,.009-.092.158.158,0,0,0-.009-.092,1.02,1.02,0,0,1-.023-.165.3.3,0,0,1,.032-.156.119.119,0,0,0,0-.092A1.216,1.216,0,0,1-4.66-9.57a2.663,2.663,0,0,1,.032-.344.064.064,0,0,1,0-.027.033.033,0,0,0,0-.027,1.588,1.588,0,0,1,0-.417,1.588,1.588,0,0,0,0-.417,1.157,1.157,0,0,1-.014-.307q.014-.151.014-.307a.33.33,0,0,1,.064-.211.33.33,0,0,1,.211-.064q.2,0,.4-.009t.4-.009a.6.6,0,0,1,.165,0,1,1,0,0,0,.165.014q.073,0,.147,0t.147,0h.321a.081.081,0,0,1,.037.009.039.039,0,0,0,.037,0,.942.942,0,0,1,.38-.014,1.439,1.439,0,0,0,.38.014l.3-.018a2.42,2.42,0,0,1,.3,0q.165,0,.33.014T-.523-11.673ZM-2.172-5.68l.064-.055q-.082-.009-.16-.014t-.151,0a.075.075,0,0,0-.046.027l.137.073a.6.6,0,0,1-.037.064.3.3,0,0,1-.037.046l.073.064q.046-.018.082-.037l.073-.037ZM-4.041-8.145q.064.009.105.018l.1.018A.3.3,0,0,1-3.858-8.2a.408.408,0,0,0-.009-.078q.037-.046.082-.1a.241.241,0,0,0,.055-.142.772.772,0,0,1-.128.018l-.119.165.037.064Zm1.723-2.914.018.064.1-.073-.082-.027a.834.834,0,0,1,.064-.092q.037-.046-.027-.128l-.257.046a1.249,1.249,0,0,0,.1.092,1.116,1.116,0,0,1,.092.082h.027Zm1.127-.247-.11.018a.724.724,0,0,0-.11.027.064.064,0,0,1,0,.027.033.033,0,0,0,0,.027l.046.037.073-.082q.027.082.087.082a.45.45,0,0,1,.124.018l.037-.092h.009A.108.108,0,0,0-1.1-11.3.4.4,0,0,0-1.191-11.306ZM-4.05-5.836l-.082.027a.226.226,0,0,0,.064.229q.037-.037.064-.06l.073-.06A.658.658,0,0,1-4-5.777.472.472,0,0,0-4.05-5.836Zm.018-2.74.1-.027q-.009-.046-.014-.087a.789.789,0,0,1,0-.087.388.388,0,0,0-.142.041.747.747,0,0,0-.133.1h.183a.1.1,0,0,0,0,.032A.1.1,0,0,1-4.032-8.576Zm.9-2.694-.238-.027.064.137.183.055a.67.67,0,0,0,0-.082A.669.669,0,0,1-3.134-11.27Zm-.522,5.653-.2-.027a.375.375,0,0,0,.041.16.226.226,0,0,0,.133.023A.493.493,0,0,1-3.656-5.616Zm.486-5.424q-.1-.064-.124-.06t-.06.087a.192.192,0,0,1,.078.018.278.278,0,0,0,.082.023.25.25,0,0,0,.082,0,.187.187,0,0,0,.087-.055l-.1-.064Zm-.147,2.7q-.266.1-.211.22l.11.018Zm.962.064-.211-.037a.122.122,0,0,0-.027.041.285.285,0,0,1-.037.06l.229.037Zm-1.631.458a.137.137,0,0,1,.064-.124q.064-.041.037-.151l-.229.22.06.027ZM-1.2-5.424q.027-.027.05-.055a.236.236,0,0,1,.05-.046l-.082-.119-.137.137Zm-1.53-5.608-.046-.266q-.037.082-.064.137l-.064.128ZM-3.94-6.166q-.037.119,0,.16a.417.417,0,0,0,.192.078q-.046-.055-.087-.11T-3.94-6.166Zm1.063-2.162a.335.335,0,0,0-.023.087.229.229,0,0,1-.023.078.109.109,0,0,0,.156-.046l-.027-.073L-2.832-8.3A.448.448,0,0,1-2.877-8.328Zm1.4-2.7q.073.073.1.073t.073-.082q-.046-.055-.087-.046A.187.187,0,0,0-1.475-11.031Zm-2.4.027a.164.164,0,0,0,.082-.055.321.321,0,0,0,.046-.092.3.3,0,0,0-.147.041Q-3.913-11.086-3.876-11Zm-.229,2.135q-.064-.037-.009-.073-.046-.064-.1-.018a.477.477,0,0,0,.018.1.318.318,0,0,0,.064.078Zm1.338.495-.018.082A.691.691,0,0,0-2.657-8.3l-.018-.128h-.046Zm.568-.082a.246.246,0,0,0,.082.082q.027.009.119-.037-.046-.064-.1-.055A.588.588,0,0,1-2.2-8.457Zm-1.833-.119a.288.288,0,0,1-.046,0l-.073-.014q.046.064.073.105a.207.207,0,0,0,.11.069A.555.555,0,0,1-4.032-8.576Zm1.97,3.033h-.11v.092a.562.562,0,0,0,.078,0,.562.562,0,0,1,.078,0A.227.227,0,0,1-2.062-5.543Zm.339-.055-.229-.018.119.11Zm-2.2-5.269L-3.94-10.9l-.128.018.064.119a.227.227,0,0,1,.041-.06ZM-4.27-9.455a.676.676,0,0,1,.165-.073.037.037,0,0,1-.009-.027h-.147a.151.151,0,0,1,0,.037A.3.3,0,0,0-4.27-9.455Zm.843,3.931a.293.293,0,0,0,.064-.064.268.268,0,0,0,.009-.092.965.965,0,0,0-.082.055Q-3.473-5.6-3.427-5.525Zm.3-.147a.293.293,0,0,0,.064.064.174.174,0,0,0,.082,0,.151.151,0,0,0-.05-.078Q-3.061-5.708-3.125-5.671Zm-.687-5.177a.135.135,0,0,1,.06-.046q.041-.018.023-.092a.809.809,0,0,1-.087.046Q-3.858-10.922-3.812-10.848Zm-.4,4.655a.761.761,0,0,1,.041-.087A.238.238,0,0,0-4.151-6.4l-.078.092Q-4.261-6.267-4.215-6.194Zm1.255.742q.046-.073-.073-.11v.11ZM-4.142-9.822q-.147,0-.073.137a.673.673,0,0,0,.041-.078A.369.369,0,0,1-4.142-9.822Zm2.3-1.347a.253.253,0,0,1,.023-.05q.014-.023.032-.06h-.137l.046.06Q-1.86-11.2-1.842-11.169ZM-3.812-7.9q-.064-.055-.11.046l.064.027Zm1.9-.266a.026.026,0,0,1-.009-.018.07.07,0,0,0-.009-.027l-.041.018a.135.135,0,0,1-.05.009.3.3,0,0,1-.073.018.522.522,0,0,1,.092.027A.082.082,0,0,0-1.915-8.164Zm-1.649-2.987.037-.137a.136.136,0,0,0-.078.041Q-3.62-11.224-3.565-11.151Zm.367,2.96.018.037a.2.2,0,0,1,.064-.009.757.757,0,0,0,.1-.009.2.2,0,0,0-.11-.041A.226.226,0,0,0-3.2-8.191Zm.623-3.051-.037.064.1.046q0-.009.018-.027ZM-4.041-6.615l-.064.073.128.046a.544.544,0,0,1-.037-.069A.281.281,0,0,0-4.041-6.615Zm.027-.137h-.046a.107.107,0,0,0-.014.064q0,.027.078.046A.914.914,0,0,1-4.014-6.752Zm2.135-4.261-.055-.156q-.046.064-.027.092A.254.254,0,0,0-1.879-11.013ZM-3.592-8.237l-.156.037.073.037Q-3.638-8.145-3.592-8.237Zm-.376.88a.019.019,0,0,1,0-.014.019.019,0,0,0,0-.014l-.064-.055-.046.064Zm-.229,0,.1.064.018-.073h-.046A.394.394,0,0,0-4.2-7.357ZM-1.714-8.42a.143.143,0,0,0-.06-.018.091.091,0,0,1-.041-.009l-.018.037a.05.05,0,0,1,.023.018.072.072,0,0,0,.014.018l.037-.018A.448.448,0,0,0-1.714-8.42ZM-2.923-5.763q.064.064.078.064t.06-.046a.334.334,0,0,1-.055,0ZM-4.151-9.181A.1.1,0,0,1-4.2-9.19a.488.488,0,0,0-.009.11h.027ZM-.907-11.16l-.064.073q.073.018.082.009T-.907-11.16Zm-.22.1-.064.092a.278.278,0,0,0,.082-.009Q-1.081-10.986-1.127-11.059Zm-2.95,1.09.046-.018-.037-.082a.019.019,0,0,0-.014,0,.036.036,0,0,1-.023,0Zm1.054,1.512a.064.064,0,0,0-.027,0,.064.064,0,0,1-.027,0,.213.213,0,0,0,0,.041.212.212,0,0,1,0,.041h.037a.212.212,0,0,1,0-.041A.257.257,0,0,0-3.024-8.457Zm1.585,2.9q.009.11.11.046A.532.532,0,0,1-1.439-5.552Zm-.11-5.727a.09.09,0,0,1-.032.023l-.032.014.064.082Zm.678,5.553q-.11.073.009.1A.435.435,0,0,1-.871-5.726Zm-.394.064L-1.3-5.68A.045.045,0,0,0-1.32-5.69q-.018,0-.023.009a.05.05,0,0,1-.023.018q.018.009.018.018t.018.018Zm-2.877-.247a.053.053,0,0,1,.018-.037L-4.2-5.983q-.018.018-.018.027A.117.117,0,0,0-4.142-5.909Zm.174-5.241q-.055-.027-.064-.023a.172.172,0,0,0-.027.069Zm-.229.733.064-.11A.227.227,0,0,0-4.2-10.5Q-4.206-10.491-4.2-10.418Zm.1,2.776a.053.053,0,0,1,.037-.009l-.018-.082a.019.019,0,0,0-.014,0,.036.036,0,0,1-.023,0Zm-.11.11q.046-.046.046-.06t-.046-.06Zm.467,1.7-.037.037.055.055A.016.016,0,0,1-3.7-5.763Zm-.44-5.012a.369.369,0,0,0-.032.06q-.014.032.05.06-.009-.046-.014-.073A.288.288,0,0,1-4.179-10.848ZM-2.85-8.4l.11-.027q-.046-.037-.064-.027A.149.149,0,0,0-2.85-8.4ZM-4.179-6.826a.434.434,0,0,0,.023.078s.02,0,.05-.014Zm1.6,1.173H-2.6v.082h.037a.212.212,0,0,0,0-.041A.212.212,0,0,1-2.575-5.653Zm-1.53-3.216a.759.759,0,0,0,.082-.018.22.22,0,0,1-.082-.055Zm.037.476a.019.019,0,0,0,0-.014.019.019,0,0,1,0-.014.1.1,0,0,0-.032,0,.1.1,0,0,1-.032,0,.041.041,0,0,0,0,.018.064.064,0,0,1,0,.027Zm2.1,2.822-.073-.046-.018.064a.151.151,0,0,0,.037,0Zm-.321-2.868-.027.027a.261.261,0,0,0,.055.046l.018-.018A.261.261,0,0,0-2.291-8.438Zm-1.668-.541.018-.037a.064.064,0,0,1-.027,0,.064.064,0,0,0-.027,0q.009,0-.018.027Zm-.018-.87a.115.115,0,0,0,.014-.06q0-.014-.06,0Zm1.658-1.209v-.027l-.064.018a.026.026,0,0,0,.009.018.064.064,0,0,0,.027,0A.064.064,0,0,1-2.318-11.059Zm-.339-.192h.073Q-2.612-11.306-2.657-11.251ZM-4.206-6.991h.027a.278.278,0,0,1-.009-.082l-.018.009ZM-2.062-11q-.009,0-.027-.018l-.027.046.018.018ZM-4.188-8.338h-.018a.064.064,0,0,0,0,.027.041.041,0,0,1,0,.018.019.019,0,0,0,.014,0,.019.019,0,0,1,.014,0A.053.053,0,0,0-4.188-8.338Zm1.274-2.941-.018-.018q0-.018-.027.009.018.018.018.027T-2.914-11.279ZM-4.16-7.22V-7.2h.046V-7.22Zm.183.073h-.009V-7.1h.009ZM-4.2-5.46v-.027h-.009A.037.037,0,0,0-4.2-5.46Zm.257-3.683a.019.019,0,0,1,0,.014.019.019,0,0,0,0,.014.008.008,0,0,1,.009.009Zm-.037-1.127h-.009q0,.009,0,.009s0,0,0,.009Zm2.95-.98-.009.009ZM1.512-9.2q-.046.027-.11.073-.018.1-.027.2t-.009.2L1.392-7.6a.659.659,0,0,1-.018.151.316.316,0,0,0,0,.151,1.29,1.29,0,0,1,0,.307,1.29,1.29,0,0,0,0,.307q.018.211.018.417a3.221,3.221,0,0,1-.027.417.588.588,0,0,0,0,.147l.018.147a.835.835,0,0,1-.055.467.973.973,0,0,1-.243.06,1.3,1.3,0,0,1-.243,0Q.724-5.039.6-5.053T.357-5.076a.261.261,0,0,1-.092-.2q.009-.183.014-.371t0-.371a.292.292,0,0,0,0-.115.509.509,0,0,1-.014-.115l.027-.88a1.372,1.372,0,0,0-.009-.16q-.009-.078-.018-.16V-8.942Q.275-9.071.284-9.2t.009-.27q0-.1-.009-.2t-.018-.2q0-.064,0-.119t0-.119a.211.211,0,0,0,.009-.1.615.615,0,0,1,.009-.348,2.506,2.506,0,0,1-.037-.518q.009-.252.037-.49a.242.242,0,0,1,.188-.1.768.768,0,0,0,.188-.014,1.482,1.482,0,0,1,.261-.014,2.469,2.469,0,0,0,.261,0,.3.3,0,0,1,.284.174q.1.192.206.38t.206.38q.073.11.137.22l.128.22q.1.165.188.33a2.916,2.916,0,0,0,.2.321,3.263,3.263,0,0,1,.211.376q.092.192.2.376.082.156.174.3t.183.3q.073.128.137.257t.137.257q.046.082.1.156t.1.147a.179.179,0,0,0,.22-.1v-3.913a.346.346,0,0,1,.147-.137.47.47,0,0,1,.192-.037,2.541,2.541,0,0,0,.266,0q.137,0,.275,0a.348.348,0,0,1,.211.385.425.425,0,0,0-.009.082v.082q0,.293,0,.582t.014.582a1.863,1.863,0,0,1,0,.261q-.009.133-.009.261,0,.2,0,.394t0,.394q0,.073,0,.147t-.014.174a.651.651,0,0,1-.009.357.376.376,0,0,0,0,.165q0,.22.014.435a4.13,4.13,0,0,1,0,.435q-.009.192,0,.385t0,.394v.761q0,.073,0,.133a.2.2,0,0,1-.05.115.275.275,0,0,1-.247.128H4.16a.281.281,0,0,1-.284-.165L3.7-5.5l-.98-1.759-.568-.971q-.128-.2-.234-.4t-.224-.4q-.027-.046-.064-.1A.192.192,0,0,0,1.512-9.2Zm-.55.073Q.9-9.208.861-9.263l-.082.055a.59.59,0,0,1,0,.073.966.966,0,0,0,0,.11l-.055-.22Q.6-9.116.659-9.02t.1.2l.165-.027L.889-8.942a.085.085,0,0,0,.06-.032.1.1,0,0,0,.014-.05.334.334,0,0,0,0-.055A.074.074,0,0,1,.962-9.126Zm.073-1a.388.388,0,0,0-.041-.142.688.688,0,0,0-.073-.11l-.082-.1a.229.229,0,0,1-.05-.115l.1-.1q-.027-.11-.147-.046l-.064.257a.856.856,0,0,1,.092.087q.037.041.073.078t.082.087A1.29,1.29,0,0,0,1.035-10.124ZM4.5-6.716a.105.105,0,0,0-.1.009l-.069.046-.018.192.073.046-.018.073a.429.429,0,0,1,.165,0,.131.131,0,0,0,.137-.078.3.3,0,0,1-.037-.046L4.6-6.533a.106.106,0,0,0-.092.023.285.285,0,0,1-.082.05H4.416a.008.008,0,0,0,.009-.009v.009l-.018-.055A.15.15,0,0,1,4.4-6.551a.6.6,0,0,1,.055-.092A.481.481,0,0,0,4.5-6.716ZM1.1-9.849q0-.046,0-.092t0-.092h-.1l-.018-.037a.144.144,0,0,0-.027-.037l-.055.046L.953-10l-.064.082a1.341,1.341,0,0,1,.073.151q.027.069.055.142a.519.519,0,0,0,.06-.092.127.127,0,0,0,0-.11ZM.907-7.806l.027-.266-.11-.055.064-.092a.4.4,0,0,0-.064,0,.288.288,0,0,1-.046,0,.341.341,0,0,0-.009.082l-.05.018L.678-8.09a.2.2,0,0,0,.082.165A.837.837,0,0,1,.907-7.806ZM4.2-6.3v.192l.183.055.092-.119-.133-.064Zm.495-4.554a1.286,1.286,0,0,0-.174-.137l-.092.119a.65.65,0,0,1,.027.082.358.358,0,0,0,.027.073q0,.009.046.027l.055-.128A.292.292,0,0,1,4.691-10.857Zm-.037.348-.174.11a.387.387,0,0,0-.073.1l.018.064.128-.027a.139.139,0,0,1,.078-.11Q4.7-10.408,4.654-10.509ZM.705-9.822a.145.145,0,0,1,0,.064q0,.037.014.046.055.018.023.055T.779-9.6l.082-.073L.8-9.932ZM4.5-6.716l.064-.046-.027-.064L4.4-6.881a.177.177,0,0,1,.023-.087q.023-.041-.06-.078l-.027.275a.67.67,0,0,0,.082,0,.59.59,0,0,1,.073,0A.269.269,0,0,1,4.5-6.716ZM4.224-5.488q.11,0,.092-.092a.961.961,0,0,1-.027-.128q-.009-.064-.1-.082.009.073.014.147A1.011,1.011,0,0,0,4.224-5.488ZM1.218-10.363l-.156.119a.488.488,0,0,0,.009.11l.211-.128ZM1.5-10.3q.037.018.037.009a.143.143,0,0,1,.06-.018.057.057,0,0,0,.041-.018.057.057,0,0,1-.018-.041.057.057,0,0,0-.018-.041l-.064.046-.018.018a.016.016,0,0,1,.018-.018l.018-.055q.009-.027.018-.064l-.055-.064-.073.174a.213.213,0,0,0,.055.037ZM.861-6.413q-.055-.11-.082-.119t-.137.046a.212.212,0,0,0,0,.041.38.38,0,0,1,0,.069A1,1,0,0,1,.861-6.413Zm-.11-4.536.027.147a.3.3,0,0,1,.1-.128.115.115,0,0,0,.032-.147q-.082-.018-.1.041A.13.13,0,0,1,.751-10.949ZM1.924-9.74a.383.383,0,0,1-.064.018l-.018.192a.257.257,0,0,1,.05,0,.423.423,0,0,1,.05.014l.037-.147ZM4.49-6.212q.018.046.032.092a.168.168,0,0,0,.06.082.109.109,0,0,0,.055-.147.126.126,0,0,0-.05-.055Q4.554-6.258,4.49-6.212ZM2.217-9.336a.124.124,0,0,0-.082.165.042.042,0,0,0,.023.023.09.09,0,0,1,.032.023l.1-.082a.6.6,0,0,0-.037-.064A.6.6,0,0,1,2.217-9.336ZM4.169-6.642l-.137-.018a.337.337,0,0,1-.046.069.116.116,0,0,0-.027.078q.064-.018.115-.037l.1-.037ZM.87-9.593l-.082.128a.761.761,0,0,0,.078.06.419.419,0,0,0,.1.032ZM3.8-6.707q-.018-.055-.037-.1t-.092-.023q-.009.165.073.174a.069.069,0,0,1,.023-.027A.222.222,0,0,0,3.8-6.707ZM.944-8.5q-.092.055-.1.1a.207.207,0,0,0,.06.124.135.135,0,0,0,.055-.105A.36.36,0,0,0,.944-8.5ZM.806-5.864l.128-.046a.441.441,0,0,0-.087-.105q-.032-.023-.078.023Zm2.446-1.31q.073-.046.06-.082a.516.516,0,0,0-.041-.082.257.257,0,0,0-.05,0,.379.379,0,0,1-.069,0ZM.962-5.58a.217.217,0,0,1-.078.018.154.154,0,0,0-.069.018q-.009,0-.018.037l.192.064ZM4.49-8.512a.551.551,0,0,1-.092.018.465.465,0,0,0,0,.073q0,.027.014.073l.11-.046ZM4.169-6.642q.073.009.087-.032a.623.623,0,0,0,.023-.115q-.046.018-.078.027a.211.211,0,0,0-.06.027Zm.5.88a.127.127,0,0,0-.064.119.973.973,0,0,1,.009.137.165.165,0,0,0,.055-.128A.449.449,0,0,1,4.673-5.763Zm-2.941-4.3a.329.329,0,0,0,.014-.11q0-.037-.078-.055Q1.622-10.134,1.732-10.06ZM3.94-6.313a.692.692,0,0,1-.128-.009q.037.073.073.078a.167.167,0,0,0,.082-.014L4-6.34a.037.037,0,0,0-.027-.009ZM.751-8.292A.668.668,0,0,1,.742-8.4.209.209,0,0,0,.7-8.521.168.168,0,0,0,.751-8.292Zm.669-2.217h.037a.568.568,0,0,1,.037-.11l-.11-.092Zm.312.935a.335.335,0,0,0,.023-.087.11.11,0,0,0-.041-.087.268.268,0,0,0-.055.092Q1.658-9.639,1.732-9.575Zm2.74.87a.124.124,0,0,0,.073-.128L4.517-8.86a.093.093,0,0,0-.06.069A.18.18,0,0,0,4.471-8.7ZM2.6-8.722,2.474-8.86l-.018.119Zm.889,1.805.046-.147-.147.055ZM.714-7.44.65-7.357.705-7.3l.073-.055A.557.557,0,0,0,.714-7.44Zm.367-3.07q-.082,0-.105.027a.111.111,0,0,0-.023.073.015.015,0,0,0,.009.014.13.13,0,0,1,.027.023ZM4.407-9.428a.157.157,0,0,1,.069-.064q.05-.027,0-.092A.113.113,0,0,0,4.407-9.428Zm.128,2.877q.046-.046.069-.073a.259.259,0,0,0,.041-.092.266.266,0,0,1-.1.05Q4.5-6.652,4.535-6.551Zm.1-1.1-.064-.092q-.073.092.009.147ZM1.154-11.068l.11.055L1.191-11.2ZM3.078-7.559l.092-.073-.1-.037a.5.5,0,0,0-.027.064Q3.033-7.577,3.078-7.559ZM4.535-8.4a.13.13,0,0,0,.027.023.05.05,0,0,1,.018.023.937.937,0,0,0,.064-.092.191.191,0,0,0,.009-.073.4.4,0,0,1-.06.064Q4.563-8.429,4.535-8.4ZM.971-7.339.957-7.394a.6.6,0,0,0-.023-.064Q.9-7.394.861-7.339Zm1.42-1.622-.156.082q.073.037.1.009A.686.686,0,0,0,2.391-8.961ZM4.425-7.934a.053.053,0,0,0,.037-.009l.018-.092-.092.018ZM2.6-8.429l.147.1q-.037-.147-.156-.1ZM3.619-7.1q-.046-.082-.11-.027.018.055.046.05A.234.234,0,0,0,3.619-7.1ZM.889-5.8q-.055.064-.05.092a.123.123,0,0,0,.05.064ZM4.233-6.835a.465.465,0,0,0-.009-.128Q4.215-6.982,4.16-7Zm.3,1.026q.018-.073-.009-.082a.174.174,0,0,0-.092.009.338.338,0,0,1,.06.037A.5.5,0,0,1,4.535-5.809Zm-.11.367h.156a.361.361,0,0,0-.078-.05Q4.471-5.506,4.425-5.442ZM.879-9.043v.1H.788ZM.733-5.479v-.137Q.641-5.534.733-5.479ZM.714-6.954Q.742-7,.756-7.027T.724-7.091L.71-7.064a.064.064,0,0,0,0,.027Q.7-7.027.714-6.954ZM2.749-8.072l-.027.037.082.073.027-.027ZM.779-8.686v-.027l-.1-.018A.163.163,0,0,1,.7-8.658Zm.238-1.988L.971-10.6A.069.069,0,0,1,1-10.578a.22.22,0,0,0,.046.041Zm-.376.651L.669-10l.073-.092-.037-.027A.349.349,0,0,1,.641-10.024ZM1-10.8q-.119.018-.046.11Zm3.225,3.61A.211.211,0,0,1,4.3-7.211a.269.269,0,0,0,.064-.009l-.073-.055ZM3.078-7.559q-.055.073.018.1A.067.067,0,0,0,3.078-7.559Zm1.53-2.034q.092-.037.027-.137Zm-3.372-.458a.019.019,0,0,1,.014,0,.019.019,0,0,0,.014,0q.018-.046.037-.1a.019.019,0,0,1-.014,0,.036.036,0,0,0-.023,0ZM.65-6.835q-.018.073-.009.073l.037.046Q.7-6.734.705-6.734Zm3.94-.11q-.073.027-.069.06a.341.341,0,0,0,.014.06Zm-.6.037a.624.624,0,0,0-.05-.046q-.023-.018-.05.046ZM4.215-5.9a.037.037,0,0,0,.027-.009l-.018-.073a.041.041,0,0,0-.018,0,.041.041,0,0,1-.018,0ZM1.622-9.813q.055.018.06,0a.115.115,0,0,0-.014-.06A.261.261,0,0,0,1.622-9.813Zm-.5.321a.053.053,0,0,1,.018.037L1.2-9.5a.019.019,0,0,0,0-.014.019.019,0,0,1,0-.014Zm.3-.761a.089.089,0,0,0,.046.018.081.081,0,0,1,.037.009v-.064ZM4.572-9.236q-.037-.064-.092.018l.055-.014A.151.151,0,0,1,4.572-9.236ZM.815-7.678q-.055-.009-.064,0a.159.159,0,0,0-.018.064A.557.557,0,0,1,.815-7.678ZM1.539-9.9A.081.081,0,0,1,1.576-9.9a.238.238,0,0,1-.009-.073H1.539ZM2.62-8.5a.238.238,0,0,1-.073.009l.046.064Zm2.052-2.529-.037-.027-.027.046A.008.008,0,0,0,4.618-11a.026.026,0,0,0,.018.009ZM4.425-6.038q.1.055.046-.046ZM.852-8.732.87-8.787H.8a.222.222,0,0,1,.027.032A.069.069,0,0,0,.852-8.732ZM4.49-7.6A.1.1,0,0,0,4.48-7.65a.026.026,0,0,1-.018.009.07.07,0,0,0-.027.009V-7.6ZM.733-8.585.7-8.649Q.641-8.6.733-8.585ZM4.205-7.091v-.027H4.141v.027ZM1.475-10.024H1.5v-.064H1.475ZM1-11.031a.037.037,0,0,0,.027-.009.1.1,0,0,0,0-.032.1.1,0,0,1,0-.032H.989A.238.238,0,0,1,1-11.031Zm.3,1.209a.037.037,0,0,0,.009-.027l-.046-.027a.019.019,0,0,1,0,.014.019.019,0,0,0,0,.014ZM.815-6.129.843-6.1.87-6.139.852-6.166a.05.05,0,0,1-.018.023A.072.072,0,0,0,.815-6.129Zm.11-.861A.037.037,0,0,1,.953-7a.036.036,0,0,0,0-.023.036.036,0,0,1,0-.023.041.041,0,0,0-.018,0,.041.041,0,0,1-.018,0A.161.161,0,0,1,.925-6.991Zm3.464-.385.018-.037A.026.026,0,0,0,4.4-7.43q-.009-.009-.009,0L4.361-7.4q.009.009.009.014S4.377-7.382,4.389-7.376Zm.174-.046a.037.037,0,0,0-.027.009l.018.046h.018A.128.128,0,0,0,4.563-7.421ZM.806-10.234a.037.037,0,0,1-.027-.009.128.128,0,0,1-.009.055.019.019,0,0,1,.014,0,.019.019,0,0,0,.014,0,.064.064,0,0,1,0-.027A.064.064,0,0,0,.806-10.234Zm3.766,1,.027.064q.009,0,.027-.018ZM1.292-10.61h.027a.1.1,0,0,1-.009-.046q-.018,0-.018.009ZM.843-8.667H.87L.843-8.713Zm.348-1.274v-.018a.036.036,0,0,0-.023,0,.019.019,0,0,1-.014,0v.018A.053.053,0,0,1,1.191-9.941ZM.8-7.568A.386.386,0,0,0,.788-7.5H.8ZM.9-9.116a.026.026,0,0,0,.018.009l-.027.037a.041.041,0,0,1,0-.018A.064.064,0,0,0,.9-9.116Zm3.051,2.7q-.009,0-.009,0s0,0-.009,0a.008.008,0,0,1-.009.009L3.94-6.4A.026.026,0,0,1,3.949-6.413ZM.843-6.844.834-6.853a.026.026,0,0,0-.018.009l.018.009Zm3.711-.669L4.545-7.5q0,.009,0,.009s0,0,0,.009a.019.019,0,0,1,0-.014.019.019,0,0,0,0-.014Zm-3.528-2.4L1.017-9.9A.026.026,0,0,1,1-9.914q.009,0,.009,0s0,0,.009,0A.008.008,0,0,0,1.026-9.914ZM.687-9.941Q.65-9.959.659-9.959L.65-9.95a.019.019,0,0,1,.014,0A.036.036,0,0,0,.687-9.941ZM2.694-8.228H2.684V-8.2h.009ZM.714-6.01H.724v-.027H.714Zm3.2-1.035a.037.037,0,0,1,.009.027l.018-.018A.037.037,0,0,1,3.912-7.046ZM.9-10.152l.009-.009v-.018L.9-10.17ZM4.123-6.267q-.009-.009-.009,0a.008.008,0,0,0-.009.009h.018ZM1.2-10.573q-.009-.009-.009,0a.008.008,0,0,0-.009.009H1.2Zm2.95,4.068.009-.009a.008.008,0,0,0-.009-.009l-.009.009A.008.008,0,0,1,4.151-6.505ZM.889-9.052v-.018l-.009.018v.009Zm.183-.77q-.009,0-.009,0s0,0-.009,0a.026.026,0,0,1,.009.018Zm.586-.5H1.649q0,.009,0,.009S1.658-10.32,1.658-10.326Z" transform="translate(54.87 26.79)" fill="#fff"/>
    </g>
  </g>
</svg>
