<svg xmlns="http://www.w3.org/2000/svg" xmlns:xlink="http://www.w3.org/1999/xlink" width="146.668" height="92.077" viewBox="0 0 146.668 92.077">
  <defs>
    <filter id="Union_35" x="0" y="15.792" width="146.668" height="76.285" filterUnits="userSpaceOnUse">
      <feOffset input="SourceAlpha"/>
      <feGaussianBlur stdDeviation="5" result="blur"/>
      <feFlood flood-color="#2d2a26"/>
      <feComposite operator="in" in2="blur"/>
      <feComposite in="SourceGraphic"/>
    </filter>
    <filter id="Path_5605" x="0.127" y="0" width="108.513" height="42.064" filterUnits="userSpaceOnUse">
      <feOffset input="SourceAlpha"/>
      <feGaussianBlur stdDeviation="5" result="blur-2"/>
      <feFlood flood-color="#2d2a26"/>
      <feComposite operator="in" in2="blur-2"/>
      <feComposite in="SourceGraphic"/>
    </filter>
  </defs>
  <g id="Group_611" data-name="Group 611" transform="translate(-565 -56.923)">
    <g transform="matrix(1, 0, 0, 1, 565, 56.92)" filter="url(#Union_35)">
      <path id="Union_35-2" data-name="Union 35" d="M2159.978,324.284a1.477,1.477,0,0,1-1.03-.455,4.264,4.264,0,0,1-.785-1.148,13.6,13.6,0,0,1-.65-1.612q-.3-.9-.641-1.849t-.743-1.84a7.79,7.79,0,0,0-.954-1.6,4.5,4.5,0,0,0-1.292-1.13,3.4,3.4,0,0,0-1.739-.43,4.169,4.169,0,0,0-.507.042c-.214.028-.405.059-.574.093a12.972,12.972,0,0,1-1.814,3.055,8.135,8.135,0,0,1-2.693,2.2,5.7,5.7,0,0,1-2.16.625,4.48,4.48,0,0,1-.988-.1,2.063,2.063,0,0,1-.818-.388,1.889,1.889,0,0,1-.516-.7,2.087,2.087,0,0,1-.16-.9,2.478,2.478,0,0,1,.2-1.039,4.232,4.232,0,0,1,1.148-1.637,3.921,3.921,0,0,1,.852-.6,3.292,3.292,0,0,1,1.064-.338,2.6,2.6,0,0,1,1.223.136c.113.045.158.151.135.319a1.188,1.188,0,0,1-.185.491,1.2,1.2,0,0,1-.363.372.267.267,0,0,1-.38-.05.817.817,0,0,0-.574-.271,1.726,1.726,0,0,0-.683.11,2.85,2.85,0,0,0-.659.346,2.624,2.624,0,0,0-.5.439,2.468,2.468,0,0,0-.625,1.587,1.9,1.9,0,0,0,.1.709.772.772,0,0,0,.422.473,1.526,1.526,0,0,0,1.427-.11,5.184,5.184,0,0,0,1.427-1.258,12.468,12.468,0,0,0,1.308-1.984,25.155,25.155,0,0,0,1.106-2.32q.219-.558.413-1.114t.338-1.072c.09-.322.166-.617.231-.89a12.591,12.591,0,0,1-5.56-1.543c-.57-.331-.186-1.3.455-1.079,1.158.392,2.257.906,3.439,1.241.63.179,1.268.3,1.907.423.111-.4.214-.81.294-1.221.044-.14.089-.278.136-.41a4.179,4.179,0,0,1,.422-.851,5.2,5.2,0,0,1,1.393-1.613,5.312,5.312,0,0,1,1.292-.7,3,3,0,0,1,.708-.152,3.734,3.734,0,0,1,.709,0,2.917,2.917,0,0,1,.615.127,2.959,2.959,0,0,1,.516.229,1.234,1.234,0,0,1,.658.725,2.038,2.038,0,0,1,.017,1.081c-.045.169-.1.346-.169.532a3.461,3.461,0,0,1-.27.565,7.16,7.16,0,0,1-.591.852,4.451,4.451,0,0,1-.709.7,5.26,5.26,0,0,1-.929.574,4.684,4.684,0,0,1-1.012.355c-.09.022-.175.039-.253.05s-.163.023-.253.033q-.119.76-.3,1.5t-.429,1.5a6.718,6.718,0,0,0,2.371-.507,10.13,10.13,0,0,0,2.177-1.224,12.406,12.406,0,0,0,1.874-1.7,12.894,12.894,0,0,0,1.452-1.932,9.961,9.961,0,0,0,.92-1.924,4.57,4.57,0,0,0,.287-1.663c0-.068.081-.118.245-.152a2.184,2.184,0,0,1,.591-.025,3.222,3.222,0,0,1,.726.143,1.562,1.562,0,0,1,.633.363,1.111,1.111,0,0,1,.32.625,1.518,1.518,0,0,1-.2.92,15.262,15.262,0,0,1-1.706,2.608,16.644,16.644,0,0,1-2.3,2.363,13.016,13.016,0,0,1-2.608,1.723,5.911,5.911,0,0,1-2.616.666,5.318,5.318,0,0,1,1.916.473,5.406,5.406,0,0,1,1.392.954,6.209,6.209,0,0,1,1.013,1.258,15.3,15.3,0,0,1,.76,1.4q.337.709.633,1.383a8.444,8.444,0,0,0,.634,1.2,3.267,3.267,0,0,0,.76.844,1.718,1.718,0,0,0,1.013.337c.067,0,.1.071.107.211a1.978,1.978,0,0,1-.067.524,4.455,4.455,0,0,1-.228.675,3.265,3.265,0,0,1-.38.675,2.165,2.165,0,0,1-.523.515,1.04,1.04,0,0,1-.6.187Zm-5.468-18.738a1.521,1.521,0,0,0-.27.135,2.062,2.062,0,0,0-.27.2,1.676,1.676,0,0,0-.472.507,2.721,2.721,0,0,0-.354.608q-.135.321-.253.625-.17.506-.312,1.021c-.1.343-.177.689-.246,1.037a1.537,1.537,0,0,1,.152-.025.575.575,0,0,0,.169-.041,3.705,3.705,0,0,0,1.6-.76,5.856,5.856,0,0,0,.565-.574,3.6,3.6,0,0,0,.482-.709,2.582,2.582,0,0,0,.237-.455,3.611,3.611,0,0,0,.134-.422,1.354,1.354,0,0,0,0-.742.708.708,0,0,0-.4-.439.974.974,0,0,0-.3-.05A1.474,1.474,0,0,0,2154.51,305.546Zm28.931,14.953a2.015,2.015,0,0,1-1.417-.641,6.529,6.529,0,0,1-1.122-1.562,15.859,15.859,0,0,1-.9-2.025q-.4-1.088-.725-2.051t-.607-1.629q-.279-.667-.566-.768-.236.117-.413.211a2.6,2.6,0,0,0-.3.177q-.373.776-.684,1.477t-.523,1.257a7.984,7.984,0,0,0-.3.946.832.832,0,0,0-.008.54c.045.091.009.184-.11.279a.743.743,0,0,1-.455.152,1.014,1.014,0,0,1-.573-.177,1.174,1.174,0,0,1-.448-.692,1.968,1.968,0,0,1,.059-.979c.026-.109.066-.237.1-.355l-.022.034a10.787,10.787,0,0,1-.836,1.047,5.226,5.226,0,0,1-.869.777,1.489,1.489,0,0,1-.843.3.985.985,0,0,1-.582-.136,1.122,1.122,0,0,1-.4-.43,1.915,1.915,0,0,1-.2-.675,3.628,3.628,0,0,1,0-.852.71.71,0,0,1,.017-.16c.011-.05.021-.1.033-.159q-.32.472-.666.9a7.931,7.931,0,0,1-.7.768,3.728,3.728,0,0,1-.709.54,1.367,1.367,0,0,1-.675.2.981.981,0,0,1-.583-.135,1.132,1.132,0,0,1-.4-.43,1.921,1.921,0,0,1-.2-.675,3.551,3.551,0,0,1,0-.852c.021-.17.052-.346.091-.525-.029.037-.054.075-.083.112a11.144,11.144,0,0,1-1.054,1.165,5.868,5.868,0,0,1-1.156.869,3.68,3.68,0,0,1-1.224.438,2.208,2.208,0,0,1-1.232-.152,1.858,1.858,0,0,1-.971-.784,2.7,2.7,0,0,1-.346-1.139,4.225,4.225,0,0,1,.1-1.292,8.931,8.931,0,0,1,1.274-2.971,5.691,5.691,0,0,1,1.055-1.174,4.066,4.066,0,0,1,1.148-.676,3.425,3.425,0,0,1,1.2-.219,1.235,1.235,0,0,1,.92.3,1.092,1.092,0,0,1,.3.793,2.627,2.627,0,0,1-.27,1.081,4.732,4.732,0,0,1-.769,1.156,5.872,5.872,0,0,1-1.206,1.03,5.5,5.5,0,0,1-1.587.7,6.076,6.076,0,0,0-.168.869,3.7,3.7,0,0,0-.017.785,1.578,1.578,0,0,0,.16.591.53.53,0,0,0,.38.286,1.424,1.424,0,0,0,.8-.109,3.692,3.692,0,0,0,.877-.532,7.537,7.537,0,0,0,.877-.827,11.445,11.445,0,0,0,.811-1,11.636,11.636,0,0,0,.675-1.039c.1-.167.181-.328.258-.483.127-.306.254-.611.384-.9q.26-.582.455-1.055a5.558,5.558,0,0,0,.27-.794c.051-.214.037-.361-.042-.439s-.043-.147.109-.237a1.21,1.21,0,0,1,.566-.152,1.485,1.485,0,0,1,.7.152,1.009,1.009,0,0,1,.515.675,2.077,2.077,0,0,1-.051,1.19,9.589,9.589,0,0,1-.565,1.461q-.364.76-.777,1.5t-.693,1.326a3.245,3.245,0,0,0-.321.929q-.042.346.346.312c.134-.011.331-.152.591-.422a9.278,9.278,0,0,0,.818-1q.431-.6.844-1.266t.684-1.19q.253-.59.5-1.13c.163-.361.3-.689.422-.988a5.286,5.286,0,0,0,.245-.751q.068-.3-.05-.406c-.079-.067-.042-.146.11-.236a1.2,1.2,0,0,1,.565-.152,1.484,1.484,0,0,1,.7.152,1.007,1.007,0,0,1,.515.675,2.067,2.067,0,0,1-.05,1.19,9.5,9.5,0,0,1-.565,1.46q-.363.761-.777,1.5t-.692,1.326a3.241,3.241,0,0,0-.321.929c-.028.23.087.335.346.311a.886.886,0,0,0,.422-.269,6.605,6.605,0,0,0,.59-.65c.214-.265.433-.56.659-.887s.438-.652.641-.978.384-.636.541-.929c.022-.042.038-.077.058-.117.086-.211.169-.42.262-.643q.44-1.048.9-2.111t.895-2.067q.431-1,.751-1.8t.472-1.317q.151-.522.051-.625c-.078-.067-.042-.146.11-.236a1.227,1.227,0,0,1,.574-.152,1.459,1.459,0,0,1,.7.152,1.019,1.019,0,0,1,.507.675,2.218,2.218,0,0,1-.1,1.1,15.9,15.9,0,0,1-.59,1.714q-.389.972-.9,2.085t-1.038,2.211c.237-.191.5-.4.794-.634s.588-.469.885-.716.588-.5.87-.751.532-.486.75-.7a5.662,5.662,0,0,0,.532-.582.778.778,0,0,0,.2-.414c0-.1.084-.13.253-.085a1.207,1.207,0,0,1,.507.312,1.448,1.448,0,0,1,.372.625,1.022,1.022,0,0,1-.152.836,2.465,2.465,0,0,1-.634.692,7.572,7.572,0,0,1-.97.642q-.54.3-1.131.573t-1.131.49q.254.389.634,1.1t.852,1.561q.471.853,1.012,1.731a15.913,15.913,0,0,0,1.122,1.6,7.635,7.635,0,0,0,1.166,1.19,1.94,1.94,0,0,0,1.139.481c.1,0,.143.077.126.227a1.068,1.068,0,0,1-.229.5,2.025,2.025,0,0,1-.574.5,1.535,1.535,0,0,1-.821.212Zm-18.7-10.531a12,12,0,0,0-1.385,2.464,3.562,3.562,0,0,0-.134.338,4.575,4.575,0,0,0,1.662-.97,4.917,4.917,0,0,0,.97-1.216,2.386,2.386,0,0,0,.329-1.039q.008-.439-.3-.455h-.018Q2165.417,309.091,2164.74,309.969Zm23.809,6.719a1.181,1.181,0,0,1-.447-.692,2,2,0,0,1,.017-1.064c.035-.155.084-.319.13-.481a11.094,11.094,0,0,1-.941,1.03,5.845,5.845,0,0,1-1.156.869,3.664,3.664,0,0,1-1.224.438,2.206,2.206,0,0,1-1.231-.152,1.858,1.858,0,0,1-.971-.784,2.7,2.7,0,0,1-.346-1.139,4.248,4.248,0,0,1,.1-1.292,8.923,8.923,0,0,1,1.275-2.972,5.659,5.659,0,0,1,1.055-1.173,4.046,4.046,0,0,1,1.147-.676,3.426,3.426,0,0,1,1.2-.219,1.234,1.234,0,0,1,.92.3,1.088,1.088,0,0,1,.3.793,2.631,2.631,0,0,1-.27,1.081,4.764,4.764,0,0,1-.768,1.156,5.909,5.909,0,0,1-1.207,1.03,5.491,5.491,0,0,1-1.587.7,5.916,5.916,0,0,0-.169.869,3.733,3.733,0,0,0-.017.785,1.573,1.573,0,0,0,.161.591.529.529,0,0,0,.379.286,1.422,1.422,0,0,0,.8-.109,3.692,3.692,0,0,0,.877-.532,7.385,7.385,0,0,0,.877-.827,11.808,11.808,0,0,0,1.486-2.035,6.942,6.942,0,0,0,.464-.953.284.284,0,0,1,.02-.033c.148-.332.291-.652.419-.946a9.489,9.489,0,0,0,.422-1.131q.135-.473,0-.608c-.078-.067-.042-.146.11-.236a1.23,1.23,0,0,1,.574-.152,1.459,1.459,0,0,1,.7.152,1.015,1.015,0,0,1,.506.675,1.344,1.344,0,0,1,.051.482,3.406,3.406,0,0,1-.084.549c.213-.247.431-.484.65-.709a5.863,5.863,0,0,1,.666-.591,3.941,3.941,0,0,1,.659-.4,1.461,1.461,0,0,1,.625-.151,1.014,1.014,0,0,1,.979.574,2.492,2.492,0,0,1,.2,1.518,4.5,4.5,0,0,1-.253,1.207q-.22.633-.5,1.241t-.558,1.156a9.925,9.925,0,0,0-.43.954,1.525,1.525,0,0,0-.127.65c.017.163.138.244.364.244a.759.759,0,0,0,.421-.244,5.849,5.849,0,0,0,.591-.642q.32-.4.667-.9t.65-.986q.3-.49.54-.937a5.614,5.614,0,0,0,.338-.734.253.253,0,0,1,.169-.169.366.366,0,0,1,.22,0,.289.289,0,0,1,.16.135.207.207,0,0,1-.01.22c-.09.191-.219.454-.388.785s-.369.687-.6,1.064-.481.757-.751,1.139a10.783,10.783,0,0,1-.836,1.047,5.225,5.225,0,0,1-.869.777,1.491,1.491,0,0,1-.843.3.86.86,0,0,1-.574-.161,1.328,1.328,0,0,1-.388-.481,2.311,2.311,0,0,1-.211-.683,2.755,2.755,0,0,1-.008-.769,6.549,6.549,0,0,1,.32-1.367q.238-.675.516-1.292t.549-1.131a7.163,7.163,0,0,0,.4-.894,1.175,1.175,0,0,0,.094-.582c-.028-.136-.161-.2-.4-.186a1.161,1.161,0,0,0-.524.3,7.462,7.462,0,0,0-.734.709q-.4.431-.8.945t-.726.987q-.32.659-.667,1.309t-.615,1.224a6.873,6.873,0,0,0-.4,1.012.946.946,0,0,0-.009.675c.045.091.009.184-.11.279a.733.733,0,0,1-.455.151h-.027A1.026,1.026,0,0,1,2188.548,316.688Zm-2.269-6.719a11.958,11.958,0,0,0-1.385,2.464c-.056.124-.1.237-.135.338a4.573,4.573,0,0,0,1.663-.97,4.91,4.91,0,0,0,.97-1.216,2.387,2.387,0,0,0,.33-1.039q.008-.439-.3-.455h-.018Q2186.957,309.091,2186.279,309.969Zm-54.212,5.331a14.458,14.458,0,0,1-2.376-2.1c-.792-.857-2.49-2.748-3.272-3.776s-2.556-3.605-3.293-4.561a32.31,32.31,0,0,0-2.145-2.526,6.423,6.423,0,0,0-1.966-1.5l-.546-.109a2.487,2.487,0,0,1-.519-.164.54.54,0,0,1-.3-.206.5.5,0,0,1-.082-.368.517.517,0,0,1,.492-.492,7.752,7.752,0,0,0,2.458-.573,10.642,10.642,0,0,0,2.266-1.27,9.977,9.977,0,0,0,1.9-1.816,9.969,9.969,0,0,0,2.157-6.158,8.143,8.143,0,0,0-.82-3.605,7.044,7.044,0,0,0-2.376-2.7,6.991,6.991,0,0,0-7.115-.449,10.386,10.386,0,0,0-2.69,1.9,11.128,11.128,0,0,0-1.994,2.636,11.578,11.578,0,0,0-1.147,2.976,8.235,8.235,0,0,0-.164,2.881,4.62,4.62,0,0,0,.97,2.362q.163.219-.082.519a1.882,1.882,0,0,1-.7.5,2.661,2.661,0,0,1-.984.233,1.319,1.319,0,0,1-.914-.274,5.233,5.233,0,0,1-1.3-1.925,5.681,5.681,0,0,1-.37-2.157,7.868,7.868,0,0,1,.382-2.212,11.32,11.32,0,0,1,.929-2.118,12.868,12.868,0,0,1,2.185-2.825,16.765,16.765,0,0,1,2.909-2.309,15.4,15.4,0,0,1,3.277-1.557,11,11,0,0,1,3.318-.6,14.069,14.069,0,0,1,2.39.15,10.938,10.938,0,0,1,2.321.615,10.51,10.51,0,0,1,2.212,1.188,11.057,11.057,0,0,1,2.061,1.9,9.426,9.426,0,0,1,.915,1.324,8.432,8.432,0,0,1,.642,1.409,7.969,7.969,0,0,1,.465,2.813,8.855,8.855,0,0,1-.479,2.649,10.3,10.3,0,0,1-1.3,2.568,12.8,12.8,0,0,1-2.266,2.553,11.9,11.9,0,0,1-2.867,1.844,6.651,6.651,0,0,1-1.161.477q-.587.18-1.161.314a15.2,15.2,0,0,1,2.09,1.694q1.025.984,2.062,2.048c.692.71,2.4,2.994,3.088,3.686a39.327,39.327,0,0,0,3.054,2.792,10.761,10.761,0,0,0,2.281,1.284,5.793,5.793,0,0,0,2.458.423c.164,0,.231.174.2.519a3.151,3.151,0,0,1-.369,1.161,4.006,4.006,0,0,1-.929,1.174,2.219,2.219,0,0,1-1.446.559h-.079A4.006,4.006,0,0,1,2132.067,315.3Zm.207-6.616a2.962,2.962,0,0,1-1.188-.683,2.163,2.163,0,0,1-.643-1.215,1.559,1.559,0,0,1,.068-.587,1.739,1.739,0,0,1,.478-.724,5.042,5.042,0,0,1,1.051-.793q.614-.354,1.283-.683t1.311-.669a5.728,5.728,0,0,0,1.106-.751q.411-1.173,1.066-2.716.48-1.132,1.006-2.322-.328.409-.665.78a8.5,8.5,0,0,1-1.407,1.256,2.425,2.425,0,0,1-1.365.491,1.594,1.594,0,0,1-.943-.22,1.832,1.832,0,0,1-.641-.7,3.071,3.071,0,0,1-.328-1.093,5.789,5.789,0,0,1,0-1.38,10.94,10.94,0,0,1,.423-1.912q.315-1.011.724-2.021t.833-1.952q.424-.944.737-1.707a8.925,8.925,0,0,0,.438-1.284q.123-.518-.068-.71-.192-.163.177-.383a1.961,1.961,0,0,1,.914-.246,2.4,2.4,0,0,1,1.134.246,1.63,1.63,0,0,1,.833,1.093,3.363,3.363,0,0,1-.082,1.925,15.445,15.445,0,0,1-.915,2.362q-.587,1.231-1.256,2.431t-1.12,2.145a5.245,5.245,0,0,0-.519,1.5c-.045.373.141.542.561.5a1.353,1.353,0,0,0,.7-.436,11.973,11.973,0,0,0,.943-1.051q.518-.641,1.065-1.435t1.038-1.583q.491-.792.874-1.5a8.693,8.693,0,0,0,.546-1.174.475.475,0,0,1,.124-.192q.187-.45.354-.872a23.173,23.173,0,0,0,.791-2.266q.259-.929.069-1.174c-.092-.11-.01-.237.245-.383a2.13,2.13,0,0,1,.956-.246,2.157,2.157,0,0,1,1.133.274,1.78,1.78,0,0,1,.805,1.147,3.074,3.074,0,0,1-.136,1.49,23.57,23.57,0,0,1-.765,2.308q-.491,1.283-1.12,2.69t-1.2,2.649q-.574,1.243-1.011,2.171a12.12,12.12,0,0,0-.546,1.284,11.12,11.12,0,0,0,2.048-1.842,29.222,29.222,0,0,0,1.994-2.486q.929-1.3,1.639-2.527.245-.423.438-.788c.018-.047.036-.093.054-.139a14.673,14.673,0,0,1,1.461-2.855,9.278,9.278,0,0,1,1.708-1.938,5.89,5.89,0,0,1,1.857-1.08,5.485,5.485,0,0,1,1.939-.3,4.231,4.231,0,0,1,.7.122,2.147,2.147,0,0,1,.682.313,1.879,1.879,0,0,1,.534.589,1.771,1.771,0,0,1,.218.914,1.086,1.086,0,0,1-.246.792.728.728,0,0,1-.6.274.89.89,0,0,1-.588-.219.715.715,0,0,1-.259-.573.741.741,0,0,1,.123-.41,1.2,1.2,0,0,1,.314-.327.458.458,0,0,0-.437-.328,1.254,1.254,0,0,0-.847.341,6.11,6.11,0,0,0-1,1.065,14.647,14.647,0,0,0-1.106,1.722q-.573,1.025-1.147,2.281a10.483,10.483,0,0,0-.587,1.706,8.2,8.2,0,0,0-.259,1.748,4.485,4.485,0,0,0,.164,1.461,1.172,1.172,0,0,0,.682.82,1.07,1.07,0,0,0,1.2-.369,9.227,9.227,0,0,0,1.284-1.652,24.348,24.348,0,0,0,1.269-2.294q.616-1.256,1.134-2.3.519-1.336,1.147-2.826t1.243-2.935q.614-1.447,1.174-2.786t.956-2.389q.4-1.052.574-1.721c.118-.445.132-.714.041-.806-.128-.11-.069-.237.177-.382a1.961,1.961,0,0,1,.915-.245,2.4,2.4,0,0,1,1.133.245,1.627,1.627,0,0,1,.833,1.093,3.372,3.372,0,0,1-.109,1.761,22.461,22.461,0,0,1-.887,2.635q-.587,1.474-1.38,3.181t-1.6,3.373q-.806,1.665-1.53,3.208t-1.174,2.7a7.544,7.544,0,0,0-.519,1.843q-.069.683.4.627a1.356,1.356,0,0,0,.7-.436,11.834,11.834,0,0,0,.942-1.051q.519-.643,1.065-1.435t1.038-1.583q.482-.778.859-1.474l.043-.111a13.836,13.836,0,0,1,1.461-2.827,9.206,9.206,0,0,1,1.707-1.9,6.553,6.553,0,0,1,1.857-1.093,5.55,5.55,0,0,1,1.939-.355,2,2,0,0,1,1.489.492,1.763,1.763,0,0,1,.478,1.283,4.24,4.24,0,0,1-.437,1.748,7.663,7.663,0,0,1-1.242,1.871,9.548,9.548,0,0,1-1.952,1.666,8.809,8.809,0,0,1-2.568,1.133,9.664,9.664,0,0,0-.273,1.407,5.98,5.98,0,0,0-.028,1.27,2.534,2.534,0,0,0,.26.957.859.859,0,0,0,.615.464,2.294,2.294,0,0,0,1.3-.177,5.987,5.987,0,0,0,1.42-.86,12.2,12.2,0,0,0,1.42-1.337,19.175,19.175,0,0,0,2.4-3.291q.242-.422.431-.812l.24-.534q.041-.1.079-.2a.561.561,0,0,1,.067-.127q.344-.771.644-1.458a14.983,14.983,0,0,0,.683-1.83c.146-.508.146-.837,0-.983q-.192-.163.177-.383a1.993,1.993,0,0,1,.929-.246,2.354,2.354,0,0,1,1.133.246,1.639,1.639,0,0,1,.819,1.093,2.181,2.181,0,0,1,.083.779,5.463,5.463,0,0,1-.137.888q.519-.6,1.051-1.147a9.3,9.3,0,0,1,1.079-.957,6.23,6.23,0,0,1,1.065-.655,2.34,2.34,0,0,1,1.011-.246,1.64,1.64,0,0,1,1.584.929,4.028,4.028,0,0,1,.326,2.458,7.255,7.255,0,0,1-.408,1.952q-.357,1.025-.806,2.008t-.9,1.871a15.8,15.8,0,0,0-.7,1.543,2.461,2.461,0,0,0-.2,1.052c.026.264.223.4.587.4a1.222,1.222,0,0,0,.682-.4,9.263,9.263,0,0,0,.956-1.039q.519-.641,1.08-1.448t1.051-1.6q.491-.792.874-1.516l.07-.134a14.57,14.57,0,0,1,1.446-2.816,9.284,9.284,0,0,1,1.707-1.938,5.892,5.892,0,0,1,1.857-1.08,5.484,5.484,0,0,1,1.939-.3,4.215,4.215,0,0,1,.7.122,2.146,2.146,0,0,1,.682.313,1.869,1.869,0,0,1,.533.589,1.762,1.762,0,0,1,.219.914,1.09,1.09,0,0,1-.246.792.728.728,0,0,1-.6.274.889.889,0,0,1-.588-.219.712.712,0,0,1-.259-.573.741.741,0,0,1,.123-.41,1.2,1.2,0,0,1,.315-.328.459.459,0,0,0-.437-.328,1.258,1.258,0,0,0-.847.341,6.119,6.119,0,0,0-1,1.065,14.649,14.649,0,0,0-1.106,1.722q-.574,1.025-1.147,2.281a10.46,10.46,0,0,0-.587,1.706,8.16,8.16,0,0,0-.259,1.748,4.5,4.5,0,0,0,.164,1.462,1.173,1.173,0,0,0,.682.819,1.071,1.071,0,0,0,1.2-.369,9.182,9.182,0,0,0,1.283-1.652,24.569,24.569,0,0,0,1.271-2.294q.613-1.256,1.133-2.3.518-1.336,1.146-2.826t1.243-2.935q.615-1.447,1.174-2.786t.956-2.389q.4-1.052.574-1.721t.041-.806c-.128-.11-.068-.237.177-.382a1.965,1.965,0,0,1,.915-.245,2.386,2.386,0,0,1,1.133.245,1.628,1.628,0,0,1,.833,1.093,3.37,3.37,0,0,1-.109,1.761,22.5,22.5,0,0,1-.887,2.635q-.589,1.474-1.38,3.181t-1.6,3.373q-.806,1.665-1.53,3.208t-1.174,2.7a7.511,7.511,0,0,0-.519,1.843q-.069.683.4.627a1.356,1.356,0,0,0,.7-.436,11.687,11.687,0,0,0,.941-1.051q.52-.643,1.066-1.435t1.038-1.583q.482-.778.859-1.474l.043-.111a13.872,13.872,0,0,1,1.461-2.827,9.243,9.243,0,0,1,1.707-1.9,6.553,6.553,0,0,1,1.857-1.093,5.55,5.55,0,0,1,1.94-.355,2,2,0,0,1,1.488.492,1.76,1.76,0,0,1,.478,1.283,4.251,4.251,0,0,1-.436,1.748,7.7,7.7,0,0,1-1.243,1.871,9.522,9.522,0,0,1-1.952,1.666,8.811,8.811,0,0,1-2.568,1.133,9.729,9.729,0,0,0-.273,1.407,6,6,0,0,0-.028,1.27,2.529,2.529,0,0,0,.26.957.858.858,0,0,0,.614.464,2.3,2.3,0,0,0,1.3-.177,5.983,5.983,0,0,0,1.42-.86,12.2,12.2,0,0,0,1.42-1.337,19.156,19.156,0,0,0,2.4-3.291,11.379,11.379,0,0,0,.752-1.543.493.493,0,0,1,.286-.3.448.448,0,0,1,.422.056.437.437,0,0,1,.164.6q-.464.984-1.105,2.062a19.9,19.9,0,0,1-1.447,2.1,17.92,17.92,0,0,1-1.707,1.885,9.449,9.449,0,0,1-1.871,1.407,5.957,5.957,0,0,1-1.98.709,3.593,3.593,0,0,1-1.994-.245,3.016,3.016,0,0,1-1.57-1.27,4.369,4.369,0,0,1-.56-1.843,6.485,6.485,0,0,1,0-.984q-.313.477-.652.957a17.561,17.561,0,0,1-1.352,1.693,8.424,8.424,0,0,1-1.407,1.256,2.413,2.413,0,0,1-1.365.491,1.555,1.555,0,0,1-1.543-.833,3.849,3.849,0,0,1-.4-2.252,11.868,11.868,0,0,1-1.093,1.515,5.4,5.4,0,0,1-1.229,1.08,3.321,3.321,0,0,1-1.42.491,3.208,3.208,0,0,1-1.638-.3,2.991,2.991,0,0,1-1.571-1.283,4.447,4.447,0,0,1-.56-1.844,6.3,6.3,0,0,1,0-1.016q-.327.5-.682,1a17.573,17.573,0,0,1-1.352,1.694,8.459,8.459,0,0,1-1.406,1.256,2.425,2.425,0,0,1-1.366.491,1.385,1.385,0,0,1-.928-.26,2.132,2.132,0,0,1-.628-.779,3.733,3.733,0,0,1-.342-1.106,4.386,4.386,0,0,1-.012-1.243,10.493,10.493,0,0,1,.518-2.211q.382-1.092.833-2.09t.888-1.83a11.461,11.461,0,0,0,.655-1.447,1.888,1.888,0,0,0,.15-.941c-.046-.22-.259-.319-.642-.3a1.869,1.869,0,0,0-.847.479,12.292,12.292,0,0,0-1.187,1.147q-.642.7-1.3,1.529t-1.175,1.6q-.52,1.066-1.079,2.117t-1,1.98a11.267,11.267,0,0,0-.641,1.638,1.536,1.536,0,0,0-.014,1.093c.072.146.014.3-.178.45a1.186,1.186,0,0,1-.737.246,1.645,1.645,0,0,1-.929-.286,1.9,1.9,0,0,1-.723-1.12,3.243,3.243,0,0,1,.027-1.721q.084-.363.193-.744a17.8,17.8,0,0,1-1.505,1.632,9.442,9.442,0,0,1-1.871,1.407,5.947,5.947,0,0,1-1.98.709,3.591,3.591,0,0,1-1.993-.245,3.014,3.014,0,0,1-1.571-1.27,4.369,4.369,0,0,1-.56-1.843,6.392,6.392,0,0,1,0-.984q-.313.476-.652.956a17.5,17.5,0,0,1-1.352,1.694,8.4,8.4,0,0,1-1.407,1.256,2.414,2.414,0,0,1-1.365.491,1.556,1.556,0,0,1-1.543-.833,3.872,3.872,0,0,1-.4-2.252,11.767,11.767,0,0,1-1.092,1.515,5.416,5.416,0,0,1-1.229,1.08,3.343,3.343,0,0,1-1.42.491,3.22,3.22,0,0,1-1.639-.3,2.991,2.991,0,0,1-1.571-1.283,4.443,4.443,0,0,1-.56-1.844,6.285,6.285,0,0,1,0-.983q-.693,1.047-1.471,2.033a21.959,21.959,0,0,1-2.348,2.554,11.051,11.051,0,0,1-2.4,1.734q-.163.409-.437,1.051c-.182.427-.369.86-.56,1.3s-.365.847-.519,1.23-.268.663-.341.846a3.152,3.152,0,0,1-.86,1.3,4.271,4.271,0,0,1-1.325.82,4.91,4.91,0,0,1-1.529.328q-.129.006-.255.006A4.247,4.247,0,0,1,2132.274,308.684Zm2.156-4.3-1.038.491a9.519,9.519,0,0,0-1,.546,2.786,2.786,0,0,0-.779.71.83.83,0,0,0-.15.6,1.176,1.176,0,0,0,.246.587,1.3,1.3,0,0,0,.519.4,1,1,0,0,0,.7.027,1.842,1.842,0,0,0,.792-.533,4.045,4.045,0,0,0,.765-1.3q.165-.382.4-.9t.478-1.2A4.663,4.663,0,0,1,2134.43,304.384Zm69.258-15.4a19.416,19.416,0,0,0-2.24,3.987,5.411,5.411,0,0,0-.218.546,7.4,7.4,0,0,0,2.69-1.57,7.948,7.948,0,0,0,1.57-1.966,3.854,3.854,0,0,0,.533-1.679q.014-.71-.479-.737h-.027Q2204.787,287.559,2203.688,288.98Zm-37.6,0a19.356,19.356,0,0,0-2.241,3.987,5.469,5.469,0,0,0-.218.546,7.407,7.407,0,0,0,2.69-1.57,7.955,7.955,0,0,0,1.571-1.966,3.857,3.857,0,0,0,.533-1.679c.008-.473-.15-.719-.479-.737h-.027Q2167.181,287.559,2166.083,288.98Zm-54.728,18.9a1.815,1.815,0,0,1-.779-1.121,3.516,3.516,0,0,1,.055-1.612q.219-1.119.655-2.621t1.051-3.278q.614-1.774,1.256-3.55t1.257-3.454q.614-1.681,1.051-3.018t.628-2.213c.127-.582.137-.929.027-1.037q-.136-.109.068-.26a1.7,1.7,0,0,1,.588-.246,4.733,4.733,0,0,1,.874-.122,3.135,3.135,0,0,1,.929.082,1.754,1.754,0,0,1,.764.41,1.273,1.273,0,0,1,.383.847,8.005,8.005,0,0,1-.341,2.745q-.45,1.706-1.188,3.741t-1.625,4.22q-.888,2.184-1.639,4.151t-1.242,3.536a7.165,7.165,0,0,0-.437,2.39q0,.246-.382.477a1.707,1.707,0,0,1-.9.232A2.132,2.132,0,0,1,2111.355,307.879Zm-17.417-7.733a1.3,1.3,0,0,1-.685-.561,1.909,1.909,0,0,1-.244-.8,3,3,0,0,1,.07-.906,6.035,6.035,0,0,1,.263-.864,6.4,6.4,0,0,1,.639-1.246,4.11,4.11,0,0,1,.745-.847,2.6,2.6,0,0,1,.811-.471,2.376,2.376,0,0,1,.846-.131,1.92,1.92,0,0,1,.3.053.933.933,0,0,1,.3.137.81.81,0,0,1,.232.257.771.771,0,0,1,.1.4.469.469,0,0,1-.108.345.317.317,0,0,1-.262.12.386.386,0,0,1-.257-.1.331.331,0,0,1-.058-.429.527.527,0,0,1,.136-.143.2.2,0,0,0-.19-.143.546.546,0,0,0-.369.148,2.651,2.651,0,0,0-.436.465,6.673,6.673,0,0,0-.482.751c-.167.3-.334.631-.5,1a4.475,4.475,0,0,0-.257.745,3.643,3.643,0,0,0-.113.763,1.993,1.993,0,0,0,.071.637.508.508,0,0,0,.3.357.465.465,0,0,0,.524-.161,4.017,4.017,0,0,0,.561-.722,10.583,10.583,0,0,0,.554-1q.27-.548.5-1,.227-.585.5-1.234t.542-1.282q.268-.63.514-1.216c.163-.389.3-.737.417-1.042s.2-.556.25-.751.057-.311.017-.351c-.055-.049-.03-.1.077-.167a.871.871,0,0,1,.4-.107,1.046,1.046,0,0,1,.5.107.712.712,0,0,1,.364.477,1.477,1.477,0,0,1-.049.769,9.751,9.751,0,0,1-.387,1.15q-.257.643-.6,1.389t-.7,1.472q-.352.728-.668,1.4t-.513,1.18a3.313,3.313,0,0,0-.226.8c-.021.2.038.291.173.275a.59.59,0,0,0,.3-.191,5.051,5.051,0,0,0,.411-.459q.227-.279.465-.626t.454-.691c.143-.231.269-.448.381-.654l.014-.037a5.971,5.971,0,0,1,.637-1.234,4.016,4.016,0,0,1,.744-.829,2.874,2.874,0,0,1,.812-.476,2.423,2.423,0,0,1,.846-.155.87.87,0,0,1,.65.214.773.773,0,0,1,.209.561,1.852,1.852,0,0,1-.192.762,3.313,3.313,0,0,1-.542.817,4.14,4.14,0,0,1-.851.727,3.882,3.882,0,0,1-1.121.5,4.091,4.091,0,0,0-.12.614,2.666,2.666,0,0,0-.013.554,1.145,1.145,0,0,0,.114.418.378.378,0,0,0,.269.2,1,1,0,0,0,.565-.077,2.6,2.6,0,0,0,.62-.375,5.3,5.3,0,0,0,.62-.584,8.137,8.137,0,0,0,.573-.7,8.329,8.329,0,0,0,.478-.733,4.888,4.888,0,0,0,.328-.674.212.212,0,0,1,.125-.13.207.207,0,0,1,.256.284q-.2.429-.483.9a8.551,8.551,0,0,1-.632.917,7.643,7.643,0,0,1-.745.823,4.1,4.1,0,0,1-.816.615,2.62,2.62,0,0,1-.865.31,1.571,1.571,0,0,1-.869-.107,1.312,1.312,0,0,1-.685-.555,1.879,1.879,0,0,1-.245-.8,2.874,2.874,0,0,1,0-.433q-.138.21-.287.421a7.7,7.7,0,0,1-.59.739,3.6,3.6,0,0,1-.614.549,1.064,1.064,0,0,1-.6.215.68.68,0,0,1-.673-.364,1.681,1.681,0,0,1-.173-.984,5.259,5.259,0,0,1-.477.662,2.36,2.36,0,0,1-.536.47,1.433,1.433,0,0,1-.62.215,1.147,1.147,0,0,1-.119.006A1.5,1.5,0,0,1,2093.938,300.146Zm8.036-4.711a8.475,8.475,0,0,0-.977,1.741,2.489,2.489,0,0,0-.1.238,3.23,3.23,0,0,0,1.175-.686,3.439,3.439,0,0,0,.685-.859,1.689,1.689,0,0,0,.233-.733c0-.207-.066-.314-.209-.322h-.012Q2102.454,294.816,2101.974,295.436Zm42.274-10.348a2.756,2.756,0,0,1-.942-.655,1.562,1.562,0,0,1-.437-1.133,1.176,1.176,0,0,1,.165-.5c.109-.21.231-.433.369-.67s.259-.454.368-.655a1.087,1.087,0,0,0,.165-.464c0-.128.136-.192.409-.192a2.36,2.36,0,0,1,.914.218,2.762,2.762,0,0,1,.915.656,1.567,1.567,0,0,1,.41,1.12,1.156,1.156,0,0,1-.15.464c-.1.2-.21.41-.328.628s-.229.437-.328.656a1.337,1.337,0,0,0-.152.519c0,.146-.146.218-.436.218A2.531,2.531,0,0,1,2144.248,285.088Zm-6.283,0a2.756,2.756,0,0,1-.941-.655,1.559,1.559,0,0,1-.437-1.133,1.171,1.171,0,0,1,.164-.5c.109-.21.232-.432.369-.67s.26-.454.369-.655a1.086,1.086,0,0,0,.164-.464q0-.192.409-.192a2.364,2.364,0,0,1,.915.218,2.765,2.765,0,0,1,.915.656,1.568,1.568,0,0,1,.409,1.12,1.152,1.152,0,0,1-.15.464c-.1.2-.21.41-.328.628s-.228.438-.327.656a1.4,1.4,0,0,0-.152.519c0,.146-.146.218-.437.218A2.535,2.535,0,0,1,2137.965,285.088Z" transform="translate(-2078 -247.21)" fill="#fff"/>
    </g>
    <g transform="matrix(1, 0, 0, 1, 565, 56.92)" filter="url(#Path_5605)">
      <path id="Path_5605-2" data-name="Path 5605" d="M-35.448-2.816a.412.412,0,0,0,.2-.088.26.26,0,0,0,.072-.136,5.85,5.85,0,0,1,.16-.6,3.839,3.839,0,0,0,.144-.616,1.494,1.494,0,0,1,.08-.216q.048-.1.1-.232a1.487,1.487,0,0,1,.12-.576,3.217,3.217,0,0,0,.184-.608A5.066,5.066,0,0,1-34.2-6.5a2.83,2.83,0,0,0,.16-.608q.048-.224.12-.456t.152-.456q.144-.464.3-.936t.264-.936q.1-.368.2-.72t.232-.7l.08-.16a.906.906,0,0,0,.144-.072.266.266,0,0,1,.144-.04q.624-.016,1.248,0a.362.362,0,0,1,.128.024,1.179,1.179,0,0,0,.128.04.512.512,0,0,1,.024.264q-.024.12-.056.248-.128.368-.224.744t-.224.744a3.514,3.514,0,0,0-.192.664,3.216,3.216,0,0,1-.208.68,3.921,3.921,0,0,0-.2.672q-.072.352-.152.688l-.192.544-.064.144-.48,1.84-.208.624-.128.528a1.894,1.894,0,0,1-.072.208,1.893,1.893,0,0,0-.072.208q-.176.576-.328,1.16T-33.992-.4a.468.468,0,0,1-.464.4q-.192.016-.376.016h-.36q-.272,0-.528-.008T-36.248,0a.691.691,0,0,1-.32-.08.509.509,0,0,1-.16-.288q-.08-.272-.152-.536t-.152-.536l-.336-1.216-.384-1.312q-.176-.56-.344-1.128T-38.44-6.24l-.368-1.376q-.064-.224-.136-.424t-.136-.424q-.064-.208-.112-.408t-.1-.408l-.048-.224-.24-.72-.256-.816a1.1,1.1,0,0,1-.04-.224.47.47,0,0,1,.072-.256q.128-.016.272-.04a1.749,1.749,0,0,1,.288-.024,2.138,2.138,0,0,1,.32-.008,2.138,2.138,0,0,0,.32-.008.822.822,0,0,1,.7.352l.1.528.128.5.448,1.424.96,3.216q.08.272.144.56t.144.576l.4,1.408a1.046,1.046,0,0,0,.064.112A1.047,1.047,0,0,1-35.448-2.816Zm1.584-2.32.384.3v-.48l-.176-.08.1-.16a.814.814,0,0,1-.16.016Zm1.408-4.048q.048.048.048.032l.24-.16-.1-.112q.032-.048.064-.088t.064-.088l-.112-.16-.192.176q-.032.08-.056.144t-.056.144l.1.048Zm-.9,3.376v.016q.064-.08.128-.152t0-.216l-.32.144a.4.4,0,0,0-.072.176q-.008.08.1.16Zm-4.64-1.984.144-.192a.143.143,0,0,1-.04-.08.409.409,0,0,0-.04-.112l-.1.1-.208-.08q.048.08.08.128a.524.524,0,0,0,.064.08.338.338,0,0,0,.112.416h.112Zm4.9.144a1.752,1.752,0,0,0,.184.08l.216.08A1.13,1.13,0,0,0-32.7-7.64a.85.85,0,0,1-.008-.12l-.352-.1q-.016.064-.024.1A.549.549,0,0,0-33.1-7.648ZM-38.12-8.816h-.272l.048.352.1-.024a.548.548,0,0,1,.1-.008V-8.64A1.323,1.323,0,0,1-38.12-8.816ZM-34.936-1.2a.688.688,0,0,1,.128-.016h.112l.048-.16a.41.41,0,0,0-.184-.1q-.088-.016-.184.112Zm-.24.176v-.24Q-35.3-1.28-35.4-1.3l-.176-.032a.24.24,0,0,0,.144.2Q-35.32-1.088-35.176-1.024Zm-1.84-4.464a.456.456,0,0,0-.352-.272l-.128.1a.481.481,0,0,0,.208.128A1.576,1.576,0,0,0-37.016-5.488Zm2.576,2.7a.524.524,0,0,0-.176.16.212.212,0,0,0,.016.208l.272-.224ZM-35.08-.7a.092.092,0,0,1,.032-.064l-.288-.208V-.8l-.224.1Zm-.352-1.1q.24-.192.112-.3a.6.6,0,0,1-.192.032,1.377,1.377,0,0,1-.008.152Q-35.528-1.856-35.432-1.808Zm-2.88-7.552a1.565,1.565,0,0,1-.16.1l-.16.08.144.088a1.556,1.556,0,0,1,.144.1ZM-36.6-3.072l-.144.144a.4.4,0,0,0,.072.1.576.576,0,0,1,.072.088l.16-.112Zm.9,1.12a1,1,0,0,0-.1-.168.164.164,0,0,0-.184-.04.378.378,0,0,0,.032.208Q-35.928-1.92-35.7-1.952Zm1.744-1.184-.144-.112a.073.073,0,0,0-.056-.008.243.243,0,0,1-.072.008l.128.352ZM-31.9-10.88a.173.173,0,0,0-.048.272q0,.016.08.032l.112-.256Zm-5.232,6.256.064.192.272-.352-.032-.032Zm.864,2.416a.243.243,0,0,0-.272-.128q.032.08.048.128t.048.128A.836.836,0,0,0-36.264-2.208Zm.048.528a.443.443,0,0,0,.1.04.139.139,0,0,1,.072.04.347.347,0,0,1,.064.128.033.033,0,0,0,.024-.008.033.033,0,0,1,.024-.008v-.288a1.135,1.135,0,0,1-.144.048A1.135,1.135,0,0,0-36.216-1.68Zm2.5-2.368q-.112-.208-.256-.064a.524.524,0,0,1,.064.08q.032.048.08.112ZM-37.672-7.12q-.112.032-.112.048a.073.073,0,0,0-.04.04.158.158,0,0,1-.04.056.455.455,0,0,1,.08.1Q-37.592-6.912-37.672-7.12Zm2.592,5.328a.989.989,0,0,1-.152.048q-.072.016-.184.048l.144.128L-35.1-1.7A.167.167,0,0,0-35.08-1.792ZM-37.592-6.08q0,.08.008.16t.024.16l.064.08a1.04,1.04,0,0,0,0-.272A.388.388,0,0,0-37.592-6.08Zm-.864-4.352a.627.627,0,0,0-.064-.144h-.16a.3.3,0,0,1,.072.136Q-38.584-10.352-38.456-10.432Zm-.064-.224v-.1l-.224-.064a.9.9,0,0,0-.016.176A.27.27,0,0,1-38.52-10.656ZM-33.1-6.624l.064.048a.22.22,0,0,0,.112-.256q-.064.064-.1.112A1.125,1.125,0,0,0-33.1-6.624ZM-37.72-7.808l-.08.3.16-.064ZM-36.152-.8l.192.112-.048-.24Zm-.976-3.52a1.125,1.125,0,0,1,.1.072.615.615,0,0,1,.1.1q.032-.16.008-.184T-37.128-4.32ZM-38.376-10.1a2.636,2.636,0,0,1-.144.224l.208-.032Zm2.864,8.576A.853.853,0,0,0-35.7-1.5a.658.658,0,0,0,.056.1.6.6,0,0,0,.056.064Zm.592-.5q.08.08.112.064a.173.173,0,0,0,.064-.08l-.064-.064Zm1.6-3.584.1-.176a.263.263,0,0,1-.064-.008.263.263,0,0,0-.064-.008Zm.48-1.648h-.08a.508.508,0,0,1,.032.144.093.093,0,0,0,.064-.016A.416.416,0,0,0-32.84-7.248Zm-4.656.672.064.048.064-.128a.033.033,0,0,1-.024-.008.033.033,0,0,0-.024-.008A.455.455,0,0,0-37.5-6.576Zm3.808,1.968-.064-.048-.064.112.048.032A.455.455,0,0,1-33.688-4.608Zm-3.968-2.144-.072.024a.177.177,0,0,1-.056.008l.048.128Zm5.072-2.384.048.064h.048a.167.167,0,0,0,.016-.1A.669.669,0,0,0-32.584-9.136Zm-4.16,4.608a.564.564,0,0,0-.032.12q0,.024.08.056Zm-2.032-6.112q-.144.032-.048.16Zm6.3,1.808a.033.033,0,0,0-.024.008.033.033,0,0,1-.024.008A.275.275,0,0,1-32.5-8.7h.064ZM-36.52-3.408v.08a.223.223,0,0,0,.1-.016v-.048A.223.223,0,0,1-36.52-3.408Zm2.4-.336q0-.016-.032-.048l-.08.064.032.032ZM-35.464-.976H-35.5v.128h.048a.263.263,0,0,0-.008-.064A.263.263,0,0,1-35.464-.976Zm3.2-8.464-.128.144A.143.143,0,0,1-32.264-9.44Zm-.544,1.056-.048-.032a.281.281,0,0,0-.032.08l.032.032Zm-5.072,0a.065.065,0,0,1-.048-.016l-.048.08a.178.178,0,0,1,.08.016A.178.178,0,0,1-37.88-8.384Zm3.36,7.152-.048-.032a.109.109,0,0,0-.032.08l.016.016A.1.1,0,0,0-34.52-1.232Zm.624-2.24q.016,0,.048.032a.281.281,0,0,0,.032-.08l-.016-.016A.1.1,0,0,0-33.9-3.472Zm-.64,1.552a.046.046,0,0,1,.016-.032L-34.6-2a.033.033,0,0,1-.008.024.033.033,0,0,0-.008.024.046.046,0,0,0,.032.016A.123.123,0,0,1-34.536-1.92Zm-.064.384.016-.032-.064-.048-.032.032Zm-2.624-3.408q-.016,0-.016.008t-.016.008h-.016a.071.071,0,0,0,.008.032.071.071,0,0,1,.008.032l.064-.048A.028.028,0,0,1-37.224-4.944Zm-1.168-5.2-.048-.048q-.032.032-.048.032A.223.223,0,0,0-38.392-10.144Zm4.224,6.176h.032v-.064h-.016A.093.093,0,0,1-34.168-3.968Zm-4.576-5.984.032-.064h-.048A.093.093,0,0,1-38.744-9.952ZM-33.992-4.3a.046.046,0,0,0-.032-.016.014.014,0,0,0-.016.016q.016,0,.016.008t.016.008A.014.014,0,0,1-33.992-4.3Zm-4.48-6.3-.032-.016v.048Zm5.232,3.456h.016a.123.123,0,0,0,.048-.016h-.064Zm-5.184-2.512-.016.016.016.016.016-.032ZM-36.7-4.256v.032a.014.014,0,0,0,.016-.016A.014.014,0,0,0-36.7-4.256Zm.32,1.664-.016.016h.032Zm-1.776-6.9-.016.032h.016ZM-36.92-3.7l.016.016Zm12.064-8.1q.176.048.328.1a1.28,1.28,0,0,0,.328.072,2,2,0,0,1,.512.128q.24.1.48.208a4.106,4.106,0,0,1,.768.424,7.218,7.218,0,0,1,.672.536,5.059,5.059,0,0,1,1.016,1.24,7.449,7.449,0,0,1,.648,1.5,4.9,4.9,0,0,1,.216,1.128A7.671,7.671,0,0,1-19.9-5.3a8.244,8.244,0,0,1-.112.888,6.342,6.342,0,0,1-.224.872,6.1,6.1,0,0,1-1.2,2l-.32.352a3.119,3.119,0,0,1-.528.424q-.288.184-.576.36-.24.128-.488.232t-.5.2a2.435,2.435,0,0,1-.9.176q-.1,0-.192.008t-.192.024a.526.526,0,0,1-.16.032L-26.312.144a3.222,3.222,0,0,1-1.008-.3,6.593,6.593,0,0,1-.824-.472Q-28.536-.9-28.9-1.2a1.265,1.265,0,0,1-.3-.32q-.176-.224-.344-.456t-.328-.472q-.1-.176-.184-.352t-.168-.352q-.176-.448-.312-.9a4.847,4.847,0,0,1-.184-.928q-.016-.192-.04-.376a1.633,1.633,0,0,1-.008-.36q.032-.352.04-.7a2.919,2.919,0,0,1,.1-.7q.08-.32.16-.608a2.791,2.791,0,0,1,.224-.56,6.309,6.309,0,0,1,.288-.568q.16-.28.32-.552.112-.16.216-.312a2.971,2.971,0,0,1,.232-.3l.36-.36a2.143,2.143,0,0,1,.392-.312q.32-.208.616-.432a1.392,1.392,0,0,1,.68-.272,1.292,1.292,0,0,1,.568-.208q.3-.032.6-.1a2.385,2.385,0,0,1,.24-.048,2.385,2.385,0,0,0,.24-.048Zm.576,9.936a1.344,1.344,0,0,1,.216-.128q.1-.048.216-.112.128-.08.248-.144a1.289,1.289,0,0,0,.232-.16,7.616,7.616,0,0,0,.712-.784,3.709,3.709,0,0,0,.536-.944,4.467,4.467,0,0,0,.288-2.112,4.016,4.016,0,0,0-.544-1.648,4.245,4.245,0,0,0-.44-.68A2.877,2.877,0,0,0-23.4-9.12,3.47,3.47,0,0,0-25-9.792a2.16,2.16,0,0,0-.912.032,3.512,3.512,0,0,0-.616.216,4.511,4.511,0,0,0-.568.312,2.3,2.3,0,0,0-.352.288q-.16.16-.32.336-.128.16-.248.32t-.232.336a2.162,2.162,0,0,0-.264.576q-.088.3-.184.608a2.048,2.048,0,0,0-.128.7q0,.352.032.7a4.868,4.868,0,0,0,.3,1.28,4.09,4.09,0,0,0,.664,1.136,3.333,3.333,0,0,0,.344.328q.184.152.36.312a1.464,1.464,0,0,0,.232.136q.12.056.232.12a2.461,2.461,0,0,0,1.776.288,2.635,2.635,0,0,1,.3-.048Q-24.44-1.824-24.28-1.856Zm-.592-9.168.08.448.128.064a.59.59,0,0,0,.1-.064.873.873,0,0,0,.072-.064,1.135,1.135,0,0,0,.144.048q.064.016.16.048l-.128-.32q-.144-.032-.28-.072T-24.872-11.024Zm-4.736,6.288a1.107,1.107,0,0,0-.032-.128q-.016-.048-.032-.112l-.224.032.112.128-.08.144a.364.364,0,0,0,.208.184,1.467,1.467,0,0,0,.256.056.428.428,0,0,0-.008-.208A.6.6,0,0,0-29.608-4.736Zm8.576-2.224.192.08-.112.3.3.1a1.312,1.312,0,0,0,.048-.272,1.1,1.1,0,0,1-.136-.064q-.056-.032-.1-.064a.2.2,0,0,1,.048-.136q.048-.056-.032-.168l-.208.048Zm-6.88-2.976.16-.08.048.144.176-.208-.288-.112a.372.372,0,0,1-.072.056l-.088.056.064.144a1.463,1.463,0,0,0-.24-.064l-.1.128q.032.048.064.088t.064.088l.192-.176A.142.142,0,0,0-27.912-9.936Zm6.1,7.472a2.44,2.44,0,0,0,.3-.208.371.371,0,0,0,.08-.16q-.064.016-.112.032a.3.3,0,0,1-.1.016.311.311,0,0,1-.12.008.739.739,0,0,0-.1-.008A.243.243,0,0,0-21.816-2.464Zm-3.36-8.624-.336.048.064.288a.585.585,0,0,1,.152-.04q.072-.008.152-.024a.243.243,0,0,1,.008-.072.177.177,0,0,0,.008-.056A.958.958,0,0,0-25.176-11.088Zm-2.256,9.824.208-.128a.283.283,0,0,0-.264-.024.627.627,0,0,0-.184.248l.224.144q.016.016.08-.016Q-27.4-1.168-27.432-1.264Zm-2.32-5.184.256-.336-.112-.24-.176.112.144.16q-.048.064-.1.12t-.112.12Zm3.584,5.376-.288-.064.144.416.112-.1q.032-.064.064-.12T-26.168-1.072Zm3.408-.208q.048-.144.1-.28t.12-.312l-.24.176-.08.32a.121.121,0,0,0,.04.048A.388.388,0,0,1-22.76-1.28ZM-28.648-8.7q.08-.1.152-.176a.215.215,0,0,0,.024-.224.162.162,0,0,0-.176.064,1.456,1.456,0,0,1-.112.16Zm-.928,2.656a.246.246,0,0,0-.2.016.632.632,0,0,0-.152.16l.336.048q.016,0,.08-.064Zm8.336,2.416a.286.286,0,0,0,.08-.08.524.524,0,0,1,.064-.08l.176-.1q-.08-.128-.152-.1t-.152.056a.133.133,0,0,1-.04.152Q-21.336-3.712-21.24-3.632ZM-29.48-8.16a.83.83,0,0,0-.144.184.21.21,0,0,0,.032.216l.24-.128-.064-.128Q-29.448-8.08-29.48-8.16Zm8.7,3.456h-.192a.221.221,0,0,0,.04.216q.072.072.184.168Zm-1.008-4.08q-.16,0-.144.1a.2.2,0,0,1-.064.176.981.981,0,0,1,.176.1.071.071,0,0,0,.032-.008.071.071,0,0,1,.032-.008.141.141,0,0,1-.016-.168A.167.167,0,0,0-21.784-8.784ZM-26.2-10.9l-.176.176.144.16Q-25.976-10.736-26.2-10.9Zm2,9.808a.977.977,0,0,0,.04.28q.024.04.184.008a.174.174,0,0,0-.032-.184A.631.631,0,0,0-24.2-1.088Zm-5.216-6.32a.708.708,0,0,0-.12.152.24.24,0,0,0,.008.2l.24-.16Zm2.368,6.592.4.128V-.864a1.343,1.343,0,0,0-.184-.048A.281.281,0,0,0-27.048-.816Zm6.112-5.216.032-.336H-21.1a.408.408,0,0,0,.008.184A.338.338,0,0,0-20.936-6.032Zm-8.208-2.5-.4.3a.918.918,0,0,1,.216-.032,1.12,1.12,0,0,0,.184-.016ZM-26.184-.8v.208a.2.2,0,0,0,.08.048.4.4,0,0,1,.1.048l.064-.192a1.333,1.333,0,0,0-.128-.056A.549.549,0,0,1-26.184-.8Zm2.368-.1q.128.032.176-.032a.4.4,0,0,0,.064-.192l-.24.032Zm-1.552.416.112-.168a.143.143,0,0,0-.016-.168q-.16.032-.168.072A.894.894,0,0,0-25.368-.48Zm-4.176-5.664.024-.12a.371.371,0,0,0,.008-.072q-.08-.032-.136-.048a.7.7,0,0,1-.12-.048l-.032.08Zm7.392-3.12q-.08.144.064.176a.088.088,0,0,0,.08-.008.733.733,0,0,1,.1-.04Q-21.992-9.328-22.152-9.264Zm.8,1.808v.1l.272.112-.048-.256a.115.115,0,0,0-.112.064Q-21.272-7.376-21.352-7.456Zm-4.48,6.784.048-.288-.144-.064v.336A.223.223,0,0,1-25.832-.672ZM-20.6-6.016a.183.183,0,0,0-.008-.16,1.556,1.556,0,0,0-.1-.144l-.112.16ZM-28.712-2.1l.224-.048v-.064l-.272-.1Zm4.064,1.248a.065.065,0,0,1-.016.048.142.142,0,0,0,.064.016.092.092,0,0,1,.064.032.1.1,0,0,1,.048.056.491.491,0,0,0,.048.088l.08-.256a1.378,1.378,0,0,0-.152.008A1.234,1.234,0,0,1-24.648-.848Zm2.16-.72a.251.251,0,0,1,.176-.128q.128-.032.128-.208l-.3.208ZM-29.4-3.84a.2.2,0,0,1-.08.128q-.064.048.016.144a.427.427,0,0,0,.112-.08l.1-.1Zm5.616-6.576q.08.176.208.048a.093.093,0,0,0,.016-.064Q-23.64-10.56-23.784-10.416Zm-4.048.736a.583.583,0,0,0,.1-.008.583.583,0,0,1,.1-.008.093.093,0,0,1,.016-.064l-.288-.1ZM-22.264-2.5h.224l-.048-.224a.776.776,0,0,0-.1.112Q-22.216-2.56-22.264-2.5Zm.816-5.264q.08-.032.128-.056a.733.733,0,0,1,.1-.04l-.1-.192Zm-6.9,5.36a.557.557,0,0,0,.064.224q.032.032.192,0-.064-.048-.12-.1T-28.344-2.4Zm.016-7.184a.315.315,0,0,0-.184-.008.4.4,0,0,0-.12.088q.128.08.176.016A.291.291,0,0,1-28.328-9.584Zm-1.456,4.192a.168.168,0,0,1,.12.056q.056.056.136-.056a1.169,1.169,0,0,0-.12-.08Q-29.7-5.5-29.784-5.392Zm6.912-4.336a.128.128,0,0,0,.04.136q.056.04.136.1A.207.207,0,0,0-22.872-9.728Zm1.6,5.616h-.048l-.08.16h.176Zm.08-.352.144-.16-.16-.064V-4.6A.96.96,0,0,0-21.192-4.464Zm.576-.368-.064-.1a.092.092,0,0,0-.064.032l-.032.176ZM-29.1-3.36l.112-.16-.192.032Zm1.232,1.552-.056-.056a.624.624,0,0,0-.1-.072l.064.208ZM-28.3-9.184l.128-.1-.16-.1.024.12A.371.371,0,0,1-28.3-9.184Zm6.032,7.024.128.208q.032-.128.016-.152A.322.322,0,0,0-22.264-2.16Zm-5.568.672a.288.288,0,0,0-.024-.128q-.024-.048-.152-.016Zm-1.2-6.72a.421.421,0,0,0,.152-.056q.024-.024-.008-.136Zm7.36-.768q-.144.016-.152.064A.186.186,0,0,0-21.8-8.8a.873.873,0,0,0,.064-.072A.59.59,0,0,0-21.672-8.976Zm.9,3.424q.016.192.192.08a.409.409,0,0,0-.112-.04A.143.143,0,0,1-20.776-5.552Zm-.7,1.92.048.192.1-.1A1.542,1.542,0,0,1-21.48-3.632ZM-29-9.056l.048.048.112-.128q-.032-.032-.032-.048l-.064.064Zm-.56,4.16q.08-.08.08-.1t-.08-.088Zm6.064-5.472q.128.032.152.016t.008-.1ZM-25.72-.592A.111.111,0,0,0-25.672-.6a.071.071,0,0,1,.032-.008l-.048-.128a.033.033,0,0,0-.024.008.063.063,0,0,1-.04.008A.524.524,0,0,1-25.72-.592Zm2.4-.976q.128.032.152.016a.35.35,0,0,0,.072-.1ZM-29.832-6.8l-.048-.048a.139.139,0,0,1-.072.04q-.04.008.04.088Zm4.88-3.808L-25-10.656l-.08.112q.032.032.048.032A.455.455,0,0,0-24.952-10.608Zm3.84,3.392-.08.128a.368.368,0,0,0,.144-.048ZM-21.5-3.088l-.048-.032-.048.144a.065.065,0,0,0,.048.016ZM-29-8.816v.08a.177.177,0,0,0,.056-.008.177.177,0,0,1,.056-.008V-8.8a.177.177,0,0,1-.056-.008A.177.177,0,0,0-29-8.816Zm7.648,1.36q-.016-.032.024-.08t-.1-.08Zm-.16-.512-.064.032.048.1a.065.065,0,0,1,.048-.016Zm-.528-.784a.252.252,0,0,1-.024-.128q.008-.048-.088,0Zm-.336,6.64-.064-.048-.048.112.032.016Zm-7.248-2.064a.323.323,0,0,0,.064-.1q0-.016-.08-.048a.371.371,0,0,0,.008.072A.371.371,0,0,1-29.624-4.176Zm8.576-1.12a.046.046,0,0,1,.016-.032l-.1-.064q0,.016-.032.048Zm-6.32-4.736.048.032.048-.16Zm4.048-.032.032.032a.125.125,0,0,0,.024-.032.087.087,0,0,1,.04-.032.092.092,0,0,0-.064-.032Zm-6.656,4.272a.033.033,0,0,1,.008-.024.033.033,0,0,0,.008-.024l-.08-.048-.032.032A.372.372,0,0,1-29.976-5.792Zm.768,2.944-.032.032.064.064.032-.032A.1.1,0,0,0-29.208-2.848Zm4.976-7.536q-.032-.032-.032-.048a.092.092,0,0,0-.064.032l.048.048Zm-5.1,2.688-.032-.048h-.048l.032.08Zm5.52-2.832h.032a.223.223,0,0,0-.016-.1h-.032a.111.111,0,0,0,.008.048A.111.111,0,0,1-23.816-10.528Zm2.832,2.9.112.08V-7.6A.278.278,0,0,0-20.984-7.632Zm-.032-.128v.032h.1V-7.76Zm-.208-.4a.177.177,0,0,0-.008-.056.177.177,0,0,1-.008-.056.033.033,0,0,0-.024.008.033.033,0,0,1-.024.008Zm-7.12-.928a.033.033,0,0,1,.024.008.033.033,0,0,0,.024.008v-.1Zm1.392-1.376h.032v-.08h-.032Zm-2.3,3.04L-29.3-7.5v.1a.033.033,0,0,0,.024-.008A.033.033,0,0,1-29.256-7.424Zm6.688-2.064-.064.048.048.032A.178.178,0,0,1-22.568-9.488Zm.3-.3v.032h.064v-.032Zm-5.216-.592-.032-.032-.064.08Zm-.032.544v-.032a.142.142,0,0,1-.064.016v.032a.063.063,0,0,0,.04-.008A.033.033,0,0,1-27.512-9.84Zm6.288,1.68.032.1A.028.028,0,0,1-21.16-8.1Zm.608,3.04h-.016v.112h.016Zm-.512-.848h.016a.093.093,0,0,0-.016-.064h-.016A.093.093,0,0,0-21.128-5.968ZM-23.08-1.424V-1.44h-.08v.016Zm2.448-4.4h.016V-5.9h-.016Zm-7.936,3.888a.046.046,0,0,0-.016-.032q0,.016-.008.016t-.008.016l.016.016Zm-.448-.64q0-.016-.008-.016t-.008-.016q0,.016-.008.016t-.008.016l.016.016Zm1.12,1.184a.046.046,0,0,1-.016.032.033.033,0,0,1,.024.008.033.033,0,0,0,.024.008Q-27.9-1.376-27.9-1.392Zm1.168-8.88.016-.016-.016-.016-.016.016Zm3.3,8.832a.046.046,0,0,0,.016-.032q.016,0,.008-.008a.033.033,0,0,0-.024-.008Zm-1.2-9.344-.016-.016.016-.016.016.016Zm-5.28,5.6h.048V-5.2A.065.065,0,0,0-29.912-5.184Zm.688-2.688a.033.033,0,0,1,.008-.024.033.033,0,0,0,.008-.024.014.014,0,0,1-.016-.016Zm6.24,6.128h.016V-1.76Zm-6.368-5.792.016.016Zm16.688-4.256q.176.048.328.1a1.28,1.28,0,0,0,.328.072,2,2,0,0,1,.512.128q.24.1.48.208a4.106,4.106,0,0,1,.768.424,7.219,7.219,0,0,1,.672.536A5.059,5.059,0,0,1-8.56-9.08a7.449,7.449,0,0,1,.648,1.5A4.9,4.9,0,0,1-7.7-6.456,7.67,7.67,0,0,1-7.7-5.3a8.244,8.244,0,0,1-.112.888,6.343,6.343,0,0,1-.224.872,6.1,6.1,0,0,1-1.2,2l-.32.352a3.119,3.119,0,0,1-.528.424q-.288.184-.576.36-.24.128-.488.232t-.5.2a2.435,2.435,0,0,1-.9.176q-.1,0-.192.008t-.192.024a.526.526,0,0,1-.16.032L-14.12.144a3.222,3.222,0,0,1-1.008-.3,6.593,6.593,0,0,1-.824-.472q-.392-.264-.76-.568a1.265,1.265,0,0,1-.3-.32q-.176-.224-.344-.456t-.328-.472q-.1-.176-.184-.352t-.168-.352q-.176-.448-.312-.9a4.847,4.847,0,0,1-.184-.928q-.016-.192-.04-.376a1.633,1.633,0,0,1-.008-.36q.032-.352.04-.7a2.919,2.919,0,0,1,.1-.7q.08-.32.16-.608a2.791,2.791,0,0,1,.224-.56,6.309,6.309,0,0,1,.288-.568q.16-.28.32-.552.112-.16.216-.312a2.971,2.971,0,0,1,.232-.3l.36-.36a2.143,2.143,0,0,1,.392-.312q.32-.208.616-.432a1.392,1.392,0,0,1,.68-.272,1.292,1.292,0,0,1,.568-.208q.3-.032.6-.1a2.385,2.385,0,0,1,.24-.048,2.385,2.385,0,0,0,.24-.048Zm.576,9.936a1.344,1.344,0,0,1,.216-.128q.1-.048.216-.112.128-.08.248-.144a1.289,1.289,0,0,0,.232-.16,7.616,7.616,0,0,0,.712-.784,3.709,3.709,0,0,0,.536-.944A4.468,4.468,0,0,0-9.64-6.24a4.016,4.016,0,0,0-.544-1.648,4.245,4.245,0,0,0-.44-.68,2.877,2.877,0,0,0-.584-.552,3.47,3.47,0,0,0-1.6-.672,2.16,2.16,0,0,0-.912.032,3.513,3.513,0,0,0-.616.216,4.511,4.511,0,0,0-.568.312,2.3,2.3,0,0,0-.352.288q-.16.16-.32.336-.128.16-.248.32t-.232.336a2.162,2.162,0,0,0-.264.576q-.088.3-.184.608a2.048,2.048,0,0,0-.128.7q0,.352.032.7a4.868,4.868,0,0,0,.3,1.28,4.09,4.09,0,0,0,.664,1.136,3.333,3.333,0,0,0,.344.328q.184.152.36.312a1.464,1.464,0,0,0,.232.136q.12.056.232.12A2.461,2.461,0,0,0-12.7-1.76a2.635,2.635,0,0,1,.3-.048Q-12.248-1.824-12.088-1.856Zm-.592-9.168.08.448.128.064a.59.59,0,0,0,.1-.064.872.872,0,0,0,.072-.064,1.135,1.135,0,0,0,.144.048q.064.016.16.048l-.128-.32q-.144-.032-.28-.072T-12.68-11.024Zm-4.736,6.288a1.107,1.107,0,0,0-.032-.128q-.016-.048-.032-.112l-.224.032.112.128-.08.144a.364.364,0,0,0,.208.184,1.467,1.467,0,0,0,.256.056.428.428,0,0,0-.008-.208A.6.6,0,0,0-17.416-4.736ZM-8.84-6.96l.192.08-.112.3.3.1a1.312,1.312,0,0,0,.048-.272,1.1,1.1,0,0,1-.136-.064q-.056-.032-.1-.064A.2.2,0,0,1-8.6-7.016q.048-.056-.032-.168l-.208.048Zm-6.88-2.976.16-.08.048.144.176-.208-.288-.112a.372.372,0,0,1-.072.056l-.088.056.064.144A1.463,1.463,0,0,0-15.96-10l-.1.128q.032.048.064.088t.064.088l.192-.176A.142.142,0,0,0-15.72-9.936Zm6.1,7.472a2.44,2.44,0,0,0,.3-.208.371.371,0,0,0,.08-.16q-.064.016-.112.032a.3.3,0,0,1-.1.016.311.311,0,0,1-.12.008.739.739,0,0,0-.1-.008A.243.243,0,0,0-9.624-2.464Zm-3.36-8.624-.336.048.064.288a.585.585,0,0,1,.152-.04q.072-.008.152-.024a.243.243,0,0,1,.008-.072.177.177,0,0,0,.008-.056A.958.958,0,0,0-12.984-11.088ZM-15.24-1.264l.208-.128a.283.283,0,0,0-.264-.024.627.627,0,0,0-.184.248l.224.144q.016.016.08-.016Q-15.208-1.168-15.24-1.264Zm-2.32-5.184.256-.336-.112-.24-.176.112.144.16q-.048.064-.1.12t-.112.12Zm3.584,5.376-.288-.064.144.416.112-.1q.032-.064.064-.12T-13.976-1.072Zm3.408-.208q.048-.144.1-.28t.12-.312l-.24.176-.08.32a.121.121,0,0,0,.04.048A.388.388,0,0,1-10.568-1.28ZM-16.456-8.7q.08-.1.152-.176A.215.215,0,0,0-16.28-9.1a.162.162,0,0,0-.176.064,1.456,1.456,0,0,1-.112.16Zm-.928,2.656a.246.246,0,0,0-.2.016.632.632,0,0,0-.152.16l.336.048q.016,0,.08-.064Zm8.336,2.416a.286.286,0,0,0,.08-.08.524.524,0,0,1,.064-.08l.176-.1q-.08-.128-.152-.1t-.152.056a.133.133,0,0,1-.04.152Q-9.144-3.712-9.048-3.632Zm-8.24-4.528a.83.83,0,0,0-.144.184.21.21,0,0,0,.032.216l.24-.128-.064-.128Q-17.256-8.08-17.288-8.16Zm8.7,3.456h-.192a.221.221,0,0,0,.04.216q.072.072.184.168Zm-1.008-4.08q-.16,0-.144.1a.2.2,0,0,1-.064.176.981.981,0,0,1,.176.1.071.071,0,0,0,.032-.008.071.071,0,0,1,.032-.008A.141.141,0,0,1-9.576-8.6.167.167,0,0,0-9.592-8.784ZM-14.008-10.9l-.176.176.144.16Q-13.784-10.736-14.008-10.9Zm2,9.808a.977.977,0,0,0,.04.28q.024.04.184.008a.174.174,0,0,0-.032-.184A.631.631,0,0,0-12.008-1.088Zm-5.216-6.32a.708.708,0,0,0-.12.152.24.24,0,0,0,.008.2l.24-.16Zm2.368,6.592.4.128V-.864a1.343,1.343,0,0,0-.184-.048A.281.281,0,0,0-14.856-.816Zm6.112-5.216.032-.336H-8.9a.408.408,0,0,0,.008.184A.338.338,0,0,0-8.744-6.032Zm-8.208-2.5-.4.3a.918.918,0,0,1,.216-.032,1.12,1.12,0,0,0,.184-.016ZM-13.992-.8v.208a.2.2,0,0,0,.08.048.4.4,0,0,1,.1.048l.064-.192a1.332,1.332,0,0,0-.128-.056A.549.549,0,0,1-13.992-.8Zm2.368-.1q.128.032.176-.032a.4.4,0,0,0,.064-.192l-.24.032Zm-1.552.416.112-.168a.143.143,0,0,0-.016-.168q-.16.032-.168.072A.894.894,0,0,0-13.176-.48Zm-4.176-5.664.024-.12a.371.371,0,0,0,.008-.072q-.08-.032-.136-.048a.7.7,0,0,1-.12-.048l-.032.08Zm7.392-3.12q-.08.144.064.176a.088.088,0,0,0,.08-.008.733.733,0,0,1,.1-.04Q-9.8-9.328-9.96-9.264Zm.8,1.808v.1l.272.112L-8.936-7.5a.115.115,0,0,0-.112.064Q-9.08-7.376-9.16-7.456ZM-13.64-.672l.048-.288-.144-.064v.336A.223.223,0,0,1-13.64-.672Zm5.232-5.344a.183.183,0,0,0-.008-.16,1.556,1.556,0,0,0-.1-.144l-.112.16ZM-16.52-2.1l.224-.048v-.064l-.272-.1Zm4.064,1.248a.065.065,0,0,1-.016.048.142.142,0,0,0,.064.016.092.092,0,0,1,.064.032A.1.1,0,0,1-12.3-.7a.49.49,0,0,0,.048.088l.08-.256a1.378,1.378,0,0,0-.152.008A1.234,1.234,0,0,1-12.456-.848Zm2.16-.72A.251.251,0,0,1-10.12-1.7q.128-.032.128-.208l-.3.208ZM-17.208-3.84a.2.2,0,0,1-.08.128q-.064.048.016.144a.427.427,0,0,0,.112-.08l.1-.1Zm5.616-6.576q.08.176.208.048a.093.093,0,0,0,.016-.064Q-11.448-10.56-11.592-10.416Zm-4.048.736a.583.583,0,0,0,.1-.008.583.583,0,0,1,.1-.008.093.093,0,0,1,.016-.064l-.288-.1ZM-10.072-2.5h.224L-9.9-2.72a.776.776,0,0,0-.1.112Q-10.024-2.56-10.072-2.5Zm.816-5.264q.08-.032.128-.056a.733.733,0,0,1,.1-.04l-.1-.192Zm-6.9,5.36a.557.557,0,0,0,.064.224q.032.032.192,0-.064-.048-.12-.1T-16.152-2.4Zm.016-7.184a.315.315,0,0,0-.184-.008.4.4,0,0,0-.12.088q.128.08.176.016A.291.291,0,0,1-16.136-9.584Zm-1.456,4.192a.168.168,0,0,1,.12.056q.056.056.136-.056a1.169,1.169,0,0,0-.12-.08Q-17.512-5.5-17.592-5.392Zm6.912-4.336a.128.128,0,0,0,.04.136q.056.04.136.1A.207.207,0,0,0-10.68-9.728Zm1.6,5.616h-.048l-.08.16h.176ZM-9-4.464l.144-.16-.16-.064V-4.6A.96.96,0,0,0-9-4.464Zm.576-.368-.064-.1a.092.092,0,0,0-.064.032l-.032.176ZM-16.9-3.36l.112-.16-.192.032Zm1.232,1.552-.056-.056a.624.624,0,0,0-.1-.072l.064.208ZM-16.1-9.184l.128-.1-.16-.1.024.12A.371.371,0,0,1-16.1-9.184Zm6.032,7.024.128.208q.032-.128.016-.152A.322.322,0,0,0-10.072-2.16Zm-5.568.672a.288.288,0,0,0-.024-.128q-.024-.048-.152-.016Zm-1.2-6.72a.421.421,0,0,0,.152-.056q.024-.024-.008-.136Zm7.36-.768q-.144.016-.152.064a.186.186,0,0,0,.024.112.873.873,0,0,0,.064-.072A.59.59,0,0,0-9.48-8.976Zm.9,3.424q.016.192.192.08a.409.409,0,0,0-.112-.04A.143.143,0,0,1-8.584-5.552Zm-.7,1.92.048.192.1-.1A1.542,1.542,0,0,1-9.288-3.632Zm-7.52-5.424.048.048.112-.128q-.032-.032-.032-.048l-.064.064Zm-.56,4.16q.08-.08.08-.1t-.08-.088Zm6.064-5.472q.128.032.152.016t.008-.1ZM-13.528-.592A.111.111,0,0,0-13.48-.6a.071.071,0,0,1,.032-.008L-13.5-.736a.033.033,0,0,0-.024.008.063.063,0,0,1-.04.008A.524.524,0,0,1-13.528-.592Zm2.4-.976q.128.032.152.016a.35.35,0,0,0,.072-.1ZM-17.64-6.8l-.048-.048a.139.139,0,0,1-.072.04q-.04.008.04.088Zm4.88-3.808-.048-.048-.08.112q.032.032.048.032A.455.455,0,0,0-12.76-10.608Zm3.84,3.392L-9-7.088a.368.368,0,0,0,.144-.048ZM-9.3-3.088l-.048-.032-.048.144a.065.065,0,0,0,.048.016Zm-7.5-5.728v.08a.177.177,0,0,0,.056-.008.177.177,0,0,1,.056-.008V-8.8a.177.177,0,0,1-.056-.008A.177.177,0,0,0-16.808-8.816Zm7.648,1.36q-.016-.032.024-.08t-.1-.08Zm-.16-.512-.064.032.048.1a.065.065,0,0,1,.048-.016Zm-.528-.784a.252.252,0,0,1-.024-.128q.008-.048-.088,0Zm-.336,6.64-.064-.048-.048.112.032.016Zm-7.248-2.064a.323.323,0,0,0,.064-.1q0-.016-.08-.048a.371.371,0,0,0,.008.072A.371.371,0,0,1-17.432-4.176ZM-8.856-5.3a.046.046,0,0,1,.016-.032l-.1-.064q0,.016-.032.048Zm-6.32-4.736.048.032.048-.16Zm4.048-.032.032.032a.125.125,0,0,0,.024-.032.087.087,0,0,1,.04-.032.092.092,0,0,0-.064-.032Zm-6.656,4.272a.033.033,0,0,1,.008-.024.033.033,0,0,0,.008-.024l-.08-.048-.032.032A.372.372,0,0,1-17.784-5.792Zm.768,2.944-.032.032.064.064.032-.032A.1.1,0,0,0-17.016-2.848Zm4.976-7.536q-.032-.032-.032-.048a.092.092,0,0,0-.064.032l.048.048Zm-5.1,2.688-.032-.048h-.048l.032.08Zm5.52-2.832h.032a.223.223,0,0,0-.016-.1h-.032a.111.111,0,0,0,.008.048A.111.111,0,0,1-11.624-10.528Zm2.832,2.9.112.08V-7.6A.278.278,0,0,0-8.792-7.632Zm-.032-.128v.032h.1V-7.76Zm-.208-.4a.177.177,0,0,0-.008-.056.177.177,0,0,1-.008-.056.033.033,0,0,0-.024.008.033.033,0,0,1-.024.008Zm-7.12-.928a.033.033,0,0,1,.024.008.033.033,0,0,0,.024.008v-.1Zm1.392-1.376h.032v-.08h-.032Zm-2.3,3.04-.048-.08v.1a.033.033,0,0,0,.024-.008A.033.033,0,0,1-17.064-7.424Zm6.688-2.064-.064.048.048.032A.178.178,0,0,1-10.376-9.488Zm.3-.3v.032h.064v-.032Zm-5.216-.592-.032-.032-.064.08Zm-.032.544v-.032a.142.142,0,0,1-.064.016v.032a.063.063,0,0,0,.04-.008A.033.033,0,0,1-15.32-9.84Zm6.288,1.68.032.1A.028.028,0,0,1-8.968-8.1Zm.608,3.04H-8.44v.112h.016Zm-.512-.848h.016a.093.093,0,0,0-.016-.064h-.016A.093.093,0,0,0-8.936-5.968Zm-1.952,4.544V-1.44h-.08v.016Zm2.448-4.4h.016V-5.9H-8.44Zm-7.936,3.888a.046.046,0,0,0-.016-.032q0,.016-.008.016t-.008.016l.016.016Zm-.448-.64q0-.016-.008-.016t-.008-.016q0,.016-.008.016t-.008.016l.016.016Zm1.12,1.184a.046.046,0,0,1-.016.032.033.033,0,0,1,.024.008.033.033,0,0,0,.024.008Q-15.7-1.376-15.7-1.392Zm1.168-8.88.016-.016-.016-.016-.016.016Zm3.3,8.832a.046.046,0,0,0,.016-.032q.016,0,.008-.008a.033.033,0,0,0-.024-.008Zm-1.2-9.344-.016-.016.016-.016.016.016Zm-5.28,5.6h.048V-5.2A.065.065,0,0,0-17.72-5.184Zm.688-2.688a.033.033,0,0,1,.008-.024.033.033,0,0,0,.008-.024.014.014,0,0,1-.016-.016Zm6.24,6.128h.016V-1.76ZM-17.16-7.536l.016.016ZM-.424-3.712a1.352,1.352,0,0,1,.016.184.41.41,0,0,0,.032.152l.3.72q.16.368.32.728t.32.728l.32.736a.675.675,0,0,1,.064.208A.406.406,0,0,1,.9-.016H-.632Q-.7-.048-.76-.088L-.9-.176l-1.44-3.248a1.863,1.863,0,0,1-.184-.04A.639.639,0,0,0-2.7-3.488Q-2.968-3.5-3.24-3.5h-.544a.592.592,0,0,0-.64.432v.928q0,.4.008.8t.008.8A1.348,1.348,0,0,1-4.44-.3a.379.379,0,0,1-.368.3Q-5.1,0-5.376.008t-.552.008A.449.449,0,0,1-6.24-.136.658.658,0,0,1-6.392-.48v-.4l.032-.96q.016-.48.016-.96,0-.192-.016-.392t-.016-.392a.73.73,0,0,1,.024-.176.4.4,0,0,0,.008-.176,3.6,3.6,0,0,1-.016-.9,5.192,5.192,0,0,0,.016-.912q-.016-.16-.032-.312a1.525,1.525,0,0,1,0-.312q0-.416.008-.84t.024-.84q0-.112-.008-.216T-6.36-8.5a4.438,4.438,0,0,1-.008-.464q.008-.24.008-.48a.3.3,0,0,1,.016-.1.148.148,0,0,0,0-.1,1.464,1.464,0,0,1-.032-.424q.016-.2.032-.424,0-.1-.008-.2t-.024-.2a.649.649,0,0,1,.112-.528.63.63,0,0,1,.512-.192q.272.016.536.008t.536.008q.272,0,.528-.024a2.348,2.348,0,0,1,.512.008,5.146,5.146,0,0,0,.9.016,6.391,6.391,0,0,1,.9,0,4.929,4.929,0,0,1,.832.1,3.2,3.2,0,0,1,.816.3,3.21,3.21,0,0,1,.8.656,2.235,2.235,0,0,1,.232.272q.1.144.216.272a1.609,1.609,0,0,1,.224.408q.08.216.144.44a7.506,7.506,0,0,1,.2.912A3.183,3.183,0,0,1,1.64-7.3q-.048.416-.112.808a2.8,2.8,0,0,1-.24.76,7.683,7.683,0,0,1-.344.7,2.518,2.518,0,0,1-.472.6,1.618,1.618,0,0,1-.264.216q-.136.088-.264.184-.1.08-.184.16T-.424-3.712Zm-3.888-5.76a1.332,1.332,0,0,0-.056.128.362.362,0,0,0-.024.128q-.032.208-.048.416t-.016.416q0,.256.008.512t.024.528q.016.256.024.5a1.828,1.828,0,0,1-.056.5.619.619,0,0,0,0,.28q.032.152.064.28a.353.353,0,0,0,.208.272.87.87,0,0,0,.168.048.94.94,0,0,0,.168.016q.176,0,.352-.016t.352-.016q.24,0,.488.024t.488.024a3.308,3.308,0,0,0,.616-.056,1.067,1.067,0,0,0,.536-.28,2.916,2.916,0,0,0,.24-.272,1.82,1.82,0,0,0,.192-.3,2.4,2.4,0,0,0,.3-1.224A3.709,3.709,0,0,0-.552-8.784a1.16,1.16,0,0,0-.52-.616,1.9,1.9,0,0,0-.76-.216,5.317,5.317,0,0,0-.656-.024q-.336.008-.656.008a.94.94,0,0,1-.168-.016.445.445,0,0,0-.168,0q-.208.016-.416.024A.782.782,0,0,0-4.312-9.472Zm2.976,5.744.08-.368L-.92-4.24l.128-.544a.473.473,0,0,1-.32.072.826.826,0,0,0-.3.008.34.34,0,0,0-.072.224q.008.112.008.224l.128.048q-.032.08-.056.152t-.056.152ZM-.12-9.776a.528.528,0,0,0-.032.088q-.016.056-.032.12l.176.16a.328.328,0,0,0,.072-.3.558.558,0,0,1-.008-.28.057.057,0,0,0-.008-.064.6.6,0,0,0-.056-.064l-.24-.224-.112.064q.08.128.152.24A.586.586,0,0,1-.12-9.776ZM-2.312-4.4l.3-.112-.5-.224a.981.981,0,0,0-.1.176l.08.1q-.144-.032-.2.056a.727.727,0,0,0-.088.232l.288-.08a.588.588,0,0,1,.08-.12A.1.1,0,0,1-2.312-4.4ZM-3.64-10.528q-.032-.112-.056-.184a1.265,1.265,0,0,1-.04-.152q-.224-.064-.32.032l-.208-.048.032.32.128.048q.048-.032.088-.064t.088-.064Zm-1.808,4.4a1.119,1.119,0,0,0,.16.08.165.165,0,0,1,.1.144l-.208.272a.487.487,0,0,1,.072.056.077.077,0,0,0,.056.024.09.09,0,0,0,.064.008.263.263,0,0,1,.064-.008q.016-.16.04-.3a.418.418,0,0,0-.056-.28l-.1.1L-5.464-6.4a.246.246,0,0,0-.1.032l-.048.112A1.049,1.049,0,0,0-5.448-6.128Zm.272-4.064.048.272.256-.08-.208-.24-.112.048a.13.13,0,0,0-.032-.1.7.7,0,0,1,.12-.048q.056-.016.152-.048l-.272-.128-.256.24a.762.762,0,0,0,.112.072.3.3,0,0,1,.08.056.588.588,0,0,0,.064-.024ZM-5.416-5.2a.563.563,0,0,0-.184.1q-.024.032.008.16l.1-.064-.064.288q.208.176.32-.048l-.144-.192a.6.6,0,0,1-.056-.064q-.024-.032.056-.064A.258.258,0,0,0-5.416-5.2Zm-.24-3.92a1.378,1.378,0,0,1-.008.152q-.008.072-.008.1l.224.16.208-.224-.152.024A.661.661,0,0,1-5.48-8.9q-.016,0-.016-.032l.24-.1a.238.238,0,0,0-.184-.088A1.032,1.032,0,0,1-5.656-9.12Zm6.4.8a.517.517,0,0,1-.216-.072.183.183,0,0,0-.2.008q-.032.16.072.2a.523.523,0,0,1,.184.12h.08A.256.256,0,0,0,.7-8.176.592.592,0,0,1,.744-8.32Zm-2.88-2.32-.1.128q-.048.064.016.192a.63.63,0,0,1,.176-.008.241.241,0,0,0,.176-.056l-.048-.032.032-.032a1.686,1.686,0,0,0-.1-.144A.157.157,0,0,0-2.136-10.64Zm-2.976,7.2-.192.176.048.16a.31.31,0,0,1-.1.088q-.064.04.032.136a.2.2,0,0,0,.168-.16.464.464,0,0,1,.088-.208.063.063,0,0,0,.008-.08ZM-5.16-8.592l-.192.048A1.343,1.343,0,0,0-5.4-8.36q-.016.088-.032.184a.619.619,0,0,0,.24-.128A.717.717,0,0,0-5.16-8.592Zm1.136,4.144a.558.558,0,0,1,.144.1q-.032.192.128.128v-.352a.4.4,0,0,0-.12-.04.594.594,0,0,1-.1-.024.327.327,0,0,0-.016.1A.119.119,0,0,1-4.024-4.448ZM-.792-10.4q-.032.08-.056.144t.1.112q.08-.048.168-.1a2.442,2.442,0,0,1,.216-.12q-.128-.016-.224-.024T-.792-10.4ZM-.92-2.832l-.336.08.112.176a1.4,1.4,0,0,0,.3-.064q-.032-.064-.048-.1T-.92-2.832ZM-5.288-7.456l.064-.448-.272.256q.016.064.032.112a.621.621,0,0,0,.032.08Zm6.1.064a.439.439,0,0,0-.024.056.158.158,0,0,1-.04.056l.1.064a.258.258,0,0,1,.032-.112.18.18,0,0,0,.1-.176.637.637,0,0,0-.08-.208.251.251,0,0,1-.064.048.251.251,0,0,0-.064.048ZM-4.008-4.784q-.08,0-.16.008t-.176.008l.032.208.336-.08Zm2.88.512L-1.352-4.4l.144-.208.16.1ZM-4.6-4.16l.1.1a1.046,1.046,0,0,0,.112-.064.524.524,0,0,0,.08-.064q-.032-.128-.1-.136a.452.452,0,0,0-.144.008Zm3.264.576-.256.08q.032.08.056.152a.219.219,0,0,0,.12.12ZM-5.144-4.4q-.08.128-.064.176t.192.128q.064-.128.048-.168A.51.51,0,0,0-5.144-4.4Zm-.08-.512.16.256.128-.032a.073.073,0,0,0,.04-.04.158.158,0,0,1,.04-.056l-.16-.064A1.661,1.661,0,0,0-5.224-4.912Zm.048,3.552h.048l.08-.368-.192.08Zm3.1-2.8q.208.224.336.1a.946.946,0,0,1-.08-.144Zm-2.3-.3-.144-.112-.16.176.144.064.064-.064A.372.372,0,0,1-4.376-4.464ZM.36-6.688.3-6.576l.144.128.16-.08L.48-6.616A.893.893,0,0,0,.36-6.688ZM-3.1-4.56a.436.436,0,0,0-.16.1q-.048.056.032.184A.216.216,0,0,0-3.1-4.56ZM-5.208-.96l-.144-.08A1.17,1.17,0,0,1-5.36-.9a.346.346,0,0,0,.008.128q0,.016.08.048ZM.6-6.976.712-7.2.456-7.232q.048.08.08.128A.71.71,0,0,1,.6-6.976Zm-6.064,3.36h-.16l.128.24A.157.157,0,0,0-5.464-3.616Zm.112-3.632-.336.032q.08.064.128.1a.524.524,0,0,1,.08.064Zm-.24,5.472q.128-.1.128-.128t-.1-.128A.173.173,0,0,0-5.592-1.776Zm.3-5.056q-.032-.032-.032-.048a.45.45,0,0,0-.088.008l-.1.024.112.176Zm3.632,2.88a1.091,1.091,0,0,1,.088-.08.59.59,0,0,1,.1-.064l-.224-.112ZM-.6-1.552a.583.583,0,0,1,.1.008.813.813,0,0,0,.128.008l-.192-.24Zm-4.848-5.9a.45.45,0,0,1-.088-.008.74.74,0,0,1-.088-.024.485.485,0,0,0,.016.144.263.263,0,0,1,.064.008.263.263,0,0,0,.064.008.026.026,0,0,0,.024-.016.026.026,0,0,1,.024-.016A.223.223,0,0,0-5.448-7.456Zm.56-3.392a.071.071,0,0,0,.008.032.111.111,0,0,1,.008.048h.128q.064,0,.144-.128Zm-.736-.048v.152a1.039,1.039,0,0,0,.016.168.225.225,0,0,0,.088-.168A.252.252,0,0,0-5.624-10.9Zm.7.32a.611.611,0,0,0,.128.144.054.054,0,0,0,.04.016.154.154,0,0,1,.072.032.775.775,0,0,1-.072-.152Q-4.776-10.608-4.92-10.576ZM-.664-4.784l-.064.208a.689.689,0,0,1,.112.008.583.583,0,0,0,.1.008Zm-1.072-5.664a.26.26,0,0,1,.128,0q.064.016.112-.08a.391.391,0,0,0-.152-.04Q-1.672-10.56-1.736-10.448Zm1.648,5.52a.691.691,0,0,0,.12-.16Q.04-5.12-.024-5.2q-.048.032-.048.064A.828.828,0,0,0-.088-4.928Zm-.128,4q-.1-.128-.144-.112a.388.388,0,0,0-.128.1A.813.813,0,0,1-.36-.936.951.951,0,0,0-.216-.928ZM.568-6.176l.048-.048a.141.141,0,0,0-.04-.1q-.04-.04-.168-.024ZM-5.464-7.968-5.592-8.1l-.032.256Zm-.112,2.032q.128,0,.128-.16a.322.322,0,0,0-.144.056Q-5.608-6.016-5.576-5.936ZM-5.64-3.28l.1.112Q-5.512-3.2-5.5-3.2a.561.561,0,0,0-.016-.16Zm2.656-7.12q-.112-.08-.136-.072t-.072.136A.915.915,0,0,0-2.984-10.4ZM.056-6l-.032.1a.878.878,0,0,1-.048.112Q.216-5.824.056-6Zm.576.016a.364.364,0,0,0-.16.056q-.016.024.064.136Zm-5.984,3.36q-.208-.1-.24.08Zm4.24-1.12h-.032a.154.154,0,0,0-.016.112.054.054,0,0,0,.024.048.388.388,0,0,1,.056.048q.016,0,.016-.008t.016-.008A.992.992,0,0,0-1.112-3.744Zm-3.424-6.768.064.048q.016,0,.016-.008t.032-.008a.508.508,0,0,1,.032-.144l-.048-.032Zm-.016.224.048.08.144-.1a.092.092,0,0,0-.032-.064Zm4.016-.336a.853.853,0,0,1-.192.016q.064.1.1.1T-.536-10.624ZM-5.624-.832a.543.543,0,0,0,.056-.152q.008-.056-.1-.1Zm.048-5.76a.57.57,0,0,0-.08.152q0,.024.1.072A1.06,1.06,0,0,1-5.576-6.592Zm.336,1.5h-.128v.112q.048-.016.08-.024T-5.24-5.088ZM-.312-9.744a.322.322,0,0,0-.056-.144q-.024-.016-.1.048ZM-.44-1.376a.071.071,0,0,1-.008.032A.111.111,0,0,0-.456-1.3h.144A.033.033,0,0,1-.3-1.32.033.033,0,0,0-.3-1.344.508.508,0,0,0-.44-1.376Zm-5.136-1.68q-.08.08-.08.1t.08.1ZM.28-6.224A.853.853,0,0,0,.3-6.416q-.048.064-.064.088A.523.523,0,0,0,.2-6.272Zm.1-3.44Q.248-9.7.232-9.68a.368.368,0,0,0-.048.1A1.063,1.063,0,0,0,.376-9.664Zm-1.6-.752a.446.446,0,0,0,.1.032q.016,0,.048-.064-.016-.016-.024-.016t-.024-.032ZM.68-8.992a.093.093,0,0,0-.064-.016v.144H.664a.263.263,0,0,1,.008-.064A.263.263,0,0,0,.68-8.992ZM-1.64-4.576a.093.093,0,0,0,.064.016.263.263,0,0,1,.008-.064.263.263,0,0,0,.008-.064A.065.065,0,0,0-1.608-4.7ZM-5.176-2.1a.1.1,0,0,0-.064.064l.08.048.048-.048a.087.087,0,0,1-.04-.032A.125.125,0,0,0-5.176-2.1Zm-.336-2.352a.479.479,0,0,0-.088.08q-.008.016.072.1A.759.759,0,0,1-5.512-4.448Zm3.648-.272A.125.125,0,0,1-1.9-4.7a.087.087,0,0,0-.032.04l.08.064.016-.016q0-.016.008-.016t.008-.016ZM-.12-5.408a.565.565,0,0,0-.04-.1q-.008-.008-.088.024a.142.142,0,0,0,.064.04A.142.142,0,0,1-.12-5.408Zm-3.28.7-.048.048a.125.125,0,0,1,.024.032.087.087,0,0,0,.04.032l.048-.048a.087.087,0,0,1-.04-.032A.125.125,0,0,0-3.4-4.7Zm-1.76,1.04a.092.092,0,0,0,.032-.064.246.246,0,0,1-.1-.032.065.065,0,0,0-.016.048Zm-.272-5.6a.093.093,0,0,1-.016-.064A.669.669,0,0,0-5.56-9.3q0,.016.008.016t.008.016ZM.28-5.3.248-5.328A.125.125,0,0,1,.216-5.3a.087.087,0,0,0-.032.04q0,.016.032.048Zm-4.32-5.136-.048.064a.281.281,0,0,1,.08.032l.032-.032Zm-1.536.128a.065.065,0,0,1-.048.016.263.263,0,0,0,.008.064.263.263,0,0,1,.008.064h.032Zm.336,5.216V-5.1l.064-.128-.1.032Zm5.152.24L-.136-4.9-.2-4.832q.032.032.048.032Zm-2.752-5.6a.065.065,0,0,0-.016.048l.064.048.032-.048Zm1.376-.416v.048h.1v-.048Zm.5,8.656a.065.065,0,0,1,.048.016l.032-.08a.093.093,0,0,1-.064-.016A.178.178,0,0,1-.968-2.208Zm-4.24-7.68v-.048a.223.223,0,0,0-.1.016V-9.9A.223.223,0,0,0-5.208-9.888Zm1.488-.464q.048,0,.048-.016a.033.033,0,0,0-.008-.024.033.033,0,0,1-.008-.024.092.092,0,0,0-.064.032Zm4.1,2.48q.032,0,.032.016l.048-.08a.028.028,0,0,1-.032-.032ZM-5.56-.8a.033.033,0,0,0-.024.008.033.033,0,0,1-.024.008A.033.033,0,0,0-5.6-.76a.063.063,0,0,1,.008.04l.064-.048Zm3.152-3.376.032-.048-.112-.032Zm1.664-.848-.016.016a.087.087,0,0,0,.032.04A.125.125,0,0,1-.7-4.944l.032-.032ZM.472-8.608A.065.065,0,0,1,.52-8.624L.472-8.7Q.456-8.7.456-8.7T.44-8.688A.281.281,0,0,1,.472-8.608Zm-3.728-1.92h.032v-.1h-.048A.223.223,0,0,1-3.256-10.528ZM.408-8.848.376-8.9A.014.014,0,0,1,.36-8.88H.328l.032.064ZM-2.312-4.4l.048.112A.033.033,0,0,0-2.24-4.3.033.033,0,0,1-2.216-4.3Zm.576-6.048h-.128v.064A.347.347,0,0,1-1.736-10.448ZM-1.144-4a.033.033,0,0,1-.008.024.033.033,0,0,0-.008.024.223.223,0,0,1,.1-.016v-.016A.178.178,0,0,0-1.144-4Zm-3.68-.624.032.032a.092.092,0,0,1,.032-.064q0-.016-.008-.016t-.008-.016Zm3.248-6.112h-.016v.08h.016Zm.944.752v.016h.064v-.016ZM-2.264-4.176l-.016-.016q-.016,0-.016.008t-.016.008a.046.046,0,0,0,.032.016ZM-5.16-7.3v-.016h-.048V-7.3Zm-.448-2.3v.016a.014.014,0,0,0,.016.016V-9.6Zm.7,4.464q-.016,0,0,.016l.016.016v-.032Zm3.136,1.28.032.016.016-.016Zm.736-.656v-.016h-.016v.016ZM-5.144-7.7l-.016.016.016.016ZM-1.96-10.88l.016.016A.014.014,0,0,1-1.96-10.88Zm-3.584,8.5h.016V-2.4ZM-1.352-4.4l-.016.016h.016ZM.456-6.8H.44ZM11.288-5.776a.639.639,0,0,0,.024.168.362.362,0,0,1,.008.168,2.326,2.326,0,0,0-.032.768,4.485,4.485,0,0,1,.032.752q0,.224-.016.448l-.032.448a.111.111,0,0,1-.008.048.057.057,0,0,0,.008.048,8.256,8.256,0,0,1,.04,1.2q-.024.592-.008,1.2a.474.474,0,0,1-.528.544h-1.1a.643.643,0,0,1-.28-.3.813.813,0,0,1-.024-.384,2.477,2.477,0,0,0,.016-.488q-.016-.248-.016-.5v-.368A.263.263,0,0,1,9.376-2.1a.263.263,0,0,0,.008-.064A8.985,8.985,0,0,1,9.392-3.3,8.985,8.985,0,0,0,9.4-4.432q-.032-.592-.576-.592-.192,0-.384.016l-.4.032A1.518,1.518,0,0,1,7.776-5a1.518,1.518,0,0,0-.264-.024l-1.568.048a.5.5,0,0,1-.136-.016.5.5,0,0,0-.136-.016q-.144,0-.288-.008a1.733,1.733,0,0,0-.288.008.5.5,0,0,0-.272.152.485.485,0,0,0-.128.3.989.989,0,0,0-.008.216q.008.1.008.216V-2.96a.85.85,0,0,0,.008.12.738.738,0,0,1,.008.1v.48A1.378,1.378,0,0,1,4.7-2.1a1.378,1.378,0,0,0-.008.152q.016.224.024.432t.008.432q0,.208-.008.408T4.7-.3a.482.482,0,0,1-.232.248A.814.814,0,0,1,4.152,0,3.94,3.94,0,0,0,3.72-.008Q3.512,0,3.288.016a.87.87,0,0,1-.24-.032.342.342,0,0,1-.192-.16.526.526,0,0,1-.032-.16q-.016-.448-.032-.88T2.776-2.08q.016-.416,0-.84t0-.84a2.755,2.755,0,0,1,.016-.3,2.755,2.755,0,0,0,.016-.3,2.979,2.979,0,0,0-.016-.312,2.979,2.979,0,0,1-.016-.312v-2.24L2.824-8.3q0-.224-.016-.424t-.032-.424V-9.44a2.606,2.606,0,0,1,.016-.288v-.688q-.032-.272-.048-.536a.868.868,0,0,1,.144-.52A.7.7,0,0,1,3.28-11.6h.392a1.534,1.534,0,0,1,.232.016.843.843,0,0,0,.232,0,.56.56,0,0,1,.472.12.6.6,0,0,1,.136.472l-.032.864Q4.7-9.7,4.7-9.264q0,.272.016.56l.032.576A2.106,2.106,0,0,1,4.72-7.8a.977.977,0,0,0,.008.328q.064.416.352.5.224.016.384.016h.32q.368,0,.72.016a5.173,5.173,0,0,0,.7-.016,2.746,2.746,0,0,1,.592,0,2.6,2.6,0,0,0,.576,0l.72-.032a.5.5,0,0,0,.256-.248.884.884,0,0,0,.048-.3q0-.864-.008-1.736t-.008-1.736a.579.579,0,0,1,.144-.448.748.748,0,0,1,.464-.144h.9a.111.111,0,0,1,.048.008.111.111,0,0,0,.048.008.519.519,0,0,1,.32.64.538.538,0,0,0-.008.16q.008.08.008.16,0,.512-.008,1t.024,1a3.253,3.253,0,0,1,0,.456q-.016.232-.016.456,0,.368.008.736t.008.736q0,.112-.008.224T11.288-5.776Zm-.8-4.16q.1-.032.1-.1a.452.452,0,0,0-.008-.144l-.16.08q.016.048.032.088t.032.072a.524.524,0,0,0-.128-.032V-10.3a.813.813,0,0,0,.128-.008.813.813,0,0,1,.128-.008q-.144-.112-.24-.176l-.224.288a.432.432,0,0,0,.144.5q.032-.032.08-.072t.1-.088A.093.093,0,0,1,10.488-9.936ZM9.976-6.864l-.3.416q0,.016.032.048l.624-.192a.355.355,0,0,0,.016-.112.328.328,0,0,0-.184-.072A.285.285,0,0,1,9.976-6.864Zm-2.592.992q.1-.032.224-.064l.144-.176h.3a.247.247,0,0,0-.264-.144.331.331,0,0,1-.3-.1q.048.176,0,.24a.724.724,0,0,1-.128.128A.355.355,0,0,0,7.384-5.872Zm3.088-.256-.256.032a.808.808,0,0,0-.1.192.286.286,0,0,0,.016.208l.064.064.176-.224h.192Zm.112,3.968-.416-.4a.586.586,0,0,1-.112.1l.064.32a1.764,1.764,0,0,0,.216.048A.4.4,0,0,0,10.584-2.16ZM3.96-5.024a.675.675,0,0,0,.184-.1q.088-.064.056-.24-.128.048-.248.1t-.232.1a.281.281,0,0,0-.032.08.139.139,0,0,0,.072.04.139.139,0,0,1,.072.04.218.218,0,0,1,.032.144h.064a.371.371,0,0,1,.008-.072Q3.944-4.96,3.96-5.024ZM10.3-8.736l-.048.128A1.013,1.013,0,0,1,10.4-8.5a.147.147,0,0,0,.184,0,.888.888,0,0,0,.016-.272.662.662,0,0,0-.144-.176.427.427,0,0,1-.08.112l-.1.1Zm.208-.272v-.256l-.3.128-.048-.208-.032.016v.4a1.264,1.264,0,0,1,.192-.048Zm-.144,2.32a.014.014,0,0,1-.016-.016.209.209,0,0,0,.1.1q.064.032.016.128a.132.132,0,0,0,.024.112q.04.064.072.128a.065.065,0,0,1,.048-.016q0-.128-.008-.272T10.568-6.8q-.1-.048-.136-.008A.356.356,0,0,0,10.36-6.688Zm-4.736.656a1.686,1.686,0,0,1-.1.144q-.048.064-.112.144H5.7L5.848-6v-.016A.033.033,0,0,0,5.84-6.04a.033.033,0,0,1-.008-.024Zm4.7,5.008a.706.706,0,0,0-.2.128.12.12,0,0,0-.008.128l.192.1L10.424-.8q-.032-.08-.048-.128A.4.4,0,0,0,10.328-1.024Zm.016-3.888a1.046,1.046,0,0,0-.064.112,1.565,1.565,0,0,1-.1.16l.368-.032q-.016-.08-.024-.128a.583.583,0,0,1-.008-.1.45.45,0,0,1-.088-.008A.45.45,0,0,0,10.344-4.912ZM8.488-5.888a2.014,2.014,0,0,1,.192.064.2.2,0,0,0,.192-.048l-.048-.16A.205.205,0,0,0,8.64-6.04.508.508,0,0,0,8.488-5.888ZM3.656-6.224q.08.16.256.032a1.325,1.325,0,0,0-.016-.24q-.144-.016-.176.048A1.242,1.242,0,0,0,3.656-6.224Zm6.864-4.64h-.352v.144l.32.048ZM3.912-7.072v-.16a1.863,1.863,0,0,0-.184.04.17.17,0,0,0-.12.12l.032.032h.112a1.242,1.242,0,0,1,.064.16ZM10.024-5.7v-.256q-.1.032-.16.048a1.135,1.135,0,0,0-.144.048v.048ZM3.688-4.24q-.1.08-.088.144a1.17,1.17,0,0,1,.008.144.143.143,0,0,1,.08-.04.409.409,0,0,0,.112-.04l.048-.16ZM3.96-7.9l-.128.128-.112.112.256.1V-7.72A1.352,1.352,0,0,0,3.96-7.9Zm6.656,6.576a.3.3,0,0,0-.352,0l.128.144ZM5.32-6.176a.644.644,0,0,0-.176-.016.342.342,0,0,0,.1.168.932.932,0,0,0,.192.12.954.954,0,0,1-.064-.152A.7.7,0,0,0,5.32-6.176Zm-1.248.32a.3.3,0,0,1-.112.136q-.08.056,0,.184a.3.3,0,0,0,.152-.12Q4.152-5.728,4.072-5.856Zm-.16,3.632L3.688-2.4a1.006,1.006,0,0,1,.016.16.355.355,0,0,0,.016.112q0,.016.1.048A1.542,1.542,0,0,1,3.912-2.224Zm6.224-1.024q.192.192.272.016l-.016-.08ZM3.544-8.336l.24-.064-.24-.16Zm6.992.672a.989.989,0,0,0,.048-.152q.016-.072-.1-.1a.251.251,0,0,0-.048.064.251.251,0,0,1-.048.064Zm-.72,2.336-.032-.32a1.049,1.049,0,0,1-.16.128ZM7.48-5.744H7.7a.644.644,0,0,0-.016-.176h-.08l-.064.1A.524.524,0,0,1,7.48-5.744Zm2.192-.368q.064-.08.04-.136a.242.242,0,0,0-.1-.1.992.992,0,0,0-.064.192ZM4.28-6.192l-.1.048A.251.251,0,0,0,4.12-6.1q-.032.016-.032.04A.088.088,0,0,1,4.056-6q.16.016.184-.008A.43.43,0,0,0,4.28-6.192Zm2.96.064A.113.113,0,0,0,7.112-6h.24Q7.32-6.112,7.24-6.128ZM3.88-2.816a.989.989,0,0,0-.152-.048q-.072-.016-.1.112l.144.048Zm6.256-1.568q-.032.112-.016.128a.142.142,0,0,0,.016.064.783.783,0,0,0,.048.08q.1-.112.064-.16A.546.546,0,0,0,10.136-4.384Zm.176-3.84v.288l.1-.1.064-.064a.372.372,0,0,0-.072-.056A.476.476,0,0,1,10.312-8.224Zm-6.48,5.2a.7.7,0,0,0-.08-.144q-.16.176,0,.24ZM3.56-9.072v.288A.427.427,0,0,1,3.648-8.9a.35.35,0,0,0,.072-.08ZM4.024-1.76q-.08.08-.112.12a.755.755,0,0,1-.112.1.284.284,0,0,0,.176-.04Q4.024-1.616,4.024-1.76ZM3.512-5.3l.12.024a.766.766,0,0,1,.12.04l-.064-.192Zm.272,1.472L3.7-3.872l-.112.256A.065.065,0,0,1,3.64-3.6ZM3.656-1.04q.112.192.272.1Q3.848-.976,3.8-.992ZM3.5-3.376a.57.57,0,0,0-.008.16q.008.064.136.128A.867.867,0,0,0,3.56-3.24,1.1,1.1,0,0,1,3.5-3.376Zm7.056.5a.527.527,0,0,0-.056.2q.008.04.12.12ZM8.744-6.208a.41.41,0,0,0,.152.032q.072,0,.136-.128-.1.032-.152.048T8.744-6.208ZM10.616-4.08a.611.611,0,0,1-.088.128q-.056.064.056.16.016-.08.024-.152A1.234,1.234,0,0,0,10.616-4.08ZM6.952-5.888l.064.112.064-.032a.371.371,0,0,1,.008-.072A.45.45,0,0,0,7.1-5.968.7.7,0,0,1,6.952-5.888Zm3.136-1.376a.688.688,0,0,1,.016.128v.112a.215.215,0,0,0,.088-.112Q10.2-7.184,10.088-7.264Zm.272,5.44.16.144-.048-.208a.439.439,0,0,1-.056.024A.158.158,0,0,0,10.36-1.824Zm-6.1-4.9-.1-.112-.112.144a.178.178,0,0,1,.08-.016A.688.688,0,0,0,4.264-6.72Zm6.016.384-.064-.048q-.016.048-.032.088a.491.491,0,0,1-.048.088q.016,0,.048.032Zm-6.3-2.528L3.928-8.9a.125.125,0,0,1-.032.024.087.087,0,0,0-.032.04.132.132,0,0,0,.008.04q.008.024.024.1Zm.08,2.48q.176-.1,0-.192Zm6.3-2.208.08-.128.112.1Zm-.144,3.424.064.048a.627.627,0,0,0,.064-.144L10.3-5.3Zm-1.04-.768a.223.223,0,0,0,.016.1l.128-.048v-.048ZM6.568-5.92l.1-.128H6.472A.5.5,0,0,1,6.568-5.92Zm-2.976-4.5a.111.111,0,0,0,.048-.008.071.071,0,0,1,.032-.008.508.508,0,0,0-.032-.144.065.065,0,0,0-.048.016Zm7.04,2.256-.144-.064V-8.1ZM6.744-6.24q-.128.032-.12.088a.249.249,0,0,0,.04.1Q6.68-6.1,6.7-6.136T6.744-6.24Zm1.648.48.064-.048L8.344-5.92a.028.028,0,0,1-.032.032Zm2.144,4.24.048-.064-.144-.064-.016.032ZM3.752-10.272q-.1-.032-.12-.016a.254.254,0,0,0-.056.112Zm2.48,4.16v-.064a.371.371,0,0,0-.072.008.371.371,0,0,1-.072.008v.048Zm3.936,2.528a.093.093,0,0,0-.064.016l.064.112.048-.032ZM3.96-10.5l.064-.1a.109.109,0,0,0-.08-.032q-.032.032-.032.048Zm6.608.8q.032-.16-.08-.176.016.048.032.088A.491.491,0,0,0,10.568-9.7ZM5.112-5.9q.048.08.064.08t.08-.08ZM3.72-3.344a.343.343,0,0,0,.1-.064q.008-.016-.072-.08A.508.508,0,0,1,3.72-3.344Zm.144-5.664.048-.064a.246.246,0,0,1-.1-.032.046.046,0,0,0-.016.032.125.125,0,0,0,.032.024A.087.087,0,0,1,3.864-9.008ZM3.624-7.92v-.032a.275.275,0,0,0-.112.016V-7.9A.275.275,0,0,0,3.624-7.92ZM3.56-9.728l.032.032.064-.064-.048-.032ZM9.928-5.68v.064a.223.223,0,0,0,.1-.016v-.032A.223.223,0,0,1,9.928-5.68Zm-1.552-.4-.032-.032-.08.064.032.032ZM3.5-3.856l.064.032a.223.223,0,0,0,.016-.1Zm.176-6.88q.032-.032.048-.032a.087.087,0,0,0-.032-.04.125.125,0,0,1-.032-.024q0,.016-.008.016T3.64-10.8Zm6.912,8.752-.048-.048-.048.112ZM3.832-9.664,3.8-9.712H3.752l.032.064a.033.033,0,0,0,.024-.008A.033.033,0,0,1,3.832-9.664ZM4.9-5.68A.033.033,0,0,0,4.9-5.7a.033.033,0,0,1-.008-.024l-.112.048Zm.528-.512a.033.033,0,0,0-.008-.024.033.033,0,0,1-.008-.024l-.08.048ZM4.6-5.648q0,.032.016.032a.054.054,0,0,1,.04-.016.088.088,0,0,0,.056-.032.177.177,0,0,0-.056.008A.177.177,0,0,1,4.6-5.648Zm-.752-.864q-.032-.032-.032-.048l-.048.048Zm2.608.352a.033.033,0,0,0-.024.008.033.033,0,0,1-.024.008l.048.064ZM3.7-1.424h.112V-1.44A.674.674,0,0,0,3.7-1.424Zm6.432-1.408H10.12v.08h.016ZM3.752-9.344v.016h.064v-.016ZM3.608-7.632v.016q0,.016.008.016t.008.016a.033.033,0,0,1,.008-.024.033.033,0,0,0,.008-.024ZM9.944-6.08H9.928v.048h.016ZM4.008-6.864l-.016.016.016.016q.016,0,.016-.032Zm6.176,2.352v.032l.016.016v-.048ZM3.56-7.36l-.032-.016-.016.016Zm.448-.688L3.96-8.08v.016a.033.033,0,0,1,.024.008A.033.033,0,0,0,4.008-8.048Zm-.08.992h.016Zm16.336-4.528a.888.888,0,0,1,.112.328,2.827,2.827,0,0,1,.016.3,2.121,2.121,0,0,0-.024.408q.008.2.008.392a.544.544,0,0,1-.04.256,1.323,1.323,0,0,1-.232.224H15.56q-.16.016-.3.04a.268.268,0,0,0-.208.184Q15.016-9.216,15-9t-.016.44a.585.585,0,0,0,.008.216.958.958,0,0,1,.024.216,2.755,2.755,0,0,1-.016.3,2.755,2.755,0,0,0-.016.3,2.828,2.828,0,0,0,.016.3,2.635,2.635,0,0,0,.048.3.255.255,0,0,0,.136.192,1.952,1.952,0,0,0,.2.08q.416-.032.8-.04a5.3,5.3,0,0,1,.768.04.033.033,0,0,1,.024.008.063.063,0,0,0,.04.008q.32-.016.624-.024t.624-.008q.08,0,.176.008a1.562,1.562,0,0,1,.176.024.324.324,0,0,1,.24.336v.384l.048.592V-5.2q0,.48-.448.5-.272.016-.56.008t-.56-.008q-.256,0-.5-.008t-.5-.008h-.992l-.3.256a7.123,7.123,0,0,0-.072,1.112q.008.552.072,1.112a.5.5,0,0,0,.5.272,2.886,2.886,0,0,0,.48-.008,1.443,1.443,0,0,1,.5.04.271.271,0,0,0,.184,0,.636.636,0,0,1,.184-.032,4.366,4.366,0,0,0,.648.016q.328-.016.648-.016.224.016.44.016h.44a4.153,4.153,0,0,1,.576.008q.288.024.56.04a.421.421,0,0,1,.208.384V-.448a.491.491,0,0,1-.032.168q-.032.088-.064.184-.112.032-.208.056T19.9,0h-1.92q-.464,0-.92.008T16.136,0q-.624-.032-1.248-.008T13.624,0h-.136a.3.3,0,0,1-.136-.032.453.453,0,0,1-.24-.216.5.5,0,0,1-.048-.328A4.8,4.8,0,0,0,13.1-1.3q-.008-.36-.04-.728-.016-.256-.008-.512t.008-.512v-.816a.85.85,0,0,0-.008-.12.225.225,0,0,1,.008-.1l.048-1.456a1.028,1.028,0,0,0,0-.256l-.032-.256v-.1a.327.327,0,0,1,.016-.1.814.814,0,0,1,.016-.16.277.277,0,0,0-.016-.16,1.781,1.781,0,0,1-.04-.288.532.532,0,0,1,.056-.272.208.208,0,0,0,0-.16,2.123,2.123,0,0,1-.072-.6,4.65,4.65,0,0,1,.056-.6A.111.111,0,0,1,13.1-8.56a.057.057,0,0,0-.008-.048,2.772,2.772,0,0,1,0-.728,2.772,2.772,0,0,0,0-.728,2.02,2.02,0,0,1-.024-.536q.024-.264.024-.536a.576.576,0,0,1,.112-.368.576.576,0,0,1,.368-.112q.352,0,.7-.016t.7-.016a1.043,1.043,0,0,1,.288.008,1.749,1.749,0,0,0,.288.024q.128,0,.256-.008t.256-.008h.56a.142.142,0,0,1,.064.016.068.068,0,0,0,.064,0,1.644,1.644,0,0,1,.664-.024,2.513,2.513,0,0,0,.664.024l.52-.032a4.227,4.227,0,0,1,.52,0q.288,0,.576.024T20.264-11.584ZM17.384-1.12l.112-.1q-.144-.016-.28-.024t-.264-.008a.131.131,0,0,0-.08.048l.24.128a1.046,1.046,0,0,1-.064.112.524.524,0,0,1-.064.08l.128.112q.08-.032.144-.064L17.384-.9Zm-3.264-4.3q.112.016.184.032t.168.032a.515.515,0,0,1-.032-.152.712.712,0,0,0-.016-.136q.064-.08.144-.168a.421.421,0,0,0,.1-.248,1.348,1.348,0,0,1-.224.032l-.208.288.064.112Zm3.008-5.088.032.112.176-.128-.144-.048a1.456,1.456,0,0,1,.112-.16q.064-.08-.048-.224l-.448.08a2.181,2.181,0,0,0,.176.16,1.949,1.949,0,0,1,.16.144h.048Zm1.968-.432-.192.032a1.264,1.264,0,0,0-.192.048.111.111,0,0,1-.008.048.057.057,0,0,0,.008.048l.08.064.128-.144q.048.144.152.144a.785.785,0,0,1,.216.032l.064-.16h.016a.189.189,0,0,0-.12-.1A.7.7,0,0,0,19.1-10.944ZM14.1-1.392l-.144.048a.4.4,0,0,0,.112.4q.064-.064.112-.1l.128-.1a1.15,1.15,0,0,1-.12-.136A.824.824,0,0,0,14.1-1.392Zm.032-4.784.176-.048q-.016-.08-.024-.152a1.378,1.378,0,0,1-.008-.152.677.677,0,0,0-.248.072,1.3,1.3,0,0,0-.232.168h.32a.177.177,0,0,0,.008.056A.177.177,0,0,1,14.136-6.176Zm1.568-4.7-.416-.048.112.24.32.1a1.169,1.169,0,0,0-.008-.144A1.17,1.17,0,0,1,15.7-10.88Zm-.912,9.872-.352-.048a.655.655,0,0,0,.072.28.4.4,0,0,0,.232.04A.861.861,0,0,1,14.792-1.008Zm.848-9.472q-.176-.112-.216-.1t-.1.152a.336.336,0,0,1,.136.032.486.486,0,0,0,.144.04.437.437,0,0,0,.144-.008.326.326,0,0,0,.152-.1l-.176-.112Zm-.256,4.72q-.464.176-.368.384l.192.032Zm1.68.112L16.7-5.712a.213.213,0,0,0-.048.072.5.5,0,0,1-.064.1l.4.064Zm-2.848.8a.24.24,0,0,1,.112-.216q.112-.072.064-.264l-.4.384q.064.032.1.048ZM19.08-.672q.048-.048.088-.1a.413.413,0,0,1,.088-.08l-.144-.208-.24.24Zm-2.672-9.792-.08-.464q-.064.144-.112.24l-.112.224ZM14.3-1.968q-.064.208,0,.28a.728.728,0,0,0,.336.136q-.08-.1-.152-.192T14.3-1.968Zm1.856-3.776a.585.585,0,0,0-.04.152.4.4,0,0,1-.04.136.191.191,0,0,0,.272-.08L16.3-5.664,16.232-5.7A.783.783,0,0,1,16.152-5.744Zm2.448-4.72q.128.128.176.128t.128-.144q-.08-.1-.152-.08A.326.326,0,0,0,18.6-10.464Zm-4.192.048a.287.287,0,0,0,.144-.1.561.561,0,0,0,.08-.16.532.532,0,0,0-.256.072Q14.344-10.56,14.408-10.416Zm-.4,3.728q-.112-.064-.016-.128-.08-.112-.176-.032a.834.834,0,0,0,.032.168.555.555,0,0,0,.112.136Zm2.336.864-.032.144a1.208,1.208,0,0,0,.224-.016L16.5-5.92h-.08Zm.992-.144a.429.429,0,0,0,.144.144q.048.016.208-.064-.08-.112-.168-.1A1.027,1.027,0,0,1,17.336-5.968Zm-3.2-.208a.5.5,0,0,1-.08-.008l-.128-.024q.08.112.128.184a.361.361,0,0,0,.192.12A.969.969,0,0,1,14.136-6.176Zm3.44,5.3h-.192v.16a.982.982,0,0,0,.136-.008.982.982,0,0,1,.136-.008A.4.4,0,0,1,17.576-.88Zm.592-.1-.4-.032.208.192Zm-3.84-9.2L14.3-10.24l-.224.032.112.208a.4.4,0,0,1,.072-.1ZM13.72-7.712a1.18,1.18,0,0,1,.288-.128.065.065,0,0,1-.016-.048h-.256a.263.263,0,0,1-.008.064A.53.53,0,0,0,13.72-7.712ZM15.192-.848A.512.512,0,0,0,15.3-.96a.468.468,0,0,0,.016-.16,1.686,1.686,0,0,0-.144.1Q15.112-.976,15.192-.848ZM15.72-1.1a.512.512,0,0,0,.112.112.3.3,0,0,0,.144,0,.263.263,0,0,0-.088-.136Q15.832-1.168,15.72-1.1Zm-1.2-9.04a.235.235,0,0,1,.1-.08q.072-.032.04-.16a1.413,1.413,0,0,1-.152.08Q14.44-10.272,14.52-10.144Zm-.7,8.128a1.329,1.329,0,0,1,.072-.152.415.415,0,0,0,.04-.2q-.08.1-.136.16T13.816-2.016Zm2.192,1.3q.08-.128-.128-.192V-.72ZM13.944-8.352q-.256,0-.128.24a1.174,1.174,0,0,0,.072-.136A.645.645,0,0,1,13.944-8.352ZM17.96-10.7a.442.442,0,0,1,.04-.088q.024-.04.056-.1h-.24q.048.064.08.1T17.96-10.7ZM14.52-4.992q-.112-.1-.192.08l.112.048Zm3.312-.464a.046.046,0,0,1-.016-.032.123.123,0,0,0-.016-.048q-.032.016-.072.032a.235.235,0,0,1-.088.016.524.524,0,0,1-.128.032.912.912,0,0,1,.16.048A.142.142,0,0,0,17.832-5.456Zm-2.88-5.216.064-.24a.238.238,0,0,0-.136.072Q14.856-10.8,14.952-10.672Zm.64,5.168.032.064a.355.355,0,0,1,.112-.016,1.323,1.323,0,0,0,.176-.016.342.342,0,0,0-.192-.072A.4.4,0,0,0,15.592-5.5Zm1.088-5.328-.064.112.176.08q0-.016.032-.048Zm-2.56,8.08-.112.128.224.08a.95.95,0,0,1-.064-.12A.49.49,0,0,0,14.12-2.752Zm.048-.24h-.08a.186.186,0,0,0-.024.112q.008.048.136.08A1.6,1.6,0,0,1,14.168-2.992Zm3.728-7.44-.1-.272q-.08.112-.048.16A.443.443,0,0,0,17.9-10.432ZM14.9-5.584l-.272.064.128.064Q14.824-5.424,14.9-5.584Zm-.656,1.536a.033.033,0,0,1,.008-.024.033.033,0,0,0,.008-.024l-.112-.1-.08.112Zm-.4,0,.176.112.032-.128h-.08A.688.688,0,0,0,13.848-4.048ZM18.184-5.9a.249.249,0,0,0-.1-.032.159.159,0,0,1-.072-.016l-.032.064a.087.087,0,0,1,.04.032.125.125,0,0,0,.024.032l.064-.032A.783.783,0,0,0,18.184-5.9Zm-2.112,4.64q.112.112.136.112t.1-.08a.583.583,0,0,1-.1-.008ZM13.928-7.232a.178.178,0,0,1-.08-.016.853.853,0,0,0-.016.192h.048Zm5.664-3.456-.112.128q.128.032.144.016T19.592-10.688Zm-.384.176-.112.16a.485.485,0,0,0,.144-.016Q19.288-10.384,19.208-10.512Zm-5.152,1.9.08-.032-.064-.144a.033.033,0,0,0-.024.008.063.063,0,0,1-.04.008Zm1.84,2.64a.111.111,0,0,0-.048.008.111.111,0,0,1-.048.008.371.371,0,0,0,.008.072.371.371,0,0,1,.008.072h.064a.371.371,0,0,1,.008-.072A.45.45,0,0,0,15.9-5.968ZM18.664-.9q.016.192.192.08A.929.929,0,0,1,18.664-.9Zm-.192-10a.158.158,0,0,1-.056.04.439.439,0,0,0-.056.024l.112.144Zm1.184,9.7q-.192.128.016.176A.759.759,0,0,1,19.656-1.2Zm-.688.112a.523.523,0,0,1-.056-.032.078.078,0,0,0-.04-.016q-.032,0-.04.016a.087.087,0,0,1-.04.032q.032.016.032.032t.032.032ZM13.944-1.52a.092.092,0,0,1,.032-.064l-.128-.064q-.032.032-.032.048A.2.2,0,0,0,13.944-1.52Zm.3-9.152q-.1-.048-.112-.04a.3.3,0,0,0-.048.12Zm-.4,1.28.112-.192a.4.4,0,0,0-.112.048Q13.832-9.52,13.848-9.392Zm.176,4.848a.093.093,0,0,1,.064-.016L14.056-4.7a.033.033,0,0,0-.024.008.063.063,0,0,1-.04.008Zm-.192.192q.08-.08.08-.1t-.08-.1Zm.816,2.96-.064.064.1.1a.028.028,0,0,1,.032-.032Zm-.768-8.752a.645.645,0,0,0-.056.1q-.024.056.088.1-.016-.08-.024-.128A.5.5,0,0,1,13.88-10.144ZM16.2-5.872l.192-.048q-.08-.064-.112-.048A.261.261,0,0,0,16.2-5.872ZM13.88-3.12a.758.758,0,0,0,.04.136q.008.008.088-.024Zm2.8,2.048h-.048v.144H16.7A.371.371,0,0,0,16.688-1,.371.371,0,0,1,16.68-1.072ZM14.008-6.688a1.325,1.325,0,0,0,.144-.032.384.384,0,0,1-.144-.1Zm.064.832a.033.033,0,0,0-.008-.024.033.033,0,0,1-.008-.024A.177.177,0,0,0,14-5.9a.177.177,0,0,1-.056.008.071.071,0,0,0,.008.032.111.111,0,0,1,.008.048ZM17.736-.928l-.128-.08L17.576-.9A.263.263,0,0,0,17.64-.9Zm-.56-5.008-.048.048a.455.455,0,0,0,.1.08l.032-.032A.455.455,0,0,0,17.176-5.936ZM14.264-6.88l.032-.064a.111.111,0,0,1-.048-.008A.111.111,0,0,0,14.2-6.96q.016,0-.032.048ZM14.232-8.4a.2.2,0,0,0,.024-.1q-.008-.024-.1.008Zm2.9-2.112v-.048l-.112.032a.046.046,0,0,0,.016.032.111.111,0,0,0,.048-.008A.111.111,0,0,1,17.128-10.512Zm-.592-.336h.128Q16.616-10.944,16.536-10.848Zm-2.7,7.44h.048a.485.485,0,0,1-.016-.144l-.032.016Zm3.744-7.008q-.016,0-.048-.032l-.048.08.032.032ZM13.864-5.76h-.032a.111.111,0,0,0,.008.048.071.071,0,0,1,.008.032.033.033,0,0,0,.024-.008A.033.033,0,0,1,13.9-5.7.092.092,0,0,0,13.864-5.76ZM16.088-10.9l-.032-.032q0-.032-.048.016.032.032.032.048Q16.056-10.864,16.088-10.9ZM13.912-3.808v.032h.08v-.032Zm.32.128h-.016v.08h.016ZM13.848-.736V-.784h-.016A.065.065,0,0,0,13.848-.736ZM14.3-7.168a.033.033,0,0,1-.008.024.033.033,0,0,0-.008.024A.014.014,0,0,1,14.3-7.1Zm-.064-1.968h-.016q0,.016.008.016t.008.016Zm5.152-1.712-.016.016Zm9.456-.736a.888.888,0,0,1,.112.328,2.827,2.827,0,0,1,.016.3,2.121,2.121,0,0,0-.024.408q.008.2.008.392a.544.544,0,0,1-.04.256,1.323,1.323,0,0,1-.232.224H24.136q-.16.016-.3.04a.268.268,0,0,0-.208.184q-.032.24-.048.456t-.016.44a.585.585,0,0,0,.008.216.958.958,0,0,1,.024.216,2.755,2.755,0,0,1-.016.3,2.756,2.756,0,0,0-.016.3,2.828,2.828,0,0,0,.016.3,2.635,2.635,0,0,0,.048.3.255.255,0,0,0,.136.192,1.952,1.952,0,0,0,.2.08q.416-.032.8-.04a5.3,5.3,0,0,1,.768.04.033.033,0,0,1,.024.008.063.063,0,0,0,.04.008q.32-.016.624-.024t.624-.008q.08,0,.176.008a1.562,1.562,0,0,1,.176.024.324.324,0,0,1,.24.336v.384l.048.592V-5.2q0,.48-.448.5-.272.016-.56.008t-.56-.008q-.256,0-.5-.008t-.5-.008h-.992l-.3.256a7.122,7.122,0,0,0-.072,1.112q.008.552.072,1.112a.5.5,0,0,0,.5.272,2.886,2.886,0,0,0,.48-.008,1.443,1.443,0,0,1,.5.04.271.271,0,0,0,.184,0,.636.636,0,0,1,.184-.032,4.366,4.366,0,0,0,.648.016q.328-.016.648-.016.224.016.44.016h.44a4.153,4.153,0,0,1,.576.008q.288.024.56.04a.421.421,0,0,1,.208.384V-.448a.491.491,0,0,1-.032.168q-.032.088-.064.184-.112.032-.208.056T28.472,0h-1.92q-.464,0-.92.008T24.712,0q-.624-.032-1.248-.008T22.2,0h-.136a.3.3,0,0,1-.136-.032.453.453,0,0,1-.24-.216.5.5,0,0,1-.048-.328,4.8,4.8,0,0,0,.04-.728q-.008-.36-.04-.728-.016-.256-.008-.512t.008-.512v-.816a.849.849,0,0,0-.008-.12.225.225,0,0,1,.008-.1l.048-1.456a1.028,1.028,0,0,0,0-.256l-.032-.256v-.1a.327.327,0,0,1,.016-.1.814.814,0,0,1,.016-.16.277.277,0,0,0-.016-.16,1.781,1.781,0,0,1-.04-.288.532.532,0,0,1,.056-.272.208.208,0,0,0,0-.16,2.123,2.123,0,0,1-.072-.6,4.65,4.65,0,0,1,.056-.6.111.111,0,0,1,.008-.048.057.057,0,0,0-.008-.048,2.772,2.772,0,0,1,0-.728,2.772,2.772,0,0,0,0-.728,2.02,2.02,0,0,1-.024-.536q.024-.264.024-.536a.576.576,0,0,1,.112-.368.576.576,0,0,1,.368-.112q.352,0,.7-.016t.7-.016a1.043,1.043,0,0,1,.288.008,1.749,1.749,0,0,0,.288.024q.128,0,.256-.008t.256-.008h.56a.142.142,0,0,1,.064.016.068.068,0,0,0,.064,0,1.644,1.644,0,0,1,.664-.024,2.513,2.513,0,0,0,.664.024l.52-.032a4.227,4.227,0,0,1,.52,0q.288,0,.576.024T28.84-11.584ZM25.96-1.12l.112-.1q-.144-.016-.28-.024t-.264-.008a.131.131,0,0,0-.08.048l.24.128a1.046,1.046,0,0,1-.064.112.524.524,0,0,1-.064.08l.128.112q.08-.032.144-.064L25.96-.9ZM22.7-5.424q.112.016.184.032t.168.032a.515.515,0,0,1-.032-.152A.712.712,0,0,0,23-5.648q.064-.08.144-.168a.421.421,0,0,0,.1-.248,1.348,1.348,0,0,1-.224.032l-.208.288.064.112ZM25.7-10.512l.032.112.176-.128-.144-.048a1.456,1.456,0,0,1,.112-.16q.064-.08-.048-.224l-.448.08a2.181,2.181,0,0,0,.176.16,1.949,1.949,0,0,1,.16.144h.048Zm1.968-.432-.192.032a1.264,1.264,0,0,0-.192.048.111.111,0,0,1-.008.048.057.057,0,0,0,.008.048l.08.064.128-.144q.048.144.152.144a.785.785,0,0,1,.216.032l.064-.16h.016a.189.189,0,0,0-.12-.1A.7.7,0,0,0,27.672-10.944ZM22.68-1.392l-.144.048a.4.4,0,0,0,.112.4q.064-.064.112-.1l.128-.1a1.15,1.15,0,0,1-.12-.136A.825.825,0,0,0,22.68-1.392Zm.032-4.784.176-.048q-.016-.08-.024-.152a1.378,1.378,0,0,1-.008-.152.677.677,0,0,0-.248.072,1.3,1.3,0,0,0-.232.168h.32a.177.177,0,0,0,.008.056A.177.177,0,0,1,22.712-6.176Zm1.568-4.7-.416-.048.112.24.32.1a1.169,1.169,0,0,0-.008-.144A1.17,1.17,0,0,1,24.28-10.88Zm-.912,9.872-.352-.048a.655.655,0,0,0,.072.28.4.4,0,0,0,.232.04A.861.861,0,0,1,23.368-1.008Zm.848-9.472q-.176-.112-.216-.1t-.1.152a.336.336,0,0,1,.136.032.486.486,0,0,0,.144.04.437.437,0,0,0,.144-.008.326.326,0,0,0,.152-.1l-.176-.112ZM23.96-5.76q-.464.176-.368.384l.192.032Zm1.68.112-.368-.064a.213.213,0,0,0-.048.072.5.5,0,0,1-.064.1l.4.064Zm-2.848.8a.24.24,0,0,1,.112-.216q.112-.072.064-.264l-.4.384q.064.032.1.048ZM27.656-.672q.048-.048.088-.1a.413.413,0,0,1,.088-.08l-.144-.208-.24.24Zm-2.672-9.792-.08-.464q-.064.144-.112.24l-.112.224Zm-2.112,8.5q-.064.208,0,.28a.728.728,0,0,0,.336.136q-.08-.1-.152-.192T22.872-1.968Zm1.856-3.776a.585.585,0,0,0-.04.152.4.4,0,0,1-.04.136.191.191,0,0,0,.272-.08l-.048-.128L24.808-5.7A.783.783,0,0,1,24.728-5.744Zm2.448-4.72q.128.128.176.128t.128-.144q-.08-.1-.152-.08A.326.326,0,0,0,27.176-10.464Zm-4.192.048a.287.287,0,0,0,.144-.1.561.561,0,0,0,.08-.16.532.532,0,0,0-.256.072Q22.92-10.56,22.984-10.416Zm-.4,3.728q-.112-.064-.016-.128-.08-.112-.176-.032a.834.834,0,0,0,.032.168.555.555,0,0,0,.112.136Zm2.336.864-.032.144a1.208,1.208,0,0,0,.224-.016L25.08-5.92H25Zm.992-.144a.429.429,0,0,0,.144.144q.048.016.208-.064-.08-.112-.168-.1A1.027,1.027,0,0,1,25.912-5.968Zm-3.2-.208a.5.5,0,0,1-.08-.008L22.5-6.208q.08.112.128.184a.361.361,0,0,0,.192.12A.969.969,0,0,1,22.712-6.176Zm3.44,5.3H25.96v.16A.982.982,0,0,0,26.1-.728a.982.982,0,0,1,.136-.008A.4.4,0,0,1,26.152-.88Zm.592-.1-.4-.032.208.192Zm-3.84-9.2-.032-.064-.224.032L22.76-10a.4.4,0,0,1,.072-.1ZM22.3-7.712a1.18,1.18,0,0,1,.288-.128.065.065,0,0,1-.016-.048h-.256a.263.263,0,0,1-.008.064A.53.53,0,0,0,22.3-7.712ZM23.768-.848A.512.512,0,0,0,23.88-.96a.468.468,0,0,0,.016-.16,1.686,1.686,0,0,0-.144.1Q23.688-.976,23.768-.848ZM24.3-1.1a.512.512,0,0,0,.112.112.3.3,0,0,0,.144,0,.263.263,0,0,0-.088-.136Q24.408-1.168,24.3-1.1Zm-1.2-9.04a.235.235,0,0,1,.1-.08q.072-.032.04-.16a1.413,1.413,0,0,1-.152.08Q23.016-10.272,23.1-10.144Zm-.7,8.128a1.329,1.329,0,0,1,.072-.152.415.415,0,0,0,.04-.2q-.08.1-.136.16T22.392-2.016Zm2.192,1.3q.08-.128-.128-.192V-.72ZM22.52-8.352q-.256,0-.128.24a1.174,1.174,0,0,0,.072-.136A.645.645,0,0,1,22.52-8.352ZM26.536-10.7a.442.442,0,0,1,.04-.088q.024-.04.056-.1h-.24q.048.064.08.1T26.536-10.7ZM23.1-4.992q-.112-.1-.192.08l.112.048Zm3.312-.464a.046.046,0,0,1-.016-.032.123.123,0,0,0-.016-.048q-.032.016-.072.032a.235.235,0,0,1-.088.016.524.524,0,0,1-.128.032.912.912,0,0,1,.16.048A.142.142,0,0,0,26.408-5.456Zm-2.88-5.216.064-.24a.238.238,0,0,0-.136.072Q23.432-10.8,23.528-10.672Zm.64,5.168.032.064a.355.355,0,0,1,.112-.016,1.323,1.323,0,0,0,.176-.016.342.342,0,0,0-.192-.072A.4.4,0,0,0,24.168-5.5Zm1.088-5.328-.064.112.176.08q0-.016.032-.048ZM22.7-2.752l-.112.128.224.08a.95.95,0,0,1-.064-.12A.491.491,0,0,0,22.7-2.752Zm.048-.24h-.08a.186.186,0,0,0-.024.112q.008.048.136.08A1.6,1.6,0,0,1,22.744-2.992Zm3.728-7.44-.1-.272q-.08.112-.048.16A.443.443,0,0,0,26.472-10.432ZM23.48-5.584l-.272.064.128.064Q23.4-5.424,23.48-5.584Zm-.656,1.536a.033.033,0,0,1,.008-.024A.033.033,0,0,0,22.84-4.1l-.112-.1-.08.112Zm-.4,0,.176.112.032-.128h-.08A.688.688,0,0,0,22.424-4.048ZM26.76-5.9a.249.249,0,0,0-.1-.032.159.159,0,0,1-.072-.016l-.032.064a.087.087,0,0,1,.04.032.125.125,0,0,0,.024.032l.064-.032A.783.783,0,0,0,26.76-5.9Zm-2.112,4.64q.112.112.136.112t.1-.08a.583.583,0,0,1-.1-.008ZM22.5-7.232a.178.178,0,0,1-.08-.016.853.853,0,0,0-.016.192h.048Zm5.664-3.456-.112.128q.128.032.144.016T28.168-10.688Zm-.384.176-.112.16a.485.485,0,0,0,.144-.016Q27.864-10.384,27.784-10.512Zm-5.152,1.9.08-.032-.064-.144a.033.033,0,0,0-.024.008.063.063,0,0,1-.04.008Zm1.84,2.64a.111.111,0,0,0-.048.008.111.111,0,0,1-.048.008.371.371,0,0,0,.008.072.371.371,0,0,1,.008.072h.064a.371.371,0,0,1,.008-.072A.45.45,0,0,0,24.472-5.968ZM27.24-.9q.016.192.192.08A.929.929,0,0,1,27.24-.9Zm-.192-10a.158.158,0,0,1-.056.04.439.439,0,0,0-.056.024l.112.144Zm1.184,9.7q-.192.128.016.176A.759.759,0,0,1,28.232-1.2Zm-.688.112a.523.523,0,0,1-.056-.032.078.078,0,0,0-.04-.016q-.032,0-.04.016a.087.087,0,0,1-.04.032q.032.016.032.032t.032.032ZM22.52-1.52a.092.092,0,0,1,.032-.064l-.128-.064q-.032.032-.032.048A.2.2,0,0,0,22.52-1.52Zm.3-9.152q-.1-.048-.112-.04a.3.3,0,0,0-.048.12Zm-.4,1.28.112-.192a.4.4,0,0,0-.112.048Q22.408-9.52,22.424-9.392ZM22.6-4.544a.093.093,0,0,1,.064-.016L22.632-4.7a.033.033,0,0,0-.024.008.063.063,0,0,1-.04.008Zm-.192.192q.08-.08.08-.1t-.08-.1Zm.816,2.96-.064.064.1.1a.028.028,0,0,1,.032-.032Zm-.768-8.752a.645.645,0,0,0-.056.1q-.024.056.088.1-.016-.08-.024-.128A.5.5,0,0,1,22.456-10.144Zm2.32,4.272.192-.048q-.08-.064-.112-.048A.261.261,0,0,0,24.776-5.872ZM22.456-3.12a.758.758,0,0,0,.04.136q.008.008.088-.024Zm2.8,2.048h-.048v.144h.064A.371.371,0,0,0,25.264-1,.371.371,0,0,1,25.256-1.072ZM22.584-6.688a1.325,1.325,0,0,0,.144-.032.384.384,0,0,1-.144-.1Zm.064.832a.033.033,0,0,0-.008-.024.033.033,0,0,1-.008-.024.177.177,0,0,0-.056.008.177.177,0,0,1-.056.008.071.071,0,0,0,.008.032.111.111,0,0,1,.008.048ZM26.312-.928l-.128-.08L26.152-.9A.263.263,0,0,0,26.216-.9Zm-.56-5.008-.048.048a.455.455,0,0,0,.1.08l.032-.032A.455.455,0,0,0,25.752-5.936ZM22.84-6.88l.032-.064a.111.111,0,0,1-.048-.008.111.111,0,0,0-.048-.008q.016,0-.032.048ZM22.808-8.4a.2.2,0,0,0,.024-.1q-.008-.024-.1.008Zm2.9-2.112v-.048l-.112.032a.046.046,0,0,0,.016.032.111.111,0,0,0,.048-.008A.111.111,0,0,1,25.7-10.512Zm-.592-.336h.128Q25.192-10.944,25.112-10.848Zm-2.7,7.44h.048a.485.485,0,0,1-.016-.144l-.032.016Zm3.744-7.008q-.016,0-.048-.032l-.048.08.032.032ZM22.44-5.76h-.032a.111.111,0,0,0,.008.048.071.071,0,0,1,.008.032.033.033,0,0,0,.024-.008.033.033,0,0,1,.024-.008A.092.092,0,0,0,22.44-5.76ZM24.664-10.9l-.032-.032q0-.032-.048.016.032.032.032.048Q24.632-10.864,24.664-10.9ZM22.488-3.808v.032h.08v-.032Zm.32.128h-.016v.08h.016ZM22.424-.736V-.784h-.016A.065.065,0,0,0,22.424-.736Zm.448-6.432a.033.033,0,0,1-.008.024.033.033,0,0,0-.008.024.014.014,0,0,1,.016.016Zm-.064-1.968h-.016q0,.016.008.016t.008.016Zm5.152-1.712-.016.016Zm4.432,3.584q-.08.048-.192.128-.032.176-.048.352t-.016.352l.048,1.952a1.151,1.151,0,0,1-.032.264.552.552,0,0,0,0,.264,2.252,2.252,0,0,1,0,.536,2.252,2.252,0,0,0,0,.536q.032.368.032.728a5.624,5.624,0,0,1-.048.728,1.028,1.028,0,0,0,0,.256l.032.256a1.459,1.459,0,0,1-.1.816,1.7,1.7,0,0,1-.424.1,2.262,2.262,0,0,1-.424.008Q31.016,0,30.8-.024t-.424-.04a.456.456,0,0,1-.16-.352q.016-.32.024-.648t.008-.648a.51.51,0,0,0-.008-.2.889.889,0,0,1-.024-.2l.048-1.536a2.4,2.4,0,0,0-.016-.28q-.016-.136-.032-.28V-6.816q.016-.224.032-.456t.016-.472q0-.176-.016-.344t-.032-.344q0-.112.008-.208t.008-.208a.369.369,0,0,0,.016-.176,1.073,1.073,0,0,1,.016-.608,4.376,4.376,0,0,1-.064-.9q.016-.44.064-.856a.423.423,0,0,1,.328-.168,1.341,1.341,0,0,0,.328-.024,2.588,2.588,0,0,1,.456-.024,4.312,4.312,0,0,0,.456-.008.526.526,0,0,1,.5.3q.176.336.36.664t.36.664q.128.192.24.384l.224.384q.176.288.328.576a5.092,5.092,0,0,0,.344.56,5.7,5.7,0,0,1,.368.656q.16.336.352.656.144.272.3.528t.32.528q.128.224.24.448t.24.448q.08.144.168.272t.168.256a.312.312,0,0,0,.384-.176V-11.3a.6.6,0,0,1,.256-.24.821.821,0,0,1,.336-.064,4.438,4.438,0,0,0,.464.008q.24-.008.48-.008a.608.608,0,0,1,.368.672.742.742,0,0,0-.016.144v.144q0,.512-.008,1.016t.024,1.016a3.252,3.252,0,0,1,0,.456q-.016.232-.016.456,0,.352.008.688t.008.688q0,.128-.008.256t-.024.3a1.137,1.137,0,0,1-.016.624.656.656,0,0,0,0,.288q0,.384.024.76a7.211,7.211,0,0,1,.008.76q-.016.336,0,.672t0,.688V-.64q0,.128-.008.232a.353.353,0,0,1-.088.2.479.479,0,0,1-.432.224H37.016a.49.49,0,0,1-.5-.288l-.3-.528L34.5-3.872l-.992-1.7q-.224-.352-.408-.7t-.392-.7q-.048-.08-.112-.168A.335.335,0,0,0,32.392-7.264Zm-.96.128q-.112-.144-.176-.24l-.144.1a1.031,1.031,0,0,1-.008.128,1.687,1.687,0,0,0-.008.192L31-7.344q-.192.224-.1.392t.176.344l.288-.048-.064-.16a.149.149,0,0,0,.1-.056.168.168,0,0,0,.024-.088.583.583,0,0,0-.008-.1A.129.129,0,0,1,31.432-7.136ZM31.56-8.88a.677.677,0,0,0-.072-.248,1.2,1.2,0,0,0-.128-.192L31.216-9.5a.4.4,0,0,1-.088-.2l.176-.176q-.048-.192-.256-.08l-.112.448a1.5,1.5,0,0,1,.16.152q.064.072.128.136.08.08.144.152A2.254,2.254,0,0,0,31.56-8.88Zm6.048,5.952a.184.184,0,0,0-.168.016l-.12.08-.032.336.128.08-.032.128a.748.748,0,0,1,.288-.008.229.229,0,0,0,.24-.136.524.524,0,0,1-.064-.08l-.064-.1a.185.185,0,0,0-.16.04.5.5,0,0,1-.144.088h-.016A.014.014,0,0,0,37.48-2.5v.016l-.032-.1a.262.262,0,0,1-.016-.064,1.054,1.054,0,0,1,.1-.16A.841.841,0,0,0,37.608-2.928ZM31.672-8.4q0-.08-.008-.16t-.008-.16H31.48l-.032-.064a.251.251,0,0,0-.048-.064l-.1.08.112.112-.112.144a2.343,2.343,0,0,1,.128.264q.048.12.1.248a.906.906,0,0,0,.1-.16.222.222,0,0,0-.008-.192Zm-.336,3.568.048-.464-.192-.1.112-.16a.689.689,0,0,0-.112.008.5.5,0,0,1-.08.008.6.6,0,0,0-.016.144l-.088.032q-.04.016-.072.032a.346.346,0,0,0,.144.288A1.462,1.462,0,0,1,31.336-4.832ZM37.08-2.208v.336l.32.1.16-.208q-.128-.064-.232-.112Zm.864-7.952a2.245,2.245,0,0,0-.3-.24l-.16.208a1.134,1.134,0,0,1,.048.144.625.625,0,0,0,.048.128q0,.016.08.048l.1-.224A.51.51,0,0,1,37.944-10.16Zm-.064.608-.3.192a.675.675,0,0,0-.128.176l.032.112L37.7-9.12a.242.242,0,0,1,.136-.192Q37.96-9.376,37.88-9.552Zm-6.9,1.2a.254.254,0,0,1,.008.112q-.008.064.024.08.1.032.04.1t.056.1l.144-.128-.112-.448Zm6.624,5.424.112-.08-.048-.112-.24-.1a.308.308,0,0,1,.04-.152q.04-.072-.1-.136l-.048.48a1.17,1.17,0,0,0,.144-.008,1.031,1.031,0,0,1,.128-.008A.47.47,0,0,1,37.608-2.928Zm-.48,2.144q.192,0,.16-.16a1.679,1.679,0,0,1-.048-.224q-.016-.112-.176-.144.016.128.024.256A1.765,1.765,0,0,0,37.128-.784ZM31.88-9.3l-.272.208a.853.853,0,0,0,.016.192l.368-.224Zm.5.112q.064.032.064.016a.249.249,0,0,1,.1-.032.1.1,0,0,0,.072-.032.1.1,0,0,1-.032-.072.1.1,0,0,0-.032-.072l-.112.08-.032.032A.028.028,0,0,1,32.44-9.3l.032-.1q.016-.048.032-.112l-.1-.112-.128.3a.372.372,0,0,0,.1.064ZM31.256-2.4q-.1-.192-.144-.208t-.24.08a.371.371,0,0,0,.008.072.663.663,0,0,1,.008.12A1.754,1.754,0,0,1,31.256-2.4Zm-.192-7.92.048.256a.52.52,0,0,1,.168-.224.2.2,0,0,0,.056-.256q-.144-.032-.168.072A.227.227,0,0,1,31.064-10.32Zm2.048,2.112A.669.669,0,0,1,33-8.176l-.032.336a.45.45,0,0,1,.088.008.74.74,0,0,1,.088.024l.064-.256Zm4.48,6.16q.032.08.056.16a.294.294,0,0,0,.1.144.19.19,0,0,0,.1-.256.22.22,0,0,0-.088-.1Q37.7-2.128,37.592-2.048ZM33.624-7.5a.217.217,0,0,0-.144.288.073.073,0,0,0,.04.04.158.158,0,0,1,.056.04l.176-.144a1.045,1.045,0,0,0-.064-.112A1.047,1.047,0,0,1,33.624-7.5Zm3.408,4.7-.24-.032a.588.588,0,0,1-.08.12.2.2,0,0,0-.048.136q.112-.032.2-.064t.168-.064Zm-5.76-5.152-.144.224a1.328,1.328,0,0,0,.136.1.732.732,0,0,0,.168.056Zm5.12,5.04q-.032-.1-.064-.168t-.16-.04q-.016.288.128.3a.121.121,0,0,1,.04-.048A.388.388,0,0,0,36.392-2.912ZM31.4-6.048q-.16.1-.168.168a.362.362,0,0,0,.1.216.235.235,0,0,0,.1-.184A.628.628,0,0,0,31.4-6.048ZM31.16-1.44l.224-.08a.77.77,0,0,0-.152-.184q-.056-.04-.136.04Zm4.272-2.288q.128-.08.1-.144a.9.9,0,0,0-.072-.144.45.45,0,0,0-.088.008.663.663,0,0,1-.12.008Zm-4,2.784a.379.379,0,0,1-.136.032.27.27,0,0,0-.12.032q-.016,0-.032.064L31.48-.7Zm6.16-5.12a.962.962,0,0,1-.16.032.812.812,0,0,0,.008.128q.008.048.024.128l.192-.08ZM37.032-2.8q.128.016.152-.056a1.088,1.088,0,0,0,.04-.2q-.08.032-.136.048a.369.369,0,0,0-.1.048Zm.88,1.536a.222.222,0,0,0-.112.208,1.7,1.7,0,0,1,.016.24.289.289,0,0,0,.1-.224A.784.784,0,0,1,37.912-1.264Zm-5.136-7.5A.575.575,0,0,0,32.8-8.96q-.008-.064-.136-.1Q32.584-8.9,32.776-8.768Zm3.856,6.544a1.208,1.208,0,0,1-.224-.016q.064.128.128.136a.292.292,0,0,0,.144-.024l.064-.144a.065.065,0,0,0-.048-.016ZM31.064-5.68a1.166,1.166,0,0,1-.016-.192.366.366,0,0,0-.08-.208A.293.293,0,0,0,31.064-5.68Zm1.168-3.872H32.3a.992.992,0,0,1,.064-.192l-.192-.16Zm.544,1.632a.585.585,0,0,0,.04-.152.192.192,0,0,0-.072-.152.468.468,0,0,0-.1.16Q32.648-8.032,32.776-7.92ZM37.56-6.4a.216.216,0,0,0,.128-.224l-.048-.048a.162.162,0,0,0-.1.12A.314.314,0,0,0,37.56-6.4ZM34.3-6.432l-.224-.24-.032.208ZM35.848-3.28l.08-.256-.256.1ZM31-4.192l-.112.144.1.1.128-.1A.973.973,0,0,0,31-4.192Zm.64-5.36q-.144,0-.184.048a.194.194,0,0,0-.04.128.026.026,0,0,0,.016.024.228.228,0,0,1,.048.04Zm5.808,1.888a.274.274,0,0,1,.12-.112q.088-.048.008-.16A.2.2,0,0,0,37.448-7.664Zm.224,5.024q.08-.08.12-.128a.452.452,0,0,0,.072-.16.464.464,0,0,1-.168.088Q37.608-2.816,37.672-2.64Zm.176-1.92-.112-.16q-.128.16.016.256Zm-6.08-5.968.192.1-.128-.32ZM35.128-4.4l.16-.128-.176-.064a.879.879,0,0,0-.048.112Q35.048-4.432,35.128-4.4Zm2.544-1.472a.228.228,0,0,0,.048.04.087.087,0,0,1,.032.04,1.637,1.637,0,0,0,.112-.16.333.333,0,0,0,.016-.128.7.7,0,0,1-.1.112Q37.72-5.92,37.672-5.872ZM31.448-4.016l-.024-.1a1.041,1.041,0,0,0-.04-.112q-.064.112-.128.208Zm2.48-2.832-.272.144q.128.064.168.016A1.2,1.2,0,0,0,33.928-6.848ZM37.48-5.056a.093.093,0,0,0,.064-.016l.032-.16-.16.032ZM34.3-5.92l.256.176Q34.488-6,34.28-5.92ZM36.072-3.6q-.08-.144-.192-.048.032.1.08.088A.409.409,0,0,0,36.072-3.6ZM31.3-1.328q-.1.112-.088.16a.215.215,0,0,0,.088.112Zm5.84-1.808a.811.811,0,0,0-.016-.224q-.016-.032-.112-.064Zm.528,1.792q.032-.128-.016-.144a.3.3,0,0,0-.16.016.59.59,0,0,1,.1.064A.874.874,0,0,1,37.672-1.344ZM37.48-.7h.272a.631.631,0,0,0-.136-.088Q37.56-.816,37.48-.7ZM31.288-6.992v.176h-.16ZM31.032-.768v-.24Q30.872-.864,31.032-.768ZM31-3.344q.048-.08.072-.128t-.056-.112l-.024.048a.111.111,0,0,0-.008.048Q30.968-3.472,31-3.344ZM34.552-5.3l-.048.064.144.128.048-.048Zm-3.44-1.072v-.048l-.176-.032a.284.284,0,0,1,.032.128Zm.416-3.472-.08.128a.121.121,0,0,1,.048.04.384.384,0,0,0,.08.072ZM30.872-8.7l.048.048.128-.16-.064-.048A.609.609,0,0,1,30.872-8.7Zm.624-1.36q-.208.032-.08.192Zm5.632,6.3a.369.369,0,0,1,.128-.032.47.47,0,0,0,.112-.016l-.128-.1Zm-2-.64q-.1.128.032.176A.117.117,0,0,0,35.128-4.4ZM37.8-7.952q.16-.064.048-.24Zm-5.888-.8a.033.033,0,0,1,.024.008.033.033,0,0,0,.024.008q.032-.08.064-.176A.033.033,0,0,1,32-8.92a.063.063,0,0,0-.04-.008ZM30.888-3.136q-.032.128-.016.128l.064.08q.032-.032.048-.032Zm6.88-.192q-.128.048-.12.1a.594.594,0,0,0,.024.1Zm-1.04.064a1.091,1.091,0,0,0-.088-.08q-.04-.032-.088.08Zm.384,1.76a.065.065,0,0,0,.048-.016l-.032-.128a.071.071,0,0,0-.032.008.071.071,0,0,1-.032.008ZM32.584-8.336q.1.032.1.008a.2.2,0,0,0-.024-.1A.455.455,0,0,0,32.584-8.336Zm-.88.56a.092.092,0,0,1,.032.064l.112-.08a.033.033,0,0,0-.008-.024.033.033,0,0,1-.008-.024ZM32.232-9.1a.156.156,0,0,0,.08.032.142.142,0,0,1,.064.016v-.112Zm5.5,1.776q-.064-.112-.16.032l.1-.024A.263.263,0,0,1,37.736-7.328Zm-6.56,2.72q-.1-.016-.112,0a.278.278,0,0,0-.032.112A.973.973,0,0,1,31.176-4.608ZM32.44-8.48A.142.142,0,0,1,32.5-8.5a.416.416,0,0,1-.016-.128H32.44Zm1.888,2.432a.416.416,0,0,1-.128.016l.08.112Zm3.584-4.416-.064-.048-.048.08a.014.014,0,0,0,.016.016.046.046,0,0,0,.032.016Zm-.432,8.72q.176.1.08-.08Zm-6.24-4.7.032-.1h-.128a.388.388,0,0,1,.048.056A.121.121,0,0,0,31.24-6.448ZM37.592-4.48a.178.178,0,0,0-.016-.08.046.046,0,0,1-.032.016.123.123,0,0,0-.048.016v.048Zm-6.56-1.712L30.968-6.3Q30.872-6.224,31.032-6.192ZM37.1-3.584v-.048h-.112v.048ZM32.328-8.7h.048v-.112h-.048Zm-.832-1.76a.065.065,0,0,0,.048-.016.177.177,0,0,0-.008-.056.177.177,0,0,1-.008-.056H31.48A.416.416,0,0,1,31.5-10.464Zm.528,2.112A.065.065,0,0,0,32.04-8.4l-.08-.048a.033.033,0,0,1-.008.024.033.033,0,0,0-.008.024ZM31.176-1.9l.048.048.048-.064-.032-.048a.087.087,0,0,1-.032.04A.125.125,0,0,0,31.176-1.9Zm.192-1.5a.065.065,0,0,1,.048-.016.063.063,0,0,0-.008-.04A.063.063,0,0,1,31.4-3.5a.071.071,0,0,0-.032.008.071.071,0,0,1-.032.008A.281.281,0,0,1,31.368-3.408Zm6.048-.672.032-.064a.046.046,0,0,0-.016-.032q-.016-.016-.016,0l-.048.048q.016.016.016.024T37.416-4.08Zm.3-.08a.065.065,0,0,0-.048.016l.032.08h.032A.223.223,0,0,0,37.72-4.16ZM31.16-9.072a.065.065,0,0,1-.048-.016.223.223,0,0,1-.016.1.033.033,0,0,1,.024.008.033.033,0,0,0,.024.008.111.111,0,0,1,.008-.048A.111.111,0,0,0,31.16-9.072Zm6.576,1.744.048.112q.016,0,.048-.032Zm-5.728-2.4h.048a.178.178,0,0,1-.016-.08q-.032,0-.032.016Zm-.784,3.392h.048l-.048-.08Zm.608-2.224v-.032a.063.063,0,0,0-.04.008.033.033,0,0,1-.024.008v.032A.093.093,0,0,1,31.832-8.56Zm-.688,4.144a.674.674,0,0,0-.016.112h.016Zm.176-2.7a.046.046,0,0,0,.032.016L31.3-7.04a.071.071,0,0,1,.008-.032A.111.111,0,0,0,31.32-7.12ZM36.648-2.4q-.016,0-.016-.008t-.016-.008A.014.014,0,0,1,36.6-2.4l.032.032A.046.046,0,0,1,36.648-2.4Zm-5.424-.752-.016-.016a.046.046,0,0,0-.032.016l.032.016ZM37.7-4.32l-.016.016q0,.016.008.016t.008.016a.033.033,0,0,1,.008-.024.033.033,0,0,0,.008-.024Zm-6.16-4.192-.016.016a.046.046,0,0,1-.032-.016q.016,0,.016-.008t.016-.008A.014.014,0,0,0,31.544-8.512Zm-.592-.048q-.064-.032-.048-.032l-.016.016a.033.033,0,0,1,.024.008A.063.063,0,0,0,30.952-8.56Zm3.5,2.992H34.44v.048h.016ZM31-1.7h.016v-.048H31ZM36.584-3.5a.065.065,0,0,1,.016.048l.032-.032A.065.065,0,0,1,36.584-3.5ZM31.32-8.928l.016-.016v-.032l-.016.016Zm5.632,6.784q-.016-.016-.016,0a.014.014,0,0,0-.016.016h.032Zm-5.1-7.52q-.016-.016-.016,0a.014.014,0,0,0-.016.016h.032ZM37-2.56l.016-.016A.014.014,0,0,0,37-2.592l-.016.016A.014.014,0,0,1,37-2.56ZM31.3-7.008V-7.04l-.016.032v.016Zm.32-1.344q-.016,0-.016-.008t-.016-.008a.046.046,0,0,1,.016.032Zm1.024-.88h-.016q0,.016.008.016T32.648-9.232Z" transform="translate(55 26.79)" fill="#fff"/>
    </g>
  </g>
</svg>
