<?xml version="1.0" standalone="no"?>
<!DOCTYPE svg PUBLIC "-//W3C//DTD SVG 20010904//EN"
 "http://www.w3.org/TR/2001/REC-SVG-20010904/DTD/svg10.dtd">
<svg version="1.0" xmlns="http://www.w3.org/2000/svg"
 width="700.000000pt" height="700.000000pt" viewBox="0 0 700.000000 700.000000"
 preserveAspectRatio="xMidYMid meet">
<metadata>
Created by potrace 1.14, written by Peter Selinger 2001-2017
</metadata>
<g transform="translate(0.000000,700.000000) scale(0.100000,-0.100000)"
fill="#000000" stroke="none">
<path d="M2059 6785 c-2 -1 -34 -6 -71 -9 -68 -7 -77 -9 -181 -27 -212 -37
-466 -141 -649 -265 -415 -282 -661 -693 -729 -1214 -18 -140 -14 -565 6 -640
2 -8 7 -37 10 -65 3 -27 11 -75 16 -105 104 -550 310 -1041 650 -1552 83 -124
121 -180 129 -188 3 -3 18 -23 34 -45 38 -52 182 -230 221 -274 186 -210 399
-418 560 -546 28 -22 52 -43 55 -46 16 -19 238 -180 347 -251 l128 -85 203 0
203 0 -33 35 c-18 19 -51 53 -73 76 -55 56 -396 413 -431 452 -16 17 -76 82
-134 144 -58 62 -118 127 -133 144 -16 17 -41 45 -56 61 -15 17 -69 77 -121
135 -51 58 -107 121 -124 140 -17 19 -69 80 -115 135 -45 55 -92 111 -104 125
-95 111 -237 316 -352 505 -71 116 -245 463 -245 487 0 8 -4 18 -9 24 -14 14
-96 258 -125 369 -27 107 -51 229 -61 310 -4 28 -9 61 -11 75 -10 51 -12 357
-3 430 45 375 212 687 499 930 239 202 560 314 905 313 305 -1 548 -108 745
-329 149 -168 261 -380 340 -646 63 -213 85 -394 83 -685 l-1 -183 36 -1 c86
-2 255 1 259 4 2 3 5 13 7 24 41 209 152 478 280 673 217 331 500 557 805 642
94 26 125 30 271 33 155 4 171 2 270 -24 175 -46 286 -108 430 -241 85 -79
206 -242 263 -355 27 -54 89 -225 82 -225 -2 0 0 -12 5 -26 13 -34 20 -81 28
-197 17 -232 -51 -465 -207 -717 -36 -58 -69 -109 -73 -115 -4 -5 -45 -57 -90
-115 -95 -120 -347 -377 -458 -465 -41 -33 -77 -62 -80 -65 -3 -3 -147 -120
-320 -260 -345 -278 -573 -463 -635 -515 -22 -18 -141 -115 -265 -215 -506
-409 -831 -812 -984 -1223 -32 -86 -42 -120 -61 -202 -5 -19 -18 -95 -30 -163
-8 -51 -9 -211 -1 -272 18 -129 86 -245 172 -292 82 -44 178 -62 242 -46 21 5
44 10 52 12 8 2 71 20 140 40 188 53 214 60 223 58 4 -1 7 2 7 7 0 5 -42 34
-94 64 -177 106 -250 184 -279 297 -39 150 23 428 145 645 71 128 128 209 237
340 148 179 314 328 751 677 234 186 432 344 440 351 8 7 177 141 375 299 385
306 552 459 690 633 22 28 42 52 45 55 19 18 136 184 187 266 115 182 224 453
257 639 34 186 38 403 11 545 -56 298 -166 521 -368 750 -269 307 -595 461
-977 464 -180 1 -299 -15 -430 -60 -25 -9 -52 -17 -61 -19 -49 -10 -271 -121
-379 -189 -86 -55 -227 -152 -240 -166 -3 -3 -32 -27 -65 -54 -33 -27 -103
-94 -156 -149 -94 -95 -97 -98 -103 -72 -17 66 -165 371 -209 430 -4 5 -35 50
-69 98 -113 161 -283 326 -443 429 -178 115 -341 176 -595 224 -36 6 -405 15
-411 9z"/>
</g>
</svg>
