<?xml version="1.0" encoding="UTF-8"?>
<svg id="a" data-name="Laag 1" xmlns="http://www.w3.org/2000/svg" viewBox="0 0 2028.2 1513.1">
  <defs>
    <style>
      .b {
        fill: #1d1d1c;
        fill-rule: evenodd;
      }
    </style>
  </defs>
  <path class="b" d="M293,1.1c10.3-.1,47.9-2.8,54,1-9.9,1.4-18.2,7.4-27,10-9.4,2.8-20.6,1.8-32,2v-2l5-11Z"/>
  <path class="b" d="M495,23.1l-1-11c24.5,.2,40.4-6.3,59-11H1971c2.1,3.7,3.1,6.7,9,7,7.7,5.4,26.7,6.1,40,6,1.8-2.7,3.8-3.5,5-7-4.1-1-8.4-3.4-11-6h13c.2,23.7,4.1,76.5-3,93h3V1178.1c-8.2,1-13.5,7.4-14,16l3,1c2.8,1.9,8,.7,11,0v8l-24,1c-2.4-.8-5.1-4.3-8-5-9.3-2.3-33.8,7.1-41,10,.5,1.5,.7,1.7,1,4l-27,18-23,1c-16.5,3.9-34.6,8.3-52,12-1.6,5.2-11.6,17-2,21,8.8,5.8,30.2-6.7,38-8v1c-3.2,3.1-5.2,8.5-9,11-6.3,4.2-30,9-41,9v-2c-4.2-6.4-4-20-3-28-9.5,.9-37.1,7.1-43,12,1.4,.9,2.5-.8,2,2h-1c-2,4.8-6.1,3.3-10,6h1c1.5,1,4.1,1,7,1,5.8-4.1,19.5-4.9,26-2v2h-2c-6.5,4.9-34,8.9-45,9l-4-5c1.2-.9,1.1-.8,2-2h-1c-5,3.4-20,6.2-25,4-4.8-2-8-9.2-17-7-14.1,3.5-28,8.3-40,14v1h8c4.9-3.1,19.9-1.1,27-1,1.7,2.6,3.9,4.5,3,7-3.4,11.5-21.7,11.3-33,15-6.9,2.3-15.8,6.2-23,8-6.4,1.6-18.1-5.3-29-2-14.8,4.6-29.9,13-44,16-1.3,3.9-1.1,10.6-1,16,3.7,4.1,2.8,6.9,11,7l7-5c2.2-2.8,1.8-6.2,5-8,7.4-5.7,18.2,5.2,23,2,5.9-2,10.2-6.9,16-9,11.8-4.2,24.5,2.8,34,5-1,.8-.3,.4-2,1-3.8,4.9-12.2,9.2-18,12v1h1c4.4,4,11.1,.4,18,0,1.6,2.9,2.1,5.7,2,11-11.3,0-23.2,.8-32-2-4-1.3-11.6-5.4-15-4-5.3,1.5-10.5,5.6-11,12,7.4,6.6,8.3,22.6-5,24-4-4.4-17.2-11-24-6-4.7,1-6.8,2.2-7,8-1.9,3.3,.3,9.8-3,12-2.9-4.5-7.9-7.8-11-12-8.9-11.9-18.1-25.8-25-39-6.1,1.5-10.8,5.4-17,7-9.9,2.5-18.5-1.4-27,2-1.5,2.6-2.4,3.1-3,7l6,5c19.5,.5,32-2.4,47,6v1h-1c-5.5,7.9-25.5,19.7-21,37,1.8,7.1,5.8,13.6,7,23l-10-2c-2.6-4.5-5.9-16.9-11-19-1.4-1-3.3-1-6-1-3.5,3.8-8.4,6.3-10,12-2.2,7.8,1.9,13.1-5,16-7.9,4.8-16.8-3.2-26-1-4.2,1-10.9,2.9-16,4-8.6,1.9-18.7-.2-25,2-1.3-3.4-3.6-2.6-5-5-2.5-4.2-4-10.8-6-15-.8,1-.4,.3-1,2-5,6.8-8.5,29.7-15,33-3.8-2.9-10.5-7.8-15-9-13-3.4-19.8,10.6-29,13-12,3.2-20.5-7-33-2-1.3,2.8-1.9,4.4-2,9,3.8,2.9,8.4,10.1,9,16-.8,1-.4,.3-1,2h-5c-2.3-1.5-6.2-.8-9-2l-14-10c-3.8-5.2-.2-11.4-7-14-1.5-1-4.1-1-7-1-1.1,1.9-3.3,3.7-4,6l-1,12c-1.8,3.8-7,6.2-10,9-10.4,.1-21.5-2.9-28-4-7.5-1.2-17.4,3.1-22,1-4.3-3.7-3-10.8-9-13-1.7-1.1-4.9-1.1-8-1-1.2,1.8-4.1,3.2-5,5-3,5.9-.5,8.7-7,11-4.3,3-42,5-47,4-3-5.6-7-17.6-15-18l-3,13c-2.8,.5-10.5-.4-14,1-6,2.4-8.2,8.1-17,9-6.9-5.3-13.2-5.2-13-18,.8-1,.4-.3,1-2,5.2-1.9,23.9-2.8,20-10-1.2-.8-1.7-.8-4-1-1.9,2.5-4.5,4.1-8,5v-4c.9-1.3,.9-2.5,1-5-3.5-.4-4.9-1.3-8-2-1.4-2.4-4.1-4.1-5-7-1.9-6.5,2.2-11.9-3-15-4.3-4.6-14.7-4.2-16,3,2.9,3.2,3.1,9.8,7,12,3.6-3.9,10.6-4.6,11,3-1.8,1-1.7,1.3-4,2-2.9,2-5.5,.2-8-1-.1,6.5-2,7.7-5,11-5.4-1.1-7.3-3.5-11-6-1.2,3.6-1.5,3.7-6,4l-1-3c-3.7-5.4,1.6-9.5,4-12,2.3,.7,2.2,1,4,2v-7c-6.5-7.7-12.5-14.3-25-16-1,3.4-1.3,4.1-5,5-6.9-6.9-7.2,1.2-17,2-2.2-3.5-3.1-5.4-3-12h1v-1h-1v-1c-13,2.8-15.7,8-32,7l-1,3c-2.4,2.6-3,5.9-3,11l10,2v-1c-2-2.5-1.3-1.6-1-5h8c2.6,1.9,6.5,2,9,4,1.2,1,.9,4.1,2,5l17,4v-1c-1.2-.9-1.1-.8-2-2l3-1c5.4-4.4,15.3-.5,21,1v2c-5.9,4.3-7.9,11.7-18,12-4.4-2.9-28.5-2.4-30,1-3.9-6.7-14.9-2.2-24-4-15.6-3.1-34.2,9-45-7,5-2.2,12.2-5.3,16-9-11.8-4-16.2-10.7-31-11-8.5,15.1-29.9-.7-43-3-6.6-1.2-13.6,3.1-22,3-1.3-7.1-4.1-17.3-10-20v1c-4.7,2.4-4.1,7.9-9,10-3.9,3.4-39-.6-47-1-1.6-2.4-4.8-4.2-6-7-3.2-7.2,1.2-14.4-9-15-1.1,5.5-3,11.8-10,12-6.6-4.4-17.3,3.6-28,4-4.4-5.6-9.6-6.9-10-17,1.3-1.4,1.4-1.8,2-4-5.1-1.8-4.4-7.2-4-14l9-1,1-2c-6.3-4.1-4.3-11.2-4-21-7-4.6-8.9-8.3-18-4,2.8,6.7,6.4,23.7-2,27-4.3,2.7-8.9-2.2-10-6-2.1-3.7,1.6-11.9,2-18h-1v-1c-8.6,.3-17.3-2.2-21-7,2.8-1.6,4.8-2.6,6-6h-1v-1l-17-3c-3.3,1-3.7,3.4-9,4-2.3-3.9-3.4-5.1-10-5-1.3,.9-2.5,.9-5,1v2c3.1,2.1,3.9,3.7,4,9l-4,1v1c11.4,1.6,17.4,8.9,25,14,4.7,3.1,11.9,3.4,15,8,3.5,5.1,3.5,12.3,7,17,3.7,4.9,12.1,5.3,15,11h-1c-2.7,8.1-13.5,7.1-21,5l-2-7c-7.4-.2-11.3-3-18-4-2.9,5.4-5.4,9-14,9-4-5.8-14.8-13.1-27-10-2.3,.6-6.4,3.5-11,2-3.9-1.3-23.1-11.2-27-14-3.4-2.4-5.4-6.6-9-9-.5,3.8-1.6,5.2-3,8-6.3,.9-10.5,1.6-11-6,.8-1,.4-.3,1-2,1.3-.5,4-1.2,5-2-11.3-2.7-16.2-5.5-27-1,1.9,5.9,3.4,6.8,3,14-6.6,.2-9.9-.2-10-7,.8-1,.4-.3,1-2h-7c-4.7-3.1-17.3-.5-22,1-18.1,6-39.4,13.3-54,23v2c27.6,2.5,50.4-7.5,76-11v1c-2.4,1.6-2.9,2.9-6,4-9.5,6.4-31.5,6.5-44,10-24.4,6.9-53.1,11.2-77,18l-26,3c-11.6,3.2-16.6,13.8-28,17-15.9,4.5-42.1-13.5-51-18-.5-4.2-1-8.6-1-14h1c7.8,11.3,27.2,5.3,41,4,2.1-3.2,4.6-4.9,6-9-8.7-2.2-15.5-7.7-25-10l-13-1c-2.3-2.1,.3-14.9-1-20-2.3-9.1-8.7-12.4-13-19,12.3,.5,24.8-1.4,28-10h-1c-1.6-4.5-4.8-5.2-11-5-2.1-1.3-8.5-1.5-11-2-.3-14.8-13.1-17.5-19-27,2.7-3.2,3.9-7.1,4-13-3.6-2.2-8.5-5.6-10-10,2.4-2.6,8.3-14.1,9-18-2.7-1.9-2-2.7-7-3-2.5,1.9-7,2.8-10,4,2.3,3.4,6.2,5.2,8,9h-12c-2.3-1.8-5.6-2.2-8-4l-6-8v-2c2.9-.2,9.8-.5,12-2h1v-1c-6-3.6-12.1-6-22-6v1c3,1.9,6,5,8,8h-10c-.9-.6-3.1-1.3-4-2-3.6-1-5.8-2.5-7-6,4.2,0,9.4-.3,11-3-.8-1-.4-.3-1-2-8.3-4-18-6.7-29-9-2.5-6.2-5.9-11.9-7-19-5.3,.9-10.4,4.6-17,3-14.6-3.6-43.3-17.4-43-35,.9-1.3,.9-2.5,1-5h1c3.6,5.6,28.4,17.6,40,10,3.3-1.1,5.9-3.7,8-6-6.4-3.5-11.6-9.7-18-13-6.7-3.4-17.2-.5-18-10,9.2-13.1-3.9-29.1-7-36h2c5.4,3.7,19.4,.2,24-1v-2c-2.6-2.6-4-7-7-9-6.1-4.1-11.7-4.3-16-10,2.6-1.7,3.3-2.2,4-6-4.6-4.4-10.9-11.5-13-18,3.5-2.5,5.8-6.1,6-12-2.5-2.2-7.9-8.8-7-11,2.4-7,9.4-9.7,11-17-2.9-3.6-5.2-10.8-6-16h-25c.4-2.1,.2-1.9,1-3,9.6-6.4,30.6-6.2,43-10,12.2-3.7,23.7-13.3,30-23-17.7-8.3-17,8.7-30,14-8.8,3.6-23.1,1.6-33,1l1-10c-4.7-1.7-14.1-3.4-16-8-4.2-6.4,4.6-14.2,7-18h-1v-1c-5.6,1.2-9.8,4.4-13,8-1.8-.6-1-.2-2-1-1.9-1.7-1.7-1.4-2-5,11.8-11.1,25.5-15,49-15v-2c-3.8-2.1-7.9-4.3-11-7v-2h1v-1l23-2c2.8-1,5.7-4.1,9-5,4.9-1.3,7.9,.4,11-2-10.6-6.5-22.7-13.6-39-14-2.5,5.8-5.3,14.3-13,15-7.5-4.6-15.9-.6-16-13-3-6.6,1.1-21-5-30-6.1-9-19-13.8-23-25,2.5-1.8,2.6-1.8,3-6-5.1-4.1-11.6-13.7-14-20-2-5.2-1.2-9.8-4-14-1.7-2.5-4.8-3.6-6-7l-2-16c-1.4-4.1-4.8-8.8-6-14v-43c-1.8-5.1-9-10-12-15,4-1.5,11.1-3.2,13-7-2.9-2.2-3.1-4.7-3-10h1v-1c23.7-3.2,52.2,6.5,70,14l1,3h-40v1h2c6.8,6.2,19,6,29,9,21.7,6.5,40.9,12,67,9,3.4-5.3,8.8-9.7,11-16-4.8,.1-6.4,.2-8-3-1.4-2.5,.2-4.8-1-7-8.8-8.2-18.9-.7-33-4-14.9-3.5-27.7-9.8-45-10-.9-1.5-1.8-2.9-3-4v-1h2c14.1-9.9,51,6.1,61,0,5.4-1.7,5.7-5.5,9-9v-2c-3.5-2.2-11.6-7.1-13-11-2.8-7.7,.2-14.7-4-21-6.3-9.4-22.3-9.1-28-17-1.3-1.7-1.6-3.1-2-6h2c4.7-4.2,16.1-8.9,23-10-.4-2.1-.2-1.9-1-3-2.9-9.4-10.4-9.8-16-16-5.2-5.8-18.8-26.3-21-34,6.2-1.4,18-7.3,20-13,.3-1,.8-.4,0-1-2.4-3-6.6-3.9-9-7,3.4-1.1,3.3-1.1,4-5-2.8-1.8-4-3.3-5-7,3.3-1.7,7.3-2.1,13-2,5.4-3.5,16.4-1.1,21,0,6.3,1.5,10.6,0,16,2,9.9,3.7,15.9,7.7,31,8,.6-2.6,3.4-6.8,2-8-6.4-5.5-19-3.9-26-9-.8-1.2-.8-1.7-1-4h8l1-3c.8-1.1,.6-.9,1-3h-2c-10.6-7.1-27.2-6.4-37-14,.9-1.1,0,0,1-1,3.3-2.4,6.8-.8,12-2,15.5-3.6,56.5,.7,65-5,.8-1,.4-.3,1-2-12.4-12.9-1.7-17.7-30-17-6.4-4.7-14,1.2-20,3v1h40v2l-2,1c-9,6.9-52.6,17-69,14-.7-2-1-4.7-1-8,1.6-1.5,2.2-2.5,3-5-4.9-1-8.7-3.1-13-5v-1c4.8-3.7,7.6-9.8,12-14v-27c-3.8-1.6-6.6-2.9-8-7,6.2-1.1,8.4-.2,8-9,5.7-8.9,3.9-20.9,8-31,1.1-2.6,4.6-3.8,6-6,2.8-4.2,2-8.8,4-14,2.7-7.1,9.5-11.7,12-19,.3-1,.8-.4,0-1-8.1-7.8-19.5-9.3-31-14-14.8-6.1-31.1-12.8-45-20-5.5-2.8-20.7-5.8-22-12,5.1-.9,10.3-2.2,11-8-4.4-4.8-7.1-14-10-20-10.5,0-16.1-3.9-23-6-7.3-.7-14.7-1.3-22-2l-1-3h1c2.3-5.2,7.9-3.5,10-9h-13c-2.7-1.5-7.1,0-11-1-10.6-2.6-24-5.8-25-18,1.2-.9,1.1-.8,2-2,1.8,.6,1,.2,2,1,5.4,1.9,6.2,5.9,13,7l1-2c-5.5-3.9-8.7-10.6-7-19,7.4-2.5,16.2-2.3,16-13-.8-1.1-.6-.9-1-3,13.5-.5,29.7-2.3,39,4,4.8,3.2,6.4,10.6,12,13,4.2,3,10.1-.3,12-3-8.7-5.6-13.7-15.7-24-20-16.7-4-33.3-8-50-12v-3h25c1.5-7,4.9-11.6,6-19-5.4-3.6-7.5-9.6-12-14,2.4-6.5,7.5-6.7,8-16-3.6-2.6-5.2-6.2-5-10,4.2-4.1,10.7-11.5,13-17,1.9-4.4-.9-8.9,2-11,7.4-5.4,17.7,0,19-12-9.5-2.6-16-4.6-29-3v-1c11.7-8,8-24.2,7-40,16.2-1.8,25.2-10.9,36-18v-1c-3.3-1.1-5.9-3.7-8-6-23.2-.5-27.8,2-41,11v-6c-1.1-1.7-1.1-4.9-1-8,14.5-8.8,24-21.8,44-26,12.6-2.7,21.9,12.1,42,11,11-.6,24.4-1.3,35,1,11.3,2.4,26-1.2,36,1,8.4,1.8,19.8-.5,27,1h22c4.8,1,14-.5,20,1,3.2,.8,5.9,3,9,4v1h-12c-4-2.6-14.1-.7-20-1-16.1-.9-33.6-1.5-45,4v1h1c7.2,7.4,41.4,12.2,55,13l30-1c4.5,.9,14.7,4.6,20,3,8.5-2.5,21.1-12.1,30-16,16.7-7.3,34-11.6,51-19,6.8-3,14.3-9.7,21-12h29v1c-5.3,5.9-2.5,17.2-9,22-9.7,7.2-21.6,6.6-35,11-17.7,5.8-35.8,14.4-55,19v1c16.2,2.4,25.1-2.1,40-6l23-1c.7,1.9,1,3.9,1,7-1.3,1.4-1.4,1.8-2,4h13c8.8-5.5,22.1-3.9,28-12-3.1-1.5-6-2-7-6,6.4-2.1,11-7.3,18-9,9.1-2.2,13.3,3.5,21,4,6.4-10.4,13.7-12.1,29-13Z"/>
  <path class="b" d="M464,1.1h11V3.1h-11V1.1Z"/>
  <path class="b" d="M1992,1.1c2.1,.4,1.9,.2,3,1-2.1-.4-1.9-.2-3-1Z"/>
  <path class="b" d="M475,5.1c1.7,1.8,2.4,4.1,3,7h-1v-1c-1.7-1.8-1.7-2.5-2-6Z"/>
  <path class="b" d="M478,12.1c.8,1,.4,.3,1,2h-1v-2Z"/>
  <path class="b" d="M528,14.1v4c1.5,.5,1.7,.7,4,1,1.5-2,3.9-3.7,6-5v-1h-5c-1.3,.9-2.5,.9-5,1Z"/>
  <path class="b" d="M66,27.1c.2,1.5-.4,3.5,2,2,.8-1,.4-.3,1-2h-3Z"/>
  <path class="b" d="M287,32.1c.7,6.1,2.4,11.4-4,13-1.4-1.3-1.8-1.4-4-2-.8-3.3-1.6-3.9-2-8h2c2-1.9,4.4-2.6,8-3Z"/>
  <path class="b" d="M407,43.1c1.6,1.3,1.1,.6,2,3h-1c-1,.8-.3,.4-2,1v-3c1.1-.9,0,0,1-1Z"/>
  <path class="b" d="M29,48.1c2.9,.6,5.3,1.4,7,3h-1c-2.7,3.8-7.2,3.8-9-1,1.3-.7,2.1-1.1,3-2Z"/>
  <path class="b" d="M388,59.1c-3,1-6,2-9,3v1c5.8,.8,9.1,1.6,11-4h-2Z"/>
  <path class="b" d="M216,69.1v2c2.9,0,1.4,1,3,0h1c-1-.8-.3-.4-2-1-1-.8-.3-.4-2-1Z"/>
  <path class="b" d="M266,75.1l-15-1v1h1c3.1,2.5,8.6,4,13,5v-2c.8-1.1,.6-.9,1-3Z"/>
  <path class="b" d="M1985,75.1v1h-1c-1.9,.8,2,1,2,1,2.7,2.6,7.2,2.4,10,0-1.2-.9-1.1-.8-2-2-3.3,1.1-5.2,.5-9,0Z"/>
  <path class="b" d="M302,92.1v2c2.4,1.3,2.8,1.8,7,2,1.4-1,3.9-1.6,6-2v-1l-13-1Z"/>
  <path class="b" d="M238,102.1c-3.7,1.3-7.3,2.7-11,4v2h34v-2c.3-1,.8-.4,0-1-4.3-3.9-14.8-3.2-23-3Z"/>
  <path class="b" d="M181,116.1c-1.6,1.5-1.8,.8-3,3h13v-1c-3.6-.9-5-1.9-10-2Z"/>
  <path class="b" d="M194,120.1v2c4.4,4.3,6.8,10.4,13,13,7.1,3,15.5,1,24,3,7.6,1.8,19.6,6.7,30,4,3.1-.8,8.4-3.8,13-3,6.1,1.1,11.6,3.6,17,5,1.7-4.9,7.8-7.6,12-10v-1h-5c-13-8.3-25.3,9.3-40,6-8-1.8-15-8-19-14,1.3-.7,2.1-1.1,3-2-14.7-1-30.2-2.9-48-3Z"/>
  <path class="b" d="M185,129.1c0,2.7-1.3,1.6,2,3v-3h-2Z"/>
  <path class="b" d="M254,157.1c-22.3-2.3-44.7-4.7-67-7v1c3.1,3.5,3.3,9.1,8,11,2,1.6,6.7,3,11,2,10-2.3,39.2,1.6,43-1,3.6-1.1,4.3-1.9,5-6Z"/>
  <path class="b" d="M197,179.1c3.2,5.1,18.3,17.1,27,12,4-1,5.8-2.3,7-6-1.1-.9,0,0-1-1-10.2-1.5-19.2-4.9-33-5Z"/>
  <path class="b" d="M245,190.1c2.5,3.7,6.4,5.6,9,9,4.1-1.8,7.5-3.5,9-8h-9c-1.8-1.2-5.7-1.1-9-1Z"/>
  <path class="b" d="M297,200.1c-1.4,1.3-1.8,1.4-4,2v2c4.9,.2,9.2,1.5,13,3v-2h-1c-2.2-2.3-4.4-4-8-5Z"/>
  <path class="b" d="M312,208.1c3.1,3,7.3,3,12,2v-1c-3.3-.7-7.4-1-12-1Z"/>
  <path class="b" d="M136,213.1c4.8,6.6,14.4,9.2,20,15h-1c-4.3,5.4-12.2,3.3-21,3v1c1.1,.9,0,0,1,1,4.1,2.3,8.7,4.7,14,6,4.6,1.1,10.7-1.1,14,1,6.3,7,6.4,14.8,20,15,5-14.6,17.1-15,25-25-3.1-1.7-6.5-2.1-12-2-5.5-3.3-14.7-2-21-4-12.2-3.9-24.7-9.1-39-11Z"/>
  <path class="b" d="M132,251.1c2.1,2.4,1,.2,3,1,.6-1.8-2-.8-3-1Z"/>
  <path class="b" d="M218,255.1c2.6,3.2,4.4,2.3,5,8-1.6,1.7-2.3,3.3-3,6h1c2.5-3.7,6.4-5.4,8-10-2.3-1.1-4.4-2.3-6-4h-5Z"/>
  <path class="b" d="M210,256.1c-1.5,1.1-4.9,1.6-7,2v1h1c1.8,1.6,2.5,1.7,6,2,1.2-1.8,2.2-2.8,4-4v-1h-4Z"/>
  <path class="b" d="M58,258.1c-.9,1.5-1.8,2.9-3,4,.6,1.8,.2,1,1,2,2.9,8.8,18.3,9.4,29,7v-2c-7.9-6.1-12.2-11-27-11Z"/>
  <path class="b" d="M96,281.1c-.6,1.6-.8,2.4-1,5,2.4,1.5,5.3,3.8,7,6,1.1-.9,0,0,1-1,.8-1.2,.8-1.7,1-4-2.8-2.8-3-5.1-8-6Z"/>
  <path class="b" d="M67,296.1c2.9,1.4,3.7,4.1,5,7h-4c-3.7-4-3.8-2.3-1-7Z"/>
  <path class="b" d="M99,304.1v2c1.6-1.2,1.2-.4,0-2Z"/>
  <path class="b" d="M85,349.1h2v1h-1v1h-1v-2Z"/>
  <path class="b" d="M127,446.1c-.4,7.9-3.4,16.4-6,23-.8-1-.4-.3-1-2-3.7-2.9-6.3-9.3-7-15,2-1.9,1.9-2.9,5-4,2.2-1.8,4.8-2,9-2Z"/>
  <path class="b" d="M256,480.1c1.5,3.2,1.7,4.2,6,5,1.2-1.4,2.5-2.9,4-4v-1h-10Z"/>
  <path class="b" d="M120,519.1h3c2.1,3.1,3.5,2.9,4,8-.8,1-.4,.3-1,2h-2c-2.2-2.1-3.7-1.7-5-5-.8-1.1-.6-.9-1-3,1.2-.9,1.1-.8,2-2Z"/>
  <path class="b" d="M152,539.1l3,1v2h-1c-1.1-1.5-1.1-.8-2-3Z"/>
  <path class="b" d="M249,556.1h-8v1c2.1,1.4,3.6,2.9,5,5h2l1-6Z"/>
  <path class="b" d="M53,691.1l3,1c-.9,1.1,0,0-1,1v1h-1v-1c-.8-1-.4-.3-1-2Z"/>
  <path class="b" d="M164,777.1c-.8,.7-2.2,1.3-3,2h2c3.1,2.8,9.6,3.7,15,4,.9-1.1,0,0,1-1-1-.8-.3-.4-2-1-2.6-3.4-6.8-4.1-13-4Z"/>
  <path class="b" d="M253,777.1v2c2.1,1.3,2.3,2.1,5,3,4.8,3.6,12.9,1.3,18,0,1-1.8,1.3-1.7,2-4h-6c-3.5-2.3-13.6-1.1-19-1Z"/>
  <path class="b" d="M292,787.1c-1.9,1.3-5.3,1.6-7,3h2c1.2,.8,1.7,.8,4,1,1-1.5,1.5-2,3-3-1-.8-.3-.4-2-1Z"/>
  <path class="b" d="M168,808.1c6.7,6.3,20.2,8,33,8v-1c-8.7-4-20.4-6.6-33-7Z"/>
  <path class="b" d="M272,809.1c-1.4,1.1-2.9,1.5-5,2-1.2,2.7-1.8,3.8-2,8,1.5,1,2,1.5,3,3,10.1-2,20,.6,30,1v-2c1.3-1.7,1.6-3.1,2-6h-1v-1c-10-.6-16.7-4.4-27-5Z"/>
  <path class="b" d="M196,828.1c-1.2,2.3-1.6,2.3-2,6,2.5,1.5,4.6,3.2,7,2,3.3-1,3.9-1.8,5-5h-1c-1.3-2.5,.4-.7-2-2-1.5-1-4.1-1-7-1Z"/>
  <path class="b" d="M239,833.1v2c2.5,0,3.7-.1,5-1l-5-1Z"/>
  <path class="b" d="M129,889.1c.8,4.3,1,10.3,1,16,3.4,2.2,7,6.7,11,8h19c11.5,2.5,21,4.8,32,1v-1c-14.1-1.8-24.1-6.8-43-7-3.9-8.6-10.2-14.5-20-17Z"/>
  <path class="b" d="M166,943.1c2.1,.4,1.9,.2,3,1-2,2.2-2.1,4.5-5,6v-1c-2.2-.9-1.4-.9-3-2,.9-1.1,0,0,1-1,1.2-1.5,2.6-1.8,4-3Z"/>
  <path class="b" d="M145,951.1h2v2h-2v-2Z"/>
  <path class="b" d="M165,974.1l-9,3c-1.1,1.8-2.5,3.6-4,5,.6,1.8,.2,1,1,2,1.6,4.6,4.8,4.3,11,4,7.3-4.9,15.1-3.7,18-13-4.9-.6-10.8-1-17-1Z"/>
  <path class="b" d="M241,1026.1c-1.9,2.6-5,4.5-8,6v1h2c3.4-3,10.2-2.3,14-5-3.3-.8-3.9-1.6-8-2Z"/>
  <path class="b" d="M126,1192.1c3.7,.6,4.3,1.6,7,3-1,.8-.3,.4-2,1-1.7,1.3-3.1,1.6-6,2-1-1.8-1.3-1.7-2-4,1.3-.7,2.1-1.1,3-2Z"/>
  <path class="b" d="M1971,1206.1c7,.3,11.1,.3,18,2v2h-1c-5.1,7-15.5,11.4-27,9v-2c4.1-2.6,10-5.7,14-9-4.5-.2-3.8,.6-4-2Z"/>
  <path class="b" d="M2015,1209.1h8v1c-1.9,1.1-4.5,2.5-6,4,2.1,1.2,1.9,.7,3,3-6.8,2.5-9.1,6.9-19,5l-1-3c2.2-1.4,5-3.2,7-5-2.2-.9-3.6-1.3-5-3h6c1.4-.9,5.6-1.1,7-2Z"/>
  <path class="b" d="M369,1212.1l-9,4v1c2.9,0,5.5,0,7,1h-2c-1.3,1.6-.6,1.1-3,2v1h3c3.3-2.3,8.2-.2,11,1v1h-1l-16,17h3c9.1-7.8,24.4-8.7,33-17-4.2-1.5-10.4-.1-16-2-4.8-1.6-5.4-7.1-10-9Z"/>
  <path class="b" d="M163,1216.1c0,2.8-1.2,2.2,3,3v-2h-1c-1-.8-.3-.4-2-1Z"/>
  <path class="b" d="M1971,1221.1h3c1.4,2.5,1.9,3.5,2,8-6.5,3.5-15.4,5.1-23,8,1.4,3.7,.8,9.2,0,13h-2c-5.6,3.7-7.5-2.8-7-9,.8-1,.4-.3,1-2h-3c-1.4,1-3.3,1-6,1-1.3-1.8-2-1.7-3-4,5.2-.6,35.1-12.3,38-15Z"/>
  <path class="b" d="M354,1222.1c1.7,1.1,2.3,1,4,0h-4Z"/>
  <path class="b" d="M229,1227.1c-17.5-.4-23.9-1.2-36,5v1h4c3.8-2.6,10.3-.2,15,0,13.9,.5,25.3,6.3,36,11v-8h-2c-3.2-2.1-10.9-2.2-15-3l-1-3c-.8-1.1-.6-.9-1-3Z"/>
  <path class="b" d="M285,1235.1c-4.6,5.7-14.9,8-23,10-3.1,.8-6-.3-8,1h1c4,3.3,11.5,5.7,18,6,6.3-5.6,16.2-5.8,21-13-3.1-1.4-5.4-3-9-4Z"/>
  <path class="b" d="M1907,1240.1c5.5,0,8,1,12,2,1,2.2,1.5,2.8,2,6-1.8,2.5-2.8,7.3-4,10h-1v-1c-6.7-4-12.4-10.8-9-17Z"/>
  <path class="b" d="M1969,1240.1c2.4,.6,3.1,1.1,5,2l-1,3c-1.8,1-1.7,1.3-4,2-1-1.8-1.3-1.7-2-4h1l1-3Z"/>
  <path class="b" d="M1900,1250.1h-7v-2c1.5-1.6,.8-1.8,3-3,1-.6,1.9-.1,5,0v2c-.8,1.1-.6,.9-1,3Z"/>
  <path class="b" d="M447,1246.1c-10.1,7.5-15.4,3.5-22,17h4c4-2.7,10.1-2,15-4,5-2,9.3-5.6,14-8v-2c-4.8-.9-5.1-2.6-11-3Z"/>
  <path class="b" d="M2023,1250.1c2.3,.3,2.5,.5,4,1v1h-1v1c-2.1-1.2-1.9-.7-3-3Z"/>
  <path class="b" d="M1753,1268.1c9.4,.1,15.5-2.3,23-4v-2c-2.8-2.2-3.1-4.6-7-6-5.9,4.2-15.5,2.1-16,12Z"/>
  <path class="b" d="M1855,1257.1c.9,.9,1.3,1.8,2,3-3.3,0-4.5,.5-7,1v-2c3-.4,3.4-.5,5-2Z"/>
  <path class="b" d="M1974,1258.1c.4,.3,2,.5,1,2-1.1-.5-3.1-1.8-1-2Z"/>
  <path class="b" d="M1968,1259.1c2.5,1.3,.7-.4,2,2h-2c-1.2,.8-1.7,.8-4,1v-2c2.3-.2,2.8-.2,4-1Z"/>
  <path class="b" d="M1922,1267.1c1.1,2,.6,1.8,0,4h-1c.3-2.3,.5-2.5,1-4Z"/>
  <path class="b" d="M1940,1267.1c2.1,.4,1.9,.2,3,1h-1c-1,.8-.3,.4-2,1v-2Z"/>
  <path class="b" d="M421,1293.1c8.1-.9,17.1-4.1,24-7-.9-1.5-2.8-.7-1-2,2.7-2.7,5.7-3.8,11-4l2,3c8.4-3.2,18.2-7.1,28-8v-3c-2.5-.7-3.5-1.4-5-3-11.9-.2-19.4,4.6-29,7-5.2,1.3-9.5-.5-13,2,2.4,1.7,3.1,2.7,4,6h-4c-2.5-2.1-3.7-1.4-5-5,1.2-.9,1.1-.8,2-2h-5c-2.6,2.4-4.6,2.2-6,6-1.8,2.3-2.6,6.3-3,10Z"/>
  <path class="b" d="M1915,1273.1h8c1.6,2.8,2.6,3.4,3,8-2.9,1.8-2.9,2.7-8,3-3.2-3.3-9.2-6.7-14-8v-1h1c2.1-1.3,7.9-.7,10-2Z"/>
  <path class="b" d="M1792,1290.1c-9.3,1.8-20.3,6.1-24-5,7.1-4.7,10.9-7.1,24-7,5.1,10.7,12.7,5.1,16,14,1.1,1.7,1.1,4.9,1,8-14,10.3-35,14.6-55,19-9.6,2.1-16.6-2.6-25-3-2.9,5-7.3,16.9-13,19-5.4-7-12.2-11.8-17-20,9.1-5.9,19-10.2,33-12,3.1,4.8,6.7,7.1,15,7l38-5c1.5-2.1,4.1-4.3,6-6l1-9Z"/>
  <path class="b" d="M1726,1280.1c2.5,1.5,1.1-.2,2,3-3.3-1.5-2-.2-2-3Z"/>
  <path class="b" d="M1843,1280.1l1,8c-2.5,1.5-2.3,2.3-6,3-.5-3.5-1.2-4-2-7,2.8-1.8,2.8-3.2,7-4Z"/>
  <path class="b" d="M1883,1280.1l3,1v1h-1c-1.1,.8-.9,.6-3,1l1-3Z"/>
  <path class="b" d="M1870,1285.1c2.3,.3,2.5,.5,4,1v1h-4v-2Z"/>
  <path class="b" d="M2014,1286.1h3c1.3,2.4,1.8,2.8,2,7-1.6,1.7-2.4,4.3-4,6v-1c-2.7-1.8-4.9-4.6-6-8,1.8-1.1,3.6-2.5,5-4Z"/>
  <path class="b" d="M1659,1287.1v2h3c1-.8,.3-.4,2-1v-1h-5Z"/>
  <path class="b" d="M1910,1295.1c17.9-1.8,33.8-6.6,51-8v1h-1c-4.2,4-30.7,16.4-39,15-3.5-.6-7.1-3.1-11-4v-4Z"/>
  <path class="b" d="M1677,1289.1c-4.1,4.7-15,6.5-22,8v1h5c4.9-3,19.8-4.1,26-7v-1h-4c-1.3-.9-2.5-.9-5-1Z"/>
  <path class="b" d="M481,1291.1c-10.4,7.8-28.2,6.6-39,14-6.2,4.2-5.9,11.3-9,17h2c9.8-6.1,37.6-3.6,43-13-2.7-1.6-.8,.2-1-3,2.6-2.4,5.2-5.8,6-10-.7-1-1.3-4-2-5Z"/>
  <path class="b" d="M1835,1295.1c.4,.3,2,.5,1,2-1.1-.5-3.1-1.8-1-2Z"/>
  <path class="b" d="M1594,1297.1h-4l-1,4h4v-1h1v-3Z"/>
  <path class="b" d="M1964,1304.1c-.8,7.1,.9,13.4,0,19-5.1,1.6-7.3,4.4-14,5-2.8-4.1-4.1-5.2-4-13,2.6-2.9,2.9-6.4,7-8,2.3-2.8,5.6-3.1,11-3Z"/>
  <path class="b" d="M462,1306.1l3,1v2c-4.2-.9-2.9-.2-3-3Z"/>
  <path class="b" d="M1874,1309.1c3.6,0,5.4,.5,8,1v1h-1c-1.7,2.7-4.6,5-7,4-2.4-.8-1.6-.4-3-2,1.6-1.3,2-2.1,3-4Z"/>
  <path class="b" d="M422,1311.1c-.3,2.4-.3,.9,0,4h1v-1c.5-2.1,1-1-1-3Z"/>
  <path class="b" d="M2012,1314.1l3,1c-.6,1.8-.2,1-1,2-1.2,.8-1.7,.8-4,1l-1-2c1.3-.7,2.1-1.1,3-2Z"/>
  <path class="b" d="M1833,1315.1h3c1.5,2.5,2.3,2.3,3,6-3,1.8-3.8,2.8-9,3-1.1-2.1-1.4-1.8-2-5,1.8-1.1,3.6-2.5,5-4Z"/>
  <path class="b" d="M1624,1317.1c3.9,2.1,6.1,2,10,4v1h-2c-1.9,1.3-6.3,1.7-9,2-2-4.2-1.4-3.1,1-7Z"/>
  <path class="b" d="M1919,1317.1c4.4,1.5,8.6,7.5,10,12h-1c-3.6,5.5-10.9,9.1-19,10v-2c4.1-4.4,8.3-13.7,10-20Z"/>
  <path class="b" d="M484,1329.1c-2.1-.4-1.9-.2-3-1-.8-1-.4-.3-1-2,1.8-.6,1-.2,2-1l-15,3v2h4c8.2,5.8,29-1.8,31-7-1.7-.6-3.2-.9-6-1-2.8,1.9-9.3,2.3-13,3v1c.8,1.1,.6,.9,1,3Z"/>
  <path class="b" d="M1579,1322.1c-3.5,2.5-8.3,2.7-12,5-4.4,2.7-6.9,6.8-13,8-8.3-8.6-37.6,1.8-38,12,2.2,.8,5.4,1,9,1,6.4-4.2,23.5-3.1,33-3v-1c-1.8-1.2-2.8-2.2-4-4h11c2,1.5,7.9,1.6,9,1,1.3-2.1-.3-6.2,1-9,2.1-4.3,6.8-2.3,8-9h-1v-1h-3Z"/>
  <path class="b" d="M428,1323.1l-11,3v1h4c2.3,1.3,6.5-1.5,9-3-1-.8-.3-.4-2-1Z"/>
  <path class="b" d="M1793,1324.1h3c1.3,1.8,2,1.7,3,4-2.1,1.1-1.8,1.4-5,2-1-.8-.3-.4-2-1-.6-3.1-.5-2.1,1-5Z"/>
  <path class="b" d="M544,1327.1v3c3.9,0,6.5-.4,8-3h-8Z"/>
  <path class="b" d="M1982,1327.1h2v2h-2v-2Z"/>
  <path class="b" d="M1743,1328.1c2.5,1.3,.7-.4,2,2h1v1h-1l-1,2c-1.8-.6-1-.2-2-1-2.5-1.3-.7,.4-2-2,1.3-.7,2.1-1.1,3-2Z"/>
  <path class="b" d="M1875,1340.1h5c-.4,2.1-.2,1.9-1,3-1.2,.8-1.7,.8-4,1v-4Z"/>
  <path class="b" d="M1839,1342.1l6,4v1h-1c-1.5,2.2-3.3,3.2-5,5-1.8-.6-1-.2-2-1-5-3.8-.7-5.1,2-9Z"/>
  <path class="b" d="M629,1343.1c-1,.8-2.7,1.4-4,2,1,.8,.3,.4,2,1,2,1.3,6.5,1.1,10,1v-1c-2.8-1.3-4.2-2.4-8-3Z"/>
  <path class="b" d="M1519,1344.1c2.1,1.2,1.9,.7,3,3h-2c-1.6-2.7-.8-.1-1-3Z"/>
  <path class="b" d="M1874,1344.1l-1,5c-1.7,.6-3.2,.9-6,1l-1-3h1c1.3-2.5-.4-.7,2-2,1.3-.9,2.5-.9,5-1Z"/>
  <path class="b" d="M511,1354.1l-1-5h-3c-2.1,2.8-6.2,5-10,6v1h6c2-1.5,4.6-1.8,8-2Z"/>
  <path class="b" d="M654,1356.1c2.3,.3,2.5,.5,4,1v1h-1c-1.6,1.2-.5,.6-2,0-.8-1-.4-.3-1-2Z"/>
  <path class="b" d="M1781,1359.1c2.4,.6,3.1,1.1,5,2-1.7,2.6-2.2,3.3-6,4l-1-3c1.6-1.3,1.1-.6,2-3Z"/>
  <path class="b" d="M590,1363.1c2.9,2.2,16.8,4.1,20,2l-20-2Z"/>
  <path class="b" d="M1975,1363.1c4.6,.1,5.6,1.1,9,2v3c-2.5,1.5-2.3,2.3-6,3-2.2-2.1-3.7-1.7-5-5h1l1-3Z"/>
  <path class="b" d="M465,1365.1c-1.1,1.5-1.1,.8-2,3h2v-1c1.2-1.6,.6-.5,0-2Z"/>
  <path class="b" d="M611,1366.1c1.7,.9,1.3,.9,3,0h-3Z"/>
  <path class="b" d="M1459,1366.1c-3.8,5.9-10.9,14.7-18,17-7,2.3-12.5-1.6-17,1-.8,1.2-.8,1.7-1,4,1.5,.9,2.9,1.8,4,3,13,.6,20.7-1.6,31-4,3.1-.7,7.4,.7,9,1,11,2.3,18.8-7.3,21-14l-29-8Z"/>
  <path class="b" d="M767,1373.1c1,.8,.3,.4,2,1-1-.8-.3-.4-2-1Z"/>
  <path class="b" d="M791,1374.1v2c2.1,1.3,2.3,2.1,5,3,2.7,2.2,6.3,2.9,11,3,2.2-2.3,3.8-2.5,5-6-2.9-1-7.7-1.1-12-1-1.8-1.2-5.7-1.1-9-1Z"/>
  <path class="b" d="M1931,1374.1l2,2c-2.7,.9-3.3-.6-2-2Z"/>
  <path class="b" d="M831,1385.1c5.1,0,7.8-.7,11-2v-1h1v-4l-11-1c-.7,2-1,4.7-1,8Z"/>
  <path class="b" d="M534,1378.1c-1,2.8-2.5,1.4,0,3v-1c1.2-1.6,.6-.5,0-2Z"/>
  <path class="b" d="M880,1381.1c-1.5,2.5-2.3,2.3-3,6,1.6,.6,2.4,.8,5,1,1.2-.8,4.6-1.5,6-2-1-.8-.3-.4-2-1-1.7-2.4-2.7-3.1-6-4Z"/>
  <path class="b" d="M1663,1381.1c3.4,.1,5.2,.5,7,2-2.3,2.2-2.5,3.8-6,5-1-1.8-1.3-1.7-2-4,.8-1.1,.6-.9,1-3Z"/>
  <path class="b" d="M733,1402.1h9c1.7-2.7,2.5-2.5,3-7-4.7-2.7-9.9-5.5-15-8v3c2,2.7,2.7,7.7,3,12Z"/>
  <path class="b" d="M1342,1387.1v2h3v-2h-3Z"/>
  <path class="b" d="M1897,1391.1h2v1c-1.8-.6-1-.2-2-1Z"/>
  <path class="b" d="M626,1393.1c1,.8,.3,.4,2,1-1-.8-.3-.4-2-1Z"/>
  <path class="b" d="M1849,1397.1c7.7-.2,11.1,1.4,16,3v2h-7c-2,1.3-6.5,1.1-10,1-.6-1.6-.8-2.4-1-5,1.8-.6,1-.2,2-1Z"/>
  <path class="b" d="M1812,1402.1h2v2h-2v-2Z"/>
  <path class="b" d="M1464,1404.1c1,3.1,1.3,7.4,4,9v-1c1.3-1.4,1.4-1.8,2-4-2.4-1.6-2.9-2.9-6-4Z"/>
  <path class="b" d="M564,1406.1c15.6-.4,27.7,2.9,40,6,19,4.8,38.9,5.5,57,10,16.1,4,31.3,2,35,18h-2c-12.8,8.4-35.3-.2-46-3-12.6-3.3-22.2,3.8-29,7v2c3.5,1,7.8,4.9,8,6-9.6,7.1-24.6-1.7-27-9l12-4v-1c-7.4-3.6-12.5-3.3-23-3v2l9,5v1h-1c-5.9,4.3-17.9,.5-21-4,4.1-.4,9.4-1.8,12-4-11.7-7.3-17.4-4-33-7-3.5-6-7.8-11.7-11-18h2c4.5-2.9,13.3-1,18-4Z"/>
  <path class="b" d="M1491,1411.1c1.7,1.1,1.1,1.8,2,0h-2Z"/>
  <path class="b" d="M1784,1411.1l10,1c.5,1.5,.7,1.7,1,4-2,.7-4.7,1-8,1-1.4-1.3-1.8-1.4-4-2,.3-2.3,.5-2.5,1-4Z"/>
  <path class="b" d="M750,1413.1c.3,2.3,.5,2.5,1,4,.8-1,.4-.3,1-2h1c1-1-1-1-1-1-1-.8-.3-.4-2-1Z"/>
  <path class="b" d="M281,1416.1c3.6,0,5.4,.5,8,1v2h-2c-1.8,1.6-2.5,1.7-6,2-.7-2.5-.7-2.5,0-5Z"/>
  <path class="b" d="M1180,1421.1c.4,2.6-.7,1.3,2,2v-1l-2-1Z"/>
  <path class="b" d="M1723,1422.1c4,1,5.8,2.3,7,6-2.4,1.3-2.8,1.8-7,2-1-.8-.3-.4-2-1-.7-2.3-1-2.2-2-4,1.9-1,2.8-1.4,4-3Z"/>
  <path class="b" d="M726,1425.1c6,.9,14.4,6.1,18,10,4.7-1.8,7.4-6.5,12-8,12.5-4,23.7,3.8,30,7v1h-18c-1.7-.8-2.6-.2-6,0-2.2,3.6-5.2,6.9-8,10-20.6,.2-37.9-4.3-57-5v-1h1c4.3-6.3,7.7-3.4,15-7,2.1-1,5-5.1,7-6,4.5-2.1,3.5,3.1,6-1Z"/>
  <path class="b" d="M1482,1425.1c-1.3,2.4-1.8,2.8-2,7l3,1c1.4,1.1,2.9,1.5,5,2,1.8-2.8,3.8-4.4,5-8h1v-1h-4c-1.7-1.1-4.9-1.1-8-1Z"/>
  <path class="b" d="M1585,1428.1h2v2h-2v-2Z"/>
  <path class="b" d="M961,1429.1c-2.1,3.2-3.5,3.7-4,9,2,2.7,1.9,6.3,5,8,3.3-5,7.9-8.6,10-15h-1v-1l-10-1Z"/>
  <path class="b" d="M1365,1429.1c-1.2,.8-1.7,.8-4,1-1.7,2.2-2.8,2-4,5-.8,1.1-.6,.9-1,3,1.8,1.3,1.7,2,4,3,2,1.5,6.8,1.6,8,1,4.4-.7,5.3-1.6,6-6,.7-1.2,.1-1,0-4-2.3-1.2-2.3-1.6-6-2-1.1-.8-.9-.6-3-1Z"/>
  <path class="b" d="M1201,1447.1c3.5-.4,4.9-1.3,8-2,1.8-2.9,2.7-2.9,3-8-3-3.3-12.2-11.4-13,0,1.5,2.2,1.8,6.7,2,10Z"/>
  <path class="b" d="M801,1432.1c3.2,.8,1.5-.5,3,2h-3v-2Z"/>
  <path class="b" d="M322,1433.1v2c2.9,0,1.4,1,3,0h1v-1h-1v-1h-3Z"/>
  <path class="b" d="M1315,1433.1c-1,1.8-1.3,1.7-2,4l3,2c1.4,1.1,2.9,1.5,5,2,1-1.8,1.3-1.7,2-4h1v-1h-1c-2.1-1.7-4.6-2.5-8-3Z"/>
  <path class="b" d="M824,1434.1l3,1v1h-1c-1.1,.8-.9,.6-3,1v-2h1v-1Z"/>
  <path class="b" d="M1160,1434.1c-1.8,4.5-1.2,9.5,2,12,4.1,3.3,9.2,2.3,15,2,1.1-1.8,2.5-3.6,4-5l-1-6-5-3c0,2.7,0,4.6-1,6-3.2-3.1-8.4-5.5-14-6Z"/>
  <path class="b" d="M1248,1434.1c-.8,2.9-1.4,2.6-2,6,3.5,2.2,4,3.7,10,4v-1h1l1-5c-3.4-1.6-5.5-3.3-10-4Z"/>
  <path class="b" d="M1459,1436.1c-.5,2.9-1.2,1.8,1,4v1h1v-1c.8-1.1,.6-.9,1-3l-3-1Z"/>
  <path class="b" d="M1135,1437.1c-2.5,2.5-3.4,1.1-4,6,2.8,1.8,2.8,3.2,7,4,1.3-2.4,1.8-2.8,2-7-2.1-1.3-2.3-2.1-5-3Z"/>
  <path class="b" d="M1608,1439.1c4.1,.6,5.8,2.4,9,4-1.8,2.9-2.9,4.3-7,5-1.3-1.8-3.1-2.9-5-4l3-5Z"/>
  <path class="b" d="M1562,1443.1h2v2h-2v-2Z"/>
  <path class="b" d="M799,1454.1c-3,0-2.7,.8-4,0-3.8-1.2-4.6-2.2-5-7,1.5-.5,1.7-.7,4-1,1.5,1.2,4.2,2.2,6,3l-1,5Z"/>
  <path class="b" d="M846,1450.1l3,1v2c-4.2-.9-2.9-.2-3-3Z"/>
  <path class="b" d="M724,1451.1c3.8,.2,4.6,.9,7,2l-1,2c-4.3,1-6.5-.3-6-4Z"/>
  <path class="b" d="M820,1451.1l3,1-1,2c-2,0-.3,1-2,0-.7-1.5-.1-.1,0-3Z"/>
  <path class="b" d="M630,1452.1c18.6-.5,45.8-2.4,54,8h1v1c-15.7,2.5-44.7,.7-55-9Z"/>
  <path class="b" d="M889,1453.1l21,1v1h1l2,15-22-1-2-16Z"/>
  <path class="b" d="M1672,1461.1c2.1,1.2,1.9,.7,3,3h-1c-1.3,2.5,.4,.7-2,2v-1c-1.1-2-.6-1.8,0-4Z"/>
  <path class="b" d="M1552,1468.1c4.6,.1,5.6,1.1,9,2v1l-6,9c-2.5-1.1-3.8-1.4-5-4-.8-1.1-.6-.9-1-3,1.1-1.3,2.2-3.5,3-5Z"/>
  <path class="b" d="M1497,1470.1l6,1c.5,1.5,.7,1.7,1,4-6.1,3.9-10.1,10.1-16,14-.7-5.8-.2-8.9,1-14,2.3-1.4,5.8-3.2,8-5Z"/>
  <path class="b" d="M777,1477.1l-7-1v-5h2c1.4,1.3,3.2,2.1,5,3v3Z"/>
  <path class="b" d="M1467,1471.1c3.7,1.5,4.5,.9,5,6-2.9,1.9-3.5,3.3-8,4-1.6-1.2-4.4-1.7-6-3h1c1.9-3.1,3.7-5.2,8-6v-1Z"/>
  <path class="b" d="M812,1474.1c7.7,.8,12.2,5,12,14-6.4,6.4-9.1,4.8-15-1-.2-6.7,.8-9.3,3-13Z"/>
  <path class="b" d="M979,1477.1c2.1,.4,1.9,.2,3,1h-1c-1,.8-.3,.4-2,1v-2Z"/>
  <path class="b" d="M1441,1477.1h3c1,4,2.5,5,3,10-2.7,2.9-1.5,4.4-7,5-2-3.4-3-4.9-3-11,1.5-1.1,2.8-2.6,4-4Z"/>
  <path class="b" d="M856,1478.1c11.2-.3,19.5,5.6,20,16-2.7,1.7-2.5,2.5-7,3-4.9,2.7-18.4-1.5-25-2-1.8-2.8-3.8-4.4-5-8,6-2.3,12.8-4.8,17-9Z"/>
  <path class="b" d="M1268,1478.1c-.4,2.3-.9,1.1,0,3,1.2,.8,1.7,.8,4,1l1-3h-2c-1.1-.8-.9-.6-3-1Z"/>
  <path class="b" d="M1368,1478.1c8.9-.5,17.3,0,19,7-3,3.9-4.8,11.8-6,17-.8-1-.4-.3-1-2-3.3-3.3-3.1-9.2-6-13l-7-4c-.9-2.2,.7-3.9,1-5Z"/>
  <path class="b" d="M1410,1478.1c5.4-.1,12.2-.3,16,1-1.5,4.2-2.8,8.4-7,10-1.3,.9-2.5,.9-5,1-3.5-3.1-9.1-3.3-11-8l7-4Z"/>
  <path class="b" d="M897,1481.1h4c2.8,4.2,5.5,5,6,12-3.4,4.2-2.8,6.1-11,6-2.8-4.1-4.1-5.2-4-13,1.8-1.3,3.7-3.2,5-5Z"/>
  <path class="b" d="M791,1482.1c3.1,1,2.9,1,4,4h-1l-2,3h-1v-1c-2.8-2.6-1.6-3,0-6Z"/>
  <path class="b" d="M1012,1482.1c5.4,1.2,21.9,8.9,23,14-2.9,3-3.7,7.3-8,9-6.6,3.9-15.1-7.7-25-6-5,.8-9.3,4.9-13,6-3.8,1.2-33.9-8.1-37-10-2.9-1.8-5.1-5-8-7,.3,8.3-1.8,11.1-10,11-1-.8-.3-.4-2-1-.6-1.7-.9-3.2-1-6,.8-1,.4-.3,1-2,7-.9,14.2-6.6,22-5,5.2,1.1,13.8,3,20,4,3.7,.6,12.7-1.5,19,0,1.9,.5,7.5,3.8,10,3l9-10Z"/>
  <path class="b" d="M853,1483.1c1,.8,.3,.4,2,1-1-.8-.3-.4-2-1Z"/>
  <path class="b" d="M1051,1483.1c2.5,1.5,1.1-.2,2,3h-1v1h-2c.3-2.3,.5-2.5,1-4Z"/>
  <path class="b" d="M1063,1488.1c4.7,.1,6.4,1.1,10,2,1.5,2.5,2.3,2.3,3,6-3.7,2.7-17,13.1-21,3-4.5-6.9,4.3-8.7,8-11Z"/>
  <path class="b" d="M1126,1489.1l1,3h2v-2h-1c-1-.8-.3-.4-2-1Z"/>
  <path class="b" d="M1435,1504.1c1.8,1.6,1.4,.9,2,4h-2v-1c-.9-1.9-.5-.7,0-3Z"/>
  <path class="b" d="M1363,1511.1c2.1,.4,1.9,.2,3,1h-1c-1,.8-.3,.4-2,1v-2Z"/>
</svg>