<svg xmlns="http://www.w3.org/2000/svg" id="Laag_1" data-name="Laag 1" width="92.307" height="60" viewBox="0 0 92.307 60"><script xmlns=""/>
  <path id="Path_33" data-name="Path 33" d="M33,44.352v2.912A1.841,1.841,0,0,0,34.841,49.1h40.1a1.841,1.841,0,0,0,1.834-1.834V44.352a1.841,1.841,0,0,0-1.575-1.82V31.467a5.228,5.228,0,0,0,.973-3.045V26.287h0V25.8h0l-2.247-5.6a2.212,2.212,0,0,0-2.065-1.4H48.335a1.19,1.19,0,1,0,0,2.373H71.67L73.238,25.1H35.982l1.568-3.926H42.8a1.19,1.19,0,1,0,0-2.373H37.444a2.212,2.212,0,0,0-2.065,1.4l-2.24,5.6v.035a1.121,1.121,0,0,0-.035.112h0v.1h0v.112h0V28.3a5.249,5.249,0,0,0,1.6,3.772V42.532a1.841,1.841,0,0,0-1.7,1.82ZM68,27.47H73.77v.952a2.891,2.891,0,1,1-5.774,0Zm-8.154,0h5.774v.952a2.891,2.891,0,1,1-5.774,0Zm-8.154,0H57.5v.952a2.891,2.891,0,1,1-5.774,0Zm-8.154,0h5.774v.952a2.891,2.891,0,1,1-5.774,0Zm-1.155,4.276a5.256,5.256,0,0,0,8.119,0,5.256,5.256,0,0,0,8.154,0,5.256,5.256,0,0,0,8.154,0A5.249,5.249,0,0,0,72.8,33.322v9.2H37.01V33.525a5.256,5.256,0,0,0,5.368-1.778ZM35.415,27.47h5.774v.952a2.891,2.891,0,1,1-5.774,0Zm0,17.421H74.4v1.834h-39Z" transform="translate(-25.849 -11.705)" fill="#fff"/>
  <path id="Subtraction_7" data-name="Subtraction 7" d="M22.617,47.481a8.3,8.3,0,0,1-8.261-7.526H3.558C1.463,39.955,0,38.328,0,36V2.628A2.631,2.631,0,0,1,2.627,0H19.556a3.2,3.2,0,0,1,2.507,1.243l.1.151,7.89,13.91,6.6,5.406a2.687,2.687,0,0,1,.995,2.071v2.705H31.332a.046.046,0,0,0-.02,0,.05.05,0,0,0-.02,0,.048.048,0,0,0,0,.047l.653,3.36a.056.056,0,0,0,.048.04l5.653.023v7.36a3.655,3.655,0,0,1-3.639,3.639H30.878a8.3,8.3,0,0,1-8.261,7.526Zm.044-13.848a5.574,5.574,0,1,0,3.924,9.531h.008a5.573,5.573,0,0,0-.008-7.915A5.537,5.537,0,0,0,22.661,33.633ZM6.234,5.232A1.73,1.73,0,0,0,4.506,6.959V17.422A1.73,1.73,0,0,0,6.234,19.15h15.2a2.852,2.852,0,0,0,2.474-4.27L18.879,6.1a1.729,1.729,0,0,0-1.5-.868Z" transform="translate(54.661 12.437)" fill="#fdad20"/>
  <path id="Path_35" data-name="Path 35" d="M124.276,69.28a4.355,4.355,0,1,0,3.081,1.274A4.355,4.355,0,0,0,124.276,69.28Zm1.17,5.518a1.648,1.648,0,1,1,.486-1.17A1.648,1.648,0,0,1,125.447,74.8Z" transform="translate(-46.986 -21.992)" fill="#fdad20"/>
  <path id="Path_36" data-name="Path 36" d="M46.076,69.28a4.355,4.355,0,1,0,3.081,1.274A4.355,4.355,0,0,0,46.076,69.28Zm1.17,5.518a1.648,1.648,0,1,1,.486-1.17,1.648,1.648,0,0,1-.486,1.17Z" transform="translate(-31.051 -21.992)" fill="#fdad20"/>
  <path id="Path_48" data-name="Path 48" d="M77.781,59.583H51.411a8.3,8.3,0,0,0-16.132,0H32.222a1.2,1.2,0,0,1-1.2-1.2V13.792a1.2,1.2,0,0,1,1.2-1.2H92.56a.2.2,0,0,1,.183.143l1.592,5.255a1.354,1.354,0,1,0,2.588-.8l-1.592-5.255A2.914,2.914,0,0,0,92.56,9.89H32.222a3.91,3.91,0,0,0-3.9,3.9V58.381a3.91,3.91,0,0,0,3.9,3.9h2.866a8.3,8.3,0,0,0,16.522,0H77.781A1.373,1.373,0,0,0,79.284,61,1.4,1.4,0,0,0,77.781,59.583ZM47.3,65.491a5.574,5.574,0,1,1,1.64-3.981A5.574,5.574,0,0,1,47.3,65.491Z" transform="translate(-28.32 -9.89)" fill="#fff"/>
  <path id="Path_49" data-name="Path 49" d="M6.2.645A5.558,5.558,0,1,0,11.761,6.2,5.558,5.558,0,0,0,6.2.645m0-2.8A8.353,8.353,0,1,1-2.15,6.2,8.363,8.363,0,0,1,6.2-2.15Z" transform="translate(71.082 45.444)" fill="#fff"/>
<script xmlns=""/></svg>