<svg xmlns="http://www.w3.org/2000/svg" width="47.5" height="47.5" viewBox="0 0 47.5 47.5"><script xmlns=""/>
  <path id="Whatsapp" d="M40.386,9.152A23.546,23.546,0,0,0,3.34,37.557L0,49.75l12.479-3.276a23.466,23.466,0,0,0,11.249,2.863h.011A23.764,23.764,0,0,0,47.5,25.8,23.631,23.631,0,0,0,40.386,9.152ZM23.739,45.371a19.529,19.529,0,0,1-9.967-2.725l-.71-.424-7.4,1.94,1.972-7.22L7.167,36.2A19.6,19.6,0,1,1,43.524,25.8,19.782,19.782,0,0,1,23.739,45.371Zm10.73-14.653c-.583-.3-3.478-1.718-4.018-1.908s-.933-.3-1.325.3-1.516,1.908-1.866,2.311-.689.445-1.272.148c-3.456-1.728-5.725-3.085-8.005-7-.6-1.039.6-.965,1.728-3.213a1.09,1.09,0,0,0-.053-1.028c-.148-.3-1.325-3.191-1.813-4.368-.477-1.145-.965-.986-1.325-1.007-.339-.021-.732-.021-1.124-.021a2.179,2.179,0,0,0-1.569.732,6.609,6.609,0,0,0-2.057,4.909c0,2.895,2.11,5.694,2.4,6.086s4.146,6.33,10.051,8.885c3.732,1.612,5.2,1.749,7.061,1.474,1.134-.17,3.478-1.421,3.965-2.8a4.919,4.919,0,0,0,.339-2.8C35.445,31.153,35.052,31,34.469,30.718Z" transform="translate(0 -2.25)" fill="#fdad20"/>
<script xmlns=""/></svg>