<svg xmlns="http://www.w3.org/2000/svg" width="17.287" height="23.078"><path data-name="Path 32" d="M13.073 11.734c-.119.082-.214.246-.333.328l-2.1 1.026c-.571.246-1.143.451-1.69.739L4.169 16.29l-2.116 1.149-.741.327-.786.246a2.657 2.657 0 0 0-.524 1.806c.024.534 0 1.108.024 1.642 0 .492.071.985.1 1.436a.542.542 0 0 0 .714.082l1.213-.655 1.071-.616.333-.123c.4-.164.809-.328 1.214-.534.429-.205.833-.492 1.262-.7l2.047-.944a102.192 102.192 0 0 0 3.381-1.765l1.952-.985 1.809-.862a22.929 22.929 0 0 0 1.6-.78c.429-.205.524-.492.548-1.231 0-.9.024-1.806.024-2.709 0-.616 0-1.231-.024-1.888s-.214-1.026-.6-1.19c-1.143-.534-2.309-1.067-3.452-1.642a4.919 4.919 0 0 1-.619-.369l-.786-.328-.928-.534-2.738-1.231-.214-.164-.809-.492a10.282 10.282 0 0 1-2.024-.9c-.667-.492-1.357-.616-2-1.026C2.386.859 1.624.571.886.161A.728.728 0 0 0 .124.079a6.233 6.233 0 0 0-.1.657q-.036 1.6 0 3.2a4.124 4.124 0 0 0 .167.739l.238.205a14.554 14.554 0 0 0 2.124 1.109 29.934 29.934 0 0 1 2.785 1.436 10.642 10.642 0 0 0 1.357.7 18.569 18.569 0 0 1 1.809.9c.619.205 1.19.78 1.762.78a5.211 5.211 0 0 0 .667.451c.619.164 1.214.575 1.809.78.164.042.283.206.331.698ZM9.026 7.302a2.9 2.9 0 0 0-.024-.41l.238.246.119-.451h.714l-.452.985ZM3.503 4.06l-.071.246a2.606 2.606 0 0 1-.429-.287l-.262-.492.238-.287a2.294 2.294 0 0 0 .262.328l.167-.246.238.616c-.024 0-.024.082-.048.123Zm5.308 2.706c-.143.369-.31.287-.5.082l-.214-.821c.286-.205.4.123.548.328h-.024ZM6.053 17.932v.287c-.167.328-.381.451-.619.287a3.68 3.68 0 0 1-.31.369l.119-.534-.143-.246a1.48 1.48 0 0 0 .286-.205l.286.369Zm-.167-12.23a.868.868 0 0 1-.309-.082l.143-.9c.119 0 .214-.041.4-.041-.094.407-.142.694-.237 1.022ZM4.145 18.588a2.167 2.167 0 0 0 .476.041 4.038 4.038 0 0 0 .048.534l-.524.123Zm11.094-7.962a.81.81 0 0 1-.024-.944l.238.124a5.687 5.687 0 0 0 .024.616Zm.5.41c-.119.492-.143.944-.452 1.026.024-.287.071-.616.1-1.026Zm-6.642 4.72a2.582 2.582 0 0 1-.262 1.231l-.143-.328a1.2 1.2 0 0 1 .405-.903Zm4.238-6.89.333.7c-.262.205-.4 0-.548-.41Zm2.881 3.16-.143-.575h-.262l.31-.739c.024.041.048.082.1.082Zm-1.643-.328c-.1.328-.238.205-.4.205a2.551 2.551 0 0 0-.048-.492c.114-.251.233-.169.448.282Zm-10.69 7.468a5.653 5.653 0 0 0-.286.739c-.1-.328-.143-.492-.262-.821Zm9.142-4.887.167.41a3.861 3.861 0 0 1-.286.369l-.214-.369Zm1.333-1.888c.048.739.048.739-.31.739a.729.729 0 0 1 .31-.739Zm-1.4-4.1-.524.328a1.461 1.461 0 0 1 0-.328l.167-.369ZM1.149 2.258l.381.287a.737.737 0 0 1-.048.205c-.143.164-.262.205-.4-.123Zm8.948 13.008.048-.082.524.7-.286.164Zm3.881-1.438a2.481 2.481 0 0 1 .19.451 1.994 1.994 0 0 0-.381.246c-.024-.369.024-.574.191-.697Zm.786-.123c-.071-.287-.1-.492-.143-.739h.432c0 .041.024.082.024.123a.46.46 0 0 0-.19.164 3.419 3.419 0 0 0-.124.451ZM11.431 7.59c-.119.164-.214.246-.286.369a.45.45 0 0 1 .1-.657Zm-4.762 9.85c.238-.164.333-.041.357.287a.884.884 0 0 0-.143.205c-.048-.082-.119-.123-.143-.205-.048-.042-.048-.161-.071-.288Zm7.928-6.649c.071 0 .119 0 .143.041l.19.451-.19.369c-.048-.369-.096-.574-.143-.861Zm-6.38 6.443c.167-.287.167-.287.6-.246l-.119.164a1.756 1.756 0 0 1-.482.082ZM1.74 19.45c.167.451-.119.41-.214.575v-.41a.748.748 0 0 1 .214-.165Zm-.333.164a1.086 1.086 0 0 0 .024.616.7.7 0 0 1-.262-.041l.1-.575Zm6-13.913a3.689 3.689 0 0 1-.309-.451c.214-.082.309.041.381.287Zm-1.4 11.656.1.41-.452-.205Zm9.875-4.191.357-.123-.166.497Zm-5.047 2.878c-.048-.575-.048-.575.262-.492a2.472 2.472 0 0 0-.262.492Zm-8.309 3.037.048.534a1.834 1.834 0 0 0-.333-.369Zm12.737-6.977a1.268 1.268 0 0 1-.238.287 3.139 3.139 0 0 1-.024-.492Zm-1.119-2.011.1-.164c.119.123.19.205.024.451Zm-5.5-3.735c0-.082.024-.205.024-.328l.262.246ZM6.477 5.045a.323.323 0 0 1 .19-.041.308.308 0 0 1 .024.164.464.464 0 0 0-.214.082Zm1 11.943a.884.884 0 0 1-.143-.205c0-.041.024-.082.024-.123l.19.164Zm2.928-9.768a.884.884 0 0 0 .143.205l-.048.123-.167-.164ZM7.453 17.603l-.19.123a3 3 0 0 0-.048-.328ZM3.668 4.388a1.666 1.666 0 0 1-.048-.287c.048 0 .119 0 .143.041v.124c.001.04-.023.04-.094.122Zm7.119 10.548c-.071.246-.071.246-.262.123Zm-9.118 5.458c-.143.164-.214.082-.238-.123ZM4.312 4.019v.164a.253.253 0 0 0-.167.041c0-.041-.024-.082-.024-.123Zm7.88 10.465a.865.865 0 0 0 .024-.246h.071a.865.865 0 0 1 .024.246Zm-.429-5.951c-.024 0-.024.041-.048.082l-.1-.205c.024-.041.048-.082.071-.082Zm4.048 3.243c.048 0 .119-.041.19-.041v.123h-.19ZM3.216 3.566c.024.205.071.328.214.328Zm1.69 1.519c-.024.041-.024.082-.048.082-.048 0-.071-.041-.119-.082l.048-.123Zm-.118 12.888a.143.143 0 0 0 .119.041.606.606 0 0 0-.024.205l-.119-.123a.228.228 0 0 0 .024-.123ZM15.43 9.354a.3.3 0 0 1 .1.164l-.024.041a.156.156 0 0 1-.119-.082Zm-3.333-1.6a.3.3 0 0 1-.1-.164s0-.041.024-.041.071.041.119.082a.265.265 0 0 0-.043.123Zm2.309 1.641a1.564 1.564 0 0 1-.048.205c-.024 0-.048-.041-.071-.041l.071-.205c.024.041.024.041.048.041Zm.5.369c-.024-.041-.048-.041-.048-.082l.071-.164s.024.041.048.041Zm-5 6.525c.024 0 .048-.041.048-.082l.071.164c-.024 0-.071.041-.1.041a.635.635 0 0 1-.019-.122Zm-7.738 3a.733.733 0 0 1-.024.246.265.265 0 0 0-.048-.123c.001-.046.025-.046.073-.126Zm9.19-10.835a.1.1 0 0 0-.1-.041v-.047h.1ZM2.453 20.189c-.048 0-.071 0-.1.041v-.123ZM10.853 8c0 .041.024.041.024.041 0 .041-.024.041-.024.082-.024 0-.024-.041-.024-.041a.11.11 0 0 1 .03-.082ZM1.478 19.491c.024.041.024.082.048.082h-.073a.19.19 0 0 0 .025-.082ZM6.597 6.066v-.164a1.06 1.06 0 0 1 .024.164ZM2.883 19.327s.024 0 .048.041c0 0-.024 0-.024.041l-.024-.043Zm8.047-4.391c0-.041.024-.041.024-.041.024 0 .024.041.024.041Zm2.5-.862v.082l-.024-.041ZM3.193 18.666v.045l-.048-.041Zm8.57-3.156c.024-.041.024-.082.024-.041.024-.003 0-.003-.024.041Z" fill="#fdad20"/></svg>